  0
SECTION
  2
HEADER
  9
$ACADVER
  1
AC1021
  9
$ACADMAINTVER
 70
50
  9
$DWGCODEPAGE
  3
ansi_1252
  9
$TITLE
  1

  9
$SUBJECT
  1

  9
$AUTHOR
  1

  9
$KEYWORDS
  1

  9
$COMMENTS
  1

  9
$LASTSAVEDBY
  1

  9
$REVISIONNUMBER
  1

  9
$INSBASE
 10
0
 20
0
 30
0
  9
$EXTMIN
 10
154.98689242565439
 20
180.63725536998453
 30
0
  9
$EXTMAX
 10
496.48289242565454
 20
357.785238629394
 30
0
  9
$LIMMIN
 10
0
 20
0
  9
$LIMMAX
 10
420
 20
297
  9
$SNAPMODE
 70
0
  9
$SNAPUNIT
 10
1
 20
1
  9
$SNAPBASE
 10
0
 20
0
  9
$SNAPANG
 50
0
  9
$SNAPSTYLE
 70
0
  9
$SNAPISOPAIR
 70
0
  9
$ORTHOMODE
 70
1
  9
$REGENMODE
 70
1
  9
$FILLMODE
 70
1
  9
$QTEXTMODE
 70
0
  9
$MIRRTEXT
 70
1
  9
$LTSCALE
 40
1
  9
$OSMODE
 70
0
  9
$ATTMODE
 70
1
  9
$TEXTSIZE
 40
2.5
  9
$TRACEWID
 40
1
  9
$TEXTSTYLE
  7
Standard
  9
$CLAYER
  8
0
  9
$CELTYPE
  6
ByLayer
  9
$CECOLOR
 62
256
  9
$CELTSCALE
 40
1
  9
$DISPSILH
 70
0
  9
$DIMSCALE
 40
1
  9
$DIMASZ
 40
1
  9
$DIMEXO
 40
1.5
  9
$DIMDLI
 40
3.75
  9
$DIMRND
 40
0
  9
$DIMDLE
 40
0
  9
$DIMEXE
 40
1.5
  9
$DIMTP
 40
0
  9
$DIMTM
 40
0
  9
$DIMTXT
 40
2
  9
$DIMCEN
 40
2.5
  9
$DIMTSZ
 40
0
  9
$DIMTOL
 70
0
  9
$DIMLIM
 70
0
  9
$DIMTIH
 70
0
  9
$DIMTOH
 70
1
  9
$DIMSE1
 70
0
  9
$DIMSE2
 70
0
  9
$DIMTAD
 70
1
  9
$DIMZIN
 70
8
  9
$DIMBLK
  1

  9
$DIMASO
 70
1
  9
$DIMSHO
 70
1
  9
$DIMPOST
  1

  9
$DIMAPOST
  1

  9
$DIMALT
 70
0
  9
$DIMALTD
 70
3
  9
$DIMALTF
 40
0.03937007874016
  9
$DIMLFAC
 40
1
  9
$DIMTOFL
 70
1
  9
$DIMTVP
 40
0
  9
$DIMTIX
 70
0
  9
$DIMSOXD
 70
0
  9
$DIMSAH
 70
0
  9
$DIMBLK1
  1

  9
$DIMBLK2
  1

  9
$DIMSTYLE
  2
ISO-25
  9
$DIMCLRD
 70
0
  9
$DIMCLRE
 70
0
  9
$DIMCLRT
 70
0
  9
$DIMTFAC
 40
1
  9
$DIMGAP
 40
0.625
  9
$DIMJUST
 70
0
  9
$DIMSD1
 70
0
  9
$DIMSD2
 70
0
  9
$DIMTOLJ
 70
0
  9
$DIMTZIN
 70
8
  9
$DIMALTZ
 70
0
  9
$DIMALTTZ
 70
0
  9
$DIMUPT
 70
0
  9
$DIMDEC
 70
2
  9
$DIMTDEC
 70
2
  9
$DIMALTU
 70
2
  9
$DIMALTTD
 70
3
  9
$DIMTXSTY
  7
Standard
  9
$DIMAUNIT
 70
0
  9
$DIMADEC
 70
0
  9
$DIMALTRND
 40
0
  9
$DIMAZIN
 70
0
  9
$DIMDSEP
 70
46
  9
$DIMATFIT
 70
3
  9
$DIMFRAC
 70
0
  9
$DIMLDRBLK
  1

  9
$DIMLUNIT
 70
2
  9
$DIMLWD
 70
0
  9
$DIMLWE
 70
0
  9
$DIMFXL
 40
1
  9
$DIMFXLON
 70
0
  9
$DIMJOGANG
 40
0.78539816339744828
  9
$DIMTFILL
 70
0
  9
$DIMTFILLCLR
 70
0
  9
$DIMARCSYM
 70
0
  9
$LUNITS
 70
2
  9
$LUPREC
 70
4
  9
$SKETCHINC
 40
1
  9
$FILLETRAD
 40
3
  9
$AUNITS
 70
0
  9
$AUPREC
 70
0
  9
$MENU
  1
.
  9
$ELEVATION
 40
0
  9
$PELEVATION
 40
0
  9
$THICKNESS
 40
0
  9
$LIMCHECK
 70
0
  9
$CHAMFERA
 40
10
  9
$CHAMFERB
 40
10
  9
$CHAMFERC
 40
20
  9
$CHAMFERD
 40
0
  9
$SKPOLY
 70
0
  9
$TDCREATE
 40
2453136.694098148
  9
$TDUCREATE
 40
2453136.4649314815
  9
$TDUPDATE
 40
2459546.5196257755
  9
$TDUUPDATE
 40
2459546.290459109
  9
$TDINDWG
 40
0.674332511574074
  9
$TDUSRTIMER
 40
0.67433055555555554
  9
$USRTIMER
 70
1
  9
$ANGBASE
 50
0
  9
$ANGDIR
 70
0
  9
$PDMODE
 70
2
  9
$PDSIZE
 40
0
  9
$PLINEWID
 40
0
  9
$SPLFRAME
 70
0
  9
$SPLINETYPE
 70
6
  9
$SPLINESEGS
 70
8
  9
$HANDSEED
  5
ED
  9
$SURFTAB1
 70
6
  9
$SURFTAB2
 70
6
  9
$SURFTYPE
 70
6
  9
$SURFU
 70
6
  9
$SURFV
 70
6
  9
$UCSORG
 10
0
 20
0
 30
0
  9
$UCSXDIR
 10
1
 20
0
 30
0
  9
$UCSYDIR
 10
0
 20
1
 30
0
  9
$UCSORTHOREF
  2

  9
$UCSORTHOVIEW
 70
1
  9
$UCSORGTOP
 10
0
 20
0
 30
0
  9
$UCSORGBOTTOM
 10
0
 20
0
 30
0
  9
$UCSORGLEFT
 10
0
 20
0
 30
0
  9
$UCSORGRIGHT
 10
0
 20
0
 30
0
  9
$UCSORGFRONT
 10
0
 20
0
 30
0
  9
$UCSORGBACK
 10
0
 20
0
 30
0
  9
$PUCSORG
 10
0
 20
0
 30
0
  9
$PUCSXDIR
 10
1
 20
0
 30
0
  9
$PUCSYDIR
 10
0
 20
1
 30
0
  9
$PUCSORTHOREF
  2

  9
$PUCSORTHOVIEW
 70
0
  9
$PUCSORGTOP
 10
0
 20
0
 30
0
  9
$PUCSORGBOTTOM
 10
0
 20
0
 30
0
  9
$PUCSORGLEFT
 10
0
 20
0
 30
0
  9
$PUCSORGRIGHT
 10
0
 20
0
 30
0
  9
$PUCSORGFRONT
 10
0
 20
0
 30
0
  9
$PUCSORGBACK
 10
0
 20
0
 30
0
  9
$USERI1
 70
0
  9
$USERI2
 70
0
  9
$USERI3
 70
0
  9
$USERI4
 70
0
  9
$USERI5
 70
0
  9
$USERR1
 40
0
  9
$USERR2
 40
0
  9
$USERR3
 40
0
  9
$USERR4
 40
0
  9
$USERR5
 40
0
  9
$WORLDVIEW
 70
1
  9
$SHADEDGE
 70
3
  9
$SHADEDIF
 70
70
  9
$TILEMODE
 70
1
  9
$MAXACTVP
 70
64
  9
$PINSBASE
 10
0
 20
0
 30
0
  9
$PLIMCHECK
 70
0
  9
$PEXTMIN
 10
1E+20
 20
1E+20
 30
1E+20
  9
$PEXTMAX
 10
1E+20
 20
1E+20
 30
1E+20
  9
$PLIMMAX
 10
420
 20
297
  9
$PLIMMIN
 10
0
 20
0
  9
$UNITMODE
 70
0
  9
$VISRETAIN
 70
1
  9
$PLINEGEN
 70
0
  9
$PSLTSCALE
 70
1
  9
$TREEDEPTH
 70
3020
  9
$CMLSTYLE
  2
STANDARD
  9
$CMLJUST
 70
0
  9
$CMLSCALE
 40
20
  9
$PROXYGRAPHICS
 70
1
  9
$MEASUREMENT
 70
1
  9
$CELWEIGHT
370
-1
  9
$ENDCAPS
280
0
  9
$JOINSTYLE
280
0
  9
$LWDISPLAY
290
1
  9
$INSUNITS
 70
4
  9
$HYPERLINKBASE
  1

  9
$XEDIT
290
1
  9
$CEPSNTYPE
380
0
  9
$PSTYLEMODE
290
1
  9
$FINGERPRINTGUID
  2
{BB953484-E033-4073-A6E2-D11752D1A4DD}
  9
$VERSIONGUID
  2
{201C8513-DCB8-43DD-AC57-6322E3BD07F6}
  9
$EXTNAMES
290
1
  9
$PSVPSCALE
 40
0
  9
$CSHADOW
280
0
  9
$SHADOWPLANELOCATION
 40
0
  9
$SORTENTS
280
127
  9
$INDEXCTL
280
0
  9
$XCLIPFRAME
290
0
  9
$HALOGAP
280
0
  9
$OBSCOLOR
 70
0
  9
$OBSLTYPE
280
0
  9
$INTERSECTIONDISPLAY
280
0
  9
$INTERSECTIONCOLOR
 70
0
  9
$DIMASSOC
280
1
  9
$PROJECTNAME
  1

  9
$INTERFERECOLOR
 62
1
  9
$DIMLTYPE
  6

  9
$DIMLTEX1
  6

  9
$DIMLTEX2
  6

  9
$STYLESHEET
  1

  9
$OLESTARTUP
290
     0
  9
$HIDETEXT
280
     0
  9
$CAMERADISPLAY
290
     0
  9
$LENSLENGTH
 40
50.0
  9
$CAMERAHEIGHT
 40
0.0
  9
$STEPSPERSEC
 40
2.0
  9
$STEPSIZE
 40
6.0
  9
$3DDWFPREC
 40
2.0
  9
$PSOLWIDTH
 40
0.25
  9
$PSOLHEIGHT
 40
4.0
  9
$LOFTANG1
 40
1.570796326794896
  9
$LOFTANG2
 40
1.570796326794896
  9
$LOFTMAG1
 40
0.0
  9
$LOFTMAG2
 40
0.0
  9
$LOFTPARAM
 70
     7
  9
$LOFTNORMALS
280
     1
  9
$LATITUDE
 40
0.0
  9
$LONGITUDE
 40
0.0
  9
$NORTHDIRECTION
 40
0.0
  9
$TIMEZONE
 70
 -8000
  9
$LIGHTGLYPHDISPLAY
280
     1
  9
$TILEMODELIGHTSYNCH
280
     1
  9
$SOLIDHIST
280
     1
  9
$SHOWHIST
280
     1
  9
$DWFFRAME
280
     2
  9
$DGNFRAME
280
     0
  9
$REALWORLDSCALE
290
     1
  0
ENDSEC
  0
SECTION
  2
CLASSES
  0
CLASS
  1
ACDBDICTIONARYWDFLT
  2
AcDbDictionaryWithDefault
  3
ObjectDBX Classes
 90
0
 91
1
280
0
281
0
  0
CLASS
  1
ACDBPLACEHOLDER
  2
AcDbPlaceHolder
  3
ObjectDBX Classes
 90
0
 91
1
280
0
281
0
  0
CLASS
  1
LAYOUT
  2
AcDbLayout
  3
ObjectDBX Classes
 90
0
 91
1
280
0
281
0
  0
CLASS
  1
DICTIONARYVAR
  2
AcDbDictionaryVar
  3
ObjectDBX Classes
 90
0
 91
1
280
0
281
0
  0
CLASS
  1
SORTENTSTABLE
  2
AcDbSortentsTable
  3
ObjectDBX Classes
 90
0
 91
1
280
0
281
0
  0
CLASS
  1
TABLESTYLE
  2
AcDbTableStyle
  3
ObjectDBX Classes
 90
2047
 91
1
280
0
281
0
  0
CLASS
  1
MATERIAL
  2
AcDbMaterial
  3
ObjectDBX Classes
 90
0
 91
1
280
0
281
0
  0
CLASS
  1
VISUALSTYLE
  2
AcDbVisualStyle
  3
ObjectDBX Classes
 90
4095
 91
1
280
0
281
0
  0
CLASS
  1
MLEADERSTYLE
  2
AcDbMLeaderStyle
  3
ACDB_MLEADERSTYLE_CLASS
 90
4095
 91
1
280
0
281
0
  0
CLASS
  1
CELLSTYLEMAP
  2
AcDbCellStyleMap
  3
ObjectDBX Classes
 90
1152
 91
1
280
0
281
0
  0
CLASS
  1
SCALE
  2
AcDbScale
  3
ObjectDBX Classes
 90
1153
 91
1
280
0
281
0
  0
CLASS
  1
ACIDBLOCKREFERENCE
  2
AcIdBlockReference
  3
AcIdViewObj|Product: Inventor Drawing Enabler|Company: Autodesk|Website: www.autodesk.com
 90
1
 91
1
280
0
281
1
  0
CLASS
  1
RASTERVARIABLES
  2
AcDbRasterVariables
  3
ISM
 90
0
 91
1
280
0
281
0
  0
CLASS
  1
IMAGEDEF
  2
AcDbRasterImageDef
  3
ISM
 90
0
 91
1
280
0
281
0
  0
CLASS
  1
IMAGEDEF_REACTOR
  2
AcDbRasterImageDefReactor
  3
ISM
 90
1
 91
1
280
0
281
0
  0
CLASS
  1
IMAGE
  2
AcDbRasterImage
  3
ISM
 90
127
 91
1
280
0
281
1
  0
CLASS
  1
ACAD_EVALUATION_GRAPH
  2
AcDbEvalGraph
  3
ObjectDBX Classes
 90
1153
 91
1
280
0
281
0
  0
CLASS
  1
BLOCKPOINTPARAMETER
  2
AcDbBlockPointParameter
  3
ObjectDBX Classes
 90
1153
 91
1
280
0
281
0
  0
CLASS
  1
BLOCKBASEPOINTPARAMETER
  2
AcDbBlockBasepointParameter
  3
ObjectDBX Classes
 90
1153
 91
1
280
0
281
0
  0
CLASS
  1
BLOCKLOOKUPPARAMETER
  2
AcDbBlockLookupParameter
  3
ObjectDBX Classes
 90
1153
 91
1
280
0
281
0
  0
CLASS
  1
BLOCKVISIBILITYPARAMETER
  2
AcDbBlockVisibilityParameter
  3
ObjectDBX Classes
 90
1153
 91
1
280
0
281
0
  0
CLASS
  1
BLOCKPROPERTIESTABLE
  2
AcDbBlockPropertiesTable
  3
ObjectDBX Classes
 90
1153
 91
1
280
0
281
0
  0
CLASS
  1
BLOCKPOLARPARAMETER
  2
AcDbBlockPolarParameter
  3
ObjectDBX Classes
 90
1153
 91
1
280
0
281
0
  0
CLASS
  1
BLOCKROTATIONPARAMETER
  2
AcDbBlockRotationParameter
  3
ObjectDBX Classes
 90
1153
 91
1
280
0
281
0
  0
CLASS
  1
BLOCKLINEARPARAMETER
  2
AcDbBlockLinearParameter
  3
ObjectDBX Classes
 90
1153
 91
1
280
0
281
0
  0
CLASS
  1
BLOCKXYPARAMETER
  2
AcDbBlockXYParameter
  3
ObjectDBX Classes
 90
1153
 91
1
280
0
281
0
  0
CLASS
  1
BLOCKFLIPPARAMETER
  2
AcDbBlockFlipParameter
  3
ObjectDBX Classes
 90
1153
 91
1
280
0
281
0
  0
CLASS
  1
BLOCKALIGNMENTPARAMETER
  2
AcDbBlockAlignmentParameter
  3
ObjectDBX Classes
 90
1153
 91
1
280
0
281
0
  0
CLASS
  1
BLOCKROTATEACTION
  2
AcDbBlockRotateAction
  3
ObjectDBX Classes
 90
1153
 91
1
280
0
281
0
  0
CLASS
  1
BLOCKSCALEACTION
  2
AcDbBlockScaleAction
  3
ObjectDBX Classes
 90
1153
 91
1
280
0
281
0
  0
CLASS
  1
BLOCKARRAYACTION
  2
AcDbBlockArrayAction
  3
ObjectDBX Classes
 90
1153
 91
1
280
0
281
0
  0
CLASS
  1
BLOCKFLIPACTION
  2
AcDbBlockFlipAction
  3
ObjectDBX Classes
 90
1153
 91
1
280
0
281
0
  0
CLASS
  1
BLOCKLOOKUPACTION
  2
AcDbBlockLookupAction
  3
ObjectDBX Classes
 90
1153
 91
1
280
0
281
0
  0
CLASS
  1
BLOCKMOVEACTION
  2
AcDbBlockMoveAction
  3
ObjectDBX Classes
 90
1153
 91
1
280
0
281
0
  0
CLASS
  1
BLOCKPOLARSTRETCHACTION
  2
AcDbBlockPolarStretchAction
  3
ObjectDBX Classes
 90
1153
 91
1
280
0
281
0
  0
CLASS
  1
BLOCKSTRETCHACTION
  2
AcDbBlockStretchAction
  3
ObjectDBX Classes
 90
1153
 91
1
280
0
281
0
  0
CLASS
  1
BLOCKALIGNMENTGRIP
  2
AcDbBlockAlignmentGrip
  3
ObjectDBX Classes
 90
1153
 91
1
280
0
281
0
  0
CLASS
  1
BLOCKFLIPGRIP
  2
AcDbBlockFlipGrip
  3
ObjectDBX Classes
 90
1153
 91
1
280
0
281
0
  0
CLASS
  1
ACDB_BLOCKREPRESENTATION_DATA
  2
AcDbBlockRepresentationData
  3
ObjectDBX Classes
 90
1153
 91
1
280
0
281
0
  0
CLASS
  1
ACDB_DYNAMICBLOCKPURGEPREVENTER_VERSION
  2
AcDbDynamicBlockPurgePreventer
  3
ObjectDBX Classes
 90
1153
 91
1
280
0
281
0
  0
CLASS
  1
BLOCKLINEARGRIP
  2
AcDbBlockLinearGrip
  3
ObjectDBX Classes
 90
1153
 91
1
280
0
281
0
  0
CLASS
  1
BLOCKLOOKUPGRIP
  2
AcDbBlockLookupGrip
  3
ObjectDBX Classes
 90
1153
 91
1
280
0
281
0
  0
CLASS
  1
BLOCKPOLARGRIP
  2
AcDbBlockPolarGrip
  3
ObjectDBX Classes
 90
1153
 91
1
280
0
281
0
  0
CLASS
  1
BLOCKPROPERTIESTABLEGRIP
  2
AcDbBlockPropertiesTableGrip
  3
ObjectDBX Classes
 90
1153
 91
1
280
0
281
0
  0
CLASS
  1
BLOCKROTATIONGRIP
  2
AcDbBlockRotationGrip
  3
ObjectDBX Classes
 90
1153
 91
1
280
0
281
0
  0
CLASS
  1
BLOCKVISIBILITYGRIP
  2
AcDbBlockVisibilityGrip
  3
ObjectDBX Classes
 90
1153
 91
1
280
0
281
0
  0
CLASS
  1
BLOCKXYGRIP
  2
AcDbBlockXYGrip
  3
ObjectDBX Classes
 90
1153
 91
1
280
0
281
0
  0
CLASS
  1
BLOCKGRIPLOCATIONCOMPONENT
  2
AcDbBlockGripExpr
  3
ObjectDBX Classes
 90
1153
 91
1
280
0
281
0
  0
CLASS
  1
ACDB_DYNAMICBLOCKPROXYNODE
  2
AcDbDynamicBlockProxyNode
  3
ObjectDBX Classes
 90
1153
 91
1
280
0
281
0
  0
ENDSEC
  0
SECTION
  2
TABLES
  0
TABLE
  2
VPORT
  5
8
330
0
100
AcDbSymbolTable
 70
1
  0
VPORT
  5
BC
330
8
100
AcDbSymbolTableRecord
100
AcDbViewportTableRecord
  2
*Active
 70
0
 10
0
 20
0
 11
1
 21
1
 12
325.73489242565449
 22
269.21124727934142
 13
0
 23
0
 14
10
 24
10
 15
10
 25
10
 16
0
 26
0
 36
1
 17
0
 27
0
 37
0
 40
179.3998638361235
 41
2.9217002237136458
 42
50
 43
0
 44
0
 50
0
 51
0
 71
0
 72
100
 73
1
 74
0
 75
0
 76
0
 77
0
 78
1
281
0
 65
1
110
0
120
0
130
0
111
1
121
0
131
0
112
0
122
1
132
0
 79
1
146
0
 60
3
 61
5
292
1
282
1
141
0
142
0
 63
250
  0
ENDTAB
  0
TABLE
  2
LTYPE
  5
5
100
AcDbSymbolTable
 70
6
  0
LTYPE
  5
14
330
5
100
AcDbSymbolTableRecord
100
AcDbLinetypeTableRecord
  2
ByBlock
  3

 70
0
 72
65
 73
0
 40
0
  0
LTYPE
  5
15
330
5
100
AcDbSymbolTableRecord
100
AcDbLinetypeTableRecord
  2
ByLayer
  3

 70
0
 72
65
 73
0
 40
0
  0
LTYPE
  5
16
330
5
100
AcDbSymbolTableRecord
100
AcDbLinetypeTableRecord
  2
Continuous
  3
Solid line
 70
0
 72
65
 73
0
 40
0
  0
LTYPE
  5
B7
330
5
100
AcDbSymbolTableRecord
100
AcDbLinetypeTableRecord
  2
CENTERX2
  3
Center (2x) ________  __  ________  __  _____
 70
0
 72
65
 73
4
 40
101.60000000000001
 49
63.5
 74
0
 49
-12.7
 74
0
 49
12.7
 74
0
 49
-12.7
 74
0
  0
LTYPE
  5
B8
330
5
100
AcDbSymbolTableRecord
100
AcDbLinetypeTableRecord
  2
CENTER2
  3
Center (.5x) ___ _ ___ _ ___ _ ___ _ ___ _ ___
 70
0
 72
65
 73
4
 40
28.574999999999992
 49
19.05
 74
0
 49
-3.174999999999998
 74
0
 49
3.174999999999998
 74
0
 49
-3.174999999999998
 74
0
  0
LTYPE
  5
B9
330
5
100
AcDbSymbolTableRecord
100
AcDbLinetypeTableRecord
  2
CENTER
  3
Center ____ _ ____ _ ____ _ ____ _ ____ _ ____
 70
0
 72
65
 73
4
 40
2
 49
1.25
 74
0
 49
-0.25
 74
0
 49
0.25
 74
0
 49
-0.25
 74
0
  0
ENDTAB
  0
TABLE
  2
LAYER
  5
2
100
AcDbSymbolTable
 70
5
  0
LAYER
  5
10
330
2
100
AcDbSymbolTableRecord
100
AcDbLayerTableRecord
 70
0
  2
0
 62
7
  6
Continuous
370
-3
390
F
  0
LAYER
  5
27
330
2
100
AcDbSymbolTableRecord
100
AcDbLayerTableRecord
 70
0
  2
Defpoints
 62
151
  6
Continuous
290
0
370
-3
390
F
  0
LAYER
  5
28
330
2
100
AcDbSymbolTableRecord
100
AcDbLayerTableRecord
 70
64
  2
LaserCutting
 62
3
  6
Continuous
370
-3
390
F
  0
LAYER
  5
29
330
2
100
AcDbSymbolTableRecord
100
AcDbLayerTableRecord
 70
64
  2
Marking
 62
6
  6
Continuous
370
-3
390
F
  0
LAYER
  5
2A
330
2
100
AcDbSymbolTableRecord
100
AcDbLayerTableRecord
 70
64
  2
Dimention
 62
9
  6
Continuous
370
-3
390
F
  0
ENDTAB
  0
TABLE
  2
STYLE
  5
3
100
AcDbSymbolTable
 70
3
  0
STYLE
  5
11
330
3
100
AcDbSymbolTableRecord
100
AcDbTextStyleTableRecord
  2
Standard
 70
0
 40
0
 41
1
 50
0
 71
0
 42
2.5
  3
ARIAL.TTF
1001
ACAD
1000
Arial
1071
34
  0
STYLE
  5
B5
330
3
100
AcDbSymbolTableRecord
100
AcDbTextStyleTableRecord
  2

 70
1
 40
0
 41
1
 50
0
 71
0
 42
2.5
  3
ltypeshp.shx
  0
STYLE
  5
B6
330
3
100
AcDbSymbolTableRecord
100
AcDbTextStyleTableRecord
  2
Roman
 70
0
 40
0
 41
1
 50
0
 71
0
 42
5
  3
romans
  4
bigfont
  0
ENDTAB
  0
TABLE
  2
VIEW
  5
6
100
AcDbSymbolTable
 70
0
  0
ENDTAB
  0
TABLE
  2
UCS
  5
7
100
AcDbSymbolTable
 70
0
  0
ENDTAB
  0
TABLE
  2
APPID
  5
9
330
0
100
AcDbSymbolTable
 70
6
  0
APPID
  5
12
330
0
100
AcDbSymbolTableRecord
100
AcDbRegAppTableRecord
  2
ACAD
 70
0
  0
APPID
  5
E7
330
0
100
AcDbSymbolTableRecord
100
AcDbRegAppTableRecord
  2
ACAD_MLEADERVER
 70
0
  0
APPID
  5
E8
330
0
100
AcDbSymbolTableRecord
100
AcDbRegAppTableRecord
  2
ACAD_DSTYLE_DIMJAG
 70
0
  0
APPID
  5
E9
330
0
100
AcDbSymbolTableRecord
100
AcDbRegAppTableRecord
  2
ACAD_DSTYLE_DIMTALN
 70
0
  0
APPID
  5
EA
330
0
100
AcDbSymbolTableRecord
100
AcDbRegAppTableRecord
  2
AcadAnnotative
 70
0
  0
APPID
  5
EB
330
0
100
AcDbSymbolTableRecord
100
AcDbRegAppTableRecord
  2
ACAD_NAV_VCDISPLAY
 70
0
  0
ENDTAB
  0
TABLE
  2
DIMSTYLE
  5
A
330
0
100
AcDbSymbolTable
 70
2
100
AcDbDimStyleTable
 71
0
  0
DIMSTYLE
105
BA
330
A
100
AcDbSymbolTableRecord
100
AcDbDimStyleTableRecord
  2
ISO-25
 70
0
  3

  4

 40
1
 41
1
 42
1.5
 43
3.75
 44
1.5
 45
0
 46
0
 47
0
 48
0
140
2
141
2.5
142
0
143
0.03937007874016
144
1
145
0
146
1
147
0.625
148
0
 71
0
 72
0
 73
0
 74
1
 75
0
 76
0
 77
1
 78
8
 79
0
170
0
171
3
172
1
173
0
174
0
175
0
179
0
271
2
272
2
273
2
274
3
275
0
276
0
277
2
278
46
279
0
280
0
281
0
282
0
283
0
284
8
285
0
286
0
288
0
289
0
340
11
371
0
372
0
  0
DIMSTYLE
105
BB
330
A
100
AcDbSymbolTableRecord
100
AcDbDimStyleTableRecord
  2
Standard
 70
0
  3

  4

 40
1
 41
0.18
 42
0.0625
 43
0.38
 44
0.18
 45
0
 46
0
 47
0
 48
0
140
0.18
141
0.09
142
0
143
1
144
1
145
0
146
1
147
0.09
148
0
 71
0
 72
0
 73
1
 74
1
 75
0
 76
0
 77
0
 78
0
 79
0
170
0
171
2
172
0
173
0
174
0
175
0
179
0
271
4
272
4
273
2
274
0
275
0
276
0
277
2
278
46
279
0
280
0
281
0
282
0
283
1
284
0
285
0
286
0
288
0
289
0
340
11
371
-2
372
-2
  0
ENDTAB
  0
TABLE
  2
BLOCK_RECORD
  5
1
330
0
100
AcDbSymbolTable
 70
3
  0
BLOCK_RECORD
  5
2B
102
{ACAD_XDICTIONARY
360
2C
102
}
330
1
100
AcDbSymbolTableRecord
100
AcDbBlockTableRecord
  2
TOL
1001
ACAD
1000
DesignCenter Data
1002
{
1070
1
1070
4
1002
}
  0
BLOCK_RECORD
  5
64
330
1
100
AcDbSymbolTableRecord
100
AcDbBlockTableRecord
  2
TOLERANCE BLOCK
1001
ACAD
1000
DesignCenter Data
1002
{
1070
1
1070
4
1002
}
  0
BLOCK_RECORD
  5
69
330
1
100
AcDbSymbolTableRecord
100
AcDbBlockTableRecord
  2
A
1001
ACAD
1000
DesignCenter Data
1002
{
1070
1
1070
4
1002
}
  0
BLOCK_RECORD
  5
6E
102
{ACAD_XDICTIONARY
360
6F
102
}
330
1
100
AcDbSymbolTableRecord
100
AcDbBlockTableRecord
  2
*Model_Space
340
22
  0
BLOCK_RECORD
  5
1B
330
1
100
AcDbSymbolTableRecord
100
AcDbBlockTableRecord
  2
*Paper_Space
340
1E
  0
BLOCK_RECORD
  5
B2
330
1
100
AcDbSymbolTableRecord
100
AcDbBlockTableRecord
  2
*Paper_Space0
340
BE
  0
ENDTAB
  0
ENDSEC
  0
SECTION
  2
BLOCKS
  0
BLOCK
  5
2E
330
2B
100
AcDbEntity
  8
0
100
AcDbBlockBegin
  2
TOL
 70
0
 10
0
 20
0
 30
0
  3
TOL
  0
LINE
  5
2F
330
2B
100
AcDbEntity
  8
0
100
AcDbLine
 10
100
 20
0
 30
0
 11
0
 21
0
 31
0
  0
LINE
  5
30
330
2B
100
AcDbEntity
  8
0
100
AcDbLine
 10
0
 20
0
 30
0
 11
-1.42E-14
 21
-130
 31
0
  0
LINE
  5
31
330
2B
100
AcDbEntity
  8
0
100
AcDbLine
 10
0
 20
-20.000000000000011
 30
0
 11
100
 21
-20.000000000000011
 31
0
  0
LINE
  5
32
330
2B
100
AcDbEntity
  8
0
100
AcDbLine
 10
50.000000000000071
 20
-20.000000000000011
 30
0
 11
50.000000000000071
 21
-130
 31
0
  0
LINE
  5
33
330
2B
100
AcDbEntity
  8
0
100
AcDbLine
 10
25
 20
-30.000000000000021
 30
0
 11
25
 21
-130
 31
0
  0
LINE
  5
34
330
2B
100
AcDbEntity
  8
0
100
AcDbLine
 10
0
 20
-30.000000000000021
 30
0
 11
50.000000000000071
 21
-30.000000000000021
 31
0
  0
LINE
  5
35
330
2B
100
AcDbEntity
  8
0
100
AcDbLine
 10
0
 20
-130
 30
0
 11
100
 21
-130
 31
0
  0
LINE
  5
36
330
2B
100
AcDbEntity
  8
0
100
AcDbLine
 10
0
 20
-120
 30
0
 11
100
 21
-120
 31
0
  0
LINE
  5
37
330
2B
100
AcDbEntity
  8
0
100
AcDbLine
 10
0
 20
-110
 30
0
 11
100
 21
-110
 31
0
  0
LINE
  5
38
330
2B
100
AcDbEntity
  8
0
100
AcDbLine
 10
0
 20
-100
 30
0
 11
100
 21
-100
 31
0
  0
LINE
  5
39
330
2B
100
AcDbEntity
  8
0
100
AcDbLine
 10
0
 20
-89.999999999999986
 30
0
 11
100
 21
-89.999999999999986
 31
0
  0
LINE
  5
3A
330
2B
100
AcDbEntity
  8
0
100
AcDbLine
 10
0
 20
-79.999999999999972
 30
0
 11
100
 21
-79.999999999999972
 31
0
  0
LINE
  5
3B
330
2B
100
AcDbEntity
  8
0
100
AcDbLine
 10
0
 20
-70
 30
0
 11
100
 21
-70
 31
0
  0
LINE
  5
3C
330
2B
100
AcDbEntity
  8
0
100
AcDbLine
 10
0
 20
-60
 30
0
 11
100
 21
-60
 31
0
  0
LINE
  5
3D
330
2B
100
AcDbEntity
  8
0
100
AcDbLine
 10
0
 20
-50
 30
0
 11
100
 21
-50
 31
0
  0
LINE
  5
3E
330
2B
100
AcDbEntity
  8
0
100
AcDbLine
 10
0
 20
-40
 30
0
 11
100
 21
-40
 31
0
  0
LINE
  5
3F
330
2B
100
AcDbEntity
  8
0
100
AcDbLine
 10
100
 20
-130
 30
0
 11
100
 21
0
 31
0
  0
MTEXT
  5
40
330
2B
100
AcDbEntity
  8
0
100
AcDbMText
 10
16.245461267125851
 20
-3.33543300215001
 30
0
 11
1
 21
0
 31
0
 40
3.5
 41
74.407329180154193
 46
0
 71
1
 72
5
  1
APPLIED TO DIMENSIONS\PWITHOUT TOLERANCES
  7
Standard
 73
1
 90
0
1001
ACAD
1000
MTEXTBEGIN
1070
73
1070
1
1070
44
1040
1
1070
74
1070
0
1000
MTEXTEND
  0
MTEXT
  5
41
330
2B
100
AcDbEntity
  8
0
100
AcDbMText
 10
14.17841489240527
 20
-21.880122004061171
 30
0
 11
1
 21
0
 31
0
 40
2.4999999999999991
 41
26.056932558979039
 46
0
 71
1
 72
5
  1
DIMENSIONS\P   MM
  7
Standard
 73
1
 90
0
1001
ACAD
1000
MTEXTBEGIN
1070
73
1070
1
1070
44
1040
1
1070
74
1070
0
1000
MTEXTEND
  0
MTEXT
  5
42
330
2B
100
AcDbEntity
  8
0
100
AcDbMText
 10
69.283689155995432
 20
-27.62942338446307
 30
0
 11
1
 21
0
 31
0
 40
2.4999999999999991
 41
26.056932558979039
 46
0
 71
1
 72
5
  1
TOLERANCE\P   MM
  7
Standard
 73
1
 90
0
1001
ACAD
1000
MTEXTBEGIN
1070
73
1070
1
1070
44
1040
1
1070
74
1070
0
1000
MTEXTEND
  0
MTEXT
  5
43
330
2B
100
AcDbEntity
  8
0
100
AcDbMText
 10
8.8250052804503412
 20
-43.967294419338742
 30
0
 11
1
 21
0
 31
0
 40
3.3049599337419311
 41
6.715928082588106
 46
0
 71
1
 72
5
  1
0.5
  7
Standard
 73
1
 90
0
1001
ACAD
1000
MTEXTBEGIN
1070
73
1070
1
1070
44
1040
1
1070
74
1070
0
1000
MTEXTEND
  0
MTEXT
  5
44
330
2B
100
AcDbEntity
  8
0
100
AcDbMText
 10
34.694443651894353
 20
-44.133483136648252
 30
0
 11
1
 21
0
 31
0
 40
3.3049599337419311
 41
6.0065613065244161
 46
0
 71
1
 72
5
  1
6
  7
Standard
 73
1
 90
0
1001
ACAD
1000
MTEXTBEGIN
1070
73
1070
1
1070
44
1040
1
1070
74
1070
0
1000
MTEXTEND
  0
MTEXT
  5
45
330
2B
100
AcDbEntity
  8
0
100
AcDbMText
 10
72.257885975416741
 20
-44.91040868234974
 30
0
 11
1
 21
0
 31
0
 40
3.3049599337419311
 41
8.2378472016048363
 46
0
 71
1
 72
5
  1
±0.1
  7
Standard
 73
1
 90
0
1001
ACAD
1000
MTEXTBEGIN
1070
73
1070
1
1070
44
1040
1
1070
74
1070
0
1000
MTEXTEND
  0
MTEXT
  5
46
330
2B
100
AcDbEntity
  8
0
100
AcDbMText
 10
10.901867189180621
 20
-53.967294419338742
 30
0
 11
1
 21
0
 31
0
 40
3.3049599337419311
 41
6.715928082588106
 46
0
 71
1
 72
5
  1
6
  7
Standard
 73
1
 90
0
1001
ACAD
1000
MTEXTBEGIN
1070
73
1070
1
1070
44
1040
1
1070
74
1070
0
1000
MTEXTEND
  0
MTEXT
  5
47
330
2B
100
AcDbEntity
  8
0
100
AcDbMText
 10
33.791253168206943
 20
-54.133483136648252
 30
0
 11
1
 21
0
 31
0
 40
3.3049599337419311
 41
6.0065613065244161
 46
0
 71
1
 72
5
  1
30
  7
Standard
 73
1
 90
0
1001
ACAD
1000
MTEXTBEGIN
1070
73
1070
1
1070
44
1040
1
1070
74
1070
0
1000
MTEXTEND
  0
MTEXT
  5
48
330
2B
100
AcDbEntity
  8
0
100
AcDbMText
 10
72.257885975416741
 20
-54.91040868234974
 30
0
 11
1
 21
0
 31
0
 40
3.3049599337419311
 41
8.2378472016048363
 46
0
 71
1
 72
5
  1
±0.2
  7
Standard
 73
1
 90
0
1001
ACAD
1000
MTEXTBEGIN
1070
73
1070
1
1070
44
1040
1
1070
74
1070
0
1000
MTEXTEND
  0
MTEXT
  5
49
330
2B
100
AcDbEntity
  8
0
100
AcDbMText
 10
9.962946515564397
 20
-63.967294419338707
 30
0
 11
1
 21
0
 31
0
 40
3.3049599337419311
 41
6.715928082588106
 46
0
 71
1
 72
5
  1
30
  7
Standard
 73
1
 90
0
1001
ACAD
1000
MTEXTBEGIN
1070
73
1070
1
1070
44
1040
1
1070
74
1070
0
1000
MTEXTEND
  0
MTEXT
  5
4A
330
2B
100
AcDbEntity
  8
0
100
AcDbMText
 10
33.145942197977661
 20
-64.133483136648252
 30
0
 11
1
 21
0
 31
0
 40
3.3049599337419311
 41
11.230388423995921
 46
0
 71
1
 72
5
  1
120
  7
Standard
 73
1
 90
0
1001
ACAD
1000
MTEXTBEGIN
1070
73
1070
1
1070
44
1040
1
1070
74
1070
0
1000
MTEXTEND
  0
MTEXT
  5
4B
330
2B
100
AcDbEntity
  8
0
100
AcDbMText
 10
72.257885975416741
 20
-64.91040868234974
 30
0
 11
1
 21
0
 31
0
 40
3.3049599337419311
 41
8.2378472016048363
 46
0
 71
1
 72
5
  1
±0.3
  7
Standard
 73
1
 90
0
1001
ACAD
1000
MTEXTBEGIN
1070
73
1070
1
1070
44
1040
1
1070
74
1070
0
1000
MTEXTEND
  0
MTEXT
  5
4C
330
2B
100
AcDbEntity
  8
0
100
AcDbMText
 10
7.4270286699039021
 20
-73.967294419338728
 30
0
 11
1
 21
0
 31
0
 40
3.3049599337419311
 41
6.715928082588106
 46
0
 71
1
 72
5
  1
120
  7
Standard
 73
1
 90
0
1001
ACAD
1000
MTEXTBEGIN
1070
73
1070
1
1070
44
1040
1
1070
74
1070
0
1000
MTEXTEND
  0
MTEXT
  5
4D
330
2B
100
AcDbEntity
  8
0
100
AcDbMText
 10
33.751151967303088
 20
-74.133483136648252
 30
0
 11
1
 21
0
 31
0
 40
3.3049599337419311
 41
6.0065613065244161
 46
0
 71
1
 72
5
  1
315
  7
Standard
 73
1
 90
0
1001
ACAD
1000
MTEXTBEGIN
1070
73
1070
1
1070
44
1040
1
1070
74
1070
0
1000
MTEXTEND
  0
MTEXT
  5
4E
330
2B
100
AcDbEntity
  8
0
100
AcDbMText
 10
72.257885975416741
 20
-74.91040868234974
 30
0
 11
1
 21
0
 31
0
 40
3.3049599337419311
 41
8.2378472016048363
 46
0
 71
1
 72
5
  1
±0.5
  7
Standard
 73
1
 90
0
1001
ACAD
1000
MTEXTBEGIN
1070
73
1070
1
1070
44
1040
1
1070
74
1070
0
1000
MTEXTEND
  0
MTEXT
  5
4F
330
2B
100
AcDbEntity
  8
0
100
AcDbMText
 10
7.4270286699039021
 20
-83.967294419338728
 30
0
 11
1
 21
0
 31
0
 40
3.3049599337419311
 41
6.715928082588106
 46
0
 71
1
 72
5
  1
315
  7
Standard
 73
1
 90
0
1001
ACAD
1000
MTEXTBEGIN
1070
73
1070
1
1070
44
1040
1
1070
74
1070
0
1000
MTEXTEND
  0
MTEXT
  5
50
330
2B
100
AcDbEntity
  8
0
100
AcDbMText
 10
32.318211619442309
 20
-84.133483136648238
 30
0
 11
1
 21
0
 31
0
 40
3.3049599337419311
 41
6.0065613065244161
 46
0
 71
1
 72
5
  1
1000
  7
Standard
 73
1
 90
0
1001
ACAD
1000
MTEXTBEGIN
1070
73
1070
1
1070
44
1040
1
1070
74
1070
0
1000
MTEXTEND
  0
MTEXT
  5
51
330
2B
100
AcDbEntity
  8
0
100
AcDbMText
 10
72.257885975416741
 20
-84.9104086823497
 30
0
 11
1
 21
0
 31
0
 40
3.3049599337419311
 41
8.2378472016048363
 46
0
 71
1
 72
5
  1
±0.8
  7
Standard
 73
1
 90
0
1001
ACAD
1000
MTEXTBEGIN
1070
73
1070
1
1070
44
1040
1
1070
74
1070
0
1000
MTEXTEND
  0
MTEXT
  5
52
330
2B
100
AcDbEntity
  8
0
100
AcDbMText
 10
7.4270286699039021
 20
-93.967294419338728
 30
0
 11
1
 21
0
 31
0
 40
3.3049599337419311
 41
6.715928082588106
 46
0
 71
1
 72
5
  1
1000
  7
Standard
 73
1
 90
0
1001
ACAD
1000
MTEXTBEGIN
1070
73
1070
1
1070
44
1040
1
1070
74
1070
0
1000
MTEXTEND
  0
MTEXT
  5
53
330
2B
100
AcDbEntity
  8
0
100
AcDbMText
 10
31.87398621969049
 20
-93.750998530682679
 30
0
 11
1
 21
0
 31
0
 40
3.3049599337419311
 41
6.0065613065244161
 46
0
 71
1
 72
5
  1
2000
  7
Standard
 73
1
 90
0
1001
ACAD
1000
MTEXTBEGIN
1070
73
1070
1
1070
44
1040
1
1070
74
1070
0
1000
MTEXTEND
  0
MTEXT
  5
54
330
2B
100
AcDbEntity
  8
0
100
AcDbMText
 10
72.257885975416741
 20
-94.910408682349725
 30
0
 11
1
 21
0
 31
0
 40
3.3049599337419311
 41
8.2378472016048363
 46
0
 71
1
 72
5
  1
±1.2
  7
Standard
 73
1
 90
0
1001
ACAD
1000
MTEXTBEGIN
1070
73
1070
1
1070
44
1040
1
1070
74
1070
0
1000
MTEXTEND
  0
MTEXT
  5
55
330
2B
100
AcDbEntity
  8
0
100
AcDbMText
 10
7.4270286699039021
 20
-103.9672944193387
 30
0
 11
1
 21
0
 31
0
 40
3.3049599337419311
 41
6.715928082588106
 46
0
 71
1
 72
5
  1
2000
  7
Standard
 73
1
 90
0
1001
ACAD
1000
MTEXTBEGIN
1070
73
1070
1
1070
44
1040
1
1070
74
1070
0
1000
MTEXTEND
  0
MTEXT
  5
56
330
2B
100
AcDbEntity
  8
0
100
AcDbMText
 10
30.858523143003879
 20
-104.1334831366482
 30
0
 11
1
 21
0
 31
0
 40
3.3049599337419311
 41
6.0065613065244161
 46
0
 71
1
 72
5
  1
4000
  7
Standard
 73
1
 90
0
1001
ACAD
1000
MTEXTBEGIN
1070
73
1070
1
1070
44
1040
1
1070
74
1070
0
1000
MTEXTEND
  0
MTEXT
  5
57
330
2B
100
AcDbEntity
  8
0
100
AcDbMText
 10
72.257885975416741
 20
-104.9104086823497
 30
0
 11
1
 21
0
 31
0
 40
3.3049599337419311
 41
8.2378472016048363
 46
0
 71
1
 72
5
  1
±2
  7
Standard
 73
1
 90
0
1001
ACAD
1000
MTEXTBEGIN
1070
73
1070
1
1070
44
1040
1
1070
74
1070
0
1000
MTEXTEND
  0
MTEXT
  5
58
330
2B
100
AcDbEntity
  8
0
100
AcDbMText
 10
7.4270286699039021
 20
-113.9672944193387
 30
0
 11
1
 21
0
 31
0
 40
3.3049599337419311
 41
6.715928082588106
 46
0
 71
1
 72
5
  1
4000
  7
Standard
 73
1
 90
0
1001
ACAD
1000
MTEXTBEGIN
1070
73
1070
1
1070
44
1040
1
1070
74
1070
0
1000
MTEXTEND
  0
MTEXT
  5
59
330
2B
100
AcDbEntity
  8
0
100
AcDbMText
 10
30.564821375587542
 20
-114.1334831366482
 30
0
 11
1
 21
0
 31
0
 40
3.3049599337419311
 41
6.0065613065244161
 46
0
 71
1
 72
5
  1
8000
  7
Standard
 73
1
 90
0
1001
ACAD
1000
MTEXTBEGIN
1070
73
1070
1
1070
44
1040
1
1070
74
1070
0
1000
MTEXTEND
  0
MTEXT
  5
5A
330
2B
100
AcDbEntity
  8
0
100
AcDbMText
 10
72.257885975416741
 20
-114.9104086823497
 30
0
 11
1
 21
0
 31
0
 40
3.3049599337419311
 41
8.2378472016048363
 46
0
 71
1
 72
5
  1
±3
  7
Standard
 73
1
 90
0
1001
ACAD
1000
MTEXTBEGIN
1070
73
1070
1
1070
44
1040
1
1070
74
1070
0
1000
MTEXTEND
  0
MTEXT
  5
5B
330
2B
100
AcDbEntity
  8
0
100
AcDbMText
 10
7.4270286699039021
 20
-123.9672944193387
 30
0
 11
1
 21
0
 31
0
 40
3.3049599337419311
 41
6.715928082588106
 46
0
 71
1
 72
5
  1
8000
  7
Standard
 73
1
 90
0
1001
ACAD
1000
MTEXTBEGIN
1070
73
1070
1
1070
44
1040
1
1070
74
1070
0
1000
MTEXTEND
  0
MTEXT
  5
5C
330
2B
100
AcDbEntity
  8
0
100
AcDbMText
 10
30.463754599206709
 20
-124.1334831366482
 30
0
 11
1
 21
0
 31
0
 40
3.3049599337419311
 41
6.0065613065244161
 46
0
 71
1
 72
5
  1
12000
  7
Standard
 73
1
 90
0
1001
ACAD
1000
MTEXTBEGIN
1070
73
1070
1
1070
44
1040
1
1070
74
1070
0
1000
MTEXTEND
  0
MTEXT
  5
5D
330
2B
100
AcDbEntity
  8
0
100
AcDbMText
 10
72.257885975416741
 20
-124.9104086823497
 30
0
 11
1
 21
0
 31
0
 40
3.3049599337419311
 41
8.2378472016048363
 46
0
 71
1
 72
5
  1
±4
  7
Standard
 73
1
 90
0
1001
ACAD
1000
MTEXTBEGIN
1070
73
1070
1
1070
44
1040
1
1070
74
1070
0
1000
MTEXTEND
  0
LINE
  5
5E
330
2B
100
AcDbEntity
  8
0
100
AcDbLine
 10
9.9440364603851759
 20
-38.689233478077078
 30
0
 11
18.92145275013354
 21
-38.689233478077078
 31
0
  0
LINE
  5
5F
330
2B
100
AcDbEntity
  8
0
100
AcDbLine
 10
18.92145275013354
 20
-38.689233478077078
 30
0
 11
11.61465539146502
 21
-31.38102492468693
 31
0
  0
LINE
  5
60
330
2B
100
AcDbEntity
  8
0
100
AcDbLine
 10
31.07854724986646
 20
-38.689233478077078
 30
0
 11
38.385344608534972
 21
-31.38102492468693
 31
0
  0
LINE
  5
61
330
2B
100
AcDbEntity
  8
0
100
AcDbLine
 10
40.055963539614822
 20
-38.689233478077078
 30
0
 11
31.07854724986646
 21
-38.689233478077078
 31
0
  0
LINE
  5
62
330
2B
100
AcDbEntity
  8
0
100
AcDbLine
 10
40.055963539614822
 20
-39.258822291477607
 30
0
 11
31.07854724986646
 21
-39.258822291477607
 31
0
  0
ENDBLK
  5
63
330
2B
100
AcDbEntity
  8
0
100
AcDbBlockEnd
  0
BLOCK
  5
65
330
64
100
AcDbEntity
  8
0
100
AcDbBlockBegin
  2
TOLERANCE BLOCK
 70
0
 10
0
 20
0
 30
0
  3
TOLERANCE BLOCK
  0
INSERT
  5
66
330
64
100
AcDbEntity
  8
0
100
AcDbBlockReference
  2
TOL
 10
0
 20
0
 30
0
 41
1
 42
1
 43
1
 50
0
  0
ENDBLK
  5
68
330
64
100
AcDbEntity
  8
0
100
AcDbBlockEnd
  0
BLOCK
  5
6A
330
69
100
AcDbEntity
  8
0
100
AcDbBlockBegin
  2
A
 70
0
 10
0
 20
0
 30
0
  3
A
  0
INSERT
  5
6B
330
69
100
AcDbEntity
  8
0
100
AcDbBlockReference
  2
TOLERANCE BLOCK
 10
-19.427663741921631
 20
25.25596286449812
 30
0
 41
0.19427663741922169
 42
0.19427663741922169
 43
0.19427663741922169
 50
0
  0
ENDBLK
  5
6D
330
69
100
AcDbEntity
  8
0
100
AcDbBlockEnd
  0
BLOCK
  5
71
330
6E
100
AcDbEntity
  8
0
100
AcDbBlockBegin
  2
*Model_Space
 70
0
 10
0
 20
0
 30
0
  3
*Model_Space
  0
ENDBLK
  5
B1
330
6E
100
AcDbEntity
  8
0
100
AcDbBlockEnd
  0
BLOCK
  5
1C
330
1B
100
AcDbEntity
  8
0
 67
1
100
AcDbBlockBegin
  2
*Paper_Space
 70
0
 10
0
 20
0
 30
0
  3
*Paper_Space
  0
ENDBLK
  5
1D
330
1B
100
AcDbEntity
  8
0
100
AcDbBlockEnd
  0
BLOCK
  5
B3
330
B2
100
AcDbEntity
  8
0
100
AcDbBlockBegin
  2
*Paper_Space0
 70
0
 10
0
 20
0
 30
0
  3
*Paper_Space0
  0
ENDBLK
  5
B4
330
B2
100
AcDbEntity
  8
0
100
AcDbBlockEnd
  0
ENDSEC
  0
SECTION
  2
ENTITIES
  0
MTEXT
  5
72
330
6E
100
AcDbEntity
  8
LaserCutting
100
AcDbMText
 10
177.6026313238504
 20
303.775441536429
 30
0
 11
1E-16
 21
1
 31
0
 40
5
 41
37.734415640052219
 46
9.1312442078810516
 71
1
 72
5
  1
{\fCentury Gothic|b0|i0|c0|p18;\C1;131608}
  7
Standard
 73
1
 90
0
1001
ACAD
1000
MTEXTBEGIN
1070
73
1070
1
1070
44
1040
1
1070
74
1070
0
1000
MTEXTEND
1000
ACAD_MTEXT_DEFINED_HEIGHT_BEGIN
1070
46
1040
9.1312442078810516
1000
ACAD_MTEXT_DEFINED_HEIGHT_END
  0
TEXT
  5
73
330
6E
100
AcDbEntity
  8
0
 62
7
100
AcDbText
 10
236.05080216384479
 20
218.0196862157826
 30
0
 40
7.4198
  1
SIZE: 6 mm  X 89 X 341.45
  7
Standard
100
AcDbText
1001
ACAD
1000
MTEXTBEGIN
1070
73
1070
1
1070
44
1040
1
1070
74
1070
0
1000
MTEXTEND
  0
TEXT
  5
74
330
6E
100
AcDbEntity
  8
0
 62
7
100
AcDbText
 10
235.6914530506115
 20
205.52682150455021
 30
0
 40
7.4198
  1
MAT: SS 316
  7
Standard
100
AcDbText
1001
ACAD
1000
MTEXTBEGIN
1070
73
1070
1
1070
44
1040
1
1070
74
1070
0
1000
MTEXTEND
  0
TEXT
  5
75
330
6E
100
AcDbEntity
  8
0
 62
7
100
AcDbText
 10
235.97488333710541
 20
193.0339567933178
 30
0
 40
7.4198
  1
QTY: 8 NO
  7
Standard
100
AcDbText
1001
ACAD
1000
MTEXTBEGIN
1070
73
1070
1
1070
44
1040
1
1070
74
1070
0
1000
MTEXTEND
  0
TEXT
  5
76
330
6E
100
AcDbEntity
  8
0
 62
7
100
AcDbText
 10
235.66614677503171
 20
180.6372559292887
 30
0
 40
7.4198
  1
REV: 4
  7
Standard
100
AcDbText
1001
ACAD
1000
MTEXTBEGIN
1070
73
1070
1
1070
44
1040
1
1070
74
1070
0
1000
MTEXTEND
  0
ARC
  5
77
330
6E
100
AcDbEntity
  8
LaserCutting
100
AcDbCircle
 10
164.0868924256545
 20
282.985238629394
 30
0
 40
4.3999999999999773
100
AcDbArc
 50
90
 51
270
  0
LINE
  5
78
330
6E
100
AcDbEntity
  8
LaserCutting
100
AcDbLine
 10
164.0868924256545
 20
278.585238629394
 30
0
 11
214.88689242565451
 21
278.5852386293941
 31
0
  0
ARC
  5
79
330
6E
100
AcDbEntity
  8
LaserCutting
100
AcDbCircle
 10
214.88689242565451
 20
282.985238629394
 30
0
 40
4.3999999999998627
100
AcDbArc
 50
270
 51
90
  0
LINE
  5
7A
330
6E
100
AcDbEntity
  8
LaserCutting
100
AcDbLine
 10
214.88689242565451
 20
287.38523862939388
 30
0
 11
164.0868924256545
 21
287.385238629394
 31
0
  0
ARC
  5
7B
330
6E
100
AcDbEntity
  8
LaserCutting
100
AcDbCircle
 10
214.88689242565451
 20
343.485238629394
 30
0
 40
4.39999999999992
100
AcDbArc
 50
269.99999999999977
 51
90.0000000000004
  0
LINE
  5
7C
330
6E
100
AcDbEntity
  8
LaserCutting
100
AcDbLine
 10
214.88689242565451
 20
347.885238629394
 30
0
 11
164.0868924256545
 21
347.885238629394
 31
0
  0
ARC
  5
7D
330
6E
100
AcDbEntity
  8
LaserCutting
100
AcDbCircle
 10
164.0868924256545
 20
343.485238629394
 30
0
 40
4.3999999999999773
100
AcDbArc
 50
90
 51
270
  0
LINE
  5
7E
330
6E
100
AcDbEntity
  8
LaserCutting
100
AcDbLine
 10
164.0868924256545
 20
339.085238629394
 30
0
 11
214.88689242565451
 21
339.0852386293941
 31
0
  0
ARC
  5
7F
330
6E
100
AcDbEntity
  8
LaserCutting
100
AcDbCircle
 10
230.88889242565449
 20
282.985238629394
 30
0
 40
4.3999999999999773
100
AcDbArc
 50
90.000000000000369
 51
269.99999999999977
  0
LINE
  5
80
330
6E
100
AcDbEntity
  8
LaserCutting
100
AcDbLine
 10
230.88889242565449
 20
278.585238629394
 30
0
 11
281.6888924256545
 21
278.5852386293941
 31
0
  0
ARC
  5
81
330
6E
100
AcDbEntity
  8
LaserCutting
100
AcDbCircle
 10
281.6888924256545
 20
282.985238629394
 30
0
 40
4.3999999999998627
100
AcDbArc
 50
269.99999999999932
 51
90.000000000000753
  0
LINE
  5
82
330
6E
100
AcDbEntity
  8
LaserCutting
100
AcDbLine
 10
281.6888924256545
 20
287.38523862939388
 30
0
 11
230.88889242565449
 21
287.385238629394
 31
0
  0
ARC
  5
83
330
6E
100
AcDbEntity
  8
LaserCutting
100
AcDbCircle
 10
230.88889242565449
 20
343.485238629394
 30
0
 40
4.3999999999999773
100
AcDbArc
 50
90.000000000000369
 51
269.99999999999977
  0
LINE
  5
84
330
6E
100
AcDbEntity
  8
LaserCutting
100
AcDbLine
 10
230.88889242565449
 20
339.085238629394
 30
0
 11
281.6888924256545
 21
339.0852386293941
 31
0
  0
ARC
  5
85
330
6E
100
AcDbEntity
  8
LaserCutting
100
AcDbCircle
 10
281.6888924256545
 20
343.485238629394
 30
0
 40
4.39999999999992
100
AcDbArc
 50
270
 51
90
  0
LINE
  5
86
330
6E
100
AcDbEntity
  8
LaserCutting
100
AcDbLine
 10
281.6888924256545
 20
347.885238629394
 30
0
 11
230.88889242565449
 21
347.885238629394
 31
0
  0
ARC
  5
87
330
6E
100
AcDbEntity
  8
LaserCutting
100
AcDbCircle
 10
483.7828924256545
 20
284.485238629394
 30
0
 40
4.75
100
AcDbArc
 50
0
 51
180
  0
ARC
  5
88
330
6E
100
AcDbEntity
  8
LaserCutting
100
AcDbCircle
 10
483.7828924256545
 20
284.485238629394
 30
0
 40
4.75
100
AcDbArc
 50
180
 51
0
  0
ARC
  5
89
330
6E
100
AcDbEntity
  8
LaserCutting
100
AcDbCircle
 10
464.68289242565447
 20
284.485238629394
 30
0
 40
4.75
100
AcDbArc
 50
0
 51
180
  0
ARC
  5
8A
330
6E
100
AcDbEntity
  8
LaserCutting
100
AcDbCircle
 10
464.68289242565447
 20
284.485238629394
 30
0
 40
4.75
100
AcDbArc
 50
180
 51
0
  0
ARC
  5
8B
330
6E
100
AcDbEntity
  8
LaserCutting
100
AcDbCircle
 10
440.88289242565452
 20
284.485238629394
 30
0
 40
4.75
100
AcDbArc
 50
0
 51
180
  0
ARC
  5
8C
330
6E
100
AcDbEntity
  8
LaserCutting
100
AcDbCircle
 10
440.88289242565452
 20
284.485238629394
 30
0
 40
4.75
100
AcDbArc
 50
180
 51
0
  0
ARC
  5
8D
330
6E
100
AcDbEntity
  8
LaserCutting
100
AcDbCircle
 10
383.68289242565447
 20
284.485238629394
 30
0
 40
4.75
100
AcDbArc
 50
0
 51
180
  0
ARC
  5
8E
330
6E
100
AcDbEntity
  8
LaserCutting
100
AcDbCircle
 10
383.68289242565447
 20
284.485238629394
 30
0
 40
4.75
100
AcDbArc
 50
180
 51
0
  0
ARC
  5
8F
330
6E
100
AcDbEntity
  8
LaserCutting
100
AcDbCircle
 10
383.68289242565447
 20
341.685238629394
 30
0
 40
4.75
100
AcDbArc
 50
0
 51
180
  0
ARC
  5
90
330
6E
100
AcDbEntity
  8
LaserCutting
100
AcDbCircle
 10
383.68289242565447
 20
341.685238629394
 30
0
 40
4.75
100
AcDbArc
 50
180
 51
0
  0
ARC
  5
91
330
6E
100
AcDbEntity
  8
LaserCutting
100
AcDbCircle
 10
483.7828924256545
 20
341.685238629394
 30
0
 40
4.75
100
AcDbArc
 50
0
 51
180
  0
ARC
  5
92
330
6E
100
AcDbEntity
  8
LaserCutting
100
AcDbCircle
 10
483.7828924256545
 20
341.685238629394
 30
0
 40
4.75
100
AcDbArc
 50
180
 51
0
  0
ARC
  5
93
330
6E
100
AcDbEntity
  8
LaserCutting
100
AcDbCircle
 10
440.88289242565452
 20
341.685238629394
 30
0
 40
4.75
100
AcDbArc
 50
0
 51
180
  0
ARC
  5
94
330
6E
100
AcDbEntity
  8
LaserCutting
100
AcDbCircle
 10
440.88289242565452
 20
341.685238629394
 30
0
 40
4.75
100
AcDbArc
 50
180
 51
0
  0
ARC
  5
95
330
6E
100
AcDbEntity
  8
LaserCutting
100
AcDbCircle
 10
464.68289242565447
 20
341.685238629394
 30
0
 40
4.75
100
AcDbArc
 50
0
 51
180
  0
ARC
  5
96
330
6E
100
AcDbEntity
  8
LaserCutting
100
AcDbCircle
 10
464.68289242565447
 20
341.685238629394
 30
0
 40
4.75
100
AcDbArc
 50
180
 51
0
  0
ARC
  5
97
330
6E
100
AcDbEntity
  8
LaserCutting
100
AcDbCircle
 10
407.58289242565411
 20
284.485238629394
 30
0
 40
4.75
100
AcDbArc
 50
90
 51
270
  0
LINE
  5
98
330
6E
100
AcDbEntity
  8
LaserCutting
100
AcDbLine
 10
407.58289242565411
 20
279.735238629394
 30
0
 11
426.58289242565439
 21
279.735238629394
 31
0
  0
ARC
  5
99
330
6E
100
AcDbEntity
  8
LaserCutting
100
AcDbCircle
 10
426.58289242565439
 20
284.485238629394
 30
0
 40
4.75
100
AcDbArc
 50
270
 51
90
  0
LINE
  5
9A
330
6E
100
AcDbEntity
  8
LaserCutting
100
AcDbLine
 10
426.58289242565439
 20
289.235238629394
 30
0
 11
407.58289242565411
 21
289.235238629394
 31
0
  0
ARC
  5
9B
330
6E
100
AcDbEntity
  8
LaserCutting
100
AcDbCircle
 10
426.58289242565439
 20
341.685238629394
 30
0
 40
4.75
100
AcDbArc
 50
270
 51
90
  0
LINE
  5
9C
330
6E
100
AcDbEntity
  8
LaserCutting
100
AcDbLine
 10
426.58289242565439
 20
346.435238629394
 30
0
 11
407.58289242565411
 21
346.435238629394
 31
0
  0
ARC
  5
9D
330
6E
100
AcDbEntity
  8
LaserCutting
100
AcDbCircle
 10
407.58289242565411
 20
341.685238629394
 30
0
 40
4.75
100
AcDbArc
 50
90
 51
270
  0
LINE
  5
9E
330
6E
100
AcDbEntity
  8
LaserCutting
100
AcDbLine
 10
407.58289242565411
 20
336.935238629394
 30
0
 11
426.58289242565439
 21
336.935238629394
 31
0
  0
LINE
  5
9F
330
6E
100
AcDbEntity
  8
LaserCutting
100
AcDbLine
 10
154.9868924256545
 20
354.785238629394
 30
0
 11
154.9868924256545
 21
271.785238629394
 31
0
  0
ARC
  5
A0
330
6E
100
AcDbEntity
  8
LaserCutting
100
AcDbCircle
 10
157.98689242565439
 20
271.785238629394
 30
0
 40
2.9999999999999711
100
AcDbArc
 50
180
 51
270.00000000000063
  0
LINE
  5
A1
330
6E
100
AcDbEntity
  8
LaserCutting
100
AcDbLine
 10
157.9868924256545
 20
268.785238629394
 30
0
 11
493.48289242565448
 21
268.785238629394
 31
0
  0
ARC
  5
A2
330
6E
100
AcDbEntity
  8
LaserCutting
100
AcDbCircle
 10
493.4828924256546
 20
271.78523862939392
 30
0
 40
2.9999999999999432
100
AcDbArc
 50
269.99999999999892
 51
1.0687E-12
  0
LINE
  5
A3
330
6E
100
AcDbEntity
  8
LaserCutting
100
AcDbLine
 10
496.48289242565448
 20
271.785238629394
 30
0
 11
496.48289242565448
 21
293.585238629394
 31
0
  0
ARC
  5
A4
330
6E
100
AcDbEntity
  8
LaserCutting
100
AcDbCircle
 10
493.4828924256546
 20
293.5852386293941
 30
0
 40
2.9999999999998859
100
AcDbArc
 50
359.99999999999892
 51
90.000000000001108
  0
LINE
  5
A5
330
6E
100
AcDbEntity
  8
LaserCutting
100
AcDbLine
 10
493.4828924256546
 20
296.585238629394
 30
0
 11
388.4828924256546
 21
296.58523862939381
 31
0
  0
ARC
  5
A6
330
6E
100
AcDbEntity
  8
LaserCutting
100
AcDbCircle
 10
388.4828924256546
 20
313.2352386293939
 30
0
 40
16.650000000000091
100
AcDbArc
 50
90
 51
270
  0
LINE
  5
A7
330
6E
100
AcDbEntity
  8
LaserCutting
100
AcDbLine
 10
388.4828924256546
 20
329.885238629394
 30
0
 11
493.48289242565448
 21
329.885238629394
 31
0
  0
ARC
  5
A8
330
6E
100
AcDbEntity
  8
LaserCutting
100
AcDbCircle
 10
493.4828924256546
 20
332.88523862939388
 30
0
 40
2.9999999999999432
100
AcDbArc
 50
269.99999999999892
 51
1.0687E-12
  0
LINE
  5
A9
330
6E
100
AcDbEntity
  8
LaserCutting
100
AcDbLine
 10
496.48289242565448
 20
332.885238629394
 30
0
 11
496.48289242565448
 21
354.78523862939392
 31
0
  0
ARC
  5
AA
330
6E
100
AcDbEntity
  8
LaserCutting
100
AcDbCircle
 10
493.48289242565443
 20
354.78523862939392
 30
0
 40
3.000000000000056
100
AcDbArc
 50
359.99999999999892
 51
89.999999999998934
  0
LINE
  5
AB
330
6E
100
AcDbEntity
  8
LaserCutting
100
AcDbLine
 10
493.48289242565448
 20
357.785238629394
 30
0
 11
157.9868924256545
 21
357.785238629394
 31
0
  0
ARC
  5
AC
330
6E
100
AcDbEntity
  8
LaserCutting
100
AcDbCircle
 10
157.98689242565439
 20
354.785238629394
 30
0
 40
3
100
AcDbArc
 50
89.99999999999946
 51
180
  0
ARC
  5
AD
330
6E
100
AcDbEntity
  8
LaserCutting
100
AcDbCircle
 10
360.08289242565462
 20
284.485238629394
 30
0
 40
4.75
100
AcDbArc
 50
0
 51
180
  0
ARC
  5
AE
330
6E
100
AcDbEntity
  8
LaserCutting
100
AcDbCircle
 10
360.08289242565462
 20
284.485238629394
 30
0
 40
4.75
100
AcDbArc
 50
180
 51
0
  0
ARC
  5
AF
330
6E
100
AcDbEntity
  8
LaserCutting
100
AcDbCircle
 10
360.08289242565422
 20
341.685238629394
 30
0
 40
4.75
100
AcDbArc
 50
0
 51
180
  0
ARC
  5
B0
330
6E
100
AcDbEntity
  8
LaserCutting
100
AcDbCircle
 10
360.08289242565422
 20
341.685238629394
 30
0
 40
4.75
100
AcDbArc
 50
180
 51
0
  0
ENDSEC
  0
SECTION
  2
OBJECTS
  0
DICTIONARY
  5
C
330
0
100
AcDbDictionary
280
0
281
1
  3
ACAD_COLOR
350
BD
  3
ACAD_GROUP
350
D
  3
ACAD_LAYOUT
350
1A
  3
ACAD_MATERIAL
350
BF
  3
ACAD_MLEADERSTYLE
350
C0
  3
ACAD_MLINESTYLE
350
17
  3
ACAD_PLOTSETTINGS
350
19
  3
ACAD_PLOTSTYLENAME
350
E
  3
ACAD_SCALELIST
350
C2
  3
ACAD_TABLESTYLE
350
D4
  3
ACAD_VISUALSTYLE
350
D8
  3
AcadDim
350
D9
  3
ACDB_RECOMPOSE_DATA
350
DA
  3
AcDbVariableDictionary
350
DB
  3
ACAD_FIELDLIST
350
E5
  3
ACAD_IMAGE_DICT
350
E6
  0
DICTIONARY
  5
2C
330
2B
100
AcDbDictionary
280
1
281
1
  3
ACAD_SORTENTS
360
2D
  0
DICTIONARY
  5
6F
330
6E
100
AcDbDictionary
280
1
281
1
  3
ACAD_SORTENTS
360
70
  0
DICTIONARY
  5
D6
330
D5
100
AcDbDictionary
280
1
281
1
  3
ACAD_ROUNDTRIP_2008_TABLESTYLE_CELLSTYLEMAP
360
D7
  0
DICTIONARY
  5
BD
102
{ACAD_REACTORS
330
C
102
}
330
C
100
AcDbDictionary
280
0
281
1
  0
DICTIONARY
  5
D
102
{ACAD_REACTORS
330
C
102
}
330
C
100
AcDbDictionary
280
0
281
1
  0
DICTIONARY
  5
1A
102
{ACAD_REACTORS
330
C
102
}
330
C
100
AcDbDictionary
280
0
281
1
  3
Layout1
350
1E
  3
Layout2
350
BE
  3
Model
350
22
  0
DICTIONARY
  5
BF
102
{ACAD_REACTORS
330
C
102
}
330
C
100
AcDbDictionary
280
0
281
1
  0
DICTIONARY
  5
C0
102
{ACAD_REACTORS
330
C
102
}
330
C
100
AcDbDictionary
280
0
281
1
  0
DICTIONARY
  5
17
102
{ACAD_REACTORS
330
C
102
}
330
C
100
AcDbDictionary
280
0
281
1
  3
STANDARD
350
C1
  0
DICTIONARY
  5
19
102
{ACAD_REACTORS
330
C
102
}
330
C
100
AcDbDictionary
280
0
281
1
  0
ACDBDICTIONARYWDFLT
  5
E
102
{ACAD_REACTORS
330
C
102
}
330
C
100
AcDbDictionary
280
0
281
1
  3
Normal
350
F
100
AcDbDictionaryWithDefault
340
F
  0
ACDBPLACEHOLDER
  5
F
102
{ACAD_REACTORS
330
E
102
}
330
E
  0
DICTIONARY
  5
C2
102
{ACAD_REACTORS
330
C
102
}
330
C
100
AcDbDictionary
280
0
281
1
  3
A0
350
C3
  3
A1
350
C4
  3
A2
350
C5
  3
A3
350
C6
  3
A4
350
C7
  3
A5
350
C8
  3
A6
350
C9
  3
A7
350
CA
  3
A8
350
CB
  3
A9
350
CC
  3
B0
350
CD
  3
B1
350
CE
  3
B2
350
CF
  3
B3
350
D0
  3
B4
350
D1
  3
B5
350
D2
  3
B6
350
D3
  0
DICTIONARY
  5
D4
102
{ACAD_REACTORS
330
C
102
}
330
C
100
AcDbDictionary
280
0
281
1
  3
Standard
350
D5
  0
DICTIONARY
  5
D8
102
{ACAD_REACTORS
330
C
102
}
330
C
100
AcDbDictionary
280
0
281
1
  0
XRECORD
  5
D9
102
{ACAD_REACTORS
330
C
102
}
330
C
100
AcDbXrecord
280
1
 90
990106
  3

 60
0
 61
0
 62
1
 63
3
 64
0
 65
0
 66
0
 67
3
 68
1
 69
0
 70
0
 71
0
 72
0
 40
0
170
0
340
0
  0
XRECORD
  5
DA
102
{ACAD_REACTORS
330
C
102
}
330
C
100
AcDbXrecord
280
1
 90
1
330
D5
  0
DICTIONARY
  5
DB
102
{ACAD_REACTORS
330
C
102
}
330
C
100
AcDbDictionary
280
0
281
1
  3
CMLEADERSTYLE
350
DC
  3
CTABLESTYLE
350
DD
  3
DIMASSOC
350
DE
  3
MSLTSCALE
350
DF
  3
PROJECTNAME
350
E0
  3
XCLIPFRAME
350
E1
  3
CANNOSCALE
350
E2
  3
ANNOALLVISIBLE
350
E3
  3
ANNOTATIVEDWG
350
E4
  0
FIELDLIST
  5
E5
102
{ACAD_REACTORS
330
C
102
}
330
C
100
AcDbIdSet
100
AcDbFieldList
  0
DICTIONARY
  5
E6
102
{ACAD_REACTORS
330
C
102
}
330
C
100
AcDbDictionary
280
0
281
1
  0
SORTENTSTABLE
  5
2D
102
{ACAD_REACTORS
330
2C
102
}
330
2C
100
AcDbSortentsTable
330
2B
  0
SORTENTSTABLE
  5
70
102
{ACAD_REACTORS
330
6F
102
}
330
6F
100
AcDbSortentsTable
330
6E
331
72
  5
27A9
331
73
  5
2736
331
74
  5
276C
331
75
  5
276D
331
76
  5
276E
331
77
  5
276F
331
78
  5
2770
331
79
  5
2771
331
7A
  5
2772
331
7B
  5
2773
331
7C
  5
2774
331
7D
  5
2775
331
7E
  5
2776
331
7F
  5
2777
331
80
  5
2778
331
81
  5
2779
331
82
  5
277A
331
83
  5
277B
331
84
  5
277C
331
85
  5
277D
331
86
  5
277E
331
87
  5
277F
331
88
  5
2780
331
89
  5
2781
331
8A
  5
2782
331
8B
  5
2783
331
8C
  5
2784
331
8D
  5
2785
331
8E
  5
2786
331
8F
  5
2787
331
90
  5
2788
331
91
  5
2789
331
92
  5
278A
331
93
  5
278B
331
94
  5
278C
331
95
  5
278D
331
96
  5
278E
331
97
  5
278F
331
98
  5
2790
331
99
  5
2791
331
9A
  5
2792
331
9B
  5
2793
331
9C
  5
2794
331
9D
  5
2795
331
9E
  5
2796
331
9F
  5
2797
331
A0
  5
2798
331
A1
  5
2799
331
A2
  5
279A
331
A3
  5
279B
331
A4
  5
279C
331
A5
  5
279D
331
A6
  5
279E
331
A7
  5
279F
331
A8
  5
27A0
331
A9
  5
27A1
331
AA
  5
27A2
331
AB
  5
27A3
331
AC
  5
27A4
331
AD
  5
27A5
331
AE
  5
27A6
331
AF
  5
27A7
331
B0
  5
27A8
  0
CELLSTYLEMAP
  5
D7
102
{ACAD_REACTORS
330
D6
102
}
330
D6
100
AcDbCellStyleMap
 90
3
300
CELLSTYLE
  1
TABLEFORMAT_BEGIN
 90
5
170
1
 91
0
 92
32768
 62
257
 93
1
300
CONTENTFORMAT
  1
CONTENTFORMAT_BEGIN
 90
0
 91
0
 92
4
 93
0
300

 40
0
140
1
 94
5
 62
18
340
11
144
6
309
CONTENTFORMAT_END
171
1
301
MARGIN
  1
CELLMARGIN_BEGIN
 40
1.5
 40
1.5
 40
1.5
 40
1.5
 40
0.18
 40
0.18
309
CELLMARGIN_END
 94
6
 95
1
302
GRIDFORMAT
  1
GRIDFORMAT_BEGIN
 90
0
 91
1
 62
0
 92
-2
340
0
 93
0
 40
0.045
309
GRIDFORMAT_END
 95
2
302
GRIDFORMAT
  1
GRIDFORMAT_BEGIN
 90
0
 91
1
 62
0
 92
-2
340
0
 93
0
 40
0.045
309
GRIDFORMAT_END
 95
4
302
GRIDFORMAT
  1
GRIDFORMAT_BEGIN
 90
0
 91
1
 62
0
 92
-2
340
0
 93
0
 40
0.045
309
GRIDFORMAT_END
 95
8
302
GRIDFORMAT
  1
GRIDFORMAT_BEGIN
 90
0
 91
1
 62
0
 92
-2
340
0
 93
0
 40
0.045
309
GRIDFORMAT_END
 95
16
302
GRIDFORMAT
  1
GRIDFORMAT_BEGIN
 90
0
 91
1
 62
0
 92
-2
340
0
 93
0
 40
0.045
309
GRIDFORMAT_END
 95
32
302
GRIDFORMAT
  1
GRIDFORMAT_BEGIN
 90
0
 91
1
 62
0
 92
-2
340
0
 93
0
 40
0.045
309
GRIDFORMAT_END
309
TABLEFORMAT_END
  1
CELLSTYLE_BEGIN
 90
1
 91
1
300
_TITLE
309
CELLSTYLE_END
300
CELLSTYLE
  1
TABLEFORMAT_BEGIN
 90
5
170
1
 91
0
 92
0
 62
257
 93
1
300
CONTENTFORMAT
  1
CONTENTFORMAT_BEGIN
 90
0
 91
0
 92
4
 93
0
300

 40
0
140
1
 94
5
 62
18
340
11
144
4.5
309
CONTENTFORMAT_END
171
1
301
MARGIN
  1
CELLMARGIN_BEGIN
 40
1.5
 40
1.5
 40
1.5
 40
1.5
 40
0.18
 40
0.18
309
CELLMARGIN_END
 94
6
 95
1
302
GRIDFORMAT
  1
GRIDFORMAT_BEGIN
 90
0
 91
1
 62
0
 92
-2
340
0
 93
0
 40
0.045
309
GRIDFORMAT_END
 95
2
302
GRIDFORMAT
  1
GRIDFORMAT_BEGIN
 90
0
 91
1
 62
0
 92
-2
340
0
 93
0
 40
0.045
309
GRIDFORMAT_END
 95
4
302
GRIDFORMAT
  1
GRIDFORMAT_BEGIN
 90
0
 91
1
 62
0
 92
-2
340
0
 93
0
 40
0.045
309
GRIDFORMAT_END
 95
8
302
GRIDFORMAT
  1
GRIDFORMAT_BEGIN
 90
0
 91
1
 62
0
 92
-2
340
0
 93
0
 40
0.045
309
GRIDFORMAT_END
 95
16
302
GRIDFORMAT
  1
GRIDFORMAT_BEGIN
 90
0
 91
1
 62
0
 92
-2
340
0
 93
0
 40
0.045
309
GRIDFORMAT_END
 95
32
302
GRIDFORMAT
  1
GRIDFORMAT_BEGIN
 90
0
 91
1
 62
0
 92
-2
340
0
 93
0
 40
0.045
309
GRIDFORMAT_END
309
TABLEFORMAT_END
  1
CELLSTYLE_BEGIN
 90
2
 91
1
300
_HEADER
309
CELLSTYLE_END
300
CELLSTYLE
  1
TABLEFORMAT_BEGIN
 90
5
170
1
 91
0
 92
0
 62
257
 93
1
300
CONTENTFORMAT
  1
CONTENTFORMAT_BEGIN
 90
0
 91
0
 92
4
 93
0
300

 40
0
140
1
 94
2
 62
18
340
11
144
4.5
309
CONTENTFORMAT_END
171
1
301
MARGIN
  1
CELLMARGIN_BEGIN
 40
1.5
 40
1.5
 40
1.5
 40
1.5
 40
0.18
 40
0.18
309
CELLMARGIN_END
 94
6
 95
1
302
GRIDFORMAT
  1
GRIDFORMAT_BEGIN
 90
0
 91
1
 62
0
 92
-2
340
0
 93
0
 40
0.045
309
GRIDFORMAT_END
 95
2
302
GRIDFORMAT
  1
GRIDFORMAT_BEGIN
 90
0
 91
1
 62
0
 92
-2
340
0
 93
0
 40
0.045
309
GRIDFORMAT_END
 95
4
302
GRIDFORMAT
  1
GRIDFORMAT_BEGIN
 90
0
 91
1
 62
0
 92
-2
340
0
 93
0
 40
0.045
309
GRIDFORMAT_END
 95
8
302
GRIDFORMAT
  1
GRIDFORMAT_BEGIN
 90
0
 91
1
 62
0
 92
-2
340
0
 93
0
 40
0.045
309
GRIDFORMAT_END
 95
16
302
GRIDFORMAT
  1
GRIDFORMAT_BEGIN
 90
0
 91
1
 62
0
 92
-2
340
0
 93
0
 40
0.045
309
GRIDFORMAT_END
 95
32
302
GRIDFORMAT
  1
GRIDFORMAT_BEGIN
 90
0
 91
1
 62
0
 92
-2
340
0
 93
0
 40
0.045
309
GRIDFORMAT_END
309
TABLEFORMAT_END
  1
CELLSTYLE_BEGIN
 90
3
 91
2
300
_DATA
309
CELLSTYLE_END
  0
LAYOUT
  5
1E
102
{ACAD_REACTORS
330
1A
102
}
330
1A
100
AcDbPlotSettings
  1

  2
HP 930 C Printer
  4

  6

 40
0
 41
0
 42
0
 43
0
 44
0
 45
0
 46
0
 47
0
 48
0
 49
0
140
0
141
0
142
1
143
1
 70
688
 72
0
 73
0
 74
5
  7

 75
16
 76
0
 77
2
 78
300
147
1
148
0
149
0
100
AcDbLayout
  1
Layout1
 70
1
 71
1
 10
0
 20
0
 11
420
 21
297
 12
0
 22
0
 32
0
 14
1E+20
 24
1E+20
 34
1E+20
 15
1E+20
 25
1E+20
 35
1E+20
146
0
 13
0
 23
0
 33
0
 16
1
 26
0
 36
0
 17
0
 27
1
 37
0
 76
0
330
1B
  0
LAYOUT
  5
BE
102
{ACAD_REACTORS
330
1A
102
}
330
1A
100
AcDbPlotSettings
  1

  2
HP 930 C Printer
  4

  6

 40
0
 41
0
 42
0
 43
0
 44
0
 45
0
 46
0
 47
0
 48
0
 49
0
140
0
141
0
142
1
143
1
 70
688
 72
0
 73
0
 74
5
  7

 75
16
 76
0
 77
2
 78
300
147
1
148
0
149
0
100
AcDbLayout
  1
Layout2
 70
1
 71
2
 10
0
 20
0
 11
12
 21
9
 12
0
 22
0
 32
0
 14
0
 24
0
 34
0
 15
0
 25
0
 35
0
146
0
 13
0
 23
0
 33
0
 16
1
 26
0
 36
0
 17
0
 27
1
 37
0
 76
0
330
B2
  0
LAYOUT
  5
22
102
{ACAD_REACTORS
330
1A
102
}
330
1A
100
AcDbPlotSettings
  1

  2
HP DeskJet 930C Series
  4
A4
  6

 40
4.2650833129882812
 41
12.393094062805171
 42
4.180419921875
 43
3.17498779296875
 44
209.97332763671861
 45
296.92599487304688
 46
21.14
 47
0
 48
44.252201016721983
 49
-34.32435958637042
140
554.17530295993663
141
254.2940751721419
142
1
143
1.812364530554041
 70
11956
 72
1
 73
1
 74
4
  7

 75
0
 76
0
 77
2
 78
300
147
0.551765377848296
148
-44.252201016721983
149
34.32435958637042
100
AcDbLayout
  1
Model
 70
1
 71
0
 10
0
 20
0
 11
12
 21
9
 12
0
 22
0
 32
0
 14
0
 24
0
 34
0
 15
0
 25
0
 35
0
146
0
 13
0
 23
0
 33
0
 16
1
 26
0
 36
0
 17
0
 27
1
 37
0
 76
0
330
6E
331
BC
  0
MLINESTYLE
  5
C1
102
{ACAD_REACTORS
330
17
102
}
330
17
100
AcDbMlineStyle
  2
STANDARD
 70
0
  3

 51
90
 52
90
 71
2
 49
0.5
  6
ByLayer
 49
-0.5
  6
ByLayer
  0
SCALE
  5
C3
102
{ACAD_REACTORS
330
C2
102
}
330
C2
100
AcDbScale
 70
0
300
1:1
140
1
141
1
290
1
  0
SCALE
  5
C4
102
{ACAD_REACTORS
330
C2
102
}
330
C2
100
AcDbScale
 70
0
300
1:2
140
1
141
2
290
0
  0
SCALE
  5
C5
102
{ACAD_REACTORS
330
C2
102
}
330
C2
100
AcDbScale
 70
0
300
1:4
140
1
141
4
290
0
  0
SCALE
  5
C6
102
{ACAD_REACTORS
330
C2
102
}
330
C2
100
AcDbScale
 70
0
300
1:5
140
1
141
5
290
0
  0
SCALE
  5
C7
102
{ACAD_REACTORS
330
C2
102
}
330
C2
100
AcDbScale
 70
0
300
1:8
140
1
141
8
290
0
  0
SCALE
  5
C8
102
{ACAD_REACTORS
330
C2
102
}
330
C2
100
AcDbScale
 70
0
300
1:10
140
1
141
10
290
0
  0
SCALE
  5
C9
102
{ACAD_REACTORS
330
C2
102
}
330
C2
100
AcDbScale
 70
0
300
1:16
140
1
141
16
290
0
  0
SCALE
  5
CA
102
{ACAD_REACTORS
330
C2
102
}
330
C2
100
AcDbScale
 70
0
300
1:20
140
1
141
20
290
0
  0
SCALE
  5
CB
102
{ACAD_REACTORS
330
C2
102
}
330
C2
100
AcDbScale
 70
0
300
1:30
140
1
141
30
290
0
  0
SCALE
  5
CC
102
{ACAD_REACTORS
330
C2
102
}
330
C2
100
AcDbScale
 70
0
300
1:40
140
1
141
40
290
0
  0
SCALE
  5
CD
102
{ACAD_REACTORS
330
C2
102
}
330
C2
100
AcDbScale
 70
0
300
1:50
140
1
141
50
290
0
  0
SCALE
  5
CE
102
{ACAD_REACTORS
330
C2
102
}
330
C2
100
AcDbScale
 70
0
300
1:100
140
1
141
100
290
0
  0
SCALE
  5
CF
102
{ACAD_REACTORS
330
C2
102
}
330
C2
100
AcDbScale
 70
0
300
2:1
140
2
141
1
290
0
  0
SCALE
  5
D0
102
{ACAD_REACTORS
330
C2
102
}
330
C2
100
AcDbScale
 70
0
300
4:1
140
4
141
1
290
0
  0
SCALE
  5
D1
102
{ACAD_REACTORS
330
C2
102
}
330
C2
100
AcDbScale
 70
0
300
8:1
140
8
141
1
290
0
  0
SCALE
  5
D2
102
{ACAD_REACTORS
330
C2
102
}
330
C2
100
AcDbScale
 70
0
300
10:1
140
10
141
1
290
0
  0
SCALE
  5
D3
102
{ACAD_REACTORS
330
C2
102
}
330
C2
100
AcDbScale
 70
0
300
100:1
140
100
141
1
290
0
  0
TABLESTYLE
  5
D5
102
{ACAD_XDICTIONARY
360
D6
102
}
102
{ACAD_REACTORS
330
D4
102
}
330
D4
100
AcDbTableStyle
  3
Standard
 70
0
 71
0
 40
1.5
 41
1.5
280
0
281
0
  7
Standard
140
4.5
170
2
 62
18
283
0
 90
4
 91
0
274
-2
284
1
 64
0
275
-2
285
1
 65
0
276
-2
286
1
 66
0
277
-2
287
1
 67
0
278
-2
288
1
 68
0
279
-2
289
1
 69
0
  7
Standard
140
6
170
5
 62
18
283
0
 90
4
 91
0
274
-2
284
1
 64
0
275
-2
285
1
 65
0
276
-2
286
1
 66
0
277
-2
287
1
 67
0
278
-2
288
1
 68
0
279
-2
289
1
 69
0
  7
Standard
140
4.5
170
5
 62
18
283
0
 90
4
 91
0
274
-2
284
1
 64
0
275
-2
285
1
 65
0
276
-2
286
1
 66
0
277
-2
287
1
 67
0
278
-2
288
1
 68
0
279
-2
289
1
 69
0
  0
DICTIONARYVAR
  5
DC
102
{ACAD_REACTORS
330
DB
102
}
330
DB
100
DictionaryVariables
280
0
  1
Standard
  0
DICTIONARYVAR
  5
DD
102
{ACAD_REACTORS
330
DB
102
}
330
DB
100
DictionaryVariables
280
0
  1
STANDARD
  0
DICTIONARYVAR
  5
DE
102
{ACAD_REACTORS
330
DB
102
}
330
DB
100
DictionaryVariables
280
0
  1
1
  0
DICTIONARYVAR
  5
DF
102
{ACAD_REACTORS
330
DB
102
}
330
DB
100
DictionaryVariables
280
0
  1
0
  0
DICTIONARYVAR
  5
E0
102
{ACAD_REACTORS
330
DB
102
}
330
DB
100
DictionaryVariables
280
0
  1

  0
DICTIONARYVAR
  5
E1
102
{ACAD_REACTORS
330
DB
102
}
330
DB
100
DictionaryVariables
280
0
  1
0
  0
DICTIONARYVAR
  5
E2
102
{ACAD_REACTORS
330
DB
102
}
330
DB
100
DictionaryVariables
280
0
  1
1:1
  0
DICTIONARYVAR
  5
E3
102
{ACAD_REACTORS
330
DB
102
}
330
DB
100
DictionaryVariables
280
0
  1
1
  0
DICTIONARYVAR
  5
E4
102
{ACAD_REACTORS
330
DB
102
}
330
DB
100
DictionaryVariables
280
0
  1
0
  0
ENDSEC
999
Created By CadLib version 4.0.36.72
999
CadLib website: www.woutware.com
  0
EOF
