  0
SECTION
  2
HEADER
  9
$ACADVER
  1
AC1021
  9
$ACADMAINTVER
 70
50
  9
$DWGCODEPAGE
  3
ansi_1252
  9
$TITLE
  1

  9
$SUBJECT
  1

  9
$AUTHOR
  1

  9
$KEYWORDS
  1

  9
$COMMENTS
  1

  9
$LASTSAVEDBY
  1
ap100
  9
$REVISIONNUMBER
  1

  9
$INSBASE
 10
0
 20
0
 30
0
  9
$EXTMIN
 10
181.5088009624256
 20
81.799123584545157
 30
0
  9
$EXTMAX
 10
302.93910735048121
 20
262.24024158752354
 30
0
  9
$LIMMIN
 10
0
 20
0
  9
$LIMMAX
 10
420
 20
297
  9
$SNAPMODE
 70
0
  9
$SNAPUNIT
 10
1
 20
1
  9
$SNAPBASE
 10
0
 20
0
  9
$SNAPANG
 50
0
  9
$SNAPSTYLE
 70
0
  9
$SNAPISOPAIR
 70
0
  9
$ORTHOMODE
 70
1
  9
$REGENMODE
 70
1
  9
$FILLMODE
 70
1
  9
$QTEXTMODE
 70
0
  9
$MIRRTEXT
 70
0
  9
$LTSCALE
 40
1
  9
$OSMODE
 70
0
  9
$ATTMODE
 70
1
  9
$TEXTSIZE
 40
2.5
  9
$TRACEWID
 40
1
  9
$TEXTSTYLE
  7
Standard
  9
$CLAYER
  8
0
  9
$CELTYPE
  6
ByLayer
  9
$CECOLOR
 62
256
  9
$CELTSCALE
 40
1
  9
$DISPSILH
 70
0
  9
$DIMSCALE
 40
1
  9
$DIMASZ
 40
2.5
  9
$DIMEXO
 40
0.625
  9
$DIMDLI
 40
3.75
  9
$DIMRND
 40
0
  9
$DIMDLE
 40
0
  9
$DIMEXE
 40
1.25
  9
$DIMTP
 40
0
  9
$DIMTM
 40
0
  9
$DIMTXT
 40
3
  9
$DIMCEN
 40
2.5
  9
$DIMTSZ
 40
0
  9
$DIMTOL
 70
0
  9
$DIMLIM
 70
0
  9
$DIMTIH
 70
0
  9
$DIMTOH
 70
0
  9
$DIMSE1
 70
0
  9
$DIMSE2
 70
0
  9
$DIMTAD
 70
1
  9
$DIMZIN
 70
8
  9
$DIMBLK
  1

  9
$DIMASO
 70
1
  9
$DIMSHO
 70
1
  9
$DIMPOST
  1

  9
$DIMAPOST
  1

  9
$DIMALT
 70
1
  9
$DIMALTD
 70
3
  9
$DIMALTF
 40
0.03937007874016
  9
$DIMLFAC
 40
1
  9
$DIMTOFL
 70
1
  9
$DIMTVP
 40
0
  9
$DIMTIX
 70
0
  9
$DIMSOXD
 70
0
  9
$DIMSAH
 70
0
  9
$DIMBLK1
  1

  9
$DIMBLK2
  1

  9
$DIMSTYLE
  2
ISO-25
  9
$DIMCLRD
 70
0
  9
$DIMCLRE
 70
0
  9
$DIMCLRT
 70
0
  9
$DIMTFAC
 40
1
  9
$DIMGAP
 40
0.625
  9
$DIMJUST
 70
0
  9
$DIMSD1
 70
0
  9
$DIMSD2
 70
0
  9
$DIMTOLJ
 70
0
  9
$DIMTZIN
 70
8
  9
$DIMALTZ
 70
0
  9
$DIMALTTZ
 70
0
  9
$DIMUPT
 70
0
  9
$DIMDEC
 70
2
  9
$DIMTDEC
 70
2
  9
$DIMALTU
 70
2
  9
$DIMALTTD
 70
3
  9
$DIMTXSTY
  7
Standard
  9
$DIMAUNIT
 70
0
  9
$DIMADEC
 70
0
  9
$DIMALTRND
 40
0
  9
$DIMAZIN
 70
0
  9
$DIMDSEP
 70
44
  9
$DIMATFIT
 70
3
  9
$DIMFRAC
 70
0
  9
$DIMLDRBLK
  1

  9
$DIMLUNIT
 70
2
  9
$DIMLWD
 70
-2
  9
$DIMLWE
 70
-2
  9
$DIMFXL
 40
1
  9
$DIMFXLON
 70
0
  9
$DIMJOGANG
 40
0.78539816339744828
  9
$DIMTFILL
 70
0
  9
$DIMTFILLCLR
 70
0
  9
$DIMARCSYM
 70
0
  9
$LUNITS
 70
2
  9
$LUPREC
 70
4
  9
$SKETCHINC
 40
1
  9
$FILLETRAD
 40
0
  9
$AUNITS
 70
0
  9
$AUPREC
 70
0
  9
$MENU
  1
.
  9
$ELEVATION
 40
0
  9
$PELEVATION
 40
0
  9
$THICKNESS
 40
0
  9
$LIMCHECK
 70
0
  9
$CHAMFERA
 40
0
  9
$CHAMFERB
 40
0
  9
$CHAMFERC
 40
0
  9
$CHAMFERD
 40
0
  9
$SKPOLY
 70
0
  9
$TDCREATE
 40
2454537.4881629744
  9
$TDUCREATE
 40
2454537.2589963078
  9
$TDUPDATE
 40
2459546.5267642825
  9
$TDUUPDATE
 40
2459546.2975976155
  9
$TDINDWG
 40
0.19776788194444445
  9
$TDUSRTIMER
 40
0.19775277777777778
  9
$USRTIMER
 70
1
  9
$ANGBASE
 50
0
  9
$ANGDIR
 70
0
  9
$PDMODE
 70
2
  9
$PDSIZE
 40
0
  9
$PLINEWID
 40
0
  9
$SPLFRAME
 70
0
  9
$SPLINETYPE
 70
6
  9
$SPLINESEGS
 70
8
  9
$HANDSEED
  5
262
  9
$SURFTAB1
 70
6
  9
$SURFTAB2
 70
6
  9
$SURFTYPE
 70
6
  9
$SURFU
 70
6
  9
$SURFV
 70
6
  9
$UCSORG
 10
0
 20
0
 30
0
  9
$UCSXDIR
 10
1
 20
0
 30
0
  9
$UCSYDIR
 10
0
 20
1
 30
0
  9
$UCSORTHOREF
  2

  9
$UCSORTHOVIEW
 70
0
  9
$UCSORGTOP
 10
0
 20
0
 30
0
  9
$UCSORGBOTTOM
 10
0
 20
0
 30
0
  9
$UCSORGLEFT
 10
0
 20
0
 30
0
  9
$UCSORGRIGHT
 10
0
 20
0
 30
0
  9
$UCSORGFRONT
 10
0
 20
0
 30
0
  9
$UCSORGBACK
 10
0
 20
0
 30
0
  9
$PUCSORG
 10
0
 20
0
 30
0
  9
$PUCSXDIR
 10
1
 20
0
 30
0
  9
$PUCSYDIR
 10
0
 20
1
 30
0
  9
$PUCSORTHOREF
  2

  9
$PUCSORTHOVIEW
 70
0
  9
$PUCSORGTOP
 10
0
 20
0
 30
0
  9
$PUCSORGBOTTOM
 10
0
 20
0
 30
0
  9
$PUCSORGLEFT
 10
0
 20
0
 30
0
  9
$PUCSORGRIGHT
 10
0
 20
0
 30
0
  9
$PUCSORGFRONT
 10
0
 20
0
 30
0
  9
$PUCSORGBACK
 10
0
 20
0
 30
0
  9
$USERI1
 70
0
  9
$USERI2
 70
0
  9
$USERI3
 70
0
  9
$USERI4
 70
0
  9
$USERI5
 70
0
  9
$USERR1
 40
0
  9
$USERR2
 40
0
  9
$USERR3
 40
0
  9
$USERR4
 40
0
  9
$USERR5
 40
0
  9
$WORLDVIEW
 70
1
  9
$SHADEDGE
 70
3
  9
$SHADEDIF
 70
70
  9
$TILEMODE
 70
1
  9
$MAXACTVP
 70
64
  9
$PINSBASE
 10
0
 20
0
 30
0
  9
$PLIMCHECK
 70
0
  9
$PEXTMIN
 10
1E+20
 20
1E+20
 30
1E+20
  9
$PEXTMAX
 10
1E+20
 20
1E+20
 30
1E+20
  9
$PLIMMAX
 10
420
 20
297
  9
$PLIMMIN
 10
0
 20
0
  9
$UNITMODE
 70
0
  9
$VISRETAIN
 70
1
  9
$PLINEGEN
 70
0
  9
$PSLTSCALE
 70
1
  9
$TREEDEPTH
 70
3020
  9
$CMLSTYLE
  2
STANDARD
  9
$CMLJUST
 70
0
  9
$CMLSCALE
 40
20
  9
$PROXYGRAPHICS
 70
1
  9
$MEASUREMENT
 70
1
  9
$CELWEIGHT
370
0
  9
$ENDCAPS
280
0
  9
$JOINSTYLE
280
0
  9
$LWDISPLAY
290
0
  9
$INSUNITS
 70
4
  9
$HYPERLINKBASE
  1

  9
$XEDIT
290
1
  9
$CEPSNTYPE
380
0
  9
$PSTYLEMODE
290
1
  9
$FINGERPRINTGUID
  2
{ACAF66B2-6610-42B0-9E56-16E04C0BE5F4}
  9
$VERSIONGUID
  2
{24F06273-CF0B-456B-A1E4-D470A7E73CA3}
  9
$EXTNAMES
290
1
  9
$PSVPSCALE
 40
0
  9
$CSHADOW
280
0
  9
$SHADOWPLANELOCATION
 40
0
  9
$SORTENTS
280
127
  9
$INDEXCTL
280
0
  9
$XCLIPFRAME
290
0
  9
$HALOGAP
280
0
  9
$OBSCOLOR
 70
0
  9
$OBSLTYPE
280
0
  9
$INTERSECTIONDISPLAY
280
0
  9
$INTERSECTIONCOLOR
 70
0
  9
$DIMASSOC
280
1
  9
$PROJECTNAME
  1

  9
$INTERFERECOLOR
 62
1
  9
$DIMLTYPE
  6

  9
$DIMLTEX1
  6

  9
$DIMLTEX2
  6

  9
$STYLESHEET
  1

  9
$OLESTARTUP
290
     0
  9
$HIDETEXT
280
     1
  9
$CAMERADISPLAY
290
     0
  9
$LENSLENGTH
 40
50.0
  9
$CAMERAHEIGHT
 40
0.0
  9
$STEPSPERSEC
 40
2.0
  9
$STEPSIZE
 40
6.0
  9
$3DDWFPREC
 40
2.0
  9
$PSOLWIDTH
 40
0.25
  9
$PSOLHEIGHT
 40
4.0
  9
$LOFTANG1
 40
1.570796326794896
  9
$LOFTANG2
 40
1.570796326794896
  9
$LOFTMAG1
 40
0.0
  9
$LOFTMAG2
 40
0.0
  9
$LOFTPARAM
 70
     7
  9
$LOFTNORMALS
280
     1
  9
$LATITUDE
 40
0.0
  9
$LONGITUDE
 40
0.0
  9
$NORTHDIRECTION
 40
0.0
  9
$TIMEZONE
 70
 -8000
  9
$LIGHTGLYPHDISPLAY
280
     1
  9
$TILEMODELIGHTSYNCH
280
     1
  9
$SOLIDHIST
280
     1
  9
$SHOWHIST
280
     1
  9
$DWFFRAME
280
     2
  9
$DGNFRAME
280
     0
  9
$REALWORLDSCALE
290
     1
  0
ENDSEC
  0
SECTION
  2
CLASSES
  0
CLASS
  1
ACDBDICTIONARYWDFLT
  2
AcDbDictionaryWithDefault
  3
ObjectDBX Classes
 90
0
 91
1
280
0
281
0
  0
CLASS
  1
DIMASSOC
  2
AcDbDimAssoc
  3
"AcDbDimAssoc|Product Desc:     AcDim ARX App For Dimension|Company:          Autodesk, Inc.|WEB Address:      www.autodesk.com"
 90
0
 91
1
280
0
281
0
  0
CLASS
  1
SORTENTSTABLE
  2
AcDbSortentsTable
  3
ObjectDBX Classes
 90
0
 91
1
280
0
281
0
  0
CLASS
  1
TABLESTYLE
  2
AcDbTableStyle
  3
ObjectDBX Classes
 90
4095
 91
1
280
0
281
0
  0
CLASS
  1
DICTIONARYVAR
  2
AcDbDictionaryVar
  3
ObjectDBX Classes
 90
0
 91
1
280
0
281
0
  0
CLASS
  1
MATERIAL
  2
AcDbMaterial
  3
ObjectDBX Classes
 90
1153
 91
1
280
0
281
0
  0
CLASS
  1
VISUALSTYLE
  2
AcDbVisualStyle
  3
ObjectDBX Classes
 90
4095
 91
1
280
0
281
0
  0
CLASS
  1
SCALE
  2
AcDbScale
  3
ObjectDBX Classes
 90
1153
 91
1
280
0
281
0
  0
CLASS
  1
MLEADERSTYLE
  2
AcDbMLeaderStyle
  3
ACDB_MLEADERSTYLE_CLASS
 90
4095
 91
1
280
0
281
0
  0
CLASS
  1
CELLSTYLEMAP
  2
AcDbCellStyleMap
  3
ObjectDBX Classes
 90
1152
 91
1
280
0
281
0
  0
CLASS
  1
ACDBPLACEHOLDER
  2
AcDbPlaceHolder
  3
ObjectDBX Classes
 90
0
 91
1
280
0
281
0
  0
CLASS
  1
LAYOUT
  2
AcDbLayout
  3
ObjectDBX Classes
 90
0
 91
1
280
0
281
0
  0
CLASS
  1
ACDBPLACEHOLDER
  2
AcDbPlaceHolder
  3
ObjectDBX Classes
 90
0
 91
1
280
0
281
0
  0
CLASS
  1
LAYOUT
  2
AcDbLayout
  3
ObjectDBX Classes
 90
0
 91
1
280
0
281
0
  0
CLASS
  1
ACDBPLACEHOLDER
  2
AcDbPlaceHolder
  3
ObjectDBX Classes
 90
0
 91
1
280
0
281
0
  0
CLASS
  1
LAYOUT
  2
AcDbLayout
  3
ObjectDBX Classes
 90
0
 91
1
280
0
281
0
  0
CLASS
  1
ACDBPLACEHOLDER
  2
AcDbPlaceHolder
  3
ObjectDBX Classes
 90
0
 91
1
280
0
281
0
  0
CLASS
  1
LAYOUT
  2
AcDbLayout
  3
ObjectDBX Classes
 90
0
 91
1
280
0
281
0
  0
CLASS
  1
ACDBPLACEHOLDER
  2
AcDbPlaceHolder
  3
ObjectDBX Classes
 90
0
 91
1
280
0
281
0
  0
CLASS
  1
LAYOUT
  2
AcDbLayout
  3
ObjectDBX Classes
 90
0
 91
1
280
0
281
0
  0
CLASS
  1
ACIDBLOCKREFERENCE
  2
AcIdBlockReference
  3
AcIdViewObj|Product: Inventor Drawing Enabler|Company: Autodesk|Website: www.autodesk.com
 90
1
 91
1
280
0
281
1
  0
CLASS
  1
RASTERVARIABLES
  2
AcDbRasterVariables
  3
ISM
 90
0
 91
1
280
0
281
0
  0
CLASS
  1
IMAGEDEF
  2
AcDbRasterImageDef
  3
ISM
 90
0
 91
1
280
0
281
0
  0
CLASS
  1
IMAGEDEF_REACTOR
  2
AcDbRasterImageDefReactor
  3
ISM
 90
1
 91
1
280
0
281
0
  0
CLASS
  1
IMAGE
  2
AcDbRasterImage
  3
ISM
 90
127
 91
1
280
0
281
1
  0
CLASS
  1
ACAD_EVALUATION_GRAPH
  2
AcDbEvalGraph
  3
ObjectDBX Classes
 90
1153
 91
1
280
0
281
0
  0
CLASS
  1
BLOCKPOINTPARAMETER
  2
AcDbBlockPointParameter
  3
ObjectDBX Classes
 90
1153
 91
1
280
0
281
0
  0
CLASS
  1
BLOCKBASEPOINTPARAMETER
  2
AcDbBlockBasepointParameter
  3
ObjectDBX Classes
 90
1153
 91
1
280
0
281
0
  0
CLASS
  1
BLOCKLOOKUPPARAMETER
  2
AcDbBlockLookupParameter
  3
ObjectDBX Classes
 90
1153
 91
1
280
0
281
0
  0
CLASS
  1
BLOCKVISIBILITYPARAMETER
  2
AcDbBlockVisibilityParameter
  3
ObjectDBX Classes
 90
1153
 91
1
280
0
281
0
  0
CLASS
  1
BLOCKPROPERTIESTABLE
  2
AcDbBlockPropertiesTable
  3
ObjectDBX Classes
 90
1153
 91
1
280
0
281
0
  0
CLASS
  1
BLOCKPOLARPARAMETER
  2
AcDbBlockPolarParameter
  3
ObjectDBX Classes
 90
1153
 91
1
280
0
281
0
  0
CLASS
  1
BLOCKROTATIONPARAMETER
  2
AcDbBlockRotationParameter
  3
ObjectDBX Classes
 90
1153
 91
1
280
0
281
0
  0
CLASS
  1
BLOCKLINEARPARAMETER
  2
AcDbBlockLinearParameter
  3
ObjectDBX Classes
 90
1153
 91
1
280
0
281
0
  0
CLASS
  1
BLOCKXYPARAMETER
  2
AcDbBlockXYParameter
  3
ObjectDBX Classes
 90
1153
 91
1
280
0
281
0
  0
CLASS
  1
BLOCKFLIPPARAMETER
  2
AcDbBlockFlipParameter
  3
ObjectDBX Classes
 90
1153
 91
1
280
0
281
0
  0
CLASS
  1
BLOCKALIGNMENTPARAMETER
  2
AcDbBlockAlignmentParameter
  3
ObjectDBX Classes
 90
1153
 91
1
280
0
281
0
  0
CLASS
  1
BLOCKROTATEACTION
  2
AcDbBlockRotateAction
  3
ObjectDBX Classes
 90
1153
 91
1
280
0
281
0
  0
CLASS
  1
BLOCKSCALEACTION
  2
AcDbBlockScaleAction
  3
ObjectDBX Classes
 90
1153
 91
1
280
0
281
0
  0
CLASS
  1
BLOCKARRAYACTION
  2
AcDbBlockArrayAction
  3
ObjectDBX Classes
 90
1153
 91
1
280
0
281
0
  0
CLASS
  1
BLOCKFLIPACTION
  2
AcDbBlockFlipAction
  3
ObjectDBX Classes
 90
1153
 91
1
280
0
281
0
  0
CLASS
  1
BLOCKLOOKUPACTION
  2
AcDbBlockLookupAction
  3
ObjectDBX Classes
 90
1153
 91
1
280
0
281
0
  0
CLASS
  1
BLOCKMOVEACTION
  2
AcDbBlockMoveAction
  3
ObjectDBX Classes
 90
1153
 91
1
280
0
281
0
  0
CLASS
  1
BLOCKPOLARSTRETCHACTION
  2
AcDbBlockPolarStretchAction
  3
ObjectDBX Classes
 90
1153
 91
1
280
0
281
0
  0
CLASS
  1
BLOCKSTRETCHACTION
  2
AcDbBlockStretchAction
  3
ObjectDBX Classes
 90
1153
 91
1
280
0
281
0
  0
CLASS
  1
BLOCKALIGNMENTGRIP
  2
AcDbBlockAlignmentGrip
  3
ObjectDBX Classes
 90
1153
 91
1
280
0
281
0
  0
CLASS
  1
BLOCKFLIPGRIP
  2
AcDbBlockFlipGrip
  3
ObjectDBX Classes
 90
1153
 91
1
280
0
281
0
  0
CLASS
  1
ACDB_BLOCKREPRESENTATION_DATA
  2
AcDbBlockRepresentationData
  3
ObjectDBX Classes
 90
1153
 91
1
280
0
281
0
  0
CLASS
  1
ACDB_DYNAMICBLOCKPURGEPREVENTER_VERSION
  2
AcDbDynamicBlockPurgePreventer
  3
ObjectDBX Classes
 90
1153
 91
1
280
0
281
0
  0
CLASS
  1
BLOCKLINEARGRIP
  2
AcDbBlockLinearGrip
  3
ObjectDBX Classes
 90
1153
 91
1
280
0
281
0
  0
CLASS
  1
BLOCKLOOKUPGRIP
  2
AcDbBlockLookupGrip
  3
ObjectDBX Classes
 90
1153
 91
1
280
0
281
0
  0
CLASS
  1
BLOCKPOLARGRIP
  2
AcDbBlockPolarGrip
  3
ObjectDBX Classes
 90
1153
 91
1
280
0
281
0
  0
CLASS
  1
BLOCKPROPERTIESTABLEGRIP
  2
AcDbBlockPropertiesTableGrip
  3
ObjectDBX Classes
 90
1153
 91
1
280
0
281
0
  0
CLASS
  1
BLOCKROTATIONGRIP
  2
AcDbBlockRotationGrip
  3
ObjectDBX Classes
 90
1153
 91
1
280
0
281
0
  0
CLASS
  1
BLOCKVISIBILITYGRIP
  2
AcDbBlockVisibilityGrip
  3
ObjectDBX Classes
 90
1153
 91
1
280
0
281
0
  0
CLASS
  1
BLOCKXYGRIP
  2
AcDbBlockXYGrip
  3
ObjectDBX Classes
 90
1153
 91
1
280
0
281
0
  0
CLASS
  1
BLOCKGRIPLOCATIONCOMPONENT
  2
AcDbBlockGripExpr
  3
ObjectDBX Classes
 90
1153
 91
1
280
0
281
0
  0
CLASS
  1
ACDB_DYNAMICBLOCKPROXYNODE
  2
AcDbDynamicBlockProxyNode
  3
ObjectDBX Classes
 90
1153
 91
1
280
0
281
0
  0
ENDSEC
  0
SECTION
  2
TABLES
  0
TABLE
  2
VPORT
  5
8
330
0
100
AcDbSymbolTable
 70
1
  0
VPORT
  5
22E
330
8
100
AcDbSymbolTableRecord
100
AcDbViewportTableRecord
  2
*Active
 70
0
 10
0
 20
0
 11
1
 21
1
 12
252.34082688329869
 22
172.0218315267829
 13
0
 23
0
 14
10
 24
10
 15
10
 25
10
 16
0
 26
0
 36
1
 17
0
 27
0
 37
0
 40
182.73050851285589
 41
2.9217002237136458
 42
50
 43
0
 44
0
 50
0
 51
0
 71
0
 72
1000
 73
1
 74
0
 75
0
 76
0
 77
0
 78
0
281
0
 65
1
110
0
120
0
130
0
111
1
121
0
131
0
112
0
122
1
132
0
 79
0
146
0
 60
3
 61
5
292
1
282
1
141
0
142
0
 63
250
  0
ENDTAB
  0
TABLE
  2
LTYPE
  5
5
100
AcDbSymbolTable
 70
4
  0
LTYPE
  5
14
330
5
100
AcDbSymbolTableRecord
100
AcDbLinetypeTableRecord
  2
ByBlock
  3

 70
0
 72
65
 73
0
 40
0
  0
LTYPE
  5
15
330
5
100
AcDbSymbolTableRecord
100
AcDbLinetypeTableRecord
  2
ByLayer
  3

 70
0
 72
65
 73
0
 40
0
  0
LTYPE
  5
16
330
5
100
AcDbSymbolTableRecord
100
AcDbLinetypeTableRecord
  2
Continuous
  3
Solid line
 70
0
 72
65
 73
0
 40
0
  0
LTYPE
  5
22B
330
5
100
AcDbSymbolTableRecord
100
AcDbLinetypeTableRecord
  2
CENTER
  3
Center ____ _ ____ _ ____ _ ____ _ ____ _ ____
 70
0
 72
65
 73
4
 40
2
 49
1.25
 74
0
 49
-0.25
 74
0
 49
0.25
 74
0
 49
-0.25
 74
0
  0
ENDTAB
  0
TABLE
  2
LAYER
  5
2
100
AcDbSymbolTable
 70
5
  0
LAYER
  5
10
102
{ACAD_XDICTIONARY
360
27
102
}
330
2
100
AcDbSymbolTableRecord
100
AcDbLayerTableRecord
 70
0
  2
0
 62
7
  6
Continuous
370
-3
390
F
  0
LAYER
  5
29
330
2
100
AcDbSymbolTableRecord
100
AcDbLayerTableRecord
 70
0
  2
Defpoints
 62
151
  6
Continuous
290
0
370
-3
390
F
  0
LAYER
  5
2A
330
2
100
AcDbSymbolTableRecord
100
AcDbLayerTableRecord
 70
64
  2
LaserCutting
 62
3
  6
Continuous
370
-3
390
F
  0
LAYER
  5
2B
330
2
100
AcDbSymbolTableRecord
100
AcDbLayerTableRecord
 70
64
  2
Marking
 62
6
  6
Continuous
370
-3
390
F
  0
LAYER
  5
2C
330
2
100
AcDbSymbolTableRecord
100
AcDbLayerTableRecord
 70
64
  2
Dimention
 62
9
  6
Continuous
370
-3
390
F
  0
ENDTAB
  0
TABLE
  2
STYLE
  5
3
100
AcDbSymbolTable
 70
2
  0
STYLE
  5
11
330
3
100
AcDbSymbolTableRecord
100
AcDbTextStyleTableRecord
  2
Standard
 70
0
 40
0
 41
1
 50
0
 71
0
 42
2.5
  3
txt
  0
STYLE
  5
22A
330
3
100
AcDbSymbolTableRecord
100
AcDbTextStyleTableRecord
  2
Roman
 70
0
 40
0
 41
1
 50
0
 71
0
 42
5
  3
romans
  4
bigfont
  0
ENDTAB
  0
TABLE
  2
VIEW
  5
6
100
AcDbSymbolTable
 70
0
  0
ENDTAB
  0
TABLE
  2
UCS
  5
7
100
AcDbSymbolTable
 70
0
  0
ENDTAB
  0
TABLE
  2
APPID
  5
9
330
0
100
AcDbSymbolTable
 70
8
  0
APPID
  5
12
330
0
100
AcDbSymbolTableRecord
100
AcDbRegAppTableRecord
  2
ACAD
 70
0
  0
APPID
  5
25A
330
0
100
AcDbSymbolTableRecord
100
AcDbRegAppTableRecord
  2
ACAD_MLEADERVER
 70
0
  0
APPID
  5
25B
330
0
100
AcDbSymbolTableRecord
100
AcDbRegAppTableRecord
  2
ACAD_EXEMPT_FROM_CAD_STANDARDS
 70
0
  0
APPID
  5
25C
330
0
100
AcDbSymbolTableRecord
100
AcDbRegAppTableRecord
  2
ACAD_DSTYLE_DIMRADIAL_EXTENSION
 70
0
  0
APPID
  5
25D
330
0
100
AcDbSymbolTableRecord
100
AcDbRegAppTableRecord
  2
ACAD_DSTYLE_DIMJAG
 70
0
  0
APPID
  5
25E
330
0
100
AcDbSymbolTableRecord
100
AcDbRegAppTableRecord
  2
ACAD_DSTYLE_DIMTALN
 70
0
  0
APPID
  5
25F
330
0
100
AcDbSymbolTableRecord
100
AcDbRegAppTableRecord
  2
AcadAnnotative
 70
0
  0
APPID
  5
260
330
0
100
AcDbSymbolTableRecord
100
AcDbRegAppTableRecord
  2
ACAD_NAV_VCDISPLAY
 70
0
  0
ENDTAB
  0
TABLE
  2
DIMSTYLE
  5
A
330
0
100
AcDbSymbolTable
 70
2
100
AcDbDimStyleTable
 71
0
  0
DIMSTYLE
105
22C
330
A
100
AcDbSymbolTableRecord
100
AcDbDimStyleTableRecord
  2
ISO-25
 70
0
  3

  4

 40
1
 41
2.5
 42
0.625
 43
3.75
 44
1.25
 45
0
 46
0
 47
0
 48
0
140
3
141
2.5
142
0
143
0.03937007874016
144
1
145
0
146
1
147
0.625
148
0
 71
0
 72
0
 73
0
 74
0
 75
0
 76
0
 77
1
 78
8
 79
0
170
1
171
3
172
1
173
0
174
0
175
0
179
0
271
2
272
2
273
2
274
3
275
0
276
0
277
2
278
44
279
0
280
0
281
0
282
0
283
0
284
8
285
0
286
0
288
0
289
0
340
11
371
-2
372
-2
  0
DIMSTYLE
105
22D
330
A
100
AcDbSymbolTableRecord
100
AcDbDimStyleTableRecord
  2
Standard
 70
0
  3

  4

 40
1
 41
0.18
 42
0.0625
 43
0.38
 44
0.18
 45
0
 46
0
 47
0
 48
0
140
0.18
141
0.09
142
0
143
1
144
1
145
0
146
1
147
0.09
148
0
 71
0
 72
0
 73
1
 74
1
 75
0
 76
0
 77
0
 78
0
 79
0
170
0
171
2
172
0
173
0
174
0
175
0
179
0
271
4
272
4
273
2
274
0
275
0
276
0
277
2
278
46
279
0
280
0
281
0
282
0
283
1
284
0
285
0
286
0
288
0
289
0
340
11
371
-2
372
-2
  0
ENDTAB
  0
TABLE
  2
BLOCK_RECORD
  5
1
330
0
100
AcDbSymbolTable
 70
3
  0
BLOCK_RECORD
  5
2D
102
{ACAD_XDICTIONARY
360
2E
102
}
330
1
100
AcDbSymbolTableRecord
100
AcDbBlockTableRecord
  2
TOL
1001
ACAD
1000
DesignCenter Data
1002
{
1070
1
1070
4
1002
}
  0
BLOCK_RECORD
  5
66
330
1
100
AcDbSymbolTableRecord
100
AcDbBlockTableRecord
  2
TOLERANCE BLOCK
1001
ACAD
1000
DesignCenter Data
1002
{
1070
1
1070
4
1002
}
  0
BLOCK_RECORD
  5
6B
330
1
100
AcDbSymbolTableRecord
100
AcDbBlockTableRecord
  2
A
1001
ACAD
1000
DesignCenter Data
1002
{
1070
1
1070
4
1002
}
  0
BLOCK_RECORD
  5
70
102
{ACAD_XDICTIONARY
360
71
102
}
330
1
100
AcDbSymbolTableRecord
100
AcDbBlockTableRecord
  2
*Model_Space
340
22
  0
BLOCK_RECORD
  5
1B
330
1
100
AcDbSymbolTableRecord
100
AcDbBlockTableRecord
  2
*Paper_Space
340
1E
  0
BLOCK_RECORD
  5
96
330
1
100
AcDbSymbolTableRecord
100
AcDbBlockTableRecord
  2
*Paper_Space0
340
230
  0
BLOCK_RECORD
  5
99
330
1
100
AcDbSymbolTableRecord
100
AcDbBlockTableRecord
  2
*D44444444
  0
BLOCK_RECORD
  5
A6
330
1
100
AcDbSymbolTableRecord
100
AcDbBlockTableRecord
  2
*D55555555
  0
BLOCK_RECORD
  5
B3
330
1
100
AcDbSymbolTableRecord
100
AcDbBlockTableRecord
  2
*D66666666
  0
BLOCK_RECORD
  5
C0
330
1
100
AcDbSymbolTableRecord
100
AcDbBlockTableRecord
  2
*D77777777
  0
BLOCK_RECORD
  5
CD
330
1
100
AcDbSymbolTableRecord
100
AcDbBlockTableRecord
  2
*D88888888
  0
BLOCK_RECORD
  5
DA
330
1
100
AcDbSymbolTableRecord
100
AcDbBlockTableRecord
  2
*D99999999
  0
BLOCK_RECORD
  5
E7
330
1
100
AcDbSymbolTableRecord
100
AcDbBlockTableRecord
  2
*D1010101010101010
  0
BLOCK_RECORD
  5
F4
330
1
100
AcDbSymbolTableRecord
100
AcDbBlockTableRecord
  2
*D1111111111111111
  0
BLOCK_RECORD
  5
101
330
1
100
AcDbSymbolTableRecord
100
AcDbBlockTableRecord
  2
*D1212121212121212
  0
BLOCK_RECORD
  5
10E
330
1
100
AcDbSymbolTableRecord
100
AcDbBlockTableRecord
  2
*D1313131313131313
  0
BLOCK_RECORD
  5
119
330
1
100
AcDbSymbolTableRecord
100
AcDbBlockTableRecord
  2
*D1414141414141414
  0
BLOCK_RECORD
  5
126
330
1
100
AcDbSymbolTableRecord
100
AcDbBlockTableRecord
  2
*D1515151515151515
  0
BLOCK_RECORD
  5
132
330
1
100
AcDbSymbolTableRecord
100
AcDbBlockTableRecord
  2
*D1616161616161616
  0
BLOCK_RECORD
  5
13E
330
1
100
AcDbSymbolTableRecord
100
AcDbBlockTableRecord
  2
*D1717171717171717
  0
BLOCK_RECORD
  5
14B
330
1
100
AcDbSymbolTableRecord
100
AcDbBlockTableRecord
  2
*D1818181818181818
  0
BLOCK_RECORD
  5
157
330
1
100
AcDbSymbolTableRecord
100
AcDbBlockTableRecord
  2
*D1919191919191919
  0
BLOCK_RECORD
  5
163
330
1
100
AcDbSymbolTableRecord
100
AcDbBlockTableRecord
  2
*D2020202020202020
  0
BLOCK_RECORD
  5
170
330
1
100
AcDbSymbolTableRecord
100
AcDbBlockTableRecord
  2
*D2121212121212121
  0
BLOCK_RECORD
  5
17D
330
1
100
AcDbSymbolTableRecord
100
AcDbBlockTableRecord
  2
*D2222222222222222
  0
BLOCK_RECORD
  5
18A
330
1
100
AcDbSymbolTableRecord
100
AcDbBlockTableRecord
  2
*D2323232323232323
  0
BLOCK_RECORD
  5
196
330
1
100
AcDbSymbolTableRecord
100
AcDbBlockTableRecord
  2
*D2424242424242424
  0
BLOCK_RECORD
  5
1A2
330
1
100
AcDbSymbolTableRecord
100
AcDbBlockTableRecord
  2
*D2525252525252525
  0
BLOCK_RECORD
  5
1AF
330
1
100
AcDbSymbolTableRecord
100
AcDbBlockTableRecord
  2
*D2626262626262626
  0
BLOCK_RECORD
  5
1BC
330
1
100
AcDbSymbolTableRecord
100
AcDbBlockTableRecord
  2
*D2727272727272727
  0
BLOCK_RECORD
  5
1C8
330
1
100
AcDbSymbolTableRecord
100
AcDbBlockTableRecord
  2
*D2828282828282828
  0
BLOCK_RECORD
  5
1D5
330
1
100
AcDbSymbolTableRecord
100
AcDbBlockTableRecord
  2
*D2929292929292929
  0
BLOCK_RECORD
  5
1E1
330
1
100
AcDbSymbolTableRecord
100
AcDbBlockTableRecord
  2
*D3030303030303030
  0
BLOCK_RECORD
  5
1EE
330
1
100
AcDbSymbolTableRecord
100
AcDbBlockTableRecord
  2
*D3131313131313131
  0
BLOCK_RECORD
  5
1F9
330
1
100
AcDbSymbolTableRecord
100
AcDbBlockTableRecord
  2
*D3232323232323232
  0
BLOCK_RECORD
  5
205
330
1
100
AcDbSymbolTableRecord
100
AcDbBlockTableRecord
  2
*D3333333333333333
  0
BLOCK_RECORD
  5
212
330
1
100
AcDbSymbolTableRecord
100
AcDbBlockTableRecord
  2
*D3434343434343434
  0
BLOCK_RECORD
  5
21E
330
1
100
AcDbSymbolTableRecord
100
AcDbBlockTableRecord
  2
*D3535353535353535
  0
ENDTAB
  0
ENDSEC
  0
SECTION
  2
BLOCKS
  0
BLOCK
  5
30
330
2D
100
AcDbEntity
  8
0
100
AcDbBlockBegin
  2
TOL
 70
0
 10
0
 20
0
 30
0
  3
TOL
  0
LINE
  5
31
330
2D
100
AcDbEntity
  8
0
100
AcDbLine
 10
100
 20
0
 30
0
 11
0
 21
0
 31
0
  0
LINE
  5
32
330
2D
100
AcDbEntity
  8
0
100
AcDbLine
 10
0
 20
0
 30
0
 11
-1.42E-14
 21
-130
 31
0
  0
LINE
  5
33
330
2D
100
AcDbEntity
  8
0
100
AcDbLine
 10
0
 20
-20.000000000000011
 30
0
 11
100
 21
-20.000000000000011
 31
0
  0
LINE
  5
34
330
2D
100
AcDbEntity
  8
0
100
AcDbLine
 10
50.000000000000071
 20
-20.000000000000011
 30
0
 11
50.000000000000071
 21
-130
 31
0
  0
LINE
  5
35
330
2D
100
AcDbEntity
  8
0
100
AcDbLine
 10
25
 20
-30.000000000000021
 30
0
 11
25
 21
-130
 31
0
  0
LINE
  5
36
330
2D
100
AcDbEntity
  8
0
100
AcDbLine
 10
0
 20
-30.000000000000021
 30
0
 11
50.000000000000071
 21
-30.000000000000021
 31
0
  0
LINE
  5
37
330
2D
100
AcDbEntity
  8
0
100
AcDbLine
 10
0
 20
-130
 30
0
 11
100
 21
-130
 31
0
  0
LINE
  5
38
330
2D
100
AcDbEntity
  8
0
100
AcDbLine
 10
0
 20
-120
 30
0
 11
100
 21
-120
 31
0
  0
LINE
  5
39
330
2D
100
AcDbEntity
  8
0
100
AcDbLine
 10
0
 20
-110
 30
0
 11
100
 21
-110
 31
0
  0
LINE
  5
3A
330
2D
100
AcDbEntity
  8
0
100
AcDbLine
 10
0
 20
-100
 30
0
 11
100
 21
-100
 31
0
  0
LINE
  5
3B
330
2D
100
AcDbEntity
  8
0
100
AcDbLine
 10
0
 20
-89.999999999999986
 30
0
 11
100
 21
-89.999999999999986
 31
0
  0
LINE
  5
3C
330
2D
100
AcDbEntity
  8
0
100
AcDbLine
 10
0
 20
-79.999999999999972
 30
0
 11
100
 21
-79.999999999999972
 31
0
  0
LINE
  5
3D
330
2D
100
AcDbEntity
  8
0
100
AcDbLine
 10
0
 20
-70
 30
0
 11
100
 21
-70
 31
0
  0
LINE
  5
3E
330
2D
100
AcDbEntity
  8
0
100
AcDbLine
 10
0
 20
-60
 30
0
 11
100
 21
-60
 31
0
  0
LINE
  5
3F
330
2D
100
AcDbEntity
  8
0
100
AcDbLine
 10
0
 20
-50
 30
0
 11
100
 21
-50
 31
0
  0
LINE
  5
40
330
2D
100
AcDbEntity
  8
0
100
AcDbLine
 10
0
 20
-40
 30
0
 11
100
 21
-40
 31
0
  0
LINE
  5
41
330
2D
100
AcDbEntity
  8
0
100
AcDbLine
 10
100
 20
-130
 30
0
 11
100
 21
0
 31
0
  0
MTEXT
  5
42
330
2D
100
AcDbEntity
  8
0
100
AcDbMText
 10
16.245461267125851
 20
-3.33543300215001
 30
0
 11
1
 21
0
 31
0
 40
3.5
 41
74.407329180154193
 46
0
 71
1
 72
5
  1
APPLIED TO DIMENSIONS\PWITHOUT TOLERANCES
  7
Standard
 73
1
 90
0
1001
ACAD
1000
MTEXTBEGIN
1070
73
1070
1
1070
44
1040
1
1070
74
1070
0
1000
MTEXTEND
  0
MTEXT
  5
43
330
2D
100
AcDbEntity
  8
0
100
AcDbMText
 10
14.17841489240527
 20
-21.880122004061171
 30
0
 11
1
 21
0
 31
0
 40
2.4999999999999991
 41
26.056932558979039
 46
0
 71
1
 72
5
  1
DIMENSIONS\P   MM
  7
Standard
 73
1
 90
0
1001
ACAD
1000
MTEXTBEGIN
1070
73
1070
1
1070
44
1040
1
1070
74
1070
0
1000
MTEXTEND
  0
MTEXT
  5
44
330
2D
100
AcDbEntity
  8
0
100
AcDbMText
 10
69.283689155995432
 20
-27.62942338446307
 30
0
 11
1
 21
0
 31
0
 40
2.4999999999999991
 41
26.056932558979039
 46
0
 71
1
 72
5
  1
TOLERANCE\P   MM
  7
Standard
 73
1
 90
0
1001
ACAD
1000
MTEXTBEGIN
1070
73
1070
1
1070
44
1040
1
1070
74
1070
0
1000
MTEXTEND
  0
MTEXT
  5
45
330
2D
100
AcDbEntity
  8
0
100
AcDbMText
 10
8.1979774925894162
 20
-42.546059362331427
 30
0
 11
1
 21
0
 31
0
 40
5.697439347056874
 41
7.3429558704490461
 46
0
 71
1
 72
5
  1
0.5
  7
Standard
 73
1
 90
0
1001
ACAD
1000
MTEXTBEGIN
1070
73
1070
1
1070
44
1040
1
1070
74
1070
0
1000
MTEXTEND
  0
MTEXT
  5
46
330
2D
100
AcDbEntity
  8
0
100
AcDbMText
 10
34.69444365189441
 20
-41.914600146114893
 30
0
 11
1
 21
0
 31
0
 40
5.697439347056874
 41
6.0065613065244161
 46
0
 71
1
 72
5
  1
6
  7
Standard
 73
1
 90
0
1001
ACAD
1000
MTEXTBEGIN
1070
73
1070
1
1070
44
1040
1
1070
74
1070
0
1000
MTEXTEND
  0
MTEXT
  5
47
330
2D
100
AcDbEntity
  8
0
100
AcDbMText
 10
72.257885975416784
 20
-42.001052636754842
 30
0
 11
1
 21
0
 31
0
 40
5.697439347056874
 41
8.2378472016048381
 46
0
 71
1
 72
5
  1
±0.1
  7
Standard
 73
1
 90
0
1001
ACAD
1000
MTEXTBEGIN
1070
73
1070
1
1070
44
1040
1
1070
74
1070
0
1000
MTEXTEND
  0
MTEXT
  5
48
330
2D
100
AcDbEntity
  8
0
100
AcDbMText
 10
9.4818948093610533
 20
-52.020967657887176
 30
0
 11
1
 21
0
 31
0
 40
5.697439347056874
 41
8.1359004624076974
 46
0
 71
1
 72
5
  1
6
  7
Standard
 73
1
 90
0
1001
ACAD
1000
MTEXTBEGIN
1070
73
1070
1
1070
44
1040
1
1070
74
1070
0
1000
MTEXTEND
  0
MTEXT
  5
49
330
2D
100
AcDbEntity
  8
0
100
AcDbMText
 10
33.791253168207049
 20
-52.093197397550988
 30
0
 11
1
 21
0
 31
0
 40
5.697439347056874
 41
6.0065613065244161
 46
0
 71
1
 72
5
  1
30
  7
Standard
 73
1
 90
0
1001
ACAD
1000
MTEXTBEGIN
1070
73
1070
1
1070
44
1040
1
1070
74
1070
0
1000
MTEXTEND
  0
MTEXT
  5
4A
330
2D
100
AcDbEntity
  8
0
100
AcDbMText
 10
72.257885975416784
 20
-52.147360852669983
 30
0
 11
1
 21
0
 31
0
 40
5.697439347056874
 41
8.2378472016048381
 46
0
 71
1
 72
5
  1
±0.2
  7
Standard
 73
1
 90
0
1001
ACAD
1000
MTEXTBEGIN
1070
73
1070
1
1070
44
1040
1
1070
74
1070
0
1000
MTEXTEND
  0
MTEXT
  5
4B
330
2D
100
AcDbEntity
  8
0
100
AcDbMText
 10
8.999810359515207
 20
-62.671212868894287
 30
0
 11
1
 21
0
 31
0
 40
3.3049599337419311
 41
7.6790642386372978
 46
0
 71
1
 72
5
  1
{\H1.724x;30}
  7
Standard
 73
1
 90
0
1001
ACAD
1000
MTEXTBEGIN
1070
73
1070
1
1070
44
1040
1
1070
74
1070
0
1000
MTEXTEND
  0
MTEXT
  5
4C
330
2D
100
AcDbEntity
  8
0
100
AcDbMText
 10
32.241262237055253
 20
-61.907558827486291
 30
0
 11
1
 21
0
 31
0
 40
5.697439347056874
 41
12.135068384918339
 46
0
 71
1
 72
5
  1
120
  7
Standard
 73
1
 90
0
1001
ACAD
1000
MTEXTBEGIN
1070
73
1070
1
1070
44
1040
1
1070
74
1070
0
1000
MTEXTEND
  0
MTEXT
  5
4D
330
2D
100
AcDbEntity
  8
0
100
AcDbMText
 10
72.257885975416784
 20
-62.5781464450651
 30
0
 11
1
 21
0
 31
0
 40
5.697439347056874
 41
8.2378472016048381
 46
0
 71
1
 72
5
  1
±0.3
  7
Standard
 73
1
 90
0
1001
ACAD
1000
MTEXTBEGIN
1070
73
1070
1
1070
44
1040
1
1070
74
1070
0
1000
MTEXTEND
  0
MTEXT
  5
4E
330
2D
100
AcDbEntity
  8
0
100
AcDbMText
 10
6.6310263719059321
 20
-72.403159102054673
 30
0
 11
1
 21
0
 31
0
 40
5.697439347056874
 41
7.5119303805861168
 46
0
 71
1
 72
5
  1
120
  7
Standard
 73
1
 90
0
1001
ACAD
1000
MTEXTBEGIN
1070
73
1070
1
1070
44
1040
1
1070
74
1070
0
1000
MTEXTEND
  0
MTEXT
  5
4F
330
2D
100
AcDbEntity
  8
0
100
AcDbMText
 10
32.204961727036448
 20
-72.656511867870677
 30
0
 11
1
 21
0
 31
0
 40
5.697439347056874
 41
7.5527515467910433
 46
0
 71
1
 72
5
  1
315
  7
Standard
 73
1
 90
0
1001
ACAD
1000
MTEXTBEGIN
1070
73
1070
1
1070
44
1040
1
1070
74
1070
0
1000
MTEXTEND
  0
MTEXT
  5
50
330
2D
100
AcDbEntity
  8
0
100
AcDbMText
 10
72.257885975416784
 20
-72.206857565003133
 30
0
 11
1
 21
0
 31
0
 40
5.697439347056874
 41
8.2378472016048381
 46
0
 71
1
 72
5
  1
±0.5
  7
Standard
 73
1
 90
0
1001
ACAD
1000
MTEXTBEGIN
1070
73
1070
1
1070
44
1040
1
1070
74
1070
0
1000
MTEXTEND
  0
MTEXT
  5
51
330
2D
100
AcDbEntity
  8
0
100
AcDbMText
 10
6.73430521699765
 20
-82.850140446904021
 30
0
 11
1
 21
0
 31
0
 40
5.697439347056874
 41
7.4086515354943918
 46
0
 71
1
 72
5
  1
315
  7
Standard
 73
1
 90
0
1001
ACAD
1000
MTEXTBEGIN
1070
73
1070
1
1070
44
1040
1
1070
74
1070
0
1000
MTEXTEND
  0
MTEXT
  5
52
330
2D
100
AcDbEntity
  8
0
100
AcDbMText
 10
30.555611677856291
 20
-82.199368545775314
 30
0
 11
1
 21
0
 31
0
 40
5.697439347056874
 41
7.7691612481104961
 46
0
 71
1
 72
5
  1
1000
  7
Standard
 73
1
 90
0
1001
ACAD
1000
MTEXTBEGIN
1070
73
1070
1
1070
44
1040
1
1070
74
1070
0
1000
MTEXTEND
  0
MTEXT
  5
53
330
2D
100
AcDbEntity
  8
0
100
AcDbMText
 10
72.257885975416784
 20
-81.557185442393887
 30
0
 11
1
 21
0
 31
0
 40
5.697439347056874
 41
8.2378472016048381
 46
0
 71
1
 72
5
  1
±0.8
  7
Standard
 73
1
 90
0
1001
ACAD
1000
MTEXTBEGIN
1070
73
1070
1
1070
44
1040
1
1070
74
1070
0
1000
MTEXTEND
  0
MTEXT
  5
54
330
2D
100
AcDbEntity
  8
0
100
AcDbMText
 10
3.3640184613605011
 20
-92.4688207453519
 30
0
 11
1
 21
0
 31
0
 40
5.697439347056874
 41
10.778938291131549
 46
0
 71
1
 72
5
  1
1000
  7
Standard
 73
1
 90
0
1001
ACAD
1000
MTEXTBEGIN
1070
73
1070
1
1070
44
1040
1
1070
74
1070
0
1000
MTEXTEND
  0
MTEXT
  5
55
330
2D
100
AcDbEntity
  8
0
100
AcDbMText
 10
29.393243133195941
 20
-92.431436186655617
 30
0
 11
1
 21
0
 31
0
 40
5.697439347056874
 41
8.4873043930189613
 46
0
 71
1
 72
5
  1
2000
  7
Standard
 73
1
 90
0
1001
ACAD
1000
MTEXTBEGIN
1070
73
1070
1
1070
44
1040
1
1070
74
1070
0
1000
MTEXTEND
  0
MTEXT
  5
56
330
2D
100
AcDbEntity
  8
0
100
AcDbMText
 10
72.257885975416784
 20
-92.7121054280824
 30
0
 11
1
 21
0
 31
0
 40
5.697439347056874
 41
8.2378472016048381
 46
0
 71
1
 72
5
  1
±1.2
  7
Standard
 73
1
 90
0
1001
ACAD
1000
MTEXTBEGIN
1070
73
1070
1
1070
44
1040
1
1070
74
1070
0
1000
MTEXTEND
  0
MTEXT
  5
57
330
2D
100
AcDbEntity
  8
0
100
AcDbMText
 10
3.3640184613602742
 20
-102.75166848848561
 30
0
 11
1
 21
0
 31
0
 40
5.697439347056874
 41
10.778938291131711
 46
0
 71
1
 72
5
  1
2000
  7
Standard
 73
1
 90
0
1001
ACAD
1000
MTEXTBEGIN
1070
73
1070
1
1070
44
1040
1
1070
74
1070
0
1000
MTEXTEND
  0
MTEXT
  5
58
330
2D
100
AcDbEntity
  8
0
100
AcDbMText
 10
28.995996641405561
 20
-102.9567451312612
 30
0
 11
1
 21
0
 31
0
 40
5.697439347056874
 41
7.86908780812288
 46
0
 71
1
 72
5
  1
4000
  7
Standard
 73
1
 90
0
1001
ACAD
1000
MTEXTBEGIN
1070
73
1070
1
1070
44
1040
1
1070
74
1070
0
1000
MTEXTEND
  0
MTEXT
  5
59
330
2D
100
AcDbEntity
  8
0
100
AcDbMText
 10
72.257885975416784
 20
-102.33747977214971
 30
0
 11
1
 21
0
 31
0
 40
5.697439347056874
 41
8.2378472016048381
 46
0
 71
1
 72
5
  1
±2
  7
Standard
 73
1
 90
0
1001
ACAD
1000
MTEXTBEGIN
1070
73
1070
1
1070
44
1040
1
1070
74
1070
0
1000
MTEXTEND
  0
MTEXT
  5
5A
330
2D
100
AcDbEntity
  8
0
100
AcDbMText
 10
3.2448365356889308
 20
-112.6012309476249
 30
0
 11
1
 21
0
 31
0
 40
5.697439347056874
 41
10.8981202168031
 46
0
 71
1
 72
5
  1
4000
  7
Standard
 73
1
 90
0
1001
ACAD
1000
MTEXTBEGIN
1070
73
1070
1
1070
44
1040
1
1070
74
1070
0
1000
MTEXTEND
  0
MTEXT
  5
5B
330
2D
100
AcDbEntity
  8
0
100
AcDbMText
 10
27.465790526781809
 20
-112.1445565601783
 30
0
 11
1
 21
0
 31
0
 40
5.697439347056874
 41
9.1055921553301982
 46
0
 71
1
 72
5
  1
8000
  7
Standard
 73
1
 90
0
1001
ACAD
1000
MTEXTBEGIN
1070
73
1070
1
1070
44
1040
1
1070
74
1070
0
1000
MTEXTEND
  0
MTEXT
  5
5C
330
2D
100
AcDbEntity
  8
0
100
AcDbMText
 10
72.257885975416784
 20
-112.350005818908
 30
0
 11
1
 21
0
 31
0
 40
5.697439347056874
 41
8.2378472016048381
 46
0
 71
1
 72
5
  1
±3
  7
Standard
 73
1
 90
0
1001
ACAD
1000
MTEXTBEGIN
1070
73
1070
1
1070
44
1040
1
1070
74
1070
0
1000
MTEXTEND
  0
MTEXT
  5
5D
330
2D
100
AcDbEntity
  8
0
100
AcDbMText
 10
3.2448365356889308
 20
-122.5049065587295
 30
0
 11
1
 21
0
 31
0
 40
5.697439347056874
 41
10.8981202168031
 46
0
 71
1
 72
5
  1
8000
  7
Standard
 73
1
 90
0
1001
ACAD
1000
MTEXTBEGIN
1070
73
1070
1
1070
44
1040
1
1070
74
1070
0
1000
MTEXTEND
  0
MTEXT
  5
5E
330
2D
100
AcDbEntity
  8
0
100
AcDbMText
 10
27.54973569364347
 20
-122.4617725358583
 30
0
 11
1
 21
0
 31
0
 40
5.697439347056874
 41
8.9205802120876072
 46
0
 71
1
 72
5
  1
12000
  7
Standard
 73
1
 90
0
1001
ACAD
1000
MTEXTBEGIN
1070
73
1070
1
1070
44
1040
1
1070
74
1070
0
1000
MTEXTEND
  0
MTEXT
  5
5F
330
2D
100
AcDbEntity
  8
0
100
AcDbMText
 10
72.257885975416784
 20
-122.1965295949399
 30
0
 11
1
 21
0
 31
0
 40
5.697439347056874
 41
8.2378472016048381
 46
0
 71
1
 72
5
  1
±4
  7
Standard
 73
1
 90
0
1001
ACAD
1000
MTEXTBEGIN
1070
73
1070
1
1070
44
1040
1
1070
74
1070
0
1000
MTEXTEND
  0
LINE
  5
60
330
2D
100
AcDbEntity
  8
0
100
AcDbLine
 10
9.9440364603851759
 20
-38.689233478077078
 30
0
 11
18.92145275013354
 21
-38.689233478077078
 31
0
  0
LINE
  5
61
330
2D
100
AcDbEntity
  8
0
100
AcDbLine
 10
18.92145275013354
 20
-38.689233478077078
 30
0
 11
11.61465539146502
 21
-31.38102492468693
 31
0
  0
LINE
  5
62
330
2D
100
AcDbEntity
  8
0
100
AcDbLine
 10
31.07854724986646
 20
-38.689233478077078
 30
0
 11
38.385344608534972
 21
-31.38102492468693
 31
0
  0
LINE
  5
63
330
2D
100
AcDbEntity
  8
0
100
AcDbLine
 10
40.055963539614822
 20
-38.689233478077078
 30
0
 11
31.07854724986646
 21
-38.689233478077078
 31
0
  0
LINE
  5
64
330
2D
100
AcDbEntity
  8
0
100
AcDbLine
 10
40.055963539614822
 20
-39.258822291477607
 30
0
 11
31.07854724986646
 21
-39.258822291477657
 31
0
  0
ENDBLK
  5
65
330
2D
100
AcDbEntity
  8
0
100
AcDbBlockEnd
  0
BLOCK
  5
67
330
66
100
AcDbEntity
  8
0
100
AcDbBlockBegin
  2
TOLERANCE BLOCK
 70
0
 10
0
 20
0
 30
0
  3
TOLERANCE BLOCK
  0
INSERT
  5
68
330
66
100
AcDbEntity
  8
0
100
AcDbBlockReference
  2
TOL
 10
0
 20
0
 30
0
 41
1
 42
1
 43
1
 50
0
  0
ENDBLK
  5
6A
330
66
100
AcDbEntity
  8
0
100
AcDbBlockEnd
  0
BLOCK
  5
6C
330
6B
100
AcDbEntity
  8
0
100
AcDbBlockBegin
  2
A
 70
0
 10
0
 20
0
 30
0
  3
A
  0
INSERT
  5
6D
330
6B
100
AcDbEntity
  8
0
100
AcDbBlockReference
  2
TOLERANCE BLOCK
 10
-19.427663741921631
 20
25.25596286449812
 30
0
 41
0.19427663741922169
 42
0.19427663741921461
 43
0.1942766374192163
 50
0
  0
ENDBLK
  5
6F
330
6B
100
AcDbEntity
  8
0
100
AcDbBlockEnd
  0
BLOCK
  5
73
330
70
100
AcDbEntity
  8
0
100
AcDbBlockBegin
  2
*Model_Space
 70
0
 10
0
 20
0
 30
0
  3
*Model_Space
  0
ENDBLK
  5
95
330
70
100
AcDbEntity
  8
0
100
AcDbBlockEnd
  0
BLOCK
  5
1C
330
1B
100
AcDbEntity
  8
0
 67
1
100
AcDbBlockBegin
  2
*Paper_Space
 70
0
 10
0
 20
0
 30
0
  3
*Paper_Space
  0
ENDBLK
  5
1D
330
1B
100
AcDbEntity
  8
0
100
AcDbBlockEnd
  0
BLOCK
  5
97
330
96
100
AcDbEntity
  8
0
100
AcDbBlockBegin
  2
*Paper_Space0
 70
0
 10
0
 20
0
 30
0
  3
*Paper_Space0
  0
ENDBLK
  5
98
330
96
100
AcDbEntity
  8
0
100
AcDbBlockEnd
  0
BLOCK
  5
9A
330
99
100
AcDbEntity
  8
0
370
0
100
AcDbBlockBegin
  2
*D44444444
 70
1
 10
0
 20
0
 30
0
  3
*D44444444
  0
LINE
  5
9B
330
99
100
AcDbEntity
  8
0
 62
0
370
-2
100
AcDbLine
 10
302.93910735048121
 20
181.29911570782849
 30
0
 11
302.93910735048121
 21
270.61414898518871
 31
0
  0
LINE
  5
9C
330
99
100
AcDbEntity
  8
0
 62
0
370
-2
100
AcDbLine
 10
287.06410735048109
 20
192.3802415875235
 30
0
 11
287.06410735048109
 21
270.61414898518871
 31
0
  0
LINE
  5
9D
330
99
100
AcDbEntity
  8
0
 62
0
370
-2
100
AcDbLine
 10
300.43910735048121
 20
269.36414898518871
 30
0
 11
289.56410735048109
 21
269.36414898518871
 31
0
  0
LINE
  5
9E
330
99
100
AcDbEntity
  8
0
 62
0
370
-2
100
AcDbLine
 10
287.06410735048109
 20
269.36414898518871
 30
0
 11
251.8141073504811
 21
269.36414898518871
 31
0
  0
SOLID
  5
9F
330
99
100
AcDbEntity
  8
0
 62
0
370
0
100
AcDbTrace
 10
300.43910735048121
 20
269.78081565185528
 30
0
 11
300.43910735048121
 21
268.947482318522
 31
0
 12
302.93910735048121
 22
269.36414898518871
 32
0
 13
302.93910735048121
 23
269.36414898518871
 33
0
  0
SOLID
  5
A0
330
99
100
AcDbEntity
  8
0
 62
0
370
0
100
AcDbTrace
 10
289.56410735048109
 20
269.78081565185528
 30
0
 11
289.56410735048109
 21
268.947482318522
 31
0
 12
287.06410735048109
 22
269.36414898518871
 32
0
 13
287.06410735048109
 23
269.36414898518871
 33
0
  0
MTEXT
  5
A1
330
99
100
AcDbEntity
  8
0
 62
0
370
0
100
AcDbMText
 10
268.18910735048109
 20
271.73914898518871
 30
0
 11
1
 21
0
 31
0
 40
3
 41
0
 46
0
 71
5
 72
1
  1
15,88 [0,625]
  7
Standard
 73
1
 90
0
1001
ACAD
1000
MTEXTBEGIN
1070
73
1070
1
1070
44
1040
1
1070
74
1070
0
1000
MTEXTEND
  0
POINT
  5
A2
330
99
100
AcDbEntity
  8
Defpoints
 62
0
370
0
100
AcDbPoint
 10
302.93910735048121
 20
180.67411570782849
 30
0
 50
0
  0
POINT
  5
A3
330
99
100
AcDbEntity
  8
Defpoints
 62
0
370
0
100
AcDbPoint
 10
287.06410735048109
 20
191.7552415875235
 30
0
 50
0
  0
POINT
  5
A4
330
99
100
AcDbEntity
  8
Defpoints
 62
0
370
0
100
AcDbPoint
 10
287.06410735048109
 20
269.36414898518871
 30
0
 50
0
  0
ENDBLK
  5
A5
330
99
100
AcDbEntity
  8
0
100
AcDbBlockEnd
  0
BLOCK
  5
A7
330
A6
100
AcDbEntity
  8
0
370
0
100
AcDbBlockBegin
  2
*D55555555
 70
1
 10
0
 20
0
 30
0
  3
*D55555555
  0
LINE
  5
A8
330
A6
100
AcDbEntity
  8
0
 62
0
370
-2
100
AcDbLine
 10
287.06410735048109
 20
202.0145102866
 30
0
 11
287.06410735048109
 21
300.98499994253388
 31
0
  0
LINE
  5
A9
330
A6
100
AcDbEntity
  8
0
 62
0
370
-2
100
AcDbLine
 10
273.93410735048121
 20
202.0145102866
 30
0
 11
273.93410735048121
 21
300.98499994253388
 31
0
  0
LINE
  5
AA
330
A6
100
AcDbEntity
  8
0
 62
0
370
-2
100
AcDbLine
 10
284.56410735048109
 20
299.73499994253388
 30
0
 11
276.43410735048121
 21
299.73499994253388
 31
0
  0
LINE
  5
AB
330
A6
100
AcDbEntity
  8
0
 62
0
370
-2
100
AcDbLine
 10
273.93410735048121
 20
299.73499994253388
 30
0
 11
240.68410735048121
 21
299.73499994253388
 31
0
  0
SOLID
  5
AC
330
A6
100
AcDbEntity
  8
0
 62
0
370
0
100
AcDbTrace
 10
284.56410735048109
 20
300.15166660920062
 30
0
 11
284.56410735048109
 21
299.31833327586719
 31
0
 12
287.06410735048109
 22
299.73499994253388
 32
0
 13
287.06410735048109
 23
299.73499994253388
 33
0
  0
SOLID
  5
AD
330
A6
100
AcDbEntity
  8
0
 62
0
370
0
100
AcDbTrace
 10
276.43410735048121
 20
300.15166660920062
 30
0
 11
276.43410735048121
 21
299.31833327586719
 31
0
 12
273.93410735048121
 22
299.73499994253388
 32
0
 13
273.93410735048121
 23
299.73499994253388
 33
0
  0
MTEXT
  5
AE
330
A6
100
AcDbEntity
  8
0
 62
0
370
0
100
AcDbMText
 10
256.05910735048121
 20
302.10999994253388
 30
0
 11
1
 21
0
 31
0
 40
3
 41
0
 46
0
 71
5
 72
1
  1
13,13 [0,517]
  7
Standard
 73
1
 90
0
1001
ACAD
1000
MTEXTBEGIN
1070
73
1070
1
1070
44
1040
1
1070
74
1070
0
1000
MTEXTEND
  0
POINT
  5
AF
330
A6
100
AcDbEntity
  8
Defpoints
 62
0
370
0
100
AcDbPoint
 10
287.06410735048109
 20
201.38951028659989
 30
0
 50
0
  0
POINT
  5
B0
330
A6
100
AcDbEntity
  8
Defpoints
 62
0
370
0
100
AcDbPoint
 10
273.93410735048121
 20
201.38951028659989
 30
0
 50
0
  0
POINT
  5
B1
330
A6
100
AcDbEntity
  8
Defpoints
 62
0
370
0
100
AcDbPoint
 10
273.93410735048121
 20
299.73499994253388
 30
0
 50
0
  0
ENDBLK
  5
B2
330
A6
100
AcDbEntity
  8
0
100
AcDbBlockEnd
  0
BLOCK
  5
B4
330
B3
100
AcDbEntity
  8
0
370
0
100
AcDbBlockBegin
  2
*D66666666
 70
1
 10
0
 20
0
 30
0
  3
*D66666666
  0
LINE
  5
B5
330
B3
100
AcDbEntity
  8
0
 62
0
370
-2
100
AcDbLine
 10
287.84928803243361
 20
135.24024158752351
 30
0
 11
351.21696721302192
 21
135.24024158752351
 31
0
  0
LINE
  5
B6
330
B3
100
AcDbEntity
  8
0
 62
0
370
-2
100
AcDbLine
 10
287.68910735048109
 20
153.65524158752351
 30
0
 11
351.21696721302192
 21
153.65524158752351
 31
0
  0
LINE
  5
B7
330
B3
100
AcDbEntity
  8
0
 62
0
370
-2
100
AcDbLine
 10
349.9669672130218
 20
137.74024158752351
 30
0
 11
349.9669672130218
 21
151.15524158752351
 31
0
  0
LINE
  5
B8
330
B3
100
AcDbEntity
  8
0
 62
0
370
-2
100
AcDbLine
 10
349.9669672130218
 20
153.65524158752351
 30
0
 11
349.9669672130218
 21
188.90524158752351
 31
0
  0
SOLID
  5
B9
330
B3
100
AcDbEntity
  8
0
 62
0
370
0
100
AcDbTrace
 10
349.55030054635517
 20
137.74024158752351
 30
0
 11
350.38363387968872
 21
137.74024158752351
 31
0
 12
349.9669672130218
 22
135.24024158752351
 32
0
 13
349.9669672130218
 23
135.24024158752351
 33
0
  0
SOLID
  5
BA
330
B3
100
AcDbEntity
  8
0
 62
0
370
0
100
AcDbTrace
 10
349.55030054635517
 20
151.15524158752351
 30
0
 11
350.38363387968872
 21
151.15524158752351
 31
0
 12
349.9669672130218
 22
153.65524158752351
 32
0
 13
349.9669672130218
 23
153.65524158752351
 33
0
  0
MTEXT
  5
BB
330
B3
100
AcDbEntity
  8
0
 62
0
370
0
100
AcDbMText
 10
347.59196721302192
 20
172.53024158752351
 30
0
 11
1E-16
 21
1
 31
0
 40
3
 41
0
 46
0
 71
5
 72
1
  1
18,42 [0,725]
  7
Standard
 73
1
 90
0
1001
ACAD
1000
MTEXTBEGIN
1070
73
1070
1
1070
44
1040
1
1070
74
1070
0
1000
MTEXTEND
  0
POINT
  5
BC
330
B3
100
AcDbEntity
  8
Defpoints
 62
0
370
0
100
AcDbPoint
 10
287.22428803243361
 20
135.24024158752351
 30
0
 50
0
  0
POINT
  5
BD
330
B3
100
AcDbEntity
  8
Defpoints
 62
0
370
0
100
AcDbPoint
 10
287.06410735048109
 20
153.65524158752351
 30
0
 50
0
  0
POINT
  5
BE
330
B3
100
AcDbEntity
  8
Defpoints
 62
0
370
0
100
AcDbPoint
 10
349.9669672130218
 20
153.65524158752351
 30
0
 50
0
  0
ENDBLK
  5
BF
330
B3
100
AcDbEntity
  8
0
100
AcDbBlockEnd
  0
BLOCK
  5
C1
330
C0
100
AcDbEntity
  8
0
370
0
100
AcDbBlockBegin
  2
*D77777777
 70
1
 10
0
 20
0
 30
0
  3
*D77777777
  0
LINE
  5
C2
330
C0
100
AcDbEntity
  8
0
 62
0
370
-2
100
AcDbLine
 10
211.96410735048141
 20
246.6652415875235
 30
0
 11
211.96410735048141
 21
279.87072053818
 31
0
  0
LINE
  5
C3
330
C0
100
AcDbEntity
  8
0
 62
0
370
-2
100
AcDbLine
 10
186.43910735048129
 20
246.6652415875235
 30
0
 11
186.43910735048129
 21
279.87072053818
 31
0
  0
LINE
  5
C4
330
C0
100
AcDbEntity
  8
0
 62
0
370
-2
100
AcDbLine
 10
209.46410735048141
 20
278.62072053818
 30
0
 11
188.93910735048129
 21
278.62072053818
 31
0
  0
LINE
  5
C5
330
C0
100
AcDbEntity
  8
0
 62
0
370
-2
100
AcDbLine
 10
186.43910735048129
 20
278.62072053818
 30
0
 11
151.68910735048129
 21
278.62072053818
 31
0
  0
SOLID
  5
C6
330
C0
100
AcDbEntity
  8
0
 62
0
370
0
100
AcDbTrace
 10
209.46410735048141
 20
279.0373872048466
 30
0
 11
209.46410735048141
 21
278.20405387151328
 31
0
 12
211.96410735048141
 22
278.62072053818
 32
0
 13
211.96410735048141
 23
278.62072053818
 33
0
  0
SOLID
  5
C7
330
C0
100
AcDbEntity
  8
0
 62
0
370
0
100
AcDbTrace
 10
188.93910735048129
 20
279.0373872048466
 30
0
 11
188.93910735048129
 21
278.20405387151328
 31
0
 12
186.43910735048129
 22
278.62072053818
 32
0
 13
186.43910735048129
 23
278.62072053818
 33
0
  0
MTEXT
  5
C8
330
C0
100
AcDbEntity
  8
0
 62
0
370
0
100
AcDbMText
 10
167.81410735048129
 20
280.99572053818
 30
0
 11
1
 21
0
 31
0
 40
3
 41
0
 46
0
 71
5
 72
1
  1
25,53 [1,005]
  7
Standard
 73
1
 90
0
1001
ACAD
1000
MTEXTBEGIN
1070
73
1070
1
1070
44
1040
1
1070
74
1070
0
1000
MTEXTEND
  0
POINT
  5
C9
330
C0
100
AcDbEntity
  8
Defpoints
 62
0
370
0
100
AcDbPoint
 10
211.96410735048141
 20
246.0402415875235
 30
0
 50
0
  0
POINT
  5
CA
330
C0
100
AcDbEntity
  8
Defpoints
 62
0
370
0
100
AcDbPoint
 10
186.43910735048129
 20
246.0402415875235
 30
0
 50
0
  0
POINT
  5
CB
330
C0
100
AcDbEntity
  8
Defpoints
 62
0
370
0
100
AcDbPoint
 10
186.43910735048129
 20
278.62072053818
 30
0
 50
0
  0
ENDBLK
  5
CC
330
C0
100
AcDbEntity
  8
0
100
AcDbBlockEnd
  0
BLOCK
  5
CE
330
CD
100
AcDbEntity
  8
0
370
0
100
AcDbBlockBegin
  2
*D88888888
 70
1
 10
0
 20
0
 30
0
  3
*D88888888
  0
LINE
  5
CF
330
CD
100
AcDbEntity
  8
0
 62
0
370
-2
100
AcDbLine
 10
195.9641073504813
 20
213.34124158752351
 30
0
 11
195.9641073504813
 21
289.1207161389429
 31
0
  0
LINE
  5
D0
330
CD
100
AcDbEntity
  8
0
 62
0
370
-2
100
AcDbLine
 10
211.96410735048141
 20
258.12056586040092
 30
0
 11
211.96410735048141
 21
289.1207161389429
 31
0
  0
LINE
  5
D1
330
CD
100
AcDbEntity
  8
0
 62
0
370
-2
100
AcDbLine
 10
198.4641073504813
 20
287.870716138943
 30
0
 11
209.46410735048141
 21
287.870716138943
 31
0
  0
LINE
  5
D2
330
CD
100
AcDbEntity
  8
0
 62
0
370
-2
100
AcDbLine
 10
211.96410735048141
 20
287.870716138943
 30
0
 11
239.21410735048141
 21
287.870716138943
 31
0
  0
SOLID
  5
D3
330
CD
100
AcDbEntity
  8
0
 62
0
370
0
100
AcDbTrace
 10
198.4641073504813
 20
288.28738280560958
 30
0
 11
198.4641073504813
 21
287.45404947227632
 31
0
 12
195.9641073504813
 22
287.870716138943
 32
0
 13
195.9641073504813
 23
287.870716138943
 33
0
  0
SOLID
  5
D4
330
CD
100
AcDbEntity
  8
0
 62
0
370
0
100
AcDbTrace
 10
209.46410735048141
 20
288.28738280560958
 30
0
 11
209.46410735048141
 21
287.45404947227632
 31
0
 12
211.96410735048141
 22
287.870716138943
 32
0
 13
211.96410735048141
 23
287.870716138943
 33
0
  0
MTEXT
  5
D5
330
CD
100
AcDbEntity
  8
0
 62
0
370
0
100
AcDbMText
 10
226.83910735048141
 20
290.2457161389429
 30
0
 11
1
 21
0
 31
0
 40
3
 41
0
 46
0
 71
5
 72
1
  1
16 [0,630]
  7
Standard
 73
1
 90
0
1001
ACAD
1000
MTEXTBEGIN
1070
73
1070
1
1070
44
1040
1
1070
74
1070
0
1000
MTEXTEND
  0
POINT
  5
D6
330
CD
100
AcDbEntity
  8
Defpoints
 62
0
370
0
100
AcDbPoint
 10
195.9641073504813
 20
212.71624158752351
 30
0
 50
0
  0
POINT
  5
D7
330
CD
100
AcDbEntity
  8
Defpoints
 62
0
370
0
100
AcDbPoint
 10
211.96410735048141
 20
257.49556586040092
 30
0
 50
0
  0
POINT
  5
D8
330
CD
100
AcDbEntity
  8
Defpoints
 62
0
370
0
100
AcDbPoint
 10
211.96410735048141
 20
287.870716138943
 30
0
 50
0
  0
ENDBLK
  5
D9
330
CD
100
AcDbEntity
  8
0
100
AcDbBlockEnd
  0
BLOCK
  5
DB
330
DA
100
AcDbEntity
  8
0
370
0
100
AcDbBlockBegin
  2
*D99999999
 70
1
 10
0
 20
0
 30
0
  3
*D99999999
  0
LINE
  5
DC
330
DA
100
AcDbEntity
  8
0
 62
0
370
-2
100
AcDbLine
 10
195.9641073504813
 20
232.99417331003389
 30
0
 11
195.9641073504813
 21
269.1478427945313
 31
0
  0
LINE
  5
DD
330
DA
100
AcDbEntity
  8
0
 62
0
370
-2
100
AcDbLine
 10
186.43910735048129
 20
232.99417331003389
 30
0
 11
186.43910735048129
 21
269.1478427945313
 31
0
  0
LINE
  5
DE
330
DA
100
AcDbEntity
  8
0
 62
0
370
-2
100
AcDbLine
 10
193.4641073504813
 20
267.89784279453119
 30
0
 11
188.93910735048129
 21
267.89784279453119
 31
0
  0
LINE
  5
DF
330
DA
100
AcDbEntity
  8
0
 62
0
370
-2
100
AcDbLine
 10
186.43910735048129
 20
267.89784279453119
 30
0
 11
153.18910735048129
 21
267.89784279453119
 31
0
  0
SOLID
  5
E0
330
DA
100
AcDbEntity
  8
0
 62
0
370
0
100
AcDbTrace
 10
193.4641073504813
 20
268.31450946119787
 30
0
 11
193.4641073504813
 21
267.4811761278645
 31
0
 12
195.9641073504813
 22
267.89784279453119
 32
0
 13
195.9641073504813
 23
267.89784279453119
 33
0
  0
SOLID
  5
E1
330
DA
100
AcDbEntity
  8
0
 62
0
370
0
100
AcDbTrace
 10
188.93910735048129
 20
268.31450946119787
 30
0
 11
188.93910735048129
 21
267.4811761278645
 31
0
 12
186.43910735048129
 22
267.89784279453119
 32
0
 13
186.43910735048129
 23
267.89784279453119
 33
0
  0
MTEXT
  5
E2
330
DA
100
AcDbEntity
  8
0
 62
0
370
0
100
AcDbMText
 10
168.56410735048129
 20
270.27284279453119
 30
0
 11
1
 21
0
 31
0
 40
3
 41
0
 46
0
 71
5
 72
1
  1
9,53 [0,375]
  7
Standard
 73
1
 90
0
1001
ACAD
1000
MTEXTBEGIN
1070
73
1070
1
1070
44
1040
1
1070
74
1070
0
1000
MTEXTEND
  0
POINT
  5
E3
330
DA
100
AcDbEntity
  8
Defpoints
 62
0
370
0
100
AcDbPoint
 10
195.9641073504813
 20
232.36917331003389
 30
0
 50
0
  0
POINT
  5
E4
330
DA
100
AcDbEntity
  8
Defpoints
 62
0
370
0
100
AcDbPoint
 10
186.43910735048129
 20
232.36917331003389
 30
0
 50
0
  0
POINT
  5
E5
330
DA
100
AcDbEntity
  8
Defpoints
 62
0
370
0
100
AcDbPoint
 10
186.43910735048129
 20
267.89784279453119
 30
0
 50
0
  0
ENDBLK
  5
E6
330
DA
100
AcDbEntity
  8
0
100
AcDbBlockEnd
  0
BLOCK
  5
E8
330
E7
100
AcDbEntity
  8
0
370
0
100
AcDbBlockBegin
  2
*D1010101010101010
 70
1
 10
0
 20
0
 30
0
  3
*D1010101010101010
  0
LINE
  5
E9
330
E7
100
AcDbEntity
  8
0
 62
0
370
-2
100
AcDbLine
 10
302.93910735048121
 20
165.67837860942561
 30
0
 11
302.93910735048121
 21
284.09002850236789
 31
0
  0
LINE
  5
EA
330
E7
100
AcDbEntity
  8
0
 62
0
370
-2
100
AcDbLine
 10
287.06410735048109
 20
154.28024158752351
 30
0
 11
287.06410735048109
 21
284.09002850236789
 31
0
  0
LINE
  5
EB
330
E7
100
AcDbEntity
  8
0
 62
0
370
-2
100
AcDbLine
 10
300.43910735048121
 20
282.84002850236789
 30
0
 11
289.56410735048109
 21
282.84002850236789
 31
0
  0
LINE
  5
EC
330
E7
100
AcDbEntity
  8
0
 62
0
370
-2
100
AcDbLine
 10
287.06410735048109
 20
282.84002850236789
 30
0
 11
251.8141073504811
 21
282.84002850236789
 31
0
  0
SOLID
  5
ED
330
E7
100
AcDbEntity
  8
0
 62
0
370
0
100
AcDbTrace
 10
300.43910735048121
 20
283.25669516903457
 30
0
 11
300.43910735048121
 21
282.4233618357012
 31
0
 12
302.93910735048121
 22
282.84002850236789
 32
0
 13
302.93910735048121
 23
282.84002850236789
 33
0
  0
SOLID
  5
EE
330
E7
100
AcDbEntity
  8
0
 62
0
370
0
100
AcDbTrace
 10
289.56410735048109
 20
283.25669516903457
 30
0
 11
289.56410735048109
 21
282.4233618357012
 31
0
 12
287.06410735048109
 22
282.84002850236789
 32
0
 13
287.06410735048109
 23
282.84002850236789
 33
0
  0
MTEXT
  5
EF
330
E7
100
AcDbEntity
  8
0
 62
0
370
0
100
AcDbMText
 10
268.18910735048109
 20
285.21502850236789
 30
0
 11
1
 21
0
 31
0
 40
3
 41
0
 46
0
 71
5
 72
1
  1
15,88 [0,625]
  7
Standard
 73
1
 90
0
1001
ACAD
1000
MTEXTBEGIN
1070
73
1070
1
1070
44
1040
1
1070
74
1070
0
1000
MTEXTEND
  0
POINT
  5
F0
330
E7
100
AcDbEntity
  8
Defpoints
 62
0
370
0
100
AcDbPoint
 10
302.93910735048121
 20
165.05337860942549
 30
0
 50
0
  0
POINT
  5
F1
330
E7
100
AcDbEntity
  8
Defpoints
 62
0
370
0
100
AcDbPoint
 10
287.06410735048109
 20
153.65524158752351
 30
0
 50
0
  0
POINT
  5
F2
330
E7
100
AcDbEntity
  8
Defpoints
 62
0
370
0
100
AcDbPoint
 10
287.06410735048109
 20
282.84002850236789
 30
0
 50
0
  0
ENDBLK
  5
F3
330
E7
100
AcDbEntity
  8
0
100
AcDbBlockEnd
  0
BLOCK
  5
F5
330
F4
100
AcDbEntity
  8
0
370
0
100
AcDbBlockBegin
  2
*D1111111111111111
 70
1
 10
0
 20
0
 30
0
  3
*D1111111111111111
  0
LINE
  5
F6
330
F4
100
AcDbEntity
  8
0
 62
0
370
-2
100
AcDbLine
 10
287.06410735048109
 20
216.4627796130921
 30
0
 11
287.06410735048109
 21
273.31910012370088
 31
0
  0
LINE
  5
F7
330
F4
100
AcDbEntity
  8
0
 62
0
370
-2
100
AcDbLine
 10
273.93410735048121
 20
213.08275458559149
 30
0
 11
273.93410735048121
 21
273.31910012370088
 31
0
  0
LINE
  5
F8
330
F4
100
AcDbEntity
  8
0
 62
0
370
-2
100
AcDbLine
 10
284.56410735048109
 20
272.06910012370088
 30
0
 11
276.43410735048121
 21
272.06910012370088
 31
0
  0
LINE
  5
F9
330
F4
100
AcDbEntity
  8
0
 62
0
370
-2
100
AcDbLine
 10
273.93410735048121
 20
272.06910012370088
 30
0
 11
240.68410735048121
 21
272.06910012370088
 31
0
  0
SOLID
  5
FA
330
F4
100
AcDbEntity
  8
0
 62
0
370
0
100
AcDbTrace
 10
284.56410735048109
 20
272.48576679036762
 30
0
 11
284.56410735048109
 21
271.65243345703419
 31
0
 12
287.06410735048109
 22
272.06910012370088
 32
0
 13
287.06410735048109
 23
272.06910012370088
 33
0
  0
SOLID
  5
FB
330
F4
100
AcDbEntity
  8
0
 62
0
370
0
100
AcDbTrace
 10
276.43410735048121
 20
272.48576679036762
 30
0
 11
276.43410735048121
 21
271.65243345703419
 31
0
 12
273.93410735048121
 22
272.06910012370088
 32
0
 13
273.93410735048121
 23
272.06910012370088
 33
0
  0
MTEXT
  5
FC
330
F4
100
AcDbEntity
  8
0
 62
0
370
0
100
AcDbMText
 10
256.05910735048121
 20
274.44410012370088
 30
0
 11
1
 21
0
 31
0
 40
3
 41
0
 46
0
 71
5
 72
1
  1
13,13 [0,517]
  7
Standard
 73
1
 90
0
1001
ACAD
1000
MTEXTBEGIN
1070
73
1070
1
1070
44
1040
1
1070
74
1070
0
1000
MTEXTEND
  0
POINT
  5
FD
330
F4
100
AcDbEntity
  8
Defpoints
 62
0
370
0
100
AcDbPoint
 10
287.06410735048109
 20
215.837779613092
 30
0
 50
0
  0
POINT
  5
FE
330
F4
100
AcDbEntity
  8
Defpoints
 62
0
370
0
100
AcDbPoint
 10
273.93410735048121
 20
212.45775458559149
 30
0
 50
0
  0
POINT
  5
FF
330
F4
100
AcDbEntity
  8
Defpoints
 62
0
370
0
100
AcDbPoint
 10
273.93410735048121
 20
272.06910012370088
 30
0
 50
0
  0
ENDBLK
  5
100
330
F4
100
AcDbEntity
  8
0
100
AcDbBlockEnd
  0
BLOCK
  5
102
330
101
100
AcDbEntity
  8
0
370
0
100
AcDbBlockBegin
  2
*D1212121212121212
 70
1
 10
0
 20
0
 30
0
  3
*D1212121212121212
  0
LINE
  5
103
330
101
100
AcDbEntity
  8
0
 62
0
370
-2
100
AcDbLine
 10
282.49210735048138
 20
230.48024158752361
 30
0
 11
282.49210735048138
 21
307.16794519272491
 31
0
  0
LINE
  5
104
330
101
100
AcDbEntity
  8
0
 62
0
370
-2
100
AcDbLine
 10
291.63610735048132
 20
230.48024158752361
 30
0
 11
291.63610735048132
 21
307.16794519272491
 31
0
  0
LINE
  5
105
330
101
100
AcDbEntity
  8
0
 62
0
370
-2
100
AcDbLine
 10
284.99210735048138
 20
305.91794519272491
 30
0
 11
289.13610735048132
 21
305.91794519272491
 31
0
  0
LINE
  5
106
330
101
100
AcDbEntity
  8
0
 62
0
370
-2
100
AcDbLine
 10
291.63610735048132
 20
305.91794519272491
 30
0
 11
323.38610735048121
 21
305.91794519272491
 31
0
  0
SOLID
  5
107
330
101
100
AcDbEntity
  8
0
 62
0
370
0
100
AcDbTrace
 10
284.99210735048138
 20
306.33461185939171
 30
0
 11
284.99210735048138
 21
305.50127852605817
 31
0
 12
282.49210735048138
 22
305.91794519272491
 32
0
 13
282.49210735048138
 23
305.91794519272491
 33
0
  0
SOLID
  5
108
330
101
100
AcDbEntity
  8
0
 62
0
370
0
100
AcDbTrace
 10
289.13610735048132
 20
306.33461185939171
 30
0
 11
289.13610735048132
 21
305.50127852605817
 31
0
 12
291.63610735048132
 22
305.91794519272491
 32
0
 13
291.63610735048132
 23
305.91794519272491
 33
0
  0
MTEXT
  5
109
330
101
100
AcDbEntity
  8
0
 62
0
370
0
100
AcDbMText
 10
308.76110735048132
 20
308.2929451927248
 30
0
 11
1
 21
0
 31
0
 40
3
 41
0
 46
0
 71
5
 72
1
  1
9,14 [0,360]
  7
Standard
 73
1
 90
0
1001
ACAD
1000
MTEXTBEGIN
1070
73
1070
1
1070
44
1040
1
1070
74
1070
0
1000
MTEXTEND
  0
POINT
  5
10A
330
101
100
AcDbEntity
  8
Defpoints
 62
0
370
0
100
AcDbPoint
 10
282.49210735048138
 20
229.85524158752349
 30
0
 50
0
  0
POINT
  5
10B
330
101
100
AcDbEntity
  8
Defpoints
 62
0
370
0
100
AcDbPoint
 10
291.63610735048132
 20
229.85524158752361
 30
0
 50
0
  0
POINT
  5
10C
330
101
100
AcDbEntity
  8
Defpoints
 62
0
370
0
100
AcDbPoint
 10
291.63610735048132
 20
305.91794519272491
 30
0
 50
0
  0
ENDBLK
  5
10D
330
101
100
AcDbEntity
  8
0
100
AcDbBlockEnd
  0
BLOCK
  5
10F
330
10E
100
AcDbEntity
  8
0
370
0
100
AcDbBlockBegin
  2
*D1313131313131313
 70
1
 10
0
 20
0
 30
0
  3
*D1313131313131313
  0
LINE
  5
110
330
10E
100
AcDbEntity
  8
0
 62
0
370
-2
100
AcDbLine
 10
134.19930965639651
 20
249.7432722124733
 30
0
 11
204.7098272565855
 21
246.3856783679976
 31
0
  0
LINE
  5
111
330
10E
100
AcDbEntity
  8
0
 62
0
370
-2
100
AcDbLine
 10
219.2183874443775
 20
245.69480480704951
 30
0
 11
221.71555787256889
 21
245.57589369501019
 31
0
  0
MTEXT
  5
112
330
10E
100
AcDbEntity
  8
0
 62
0
370
0
100
AcDbMText
 10
152.66647786004049
 20
251.24158744576661
 30
0
 11
0.99886817127655736
 21
-0.0475644448157036
 31
0
 40
3
 41
0
 46
0
 71
5
 72
1
  1
∅9,53 [∅0,375]
  7
Standard
 73
1
 90
0
1001
ACAD
1000
MTEXTBEGIN
1070
73
1070
1
1070
44
1040
1
1070
74
1070
0
1000
MTEXTEND
  0
LINE
  5
113
330
10E
100
AcDbEntity
  8
0
 62
0
370
-2
100
AcDbLine
 10
216.7212170161861
 20
245.81371591908871
 30
0
 11
207.20699768477689
 21
246.26676725595831
 31
0
  0
SOLID
  5
114
330
10E
100
AcDbEntity
  8
0
 62
0
370
0
100
AcDbTrace
 10
219.23820596305069
 20
246.1109998784147
 30
0
 11
219.19856892570419
 21
245.27860973568431
 31
0
 12
216.7212170161861
 22
245.81371591908871
 32
0
 13
216.7212170161861
 23
245.81371591908871
 33
0
  0
SOLID
  5
115
330
10E
100
AcDbEntity
  8
0
 62
0
370
0
100
AcDbTrace
 10
204.72964577525869
 20
246.80187343936279
 30
0
 11
204.69000873791219
 21
245.9694832966324
 31
0
 12
207.20699768477689
 22
246.26676725595831
 32
0
 13
207.20699768477689
 23
246.26676725595831
 33
0
  0
POINT
  5
116
330
10E
100
AcDbEntity
  8
Defpoints
 62
0
370
0
100
AcDbPoint
 10
207.20699768477689
 20
246.26676725595831
 30
0
 50
0
  0
POINT
  5
117
330
10E
100
AcDbEntity
  8
Defpoints
 62
0
370
0
100
AcDbPoint
 10
216.7212170161861
 20
245.81371591908871
 30
0
 50
0
  0
ENDBLK
  5
118
330
10E
100
AcDbEntity
  8
0
100
AcDbBlockEnd
  0
BLOCK
  5
11A
330
119
100
AcDbEntity
  8
0
370
0
100
AcDbBlockBegin
  2
*D1414141414141414
 70
1
 10
0
 20
0
 30
0
  3
*D1414141414141414
  0
LINE
  5
11B
330
119
100
AcDbEntity
  8
0
 62
0
370
-2
100
AcDbLine
 10
226.4722227733098
 20
262.24024158752349
 30
0
 11
115.6870190228029
 21
262.24024158752349
 31
0
  0
LINE
  5
11C
330
119
100
AcDbEntity
  8
0
 62
0
370
-2
100
AcDbLine
 10
211.3391073504815
 20
246.0402415875235
 30
0
 11
115.6870190228029
 21
246.04024158752361
 31
0
  0
LINE
  5
11D
330
119
100
AcDbEntity
  8
0
 62
0
370
-2
100
AcDbLine
 10
116.9370190228029
 20
259.74024158752349
 30
0
 11
116.9370190228029
 21
248.54024158752361
 31
0
  0
LINE
  5
11E
330
119
100
AcDbEntity
  8
0
 62
0
370
-2
100
AcDbLine
 10
116.9370190228029
 20
246.04024158752361
 30
0
 11
116.9370190228029
 21
213.7902415875235
 31
0
  0
SOLID
  5
11F
330
119
100
AcDbEntity
  8
0
 62
0
370
0
100
AcDbTrace
 10
116.5203523561362
 20
259.74024158752349
 30
0
 11
117.3536856894696
 21
259.74024158752349
 31
0
 12
116.9370190228029
 22
262.24024158752349
 32
0
 13
116.9370190228029
 23
262.24024158752349
 33
0
  0
SOLID
  5
120
330
119
100
AcDbEntity
  8
0
 62
0
370
0
100
AcDbTrace
 10
116.5203523561362
 20
248.54024158752361
 30
0
 11
117.3536856894696
 21
248.54024158752361
 31
0
 12
116.9370190228029
 22
246.04024158752361
 32
0
 13
116.9370190228029
 23
246.04024158752361
 33
0
  0
MTEXT
  5
121
330
119
100
AcDbEntity
  8
0
 62
0
370
0
100
AcDbMText
 10
114.5620190228029
 20
228.66524158752361
 30
0
 11
1E-16
 21
1
 31
0
 40
3
 41
0
 46
0
 71
5
 72
1
  1
16,2 [0,638]
  7
Standard
 73
1
 90
0
1001
ACAD
1000
MTEXTBEGIN
1070
73
1070
1
1070
44
1040
1
1070
74
1070
0
1000
MTEXTEND
  0
POINT
  5
122
330
119
100
AcDbEntity
  8
Defpoints
 62
0
370
0
100
AcDbPoint
 10
227.0972227733098
 20
262.24024158752349
 30
0
 50
0
  0
POINT
  5
123
330
119
100
AcDbEntity
  8
Defpoints
 62
0
370
0
100
AcDbPoint
 10
211.9641073504815
 20
246.0402415875235
 30
0
 50
0
  0
POINT
  5
124
330
119
100
AcDbEntity
  8
Defpoints
 62
0
370
0
100
AcDbPoint
 10
116.9370190228029
 20
246.04024158752361
 30
0
 50
0
  0
ENDBLK
  5
125
330
119
100
AcDbEntity
  8
0
100
AcDbBlockEnd
  0
BLOCK
  5
127
330
126
100
AcDbEntity
  8
0
370
0
100
AcDbBlockBegin
  2
*D1515151515151515
 70
1
 10
0
 20
0
 30
0
  3
*D1515151515151515
  0
LINE
  5
128
330
126
100
AcDbEntity
  8
0
 62
0
370
-2
100
AcDbLine
 10
166.52811391106269
 20
246.0402415875235
 30
0
 11
125.49095896584061
 21
246.0402415875235
 31
0
  0
LINE
  5
129
330
126
100
AcDbEntity
  8
0
 62
0
370
-2
100
AcDbLine
 10
195.3391073504813
 20
212.71624158752351
 30
0
 11
125.49095896584061
 21
212.71624158752351
 31
0
  0
LINE
  5
12A
330
126
100
AcDbEntity
  8
0
 62
0
370
-2
100
AcDbLine
 10
126.74095896584061
 20
243.5402415875235
 30
0
 11
126.74095896584061
 21
215.21624158752351
 31
0
  0
SOLID
  5
12B
330
126
100
AcDbEntity
  8
0
 62
0
370
0
100
AcDbTrace
 10
126.32429229917391
 20
243.5402415875235
 30
0
 11
127.15762563250731
 21
243.5402415875235
 31
0
 12
126.74095896584061
 22
246.0402415875235
 32
0
 13
126.74095896584061
 23
246.0402415875235
 33
0
  0
SOLID
  5
12C
330
126
100
AcDbEntity
  8
0
 62
0
370
0
100
AcDbTrace
 10
126.32429229917391
 20
215.21624158752351
 30
0
 11
127.15762563250721
 21
215.21624158752351
 31
0
 12
126.74095896584061
 22
212.71624158752351
 32
0
 13
126.74095896584061
 23
212.71624158752351
 33
0
  0
MTEXT
  5
12D
330
126
100
AcDbEntity
  8
0
 62
0
370
0
100
AcDbMText
 10
124.36595896584051
 20
229.3782415875236
 30
0
 11
1E-16
 21
1
 31
0
 40
3
 41
0
 46
0
 71
5
 72
1
  1
33,32 [1,312]
  7
Standard
 73
1
 90
0
1001
ACAD
1000
MTEXTBEGIN
1070
73
1070
1
1070
44
1040
1
1070
74
1070
0
1000
MTEXTEND
  0
POINT
  5
12E
330
126
100
AcDbEntity
  8
Defpoints
 62
0
370
0
100
AcDbPoint
 10
167.15311391106269
 20
246.0402415875235
 30
0
 50
0
  0
POINT
  5
12F
330
126
100
AcDbEntity
  8
Defpoints
 62
0
370
0
100
AcDbPoint
 10
195.9641073504813
 20
212.71624158752351
 30
0
 50
0
  0
POINT
  5
130
330
126
100
AcDbEntity
  8
Defpoints
 62
0
370
0
100
AcDbPoint
 10
126.74095896584061
 20
212.71624158752351
 30
0
 50
0
  0
ENDBLK
  5
131
330
126
100
AcDbEntity
  8
0
100
AcDbBlockEnd
  0
BLOCK
  5
133
330
132
100
AcDbEntity
  8
0
370
0
100
AcDbBlockBegin
  2
*D1616161616161616
 70
1
 10
0
 20
0
 30
0
  3
*D1616161616161616
  0
LINE
  5
134
330
132
100
AcDbEntity
  8
0
 62
0
370
-2
100
AcDbLine
 10
242.83126806440339
 20
227.3152415875235
 30
0
 11
157.8086741330286
 21
227.3152415875235
 31
0
  0
LINE
  5
135
330
132
100
AcDbEntity
  8
0
 62
0
370
-2
100
AcDbLine
 10
242.83126806440339
 20
170.1652415875235
 30
0
 11
157.8086741330286
 21
170.1652415875235
 31
0
  0
LINE
  5
136
330
132
100
AcDbEntity
  8
0
 62
0
370
-2
100
AcDbLine
 10
159.05867413302869
 20
224.8152415875235
 30
0
 11
159.05867413302869
 21
172.66524158752361
 31
0
  0
SOLID
  5
137
330
132
100
AcDbEntity
  8
0
 62
0
370
0
100
AcDbTrace
 10
158.64200746636209
 20
224.8152415875235
 30
0
 11
159.4753407996954
 21
224.8152415875235
 31
0
 12
159.05867413302869
 22
227.3152415875235
 32
0
 13
159.05867413302869
 23
227.3152415875235
 33
0
  0
SOLID
  5
138
330
132
100
AcDbEntity
  8
0
 62
0
370
0
100
AcDbTrace
 10
158.642007466362
 20
172.66524158752361
 30
0
 11
159.4753407996954
 21
172.66524158752361
 31
0
 12
159.05867413302869
 22
170.1652415875235
 32
0
 13
159.05867413302869
 23
170.1652415875235
 33
0
  0
MTEXT
  5
139
330
132
100
AcDbEntity
  8
0
 62
0
370
0
100
AcDbMText
 10
156.68367413302869
 20
198.74024158752351
 30
0
 11
1E-16
 21
1
 31
0
 40
3
 41
0
 46
0
 71
5
 72
1
  1
57,15 [2,250]
  7
Standard
 73
1
 90
0
1001
ACAD
1000
MTEXTBEGIN
1070
73
1070
1
1070
44
1040
1
1070
74
1070
0
1000
MTEXTEND
  0
POINT
  5
13A
330
132
100
AcDbEntity
  8
Defpoints
 62
0
370
0
100
AcDbPoint
 10
243.45626806440339
 20
227.3152415875235
 30
0
 50
0
  0
POINT
  5
13B
330
132
100
AcDbEntity
  8
Defpoints
 62
0
370
0
100
AcDbPoint
 10
243.45626806440339
 20
170.1652415875235
 30
0
 50
0
  0
POINT
  5
13C
330
132
100
AcDbEntity
  8
Defpoints
 62
0
370
0
100
AcDbPoint
 10
159.05867413302869
 20
170.1652415875235
 30
0
 50
0
  0
ENDBLK
  5
13D
330
132
100
AcDbEntity
  8
0
100
AcDbBlockEnd
  0
BLOCK
  5
13F
330
13E
100
AcDbEntity
  8
0
370
0
100
AcDbBlockBegin
  2
*D1717171717171717
 70
1
 10
0
 20
0
 30
0
  3
*D1717171717171717
  0
LINE
  5
140
330
13E
100
AcDbEntity
  8
0
 62
0
370
-2
100
AcDbLine
 10
287.68910735048109
 20
262.24024158752349
 30
0
 11
339.99989582796
 21
262.24024158752349
 31
0
  0
LINE
  5
141
330
13E
100
AcDbEntity
  8
0
 62
0
370
-2
100
AcDbLine
 10
287.68910735048121
 20
248.90524158752351
 30
0
 11
339.99989582796
 21
248.90524158752351
 31
0
  0
LINE
  5
142
330
13E
100
AcDbEntity
  8
0
 62
0
370
-2
100
AcDbLine
 10
338.74989582796
 20
259.74024158752349
 30
0
 11
338.74989582796
 21
251.40524158752351
 31
0
  0
LINE
  5
143
330
13E
100
AcDbEntity
  8
0
 62
0
370
-2
100
AcDbLine
 10
338.74989582796
 20
248.90524158752351
 30
0
 11
338.74989582796
 21
213.65524158752351
 31
0
  0
SOLID
  5
144
330
13E
100
AcDbEntity
  8
0
 62
0
370
0
100
AcDbTrace
 10
338.33322916129339
 20
259.74024158752349
 30
0
 11
339.1665624946267
 21
259.74024158752349
 31
0
 12
338.74989582796
 22
262.24024158752349
 32
0
 13
338.74989582796
 23
262.24024158752349
 33
0
  0
SOLID
  5
145
330
13E
100
AcDbEntity
  8
0
 62
0
370
0
100
AcDbTrace
 10
338.33322916129339
 20
251.40524158752351
 30
0
 11
339.1665624946267
 21
251.40524158752351
 31
0
 12
338.74989582796
 22
248.90524158752351
 32
0
 13
338.74989582796
 23
248.90524158752351
 33
0
  0
MTEXT
  5
146
330
13E
100
AcDbEntity
  8
0
 62
0
370
0
100
AcDbMText
 10
336.37489582796
 20
230.03024158752351
 30
0
 11
1E-16
 21
1
 31
0
 40
3
 41
0
 46
0
 71
5
 72
1
  1
13,34 [0,525]
  7
Standard
 73
1
 90
0
1001
ACAD
1000
MTEXTBEGIN
1070
73
1070
1
1070
44
1040
1
1070
74
1070
0
1000
MTEXTEND
  0
POINT
  5
147
330
13E
100
AcDbEntity
  8
Defpoints
 62
0
370
0
100
AcDbPoint
 10
287.06410735048109
 20
262.24024158752349
 30
0
 50
0
  0
POINT
  5
148
330
13E
100
AcDbEntity
  8
Defpoints
 62
0
370
0
100
AcDbPoint
 10
287.06410735048121
 20
248.90524158752351
 30
0
 50
0
  0
POINT
  5
149
330
13E
100
AcDbEntity
  8
Defpoints
 62
0
370
0
100
AcDbPoint
 10
338.74989582796
 20
248.90524158752351
 30
0
 50
0
  0
ENDBLK
  5
14A
330
13E
100
AcDbEntity
  8
0
100
AcDbBlockEnd
  0
BLOCK
  5
14C
330
14B
100
AcDbEntity
  8
0
370
0
100
AcDbBlockBegin
  2
*D1818181818181818
 70
1
 10
0
 20
0
 30
0
  3
*D1818181818181818
  0
LINE
  5
14D
330
14B
100
AcDbEntity
  8
0
 62
0
370
-2
100
AcDbLine
 10
316.89947128240169
 20
248.90524158752351
 30
0
 11
357.94669052474529
 21
248.90524158752351
 31
0
  0
LINE
  5
14E
330
14B
100
AcDbEntity
  8
0
 62
0
370
-2
100
AcDbLine
 10
287.68910735048121
 20
210.80524158752351
 30
0
 11
357.94669052474529
 21
210.80524158752351
 31
0
  0
LINE
  5
14F
330
14B
100
AcDbEntity
  8
0
 62
0
370
-2
100
AcDbLine
 10
356.69669052474518
 20
246.40524158752339
 30
0
 11
356.69669052474518
 21
213.30524158752351
 31
0
  0
SOLID
  5
150
330
14B
100
AcDbEntity
  8
0
 62
0
370
0
100
AcDbTrace
 10
356.28002385807849
 20
246.40524158752339
 30
0
 11
357.11335719141192
 21
246.40524158752339
 31
0
 12
356.69669052474518
 22
248.90524158752351
 32
0
 13
356.69669052474518
 23
248.90524158752351
 33
0
  0
SOLID
  5
151
330
14B
100
AcDbEntity
  8
0
 62
0
370
0
100
AcDbTrace
 10
356.28002385807849
 20
213.30524158752351
 30
0
 11
357.11335719141192
 21
213.30524158752351
 31
0
 12
356.69669052474518
 22
210.80524158752351
 32
0
 13
356.69669052474518
 23
210.80524158752351
 33
0
  0
MTEXT
  5
152
330
14B
100
AcDbEntity
  8
0
 62
0
370
0
100
AcDbMText
 10
354.32169052474518
 20
229.85524158752349
 30
0
 11
1E-16
 21
1
 31
0
 40
3
 41
0
 46
0
 71
5
 72
1
  1
38,1 [1,500]
  7
Standard
 73
1
 90
0
1001
ACAD
1000
MTEXTBEGIN
1070
73
1070
1
1070
44
1040
1
1070
74
1070
0
1000
MTEXTEND
  0
POINT
  5
153
330
14B
100
AcDbEntity
  8
Defpoints
 62
0
370
0
100
AcDbPoint
 10
316.27447128240169
 20
248.90524158752351
 30
0
 50
0
  0
POINT
  5
154
330
14B
100
AcDbEntity
  8
Defpoints
 62
0
370
0
100
AcDbPoint
 10
287.06410735048121
 20
210.80524158752351
 30
0
 50
0
  0
POINT
  5
155
330
14B
100
AcDbEntity
  8
Defpoints
 62
0
370
0
100
AcDbPoint
 10
356.69669052474518
 20
210.80524158752351
 30
0
 50
0
  0
ENDBLK
  5
156
330
14B
100
AcDbEntity
  8
0
100
AcDbBlockEnd
  0
BLOCK
  5
158
330
157
100
AcDbEntity
  8
0
370
0
100
AcDbBlockBegin
  2
*D1919191919191919
 70
1
 10
0
 20
0
 30
0
  3
*D1919191919191919
  0
LINE
  5
159
330
157
100
AcDbEntity
  8
0
 62
0
370
-2
100
AcDbLine
 10
316.90445433231122
 20
210.80524158752351
 30
0
 11
351.9159059680731
 21
210.80524158752351
 31
0
  0
LINE
  5
15A
330
157
100
AcDbEntity
  8
0
 62
0
370
-2
100
AcDbLine
 10
287.68910735048109
 20
153.65524158752351
 30
0
 11
351.9159059680731
 21
153.65524158752351
 31
0
  0
LINE
  5
15B
330
157
100
AcDbEntity
  8
0
 62
0
370
-2
100
AcDbLine
 10
350.665905968073
 20
208.30524158752351
 30
0
 11
350.665905968073
 21
156.15524158752351
 31
0
  0
SOLID
  5
15C
330
157
100
AcDbEntity
  8
0
 62
0
370
0
100
AcDbTrace
 10
350.24923930140642
 20
208.30524158752351
 30
0
 11
351.08257263473968
 21
208.30524158752351
 31
0
 12
350.665905968073
 22
210.80524158752351
 32
0
 13
350.665905968073
 23
210.80524158752351
 33
0
  0
SOLID
  5
15D
330
157
100
AcDbEntity
  8
0
 62
0
370
0
100
AcDbTrace
 10
350.24923930140642
 20
156.15524158752351
 30
0
 11
351.08257263473968
 21
156.15524158752351
 31
0
 12
350.665905968073
 22
153.65524158752351
 32
0
 13
350.665905968073
 23
153.65524158752351
 33
0
  0
MTEXT
  5
15E
330
157
100
AcDbEntity
  8
0
 62
0
370
0
100
AcDbMText
 10
348.290905968073
 20
182.23024158752361
 30
0
 11
1E-16
 21
1
 31
0
 40
3
 41
0
 46
0
 71
5
 72
1
  1
57,15 [2,250]
  7
Standard
 73
1
 90
0
1001
ACAD
1000
MTEXTBEGIN
1070
73
1070
1
1070
44
1040
1
1070
74
1070
0
1000
MTEXTEND
  0
POINT
  5
15F
330
157
100
AcDbEntity
  8
Defpoints
 62
0
370
0
100
AcDbPoint
 10
316.27945433231122
 20
210.80524158752351
 30
0
 50
0
  0
POINT
  5
160
330
157
100
AcDbEntity
  8
Defpoints
 62
0
370
0
100
AcDbPoint
 10
287.06410735048109
 20
153.65524158752351
 30
0
 50
0
  0
POINT
  5
161
330
157
100
AcDbEntity
  8
Defpoints
 62
0
370
0
100
AcDbPoint
 10
350.665905968073
 20
153.65524158752351
 30
0
 50
0
  0
ENDBLK
  5
162
330
157
100
AcDbEntity
  8
0
100
AcDbBlockEnd
  0
BLOCK
  5
164
330
163
100
AcDbEntity
  8
0
370
0
100
AcDbBlockBegin
  2
*D2020202020202020
 70
1
 10
0
 20
0
 30
0
  3
*D2020202020202020
  0
LINE
  5
165
330
163
100
AcDbEntity
  8
0
 62
0
370
-2
100
AcDbLine
 10
292.24874859360449
 20
135.24024158752351
 30
0
 11
342.18550190879751
 21
135.24024158752351
 31
0
  0
LINE
  5
166
330
163
100
AcDbEntity
  8
0
 62
0
370
-2
100
AcDbLine
 10
299.1255584950859
 20
153.65524158752351
 30
0
 11
342.18550190879751
 21
153.65524158752351
 31
0
  0
LINE
  5
167
330
163
100
AcDbEntity
  8
0
 62
0
370
-2
100
AcDbLine
 10
340.93550190879751
 20
137.74024158752351
 30
0
 11
340.93550190879751
 21
151.15524158752351
 31
0
  0
LINE
  5
168
330
163
100
AcDbEntity
  8
0
 62
0
370
-2
100
AcDbLine
 10
340.93550190879751
 20
153.65524158752351
 30
0
 11
340.93550190879751
 21
188.90524158752351
 31
0
  0
SOLID
  5
169
330
163
100
AcDbEntity
  8
0
 62
0
370
0
100
AcDbTrace
 10
340.51883524213082
 20
137.74024158752351
 30
0
 11
341.35216857546419
 21
137.74024158752351
 31
0
 12
340.93550190879751
 22
135.24024158752351
 32
0
 13
340.93550190879751
 23
135.24024158752351
 33
0
  0
SOLID
  5
16A
330
163
100
AcDbEntity
  8
0
 62
0
370
0
100
AcDbTrace
 10
340.51883524213082
 20
151.15524158752351
 30
0
 11
341.35216857546419
 21
151.15524158752351
 31
0
 12
340.93550190879751
 22
153.65524158752351
 32
0
 13
340.93550190879751
 23
153.65524158752351
 33
0
  0
MTEXT
  5
16B
330
163
100
AcDbEntity
  8
0
 62
0
370
0
100
AcDbMText
 10
338.56050190879751
 20
172.53024158752351
 30
0
 11
1E-16
 21
1
 31
0
 40
3
 41
0
 46
0
 71
5
 72
1
  1
18,42 [0,725]
  7
Standard
 73
1
 90
0
1001
ACAD
1000
MTEXTBEGIN
1070
73
1070
1
1070
44
1040
1
1070
74
1070
0
1000
MTEXTEND
  0
POINT
  5
16C
330
163
100
AcDbEntity
  8
Defpoints
 62
0
370
0
100
AcDbPoint
 10
291.62374859360438
 20
135.24024158752351
 30
0
 50
0
  0
POINT
  5
16D
330
163
100
AcDbEntity
  8
Defpoints
 62
0
370
0
100
AcDbPoint
 10
298.50055849508578
 20
153.65524158752351
 30
0
 50
0
  0
POINT
  5
16E
330
163
100
AcDbEntity
  8
Defpoints
 62
0
370
0
100
AcDbPoint
 10
340.93550190879751
 20
153.65524158752351
 30
0
 50
0
  0
ENDBLK
  5
16F
330
163
100
AcDbEntity
  8
0
100
AcDbBlockEnd
  0
BLOCK
  5
171
330
170
100
AcDbEntity
  8
0
370
0
100
AcDbBlockBegin
  2
*D2121212121212121
 70
1
 10
0
 20
0
 30
0
  3
*D2121212121212121
  0
LINE
  5
172
330
170
100
AcDbEntity
  8
0
 62
0
370
-2
100
AcDbLine
 10
287.68910735048109
 20
153.65524158752351
 30
0
 11
324.04661501198461
 21
153.65524158752351
 31
0
  0
LINE
  5
173
330
170
100
AcDbEntity
  8
0
 62
0
370
-2
100
AcDbLine
 10
287.68910735048109
 20
135.24024158752351
 30
0
 11
324.04661501198461
 21
135.2402415875234
 31
0
  0
LINE
  5
174
330
170
100
AcDbEntity
  8
0
 62
0
370
-2
100
AcDbLine
 10
322.79661501198461
 20
151.15524158752339
 30
0
 11
322.79661501198461
 21
137.7402415875234
 31
0
  0
LINE
  5
175
330
170
100
AcDbEntity
  8
0
 62
0
370
-2
100
AcDbLine
 10
322.79661501198461
 20
135.2402415875234
 30
0
 11
322.79661501198461
 21
99.990241587523485
 31
0
  0
SOLID
  5
176
330
170
100
AcDbEntity
  8
0
 62
0
370
0
100
AcDbTrace
 10
322.37994834531793
 20
151.15524158752339
 30
0
 11
323.2132816786513
 21
151.15524158752339
 31
0
 12
322.79661501198461
 22
153.65524158752351
 32
0
 13
322.79661501198461
 23
153.65524158752351
 33
0
  0
SOLID
  5
177
330
170
100
AcDbEntity
  8
0
 62
0
370
0
100
AcDbTrace
 10
322.37994834531793
 20
137.7402415875234
 30
0
 11
323.2132816786513
 21
137.7402415875234
 31
0
 12
322.79661501198461
 22
135.2402415875234
 32
0
 13
322.79661501198461
 23
135.2402415875234
 33
0
  0
MTEXT
  5
178
330
170
100
AcDbEntity
  8
0
 62
0
370
0
100
AcDbMText
 10
320.42161501198461
 20
116.3652415875235
 30
0
 11
1E-16
 21
1
 31
0
 40
3
 41
0
 46
0
 71
5
 72
1
  1
18,42 [0,725]
  7
Standard
 73
1
 90
0
1001
ACAD
1000
MTEXTBEGIN
1070
73
1070
1
1070
44
1040
1
1070
74
1070
0
1000
MTEXTEND
  0
POINT
  5
179
330
170
100
AcDbEntity
  8
Defpoints
 62
0
370
0
100
AcDbPoint
 10
287.06410735048109
 20
153.65524158752351
 30
0
 50
0
  0
POINT
  5
17A
330
170
100
AcDbEntity
  8
Defpoints
 62
0
370
0
100
AcDbPoint
 10
287.06410735048109
 20
135.24024158752351
 30
0
 50
0
  0
POINT
  5
17B
330
170
100
AcDbEntity
  8
Defpoints
 62
0
370
0
100
AcDbPoint
 10
322.79661501198461
 20
135.2402415875234
 30
0
 50
0
  0
ENDBLK
  5
17C
330
170
100
AcDbEntity
  8
0
100
AcDbBlockEnd
  0
BLOCK
  5
17E
330
17D
100
AcDbEntity
  8
0
370
0
100
AcDbBlockBegin
  2
*D2222222222222222
 70
1
 10
0
 20
0
 30
0
  3
*D2222222222222222
  0
LINE
  5
17F
330
17D
100
AcDbEntity
  8
0
 62
0
370
-2
100
AcDbLine
 10
287.68910735048109
 20
153.65524158752351
 30
0
 11
334.00630668449821
 21
153.65524158752351
 31
0
  0
LINE
  5
180
330
17D
100
AcDbEntity
  8
0
 62
0
370
-2
100
AcDbLine
 10
253.3824940898065
 20
170.1652415875235
 30
0
 11
334.00630668449821
 21
170.16524158752341
 31
0
  0
LINE
  5
181
330
17D
100
AcDbEntity
  8
0
 62
0
370
-2
100
AcDbLine
 10
332.75630668449821
 20
156.15524158752339
 30
0
 11
332.75630668449821
 21
167.66524158752341
 31
0
  0
LINE
  5
182
330
17D
100
AcDbEntity
  8
0
 62
0
370
-2
100
AcDbLine
 10
332.75630668449821
 20
170.16524158752341
 30
0
 11
332.75630668449821
 21
203.9152415875235
 31
0
  0
SOLID
  5
183
330
17D
100
AcDbEntity
  8
0
 62
0
370
0
100
AcDbTrace
 10
332.33964001783141
 20
156.15524158752339
 30
0
 11
333.17297335116479
 21
156.15524158752339
 31
0
 12
332.75630668449821
 22
153.65524158752351
 32
0
 13
332.75630668449821
 23
153.65524158752351
 33
0
  0
SOLID
  5
184
330
17D
100
AcDbEntity
  8
0
 62
0
370
0
100
AcDbTrace
 10
332.33964001783141
 20
167.66524158752341
 30
0
 11
333.17297335116479
 21
167.66524158752341
 31
0
 12
332.75630668449821
 22
170.16524158752341
 32
0
 13
332.75630668449821
 23
170.16524158752341
 33
0
  0
MTEXT
  5
185
330
17D
100
AcDbEntity
  8
0
 62
0
370
0
100
AcDbMText
 10
330.381306684498
 20
188.2902415875235
 30
0
 11
1E-16
 21
1
 31
0
 40
3
 41
0
 46
0
 71
5
 72
1
  1
16,51 [0,650]
  7
Standard
 73
1
 90
0
1001
ACAD
1000
MTEXTBEGIN
1070
73
1070
1
1070
44
1040
1
1070
74
1070
0
1000
MTEXTEND
  0
POINT
  5
186
330
17D
100
AcDbEntity
  8
Defpoints
 62
0
370
0
100
AcDbPoint
 10
287.06410735048109
 20
153.65524158752351
 30
0
 50
0
  0
POINT
  5
187
330
17D
100
AcDbEntity
  8
Defpoints
 62
0
370
0
100
AcDbPoint
 10
252.7574940898065
 20
170.1652415875235
 30
0
 50
0
  0
POINT
  5
188
330
17D
100
AcDbEntity
  8
Defpoints
 62
0
370
0
100
AcDbPoint
 10
332.75630668449821
 20
170.16524158752341
 30
0
 50
0
  0
ENDBLK
  5
189
330
17D
100
AcDbEntity
  8
0
100
AcDbBlockEnd
  0
BLOCK
  5
18B
330
18A
100
AcDbEntity
  8
0
370
0
100
AcDbBlockBegin
  2
*D2323232323232323
 70
1
 10
0
 20
0
 30
0
  3
*D2323232323232323
  0
LINE
  5
18C
330
18A
100
AcDbEntity
  8
0
 62
0
370
-2
100
AcDbLine
 10
287.68910735048109
 20
153.65524158752351
 30
0
 11
364.24824321566911
 21
153.65524158752351
 31
0
  0
LINE
  5
18D
330
18A
100
AcDbEntity
  8
0
 62
0
370
-2
100
AcDbLine
 10
287.68910735048121
 20
210.80524158752351
 30
0
 11
364.24824321566911
 21
210.80524158752351
 31
0
  0
LINE
  5
18E
330
18A
100
AcDbEntity
  8
0
 62
0
370
-2
100
AcDbLine
 10
362.99824321566922
 20
156.15524158752339
 30
0
 11
362.99824321566922
 21
208.30524158752351
 31
0
  0
SOLID
  5
18F
330
18A
100
AcDbEntity
  8
0
 62
0
370
0
100
AcDbTrace
 10
362.58157654900248
 20
156.15524158752339
 30
0
 11
363.41490988233591
 21
156.15524158752339
 31
0
 12
362.99824321566922
 22
153.65524158752351
 32
0
 13
362.99824321566922
 23
153.65524158752351
 33
0
  0
SOLID
  5
190
330
18A
100
AcDbEntity
  8
0
 62
0
370
0
100
AcDbTrace
 10
362.58157654900248
 20
208.30524158752351
 30
0
 11
363.41490988233591
 21
208.30524158752351
 31
0
 12
362.99824321566922
 22
210.80524158752351
 32
0
 13
362.99824321566922
 23
210.80524158752351
 33
0
  0
MTEXT
  5
191
330
18A
100
AcDbEntity
  8
0
 62
0
370
0
100
AcDbMText
 10
360.62324321566911
 20
182.23024158752349
 30
0
 11
1E-16
 21
1
 31
0
 40
3
 41
0
 46
0
 71
5
 72
1
  1
57,15 [2,250]
  7
Standard
 73
1
 90
0
1001
ACAD
1000
MTEXTBEGIN
1070
73
1070
1
1070
44
1040
1
1070
74
1070
0
1000
MTEXTEND
  0
POINT
  5
192
330
18A
100
AcDbEntity
  8
Defpoints
 62
0
370
0
100
AcDbPoint
 10
287.06410735048109
 20
153.65524158752351
 30
0
 50
0
  0
POINT
  5
193
330
18A
100
AcDbEntity
  8
Defpoints
 62
0
370
0
100
AcDbPoint
 10
287.06410735048121
 20
210.80524158752351
 30
0
 50
0
  0
POINT
  5
194
330
18A
100
AcDbEntity
  8
Defpoints
 62
0
370
0
100
AcDbPoint
 10
362.99824321566922
 20
210.80524158752351
 30
0
 50
0
  0
ENDBLK
  5
195
330
18A
100
AcDbEntity
  8
0
100
AcDbBlockEnd
  0
BLOCK
  5
197
330
196
100
AcDbEntity
  8
0
370
0
100
AcDbBlockBegin
  2
*D2424242424242424
 70
1
 10
0
 20
0
 30
0
  3
*D2424242424242424
  0
LINE
  5
198
330
196
100
AcDbEntity
  8
0
 62
0
370
-2
100
AcDbLine
 10
287.68910735048121
 20
210.80524158752351
 30
0
 11
331.2340123347289
 21
210.80524158752351
 31
0
  0
LINE
  5
199
330
196
100
AcDbEntity
  8
0
 62
0
370
-2
100
AcDbLine
 10
287.68910735048121
 20
248.90524158752351
 30
0
 11
331.2340123347289
 21
248.90524158752351
 31
0
  0
LINE
  5
19A
330
196
100
AcDbEntity
  8
0
 62
0
370
-2
100
AcDbLine
 10
329.984012334729
 20
213.30524158752351
 30
0
 11
329.984012334729
 21
246.40524158752351
 31
0
  0
SOLID
  5
19B
330
196
100
AcDbEntity
  8
0
 62
0
370
0
100
AcDbTrace
 10
329.56734566806227
 20
213.30524158752351
 30
0
 11
330.4006790013957
 21
213.30524158752351
 31
0
 12
329.984012334729
 22
210.80524158752351
 32
0
 13
329.984012334729
 23
210.80524158752351
 33
0
  0
SOLID
  5
19C
330
196
100
AcDbEntity
  8
0
 62
0
370
0
100
AcDbTrace
 10
329.56734566806227
 20
246.40524158752351
 30
0
 11
330.4006790013957
 21
246.40524158752351
 31
0
 12
329.984012334729
 22
248.90524158752351
 32
0
 13
329.984012334729
 23
248.90524158752351
 33
0
  0
MTEXT
  5
19D
330
196
100
AcDbEntity
  8
0
 62
0
370
0
100
AcDbMText
 10
327.6090123347289
 20
229.85524158752349
 30
0
 11
1E-16
 21
1
 31
0
 40
3
 41
0
 46
0
 71
5
 72
1
  1
38,1 [1,500]
  7
Standard
 73
1
 90
0
1001
ACAD
1000
MTEXTBEGIN
1070
73
1070
1
1070
44
1040
1
1070
74
1070
0
1000
MTEXTEND
  0
POINT
  5
19E
330
196
100
AcDbEntity
  8
Defpoints
 62
0
370
0
100
AcDbPoint
 10
287.06410735048121
 20
210.80524158752351
 30
0
 50
0
  0
POINT
  5
19F
330
196
100
AcDbEntity
  8
Defpoints
 62
0
370
0
100
AcDbPoint
 10
287.06410735048121
 20
248.90524158752351
 30
0
 50
0
  0
POINT
  5
1A0
330
196
100
AcDbEntity
  8
Defpoints
 62
0
370
0
100
AcDbPoint
 10
329.984012334729
 20
248.90524158752351
 30
0
 50
0
  0
ENDBLK
  5
1A1
330
196
100
AcDbEntity
  8
0
100
AcDbBlockEnd
  0
BLOCK
  5
1A3
330
1A2
100
AcDbEntity
  8
0
370
0
100
AcDbBlockBegin
  2
*D2525252525252525
 70
1
 10
0
 20
0
 30
0
  3
*D2525252525252525
  0
LINE
  5
1A4
330
1A2
100
AcDbEntity
  8
0
 62
0
370
-2
100
AcDbLine
 10
282.49210735048132
 20
233.7829264914912
 30
0
 11
282.49210735048132
 21
279.43128609087421
 31
0
  0
LINE
  5
1A5
330
1A2
100
AcDbEntity
  8
0
 62
0
370
-2
100
AcDbLine
 10
291.63610735048132
 20
233.7829264914912
 30
0
 11
291.63610735048132
 21
279.43128609087421
 31
0
  0
LINE
  5
1A6
330
1A2
100
AcDbEntity
  8
0
 62
0
370
-2
100
AcDbLine
 10
284.99210735048132
 20
278.18128609087421
 30
0
 11
289.13610735048132
 21
278.18128609087421
 31
0
  0
LINE
  5
1A7
330
1A2
100
AcDbEntity
  8
0
 62
0
370
-2
100
AcDbLine
 10
291.63610735048132
 20
278.18128609087421
 30
0
 11
323.38610735048121
 21
278.18128609087421
 31
0
  0
SOLID
  5
1A8
330
1A2
100
AcDbEntity
  8
0
 62
0
370
0
100
AcDbTrace
 10
284.99210735048132
 20
278.59795275754078
 30
0
 11
284.99210735048132
 21
277.76461942420752
 31
0
 12
282.49210735048132
 22
278.18128609087421
 32
0
 13
282.49210735048132
 23
278.18128609087421
 33
0
  0
SOLID
  5
1A9
330
1A2
100
AcDbEntity
  8
0
 62
0
370
0
100
AcDbTrace
 10
289.13610735048132
 20
278.59795275754078
 30
0
 11
289.13610735048132
 21
277.76461942420752
 31
0
 12
291.63610735048132
 22
278.18128609087421
 32
0
 13
291.63610735048132
 23
278.18128609087421
 33
0
  0
MTEXT
  5
1AA
330
1A2
100
AcDbEntity
  8
0
 62
0
370
0
100
AcDbMText
 10
308.76110735048132
 20
280.55628609087421
 30
0
 11
1
 21
0
 31
0
 40
3
 41
0
 46
0
 71
5
 72
1
  1
9,14 [0,360]
  7
Standard
 73
1
 90
0
1001
ACAD
1000
MTEXTBEGIN
1070
73
1070
1
1070
44
1040
1
1070
74
1070
0
1000
MTEXTEND
  0
POINT
  5
1AB
330
1A2
100
AcDbEntity
  8
Defpoints
 62
0
370
0
100
AcDbPoint
 10
282.49210735048132
 20
233.1579264914912
 30
0
 50
0
  0
POINT
  5
1AC
330
1A2
100
AcDbEntity
  8
Defpoints
 62
0
370
0
100
AcDbPoint
 10
291.63610735048132
 20
233.1579264914912
 30
0
 50
0
  0
POINT
  5
1AD
330
1A2
100
AcDbEntity
  8
Defpoints
 62
0
370
0
100
AcDbPoint
 10
291.63610735048132
 20
278.18128609087421
 30
0
 50
0
  0
ENDBLK
  5
1AE
330
1A2
100
AcDbEntity
  8
0
100
AcDbBlockEnd
  0
BLOCK
  5
1B0
330
1AF
100
AcDbEntity
  8
0
370
0
100
AcDbBlockBegin
  2
*D2626262626262626
 70
1
 10
0
 20
0
 30
0
  3
*D2626262626262626
  0
LINE
  5
1B1
330
1AF
100
AcDbEntity
  8
0
 62
0
370
-2
100
AcDbLine
 10
211.96410735048141
 20
246.6652415875235
 30
0
 11
211.96410735048141
 21
282.29990296352048
 31
0
  0
LINE
  5
1B2
330
1AF
100
AcDbEntity
  8
0
 62
0
370
-2
100
AcDbLine
 10
195.9641073504813
 20
213.34124158752351
 30
0
 11
195.9641073504813
 21
282.29990296352048
 31
0
  0
LINE
  5
1B3
330
1AF
100
AcDbEntity
  8
0
 62
0
370
-2
100
AcDbLine
 10
209.46410735048141
 20
281.04990296352059
 30
0
 11
198.4641073504813
 21
281.04990296352059
 31
0
  0
LINE
  5
1B4
330
1AF
100
AcDbEntity
  8
0
 62
0
370
-2
100
AcDbLine
 10
195.9641073504813
 20
281.04990296352059
 30
0
 11
168.7141073504813
 21
281.04990296352059
 31
0
  0
SOLID
  5
1B5
330
1AF
100
AcDbEntity
  8
0
 62
0
370
0
100
AcDbTrace
 10
209.46410735048141
 20
281.46656963018722
 30
0
 11
209.46410735048141
 21
280.63323629685391
 31
0
 12
211.96410735048141
 22
281.04990296352059
 32
0
 13
211.96410735048141
 23
281.04990296352059
 33
0
  0
SOLID
  5
1B6
330
1AF
100
AcDbEntity
  8
0
 62
0
370
0
100
AcDbTrace
 10
198.4641073504813
 20
281.46656963018722
 30
0
 11
198.4641073504813
 21
280.63323629685391
 31
0
 12
195.9641073504813
 22
281.04990296352059
 32
0
 13
195.9641073504813
 23
281.04990296352059
 33
0
  0
MTEXT
  5
1B7
330
1AF
100
AcDbEntity
  8
0
 62
0
370
0
100
AcDbMText
 10
181.0891073504813
 20
283.42490296352059
 30
0
 11
1
 21
0
 31
0
 40
3
 41
0
 46
0
 71
5
 72
1
  1
16 [0,630]
  7
Standard
 73
1
 90
0
1001
ACAD
1000
MTEXTBEGIN
1070
73
1070
1
1070
44
1040
1
1070
74
1070
0
1000
MTEXTEND
  0
POINT
  5
1B8
330
1AF
100
AcDbEntity
  8
Defpoints
 62
0
370
0
100
AcDbPoint
 10
211.96410735048141
 20
246.0402415875235
 30
0
 50
0
  0
POINT
  5
1B9
330
1AF
100
AcDbEntity
  8
Defpoints
 62
0
370
0
100
AcDbPoint
 10
195.9641073504813
 20
212.71624158752351
 30
0
 50
0
  0
POINT
  5
1BA
330
1AF
100
AcDbEntity
  8
Defpoints
 62
0
370
0
100
AcDbPoint
 10
195.9641073504813
 20
281.04990296352059
 30
0
 50
0
  0
ENDBLK
  5
1BB
330
1AF
100
AcDbEntity
  8
0
100
AcDbBlockEnd
  0
BLOCK
  5
1BD
330
1BC
100
AcDbEntity
  8
0
370
0
100
AcDbBlockBegin
  2
*D2727272727272727
 70
1
 10
0
 20
0
 30
0
  3
*D2727272727272727
  0
LINE
  5
1BE
330
1BC
100
AcDbEntity
  8
0
 62
0
370
-2
100
AcDbLine
 10
211.33910735048141
 20
246.0402415875235
 30
0
 11
144.91802431155691
 21
246.0402415875235
 31
0
  0
LINE
  5
1BF
330
1BC
100
AcDbEntity
  8
0
 62
0
370
-2
100
AcDbLine
 10
195.3391073504813
 20
212.71624158752351
 30
0
 11
144.91802431155691
 21
212.71624158752351
 31
0
  0
LINE
  5
1C0
330
1BC
100
AcDbEntity
  8
0
 62
0
370
-2
100
AcDbLine
 10
146.16802431155691
 20
243.5402415875235
 30
0
 11
146.16802431155691
 21
215.21624158752351
 31
0
  0
SOLID
  5
1C1
330
1BC
100
AcDbEntity
  8
0
 62
0
370
0
100
AcDbTrace
 10
145.75135764489019
 20
243.5402415875235
 30
0
 11
146.58469097822359
 21
243.5402415875235
 31
0
 12
146.16802431155691
 22
246.0402415875235
 32
0
 13
146.16802431155691
 23
246.0402415875235
 33
0
  0
SOLID
  5
1C2
330
1BC
100
AcDbEntity
  8
0
 62
0
370
0
100
AcDbTrace
 10
145.75135764489019
 20
215.21624158752351
 30
0
 11
146.58469097822359
 21
215.21624158752351
 31
0
 12
146.16802431155691
 22
212.71624158752351
 32
0
 13
146.16802431155691
 23
212.71624158752351
 33
0
  0
MTEXT
  5
1C3
330
1BC
100
AcDbEntity
  8
0
 62
0
370
0
100
AcDbMText
 10
143.79302431155679
 20
229.3782415875236
 30
0
 11
1E-16
 21
1
 31
0
 40
3
 41
0
 46
0
 71
5
 72
1
  1
33,32 [1,312]
  7
Standard
 73
1
 90
0
1001
ACAD
1000
MTEXTBEGIN
1070
73
1070
1
1070
44
1040
1
1070
74
1070
0
1000
MTEXTEND
  0
POINT
  5
1C4
330
1BC
100
AcDbEntity
  8
Defpoints
 62
0
370
0
100
AcDbPoint
 10
211.96410735048141
 20
246.0402415875235
 30
0
 50
0
  0
POINT
  5
1C5
330
1BC
100
AcDbEntity
  8
Defpoints
 62
0
370
0
100
AcDbPoint
 10
195.9641073504813
 20
212.71624158752351
 30
0
 50
0
  0
POINT
  5
1C6
330
1BC
100
AcDbEntity
  8
Defpoints
 62
0
370
0
100
AcDbPoint
 10
146.16802431155691
 20
212.71624158752351
 30
0
 50
0
  0
ENDBLK
  5
1C7
330
1BC
100
AcDbEntity
  8
0
100
AcDbBlockEnd
  0
BLOCK
  5
1C9
330
1C8
100
AcDbEntity
  8
0
370
0
100
AcDbBlockBegin
  2
*D2828282828282828
 70
1
 10
0
 20
0
 30
0
  3
*D2828282828282828
  0
LINE
  5
1CA
330
1C8
100
AcDbEntity
  8
0
 62
0
370
-2
100
AcDbLine
 10
211.33910735048141
 20
246.0402415875235
 30
0
 11
139.1338523448124
 21
246.0402415875235
 31
0
  0
LINE
  5
1CB
330
1C8
100
AcDbEntity
  8
0
 62
0
370
-2
100
AcDbLine
 10
201.5207847193208
 20
262.24024158752349
 30
0
 11
139.1338523448124
 21
262.24024158752349
 31
0
  0
LINE
  5
1CC
330
1C8
100
AcDbEntity
  8
0
 62
0
370
-2
100
AcDbLine
 10
140.3838523448124
 20
248.5402415875235
 30
0
 11
140.3838523448124
 21
259.74024158752349
 31
0
  0
LINE
  5
1CD
330
1C8
100
AcDbEntity
  8
0
 62
0
370
-2
100
AcDbLine
 10
140.3838523448124
 20
262.24024158752349
 30
0
 11
140.3838523448124
 21
294.49024158752349
 31
0
  0
SOLID
  5
1CE
330
1C8
100
AcDbEntity
  8
0
 62
0
370
0
100
AcDbTrace
 10
139.9671856781458
 20
248.5402415875235
 30
0
 11
140.800519011479
 21
248.5402415875235
 31
0
 12
140.3838523448124
 22
246.0402415875235
 32
0
 13
140.3838523448124
 23
246.0402415875235
 33
0
  0
SOLID
  5
1CF
330
1C8
100
AcDbEntity
  8
0
 62
0
370
0
100
AcDbTrace
 10
139.9671856781458
 20
259.74024158752349
 30
0
 11
140.800519011479
 21
259.74024158752349
 31
0
 12
140.3838523448124
 22
262.24024158752349
 32
0
 13
140.3838523448124
 23
262.24024158752349
 33
0
  0
MTEXT
  5
1D0
330
1C8
100
AcDbEntity
  8
0
 62
0
370
0
100
AcDbMText
 10
138.0088523448124
 20
279.61524158752349
 30
0
 11
1E-16
 21
1
 31
0
 40
3
 41
0
 46
0
 71
5
 72
1
  1
16,2 [0,638]
  7
Standard
 73
1
 90
0
1001
ACAD
1000
MTEXTBEGIN
1070
73
1070
1
1070
44
1040
1
1070
74
1070
0
1000
MTEXTEND
  0
POINT
  5
1D1
330
1C8
100
AcDbEntity
  8
Defpoints
 62
0
370
0
100
AcDbPoint
 10
211.96410735048141
 20
246.0402415875235
 30
0
 50
0
  0
POINT
  5
1D2
330
1C8
100
AcDbEntity
  8
Defpoints
 62
0
370
0
100
AcDbPoint
 10
202.1457847193208
 20
262.24024158752349
 30
0
 50
0
  0
POINT
  5
1D3
330
1C8
100
AcDbEntity
  8
Defpoints
 62
0
370
0
100
AcDbPoint
 10
140.3838523448124
 20
262.24024158752349
 30
0
 50
0
  0
ENDBLK
  5
1D4
330
1C8
100
AcDbEntity
  8
0
100
AcDbBlockEnd
  0
BLOCK
  5
1D6
330
1D5
100
AcDbEntity
  8
0
370
0
100
AcDbBlockBegin
  2
*D2929292929292929
 70
1
 10
0
 20
0
 30
0
  3
*D2929292929292929
  0
LINE
  5
1D7
330
1D5
100
AcDbEntity
  8
0
 62
0
370
-2
100
AcDbLine
 10
202.98017982537979
 20
262.24024158752349
 30
0
 11
122.7557256151326
 21
262.24024158752349
 31
0
  0
LINE
  5
1D8
330
1D5
100
AcDbEntity
  8
0
 62
0
370
-2
100
AcDbLine
 10
195.3391073504813
 20
212.71624158752351
 30
0
 11
122.7557256151326
 21
212.71624158752351
 31
0
  0
LINE
  5
1D9
330
1D5
100
AcDbEntity
  8
0
 62
0
370
-2
100
AcDbLine
 10
124.0057256151326
 20
259.74024158752349
 30
0
 11
124.0057256151326
 21
215.21624158752351
 31
0
  0
SOLID
  5
1DA
330
1D5
100
AcDbEntity
  8
0
 62
0
370
0
100
AcDbTrace
 10
123.58905894846591
 20
259.74024158752349
 30
0
 11
124.4223922817993
 21
259.74024158752349
 31
0
 12
124.0057256151326
 22
262.24024158752349
 32
0
 13
124.0057256151326
 23
262.24024158752349
 33
0
  0
SOLID
  5
1DB
330
1D5
100
AcDbEntity
  8
0
 62
0
370
0
100
AcDbTrace
 10
123.58905894846591
 20
215.21624158752351
 30
0
 11
124.4223922817993
 21
215.21624158752351
 31
0
 12
124.0057256151326
 22
212.71624158752351
 32
0
 13
124.0057256151326
 23
212.71624158752351
 33
0
  0
MTEXT
  5
1DC
330
1D5
100
AcDbEntity
  8
0
 62
0
370
0
100
AcDbMText
 10
121.6307256151326
 20
237.47824158752351
 30
0
 11
1E-16
 21
1
 31
0
 40
3
 41
0
 46
0
 71
5
 72
1
  1
49,52 [1,950]
  7
Standard
 73
1
 90
0
1001
ACAD
1000
MTEXTBEGIN
1070
73
1070
1
1070
44
1040
1
1070
74
1070
0
1000
MTEXTEND
  0
POINT
  5
1DD
330
1D5
100
AcDbEntity
  8
Defpoints
 62
0
370
0
100
AcDbPoint
 10
203.60517982537979
 20
262.24024158752349
 30
0
 50
0
  0
POINT
  5
1DE
330
1D5
100
AcDbEntity
  8
Defpoints
 62
0
370
0
100
AcDbPoint
 10
195.9641073504813
 20
212.71624158752351
 30
0
 50
0
  0
POINT
  5
1DF
330
1D5
100
AcDbEntity
  8
Defpoints
 62
0
370
0
100
AcDbPoint
 10
124.0057256151326
 20
212.71624158752351
 30
0
 50
0
  0
ENDBLK
  5
1E0
330
1D5
100
AcDbEntity
  8
0
100
AcDbBlockEnd
  0
BLOCK
  5
1E2
330
1E1
100
AcDbEntity
  8
0
370
0
100
AcDbBlockBegin
  2
*D3030303030303030
 70
1
 10
0
 20
0
 30
0
  3
*D3030303030303030
  0
LINE
  5
1E3
330
1E1
100
AcDbEntity
  8
0
 62
0
370
-2
100
AcDbLine
 10
195.9641073504813
 20
212.09124158752351
 30
0
 11
195.9641073504813
 21
193.1125879658475
 31
0
  0
LINE
  5
1E4
330
1E1
100
AcDbEntity
  8
0
 62
0
370
-2
100
AcDbLine
 10
186.43910735048129
 20
204.73638814338
 30
0
 11
186.43910735048129
 21
193.1125879658475
 31
0
  0
LINE
  5
1E5
330
1E1
100
AcDbEntity
  8
0
 62
0
370
-2
100
AcDbLine
 10
193.4641073504813
 20
194.3625879658475
 30
0
 11
188.93910735048129
 21
194.3625879658475
 31
0
  0
LINE
  5
1E6
330
1E1
100
AcDbEntity
  8
0
 62
0
370
-2
100
AcDbLine
 10
186.43910735048129
 20
194.3625879658475
 30
0
 11
153.18910735048129
 21
194.3625879658475
 31
0
  0
SOLID
  5
1E7
330
1E1
100
AcDbEntity
  8
0
 62
0
370
0
100
AcDbTrace
 10
193.4641073504813
 20
194.77925463251421
 30
0
 11
193.4641073504813
 21
193.9459212991809
 31
0
 12
195.9641073504813
 22
194.3625879658475
 32
0
 13
195.9641073504813
 23
194.3625879658475
 33
0
  0
SOLID
  5
1E8
330
1E1
100
AcDbEntity
  8
0
 62
0
370
0
100
AcDbTrace
 10
188.93910735048129
 20
194.77925463251421
 30
0
 11
188.93910735048129
 21
193.9459212991809
 31
0
 12
186.43910735048129
 22
194.3625879658475
 32
0
 13
186.43910735048129
 23
194.3625879658475
 33
0
  0
MTEXT
  5
1E9
330
1E1
100
AcDbEntity
  8
0
 62
0
370
0
100
AcDbMText
 10
168.56410735048129
 20
196.73758796584761
 30
0
 11
1
 21
0
 31
0
 40
3
 41
0
 46
0
 71
5
 72
1
  1
9,53 [0,375]
  7
Standard
 73
1
 90
0
1001
ACAD
1000
MTEXTBEGIN
1070
73
1070
1
1070
44
1040
1
1070
74
1070
0
1000
MTEXTEND
  0
POINT
  5
1EA
330
1E1
100
AcDbEntity
  8
Defpoints
 62
0
370
0
100
AcDbPoint
 10
195.9641073504813
 20
212.71624158752351
 30
0
 50
0
  0
POINT
  5
1EB
330
1E1
100
AcDbEntity
  8
Defpoints
 62
0
370
0
100
AcDbPoint
 10
186.43910735048129
 20
205.36138814338
 30
0
 50
0
  0
POINT
  5
1EC
330
1E1
100
AcDbEntity
  8
Defpoints
 62
0
370
0
100
AcDbPoint
 10
186.43910735048129
 20
194.3625879658475
 30
0
 50
0
  0
ENDBLK
  5
1ED
330
1E1
100
AcDbEntity
  8
0
100
AcDbBlockEnd
  0
BLOCK
  5
1EF
330
1EE
100
AcDbEntity
  8
0
370
0
100
AcDbBlockBegin
  2
*D3131313131313131
 70
1
 10
0
 20
0
 30
0
  3
*D3131313131313131
  0
LINE
  5
1F0
330
1EE
100
AcDbEntity
  8
0
 62
0
370
-2
100
AcDbLine
 10
218.25344148643481
 20
171.89225060151361
 30
0
 11
199.44438231231661
 21
206.3419500629679
 31
0
  0
LINE
  5
1F1
330
1EE
100
AcDbEntity
  8
0
 62
0
370
-2
100
AcDbLine
 10
192.48383238864611
 20
219.0905331120793
 30
0
 11
191.285803141887
 21
221.28478148542041
 31
0
  0
MTEXT
  5
1F2
330
1EE
100
AcDbEntity
  8
0
 62
0
370
0
100
AcDbMText
 10
211.53246247742919
 20
189.1581039299914
 30
0
 11
0.47921169870364733
 21
-0.87769934933641414
 31
0
 40
3
 41
0
 46
0
 71
5
 72
1
  1
∅9,53 [∅0,375]
  7
Standard
 73
1
 90
0
1001
ACAD
1000
MTEXTBEGIN
1070
73
1070
1
1070
44
1040
1
1070
74
1070
0
1000
MTEXTEND
  0
LINE
  5
1F3
330
1EE
100
AcDbEntity
  8
0
 62
0
370
-2
100
AcDbLine
 10
193.6818616354052
 20
216.8962847387383
 30
0
 11
198.24635306555751
 21
208.53619843630889
 31
0
  0
SOLID
  5
1F4
330
1EE
100
AcDbEntity
  8
0
 62
0
370
0
100
AcDbTrace
 10
192.8495404508696
 20
219.29020465320579
 30
0
 11
192.11812432642259
 21
218.89086157095281
 31
0
 12
193.6818616354052
 22
216.8962847387383
 32
0
 13
193.6818616354052
 23
216.8962847387383
 33
0
  0
SOLID
  5
1F5
330
1EE
100
AcDbEntity
  8
0
 62
0
370
0
100
AcDbTrace
 10
199.8100903745401
 20
206.54162160409439
 30
0
 11
199.07867425009309
 21
206.14227852184141
 31
0
 12
198.24635306555751
 22
208.53619843630889
 32
0
 13
198.24635306555751
 23
208.53619843630889
 33
0
  0
POINT
  5
1F6
330
1EE
100
AcDbEntity
  8
Defpoints
 62
0
370
0
100
AcDbPoint
 10
198.24635306555751
 20
208.53619843630889
 30
0
 50
0
  0
POINT
  5
1F7
330
1EE
100
AcDbEntity
  8
Defpoints
 62
0
370
0
100
AcDbPoint
 10
193.6818616354052
 20
216.8962847387383
 30
0
 50
0
  0
ENDBLK
  5
1F8
330
1EE
100
AcDbEntity
  8
0
100
AcDbBlockEnd
  0
BLOCK
  5
1FA
330
1F9
100
AcDbEntity
  8
0
370
0
100
AcDbBlockBegin
  2
*D3232323232323232
 70
1
 10
0
 20
0
 30
0
  3
*D3232323232323232
  0
LINE
  5
1FB
330
1F9
100
AcDbEntity
  8
0
 62
0
370
-2
100
AcDbLine
 10
232.3512957141111
 20
262.24024158752349
 30
0
 11
53.723461359279582
 21
262.24024158752349
 31
0
  0
LINE
  5
1FC
330
1F9
100
AcDbEntity
  8
0
 62
0
370
-2
100
AcDbLine
 10
232.3512957141111
 20
135.24024158752351
 30
0
 11
53.723461359279547
 21
135.24024158752351
 31
0
  0
LINE
  5
1FD
330
1F9
100
AcDbEntity
  8
0
 62
0
370
-2
100
AcDbLine
 10
54.973461359279582
 20
259.74024158752349
 30
0
 11
54.973461359279547
 21
137.74024158752351
 31
0
  0
SOLID
  5
1FE
330
1F9
100
AcDbEntity
  8
0
 62
0
370
0
100
AcDbTrace
 10
54.556794692612911
 20
259.74024158752349
 30
0
 11
55.390128025946247
 21
259.74024158752349
 31
0
 12
54.973461359279582
 22
262.24024158752349
 32
0
 13
54.973461359279582
 23
262.24024158752349
 33
0
  0
SOLID
  5
1FF
330
1F9
100
AcDbEntity
  8
0
 62
0
370
0
100
AcDbTrace
 10
54.55679469261289
 20
137.74024158752351
 30
0
 11
55.3901280259462
 21
137.74024158752351
 31
0
 12
54.973461359279547
 22
135.24024158752351
 32
0
 13
54.973461359279547
 23
135.24024158752351
 33
0
  0
MTEXT
  5
200
330
1F9
100
AcDbEntity
  8
0
 62
0
370
0
100
AcDbMText
 10
52.598461359279518
 20
198.74024158752351
 30
0
 11
1E-16
 21
1
 31
0
 40
3
 41
0
 46
0
 71
5
 72
1
  1
127 [5,000]
  7
Standard
 73
1
 90
0
1001
ACAD
1000
MTEXTBEGIN
1070
73
1070
1
1070
44
1040
1
1070
74
1070
0
1000
MTEXTEND
  0
POINT
  5
201
330
1F9
100
AcDbEntity
  8
Defpoints
 62
0
370
0
100
AcDbPoint
 10
232.9762957141111
 20
262.24024158752349
 30
0
 50
0
  0
POINT
  5
202
330
1F9
100
AcDbEntity
  8
Defpoints
 62
0
370
0
100
AcDbPoint
 10
232.9762957141111
 20
135.24024158752351
 30
0
 50
0
  0
POINT
  5
203
330
1F9
100
AcDbEntity
  8
Defpoints
 62
0
370
0
100
AcDbPoint
 10
54.973461359279547
 20
135.24024158752351
 30
0
 50
0
  0
ENDBLK
  5
204
330
1F9
100
AcDbEntity
  8
0
100
AcDbBlockEnd
  0
BLOCK
  5
206
330
205
100
AcDbEntity
  8
0
370
0
100
AcDbBlockBegin
  2
*D3333333333333333
 70
1
 10
0
 20
0
 30
0
  3
*D3333333333333333
  0
LINE
  5
207
330
205
100
AcDbEntity
  8
0
 62
0
370
-2
100
AcDbLine
 10
287.06410735048109
 20
154.28024158752351
 30
0
 11
287.06410735048109
 21
207.12001268861729
 31
0
  0
LINE
  5
208
330
205
100
AcDbEntity
  8
0
 62
0
370
-2
100
AcDbLine
 10
302.93910735048121
 20
145.175893388633
 30
0
 11
302.93910735048121
 21
207.12001268861729
 31
0
  0
LINE
  5
209
330
205
100
AcDbEntity
  8
0
 62
0
370
-2
100
AcDbLine
 10
289.56410735048109
 20
205.87001268861729
 30
0
 11
300.43910735048121
 21
205.87001268861729
 31
0
  0
LINE
  5
20A
330
205
100
AcDbEntity
  8
0
 62
0
370
-2
100
AcDbLine
 10
302.93910735048121
 20
205.87001268861729
 30
0
 11
338.18910735048121
 21
205.87001268861729
 31
0
  0
SOLID
  5
20B
330
205
100
AcDbEntity
  8
0
 62
0
370
0
100
AcDbTrace
 10
289.56410735048109
 20
206.28667935528389
 30
0
 11
289.56410735048109
 21
205.45334602195061
 31
0
 12
287.06410735048109
 22
205.87001268861729
 32
0
 13
287.06410735048109
 23
205.87001268861729
 33
0
  0
SOLID
  5
20C
330
205
100
AcDbEntity
  8
0
 62
0
370
0
100
AcDbTrace
 10
300.43910735048121
 20
206.28667935528389
 30
0
 11
300.43910735048121
 21
205.45334602195061
 31
0
 12
302.93910735048121
 22
205.87001268861729
 32
0
 13
302.93910735048121
 23
205.87001268861729
 33
0
  0
MTEXT
  5
20D
330
205
100
AcDbEntity
  8
0
 62
0
370
0
100
AcDbMText
 10
321.81410735048121
 20
208.24501268861729
 30
0
 11
1
 21
0
 31
0
 40
3
 41
0
 46
0
 71
5
 72
1
  1
15,88 [0,625]
  7
Standard
 73
1
 90
0
1001
ACAD
1000
MTEXTBEGIN
1070
73
1070
1
1070
44
1040
1
1070
74
1070
0
1000
MTEXTEND
  0
POINT
  5
20E
330
205
100
AcDbEntity
  8
Defpoints
 62
0
370
0
100
AcDbPoint
 10
287.06410735048109
 20
153.65524158752351
 30
0
 50
0
  0
POINT
  5
20F
330
205
100
AcDbEntity
  8
Defpoints
 62
0
370
0
100
AcDbPoint
 10
302.93910735048121
 20
144.55089338863311
 30
0
 50
0
  0
POINT
  5
210
330
205
100
AcDbEntity
  8
Defpoints
 62
0
370
0
100
AcDbPoint
 10
302.93910735048121
 20
205.87001268861729
 30
0
 50
0
  0
ENDBLK
  5
211
330
205
100
AcDbEntity
  8
0
100
AcDbBlockEnd
  0
BLOCK
  5
213
330
212
100
AcDbEntity
  8
0
370
0
100
AcDbBlockBegin
  2
*D3434343434343434
 70
1
 10
0
 20
0
 30
0
  3
*D3434343434343434
  0
LINE
  5
214
330
212
100
AcDbEntity
  8
0
 62
0
370
-2
100
AcDbLine
 10
186.43910735048129
 20
199.36524158752351
 30
0
 11
186.43910735048129
 21
275.74181851264171
 31
0
  0
LINE
  5
215
330
212
100
AcDbEntity
  8
0
 62
0
370
-2
100
AcDbLine
 10
302.93910735048121
 20
199.36524158752351
 30
0
 11
302.93910735048121
 21
275.74181851264171
 31
0
  0
LINE
  5
216
330
212
100
AcDbEntity
  8
0
 62
0
370
-2
100
AcDbLine
 10
188.93910735048129
 20
274.49181851264171
 30
0
 11
300.43910735048121
 21
274.49181851264171
 31
0
  0
SOLID
  5
217
330
212
100
AcDbEntity
  8
0
 62
0
370
0
100
AcDbTrace
 10
188.93910735048129
 20
274.9084851793084
 30
0
 11
188.93910735048129
 21
274.075151845975
 31
0
 12
186.43910735048129
 22
274.49181851264171
 32
0
 13
186.43910735048129
 23
274.49181851264171
 33
0
  0
SOLID
  5
218
330
212
100
AcDbEntity
  8
0
 62
0
370
0
100
AcDbTrace
 10
300.43910735048121
 20
274.9084851793084
 30
0
 11
300.43910735048121
 21
274.075151845975
 31
0
 12
302.93910735048121
 22
274.49181851264171
 32
0
 13
302.93910735048121
 23
274.49181851264171
 33
0
  0
MTEXT
  5
219
330
212
100
AcDbEntity
  8
0
 62
0
370
0
100
AcDbMText
 10
244.68910735048129
 20
276.86681851264171
 30
0
 11
1
 21
0
 31
0
 40
3
 41
0
 46
0
 71
5
 72
1
  1
116,5 [4,587]
  7
Standard
 73
1
 90
0
1001
ACAD
1000
MTEXTBEGIN
1070
73
1070
1
1070
44
1040
1
1070
74
1070
0
1000
MTEXTEND
  0
POINT
  5
21A
330
212
100
AcDbEntity
  8
Defpoints
 62
0
370
0
100
AcDbPoint
 10
186.43910735048129
 20
198.74024158752351
 30
0
 50
0
  0
POINT
  5
21B
330
212
100
AcDbEntity
  8
Defpoints
 62
0
370
0
100
AcDbPoint
 10
302.93910735048121
 20
198.74024158752351
 30
0
 50
0
  0
POINT
  5
21C
330
212
100
AcDbEntity
  8
Defpoints
 62
0
370
0
100
AcDbPoint
 10
302.93910735048121
 20
274.49181851264171
 30
0
 50
0
  0
ENDBLK
  5
21D
330
212
100
AcDbEntity
  8
0
100
AcDbBlockEnd
  0
BLOCK
  5
21F
330
21E
100
AcDbEntity
  8
0
370
0
100
AcDbBlockBegin
  2
*D3535353535353535
 70
1
 10
0
 20
0
 30
0
  3
*D3535353535353535
  0
LINE
  5
220
330
21E
100
AcDbEntity
  8
0
 62
0
370
-2
100
AcDbLine
 10
186.43910735048129
 20
199.36524158752351
 30
0
 11
186.43910735048129
 21
274.49414366701859
 31
0
  0
LINE
  5
221
330
21E
100
AcDbEntity
  8
0
 62
0
370
-2
100
AcDbLine
 10
302.93910735048121
 20
199.36524158752351
 30
0
 11
302.93910735048121
 21
274.49414366701859
 31
0
  0
LINE
  5
222
330
21E
100
AcDbEntity
  8
0
 62
0
370
-2
100
AcDbLine
 10
188.93910735048129
 20
273.24414366701859
 30
0
 11
300.43910735048121
 21
273.24414366701859
 31
0
  0
SOLID
  5
223
330
21E
100
AcDbEntity
  8
0
 62
0
370
0
100
AcDbTrace
 10
188.93910735048129
 20
273.66081033368528
 30
0
 11
188.93910735048129
 21
272.82747700035191
 31
0
 12
186.43910735048129
 22
273.24414366701859
 32
0
 13
186.43910735048129
 23
273.24414366701859
 33
0
  0
SOLID
  5
224
330
21E
100
AcDbEntity
  8
0
 62
0
370
0
100
AcDbTrace
 10
300.43910735048121
 20
273.66081033368528
 30
0
 11
300.43910735048121
 21
272.82747700035191
 31
0
 12
302.93910735048121
 22
273.24414366701859
 32
0
 13
302.93910735048121
 23
273.24414366701859
 33
0
  0
MTEXT
  5
225
330
21E
100
AcDbEntity
  8
0
 62
0
370
0
100
AcDbMText
 10
244.68910735048129
 20
275.61914366701859
 30
0
 11
1
 21
0
 31
0
 40
3
 41
0
 46
0
 71
5
 72
1
  1
116,5 [4,587]
  7
Standard
 73
1
 90
0
1001
ACAD
1000
MTEXTBEGIN
1070
73
1070
1
1070
44
1040
1
1070
74
1070
0
1000
MTEXTEND
  0
POINT
  5
226
330
21E
100
AcDbEntity
  8
Defpoints
 62
0
370
0
100
AcDbPoint
 10
186.43910735048129
 20
198.74024158752351
 30
0
 50
0
  0
POINT
  5
227
330
21E
100
AcDbEntity
  8
Defpoints
 62
0
370
0
100
AcDbPoint
 10
302.93910735048121
 20
198.74024158752351
 30
0
 50
0
  0
POINT
  5
228
330
21E
100
AcDbEntity
  8
Defpoints
 62
0
370
0
100
AcDbPoint
 10
302.93910735048121
 20
273.24414366701859
 30
0
 50
0
  0
ENDBLK
  5
229
330
21E
100
AcDbEntity
  8
0
100
AcDbBlockEnd
  0
ENDSEC
  0
SECTION
  2
ENTITIES
  0
MTEXT
  5
74
330
70
100
AcDbEntity
  8
0
 62
7
100
AcDbMText
 10
201.79349489077779
 20
148.56201594422691
 30
0
 11
1
 21
0
 31
0
 40
5
 41
23.554356338440328
 46
9.1312442078810516
 71
1
 72
5
  1
{\fCentury Gothic|b0|i0|c0|p18;\C1;198781}
  7
Standard
 73
1
 90
0
1001
ACAD
1000
MTEXTBEGIN
1070
73
1070
1
1070
44
1040
1
1070
74
1070
0
1000
MTEXTEND
1000
ACAD_MTEXT_DEFINED_HEIGHT_BEGIN
1070
46
1040
9.1312442078810516
1000
ACAD_MTEXT_DEFINED_HEIGHT_END
  0
TEXT
  5
75
330
70
100
AcDbEntity
  8
0
 62
7
100
AcDbText
 10
181.22517204018831
 20
113.73316225731109
 30
0
 40
6.299999999999998
  1
SHEET SIZE: 5MMx116.5x127
  7
Standard
100
AcDbText
1001
ACAD
1000
MTEXTBEGIN
1070
73
1070
1
1070
44
1040
1
1070
74
1070
0
1000
MTEXTEND
  0
TEXT
  5
76
330
70
100
AcDbEntity
  8
0
 62
7
100
AcDbText
 10
180.90716385464941
 20
103.1257270594939
 30
0
 40
6.299999999999998
  1
MATERIAL : SS316
  7
Standard
100
AcDbText
1001
ACAD
1000
MTEXTBEGIN
1070
73
1070
1
1070
44
1040
1
1070
74
1070
0
1000
MTEXTEND
  0
TEXT
  5
77
330
70
100
AcDbEntity
  8
0
 62
7
100
AcDbText
 10
181.13062906610909
 20
92.518291861676744
 30
0
 40
6.299999999999998
  1
QTY: 40 NO
  7
Standard
100
AcDbText
1001
ACAD
1000
MTEXTBEGIN
1070
73
1070
1
1070
44
1040
1
1070
74
1070
0
1000
MTEXTEND
  0
TEXT
  5
78
330
70
100
AcDbEntity
  8
0
 62
7
100
AcDbText
 10
180.8598923676098
 20
81.910856663859548
 30
0
 40
6.299999999999998
  1
REV : 3
  7
Standard
100
AcDbText
1001
ACAD
1000
MTEXTBEGIN
1070
73
1070
1
1070
44
1040
1
1070
74
1070
0
1000
MTEXTEND
  0
ARC
  5
79
330
70
100
AcDbEntity
  8
LaserCutting
370
30
100
AcDbCircle
 10
192.78910735048129
 20
255.89024158752341
 30
0
 40
6.3500000000000218
100
AcDbArc
 50
90.000000000000256
 51
179.99999999999969
  0
LINE
  5
7A
330
70
100
AcDbEntity
  8
LaserCutting
370
30
100
AcDbLine
 10
186.43910735048129
 20
255.89024158752349
 30
0
 11
186.43910735048129
 21
141.59024158752351
 31
0
  0
ARC
  5
7B
330
70
100
AcDbEntity
  8
LaserCutting
370
30
100
AcDbCircle
 10
192.7891073504812
 20
141.59024158752339
 30
0
 40
6.3499999999999366
100
AcDbArc
 50
179.999999999999
 51
270.00000000000051
  0
LINE
  5
7C
330
70
100
AcDbEntity
  8
LaserCutting
370
30
100
AcDbLine
 10
192.78910735048129
 20
135.24024158752351
 30
0
 11
296.58910735048119
 21
135.24024158752351
 31
0
  0
ARC
  5
7D
330
70
100
AcDbEntity
  8
LaserCutting
370
30
100
AcDbCircle
 10
296.58910735048107
 20
141.59024158752351
 30
0
 40
6.3500000000000512
100
AcDbArc
 50
270.00000000000051
 51
359.99999999999972
  0
LINE
  5
7E
330
70
100
AcDbEntity
  8
LaserCutting
370
30
100
AcDbLine
 10
302.93910735048121
 20
141.59024158752351
 30
0
 11
302.93910735048121
 21
255.89024158752349
 31
0
  0
ARC
  5
7F
330
70
100
AcDbEntity
  8
LaserCutting
370
30
100
AcDbCircle
 10
296.58910735048107
 20
255.89024158752341
 30
0
 40
6.3500000000001364
100
AcDbArc
 50
1.0258E-12
 51
89.999999999998977
  0
LINE
  5
80
330
70
100
AcDbEntity
  8
LaserCutting
370
30
100
AcDbLine
 10
296.58910735048119
 20
262.24024158752349
 30
0
 11
192.78910735048129
 21
262.24024158752349
 31
0
  0
ARC
  5
81
330
70
100
AcDbEntity
  8
LaserCutting
370
30
100
AcDbCircle
 10
211.96410735048141
 20
246.0402415875235
 30
0
 40
4.7624999999999877
100
AcDbArc
 50
0
 51
180
  0
ARC
  5
82
330
70
100
AcDbEntity
  8
LaserCutting
370
30
100
AcDbCircle
 10
211.96410735048141
 20
246.0402415875235
 30
0
 40
4.7624999999999877
100
AcDbArc
 50
180
 51
0
  0
ARC
  5
83
330
70
100
AcDbEntity
  8
LaserCutting
370
30
100
AcDbCircle
 10
195.9641073504813
 20
212.71624158752351
 30
0
 40
4.7624999999999877
100
AcDbArc
 50
0
 51
180
  0
ARC
  5
84
330
70
100
AcDbEntity
  8
LaserCutting
370
30
100
AcDbCircle
 10
195.9641073504813
 20
212.71624158752351
 30
0
 40
4.7624999999999877
100
AcDbArc
 50
180
 51
0
  0
ARC
  5
85
330
70
100
AcDbEntity
  8
LaserCutting
370
30
100
AcDbCircle
 10
227.9191073504814
 20
176.5152415875236
 30
0
 40
6.350000000000108
100
AcDbArc
 50
180.0000000000002
 51
270.00000000000051
  0
LINE
  5
86
330
70
100
AcDbEntity
  8
LaserCutting
370
30
100
AcDbLine
 10
221.56910735048129
 20
176.5152415875236
 30
0
 11
221.56910735048149
 21
220.96524158752351
 31
0
  0
ARC
  5
87
330
70
100
AcDbEntity
  8
LaserCutting
370
30
100
AcDbCircle
 10
227.91910735048151
 20
220.96524158752351
 30
0
 40
6.3500000000000218
100
AcDbArc
 50
90.000000000000256
 51
179.99999999999969
  0
LINE
  5
88
330
70
100
AcDbEntity
  8
LaserCutting
370
30
100
AcDbLine
 10
227.91910735048151
 20
227.3152415875235
 30
0
 11
267.58410735048119
 21
227.31524158752339
 31
0
  0
ARC
  5
89
330
70
100
AcDbEntity
  8
LaserCutting
370
30
100
AcDbCircle
 10
267.58410735048108
 20
220.96524158752331
 30
0
 40
6.3500000000000787
100
AcDbArc
 50
7.761E-13
 51
89.999999999999474
  0
LINE
  5
8A
330
70
100
AcDbEntity
  8
LaserCutting
370
30
100
AcDbLine
 10
273.93410735048121
 20
220.96524158752339
 30
0
 11
273.93410735048121
 21
176.51524158752349
 31
0
  0
ARC
  5
8B
330
70
100
AcDbEntity
  8
LaserCutting
370
30
100
AcDbCircle
 10
267.58410735048108
 20
176.5152415875236
 30
0
 40
6.3500000000000787
100
AcDbArc
 50
270.00000000000051
 51
359.99999999999926
  0
LINE
  5
8C
330
70
100
AcDbEntity
  8
LaserCutting
370
30
100
AcDbLine
 10
267.58410735048119
 20
170.1652415875235
 30
0
 11
227.9191073504814
 21
170.1652415875235
 31
0
  0
LINE
  5
8D
330
70
100
AcDbEntity
  8
LaserCutting
370
30
100
AcDbLine
 10
282.49210735048138
 20
248.90524158752351
 30
0
 11
282.49210735048149
 21
210.80524158752351
 31
0
  0
ARC
  5
8E
330
70
100
AcDbEntity
  8
LaserCutting
370
30
100
AcDbCircle
 10
287.06410735048138
 20
210.80524158752351
 30
0
 40
4.571999999999945
100
AcDbArc
 50
179.99999999999963
 51
3.562E-13
  0
LINE
  5
8F
330
70
100
AcDbEntity
  8
LaserCutting
370
30
100
AcDbLine
 10
291.63610735048132
 20
210.80524158752351
 30
0
 11
291.63610735048121
 21
248.90524158752351
 31
0
  0
ARC
  5
90
330
70
100
AcDbEntity
  8
LaserCutting
370
30
100
AcDbCircle
 10
287.06410735048132
 20
248.90524158752351
 30
0
 40
4.571999999999889
100
AcDbArc
 50
0
 51
180
  0
LINE
  5
91
330
70
100
AcDbEntity
  8
LaserCutting
370
30
100
AcDbLine
 10
282.49210735048132
 20
191.75524158752361
 30
0
 11
282.492107350481
 21
153.65524158752351
 31
0
  0
ARC
  5
92
330
70
100
AcDbEntity
  8
LaserCutting
370
30
100
AcDbCircle
 10
287.06410735048109
 20
153.65524158752351
 30
0
 40
4.5720000000001164
100
AcDbArc
 50
180
 51
0
  0
LINE
  5
93
330
70
100
AcDbEntity
  8
LaserCutting
370
30
100
AcDbLine
 10
291.63610735048121
 20
153.65524158752351
 30
0
 11
291.63610735048121
 21
191.7552415875235
 31
0
  0
ARC
  5
94
330
70
100
AcDbEntity
  8
LaserCutting
370
30
100
AcDbCircle
 10
287.06410735048132
 20
191.7552415875235
 30
0
 40
4.571999999999945
100
AcDbArc
 50
359.9999999999996
 51
179.99999999999929
  0
ENDSEC
  0
SECTION
  2
OBJECTS
  0
DICTIONARY
  5
C
330
0
100
AcDbDictionary
280
0
281
1
  3
ACAD_COLOR
350
22F
  3
ACAD_GROUP
350
D
  3
ACAD_LAYOUT
350
1A
  3
ACAD_MATERIAL
350
233
  3
ACAD_MLEADERSTYLE
350
234
  3
ACAD_MLINESTYLE
350
17
  3
ACAD_PLOTSETTINGS
350
19
  3
ACAD_PLOTSTYLENAME
350
E
  3
ACAD_SCALELIST
350
236
  3
ACAD_TABLESTYLE
350
248
  3
ACAD_VISUALSTYLE
350
24C
  3
ACDB_RECOMPOSE_DATA
350
24D
  3
AcDbVariableDictionary
350
24E
  3
ACAD_FIELDLIST
350
258
  3
ACAD_IMAGE_DICT
350
259
  0
DICTIONARY
  5
27
330
10
100
AcDbDictionary
280
1
281
1
  3
ADSK_XREC_LAYER_RECONCILED
360
28
  0
DICTIONARY
  5
2E
330
2D
100
AcDbDictionary
280
1
281
1
  3
ACAD_SORTENTS
360
2F
  0
DICTIONARY
  5
71
330
70
100
AcDbDictionary
280
1
281
1
  3
ACAD_SORTENTS
360
72
  0
DICTIONARY
  5
231
330
22
100
AcDbDictionary
280
1
281
1
  3
ADSK_XREC_LAYOUTTHUMBNAIL
360
232
  0
DICTIONARY
  5
24A
330
249
100
AcDbDictionary
280
1
281
1
  3
ACAD_ROUNDTRIP_2008_TABLESTYLE_CELLSTYLEMAP
360
24B
  0
DICTIONARY
  5
22F
102
{ACAD_REACTORS
330
C
102
}
330
C
100
AcDbDictionary
280
0
281
1
  0
DICTIONARY
  5
D
102
{ACAD_REACTORS
330
C
102
}
330
C
100
AcDbDictionary
280
0
281
1
  0
DICTIONARY
  5
1A
102
{ACAD_REACTORS
330
C
102
}
330
C
100
AcDbDictionary
280
0
281
1
  3
Layout1
350
1E
  3
Layout2
350
230
  3
Model
350
22
  0
DICTIONARY
  5
233
102
{ACAD_REACTORS
330
C
102
}
330
C
100
AcDbDictionary
280
0
281
1
  0
DICTIONARY
  5
234
102
{ACAD_REACTORS
330
C
102
}
330
C
100
AcDbDictionary
280
0
281
1
  0
DICTIONARY
  5
17
102
{ACAD_REACTORS
330
C
102
}
330
C
100
AcDbDictionary
280
0
281
1
  3
STANDARD
350
235
  0
DICTIONARY
  5
19
102
{ACAD_REACTORS
330
C
102
}
330
C
100
AcDbDictionary
280
0
281
1
  0
ACDBDICTIONARYWDFLT
  5
E
102
{ACAD_REACTORS
330
C
102
}
330
C
100
AcDbDictionary
280
0
281
1
  3
Normal
350
F
100
AcDbDictionaryWithDefault
340
F
  0
ACDBPLACEHOLDER
  5
F
102
{ACAD_REACTORS
330
E
102
}
330
E
  0
DICTIONARY
  5
236
102
{ACAD_REACTORS
330
C
102
}
330
C
100
AcDbDictionary
280
0
281
1
  3
A0
350
237
  3
A1
350
238
  3
A2
350
239
  3
A3
350
23A
  3
A4
350
23B
  3
A5
350
23C
  3
A6
350
23D
  3
A7
350
23E
  3
A8
350
23F
  3
A9
350
240
  3
B0
350
241
  3
B1
350
242
  3
B2
350
243
  3
B3
350
244
  3
B4
350
245
  3
B5
350
246
  3
B6
350
247
  0
DICTIONARY
  5
248
102
{ACAD_REACTORS
330
C
102
}
330
C
100
AcDbDictionary
280
0
281
1
  3
Standard
350
249
  0
DICTIONARY
  5
24C
102
{ACAD_REACTORS
330
C
102
}
330
C
100
AcDbDictionary
280
0
281
1
  0
XRECORD
  5
24D
102
{ACAD_REACTORS
330
C
102
}
330
C
100
AcDbXrecord
280
1
 90
1
330
249
  0
DICTIONARY
  5
24E
102
{ACAD_REACTORS
330
C
102
}
330
C
100
AcDbDictionary
280
0
281
1
  3
CMLEADERSTYLE
350
24F
  3
CTABLESTYLE
350
250
  3
DIMASSOC
350
251
  3
HIDETEXT
350
252
  3
MSLTSCALE
350
253
  3
XCLIPFRAME
350
254
  3
CANNOSCALE
350
255
  3
ANNOALLVISIBLE
350
256
  3
ANNOTATIVEDWG
350
257
  0
FIELDLIST
  5
258
102
{ACAD_REACTORS
330
C
102
}
330
C
100
AcDbIdSet
100
AcDbFieldList
  0
DICTIONARY
  5
259
102
{ACAD_REACTORS
330
C
102
}
330
C
100
AcDbDictionary
280
0
281
1
  0
XRECORD
  5
28
102
{ACAD_REACTORS
330
27
102
}
330
27
100
AcDbXrecord
280
1
290
1
  0
SORTENTSTABLE
  5
2F
102
{ACAD_REACTORS
330
2E
102
}
330
2E
100
AcDbSortentsTable
330
2D
  0
SORTENTSTABLE
  5
72
102
{ACAD_REACTORS
330
71
102
}
330
71
100
AcDbSortentsTable
330
70
331
74
  5
17AC
331
75
  5
174E
331
76
  5
178D
331
77
  5
178E
331
78
  5
178F
331
79
  5
1790
331
7A
  5
1791
331
7B
  5
1792
331
7C
  5
1793
331
7D
  5
1794
331
7E
  5
1795
331
7F
  5
1796
331
80
  5
1797
331
81
  5
1798
331
82
  5
1799
331
83
  5
179A
331
84
  5
179B
331
85
  5
179C
331
86
  5
179D
331
87
  5
179E
331
88
  5
179F
331
89
  5
17A0
331
8A
  5
17A1
331
8B
  5
17A2
331
8C
  5
17A3
331
8D
  5
17A4
331
8E
  5
17A5
331
8F
  5
17A6
331
90
  5
17A7
331
91
  5
17A8
331
92
  5
17A9
331
93
  5
17AA
331
94
  5
17AB
  0
XRECORD
  5
232
102
{ACAD_REACTORS
330
231
102
}
330
231
100
AcDbXrecord
280
1
310
B8B8B8B8B8B8B8B8B8B8B8B8B8B8B8B8B8B8B8B8B8B8B8B8B8B8B8B8B8B8B8B8B8B8B8B8B8B8B8B8B8B8B8B8B8B8B8B8B8B8B8B8B8B8B8B8B8B8B8B8B8B8B8B8B8B8B8B8B8B8B8B8B8B8B8B8B8B8B8B8B8B8B8B8B8B8B8B8B8B8B8B8B8B8B8B8B8B8B8B8B8B8B8B8B8B8B8B8B8B8B8B8B8B8B8B8B8B8B8B8B8B8B8B8B8B8B8
310
B8B8B8B8B8B8B8B8B8B8B8B8B8B8B8B8B8B8B8B8B8B8B8B8B8B8B8B8B8B8B8B8B8B8B8B8B8B8B8B8B8B8B8B8B8B8B8B8B8B8B8B8B8B8B8B8B8B8B8B8B8B8B8B8B8B8B8B8B8B8B8B8B8B8B8B8B8B8B8B8B8B8B8B8B8B8B8B8B8B8B8B8B8B8B8B8B8B8B8B8B8B8B8B8B8B8B8B8B8B8B8B8B8B8B8B8B8B8B8B8B8B8B8B8B8B8B8
310
B8B8B8B8B8B8B8B8B8B8B8B8B8B8B8B8B8B8B8B8B8B8B8B8B8B8B8B8B8B8B8B8B8B8B8B8B8B8B8B8B8B8B8B8B8B8B8B8B8B8B8B8B8B8B8B8B8B8B8B8B8B8B8B8B8B8B8B8B8B8B8B8B8B8B8B8B8B8B8B8B8B8B8B8B8B8B8B8B8B8B8B8B8B8B8B8B8B8B8B8B8B8B8B8B8B8B8B8B8B8B8B8B8B8B8B8B8B8B8B8B8B8B8B8B8B8B8
310
B8B8B8B8B8B8B8B8B8B8B8B8B8B8B8B8B8B8B8B8B8B8B8B8B8B8B8B8B8B8B8B8B8B8B8B8B8B8B8B8B8B8B8B8B8B8B8B8B8B8B8B8B8B8B8B8B8B8B8B8B8B8B8B8B8B8B8B8B8B8B8B8B8B8B8B8B8B8B8B8B8B8B8B8B8B8B8B8B8B8B8B8B8B8B8B8B8B8B8B8B8B8B8B8B8B8B8B8B8B8B8B8B8B8B8B8B8B8B8B8B8B8B8B8B8B8B8
310
B8B8B8B8B8B8B8B8B8B8B8B8B8B8B8B8B8B8B8B8B8B8B8B8B8B8B8B8B8B8B8B8B8B8B8B8B8B8B8B8B8B8B8B8B8B8B8B8B8B8B8B8B8B8B8B8B8B8B8B8B8B8B8B8B8B8B8B8B8B8B8B8B8B8B8B8B8B8B8B8B8B8B8B8B8B8B8B8B8B8B8B8B8B8B8B8B8B8B8B8B8B8B8B8B8B8B8B8B8B8B8B8B8B8B8B8B8B8B8B8B8B8B8B8B8B8B8
310
B8B8B8B8B8B8B8B8B8B8B8B8B8B8B8B8B8B8B8B8B8B8B8B8B8B8B8B8B8B8B8B8B8B8B8B8B8B8B8B8B8B8B8B8B8B8B8B8B8B8B8B8B8B8B8B8B8B8B8B8B8B8B8B8B8B8B8B8B8B8B8B8B8B8B8B8B8B8B8B8B8B8B8B8B8B8B8B8B8B8B8B8B8B8B8B8B8B8B8B8B8B8B8B8B8B8B8B8B8B8B8B8B8B8B8B8B8B8B8B8B8B8B8B8B8B8B8
310
B8B8B8B8B8B8B8B8B8B8B8B8B8B8B8B8B8B8B8B8B8B8B8B8B8B8B8B8B8B8B8B8B8B8B8B8B8B8B8B8B8B8B8B8B8B8B8B8B8B8B8B8B8B8B8B8B8B8B8B8B8B8B8B8B8B8B8B8B8B8B8B8B8B8B8B8B8B8B8B8B8B8B8B8B8B8B8B8B8B8B8B8B8B8B8B8B8B8B8B8B8B8B8B8B8B8B8B8B8B8B8B8B8B8B8B8B8B8B8B8B8B8B8B8B8B8B8
310
B8B8B8B8B8B8B8B8B8B8B8B8B8B8B8B8B8B8B8B8B8B8B8B8B8B8B8B8B8B8B8B8B8B8B8B8B8B8B8B8B8B8B8B8B8B8B8B8B8B8B8B8B8B8B8B8B8B8B8B8B8B8B8B8B8B8B8B8B8B8B8B8B8B8B8B8B8B8B8B8B8B8B8B8B8B8B8B8B8B8B8B8B8B8B8B8B8B8B8B8B8B8B8B8B8B8B8B8B8B8B8B8B8B8B8B8B8B8B8B8B8B8B8B8B8B8B8
310
B8B8B8B8B8B8B8B8B8B8B8B8B8B8B8B8B8B8B8B8B8B8B8B8B8B8B8B8B8B8B8B8B8B8B8B8B8B8B8B8B8B8B8B8B8B8B8B8B8B8B8B8B8B8B8B8B8B8B8B8B8B8B8B8B8B8B8B8B8B8B8B8B8B8B8B8B8B8B8B8B8B8B8B8B8B8B8B8B8B8B8B8B8B8B8B8B8B8B8B8B8B8B8B8B8B8B8B8B8B8B8B8B8B8B8B8B8B8B8B8B8B8B8B8B8B8B8
310
B8B8B8B8B8B8B8B8B8B8B8B8B8B8B8B8B8B8B8B8B8B8B8B8B8B8B8B8B8B8B8B8B8B8B8B8B8B8B8B8B8B8B8B8B8B8B8B8B8B8B8B8B8B8B8B8B8B8B8B8B8B8B8B8B8B8B8B8B8B8B8B8B8B8B8B8B8B8B8B8B8B8B8B8B8B8B8B8B8B8B8B8B8B8B8B8B8B8B8B8B8B8B8B8B8B8B8B8B8B8B8B8B8B8B8B8B8B8B8B8B8B8B8B8B8B8B8
310
B8B8B8B8B8B8B8B8B8B8B8B8B8B8B8B8B8B8B8B8B8B8B8B8B8B8B8B8B8B8B8B8B8B8B8B8B8B8B8B8B8B8B8B8B8B8B8B8B8B8B8B8B8B8B8B8B8B8B8B8B8B8B8B8B8B8B8B8B8B8B8B8B8B8B8B8B8B8B8B8B8B8B8B8B8B8B8B8B8B8B8B8B8B8B8B8B8B8B8B8B8B8B8B8B8B8B8B8B8B8B8B8B8B8B8B8B8B8B8B8B8B8B8B8B8B8B8
310
B8B8B8B8B8B8B8B8B8B8B8B8B8B8B8B8B8B8B8B8B8B8B8B8B8B8B8B8B8B8B8B8B8B8B8B8B8B8B8B8B8B8B8B8B8B8B8B8B8B8B8B8B8B8B8B8B8B8B8B8B8B8B8B8B8B8B8B8B8B8B8B8B8B8B8B8B8B8B8B8B8B8B8B8B8B8B8B8B8B8B8B8B8B8B8B8B8B8B8B8B8B8B8B8B8B8B8B8B8B8B8B8B8B8B8B8B8B8B8B8B8B8B8B8B8B8B8
310
B8B8B8B8B8B8B8B8B8B8B8B8B8B8B8B8B8B8B8B8B8B8B8B8B8B8B8B8B8B8B8B8B8B8B8B8B8B8B8B8B8B8B8B8B8B8B8B8B8B8B8B8B8B8B8B8B8B8B8B8B8B8B8B8B8B8B8B8B8B8B8B8B8B8B8B8B8B8B8B8B8B8B8B8B8B8B8B8B8B8B8B8B8B8B8B8B8B8B8B8B8B8B8B8B8B8B8B8B8B8B8B8B8B8B8B8B8B8B8B8B8B8B8B8B8B8B8
310
B8B8B8B8B8B8B8B8B8B8B8B8B8B8B8B8B8B8B8B8B8B8B8B8B8B8B8B8B8B8B8B8B8B8B8B8B8B8B8B8B8B8B8B8B8B8B8B8B8B8B8B8B8B8B8B8B8B8B8B8B8B8B8B8B8B8B8B8B8B8B8B8B8B8B8B8B8B8B8B8B8B8B8B8B8B8B8B8B8B8B8B8B8B8B8B8B8B8B8B8B8B8B8B8B8B8B8B8B8B8B8B8B8B8B8B8B8B8B8B8B8B8B8B8B8B8B8
310
B8B8B8B8B8B8B8B8B8B8B8B8B8B8B8B8B8B8B8B8B8B8B8B8B8B8B8B8B8B8B8B8B8B8B8B8B8B8B8B8B8B8B8B8B8B8B8B8B8B8B8B8B8B8B8B8B8B8B8B8B8B8B8B8B8B8B8B8B8B8B8B8B8B8B8B8B8B8B8B8B8B8B8B8B8B8B8B8B8B8B8B8B8B8B8B8B8B8B8B8B8B8B8B8B8B8B8B8B8B8B8B8B8B8B8B8B8B8B8B8B8B8B8B8B8B8B8
310
B8B8B8B8B8B8B8B8B8B8B8B8B8B8B8B8B8B8B8B8B8B8B8B8B8B8B8B8B8B8B8B8B8B8B8B8B8B8B8B8B8B8B8B8B8B8B8B8B8B8B8B8B8B8B8B8B8B8B8B8B8B8B8B8B8B8B8B8B8B8B8B8B8B8B8B8B8B8B8B8B8B8B8B8B8B8B8B8B8B8B8B8B8B8B8B8B8B8B8B8B8B8B8B8B8B8B8B8B8B8B8B8B8B8B8B8B8B8B8B8B8B8B8B8B8B8B8
310
B8B8B8B8B8B8B8B8B8B8B8B8B8B8B8B8B8B8B8B8B8B8B8B8B8B8B8B8B8B8B8B8B8B8B8B8B8B8B8B8B8B8B8B8B8B8B8B8B8B8B8B8B8B8B8B8B8B8B8B8B8B8B8B8B8B8B8B8B8B8B8B8B8B8B8B8B8B8B8B8B8B8B8B8B8B8B8B8B8B8B8B8B8B8B8B8B8B8B8B8B8B8B8B8B8B8B8B8B8B8B8B8B8B8B8B8B8B8B8B8B8B8B8B8B8B8B8
310
B8B8B8B8B8B8B8B8B8B8B8B8B8B8B8B8B8B8B8B8B8B8B8B8B8B8B8B8B8B8B8B8B8B8B8B8B8B8B8B8B8B8B8B8B8B8B8B8B8B8B8B8B8B8B8B8B8B8B8B8B8B8B8B8B8B8B8B8B8B8B8B8B8B8B8B8B8B8B8B8B8B8B8B8B8B8B8B8B8B8B8B8B8B8B8B8B8B8B8B8B8B8B8B8B8B8B8B8B8B8B8B8B8B8B8B8B8B8B8B8B8B8B8B8B8B8B8
310
B8B8B8B8B8B8B8B8B8B8B8B8B8B8B8B8B8B8B8B8B8B8B8B8B8B8B8B8B8B8B8B8B8B8B8B8B8B8B8B8B8B8B8B8B8B8B8B8B8B8B8B8B8B8B8B8B8B8B8B8B8B8B8B8B8B8B8B8B8B8B8B8B8B8B8B8B8B8B8B8B8B8B8B8B8B8B8B8B8B8B8B8B8B8B8B8B8B8B8B8B8B8B8B8B8B8B8B8B8B8B8B8B8B8B8B8B8B8B8B8B8B8B8B8B8B8B8
310
B8B8B8B8B8B8B8B8B8B8B8B8B8B8B8B8B8B8B8B8B8B8B8B8B8B8B8B8B8B8B8B8B8B8B8B8B8B8B8B8B8B8B8B8B8B8B8B8B8B8B8B8B8B8B8B8B8B8B8B8B8B8B8B8B8B8B8B8B8B8B8B8B8B8B8B8B8B8B8B8B8B8B8B8B8B8B8B8B8B8B8B8B8B8B8B8B8B8B8B8B8B8B8B8B8B8B8B8B8B8B8B8B8B8B8B8B8B8B8B8B8B8B8B8B8B8B8
310
B8B8B8B8B8B8B8B8B8B8B8B8B8B8B8B8B8B8B8B8B8B8B8B8B8B8B8B8B8B8B8B8B8B8B8B8B8B8B8B8B8B8B8B8B8B8B8B8B8B8B8B8B8B8B8B8B8B8B8B8B8B8B8B8B8B8B8B8B8B8B8B8B8B8B8B8B8B8B8B8B8B8B8B8B8B8B8B8B8B8B8B8B8B8B8B8B8B8B8B8B8B8B8B8B8B8B8B8B8B8B8B8B8B8B8B8B8B8B8B8B8B8B8B8B8B8B8
310
B8B8B8B8B8B8B8B8B8B8B8B8B8B8B8B8B8B8B8B8B8B8B8B8B8B8B8B8B8B8B8B8B8B8B8B8B8B8B8B8B8B8B8B8B8B8B8B8B8B8B8B8B8B8B8B8B8B8B8B8B8B8B8B8B8B8B8B8B8B8B8B8B8B8B8B8B8B8B8B8B8B8B8B8B8B8B8B8B8B8B8B8B8B8B8B8B8B8B8B8B8B8B8B8B8B8B8B8B8B8B8B8B8B8B8B8B8B8B8B8B8B8B8B8B8B8B8
310
B8B8B8B8B8B8B8B8B8B8B8B8B8B8B8B8B8B8B8B8B8B8B8B8B8B8B8B8B8B8B8B8B8B8B8B8B8B8B8B8B8B8B8B8B8B8B8B8B8B8B8B8B8B8B8B8B8B8B8B8B8B8B8B8B8B8B8B8B8B8B8B8B8B8B8B8B8B8B8B8B8B8B8B8B8B8B8B8B8B8B8B8B8B8B8B8B8B8B8B8B8B8B8B8B8B8B8B8B8B8B8B8B8B8B8B8B8B8B8B8B8B8B8B8B8B8B8
310
B8B8B8B8B8B8B8B8B8B8B8B8B8B8B8B8B8B8B8B8B8B8B8B8B8B8B8B8B8B8B8B8B8B8B8B8B8B8B8B8B8B8B8B8B8B8B8B8B8B8B8B8B8B8B8B8B8B8B8B8B8B8B8B8B8B8B8B8B8B8B8B8B8B8B8B8B8B8B8B8B8B8B8B8B8B8B8B8B8B8B8B8B8B8B8B8B8B8B8B8B8B8B8B8B8B8B8B8B8B8B8B8B8B8B8B8B8B8B8B8B8B8B8B8B8B8B8
310
B8B8B8B8B8B8B8B8B8B8B8B8B8B8B8B8B8B8B8B8B8B8B8B8B8B8B8B8B8B8B8B8B8B8B8B8B8B8B8B8B8B8B8B8B8B8B8B8B8B8B8B8B8B8B8B8B8B8B8B8B8B8B8B8B8B8B8B8B8B8B8B8B8B8B8B8B8B8B8B8B8B8B8B8B8B8B8B8B8B8B8B8B8B8B8B8B8B8B8B8B8B8B8B8B8B8B8B8B8B8B8B8B8B8B8B8B8B8B8B8B8B8B8B8B8B8B8
310
B8B8B8B8B8B8B8B8B8B8B8B8B8B8B8B8B8B8B8B8B8B8B8B8B8B8B8B8B8B8B8B8B8B8B8B8B8B8B8B8B8B8B8B8B8B8B8B8B8B8B8B8B8B8B8B8B8B8B8B8B8B8B8B8B8B8B8B8B8B8B8B8B8B8B8B8B8B8B8B8B8B8B8B8B8B8B8B8B8B8B8B8B8B8B8B8B8B8B8B8B8B8B8B8B8B8B8B8B8B8B8B8B8B8B8B8B8B8B8B8B8B8B8B8B8B8B8
310
B8B8B8B8B8B8B8B8B8B8B8B8B8B8B8B8B8B8B8B8B8B8B8B8B8B8B8B8B8B8B8B8B8B8B8B8B8B8B8B8B8B8B8B8B8B8B8B8B8B8B8B8B8B8B8B8B8B8B8B8B8B8B8B8B8B8B8B8B8B8B8B8B8B8B8B8B8B8B8B8B8B8B8B8B8B8B8B8B8B8B8B8B8B8B8B8B8B8B8B8B8B8B8B8B8B8B8B8B8B8B8B8B8B8B8B8B8B8B8B8B8B8B8B8B8B8B8
310
B8B8B8B8B8B8B8B8B8B8B8B8B8B8B8B8B8B8B8B8B8B8B8B8B8B8B8B8B8B8B8B8B8B8B8B8B8B8B8B8B8B8B8B8B8B8B8B8B8B8B8B8B8B8B8B8B8B8B8B8B8B8B8B8B8B8B8B8B8B8B8B8B8B8B8B8B8B8B8B8B8B8B8B8B8B8B8B8B8B8B8B8B8B8B8B8B8B8B8B8B8B8B8B8B8B8B8B8B8B8B8B8B8B8B8B8B8B8B8B8B8B8B8B8B8B8B8
310
B8B8B8B8B8B8B8B8B8B8B8B8B8B8B8B8B8B8B8B8B8B8B8B8B8B8B8B8B8B8B8B8B8B8B8B8B8B8B8B8B8B8B8B8B8B8B8B8B8B8B8B8B8B8B8B8B8B8B8B8B8B8B8B8B8B8B8B8B8B8B8B8B8B8B8B8B8B8B8B8B8B8B8B8B8B8B8B8B8B8B8B8B8B8B8B8B8B8B8B8B8B8B8B8B8B8B8B8B8B8B8B8B8B8B8B8B8B8B8B8B8B8B8B8B8B8B8
310
B8B8B8B8B8B8B8B8B8B8B8B8B8B8B8B8B8B8B8B8B8B8B8B8B8B8B8B8B8B8B8B8B8B8B8B8B8B8B8B8B8B8B8B8B8B8B8B8B8B8B8B8B8B8B8B8B8B8B8B8B8B8B8B8B8B8B8B8B8B8B8B8B8B8B8B8B8B8B8B8B8B8B8B8B8B8B8B8B8B8B8B8B8B8B8B8B8B8B8B8B8B8B8B8B8B8B8B8B8B8B8B8B8B8B8B8B8B8B8B8B8B8B8B8B8B8B8
310
B8B8B8B8B8B8B8B8B8B8B8B8B8B8B8B8B8B8B8B8B8B8B8B8B8B8B8B8B8B8B8B8B8B8B8B8B8B8B8B8B8B8B8B8B8B8B8B8B8B8B8B8B8B8B8B8B8B8B8B8B8B8B8B8B8B8B8B8B8B8B8B8B8B8B8B8B8B8B8B8B8B8B8B8B8B8B8B8B8B8B8B8B8B8B8B8B8B8B8B8B8B8B8B8B8B8B8B8B8B8B8B8B8B8B8B8B8B8B8B8B8B8B8B8B8B8B8
310
B8B8B8B8B8B8B8B8B8B8B8B8B8B8B8B8B8B8B8B8B8B8B8B8B8B8B8B8B8B8B8B8B8B8B8B8B8B8B8B8B8B8B8B8B8B8B8B8B8B8B8B8B8B8B8B8B8B8B8B8B8B8B8B8B8B8B8B8B8B8B8B8B8B8B8B8B8B8B8B8B8B8B8B8B8B8B8B8B8B8B8B8B8B8B8B8B8B8B8B8B8B8B8B8B8B8B8B8B8B8B8B8B8B8B8B8B8B8B8B8B8B8B8B8B8B8B8
310
B8B8B8B8B8B8B8B8B8B8B8B8B8B8B8B8B8B8B8B8B8B8B8B8B8B8B8B8B8B8B8B8B8B8B8B8B8B8B8B8B8B8B8B8B8B8B8B8B8B8B8B8B8B8B8B8B8B8B8B8B8B8B8B8B8B8B8B8B8B8B8B8B8B8B8B8B8B8B8B8B8B8B8B8B8B8B8B8B8B8B8B8B8B8B8B8B8B8B8B8B8B8B8B8B8B8B8B8B8B8B8B8B8B8B8B8B8B8B8B8B8B8B8B8B8B8B8
310
B8B8B8B8B8B8B8B8B8B8B8B8B8B8B8B8B8B8B8B8B8B8B8B8B8B8B8B8B8B8B8B8B8B8B8B8B8B8B8B8B8B8B8B8B8B8B8B8B8B8B8B8B8B8B8B8B8B8B8B8B8B8B8B8B8B8B8B8B8B8B8B8B8B8B8B8B8B8B8B8B8B8B8B8B8B8B8B8B8B8B8B8B8B8B8B8B8B8B8B8B8B8B8B8B8B8B8B8B8B8B8B8B8B8B8B8B8B8B8B8B8B8B8B8B8B8B8
310
B8B8B8B8B8B8B8B8B8B8B8B8B8B8B8B8B8B8B8B8B8B8B8B8B8B8B8B8B8B8B8B8B8B8B8B8B8B8B8B8B8B8B8B8B8B8B8B8B8B8B8B8B8B8B8B8B8B8B8B8B8B8B8B8B8B8B8B8B8B8B8B8B8B8B8B8B8B8B8B8B8B8B8B8B8B8B8B8B8B8B8B8B8B8B8B8B8B8B8B8B8B8B8B8B8B8B8B8B8B8B8B8B8B8B8B8B8B8B8B8B8B8B8B8B8B8B8
310
B8B8B8B8B8B8B8B8B8B8B8B8B8B8B8B8B8B8B8B8B8B8B8B8B8B8B8B8B8B8B8B8B8B8B8B8B8B8B8B8B8B8B8B8B8B8B8B8B8B8B8B8B8B8B8B8B8B8B8B8B8B8B8B8B8B8B8B8B8B8B8B8B8B8B8B8B8B8B8B8B8B8B8B8B8B8B8B8B8B8B8B8B8B8B8B8B8B8B8B8B8B8B8B8B8B8B8B8B8B8B8B8B8B8B8B8B8B8B8B8B8B8B8B8B8B8B8
310
B8B8B8B8B8B8B8B8B8B8B8B8B8B8B8B8B8B8B8B8B8B8B8B8B8B8B8B8B8B8B8B8B8B8B8B8B8B8B8B8B8B8B8B8B8B8B8B8B8B8B8B8B8B8B8B8B8B8B8B8B8B8B8B8B8B8B8B8B8B8B8B8B8B8B8B8B8B8B8B8B8B8B8B8B8B8B8B8B8B8B8B8B8B8B8B8B8B8B8B8B8B8B8B8B8B8B8B8B8B8B8B8B8B8B8B8B8B8B8B8B8B8B8B8B8B8B8
310
B8B8B8B8B8B8B8B8B8B8B8B8B8B8B8B8B8B8B8B8B8B8B8B8B8B8B8B8B8B8B8B8B8B8B8B8B8B8B8B8B8B8B8B8B8B8B8B8B8B8B8B8B8B8B8B8B8B8B8B8B8B8B8B8B8B8B8B8B8B8B8B8B8B8B8B8B8B8B8B8B8B8B8B8B8B8B8B8B8B8B8B8B8B8B8B8B8B8B8B8B8B8B8B8B8B8B8B8B8B8B8B8B8B8B8B8B8B8B8B8B8B8B8B8B8B8B8
310
B8B8B8B8B8B8B8B8B8B8B8B8B8B8B8B8B8B8B8B8B8B8B8B8B8B8B8B8B8B8B8B8B8B8B8B8B8B8B8B8B8B8B8B8B8B8B8B8B8B8B8B8B8B8B8B8B8B8B8B8B8B8B8B8B8B8B8B8B8B8B8B8B8B8B8B8B8B8B8B8B8B8B8B8B8B8B8B8B8B8B8B8B8B8B8B8B8B8B8B8B8B8B8B8B8B8B8B8B8B8B8B8B8B8B8B8B8B8B8B8B8B8B8B8B8B8B8
310
B8B8B8B8B8B8B8B8B8B8B8B8B8B8B8B8B8B8B8B8B8B8B8B8B8B8B8B8B8B8B8B8B8B8B8B8B8B8B8B8B8B8B8B8B8B8B8B8B8B8B8B8B8B8B8B8B8B8B8B8B8B8B8B8B8B8B8B8B8B8B8B8B8B8B8B8B8B8B8B8B8B8B8B8B8B8B8B8B8B8B8B8B8B8B8B8B8B8B8B8B8B8B8B8B8B8B8B8B8B8B8B8B8B8B8B8B8B8B8B8B8B8B8B8B8B8B8
310
B8B8B8B8B8B8B8B8B8B8B8B8B8B8B8B8B8B8B8B8B8B8B8B8B8B8B8B8B8B8B8B8B8B8B8B8B8B8B8B8B8B8B8B8B8B8B8B8B8B8B8B8B8B8B8B8B8B8B8B8B8B8B8B8B8B8B8B8B8B8B8B8B8B8B8B8B8B8B8B8B8B8B8B8B8B8B8B8B8B8B8B8B8B8B8B8B8B8B8B8B8B8B8B8B8B8B8B8B8B8B8B8B8B8B8B8B8B8B8B8B8B8B8B8B8B8B8
310
B8B8B8B8B8B8B8B8B8B8B8B8B8B8B8B8B8B8B8B8B8B8B8B8B8B8B8B8B8B8B8B8B8B8B8B8B8B8B8B8B8B8B8B8B8B8B8B8B8B8B8B8B8B8B8B8B8B8B8B8B8B8B8B8B8B8B8B8B8B8B8B8B8B8B8B8B8B8B8B8B8B8B8B8B8B8B8B8B8B8B8B8B8B8B8B8B8B8B8B8B8B8B8B8B8B8B8B8B8B8B8B8B8B8B8B8B8B8B8B8B8B8B8B8B8B8B8
310
B8B8B8B8B8B8B8B8B8B8B8B8B8B8B8B8B8B8B8B8B8B8B8B8B8B8B8B8B8B8B8B8B8B8B8B8B8B8B8B8B8B8B8B8B8B8B8B8B8B8B8B8B8B8B8B8B8B8B8B8B8B8B8B8B8B8B8B8B8B8B8B8B8B8B8B8B8B8B8B8B8B8B8B8B8B8B8B8B8B8B8B8B8B8B8B8B8B8B8B8B8B8B8B8B8B8B8B8B8B8B8B8B8B8B8B8B8B8B8B8B8B8B8B8B8B8B8
310
B8B8B8B8B8B8B8B8B8B8B8B8B8B8B8B8B8B8B8B8B8B8B8B8B8B8B8B8B8B8B8B8B8B8B8B8B8B8B8B8B8B8B8B8B8B8B8B8B8B8B8B8B8B8B8B8B8B8B8B8B8B8B8B8B8B8B8B8B8B8B8B8B8B8B8B8B8B8B8B8B8B8B8B8B8B8B8B8B8B8B8B8B8B8B8B8B8B8B8B8B8B8B8B8B8B8B8B8B8B8B8B8B8B8B8B8B8B8B8B8B8B8B8B8B8B8B8
310
B8B8B8B8B8B8B8B8B8B8B8B8B8B8B8B8B8B8B8B8B8B8B8B8B8B8B8B8B8B8B8B8B8B8B8B8B8B8B8B8B8B8B8B8B8B8B8B8B8B8B8B8B8B8B8B8B8B8B8B8B8B8B8B8B8B8B8B8B8B8B8B8B8B8B8B8B8B8B8B8B8B8B8B8B8B8B8B8B8B8B8B8B8B8B8B8B8B8B8B8B8B8B8B8B8B8B8B8B8B8B8B8B8B8B8B8B8B8B8B8B8B8B8B8B8B8B8
310
B8B8B8B8B8B8B8B8B8B8B8B8B8B8B8B8B8B8B8B8B8B8B8B8B8B8B8B8B8B8B8B8B8B8B8B8B8B8B8B8B8B8B8B8B8B8B8B8B8B8B8B8B8B8B8B8B8B8B8B8B8B8B8B8B8B8B8B8B8B8B8B8B8B8B8B8B8B8B8B8B8B8B8B8B8B8B8B8B8B8B8B8B8B8B8B8B8B8B8B8B8B8B8B8B8B8B8B8B8B8B8B8B8B8B8B8B8B8B8B8B8B8B8B8B8B8B8
310
B8B8B8B8B8B8B8B8B8B8B8B8B8B8B8B8B8B8B8B8B8B8B8B8B8B8B8B8B8B8B8B8B8B8B8B8B8B8B8B8B8B8B8B8B8B8B8B8B8B8B8B8B8B8B8B8B8B8B8B8B8B8B8B8B8B8B8B8B8B8B8B8B8B8B8B8B8B8B8B8B8B8B8B8B8B8B8B8B8B8B8B8B8B8B8B8B8B8B8B8B8B8B8B8B8B8B8B8B8B8B8B8B8B8B8B8B8B8B8B8B8B8B8B8B8B8B8
310
B8B8B8B8B8B8B8B8B8B8B8B8B8B8B8B8B8B8B8B8B8B8B8B8B8B8B8B8B8B8B8B8B8B8B8B8B8B8B8B8B8B8B8B8B8B8B8B8B8B8B8B8B8B8B8B8B8B8B8B8B8B8B8B8B8B8B8B8B8B8B8B8B8B8B8B8B8B8B8B8B8B8B8B8B8B8B8B8B8B8B8B8B8B8B8B8B8B8B8B8B8B8B8B8B8B8B8B8B8B8B8B8B8B8B8B8B8B8B8B8B8B8B8B8B8B8B8
310
B8B8B8B8B8B8B8B8B8B8B8B8B8B8B8B8B8B8B8B8B8B8B8B8B8B8B8B8B8B8B8B8B8B8B8B8B8B8B8B8B8B8B8B8B8B8B8B8B8B8B8B8B8B8B8B8B8B8B8B8B8B8B8B8B8B8B8B8B8B8B8B8B8B8B8B8B8B8B8B8B8B8B8B8B8B8B8B8B8B8B8B8B8B8B8B8B8B8B8B8B8B8B8B8B8B8B8B8B8B8B8B8B8B8B8B8B8B8B8B8B8B8B8B8B8B8B8
310
B8B8B8B8B8B8B8B8B8B8B8B8B8B8B8B8B8B8B8B8B8B8B8B8B8B8B8B8B8B8B8B8B8B8B8B8B8B8B8B8B8B8B8B8B8B8B8B8B8B8B8B8B8B8B8B8B8B8B8B8B8B8B8B8B8B8B8B8B8B8B8B8B8B8B8B8B8B8B8B8B8B8B8B8B8B8B8B8B8B8B8B8B8B8B8B8B8B8B8B8B8B8B8B8B8B8B8B8B8B8B8B8B8B8B8B8B8B8B8B8B8B8B8B8B8B8B8
310
B8B8B8B8B8B8B8B8B8B8B8B8B8B8B8B8B8B8B8B8B8B8B8B8B8B8B8B8B8B8B8B8B8B8B8B8B8B8B8B8B8B8B8B8B8B8B8B8B8B8B8B8B8B8B8B8B8B8B8B8B8B8B8B8B8B8B8B8B8B8B8B8B8B8B8B8B8B8B8B8B8B8B8B8B8B8B8B8B8B8B8B8B8B8B8B8B8B8B8B8B8B8B8B8B8B8B8B8B8B8B8B8B8B8B8B8B8B8B8B8B8B8B8B8B8B8B8
310
B8B8B8B8B8B8B8B8B8B8B8B8B8B8B8B8B8B8B8B8B8B8B8B8B8B8B8B8B8B8B8B8B8B8B8B8B8B8B8B8B8B8B8B8B8B8B8B8B8B8B8B8B8B8B8B8B8B8B8B8B8B8B8B8B8B8B8B8B8B8B8B8B8B8B8B8B8B8B8B8B8B8B8B8B8B8B8B8B8B8B8B8B8B8B8B8B8B8B8B8B8B8B8B8B8B8B8B8B8B8B8B8B8B8B8B8B8B8B8B8B8B8B8B8B8B8B8
310
B8B8B8B8B8B8B8B8B8B8B8B8B8B8B8B8B8B8B8B8B8B8B8B8B8B8B8B8B8B8B8B8B8B8B8B8B8B8B8B8B8B8B8B8B8B8B8B8B8B8B8B8B8B8B8B8B8B8B8B8B8B8B8B8B8B8B8B8B8B8B8B8B8B8B8B8B8B8B8B8B8B8B8B8B8B8B8B8B8B8B8B8B8B8B8B8B8B8B8B8B8B8B8B8B8B8B8B8B8B8B8B8B8B8B8B8B8B8B8B8B8B8B8B8B8B8B8
310
B8B8B8B8B8B8B8B8B8B8B8B8B8B8B8B8B8B8B8B8B8B8B8B8B8B8B8B8B8B8B8B8B8B8B8B8B8B8B8B8B8B8B8B8B8B8B8B8B8B8B8B8B8B8B8B8B8B8B8B8B8B8B8B8B8B8B8B8B8B8B8B8B8B8B8B8B8B8B8B8B8B8B8B8B8B8B8B8B8B8B8B8B8B8B8B8B8B8B8B8B8B8B8B8B8B8B8B8B8B8B8B8B8B8B8B8B8B8B8B8B8B8B8B8B8B8B8
310
B8B8B8B8B8B8B8B8B8B8B8B8B8B8B8B8B8B8B8B8B8B8B8B8B8B8B8B8B8B8B8B8B8B8B8B8B8B8B8B8B8B8B8B8B8B8B8B8B8B8B8B8B8B8B8B8B8B8B8B8B8B8B8B8B8B8B8B8B8B8B8B8B8B8B8B8B8B8B8B8B8B8B8B8B8B8B8B8B8B8B8B8B8B8B8B8B8B8B8B8B8B8B8B8B8B8B8B8B8B8B8B8B8B8B8B8B8B8B8B8B8B8B8B8B8B8B8
310
B8B8B8B8B8B8B8B8B8B8B8B8B8B8B8B8B8B8B8B8B8B8B8B8B8B8B8B8B8B8B8B8B8B8B8B8B8B8B8B8B8B8B8B8B8B8B8B8B8B8B8B8B8B8B8B8B8B8B8B8B8B8B8B8B8B8B8B8B8B8B8B8B8B8B8B8B8B8B8B8B8B8B8B8B8B8B8B8B8B8B8B8B8B8B8B8B8B8B8B8B8B8B8B8B8B8B8B8B8B8B8B8B8B8B8B8B8B8B8B8B8B8B8B8B8B8B8
310
B8B8B8B8B8B8B8B8B8B8B8B8B8B8B8B8B8B8B8B8B8B8B8B8B8B8B8B8B8B8B8B8B8B8B8B8B8B8B8B8B8B8B8B8B8B8B8B8B8B8B8B8B8B8B8B8B8B8B8B8B8B8B8B8B8B8B8B8B8B8B8B8B8B8B8B8B8B8B8B8B8B8B8B8B8B8B8B8B8B8B8B8B8B8B8B8B8B8B8B8B8B8B8B8B8B8B8B8B8B8B8B8B8B8B8B8B8B8B8B8B8B8B8B8B8B8B8
310
B8B8B8B8B8B8B8B8B8B8B8B8B8B8B8B8B8B8B8B8B8B8B8B8B8B8B8B8B8B8B8B8B8B8B8B8B8B8B8B8B8B8B8B8B8B8B8B8B8B8B8B8B8B8B8B8B8B8B8B8B8B8B8B8B8B8B8B8B8B8B8B8B8B8B8B8B8B8B8B8B8B8B8B8B8B8B8B8B8B8B8B8B8B8B8B8B8B8B8B8B8B8B8B8B8B8B8B8B8B8B8B8B8B8B8B8B8B8B8B8B8B8B8B8B8B8B8
310
B8B8B8B8B8B8B8B8B8B8B8B8B8B8B8B8B8B8B8B8B8B8B8B8B8B8B8B8B8B8B8B8B8B8B8B8B8B8B8B8B8B8B8B8B8B8B8B8B8B8B8B8B8B8B8B8B8B8B8B8B8B8B8B8B8B8B8B8B8B8B8B8B8B8B8B8B8B8B8B8B8B8B8B8B8B8B8B8B8B8B8B8B8B8B8B8B8B8B8B8B8B8B8B8B8B8B8B8B8B8B8B8B8B8B8B8B8B8B8B8B8B8B8B8B8B8B8
310
B8B8B8B8B8B8B8B8B8B8B8B8B8B8B8B8B8B8B8B8B8B8B8B8B8B8B8B8B8B8B8B8B8B8B8B8B8B8B8B8B8B8B8B8B8B8B8B8B8B8B8B8B8B8B8B8B8B8B8B8B8B8B8B8B8B8B8B8B8B8B8B8B8B8B8B8B8B8B8B8B8B8B8B8B8B8B8B8B8B8B8B8B8B8B8B8B8B8B8B8B8B8B8B8B8B8B8B8B8B8B8B8B8B8B8B8B8B8B8B8B8B8B8B8B8B8B8
310
B8B8B8B8B8B8B8B8B8B8B8B8B8B8B8B8B8B8B8B8B8B8B8B8B8B8B8B8B8B8B8B8B8B8B8B8B8B8B8B8B8B8B8B8B8B8B8B8B8B8B8B8B8B8B8B8B8B8B8B8B8B8B8B8B8B8B8B8B8B8B8B8B8B8B8B8B8B8B8B8B8B8B8B8B8B8B8B8B8B8B8B8B8B8B8B8B8B8B8B8B8B8B8B8B8B8B8B8B8B8B8B8B8B8B8B8B8B8B8B8B8B8B8B8B8B8B8
310
B8B8B8B8B8B8B8B8B8B8B8B8B8B8B8B8B8B8B8B8B8B8B8B8B8B8B8B8B8B8B8B8B8B8B8B8B8B8B8B8B8B8B8B8B8B8B8B8B8B8B8B8B8B8B8B8B8B8B8B8B8B8B8B8B8B8B8B8B8B8B8B8B8B8B8B8B8B8B8B8B8B8B8B8B8B8B8B8B8B8B8B8B8B8B8B8B8B8B8B8B8B8B8B8B8B8B8B8B8B8B8B8B8B8B8B8B8B8B8B8B8B8B8B8B8B8B8
310
B8B8B8B8B8B8B8B8B8B8B8B8B8B8B8B8B8B8B8B8B8B8B8B8B8B8B8B8B8B8B8B8B8B8B8B8B8B8B8B8B8B8B8B8B8B8B8B8B8B8B8B8B8B8B8B8B8B8B8B8B8B8B8B8B8B8B8B8B8B8B8B8B8B8B8B8B8B8B8B8B8B8B8B8B8B8B8B8B8B8B8B8B8B8B8B8B8B8B8B8B8B8B8B8B8B8B8B8B8B8B8B8B8B8B8B8B8B8B8B8B8B8B8B8B8B8B8
310
B8B8B8B8B8B8B8B8B8B8B8B8B8B8B8B8B8B8B8B8B8B8B8B8B8B8B8B8B8B8B8B8B8B8B8B8B8B8B8B8B8B8B8B8B8B8B8B8B8B8B8B8B8B8B8B8B8B8B8B8B8B8B8B8B8B8B8B8B8B8B8B8B8B8B8B8B8B8B8B8B8B8B8B8B8B8B8B8B8B8B8B8B8B8B8B8B8B8B8B8B8B8B8B8B8B8B8B8B8B8B8B8B8B8B8B8B8B8B8B8B8B8B8B8B8B8B8
310
B8B8B8B8B8B8B8B8B8B8B8B8B8B8B8B8B8B8B8B8B8B8B8B8B8B8B8B8B8B8B8B8B8B8B8B8B8B8B8B8B8B8B8B8B8B8B8B8B8B8B8B8B8B8B8B8B8B8B8B8B8B8B8B8B8B8B8B8B8B8B8B8B8B8B8B8B8B8B8B8B8B8B8B8B8B8B8B8B8B8B8B8B8B8B8B8B8B8B8B8B8B8B8B8B8B8B8B8B8B8B8B8B8B8B8B8B8B8B8B8B8B8B8B8B8B8B8
310
B8B8B8B8B8B8B8B8B8B8B8B8B8B8B8B8B8B8B8B8B8B8B8B8B8B8B8B8B8B8B8B8B8B8B8B8B8B8B8B8B8B8B8B8B8B8B8B8B8B8B8B8B8B8B8B8B8B8B8B8B8B8B8B8B8B8B8B8B8B8B8B8B8B8B8B8B8B8B8B8B8B8B8B8B8B8B8B8B8B8B8B8B8B8B8B8B8B8B8B8B8B8B8B8B8B8B8B8B8B8B8B8B8B8B8B8B8B8B8B8B8B8B8B8B8B8B8
310
B8B8B8B8B8B8B8B8B8B8B8B8B8B8B8B8B8B8B8B8B8B8B8B8B8B8B8B8B8B8B8B8B8B8B8B8B8B8B8B8B8B8B8B8B8B8B8B8B8B8B8B8B8B8B8B8B8B8B8B8B8B8B8B8B8B8B8B8B8B8B8B8B8B8B8B8B8B8B8B8B8B8B8B8B8B8B8B8B8B8B8B8B8B8B8B8B8B8B8B8B8B8B8B8B8B8B8B8B8B8B8B8B8B8B8B8B8B8B8B8B8B8B8B8B8B8B8
310
B8B8B8B8B8B8B8B8B8B8B8B8B8B8B8B8B8B8B8B8B8B8B8B8B8B8B8B8B8B8B8B8B8B8B8B8B8B8B8B8B8B8B8B8B8B8B8B8B8B8B8B8B8B8B8B8B8B8B8B8B8B8B8B8B8B8B8B8B8B8B8B8B8B8B8B8B8B8B8B8B8B8B8B8B8B8B8B8B8B8B8B8B8B8B8B8B8B8B8B8B8B8B8B8B8B8B8B8B8B8B8B8B8B8B8B8B8B8B8B8B8B8B8B8B8B8B8
310
B8B8B8B8B8B8B8B8B8B8B8B8B8B8B8B8B8B8B8B8B8B8B8B8B8B8B8B8B8B8B8B8B8B8B8B8B8B8B8B8B8B8B8B8B8B8B8B8B8B8B8B8B8B8B8B8B8B8B8B8B8B8B8B8B8B8B8B8B8B8B8B8B8B8B8B8B8B8B8B8B8B8B8B8B8B8B8B8B8B8B8B8B8B8B8B8B8B8B8B8B8B8B8B8B8B8B8B8B8B8B8B8B8B8B8B8B8B8B8B8B8B8B8B8B8B8B8
310
B8B8B8B8B8B8B8B8B8B8B8B8B8B8B8B8B8B8B8B8B8B8B8B8B8B8B8B8B8B8B8B8B8B8B8B8B8B8B8B8B8B8B8B8B8B8B8B8B8B8B8B8B8B8B8B8B8B8B8B8B8B8B8B8B8B8B8B8B8B8B8B8B8B8B8B8B8B8B8B8B8B8B8B8B8B8B8B8B8B8B8B8B8B8B8B8B8B8B8B8B8B8B8B8B8B8B8B8B8B8B8B8B8B8B8B8B8B8B8B8B8B8B8B8B8B8B8
310
B8B8B8B8B8B8B8B8B8B8B8B8B8B8B8B8B8B8B8B8B8B8B8B8B8B8B8B8B8B8B8B8B8B8B8B8B8B8B8B8B8B8B8B8B8B8B8B8B8B8B8B8B8B8B8B8B8B8B8B8B8B8B8B8B8B8B8B8B8B8B8B8B8B8B8B8B8B8B8B8B8B8B8B8B8B8B8B8B8B8B8B8B8B8B8B8B8B8B8B8B8B8B8B8B8B8B8B8B8B8B8B8B8B8B8B8B8B8B8B8B8B8B8B8B8B8B8
310
B8B8B8B8B8B8B8B8B8B8B8B8B8B8B8B8B8B8B8B8B8B8B8B8B8B8B8B8B8B8B8B8B8B8B8B8B8B8B8B8B8B8B8B8B8B8B8B8B8B8B8B8B8B8B8B8B8B8B8B8B8B8B8B8B8B8B8B8B8B8B8B8B8B8B8B8B8B8B8B8B8B8B8B8B8B8B8B8B8B8B8B8B8B8B8B8B8B8B8B8B8B8B8B8B8B8B8B8B8B8B8B8B8B8B8B8B8B8B8B8B8B8B8B8B8B8B8
310
B8B8B8B8B8B8B8B8B8B8B8B8B8B8B8B8B8B8B8B8B8B8B8B8B8B8B8B8B8B8B8B8B8B8B8B8B8B8B8B8B8B8B8B8B8B8B8B8B8B8B8B8B8B8B8B8B8B8B8B8B8B8B8B8B8B8B8B8B8B8B8B8B8B8B8B8B8B8B8B8B8B8B8B8B8B8B8B8B8B8B8B8B8B8B8B8B8B8B8B8B8B8B8B8B8B8B8B8B8B8B8B8B8B8B8B8B8B8B8B8B8B8B8B8B8B8B8
310
B8B8B8B8B8B8B8B8B8B8B8B8B8B8B8B8B8B8B8B8B8B8B8B8B8B8B8B8B8B8B8B8B8B8B8B8B8B8B8B8B8B8B8B8B8B8B8B8B8B8B8B8B8B8B8B8B8B8B8B8B8B8B8B8B8B8B8B8B8B8B8B8B8B8B8B8B8B8B8B8B8B8B8B8B8B8B8B8B8B8B8B8B8B8B8B8B8B8B8B8B8B8B8B8B8B8B8B8B8B8B8B8B8B8B8B8B8B8B8B8B8B8B8B8B8B8B8
310
B8B8B8B8B8B8B8B8B8B8B8B8B8B8B8B8B8B8B8B8B8B8B8B8B8B8B8B8B8B8B8B8B8B8B8B8B8B8B8B8B8B8B8B8B8B8B8B8B8B8B8B8B8B8B8B8B8B8B8B8B8B8B8B8B8B8B8B8B8B8B8B8B8B8B8B8B8B8B8B8B8B8B8B8B8B8B8B8B8B8B8B8B8B8B8B8B8B8B8B8B8B8B8B8B8B8B8B8B8B8B8B8B8B8B8B8B8B8B8B8B8B8B8B8B8B8B8
310
B8B8B8B8B8B8B8B8B8B8B8B8B8B8B8B8B8B8B8B8B8B8B8B8B8B8B8B8B8B8B8B8B8B8B8B8B8B8B8B8B8B8B8B8B8B8B8B8B8B8B8B8B8B8B8B8B8B8B8B8B8B8B8B8B8B8B8B8B8B8B8B8B8B8B8B8B8B8B8B8B8B8B8B8B8B8B8B8B8B8B8B8B8B8B8B8B8B8B8B8B8B8B8B8B8B8B8B8B8B8B8B8B8B8B8B8B8B8B8B8B8B8B8B8B8B8B8
310
B8B8B8B8B8B8B8B8B8B8B8B8B8B8B8B8B8B8B8B8B8B8B8B8B8B8B8B8B8B8B8B8B8B8B8B8B8B8B8B8B8B8B8B8B8B8B8B8B8B8B8B8B8B8B8B8B8B8B8B8B8B8B8B8B8B8B8B8B8B8B8B8B8B8B8B8B8B8B8B8B8B8B8B8B8B8B8B8B8B8B8B8B8B8B8B8B8B8B8B8B8B8B8B8B8B8B8B8B8B8B8B8B8B8B8B8B8B8B8B8B8B8B8B8B8B8B8
310
B8B8B8B8B8B8B8B8B8B8B8B8B8B8B8B8B8B8B8B8B8B8B8B8B8B8B8B8B8B8B8B8B8B8B8B8B8B8B8B8B8B8B8B8B8B8B8B8B8B8B8B8B8B8B8B8B8B8B8B8B8B8B8B8B8B8B8B8B8B8B8B8B8B8B8B8B8B8B8B8B8B8B8B8B8B8B8B8B8B8B8B8B8B8B8B8B8B8B8B8B8B8B8B8B8B8B8B8B8B8B8B8B8B8B8B8B8B8B8B8B8B8B8B8B8B8B8
310
B8B8B8B8B8B8B8B8B8B8B8B8B8B8B8B8B8B8B8B8B8B8B8B8B8B8B8B8B8B8B8B8B8B8B8B8B8B8B8B8B8B8B8B8B8B8B8B8B8B8B8B8B8B8B8B8B8B8B8B8B8B8B8B8B8B8B8B8B8B8B8B8B8B8B8B8B8B8B8B8B8B8B8B8B8B8B8B8B8B8B8B8B8B8B8B8B8B8B8B8B8B8B8B8B8B8B8B8B8B8B8B8B8B8B8B8B8B8B8B8B8B8B8B8B8B8B8
310
B8B8B8B8B8B8B8B8B8B8B8B8B8B8B8B8B8B8B8B8B8B8B8B8B8B8B8B8B8B8B8B8B8B8B8B8B8B8B8B8B8B8B8B8B8B8B8B8B8B8B8B8B8B8B8B8B8B8B8B8B8B8B8B8B8B8B8B8B8B8B8B8B8B8B8B8B8B8B8B8B8B8B8B8B8B8B8B8B8B8B8B8B8B8B8B8B8B8B8B8B8B8B8B8B8B8B8B8B8B8B8B8B8B8B8B8B8B8B8B8B8B8B8B8B8B8B8
310
B8B8B8B8B8B8B8B8B8B8B8B8B8B8B8B8B8B8B8B8B8B8B8B8B8B8B8B8B8B8B8B8B8B8B8B8B8B8B8B8B8B8B8B8B8B8B8B8B8B8B8B8B8B8B8B8B8B8B8B8B8B8B8B8B8B8B8B8B8B8B8B8B8B8B8B8B8B8B8B8B8B8B8B8B8B8B8B8B8B8B8B8B8B8B8B8B8B8B8B8B8B8B8B8B8B8B8B8B8B8B8B8B8B8B8B8B8B8B8B8B8B8B8B8B8B8B8
310
B8B8B8B8B8B8B8B8B8B8B8B8B8B8B8B8B8B8B8B8B8B8B8B8B8B8B8B8B8B8B8B8B8B8B8B8B8B8B8B8B8B8B8B8B8B8B8B8B8B8B8B8B8B8B8B8B8B8B8B8B8B8B8B8B8B8B8B8B8B8B8B8B8B8B8B8B8B8B8B8B8B8B8B8B8B8B8B8B8B8B8B8B8B8B8B8B8B8B8B8B8B8B8B8B8B8B8B8B8B8B8B8B8B8B8B8B8B8B8B8B8B8B8B8B8B8B8
310
B8B8B8B8B8B8B8B8B8B8B8B8B8B8B8B8B8B8B8B8B8B8B8B8B8B8B8B8B8B8B8B8B8B8B8B8B8B8B8B8B8B8B8B8B8B8B8B8B8B8B8B8B8B8B8B8B8B8B8B8B8B8B8B8B8B8B8B8B8B8B8B8B8B8B8B8B8B8B8B8B8B8B8B8B8B8B8B8B8B8B8B8B8B8B8B8B8B8B8B8B8B8B8B8B8B8B8B8B8B8B8B8B8B8B8B8B8B8B8B8B8B8B8B8B8B8B8
310
B8B8B8B8B8B8B8B8B8B8B8B8B8B8B8B8B8B8B8B8B8B8B8B8B8B8B8B8B8B8B8B8B8B8B8B8B8B8B8B8B8B8B8B8B8B8B8B8B8B8B8B8B8B8B8B8B8B8B8B8B8B8B8B8B8B8B8B8B8B8B8B8B8B8B8B8B8B8B8B8B8B8B8B8B8B8B8B8B8B8B8B8B8B8B8B8B8B8B8B8B8B8B8B8B8B8B8B8B8B8B8B8B8B8B8B8B8B8B8B8B8B8B8B8B8B8B8
310
B8B8B8B8B8B8B8B8B8B8B8B8B8B8B8B8B8B8B8B8B8B8B8B8B8B8B8B8B8B8B8B8B8B8B8B8B8B8B8B8B8B8B8B8B8B8B8B8B8B8B8B8B8B8B8B8B8B8B8B8B8B8B8B8B8B8B8B8B8B8B8B8B8B8B8B8B8B8B8B8B8B8B8B8B8B8B8B8B8B8B8B8B8B8B8B8B8B8B8B8B8B8B8B8B8B8B8B8B8B8B8B8B8B8B8B8B8B8B8B8B8B8B8B8B8B8B8
310
B8B8B8B8B8B8B8B8B8B8B8B8B8B8B8B8B8B8B8B8B8B8B8B8B8B8B8B8B8B8B8B8B8B8B8B8B8B8B8B8B8B8B8B8B8B8B8B8B8B8B8B8B8B8B8B8B8B8B8B8B8B8B8B8B8B8B8B8B8B8B8B8B8B8B8B8B8B8B8B8B8B8B8B8B8B8B8B8B8B8B8B8B8B8B8B8B8B8B8B8B8B8B8B8B8B8B8B8B8B8B8B8B8B8B8B8B8B8B8B8B8B8B8B8B8B8B8
310
B8B8B8B8B8B8B8B8B8B8B8B8B8B8B8B8B8B8B8B8B8B8B8B8B8B8B8B8B8B8B8B8B8B8B8B8B8B8B8B8B8B8B8B8B8B8B8B8B8B8B8B8B8B8B8B8B8B8B8B8B8B8B8B8B8B8B8B8B8B8B8B8B8B8B8B8B8B8B8B8B8B8B8B8B8B8B8B8B8B8B8B8B8B8B8B8B8B8B8B8B8B8B8B8B8B8B8B8B8B8B8B8B8B8B8B8B8B8B8B8B8B8B8B8B8B8B8
310
B8B8B8B8B8B8B8B8B8B8B8B8B8B8B8B8B8B8B8B8B8B8B8B8B8B8B8B8B8B8B8B8B8B8B8B8B8B8B8B8B8B8B8B8B8B8B8B8B8B8B8B8B8B8B8B8B8B8B8B8B8B8B8B8B8B8B8B8B8B8B8B8B8B8B8B8B8B8B8B8B8B8B8B8B8B8B8B8B8B8B8B8B8B8B8B8B8B8B8B8B8B8B8B8B8B8B8B8B8B8B8B8B8B8B8B8B8B8B8B8B8B8B8B8B8B8B8
310
B8B8B8B8B8B8B8B8B8B8B8B8B8B8B8B8B8B8B8B8B8B8B8B8B8B8B8B8B8B8B8B8B8B8B8B8B8B8B8B8B8B8B8B8B8B8B8B8B8B8B8B8B8B8B8B8B8B8B8B8B8B8B8B8B8B8B8B8B8B8B8B8B8B8B8B8B8B8B8B8B8B8B8B8B8B8B8B8B8B8B8B8B8B8B8B8B8B8B8B8B8B8B8B8B8B8B8B8B8B8B8B8B8B8B8B8B8B8B8B8B8B8B8B8B8B8B8
310
B8B8B8B8B8B8B8B8B8B8B8B8B8B8B8B8B8B8B8B8B8B8B8B8B8B8B8B8B8B8B8B8B8B8B8B8B8B8B8B8B8B8B8B8B8B8B8B8B8B8B8B8B8B8B8B8B8B8B8B8B8B8B8B8B8B8B8B8B8B8B8B8B8B8B8B8B8B8B8B8B8B8B8B8B8B8B8B8B8B8B8B8B8B8B8B8B8B8B8B8B8B8B8B8B8B8B8B8B8B8B8B8B8B8B8B8B8B8B8B8B8B8B8B8B8B8B8
310
B8B8B8B8B8B8B8B8B8B8B8B8B8B8B8B8B8B8B8B8B8B8B8B8B8B8B8B8B8B8B8B8B8B8B8B8B8B8B8B8B8B8B8B8B8B8B8B8B8B8B8B8B8B8B8B8B8B8B8B8B8B8B8B8B8B8B8B8B8B8B8B8B8B8B8B8B8B8B8B8B8B8B8B8B8B8B8B8B8B8B8B8B8B8B8B8B8B8B8B8B8B8B8B8B8B8B8B8B8B8B8B8B8B8B8B8B8B8B8B8B8B8B8B8B8B8B8
310
B8B8B8B8B8B8B8B8B8B8B8B8B8B8B8B8B8B8B8B8B8B8B8B8B8B8B8B8B8B8B8B8B8B8B8B8B8B8B8B8B8B8B8B8B8B8B8B8B8B8B8B8B8B8B8B8B8B8B8B8B8B8B8B8B8B8B8B8B8B8B8B8B8B8B8B8B8B8B8B8B8B8B8B8B8B8B8B8B8B8B8B8B8B8B8B8B8B8B8B8B8B8B8B8B8B8B8B8B8B8B8B8B8B8B8B8B8B8B8B8B8B8B8B8B8B8B8
310
B8B8B8B8B8B8B8B8B8B8B8B8B8B8B8B8B8B8B8B8B8B8B8B8B8B8B8B8B8B8B8B8B8B8B8B8B8B8B8B8B8B8B8B8B8B8B8B8B8B8B8B8B8B8B8B8B8B8B8B8B8B8B8B8B8B8B8B8B8B8B8B8B8B8B8B8B8B8B8B8B8B8B8B8B8B8B8B8B8B8B8B8B8B8B8B8B8B8B8B8B8B8B8B8B8B8B8B8B8B8B8B8B8B8B8B8B8B8B8B8B8B8B8B8B8B8B8
310
B8B8B8B8B8B8B8B8B8B8B8B8B8B8B8B8B8B8B8B8B8B8B8B8B8B8B8B8B8B8B8B8B8B8B8B8B8B8B8B8B8B8B8B8B8B8B8B8B8B8B8B8B8B8B8B8B8B8B8B8B8B8B8B8B8B8B8B8B8B8B8B8B8B8B8B8B8B8B8B8B8B8B8B8B8B8B8B8B8B8B8B8B8B8B8B8B8B8B8B8B8B8B8B8B8B8B8B8B8B8B8B8B8B8B8B8B8B8B8B8B8B8B8B8B8B8B8
310
B8B8B8B8B8B8B8B8B8B8B8B8B8B8B8B8B8B8B8B8B8B8B8B8B8B8B8B8B8B8B8B8B8B8B8B8B8B8B8B8B8B8B8B8B8B8B8B8B8B8B8B8B8B8B8B8B8B8B8B8B8B8B8B8B8B8B8B8B8B8B8B8B8B8B8B8B8B8B8B8B8B8B8B8B8B8B8B8B8B8B8B8B8B8B8B8B8B8B8B8B8B8B8B8B8B8B8B8B8B8B8B8B8B8B8B8B8B8B8B8B8B8B8B8B8B8B8
310
B8B8B8B8B8B8B8B8B8B8B8B8B8B8B8B8B8B8B8B8B8B8B8B8B8B8B8B8B8B8B8B8B8B8B8B8B8B8B8B8B8B8B8B8B8B8B8B8B8B8B8B8B8B8B8B8B8B8B8B8B8B8B8B8B8B8B8B8B8B8B8B8B8B8B8B8B8B8B8B8B8B8B8B8B8B8B8B8B8B8B8B8B8B8B8B8B8B8B8B8B8B8B8B8B8B8B8B8B8B8B8B8B8B8B8B8B8B8B8B8B8B8B8B8B8B8B8
310
B8B8B8B8B8B8B8B8B8B8B8B8B8B8B8B8B8B8B8B8B8B8B8B8B8B8B8B8B8B8B8B8B8B8B8B8B8B8B8B8B8B8B8B8B8B8B8B8B8B8B8B8B8B8B8B8B8B8B8B8B8B8B8B8B8B8B8B8B8B8B8B8B8B8B8B8B8B8B8B8B8B8B8B8B8B8B8B8B8B8B8B8B8B8B8B8B8B8B8B8B8B8B8B8B8B8B8B8B8B8B8B8B8B8B8B8B8B8B8B8B8B8B8B8B8B8B8
310
B8B8B8B8B8B8B8B8B8B8B8B8B8B8B8B8B8B8B8B8B8B8B8B8B8B8B8B8B8B8B8B8B8B8B8B8B8B8B8B8B8B8B8B8B8B8B8B8B8B8B8B8B8B8B8B8B8B8B8B8B8B8B8B8B8B8B8B8B8B8B8B8B8B8B8B8B8B8B8B8B8B8B8B8B8B8B8B8B8B8B8B8B8B8B8B8B8B8B8B8B8B8B8B8B8B8B8B8B8B8B8B8B8B8B8B8B8B8B8B8B8B8B8B8B8B8B8
310
B8B8B8B8B8B8B8B8B8B8B8B8B8B8B8B8B8B8B8B8B8B8B8B8B8B8B8B8B8B8B8B8B8B8B8B8B8B8B8B8B8B8B8B8B8B8B8B8B8B8B8B8B8B8B8B8B8B8B8B8B8B8B8B8B8B8B8B8B8B8B8B8B8B8B8B8B8B8B8B8B8B8B8B8B8B8B8B8B8B8B8B8B8B8B8B8B8B8B8B8B8B8B8B8B8B8B8B8B8B8B8B8B8B8B8B8B8B8B8B8B8B8B8B8B8B8B8
310
B8B8B8B8B8B8B8B8B8B8B8B8B8B8B8B8B8B8B8B8B8B8B8B8B8B8B8B8B8B8B8B8B8B8B8B8B8B8B8B8B8B8B8B8B8B8B8B8B8B8B8B8B8B8B8B8B8B8B8B8B8B8B8B8B8B8B8B8B8B8B8B8B8B8B8B8B8B8B8B8B8B8B8B8B8B8B8B8B8B8B8B8B8B8B8B8B8B8B8B8B8B8B8B8B8B8B8B8B8B8B8B8B8B8B8B8B8B8B8B8B8B8B8B8B8B8B8
310
B8B8B8B8B8B8B8B8B8B8B8B8B8B8B8B8B8B8B8B8B8B8B8B8B8B8B8B8B8B8B8B8B8B8B8B8B8B8B8B8B8B8B8B8B8B8B8B8B8B8B8B8B8B8B8B8B8B8B8B8B8B8B8B8B8B8B8B8B8B8B8B8B8B8B8B8B8B8B8B8B8B8B8B8B8B8B8B8B8B8B8B8B8B8B8B8B8B8B8B8B8B8B8B8B8B8B8B8B8B8B8B8B8B8B8B8B8B8B8B8B8B8B8B8B8B8B8
310
B8B8B8B8B8B8B8B8B8B8B8B8B8B8B8B8B8B8B8B8B8B8B8B8B8B8B8B8B8B8B8B8B8B8B8B8B8B8B8B8B8B8B8B8B8B8B8B8B8B8B8B8B8B8B8B8B8B8B8B8B8B8B8B8B8B8B8B8B8B8B8B8B8B8B8B8B8B8B8B8B8B8B8B8B8B8B8B8B8B8B8B8B8B8B8B8B8B8B8B8B8B8B8B8B8B8B8B8B8B8B8B8B8B8B8B8B8B8B8B8B8B8B8B8B8B8B8
310
B8B8B8B8B8B8B8B8B8B8B8B8B8B8B8B8B8B8B8B8B8B8B8B8B8B8B8B8B8B8B8B8B8B8B8B8B8B8B8B8B8B8B8B8B8B8B8B8B8B8B8B8B8B8B8B8B8B8B8B8B8B8B8B8B8B8B8B8B8B8B8B8B8B8B8B8B8B8B8B8B8B8B8B8B8B8B8B8B8B8B8B8B8B8B8B8B8B8B8B8B8B8B8B8B8B8B8B8B8B8B8B8B8B8B8B8B8B8B8B8B8B8B8B8B8B8B8
310
B8B8B8B8B8B8B8B8B8B8B8B8B8B8B8B8B8B8B8B8B8B8B8B8B8B8B8B8B8B8B8B8B8B8B8B8B8B8B8B8B8B8B8B8B8B8B8B8B8B8B8B8B8B8B8B8B8B8B8B8B8B8B8B8B8B8B8B8B8B8B8B8B8B8B8B8B8B8B8B8B8B8B8B8B8B8B8B8B8B8B8B8B8B8B8B8B8B8B8B8B8B8B8B8B8B8B8B8B8B8B8B8B8B8B8B8B8B8B8B8B8B8B8B8B8B8B8
310
B8B8B8B8B8B8B8B8B8B8B8B8B8B8B8B8B8B8B8B8B8B8B8B8B8B8B8B8B8B8B8B8B8B8B8B8B8B8B8B8B8B8B8B8B8B8B8B8B8B8B8B8B8B8B8B8B8B8B8B8B8B8B8B8B8B8B8B8B8B8B8B8B8B8B8B8B8B8B8B8B8B8B8B8B8B8B8B8B8B8B8B8B8B8B8B8B8B8B8B8B8B8B8B8B8B8B8B8B8B8B8B8B8B8B8B8B8B8B8B8B8B8B8B8B8B8B8
310
B8B8B8B8B8B8B8B8B8B8B8B8B8B8B8B8B8B8B8B8B8B8B8B8B8B8B8B8B8B8B8B8B8B8B8B8B8B8B8B8B8B8B8B8B8B8B8B8B8B8B8B8B8B8B8B8B8B8B8B8B8B8B8B8B8B8B8B8B8B8B8B8B8B8B8B8B8B8B8B8B8B8B8B8B8B8B8B8B8B8B8B8B8B8B8B8B8B8B8B8B8B8B8B8B8B8B8B8B8B8B8B8B8B8B8B8B8B8B8B8B8B8B8B8B8B8B8
310
B8B8B8B8B8B8B8B8B8B8B8B8B8B8B8B8B8B8B8B8B8B8B8B8B8B8B8B8B8B8B8B8B8B8B8B8B8B8B8B8B8B8B8B8B8B8B8B8B8B8B8B8B8B8B8B8B8B8B8B8B8B8B8B8B8B8B8B8B8B8B8B8B8B8B8B8B8B8B8B8B8B8B8B8B8B8B8B8B8B8B8B8B8B8B8B8B8B8B8B8B8B8B8B8B8B8B8B8B8B8B8B8B8B8B8B8B8B8B8B8B8B8B8B8B8B8B8
310
B8B8B8B8B8B8B8B8B8B8B8B8B8B8B8B8B8B8B8B8B8B8B8B8B8B8B8B8B8B8B8B8B8B8B8B8B8B8B8B8B8B8B8B8B8B8B8B8B8B8B8B8B8B8B8B8B8B8B8B8B8B8B8B8B8B8B8B8B8B8B8B8B8B8B8B8B8B8B8B8B8B8B8B8B8B8B8B8B8B8B8B8B8B8B8B8B8B8B8B8B8B8B8B8B8B8B8B8B8B8B8B8B8B8B8B8B8B8B8B8B8B8B8B8B8B8B8
310
B8B8B8B8B8B8B8B8B8B8B8B8B8B8B8B8B8B8B8B8B8B8B8B8B8B8B8B8B8B8B8B8B8B8B8B8B8B8B8B8B8B8B8B8B8B8B8B8B8B8B8B8B8B8B8B8B8B8B8B8B8B8B8B8B8B8B8B8B8B8B8B8B8B8B8B8B8B8B8B8B8B8B8B8B8B8B8B8B8B8B8B8B8B8B8B8B8B8B8B8B8B8B8B8B8B8B8B8B8B8B8B8B8B8B8B8B8B8B8B8B8B8B8B8B8B8B8
310
B8B8B8B8B8B8B8B8B8B8B8B8B8B8B8B8B8B8B8B8B8B8B8B8B8B8B8B8B8B8B8B8B8B8B8B8B8B8B8B8B8B8B8B8B8B8B8B8B8B8B8B8B8B8B8B8B8B8B8B8B8B8B8B8B8B8B8B8B8B8B8B8B8B8B8B8B8B8B8B8B8B8B8B8B8B8B8B8B8B8B8B8B8B8B8B8B8B8B8B8B8B8B8B8B8B8B8B8B8B8B8B8B8B8B8B8B8B8B8B8B8B8B8B8B8B8B8
310
B8B8B8B8B8B8B8B8B8B8B8B8B8B8B8B8B8B8B8B8B8B8B8B8B8B8B8B8B8B8B8B8B8B8B8B8B8B8B8B8B8B8B8B8B8B8B8B8B8B8B8B8B8B8B8B8B8B8B8B8B8B8B8B8B8B8B8B8B8B8B8B8B8B8B8B8B8B8B8B8B8B8B8B8B8B8B8B8B8B8B8B8B8B8B8B8B8B8B8B8B8B8B8B8B8B8B8B8B8B8B8B8B8B8B8B8B8B8B8B8B8B8B8B8B8B8B8
310
B8B8B8B8B8B8B8B8B8B8B8B8B8B8B8B8B8B8B8B8B8B8B8B8B8B8B8B8B8B8B8B8B8B8B8B8B8B8B8B8B8B8B8B8B8B8B8B8B8B8B8B8B8B8B8B8B8B8B8B8B8B8B8B8B8B8B8B8B8B8B8B8B8B8B8B8B8B8B8B8B8B8B8B8B8B8B8B8B8B8B8B8B8B8B8B8B8B8B8B8B8B8B8B8B8B8B8B8B8B8B8B8B8B8B8B8B8B8B8B8B8B8B8B8B8B8B8
310
B8B8B8B8B8B8B8B8B8B8B8B8B8B8B8B8B8B8B8B8B8B8B8B8B8B8B8B8B8B8B8B8B8B8B8B8B8B8B8B8B8B8B8B8B8B8B8B8B8B8B8B8B8B8B8B8B8B8B8B8B8B8B8B8B8B8B8B8B8B8B8B8B8B8B8B8B8B8B8B8B8B8B8B8B8B8B8B8B8B8B8B8B8B8B8B8B8B8B8B8B8B8B8B8B8B8B8B8B8B8B8B8B8B8B8B8B8B8B8B8B8B8B8B8B8B8B8
310
B8B8B8B8B8B8B8B8B8B8B8B8B8B8B8B8B8B8B8B8B8B8B8B8B8B8B8B8B8B8B8B8B8B8B8B8B8B8B8B8B8B8B8B8B8B8B8B8B8B8B8B8B8B8B8B8B8B8B8B8B8B8B8B8B8B8B8B8B8B8B8B8B8B8B8B8B8B8B8B8B8B8B8B8B8B8B8B8B8B8B8B8B8B8B8B8B8B8B8B8B8B8B8B8B8B8B8B8B8B8B8B8B8B8B8B8B8B8B8B8B8B8B8B8B8B8B8
310
B8B8B8B8B8B8B8B8B8B8B8B8B8B8B8B8B8B8B8B8B8B8B8B8B8B8B8B8B8B8B8B8B8B8B8B8B8B8B8B8B8B8B8B8B8B8B8B8B8B8B8B8B8B8B8B8B8B8B8B8B8B8B8B8B8B8B8B8B8B8B8B8B8B8B8B8B8B8B8B8B8B8B8B8B8B8B8B8B8B8B8B8B8B8B8B8B8B8B8B8B8B8B8B8B8B8B8B8B8B8B8B8B8B8B8B8B8B8B8B8B8B8B8B8B8B8B8
310
B8B8B8B8B8B8B8B8B8B8B8B8B8B8B8B8B8B8B8B8B8B8B8B8B8B8B8B8B8B8B8B8B8B8B8B8B8B8B8B8B8B8B8B8B8B8B8B8B8B8B8B8B8B8B8B8B8B8B8B8B8B8B8B8B8B8B8B8B8B8B8B8B8B8B8B8B8B8B8B8B8B8B8B8B8B8B8B8B8B8B8B8B8B8B8B8B8B8B8B8B8B8B8B8B8B8B8B8B8B8B8B8B8B8B8B8B8B8B8B8B8B8B8B8B8B8B8
310
B8B8B8B8B8B8B8B8B8B8B8B8B8B8B8B8B8B8B8B8B8B8B8B8B8B8B8B8B8B8B8B8B8B8B8B8B8B8B8B8B8B8B8B8B8B8B8B8B8B8B8B8B8B8B8B8B8B8B8B8B8B8B8B8B8B8B8B8B8B8B8B8B8B8B8B8B8B8B8B8B8B8B8B8B8B8B8B8B8B8B8B8B8B8B8B8B8B8B8B8B8B8B8B8B8B8B8B8B8B8B8B8B8B8B8B8B8B8B8B8B8B8B8B8B8B8B8
310
B8B8B8B8B8B8B8B8B8B8B8B8B8B8B8B8B8B8B8B8B8B8B8B8B8B8B8B8B8B8B8B8B8B8B8B8B8B8B8B8B8B8B8B8B8B8B8B8B8B8B8B8B8B8B8B8B8B8B8B8B8B8B8B8B8B8B8B8B8B8B8B8B8B8B8B8B8B8B8B8B8B8B8B8B8B8B8B8B8B8B8B8B8B8B8B8B8B8B8B8B8B8B8B8B8B8B8B8B8B8B8B8B8B8B8B8B8B8B8B8B8B8B8B8B8B8B8
310
B8B8B8B8B8B8B8B8B8B8B8B8B8B8B8B8B8B8B8B8B8B8B8B8B8B8B8B8B8B8B8B8B8B8B8B8B8B8B8B8B8B8B8B8B8B8B8B8B8B8B8B8B8B8B8B8B8B8B8B8B8B8B8B8B8B8B8B8B8B8B8B8B8B8B8B8B8B8B8B8B8B8B8B8B8B8B8B8B8B8B8B8B8B8B8B8B8B8B8B8B8B8B8B8B8B8B8B8B8B8B8B8B8B8B8B8B8B8B8B8B8B8B8B8B8B8B8
310
B8B8B8B8B8B8B8B8B8B8B8B8B8B8B8B8B8B8B8B8B8B8B8B8B8B8B8B8B8B8B8B8B8B8B8B8B8B8B8B8B8B8B8B8B8B8B8B8B8B8B8B8B8B8B8B8B8B8B8B8B8B8B8B8B8B8B8B8B8B8B8B8B8B8B8B8B8B8B8B8B8B8B8B8B8B8B8B8B8B8B8B8B8B8B8B8B8B8B8B8B8B8B8B8B8B8B8B8B8B8B8B8B8B8B8B8B8B8B8B8B8B8B8B8B8B8B8
310
B8B8B8B8B8B8B8B8B8B8B8B8B8B8B8B8B8B8B8B8B8B8B8B8B8B8B8B8B8B8B8B8B8B8B8B8B8B8B8B8B8B8B8B8B8B8B8B8B8B8B8B8B8B8B8B8B8B8B8B8B8B8B8B8B8B8B8B8B8B8B8B8B8B8B8B8B8B8B8B8B8B8B8B8B8B8B8B8B8B8B8B8B8B8B8B8B8B8B8B8B8B8B8B8B8B8B8B8B8B8B8B8B8B8B8B8B8B8B8B8B8B8B8B8B8B8B8
310
B8B8B8B8B8B8B8B8B8B8B8B8B8B8B8B8B8B8B8B8B8B8B8B8B8B8B8B8B8B8B8B8B8B8B8B8B8B8B8B8B8B8B8B8B8B8B8B8B8B8B8B8B8B8B8B8B8B8B8B8B8B8B8B8B8B8B8B8B8B8B8B8B8B8B8B8B8B8B8B8B8B8B8B8B8B8B8B8B8B8B8B8B8B8B8B8B8B8B8B8B8B8B8B8B8B8B8B8B8B8B8B8B8B8B8B8B8B8B8B8B8B8B8B8B8B8B8
310
B8B8B8B8B8B8B8B8B8B8B8B8B8B8B8B8B8B8B8B8B8B8B8B8B8B8B8B8B8B8B8B8B8B8B8B8B8B8B8B8B8B8B8B8B8B8B8B8B8B8B8B8B8B8B8B8B8B8B8B8B8B8B8B8B8B8B8B8B8B8B8B8B8B8B8B8B8B8B8B8B8B8B8B8B8B8B8B8B8B8B8B8B8B8B8B8B8B8B8B8B8B8B8B8B8B8B8B8B8B8B8B8B8B8B8B8B8B8B8B8B8B8B8B8B8B8B8
310
B8B8B8B8B8B8B8B8B8B8B8B8B8B8B8B8B8B8B8B8B8B8B8B8B8B8B8B8B8B8B8B8B8B8B8B8B8B8B8B8B8B8B8B8B8B8B8B8B8B8B8B8B8B8B8B8B8B8B8B8B8B8B8B8B8B8B8B8B8B8B8B8B8B8B8B8B8B8B8B8B8B8B8B8B8B8B8B8B8B8B8B8B8B8B8B8B8B8B8B8B8B8B8B8B8B8B8B8B8B8B8B8B8B8B8B8B8B8B8B8B8B8B8B8B8B8B8
310
B8B8B8B8B8B8B8B8B8B8B8B8B8B8B8B8B8B8B8B8B8B8B8B8B8B8B8B8B8B8B8B8B8B8B8B8B8B8B8B8B8B8B8B8B8B8B8B8B8B8B8B8B8B8B8B8B8B8B8B8B8B8B8B8B8B8B8B8B8B8B8B8B8B8B8B8B8B8B8B8B8B8B8B8B8B8B8B8B8B8B8B8B8B8B8B8B8B8B8B8B8B8B8B8B8B8B8B8B8B8B8B8B8B8B8B8B8B8B8B8B8B8B8B8B8B8B8
310
B8B8B8B8B8B8B8B8B8B8B8B8B8B8B8B8B8B8B8B8B8B8B8B8B8B8B8B8B8B8B8B8B8B8B8B8B8B8B8B8B8B8B8B8B8B8B8B8B8B8B8B8B8B8B8B8B8B8B8B8B8B8B8B8B8B8B8B8B8B8B8B8B8B8B8B8B8B8B8B8B8B8B8B8B8B8B8B8B8B8B8B8B8B8B8B8B8B8B8B8B8B8B8B8B8B8B8B8B8B8B8B8B8B8B8B8B8B8B8B8B8B8B8B8B8B8B8
310
B8B8B8B8B8B8B8B8B8B8B8B8B8B8B8B8B8B8B8B8B8B8B8B8B8B8B8B8B8B8B8B8B8B8B8B8B8B8B8B8B8B8B8B8B8B8B8B8B8B8B8B8B8B8B8B8B8B8B8B8B8B8B8B8B8B8B8B8B8B8B8B8B8B8B8B8B8B8B8B8B8B8B8B8B8B8B8B8B8B8B8B8B8B8B8B8B8B8B8B8B8B8B8B8B8B8B8B8B8B8B8B8B8B8B8B8B8B8B8B8B8B8B8B8B8B8B8
310
B8B8B8B8B8B8B8B8B8B8B8B8B8B8B8B8B8B8B8B8B8B8B8B8B8B8B8B8B8B8B8B8B8B8B8B8B8B8B8B8B8B8B8B8B8B8B8B8B8B8B8B8B8B8B8B8B8B8B8B8B8B8B8B8B8B8B8B8B8B8B8B8B8B8B8B8B8B8B8B8B8B8B8B8B8B8B8B8B8B8B8B8B8B8B8B8B8B8B8B8B8B8B8B8B8B8B8B8B8B8B8B8B8B8B8B8B8B8B8B8B8B8B8B8B8B8B8
310
B8B8B8B8B8B8B8B8B8B8B8B8B8B8B8B8B8B8B8B8B8B8B8B8B8B8B8B8B8B8B8B8B8B8B8B8B8B8B8B8B8B8B8B8B8B8B8B8B8B8B8B8B8B8B8B8B8B8B8B8B8B8B8B8B8B8B8B8B8B8B8B8B8B8B8B8B8B8B8B8B8B8B8B8B8B8B8B8B8B8B8B8B8B8B8B8B8B8B8B8B8B8B8B8B8B8B8B8B8B8B8B8B8B8B8B8B8B8B8B8B8B8B8B8B8B8B8
310
B8B8B8B8B8B8B8B8B8B8B8B8B8B8B8B8B8B8B8B8B8B8B8B8B8B8B8B8B8B8B8B8B8B8B8B8B8B8B8B8B8B8B8B8B8B8B8B8B8B8B8B8B8B8B8B8B8B8B8B8B8B8B8B8B8B8B8B8B8B8B8B8B8B8B8B8B8B8B8B8B8B8B8B8B8B8B8B8B8B8B8B8B8B8B8B8B8B8B8B8B8B8B8B8B8B8B8B8B8B8B8B8B8B8B8B8B8B8B8B8B8B8B8B8B8B8B8
310
B8B8B8B8B8B8B8B8B8B8B8B8B8B8B8B8B8B8B8B8B8B8B8B8B8B8B8B8B8B8B8B8B8B8B8B8B8B8B8B8B8B8B8B8B8B8B8B8B8B8B8B8B8B8B8B8B8B8B8B8B8B8B8B8B8B8B8B8B8B8B8B8B8B8B8B8B8B8B8B8B8B8B8B8B8B8B8B8B8B8B8B8B8B8B8B8B8B8B8B8B8B8B8B8B8B8B8B8B8B8B8B8B8B8B8B8B8B8B8B8B8B8B8B8B8B8B8
310
B8B8B8B8B8B8B8B8B8B8B8B8B8B8B8B8B8B8B8B8B8B8B8B8B8B8B8B8B8B8B8B8B8B8B8B8B8B8B8B8B8B8B8B8B8B8B8B8B8B8B8B8B8B8B8B8B8B8B8B8B8B8B8B8B8B8B8B8B8B8B8B8B8B8B8B8B8B8B8B8B8B8B8B8B8B8B8B8B8B8B8B8B8B8B8B8B8B8B8B8B8B8B8B8B8B8B8B8B8B8B8B8B8B8B8B8B8B8B8B8B8B8B8B8B8B8B8
310
B8B8B8B8B8B8B8B8B8B8B8B8B8B8B8B8B8B8B8B8B8B8B8B8B8B8B8B8B8B8B8B8B8B8B8B8B8B8B8B8B8B8B8B8B8B8B8B8B8B8B8B8B8B8B8B8B8B8B8B8B8B8B8B8B8B8B8B8B8B8B8B8B8B8B8B8B8B8B8B8B8B8B8B8B8B8B8B8B8B8B8B8B8B8B8B8B8B8B8B8B8B8B8B8B8B8B8B8B8B8B8B8B8B8B8B8B8B8B8B8B8B8B8B8B8B8B8
310
B8B8B8B8B8B8B8B8B8B8B8B8B8B8B8B8B8B8B8B8B8B8B8B8B8B8B8B8B8B8B8B8B8B8B8B8B8B8B8B8B8B8B8B8B8B8B8B8B8B8B8B8B8B8B8B8B8B8B8B8B8B8B8B8B8B8B8B8B8B8B8B8B8B8B8B8B8B8B8B8B8B8B8B8B8B8B8B8B8B8B8B8B8B8B8B8B8B8B8B8B8B8B8B8B8B8B8B8B8B8B8B8B8B8B8B8B8B8B8B8B8B8B8B8B8B8B8
310
B8B8B8B8B8B8B8B8B8B8B8B8B8B8B8B8B8B8B8B8B8B8B8B8B8B8B8B8B8B8B8B8B8B8B8B8B8B8B8B8B8B8B8B8B8B8B8B8B8B8B8B8B8B8B8B8B8B8B8B8B8B8B8B8B8B8B8B8B8B8B8B8B8B8B8B8B8B8B8B8B8B8B8B8B8B8B8B8B8B8B8B8B8B8B8B8B8B8B8B8B8B8B8B8B8B8B8B8B8B8B8B8B8B8B8B8B8B8B8B8B8B8B8B8B8B8B8
310
B8B8B8B8B8B8B8B8B8B8B8B8B8B8B8B8B8B8B8B8B8B8B8B8B8B8B8B8B8B8B8B8B8B8B8B8B8B8B8B8B8B8B8B8B8B8B8B8B8B8B8B8B8B8B8B8B8B8B8B8B8B8B8B8B8B8B8B8B8B8B8B8B8B8B8B8B8B8B8B8B8B8B8B8B8B8B8B8B8B8B8B8B8B8B8B8B8B8B8B8B8B8B8B8B8B8B8B8B8B8B8B8B8B8B8B8B8B8B8B8B8B8B8B8B8B8B8
310
B8B8B8B8B8B8B8B8B8B8B8B8B8B8B8B8B8B8B8B8B8B8B8B8B8B8B8B8B8B8B8B8B8B8B8B8B8B8B8B8B8B8B8B8B8B8B8B8B8B8B8B8B8B8B8B8B8B8B8B8B8B8B8B8B8B8B8B8B8B8B8B8B8B8B8B8B8B8B8B8B8B8B8B8B8B8B8B8B8B8B8B8B8B8B8B8B8B8B8B8B8B8B8B8B8B8B8B8B8B8B8B8B8B8B8B8B8B8B8B8B8B8B8B8B8B8B8
310
B8B8B8B8B8B8B8B8B8B8B8B8B8B8B8B8B8B8B8B8B8B8B8B8B8B8B8B8B8B8B8B8B8B8B8B8B8B8B8B8B8B8B8B8B8B8B8B8B8B8B8B8B8B8B8B8B8B8B8B8B8B8B8B8B8B8B8B8B8B8B8B8B8B8B8B8B8B8B8B8B8B8B8B8B8B8B8B8B8B8B8B8B8B8B8B8B8B8B8B8B8B8B8B8B8B8B8B8B8B8B8B8B8B8B8B8B8B8B8B8B8B8B8B8B8B8B8
310
B8B8B8B8B8B8B8B8B8B8B8B8B8B8B8B8B8B8B8B8B8B8B8B8B8B8B8B8B8B8B8B8B8B8B8B8B8B8B8B8B8B8B8B8B8B8B8B8B8B8B8B8B8B8B8B8B8B8B8B8B8B8B8B8B8B8B8B8B8B8B8B8B8B8B8B8B8B8B8B8B8B8B8B8B8B8B8B8B8B8B8B8B8B8B8B8B8B8B8B8B8B8B8B8B8B8B8B8B8B8B8B8B8B8B8B8B8B8B8B8B8B8B8B8B8B8B8
310
B8B8B8B8B8B8B8B8B8B8B8B8B8B8B8B8B8B8B8B8B8B8B8B8B8B8B8B8B8B8B8B8B8B8B8B8B8B8B8B8B8B8B8B8B8B8B8B8B8B8B8B8B8B8B8B8B8B8B8B8B8B8B8B8B8B8B8B8B8B8B8B8B8B8B8B8B8B8B8B8B8B8B8B8B8B8B8B8B8B8B8B8B8B8B8B8B8B8B8B8B8B8B8B8B8B8B8B8B8B8B8B8B8B8B8B8B8B8B8B8B8B8B8B8B8B8B8
310
B8B8B8B8B8B8B8B8B8B8B8B8B8B8B8B8B8B8B8B8B8B8B8B8B8B8B8B8B8B8B8B8B8B8B8B8B8B8B8B8B8B8B8B8B8B8B8B8B8B8B8B8B8B8B8B8B8B8B8B8B8B8B8B8B8B8B8B8B8B8B8B8B8B8B8B8B8B8B8B8B8B8B8B8B8B8B8B8B8B8B8B8B8B8B8B8B8B8B8B8B8B8B8B8B8B8B8B8B8B8B8B8B8B8B8B8B8B8B8B8B8B8B8B8B8B8B8
310
B8B8B8B8B8B8B8B8B8B8B8B8B8B8B8B8B8B8B8B8B8B8B8B8B8B8B8B8B8B8B8B8B8B8B8B8B8B8B8B8B8B8B8B8B8B8B8B8B8B8B8B8B8B8B8B8B8B8B8B8B8B8B8B8B8B8B8B8B8B8B8B8B8B8B8B8B8B8B8B8B8B8B8B8B8B8B8B8B8B8B8B8B8B8B8B8B8B8B8B8B8B8B8B8B8B8B8B8B8B8B8B8B8B8B8B8B8B8B8B8B8B8B8B8B8B8B8
310
B8B8B8B8B8B8B8B8B8B8B8B8B8B8B8B8B8B8B8B8B8B8B8B8B8B8B8B8B8B8B8B8B8B8B8B8B8B8B8B8B8B8B8B8B8B8B8B8B8B8B8B8B8B8B8B8B8B8B8B8B8B8B8B8B8B8B8B8B8B8B8B8B8B8B8B8B8B8B8B8B8B8B8B8B8B8B8B8B8B8B8B8B8B8B8B8B8B8B8B8B8B8B8B8B8B8B8B8B8B8B8B8B8B8B8B8B8B8B8B8B8B8B8B8B8B8B8
310
B8B8B8B8B8B8B8B8B8B8B8B8B8B8B8B8B8B8B8B8B8B8B8B8B8B8B8B8B8B8B8B8B8B8B8B8B8B8B8B8B8B8B8B8B8B8B8B8B8B8B8B8B8B8B8B8B8B8B8B8B8B8B8B8B8B8B8B8B8B8B8B8B8B8B8B8B8B8B8B8B8B8B8B8B8B8B8B8B8B8B8B8B8B8B8B8B8B8B8B8B8B8B8B8B8B8B8B8B8B8B8B8B8B8B8B8B8B8B8B8B8B8B8B8B8B8B8
310
B8B8B8B8B8B8B8B8B8B8B8B8B8B8B8B8B8B8B8B8B8B8B8B8B8B8B8B8B8B8B8B8B8B8B8B8B8B8B8B8B8B8B8B8B8B8B8B8B8B8B8B8B8B8B8B8B8B8B8B8B8B8B8B8B8B8B8B8B8B8B8B8B8B8B8B8B8B8B8B8B8B8B8B8B8B8B8B8B8B8B8B8B8B8B8B8B8B8B8B8B8B8B8B8B8B8B8B8B8B8B8B8B8B8B8B8B8B8B8B8B8B8B8B8B8B8B8
310
B8B8B8B8B8B8B8B8B8B8B8B8B8B8B8B8B8B8B8B8B8B8B8B8B8B8B8B8B8B8B8B8B8B8B8B8B8B8B8B8B8B8B8B8B8B8B8B8B8B8B8B8B8B8B8B8B8B8B8B8B8B8B8B8B8B8B8B8B8B8B8B8B8B8B8B8B8B8B8B8B8B8B8B8B8B8B8B8B8B8B8B8B8B8B8B8B8B8B8B8B8B8B8B8B8B8B8B8B8B8B8B8B8B8B8B8B8B8B8B8B8B8B8B8B8B8B8
310
B8B8B8B8B8B8B8B8B8B8B8B8B8B8B8B8B8B8B8B8B8B8B8B8B8B8B8B8B8B8B8B8B8B8B8B8B8B8B8B8B8B8B8B8B8B8B8B8B8B8B8B8B8B8B8B8B8B8B8B8B8B8B8B8B8B8B8B8B8B8B8B8B8B8B8B8B8B8B8B8B8B8B8B8B8B8B8B8B8B8B8B8B8B8B8B8B8B8B8B8B8B8B8B8B8B8B8B8B8B8B8B8B8B8B8B8B8B8B8B8B8B8B8B8B8B8B8
310
B8B8B8B8B8B8B8B8B8B8B8B8B8B8B8B8B8B8B8B8B8B8B8B8B8B8B8B8B8B8B8B8B8B8B8B8B8B8B8B8B8B8B8B8B8B8B8B8B8B8B8B8B8B8B8B8B8B8B8B8B8B8B8B8B8B8B8B8B8B8B8B8B8B8B8B8B8B8B8B8B8B8B8B8B8B8B8B8B8B8B8B8B8B8B8B8B8B8B8B8B8B8B8B8B8B8B8B8B8B8B8B8B8B8B8B8B8B8B8B8B8B8B8B8B8B8B8
310
B8B8B8B8B8B8B8B8B8B8B8B8B8B8B8B8B8B8B8B8B8B8B8B8B8B8B8B8B8B8B8B8B8B8B8B8B8B8B8B8B8B8B8B8B8B8B8B8B8B8B8B8B8B8B8B8B8B8B8B8B8B8B8B8B8B8B8B8B8B8B8B8B8B8B8B8B8B8B8B8B8B8B8B8B8B8B8B8B8B8B8B8B8B8B8B8B8B8B8B8B8B8B8B8B8B8B8B8B8B8B8B8B8B8B8B8B8B8B8B8B8B8B8B8B8B8B8
310
B8B8B8B8B8B8B8B8B8B8B8B8B8B8B8B8B8B8B8B8B8B8B8B8B8B8B8B8B8B8B8B8B8B8B8B8B8B8B8B8B8B8B8B8B8B8B8B8B8B8B8B8B8B8B8B8B8B8B8B8B8B8B8B8B8B8B8B8B8B8B8B8B8B8B8B8B8B8B8B8B8B8B8B8B8B8B8B8B8B8B8B8B8B8B8B8B8B8B8B8B8B8B8B8B8B8B8B8B8B8B8B8B8B8B8B8B8B8B8B8B8B8B8B8B8B8B8
310
B8B8B8B8B8B8B8B8B8B8B8B8B8B8B8B8B8B8B8B8B8B8B8B8B8B8B8B8B8B8B8B8B8B8B8B8B8B8B8B8B8B8B8B8B8B8B8B8B8B8B8B8B8B8B8B8B8B8B8B8B8B8B8B8B8B8B8B8B8B8B8B8B8B8B8B8B8B8B8B8B8B8B8B8B8B8B8B8B8B8B8B8B8B8B8B8B8B8B8B8B8B8B8B8B8B8B8B8B8B8B8B8B8B8B8B8B8B8B8B8B8B8B8B8B8B8B8
310
B8B8B8B8B8B8B8B8B8B8B8B8B8B8B8B8B8B8B8B8B8B8B8B8B8B8B8B8B8B8B8B8B8B8B8B8B8B8B8B8B8B8B8B8B8B8B8B8B8B8B8B8B8B8B8B8B8B8B8B8B8B8B8B8B8B8B8B8B8B8B8B8B8B8B8B8B8B8B8B8B8B8B8B8B8B8B8B8B8B8B8B8B8B8B8B8B8B8B8B8B8B8B8B8B8B8B8B8B8B8B8B8B8B8B8B8B8B8B8B8B8B8B8B8B8B8B8
310
B8B8B8B8B8B8B8B8B8B8B8B8B8B8B8B8B8B8B8B8B8B8B8B8B8B8B8B8B8B8B8B8B8B8B8B8B8B8B8B8B8B8B8B8B8B8B8B8B8B8B8B8B8B8B8B8B8B8B8B8B8B8B8B8B8B8B8B8B8B8B8B8B8B8B8B8B8B8B8B8B8B8B8B8B8B8B8B8B8B8B8B8B8B8B8B8B8B8B8B8B8B8B8B8B8B8B8B8B8B8B8B8B8B8B8B8B8B8B8B8B8B8B8B8B8B8B8
310
B8B8B8B8B8B8B8B8B8B8B8B8B8B8B8B8B8B8B8B8B8B8B8B8B8B8B8B8B8B8B8B8B8B8B8B8B8B8B8B8B8B8B8B8B8B8B8B8B8B8B8B8B8B8B8B8B8B8B8B8B8B8B8B8B8B8B8B8B8B8B8B8B8B8B8B8B8B8B8B8B8B8B8B8B8B8B8B8B8B8B8B8B8B8B8B8B8B8B8B8B8B8B8B8B8B8B8B8B8B8B8B8B8B8B8B8B8B8B8B8B8B8B8B8B8B8B8
310
B8B8B8B8B8B8B8B8B8B8B8B8B8B8B8B8B8B8B8B8B8B8B8B8B8B8B8B8B8B8B8B8B8B8B8B8B8B8B8B8B8B8B8B8B8B8B8B8B8B8B8B8B8B8B8B8B8B8B8B8B8B8B8B8B8B8B8B8B8B8B8B8B8B8B8B8B8B8B8B8B8B8B8B8B8B8B8B8B8B8B8B8B8B8B8B8B8B8B8B8B8B8B8B8B8B8B8B8B8B8B8B8B8B8B8B8B8B8B8B8B8B8B8B8B8B8B8
310
B8B8B8B8B8B8B8B8B8B8B8B8B8B8B8B8B8B8B8B8B8B8B8B8B8B8B8B8B8B8B8B8B8B8B8B8B8B8B8B8B8B8B8B8B8B8B8B8B8B8B8B8B8B8B8B8B8B8B8B8B8B8B8B8B8B8B8B8B8B8B8B8B8B8B8B8B8B8B8B8B8B8B8B8B8B8B8B8B8B8B8B8B8B8B8B8B8B8B8B8B8B8B8B8B8B8B8B8B8B8B8B8B8B8B8B8B8B8B8B8B8B8B8B8B8B8B8
310
B8B8B8B8B8B8B8B8B8B8B8B8B8B8B8B8B8B8B8B8B8B8B8B8B8B8B8B8B8B8B8B8B8B8B8B8B8B8B8B8B8B8B8B8B8B8B8B8B8B8B8B8B8B8B8B8B8B8B8B8B8B8B8B8B8B8B8B8B8B8B8B8B8B8B8B8B8B8B8B8B8B8B8B8B8B8B8B8B8B8B8B8B8B8B8B8B8B8B8B8B8B8B8B8B8B8B8B8B8B8B8B8B8B8B8B8B8B8B8B8B8B8B8B8B8B8B8
310
B8B8B8B8B8B8B8B8B8B8B8B8B8B8B8B8B8B8B8B8B8B8B8B8B8B8B8B8B8B8B8B8B8B8B8B8B8B8B8B8B8B8B8B8B8B8B8B8B8B8B8B8B8B8B8B8B8B8B8B8B8B8B8B8B8B8B8B8B8B8B8B8B8B8B8B8B8B8B8B8B8B8B8B8B8B8B8B8B8B8B8B8B8B8B8B8B8B8B8B8B8B8B8B8B8B8B8B8B8B8B8B8B8B8B8B8B8B8B8B8B8B8B8B8B8B8B8
310
B8B8B8B8B8B8B8B8B8B8B8B8B8B8B8B8B8B8B8B8B8B8B8B8B8B8B8B8B8B8B8B8B8B8B8B8B8B8B8B8B8B8B8B8B8B8B8B8B8B8B8B8B8B8B8B8B8B8B8B8B8B8B8B8B8B8B8B8B8B8B8B8B8B8B8B8B8B8B8B8B8B8B8B8B8B8B8B8B8B8B8B8B8B8B8B8B8B8B8B8B8B8B8B8B8B8B8B8B8B8B8B8B8B8B8B8B8B8B8B8B8B8B8B8B8B8B8
310
B8B8B8B8B8B8B8B8B8B8B8B8B8B8B8B8B8B8B8B8B8B8B8B8B8B8B8B8B8B8B8B8B8B8B8B8B8B8B8B8B8B8B8B8B8B8B8B8B8B8B8B8B8B8B8B8B8B8B8B8B8B8B8B8B8B8B8B8B8B8B8B8B8B8B8B8B8B8B8B8B8B8B8B8B8B8B8B8B8B8B8B8B8B8B8B8B8B8B8B8B8B8B8B8B8B8B8B8B8B8B8B8B8B8B8B8B8B8B8B8B8B8B8B8B8B8B8
310
B8B8B8B8B8B8B8B8B8B8B8B8B8B8B8B8B8B8B8B8B8B8B8B8B8B8B8B8B8B8B8B8B8B8B8B8B8B8B8B8B8B8B8B8B8B8B8B8B8B8B8B8B8B8B8B8B8B8B8B8B8B8B8B8B8B8B8B8B8B8B8B8B8B8B8B8B8B8B8B8B8B8B8B8B8B8B8B8B8B8B8B8B8B8B8B8B8B8B8B8B8B8B8B8B8B8B8B8B8B8B8B8B8B8B8B8B8B8B8B8B8B8B8B8B8B8B8
310
B8B8B8B8B8B8B8B8B8B8B8B8B8B8B8B8B8B8B8B8B8B8B8B8B8B8B8B8B8B8B8B8B8B8B8B8B8B8B8B8B8B8B8B8B8B8B8B8B8B8B8B8B8B8B8B8B8B8B8B8B8B8B8B8B8B8B8B8B8B8B8B8B8B8B8B8B8B8B8B8B8B8B8B8B8B8B8B8B8B8B8B8B8B8B8B8B8B8B8B8B8B8B8B8B8B8B8B8B8B8B8B8B8B8B8B8B8B8B8B8B8B8B8B8B8B8B8
310
B8B8B8B8B8B8B8B8B8B8B8B8B8B8B8B8B8B8B8B8B8B8B8B8B8B8B8B8B8B8B8B8B8B8B8B8B8B8B8B8B8B8B8B8B8B8B8B8B8B8B8B8B8B8B8B8B8B8B8B8B8B8B8B8B8B8B8B8B8B8B8B8B8B8B8B8B8B8B8B8B8B8B8B8B8B8B8B8B8B8B8B8B8B8B8B8B8B8B8B8B8B8B8B8B8B8B8B8B8B8B8B8B8B8B8B8B8B8B8B8B8B8B8B8B8B8B8
310
B8B8B8B8B8B8B8B8B8B8B8B8B8B8B8B8B8B8B8B8B8B8B8B8B8B8B8B8B8B8B8B8B8B8B8B8B8B8B8B8B8B8B8B8B8B8B8B8B8B8B8B8B8B8B8B8B8B8B8B8B8B8B8B8B8B8B8B8B8B8B8B8B8B8B8B8B8B8B8B8B8B8B8B8B8B8B8B8B8B8B8B8B8B8B8B8B8B8B8B8B8B8B8B8B8B8B8B8B8B8B8B8B8B8B8B8B8B8B8B8B8B8B8B8B8B8B8
310
B8B8B8B8B8B8B8B8B8B8B8B8B8B8B8B8B8B8B8B8B8B8B8B8B8B8B8B8B8B8B8B8B8B8B8B8B8B8B8B8B8B8B8B8B8B8B8B8B8B8B8B8B8B8B8B8B8B8B8B8B8B8B8B8B8B8B8B8B8B8B8B8B8B8B8B8B8B8B8B8B8B8B8B8B8B8B8B8B8B8B8B8B8B8B8B8B8B8B8B8B8B8B8B8B8B8B8B8B8B8B8B8B8B8B8B8B8B8B8B8B8B8B8B8B8B8B8
310
B8B8B8B8B8B8B8B8B8B8B8B8B8B8B8B8B8B8B8B8B8B8B8B8B8B8B8B8B8B8B8B8B8B8B8B8B8B8B8B8B8B8B8B8B8B8B8B8B8B8B8B8B8B8B8B8B8B8B8B8B8B8B8B8B8B8B8B8B8B8B8B8B8B8B8B8B8B8B8B8B8B8B8B8B8B8B8B8B8B8B8B8B8B8B8B8B8B8B8B8B8B8B8B8B8B8B8B8B8B8B8B8B8B8B8B8B8B8B8B8B8B8B8B8B8B8B8
310
B8B8B8B8B8B8B8B8B8B8B8B8B8B8B8B8B8B8B8B8B8B8B8B8B8B8B8B8B8B8B8B8B8B8B8B8B8B8B8B8B8B8B8B8B8B8B8B8B8B8B8B8B8B8B8B8B8B8B8B8B8B8B8B8B8B8B8B8B8B8B8B8B8B8B8B8B8B8B8B8B8B8B8B8B8B8B8B8B8B8B8B8B8B8B8B8B8B8B8B8B8B8B8B8B8B8B8B8B8B8B8B8B8B8B8B8B8B8B8B8B8B8B8B8B8B8B8
310
B8B8B8B8B8B8B8B8B8B8B8B8B8B8B8B8B8B8B8B8B8B8B8B8B8B8B8B8B8B8B8B8B8B8B8B8B8B8B8B8B8B8B8B8B8B8B8B8B8B8B8B8B8B8B8B8B8B8B8B8B8B8B8B8B8B8B8B8B8B8B8B8B8B8B8B8B8B8B8B8B8B8B8B8B8B8B8B8B8B8B8B8B8B8B8B8B8B8B8B8B8B8B8B8B8B8B8B8B8B8B8B8B8B8B8B8B8B8B8B8B8B8B8B8B8B8B8
310
B8B8B8B8B8B8B8B8B8B8B8B8B8B8B8B8B8B8B8B8B8B8B8B8B8B8B8B8B8B8B8B8B8B8B8B8B8B8B8B8B8B8B8B8B8B8B8B8B8B8B8B8B8B8B8B8B8B8B8B8B8B8B8B8B8B8B8B8B8B8B8B8B8B8B8B8B8B8B8B8B8B8B8B8B8B8B8B8B8B8B8B8B8B8B8B8B8B8B8B8B8B8B8B8B8B8B8B8B8B8B8B8B8B8B8B8B8B8B8B8B8B8B8B8B8B8B8
310
B8B8B8B8B8B8B8B8B8B8B8B8B8B8B8B8B8B8B8B8B8B8B8B8B8B8B8B8B8B8B8B8B8B8B8B8B8B8B8B8B8B8B8B8B8B8B8B8B8B8B8B8B8B8B8B8B8B8B8B8B8B8B8B8B8B8B8B8B8B8B8B8B8B8B8B8B8B8B8B8B8B8B8B8B8B8B8B8B8B8B8B8B8B8B8B8B8B8B8B8B8B8B8B8B8B8B8B8B8B8B8B8B8B8B8B8B8B8B8B8B8B8B8B8B8B8B8
310
B8B8B8B8B8B8B8B8B8B8B8B8B8B8B8B8B8B8B8B8B8B8B8B8B8B8B8B8B8B8B8B8B8B8B8B8B8B8B8B8B8B8B8B8B8B8B8B8B8B8B8B8B8B8B8B8B8B8B8B8B8B8B8B8B8B8B8B8B8B8B8B8B8B8B8B8B8B8B8B8B8B8B8B8B8B8B8B8B8B8B8B8B8B8B8B8B8B8B8B8B8B8B8B8B8B8B8B8B8B8B8B8B8B8B8B8B8B8B8B8B8B8B8B8B8B8B8
310
B8B8B8B8B8B8B8B8B8B8B8B8B8B8B8B8B8B8B8B8B8B8B8B8B8B8B8B8B8B8B8B8B8B8B8B8B8B8B8B8B8B8B8B8B8B8B8B8B8B8B8B8B8B8B8B8B8B8B8B8B8B8B8B8B8B8B8B8B8B8B8B8B8B8B8B8B8B8B8B8B8B8B8B8B8B8B8B8B8B8B8B8B8B8B8B8B8B8B8B8B8B8B8B8B8B8B8B8B8B8B8B8B8B8B8B8B8B8B8B8B8B8B8B8B8B8B8
310
B8B8B8B8B8B8B8B8B8B8B8B8B8B8B8B8B8B8B8B8B8B8B8B8B8B8B8B8B8B8B8B8B8B8B8B8B8B8B8B8B8B8B8B8B8B8B8B8B8B8B8B8B8B8B8B8B8B8B8B8B8B8B8B8B8B8B8B8B8B8B8B8B8B8B8B8B8B8B8B8B8B8B8B8B8B8B8B8B8B8B8B8B8B8B8B8B8B8B8B8B8B8B8B8B8B8B8B8B8B8B8B8B8B8B8B8B8B8B8B8B8B8B8B8B8B8B8
310
B8B8B8B8B8B8B8B8B8B8B8B8B8B8B8B8B8B8B8B8B8B8B8B8B8B8B8B8B8B8B8B8B8B8B8B8B8B8B8B8B8B8B8B8B8B8B8B8B8B8B8B8B8B8B8B8B8B8B8B8B8B8B8B8B8B8B8B8B8B8B8B8B8B8B8B8B8B8B8B8B8B8B8B8B8B8B8B8B8B8B8B8B8B8B8B8B8B8B8B8B8B8B8B8B8B8B8B8B8B8B8B8B8B8B8B8B8B8B8B8B8B8B8B8B8B8B8
310
B8B8B8B8B8B8B8B8B8B8B8B8B8B8B8B8B8B8B8B8B8B8B8B8B8B8B8B8B8B8B8B8B8B8B8B8B8B8B8B8B8B8B8B8B8B8B8B8B8B8B8B8B8B8B8B8B8B8B8B8B8B8B8B8B8B8B8B8B8B8B8B8B8B8B8B8B8B8B8B8B8B8B8B8B8B8B8B8B8B8B8B8B8B8B8B8B8B8B8B8B8B8B8B8B8B8B8B8B8B8B8B8B8B8B8B8B8B8B8B8B8B8B8B8B8B8B8
310
B8B8B8B8B8B8B8B8B8B8B8B8B8B8B8B8B8B8B8B8B8B8B8B8B8B8B8B8B8B8B8B8B8B8B8B8B8B8B8B8B8B8B8B8B8B8B8B8B8B8B8B8B8B8B8B8B8B8B8B8B8B8B8B8B8B8B8B8B8B8B8B8B8B8B8B8B8B8B8B8B8B8B8B8B8B8B8B8B8B8B8B8B8B8B8B8B8B8B8B8B8B8B8B8B8B8B8B8B8B8B8B8B8B8B8B8B8B8B8B8B8B8B8B8B8B8B8
310
B8B8B8B8B8B8B8B8B8B8B8B8B8B8B8B8B8B8B8B8B8B8B8B8B8B8B8B8B8B8B8B8B8B8B8B8B8B8B8B8B8B8B8B8B8B8B8B8B8B8B8B8B8B8B8B8B8B8B8B8B8B8B8B8B8B8B8B8B8B8B8B8B8B8B8B8B8B8B8B8B8B8B8B8B8B8B8B8B8B8B8B8B8B8B8B8B8B8B8B8B8B8B8B8B8B8B8B8B8B8B8B8B8B8B8B8B8B8B8B8B8B8B8B8B8B8B8
310
B8B8B8B8B8B8B8B8B8B8B8B8B8B8B8B8B8B8B8B8B8B8B8B8B8B8B8B8B8B8B8B8B8B8B8B8B8B8B8B8B8B8B8B8B8B8B8B8B8B8B8B8B8B8B8B8B8B8B8B8B8B8B8B8B8B8B8B8B8B8B8B8B8B8B8B8B8B8B8B8B8B8B8B8B8B8B8B8B8B8B8B8B8B8B8B8B8B8B8B8B8B8B8B8B8B8B8B8B8B8B8B8B8B8B8B8B8B8B8B8B8B8B8B8B8B8B8
310
B8B8B8B8B8B8B8B8B8B8B8B8B8B8B8B8B8B8B8B8B8B8B8B8B8B8B8B8B8B8B8B8B8B8B8B8B8B8B8B8B8B8B8B8B8B8B8B8B8B8B8B8B8B8B8B8B8B8B8B8B8B8B8B8B8B8B8B8B8B8B8B8B8B8B8B8B8B8B8B8B8B8B8B8B8B8B8B8B8B8B8B8B8B8B8B8B8B8B8B8B8B8B8B8B8B8B8B8B8B8B8B8B8B8B8B8B8B8B8B8B8B8B8B8B8B8B8
310
B8B8B8B8B8B8B8B8B8B8B8B8B8B8B8B8B8B8B8B8B8B8B8B8B8B8B8B8B8B8B8B8B8B8B8B8B8B8B8B8B8B8B8B8B8B8B8B8B8B8B8B8B8B8B8B8B8B8B8B8B8B8B8B8B8B8B8B8B8B8B8B8B8B8B8B8B8B8B8B8B8B8B8B8B8B8B8B8B8B8B8B8B8B8B8B8B8B8B8B8B8B8B8B8B8B8B8B8B8B8B8B8B8B8B8B8B8B8B8B8B8B8B8B8B8B8B8
310
B8B8B8B8B8B8B8B8B8B8B8B8B8B8B8B8B8B8B8B8B8B8B8B8B8B8B8B8B8B8B8B8B8B8B8B8B8B8B8B8B8B8B8B8B8B8B8B8B8B8B8B8B8B8B8B8B8B8B8B8B8B8B8B8B8B8B8B8B8B8B8B8B8B8B8B8B8B8B8B8B8B8B8B8B8B8B8B8B8B8B8B8B8B8B8B8B8B8B8B8B8B8B8B8B8B8B8B8B8B8B8B8B8B8B8B8B8B8B8B8B8B8B8B8B8B8B8
310
B8B8B8B8B8B8B8B8B8B8B8B8B8B8B8B8B8B8B8B8B8B8B8B8B8B8B8B8B8B8B8B8B8B8B8B8B8B8B8B8B8B8B8B8B8B8B8B8B8B8B8B8B8B8B8B8B8B8B8B8B8B8B8B8B8B8B8B8B8B8B8B8B8B8B8B8B8B8B8B8B8B8B8B8B8B8B8B8B8B8B8B8B8B8B8B8B8B8B8B8B8B8B8B8B8B8B8B8B8B8B8B8B8B8B8B8B8B8B8B8B8B8B8B8B8B8B8
310
B8B8B8B8B8B8B8B8B8B8B8B8B8B8B8B8B8B8B8B8B8B8B8B8B8B8B8B8B8B8B8B8B8B8B8B8B8B8B8B8B8B8B8B8B8B8B8B8B8B8B8B8B8B8B8B8B8B8B8B8B8B8B8B8B8B8B8B8B8B8B8B8B8B8B8B8B8B8B8B8B8B8B8B8B8B8B8B8B8B8B8B8B8B8B8B8B8B8B8B8B8B8B8B8B8B8B8B8B8B8B8B8B8B8B8B8B8B8B8B8B8B8B8B8B8B8B8
310
B8B8B8B8B8B8B8B8B8B8B8B8B8B8B8B8B8B8B8B8B8B8B8B8B8B8B8B8B8B8B8B8B8B8B8B8B8B8B8B8B8B8B8B8B8B8B8B8B8B8B8B8B8B8B8B8B8B8B8B8B8B8B8B8B8B8B8B8B8B8B8B8B8B8B8B8B8B8B8B8B8B8B8B8B8B8B8B8B8B8B8B8B8B8B8B8B8B8B8B8B8B8B8B8B8B8B8B8B8B8B8B8B8B8B8B8B8B8B8B8B8B8B8B8B8B8B8
310
B8B8B8B8B8B8B8B8B8B8B8B8B8B8B8B8B8B8B8B8B8B8B8B8B8B8B8B8B8B8B8B8B8B8B8B8B8B8B8B8B8B8B8B8B8B8B8B8B8B8B8B8B8B8B8B8B8B8B8B8B8B8B8B8B8B8B8B8B8B8B8B8B8B8B8B8B8B8B8B8B8B8B8B8B8B8B8B8B8B8B8B8B8B8B8B8B8B8B8B8B8B8B8B8B8B8B8B8B8B8B8B8B8B8B8B8B8B8B8B8B8B8B8B8B8B8B8
310
B8B8B8B8B8B8B8B8B8B8B8B8B8B8B8B8B8B8B8B8B8B8B8B8B8B8B8B8B8B8B8B8B8B8B8B8B8B8B8B8B8B8B8B8B8B8B8B8B8B8B8B8B8B8B8B8B8B8B8B8B8B8B8B8B8B8B8B8B8B8B8B8B8B8B8B8B8B8B8B8B8B8B8B8B8B8B8B8B8B8B8B8B8B8B8B8B8B8B8B8B8B8B8B8B8B8B8B8B8B8B8B8B8B8B8B8B8B8B8B8B8B8B8B8B8B8B8
310
B8B8B8B8B8B8B8B8B8B8B8B8B8B8B8B8B8B8B8B8B8B8B8B8B8B8B8B8B8B8B8B8B8B8B8B8B8B8B8B8B8B8B8B8B8B8B8B8B8B8B8B8B8B8B8B8B8B8B8B8B8B8B8B8B8B8B8B8B8B8B8B8B8B8B8B8B8B8B8B8B8B8B8B8B8B8B8B8B8B8B8B8B8B8B8B8B8B8B8B8B8B8B8B8B8B8B8B8B8B8B8B8B8B8B8B8B8B8B8B8B8B8B8B8B8B8B8
310
B8B8B8B8B8B8B8B8B8B8B8B8B8B8B8B8B8B8B8B8B8B8B8B8B8B8B8B8B8B8B8B8B8B8B8B8B8B8B8B8B8B8B8B8B8B8B8B8B8B8B8B8B8B8B8B8B8B8B8B8B8B8B8B8B8B8B8B8B8B8B8B8B8B8B8B8B8B8B8B8B8B8B8B8B8B8B8B8B8B8B8B8B8B8B8B8B8B8B8B8B8B8B8B8B8B8B8B8B8B8B8B8B8B8B8B8B8B8B8B8B8B8B8B8B8B8B8
310
B8B8B8B8B8B8B8B8B8B8B8B8B8B8B8B8B8B8B8B8B8B8B8B8B8B8B8B8B8B8B8B8B8B8B8B8B8B8B8B8B8B8B8B8B8B8B8B8B8B8B8B8B8B8B8B8B8B8B8B8B8B8B8B8B8B8B8B8B8B8B8B8B8B8B8B8B8B8B8B8B8B8B8B8B8B8B8B8B8B8B8B8B8B8B8B8B8B8B8B8B8B8B8B8B8B8B8B8B8B8B8B8B8B8B8B8B8B8B8B8B8B8B8B8B8B8B8
310
B8B8B8B8B8B8B8B8B8B8B8B8B8B8B8B8B8B8B8B8B8B8B8B8B8B8B8B8B8B8B8B8B8B8B8B8B8B8B8B8B8B8B8B8B8B8B8B8B8B8B8B8B8B8B8B8B8B8B8B8B8B8B8B8B8B8B8B8B8B8B8B8B8B8B8B8B8B8B8B8B8B8B8B8B8B8B8B8B8B8B8B8B8B8B8B8B8B8B8B8B8B8B8B8B8B8B8B8B8B8B8B8B8B8B8B8B8B8B8B8B8B8B8B8B8B8B8
310
B8B8B8B8B8B8B8B8B8B8B8B8B8B8B8B8B8B8B8B8B8B8B8B8B8B8B8B8B8B8B8B8B8B8B8B8B8B8B8B8B8B8B8B8B8B8B8B8B8B8B8B8B8B8B8B8B8B8B8B8B8B8B8B8B8B8B8B8B8B8B8B8B8B8B8B8B8B8B8B8B8B8B8B8B8B8B8B8B8B8B8B8B8B8B8B8B8B8B8B8B8B8B8B8B8B8B8B8B8B8B8B8B8B8B8B8B8B8B8B8B8B8B8B8B8B8B8
310
B8B8B8B8B8B8B8B8B8B8B8B8B8B8B8B8B8B8B8B8B8B8B8B8B8B8B8B8B8B8B8B8B8B8B8B8B8B8B8B8B8B8B8B8B8B8B8B8B8B8B8B8B8B8B8B8B8B8B8B8B8B8B8B8B8B8B8B8B8B8B8B8B8B8B8B8B8B8B8B8B8B8B8B8B8B8B8B8B8B8B8B8B8B8B8B8B8B8B8B8B8B8B8B8B8B8B8B8B8B8B8B8B8B8B8B8B8B8B8B8B8B8B8B8B8B8B8
310
B8B8B8B8B8B8B8B8B8B8B8B8B8B8B8B8B8B8B8B8B8B8B8B8B8B8B8B8B8B8B8B8B8B8B8B8B8B8B8B8B8B8B8B8B8B8B8B8B8B8B8B8B8B8B8B8B8B8B8B8B8B8B8B8B8B8B8B8B8B8B8B8B8B8B8B8B8B8B8B8B8B8B8B8B8B8B8B8B8B8B8B8B8B8B8B8B8B8B8B8B8B8B8B8B8B8B8B8B8B8B8B8B8B8B8B8B8B8B8B8B8B8B8B8B8B8B8
310
B8B8B8B8B8B8B8B8B8B8B8B8B8B8B8B8B8B8B8B8B8B8B8B8B8B8B8B8B8B8B8B8B8B8B8B8B8B8B8B8B8B8B8B8B8B8B8B8B8B8B8B8B8B8B8B8B8B8B8B8B8B8B8B8B8B8B8B8B8B8B8B8B8B8B8B8B8B8B8B8B8B8B8B8B8B8B8B8B8B8B8B8B8B8B8B8B8B8B8B8B8B8B8B8B8B8B8B8B8B8B8B8B8B8B8B8B8B8B8B8B8B8B8B8B8B8B8
310
B8B8B8B8B8B8B8B8B8B8B8B8B8B8B8B8B8B8B8B8B8B8B8B8B8B8B8B8B8B8B8B8B8B8B8B8B8B8B8B8B8B8B8B8B8B8B8B8B8B8B8B8B8B8B8B8B8B8B8B8B8B8B8B8B8B8B8B8B8B8B8B8B8B8B8B8B8B8B8B8B8B8B8B8B8B8B8B8B8B8B8B8B8B8B8B8B8B8B8B8B8B8B8B8B8B8B8B8B8B8B8B8B8B8B8B8B8B8B8B8B8B8B8B8B8B8B8
310
B8B8B8B8B8B8B8B8B8B8B8B8B8B8B8B8B8B8B8B8B8B8B8B8B8B8B8B8B8B8B8B8B8B8B8B8B8B8B8B8B8B8B8B8B8B8B8B8B8B8B8B8B8B8B8B8B8B8B8B8B8B8B8B8B8B8B8B8B8B8B8B8B8B8B8B8B8B8B8B8B8B8B8B8B8B8B8B8B8B8B8B8B8B8B8B8B8B8B8B8B8B8B8B8B8B8B8B8B8B8B8B8B8B8B8B8B8B8B8B8B8B8B8B8B8B8B8
310
B8B8B8B8B8B8B8B8B8B8B8B8B8B8B8B8B8B8B8B8B8B8B8B8B8B8B8B8B8B8B8B8B8B8B8B8B8B8B8B8B8B8B8B8B8B8B8B8B8B8B8B8B8B8B8B8B8B8B8B8B8B8B8B8B8B8B8B8B8B8B8B8B8B8B8B8B8B8B8B8B8B8B8B8B8B8B8B8B8B8B8B8B8B8B8B8B8B8B8B8B8B8B8B8B8B8B8B8B8B8B8B8B8B8B8B8B8B8B8B8B8B8B8B8B8B8B8
310
B8B8B8B8B8B8B8B8B8B8B8B8B8B8B8B8B8B8B8B8B8B8B8B8B8B8B8B8B8B8B8B8B8B8B8B8B8B8B8B8B8B8B8B8B8B8B8B8B8B8B8B8B8B8B8B8B8B8B8B8B8B8B8B8B8B8B8B8B8B8B8B8B8B8B8B8B8B8B8B8B8B8B8B8B8B8B8B8B8B8B8B8B8B8B8B8B8B8B8B8B8B8B8B8B8B8B8B8B8B8B8B8B8B8B8B8B8B8B8B8B8B8B8B8B8B8B8
310
B8B8B8B8B8B8B8B8B8B8B8B8B8B8B8B8B8B8B8B8B8B8B8B8B8B8B8B8B8B8B8B8B8B8B8B8B8B8B8B8B8B8B8B8B8B8B8B8B8B8B8B8B8B8B8B8B8B8B8B8B8B8B8B8B8B8B8B8B8B8B8B8B8B8B8B8B8B8B8B8B8B8B8B8B8B8B8B8B8B8B8B8B8B8B8B8B8B8B8B8B8B8B8B8B8B8B8B8B8B8B8B8B8B8B8B8B8B8B8B8B8B8B8B8B8B8B8
310
B8B8B8B8B8B8B8B8B8B8B8B8B8B8B8B8B8B8B8B8B8B8B8B8B8B8B8B8B8B8B8B8B8B8B8B8B8B8B8B8B8B8B8B8B8B8B8B8B8B8B8B8B8B8B8B8B8B8B8B8B8B8B8B8B8B8B8B8B8B8B8B8B8B8B8B8B8B8B8B8B8B8B8B8B8B8B8B8B8B8B8B8B8B8B8B8B8B8B8B8B8B8B8B8B8B8B8B8B8B8B8B8B8B8B8B8B8B8B8B8B8B8B8B8B8B8B8
310
B8B8B8B8B8B8B8B8B8B8B8B8B8B8B8B8B8B8B8B8B8B8B8B8B8B8B8B8B8B8B8B8B8B8B8B8B8B8B8B8B8B8B8B8B8B8B8B8B8B8B8B8B8B8B8B8B8B8B8B8B8B8B8B8B8B8B8B8B8B8B8B8B8B8B8B8B8B8B8B8B8B8B8B8B8B8B8B8B8B8B8B8B8B8B8B8B8B8B8B8B8B8B8B8B8B8B8B8B8B8B8B8B8B8B8B8B8B8B8B8B8B8B8B8B8B8B8
310
B8B8B8B8B8B8B8B8B8B8B8B8B8B8B8B8B8B8B8B8B8B8B8B8B8B8B8B8B8B8B8B8B8B8B8B8B8B8B8B8B8B8B8B8B8B8B8B8B8B8B8B8B8B8B8B8B8B8B8B8B8B8B8B8B8B8B8B8B8B8B8B8B8B8B8B8B8B8B8B8B8B8B8B8B8B8B8B8B8B8B8B8B8B8B8B8B8B8B8B8B8B8B8B8B8B8B8B8B8B8B8B8B8B8B8B8B8B8B8B8B8B8B8B8B8B8B8
310
B8B8B8B8B8B8B8B8B8B8B8B8B8B8B8B8B8B8B8B8B8B8B8B8B8B8B8B8B8B8B8B8B8B8B8B8B8B8B8B8B8B8B8B8B8B8B8B8B8B8B8B8B8B8B8B8B8B8B8B8B8B8B8B8B8B8B8B8B8B8B8B8B8B8B8B8B8B8B8B8B8B8B8B8B8B8B8B8B8B8B8B8B8B8B8B8B8B8B8B8B8B8B8B8B8B8B8B8B8B8B8B8B8B8B8B8B8B8B8B8B8B8B8B8B8B8B8
310
B8B8B8B8B8B8B8B8B8B8B8B8B8B8B8B8B8B8B8B8B8B8B8B8B8B8B8B8B8B8B8B8B8B8B8B8B8B8B8B8B8B8B8B8B8B8B8B8B8B8B8B8B8B8B8B8B8B8B8B8B8B8B8B8B8B8B8B8B8B8B8B8B8B8B8B8B8B8B8B8B8B8B8B8B8B8B8B8B8B8B8B8B8B8B8B8B8B8B8B8B8B8B8B8B8B8B8B8B8B8B8B8B8B8B8B8B8B8B8B8B8B8B8B8B8B8B8
310
B8B8B8B8B8B8B8B8B8B8B8B8B8B8B8B8B8B8B8B8B8B8B8B8B8B8B8B8B8B8B8B8B8B8B8B8B8B8B8B8B8B8B8B8B8B8B8B8B8B8B8B8B8B8B8B8B8B8B8B8B8B8B8B8B8B8B8B8B8B8B8B8B8B8B8B8B8B8B8B8B8B8B8B8B8B8B8B8B8B8B8B8B8B8B8B8B8B8B8B8B8B8B8B8B8B8B8B8B8B8B8B8B8B8B8B8B8B8B8B8B8B8B8B8B8B8B8
310
B8B8B8B8B8B8B8B8B8B8B8B8B8B8B8B8B8B8B8B8B8B8B8B8B8B8B8B8B8B8B8B8B8B8B8B8B8B8B8B8B8B8B8B8B8B8B8B8B8B8B8B8B8B8B8B8B8B8B8B8B8B8B8B8B8B8B8B8B8B8B8B8B8B8B8B8B8B8B8B8B8B8B8B8B8B8B8B8B8B8B8B8B8B8B8B8B8B8B8B8B8B8B8B8B8B8B8B8B8B8B8B8B8B8B8B8B8B8B8B8B8B8B8B8B8B8B8
310
B8B8B8B8B8B8B8B8B8B8B8B8B8B8B8B8B8B8B8B8B8B8B8B8B8B8B8B8B8B8B8B8B8B8B8B8B8B8B8B8B8B8B8B8B8B8B8B8B8B8B8B8B8B8B8B8B8B8B8B8B8B8B8B8B8B8B8B8B8B8B8B8B8B8B8B8B8B8B8B8B8B8B8B8B8B8B8B8B8B8B8B8B8B8B8B8B8B8B8B8B8B8B8B8B8B8B8B8B8B8B8B8B8B8B8B8B8B8B8B8B8B8B8B8B8B8B8
310
B8B8B8B8B8B8B8B8B8B8B8B8B8B8B8B8B8B8B8B8B8B8B8B8B8B8B8B8B8B8B8B8B8B8B8B8B8B8B8B8B8B8B8B8B8B8B8B8B8B8B8B8B8B8B8B8B8B8B8B8B8B8B8B8B8B8B8B8B8B8B8B8B8B8B8B8B8B8B8B8B8B8B8B8B8B8B8B8B8B8B8B8B8B8B8B8B8B8B8B8B8B8B8B8B8B8B8B8B8B8B8B8B8B8B8B8B8B8B8B8B8B8B8B8B8B8B8
310
B8B8B8B8B8B8B8B8B8B8B8B8B8B8B8B8B8B8B8B8B8B8B8B8B8B8B8B8B8B8B8B8B8B8B8B8B8B8B8B8B8B8B8B8B8B8B8B8B8B8B8B8B8B8B8B8B8B8B8B8B8B8B8B8B8B8B8B8B8B8B8B8B8B8B8B8B8B8B8B8B8B8B8B8B8B8B8B8B8B8B8B8B8B8B8B8B8B8B8B8B8B8B8B8B8B8B8B8B8B8B8B8B8B8B8B8B8B8B8B8B8B8B8B8B8B8B8
310
B8B8B8B8B8B8B8B8B8B8B8B8B8B8B8B8B8B8B8B8B8B8B8B8B8B8B8B8B8B8B8B8B8B8B8B8B8B8B8B8B8B8B8B8B8B8B8B8B8B8B8B8B8B8B8B8B8B8B8B8B8B8B8B8B8B8B8B8B8B8B8B8B8B8B8B8B8B8B8B8B8B8B8B8B8B8B8B8B8B8B8B8B8B8B8B8B8B8B8B8B8B8B8B8B8B8B8B8B8B8B8B8B8B8B8B8B8B8B8B8B8B8B8B8B8B8B8
310
B8B8B8B8B8B8B8B8B8B8B8B8B8B8B8B8B8B8B8B8B8B8B8B8B8B8B8B8B8B8B8B8B8B8B8B8B8B8B8B8B8B8B8B8B8B8B8B8B8B8B8B8B8B8B8B8B8B8B8B8B8B8B8B8B8B8B8B8B8B8B8B8B8B8B8B8B8B8B8B8B8B8B8B8B8B8B8B8B8B8B8B8B8B8B8B8B8B8B8B8B8B8B8B8B8B8B8B8B8B8B8B8B8B8B8B8B8B8B8B8B8B8B8B8B8B8B8
310
B8B8B8B8B8B8B8B8B8B8B8B8B8B8B8B8B8B8B8B8B8B8B8B8B8B8B8B8B8B8B8B8B8B8B8B8B8B8B8B8B8B8B8B8B8B8B8B8B8B8B8B8B8B8B8B8B8B8B8B8B8B8B8B8B8B8B8B8B8B8B8B8B8B8B8B8B8B8B8B8B8B8B8B8B8B8B8B8B8B8B8B8B8B8B8B8B8B8B8B8B8B8B8B8B8B8B8B8B8B8B8B8B8B8B8B8B8B8B8B8B8B8B8B8B8B8B8
310
B8B8B8B8B8B8B8B8B8B8B8B8B8B8B8B8B8B8B8B8B8B8B8B8B8B8B8B8B8B8B8B8B8B8B8B8B8B8B8B8B8B8B8B8B8B8B8B8B8B8B8B8B8B8B8B8B8B8B8B8B8B8B8B8B8B8B8B8B8B8B8B8B8B8B8B8B8B8B8B8B8B8B8B8B8B8B8B8B8B8B8B8B8B8B8B8B8B8B8B8B8B8B8B8B8B8B8B8B8B8B8B8B8B8B8B8B8B8B8B8B8B8B8B8B8B8B8
310
B8B8B8B8B8B8B8B8B8B8B8B8B8B8B8B8B8B8B8B8B8B8B8B8B8B8B8B8B8B8B8B8B8B8B8B8B8B8B8B8B8B8B8B8B8B8B8B8B8B8B8B8B8B8B8B8B8B8B8B8B8B8B8B8B8B8B8B8B8B8B8B8B8B8B8B8B8B8B8B8B8B8B8B8B8B8B8B8B8B8B8B8B8B8B8B8B8B8B8B8B8B8B8B8B8B8B8B8B8B8B8B8B8B8B8B8B8B8B8B8B8B8B8B8B8B8B8
310
B8B8B8B8B8B8B8B8B8B8B8B8B8B8B8B8B8B8B8B8B8B8B8B8B8B8B8B8B8B8B8B8B8B8B8B8B8B8B8B8B8B8B8B8B8B8B8B8B8B8B8B8B8B8B8B8B8B8B8B8B8B8B8B8B8B8B8B8B8B8B8B8B8B8B8B8B8B8B8B8B8B8B8B8B8B8B8B8B8B8B8B8B8B8B8B8B8B8B8B8B8B8B8B8B8B8B8B8B8B8B8B8B8B8B8B8B8B8B8B8B8B8B8B8B8B8B8
310
B8B8B8B8B8B8B8B8B8B8B8B8B8B8B8B8B8B8B8B8B8B8B8B8B8B8B8B8B8B8B8B8B8B8B8B8B8B8B8B8B8B8B8B8B8B8B8B8B8B8B8B8B8B8B8B8B8B8B8B8B8B8B8B8B8B8B8B8B8B8B8B8B8B8B8B8B8B8B8B8B8B8B8B8B8B8B8B8B8B8B8B8B8B8B8B8B8B8B8B8B8B8B8B8B8B8B8B8B8B8B8B8B8B8B8B8B8B8B8B8B8B8B8B8B8B8B8
310
B8B8B8B8B8B8B8B8B8B8B8B8B8B8B8B8B8B8B8B8B8B8B8B8B8B8B8B8B8B8B8B8B8B8B8B8B8B8B8B8B8B8B8B8B8B8B8B8B8B8B8B8B8B8B8B8B8B8B8B8B8B8B8B8B8B8B8B8B8B8B8B8B8B8B8B8B8B8B8B8B8B8B8B8B8B8B8B8B8B8B8B8B8B8B8B8B8B8B8B8B8B8B8B8B8B8B8B8B8B8B8B8B8B8B8B8B8B8B8B8B8B8B8B8B8B8B8
310
B8B8B8B8B8B8B8B8B8B8B8B8B8B8B8B8B8B8B8B8B8B8B8B8B8B8B8B8B8B8B8B8B8B8B8B8B8B8B8B8B8B8B8B8B8B8B8B8B8B8B8B8B8B8B8B8B8B8B8B8B8B8B8B8B8B8B8B8B8B8B8B8B8B8B8B8B8B8B8B8B8B8B8B8B8B8B8B8B8B8B8B8B8B8B8B8B8B8B8B8B8B8B8B8B8B8B8B8B8B8B8B8B8B8B8B8B8B8B8B8B8B8B8B8B8B8B8
310
B8B8B8B8B8B8B8B8B8B8B8B8B8B8B8B8B8B8B8B8B8B8B8B8B8B8B8B8B8B8B8B8B8B8B8B8B8B8B8B8B8B8B8B8B8B8B8B8B8B8B8B8B8B8B8B8B8B8B8B8B8B8B8B8B8B8B8B8B8B8B8B8B8B8B8B8B8B8B8B8B8B8B8B8B8B8B8B8B8B8B8B8B8B8B8B8B8B8B8B8B8B8B8B8B8B8B8B8B8B8B8B8B8B8B8B8B8B8B8B8B8B8B8B8B8B8B8
310
B8B8B8B8B8B8B8B8B8B8B8B8B8B8B8B8B8B8B8B8B8B8B8B8B8B8B8B8B8B8B8B8B8B8B8B8B8B8B8B8B8B8B8B8B8B8B8B8B8B8B8B8B8B8B8B8B8B8B8B8B8B8B8B8B8B8B8B8B8B8B8B8B8B8B8B8B8B8B8B8B8B8B8B8B8B8B8B8B8B8B8B8B8B8B8B8B8B8B8B8B8B8B8B8B8B8B8B8B8B8B8B8B8B8B8B8B8B8B8B8B8B8B8B8B8B8B8
310
B8B8B8B8B8B8B8B8B8B8B8B8B8B8B8B8B8B8B8B8B8B8B8B8B8B8B8B8B8B8B8B8B8B8B8B8B8B8B8B8B8B8B8B8B8B8B8B8B8B8B8B8B8B8B8B8B8B8B8B8B8B8B8B8B8B8B8B8B8B8B8B8B8B8B8B8B8B8B8B8B8B8B8B8B8B8B8B8B8B8B8B8B8B8B8B8B8B8B8B8B8B8B8B8B8B8B8B8B8B8B8B8B8B8B8B8B8B8B8B8B8B8B8B8B8B8B8
310
B8B8B8B8B8B8B8B8B8B8B8B8B8B8B8B8B8B8B8B8B8B8B8B8B8B8B8B8B8B8B8B8B8B8B8B8B8B8B8B8B8B8B8B8B8B8B8B8B8B8B8B8B8B8B8B8B8B8B8B8B8B8B8B8B8B8B8B8B8B8B8B8B8B8B8B8B8B8B8B8B8B8B8B8B8B8B8B8B8B8B8B8B8B8B8B8B8B8B8B8B8B8B8B8B8B8B8B8B8B8B8B8B8B8B8B8B8B8B8B8B8B8B8B8B8B8B8
310
B8B8B8B8B8B8B8B8B8B8B8B8B8B8B8B8B8B8B8B8B8B8B8B8B8B8B8B8B8B8B8B8B8B8B8B8B8B8B8B8B8B8B8B8B8B8B8B8B8B8B8B8B8B8B8B8B8B8B8B8B8B8B8B8B8B8B8B8B8B8B8B8B8B8B8B8B8B8B8B8B8B8B8B8B8B8B8B8B8B8B8B8B8B8B8B8B8B8B8B8B8B8B8B8B8B8B8B8B8B8B8B8B8B8B8B8B8B8B8B8B8B8B8B8B8B8B8
310
B8B8B8B8B8B8B8B8B8B8B8B8B8B8B8B8B8B8B8B8B8B8B8B8B8B8B8B8B8B8B8B8B8B8B8B8B8B8B8B8B8B8B8B8B8B8B8B8B8B8B8B8B8B8B8B8B8B8B8B8B8B8B8B8B8B8B8B8B8B8B8B8B8B8B8B8B8B8B8B8B8B8B8B8B8B8B8B8B8B8B8B8B8B8B8B8B8B8B8B8B8B8B8B8B8B8B8B8B8B8B8B8B8B8B8B8B8B8B8B8B8B8B8B8B8B8B8
310
B8B8B8B8B8B8B8B8B8B8B8B8B8B8B8B8B8B8B8B8B8B8B8B8B8B8B8B8B8B8B8B8B8B8B8B8B8B8B8B8B8B8B8B8B8B8B8B8B8B8B8B8B8B8B8B8B8B8B8B8B8B8B8B8B8B8B8B8B8B8B8B8B8B8B8B8B8B8B8B8B8B8B8B8B8B8B8B8B8B8B8B8B8B8B8B8B8B8B8B8B8B8B8B8B8B8B8B8B8B8B8B8B8B8B8B8B8B8B8B8B8B8B8B8B8B8B8
310
B8B8B8B8B8B8B8B8B8B8B8B8B8B8B8B8B8B8B8B8B8B8B8B8B8B8B8B8B8B8B8B8B8B8B8B8B8B8B8B8B8B8B8B8B8B8B8B8B8B8B8B8B8B8B8B8B8B8B8B8B8B8B8B8B8B8B8B8B8B8B8B8B8B8B8B8B8B8B8B8B8B8B8B8B8B8B8B8B8B8B8B8B8B8B8B8B8B8B8B8B8B8B8B8B8B8B8B8B8B8B8B8B8B8B8B8B8B8B8B8B8B8B8B8B8B8B8
310
B8B8B8B8B8B8B8B8B8B8B8B8B8B8B8B8B8B8B8B8B8B8B8B8B8B8B8B8B8B8B8B8B8B8B8B8B8B8B8B8B8B8B8B8B8B8B8B8B8B8B8B8B8B8B8B8B8B8B8B8B8B8B8B8B8B8B8B8B8B8B8B8B8B8B8B8B8B8B8B8B8B8B8B8B8B8B8B8B8B8B8B8B8B8B8B8B8B8B8B8B8B8B8B8B8B8B8B8B8B8B8B8B8B8B8B8B8B8B8B8B8B8B8B8B8B8B8
310
B8B8B8B8B8B8B8B8B8B8B8B8B8B8B8B8B8B8B8B8B8B8B8B8B8B8B8B8B8B8B8B8B8B8B8B8B8B8B8B8B8B8B8B8B8B8B8B8B8B8B8B8B8B8B8B8B8B8B8B8B8B8B8B8B8B8B8B8B8B8B8B8B8B8B8B8B8B8B8B8B8B8B8B8B8B8B8B8B8B8B8B8B8B8B8B8B8B8B8B8B8B8B8B8B8B8B8B8B8B8B8B8B8B8B8B8B8B8B8B8B8B8B8B8B8B8B8
310
B8B8B8B8B8B8B8B8B8B8B8B8B8B8B8B8B8B8B8B8B8B8B8B8B8B8B8B8B8B8B8B8B8B8B8B8B8B8B8B8B8B8B8B8B8B8B8B8B8B8B8B8B8B8B8B8B8B8B8B8B8B8B8B8B8B8B8B8B8B8B8B8B8B8B8B8B8B8B8B8B8B8B8B8B8B8B8B8B8B8B8B8B8B8B8B8B8B8B8B8B8B8B8B8B8B8B8B8B8B8B8B8B8B8B8B8B8B8B8B8B8B8B8B8B8B8B8
310
B8B8B8B8B8B8B8B8B8B8B8B8B8B8B8B8B8B8B8B8B8B8B8B8B8B8B8B8B8B8B8B8B8B8B8B8B8B8B8B8B8B8B8B8B8B8B8B8B8B8B8B8B8B8B8B8B8B8B8B8B8B8B8B8B8B8B8B8B8B8B8B8B8B8B8B8B8B8B8B8B8B8B8B8B8B8B8B8B8B8B8B8B8B8B8B8B8B8B8B8B8B8B8B8B8B8B8B8B8B8B8B8B8B8B8B8B8B8B8B8B8B8B8B8B8B8B8
310
B8B8B8B8B8B8B8B8B8B8B8B8B8B8B8B8B8B8B8B8B8B8B8B8B8B8B8B8B8B8B8B8B8B8B8B8B8B8B8B8B8B8B8B8B8B8B8B8B8B8B8B8B8B8B8B8B8B8B8B8B8B8B8B8B8B8B8B8B8B8B8B8B8B8B8B8B8B8B8B8B8B8B8B8B8B8B8B8B8B8B8B8B8B8B8B8B8B8B8B8B8B8B8B8B8B8B8B8B8B8B8B8B8B8B8B8B8B8B8B8B8B8B8B8B8B8B8
310
B8B8B8B8B8B8B8B8B8B8B8B8B8B8B8B8B8B8B8B8B8B8B8B8B8B8B8B8B8B8B8B8B8B8B8B8B8B8B8B8B8B8B8B8B8B8B8B8B8B8B8B8B8B8B8B8B8B8B8B8B8B8B8B8B8B8B8B8B8B8B8B8B8B8B8B8B8B8B8B8B8B8B8B8B8B8B8B8B8B8B8B8B8B8B8B8B8B8B8B8B8B8B8B8B8B8B8B8B8B8B8B8B8B8B8B8B8B8B8B8B8B8B8B8B8B8B8
310
B8B8B8B8B8B8B8B8B8B8B8B8B8B8B8B8B8B8B8B8B8B8B8B8B8B8B8B8B8B8B8B8B8B8B8B8B8B8B8B8B8B8B8B8B8B8B8B8B8B8B8B8B8B8B8B8B8B8B8B8B8B8B8B8B8B8B8B8B8B8B8B8B8B8B8B8B8B8B8B8B8B8B8B8B8B8B8B8B8B8B8B8B8B8B8B8B8B8B8B8B8B8B8B8B8B8B8B8B8B8B8B8B8B8B8B8B8B8B8B8B8B8B8B8B8B8B8
310
B8B8B8B8B8B8B8B8B8B8B8B8B8B8B8B8B8B8B8B8B8B8B8B8B8B8B8B8B8B8B8B8B8B8B8B8B8B8B8B8B8B8B8B8B8B8B8B8B8B8B8B8B8B8B8B8B8B8B8B8B8B8B8B8B8B8B8B8B8B8B8B8B8B8B8B8B8B8B8B8B8B8B8B8B8B8B8B8B8B8B8B8B8B8B8B8B8B8B8B8B8B8B8B8B8B8B8B8B8B8B8B8B8B8B8B8B8B8B8B8B8B8B8B8B8B8B8
310
B8B8B8B8B8B8B8B8B8B8B8B8B8B8B8B8B8B8B8B8B8B8B8B8B8B8B8B8B8B8B8B8B8B8B8B8B8B8B8B8B8B8B8B8B8B8B8B8B8B8B8B8B8B8B8B8B8B8B8B8B8B8B8B8B8B8B8B8B8B8B8B8B8B8B8B8B8B8B8B8B8B8B8B8B8B8B8B8B8B8B8B8B8B8B8B8B8B8B8B8B8B8B8B8B8B8B8B8B8B8B8B8B8B8B8B8B8B8B8B8B8B8B8B8B8B8B8
310
B8B8B8B8B8B8B8B8B8B8B8B8B8B8B8B8B8B8B8B8B8B8B8B8B8B8B8B8B8B8B8B8B8B8B8B8B8B8B8B8B8B8B8B8B8B8B8B8B8B8B8B8B8B8B8B8B8B8B8B8B8B8B8B8B8B8B8B8B8B8B8B8B8B8B8B8B8B8B8B8B8B8B8B8B8B8B8B8B8B8B8B8B8B8B8B8B8B8B8B8B8B8B8B8B8B8B8B8B8B8B8B8B8B8B8B8B8B8B8B8B8B8B8B8B8B8B8
310
B8B8B8B8B8B8B8B8B8B8B8B8B8B8B8B8B8B8B8B8B8B8B8B8B8B8B8B8B8B8B8B8B8B8B8B8B8B8B8B8B8B8B8B8B8B8B8B8B8B8B8B8B8B8B8B8B8B8B8B8B8B8B8B8B8B8B8B8B8B8B8B8B8B8B8B8B8B8B8B8B8B8B8B8B8B8B8B8B8B8B8B8B8B8B8B8B8B8B8B8B8B8B8B8B8B8B8B8B8B8B8B8B8B8B8B8B8B8B8B8B8B8B8B8B8B8B8
310
B8B8B8B8B8B8B8B8B8B8B8B8B8B8B8B8B8B8B8B8B8B8B8B8B8B8B8B8B8B8B8B8B8B8B8B8B8B8B8B8B8B8B8B8B8B8B8B8B8B8B8B8B8B8B8B8B8B8B8B8B8B8B8B8B8B8B8B8B8B8B8B8B8B8B8B8B8B8B8B8B8B8B8B8B8B8B8B8B8B8B8B8B8B8B8B8B8B8B8B8B8B8B8B8B8B8B8B8B8B8B8B8B8B8B8B8B8B8B8B8B8B8B8B8B8B8B8
310
B8B8B8B8B8B8B8B8B8B8B8B8B8B8B8B8B8B8B8B8B8B8B8B8B8B8B8B8B8B8B8B8B8B8B8B8B8B8B8B8B8B8B8B8B8B8B8B8B8B8B8B8B8B8B8B8B8B8B8B8B8B8B8B8B8B8B8B8B8B8B8B8B8B8B8B8B8B8B8B8B8B8B8B8B8B8B8B8B8B8B8B8B8B8B8B8B8B8B8B8B8B8B8B8B8B8B8B8B8B8B8B8B8B8B8B8B8B8B8B8B8B8B8B8B8B8B8
310
B8B8B8B8B8B8B8B8B8B8B8B8B8B8B8B8B8B8B8B8B8B8B8B8B8B8B8B8B8B8B8B8B8B8B8B8B8B8B8B8B8B8B8B8B8B8B8B8B8B8B8B8B8B8B8B8B8B8B8B8B8B8B8B8B8B8B8B8B8B8B8B8B8B8B8B8B8B8B8B8B8B8B8B8B8B8B8B8B8B8B8B8B8B8B8B8B8B8B8B8B8B8B8B8B8B8B8B8B8B8B8B8B8B8B8B8B8B8B8B8B8B8B8B8B8B8B8
310
B8B8B8B8B8B8B8B8B8B8B8B8B8B8B8B8B8B8B8B8B8B8B8B8B8B8B8B8B8B8B8B8B8B8B8B8B8B8B8B8B8B8B8B8B8B8B8B8B8B8B8B8B8B8B8B8B8B8B8B8B8B8B8B8B8B8B8B8B8B8B8B8B8B8B8B8B8B8B8B8B8B8B8B8B8B8B8B8B8B8B8B8B8B8B8B8B8B8B8B8B8B8B8B8B8B8B8B8B8B8B8B8B8B8B8B8B8B8B8B8B8B8B8B8B8B8B8
310
B8B8B8B8B8B8B8B8B8B8B8B8B8B8B8B8B8B8B8B8B8B8B8B8B8B8B8B8B8B8B8B8B8B8B8B8B8B8B8B8B8B8B8B8B8B8B8B8B8B8B8B8B8B8B8B8B8B8B8B8B8B8B8B8B8B8B8B8B8B8B8B8B8B8B8B8B8B8B8B8B8B8B8B8B8B8B8B8B8B8B8B8B8B8B8B8B8B8B8B8B8B8B8B8B8B8B8B8B8B8B8B8B8B8B8B8B8B8B8B8B8B8B8B8B8B8B8
310
B8B8B8B8B8B8B8B8B8B8B8B8B8B8B8B8B8B8B8B8B8B8B8B8B8B8B8B8B8B8B8B8B8B8B8B8B8B8B8B8B8B8B8B8B8B8B8B8B8B8B8B8B8B8B8B8B8B8B8B8B8B8B8B8B8B8B8B8B8B8B8B8B8B8B8B8B8B8B8B8B8B8B8B8B8B8B8B8B8B8B8B8B8B8B8B8B8B8B8B8B8B8B8B8B8B8B8B8B8B8B8B8B8B8B8B8B8B8B8B8B8B8B8B8B8B8B8
310
B8B8B8B8B8B8B8B8B8B8B8B8B8B8B8B8B8B8B8B8B8B8B8B8B8B8B8B8B8B8B8B8B8B8B8B8B8B8B8B8B8B8B8B8B8B8B8B8B8B8B8B8B8B8B8B8B8B8B8B8B8B8B8B8B8B8B8B8B8B8B8B8B8B8B8B8B8B8B8B8B8B8B8B8B8B8B8B8B8B8B8B8B8B8B8B8B8B8B8B8B8B8B8B8B8B8B8B8B8B8B8B8B8B8B8B8B8B8B8B8B8B8B8B8B8B8B8
310
B8B8B8B8B8B8B8B8B8B8B8B8B8B8B8B8B8B8B8B8B8B8B8B8B8B8B8B8B8B8B8B8B8B8B8B8B8B8B8B8B8B8B8B8B8B8B8B8B8B8B8B8B8B8B8B8B8B8B8B8B8B8B8B8B8B8B8B8B8B8B8B8B8B8B8B8B8B8B8B8B8B8B8B8B8B8B8B8B8B8B8B8B8B8B8B8B8B8B8B8B8B8B8B8B8B8B8B8B8B8B8B8B8B8B8B8B8B8B8B8B8B8B8B8B8B8B8
310
B8B8B8B8B8B8B8B8B8B8B8B8B8B8B8B8B8B8B8B8B8B8B8B8B8B8B8B8B8B8B8B8B8B8B8B8B8B8B8B8B8B8B8B8B8B8B8B8B8B8B8B8B8B8B8B8B8B8B8B8B8B8B8B8B8B8B8B8B8B8B8B8B8B8B8B8B8B8B8B8B8B8B8B8B8B8B8B8B8B8B8B8B8B8B8B8B8B8B8B8B8B8B8B8B8B8B8B8B8B8B8B8B8B8B8B8B8B8B8B8B8B8B8B8B8B8B8
310
B8B8B8B8B8B8B8B8B8B8B8B8B8B8B8B8B8B8B8B8B8B8B8B8B8B8B8B8B8B8B8B8B8B8B8B8B8B8B8B8B8B8B8B8B8B8B8B8B8B8B8B8B8B8B8B8B8B8B8B8B8B8B8B8B8B8B8B8B8B8B8B8B8B8B8B8B8B8B8B8B8B8B8B8B8B8B8B8B8B8B8B8B8B8B8B8B8B8B8B8B8B8B8B8B8B8B8B8B8B8B8B8B8B8B8B8B8B8B8B8B8B8B8B8B8B8B8
310
B8B8B8B8B8B8B8B8B8B8B8B8B8B8B8B8B8B8B8B8B8B8B8B8B8B8B8B8B8B8B8B8B8B8B8B8B8B8B8B8B8B8B8B8B8B8B8B8B8B8B8B8B8B8B8B8B8B8B8B8B8B8B8B8B8B8B8B8B8B8B8B8B8B8B8B8B8B8B8B8B8B8B8B8B8B8B8B8B8B8B8B8B8B8B8B8B8B8B8B8B8B8B8B8B8B8B8B8B8B8B8B8B8B8B8B8B8B8B8B8B8B8B8B8B8B8B8
310
B8B8B8B8B8B8B8B8B8B8B8B8B8B8B8B8B8B8B8B8B8B8B8B8B8B8B8B8B8B8B8B8B8B8B8B8B8B8B8B8B8B8B8B8B8B8B8B8B8B8B8B8B8B8B8B8B8B8B8B8B8B8B8B8B8B8B8B8B8B8B8B8B8B8B8B8B8B8B8B8B8B8B8B8B8B8B8B8B8B8B8B8B8B8B8B8B8B8B8B8B8B8B8B8B8B8B8B8B8B8B8B8B8B8B8B8B8B8B8B8B8B8B8B8B8B8B8
310
B8B8B8B8B8B8B8B8B8B8B8B8B8B8B8B8B8B8B8B8B8B8B8B8B8B8B8B8B8B8B8B8B8B8B8B8B8B8B8B8B8B8B8B8B8B8B8B8B8B8B8B8B8B8B8B8B8B8B8B8B8B8B8B8B8B8B8B8B8B8B8B8B8B8B8B8B8B8B8B8B8B8B8B8B8B8B8B8B8B8B8B8B8B8B8B8B8B8B8B8B8B8B8B8B8B8B8B8B8B8B8B8B8B8B8B8B8B8B8B8B8B8B8B8B8B8B8
310
B8B8B8B8B8B8B8B8B8B8B8B8B8B8B8B8B8B8B8B8B8B8B8B8B8B8B8B8B8B8B8B8B8B8B8B8B8B8B8B8B8B8B8B8B8B8B8B8B8B8B8B8B8B8B8B8B8B8B8B8B8B8B8B8B8B8B8B8B8B8B8B8B8B8B8B8B8B8B8B8B8B8B8B8B8B8B8B8B8B8B8B8B8B8B8B8B8B8B8B8B8B8B8B8B8B8B8B8B8B8B8B8B8B8B8B8B8B8B8B8B8B8B8B8B8B8B8
310
B8B8B8B8B8B8B8B8B8B8B8B8B8B8B8B8B8B8B8B8B8B8B8B8B8B8B8B8B8B8B8B8B8B8B8B8B8B8B8B8B8B8B8B8B8B8B8B8B8B8B8B8B8B8B8B8B8B8B8B8B8B8B8B8B8B8B8B8B8B8B8B8B8B8B8B8B8B8B8B8B8B8B8B8B8B8B8B8B8B8B8B8B8B8B8B8B8B8B8B8B8B8B8B8B8B8B8B8B8B8B8B8B8B8B8B8B8B8B8B8B8B8B8B8B8B8B8
310
B8B8B8B8B8B8B8B8B8B8B8B8B8B8B8B8B8B8B8B8B8B8B8B8B8B8B8B8B8B8B8B8B8B8B8B8B8B8B8B8B8B8B8B8B8B8B8B8B8B8B8B8B8B8B8B8B8B8B8B8B8B8B8B8B8B8B8B8B8B8B8B8B8B8B8B8B8B8B8B8B8B8B8B8B8B8B8B8B8B8B8B8B8B8B8B8B8B8B8B8B8B8B8B8B8B8B8B8B8B8B8B8B8B8B8B8B8B8B8B8B8B8B8B8B8B8B8
310
B8B8B8B8B8B8B8B8B8B8B8B8B8B8B8B8B8B8B8B8B8B8B8B8B8B8B8B8B8B8B8B8B8B8B8B8B8B8B8B8B8B8B8B8B8B8B8B8B8B8B8B8B8B8B8B8B8B8B8B8B8B8B8B8B8B8B8B8B8B8B8B8B8B8B8B8B8B8B8B8B8B8B8B8B8B8B8B8B8B8B8B8B8B8B8B8B8B8B8B8B8B8B8B8B8B8B8B8B8B8B8B8B8B8B8B8B8B8B8B8B8B8B8B8B8B8B8
310
B8B8B8B8B8B8B8B8B8B8B8B8B8B8B8B8B8B8B8B8B8B8B8B8B8B8B8B8B8B8B8B8B8B8B8B8B8B8B8B8B8B8B8B8B8B8B8B8B8B8B8B8B8B8B8B8B8B8B8B8B8B8B8B8B8B8B8B8B8B8B8B8B8B8B8B8B8B8B8B8B8B8B8B8B8B8B8B8B8B8B8B8B8B8B8B8B8B8B8B8B8B8B8B8B8B8B8B8B8B8B8B8B8B8B8B8B8B8B8B8B8B8B8B8B8B8B8
310
B8B8B8B8B8B8B8B8B8B8B8B8B8B8B8B8B8B8B8B8B8B8B8B8B8B8B8B8B8B8B8B8B8B8B8B8B8B8B8B8B8B8B8B8B8B8B8B8B8B8B8B8B8B8B8B8B8B8B8B8B8B8B8B8B8B8B8B8B8B8B8B8B8B8B8B8B8B8B8B8B8B8B8B8B8B8B8B8B8B8B8B8B8B8B8B8B8B8B8B8B8B8B8B8B8B8B8B8B8B8B8B8B8B8B8B8B8B8B8B8B8B8B8B8B8B8B8
310
B8B8B8B8B8B8B8B8B8B8B8B8B8B8B8B8B8B8B8B8B8B8B8B8B8B8B8B8B8B8B8B8B8B8B8B8B8B8B8B8B8B8B8B8B8B8B8B8B8B8B8B8B8B8B8B8B8B8B8B8B8B8B8B8B8B8B8B8B8B8B8B8B8B8B8B8B8B8B8B8B8B8B8B8B8B8B8B8B8B8B8B8B8B8B8B8B8B8B8B8B8B8B8B8B8B8B8B8B8B8B8B8B8B8B8B8B8B8B8B8B8B8B8B8B8B8B8
310
B8B8B8B8B8B8B8B8B8B8B8B8B8B8B8B8B8B8B8B8B8B8B8B8B8B8B8B8B8B8B8B8B8B8B8B8B8B8B8B8B8B8B8B8B8B8B8B8B8B8B8B8B8B8B8B8B8B8B8B8B8B8B8B8B8B8B8B8B8B8B8B8B8B8B8B8B8B8B8B8B8B8B8B8B8B8B8B8B8B8B8B8B8B8B8B8B8B8B8B8B8B8B8B8B8B8B8B8B8B8B8B8B8B8B8B8B8B8B8B8B8B8B8B8B8B8B8
310
B8B8B8B8B8B8B8B8B8B8B8B8B8B8B8B8B8B8B8B8B8B8B8B8B8B8B8B8B8B8B8B8B8B8B8B8B8B8B8B8B8B8B8B8B8B8B8B8B8B8B8B8B8B8B8B8B8B8B8B8B8B8B8B8B8B8B8B8B8B8B8B8B8B8B8B8B8B8B8B8B8B8B8B8B8B8B8B8B8B8B8B8B8B8B8B8B8B8B8B8B8B8B8B8B8B8B8B8B8B8B8B8B8B8B8B8B8B8B8B8B8B8B8B8B8B8B8
310
B8B8B8B8B8B8B8B8B8B8B8B8B8B8B8B8B8B8B8B8B8B8B8B8B8B8B8B8B8B8B8B8B8B8B8B8B8B8B8B8B8B8B8B8B8B8B8B8B8B8B8B8B8B8B8B8B8B8B8B8B8B8B8B8B8B8B8B8B8B8B8B8B8B8B8B8B8B8B8B8B8B8B8B8B8B8B8B8B8B8B8B8B8B8B8B8B8B8B8B8B8B8B8B8B8B8B8B8B8B8B8B8B8B8B8B8B8B8B8B8B8B8B8B8B8B8B8
310
B8B8B8B8B8B8B8B8B8B8B8B8B8B8B8B8B8B8B8B8B8B8B8B8B8B8B8B8B8B8B8B8B8B8B8B8B8B8B8B8B8B8B8B8B8B8B8B8B8B8B8B8B8B8B8B8B8B8B8B8B8B8B8B8B8B8B8B8B8B8B8B8B8B8B8B8B8B8B8B8B8B8B8B8B8B8B8B8B8B8B8B8B8B8B8B8B8B8B8B8B8B8B8B8B8B8B8B8B8B8B8B8B8B8B8B8B8B8B8B8B8B8B8B8B8B8B8
310
B8B8B8B8B8B8B8B8B8B8B8B8B8B8B8B8B8B8B8B8B8B8B8B8B8B8B8B8B8B8B8B8B8B8B8B8B8B8B8B8B8B8B8B8B8B8B8B8B8B8B8B8B8B8B8B8B8B8B8B8B8B8B8B8B8B8B8B8B8B8B8B8B8B8B8B8B8B8B8B8B8B8B8B8B8B8B8B8B8B8B8B8B8B8B8B8B8B8B8B8B8B8B8B8B8B8B8B8B8B8B8B8B8B8B8B8B8B8B8B8B8B8B8B8B8B8B8
310
B8B8B8B8B8B8B8B8B8B8B8B8B8B8B8B8B8B8B8B8B8B8B8B8B8B8B8B8B8B8B8B8B8B8B8B8B8B8B8B8B8B8B8B8B8B8B8B8B8B8B8B8B8B8B8B8B8B8B8B8B8B8B8B8B8B8B8B8B8B8B8B8B8B8B8B8B8B8B8B8B8B8B8B8B8B8B8B8B8B8B8B8B8B8B8B8B8B8B8B8B8B8B8B8B8B8B8B8B8B8B8B8B8B8B8B8B8B8B8B8B8B8B8B8B8B8B8
310
B8B8B8B8B8B8B8B8B8B8B8B8B8B8B8B8B8B8B8B8B8B8B8B8B8B8B8B8B8B8B8B8B8B8B8B8B8B8B8B8B8B8B8B8B8B8B8B8B8B8B8B8B8B8B8B8B8B8B8B8B8B8B8B8B8B8B8B8B8B8B8B8B8B8B8B8B8B8B8B8B8B8B8B8B8B8B8B8B8B8B8B8B8B8B8B8B8B8B8B8B8B8B8B8B8B8B8B8B8B8B8B8B8B8B8B8B8B8B8B8B8B8B8B8B8B8B8
310
B8B8B8B8B8B8B8B8B8B8B8B8B8B8B8B8B8B8B8B8B8B8B8B8B8B8B8B8B8B8B8B8B8B8B8B8B8B8B8B8B8B8B8B8B8B8B8B8B8B8B8B8B8B8B8B8B8B8B8B8B8B8B8B8B8B8B8B8B8B8B8B8B8B8B8B8B8B8B8B8B8B8B8B8B8B8B8B8B8B8B8B8B8B8B8B8B8B8B8B8B8B8B8B8B8B8B8B8B8B8B8B8B8B8B8B8B8B8B8B8B8B8B8B8B8B8B8
310
B8B8B8B8B8B8B8B8B8B8B8B8B8B8B8B8B8B8B8B8B8B8B8B8B8B8B8B8B8B8B8B8B8B8B8B8B8B8B8B8B8B8B8B8B8B8B8B8B8B8B8B8B8B8B8B8B8B8B8B8B8B8B8B8B8B8B8B8B8B8B8B8B8B8B8B8B8B8B8B8B8B8B8B8B8B8B8B8B8B8B8B8B8B8B8B8B8B8B8B8B8B8B8B8B8B8B8B8B8B8B8B8B8B8B8B8B8B8B8B8B8B8B8B8B8B8B8
310
B8B8B8B8B8B8B8B8B8B8B8B8B8B8B8B8B8B8B8B8B8B8B8B8B8B8B8B8B8B8B8B8B8B8B8B8B8B8B8B8B8B8B8B8B8B8B8B8B8B8B8B8B8B8B8B8B8B8B8B8B8B8B8B8B8B8B8B8B8B8B8B8B8B8B8B8B8B8B8B8B8B8B8B8B8B8B8B8B8B8B8B8B8B8B8B8B8B8B8B8B8B8B8B8B8B8B8B8B8B8B8B8B8B8B8B8B8B8B8B8B8B8B8B8B8B8B8
310
B8B8B8B8B8B8B8B8B8B8B8B8B8B8B8B8B8B8B8B8B8B8B8B8B8B8B8B8B8B8B8B8B8B8B8B8B8B8B8B8B8B8B8B8B8B8B8B8B8B8B8B8B8B8B8B8B8B8B8B8B8B8B8B8B8B8B8B8B8B8B8B8B8B8B8B8B8B8B8B8B8B8B8B8B8B8B8B8B8B8B8B8B8B8B8B8B8B8B8B8B8B8B8B8B8B8B8B8B8B8B8B8B8B8B8B8B8B8B8B8B8B8B8B8B8B8B8
310
B8B8B8B8B8B8B8B8B8B8B8B8B8B8B8B8B8B8B8B8B8B8B8B8B8B8B8B8B8B8B8B8B8B8B8B8B8B8B8B8B8B8B8B8B8B8B8B8B8B8B8B8B8B8B8B8B8B8B8B8B8B8B8B8B8B8B8B8B8B8B8B8B8B8B8B8B8B8B8B8B8B8B8B8B8B8B8B8B8B8B8B8B8B8B8B8B8B8B8B8B8B8B8B8B8B8B8B8B8B8B8B8B8B8B8B8B8B8B8B8B8B8B8B8B8B8B8
310
B8B8B8B8B8B8B8B8B8B8B8B8B8B8B8B8B8B8B8B8B8B8B8B8B8B8B8B8B8B8B8B8B8B8B8B8B8B8B8B8B8B8B8B8B8B8B8B8B8B8B8B8B8B8B8B8B8B8B8B8B8B8B8B8B8B8B8B8B8B8B8B8B8B8B8B8B8B8B8B8B8B8B8B8B8B8B8B8B8B8B8B8B8B8B8B8B8B8B8B8B8B8B8B8B8B8B8B8B8B8B8B8B8B8B8B8B8B8B8B8B8B8B8B8B8B8B8
310
B8B8B8B8B8B8B8B8B8B8B8B8B8B8B8B8B8B8B8B8B8B8B8B8B8B8B8B8B8B8B8B8B8B8B8B8B8B8B8B8B8B8B8B8B8B8B8B8B8B8B8B8B8B8B8B8B8B8B8B8B8B8B8B8B8B8B8B8B8B8B8B8B8B8B8B8B8B8B8B8B8B8B8B8B8B8B8B8B8B8B8B8B8B8B8B8B8B8B8B8B8B8B8B8B8B8B8B8B8B8B8B8B8B8B8B8B8B8B8B8B8B8B8B8B8B8B8
310
B8B8B8B8B8B8B8B8B8B8B8B8B8B8B8B8B8B8B8B8B8B8B8B8B8B8B8B8B8B8B8B8B8B8B8B8B8B8B8B8B8B8B8B8B8B8B8B8B8B8B8B8B8B8B8B8B8B8B8B8B8B8B8B8B8B8B8B8B8B8B8B8B8B8B8B8B8B8B8B8B8B8B8B8B8B8B8B8B8B8B8B8B8B8B8B8B8B8B8B8B8B8B8B8B8B8B8B8B8B8B8B8B8B8B8B8B8B8B8B8B8B8B8B8B8B8B8
310
B8B8B8B8B8B8B8B8B8B8B8B8B8B8B8B8B8B8B8B8B8B8B8B8B8B8B8B8B8B8B8B8B8B8B8B8B8B8B8B8B8B8B8B8B8B8B8B8B8B8B8B8B8B8B8B8B8B8B8B8B8B8B8B8B8B8B8B8B8B8B8B8B8B8B8B8B8B8B8B8B8B8B8B8B8B8B8B8B8B8B8B8B8B8B8B8B8B8B8B8B8B8B8B8B8B8B8B8B8B8B8B8B8B8B8B8B8B8B8B8B8B8B8B8B8B8B8
310
B8B8B8B8B8B8B8B8B8B8B8B8B8B8B8B8B8B8B8B8B8B8B8B8B8B8B8B8B8B8B8B8B8B8B8B8B8B8B8B8B8B8B8B8B8B8B8B8B8B8B8B8B8B8B8B8B8B8B8B8B8B8B8B8B8B8B8B8B8B8B8B8B8B8B8B8B8B8B8B8B8B8B8B8B8B8B8B8B8B8B8B8B8B8B8B8B8B8B8B8B8B8B8B8B8B8B8B8B8B8B8B8B8B8B8B8B8B8B8B8B8B8B8B8B8B8B8
310
B8B8B8B8B8B8B8B8B8B8B8B8B8B8B8B8B8B8B8B8B8B8B8B8B8B8B8B8B8B8B8B8B8B8B8B8B8B8B8B8B8B8B8B8B8B8B8B8B8B8B8B8B8B8B8B8B8B8B8B8B8B8B8B8B8B8B8B8B8B8B8B8B8B8B8B8B8B8B8B8B8B8B8B8B8B8B8B8B8B8B8B8B8B8B8B8B8B8B8B8B8B8B8B8B8B8B8B8B8B8B8B8B8B8B8B8B8B8B8B8B8B8B8B8B8B8B8
310
B8B8B8B8B8B8B8B8B8B8B8B8B8B8B8B8B8B8B8B8B8B8B8B8B8B8B8B8B8B8B8B8B8B8B8B8B8B8B8B8B8B8B8B8B8B8B8B8B8B8B8B8B8B8B8B8B8B8B8B8B8B8B8B8B8B8B8B8B8B8B8B8B8B8B8B8B8B8B8B8B8B8B8B8B8B8B8B8B8B8B8B8B8B8B8B8B8B8B8B8B8B8B8B8B8B8B8B8B8B8B8B8B8B8B8B8B8B8B8B8B8B8B8B8B8B8B8
310
B8B8B8B8B8B8B8B8B8B8B8B8B8B8B8B8B8B8B8B8B8B8B8B8B8B8B8B8B8B8B8B8B8B8B8B8B8B8B8B8B8B8B8B8B8B8B8B8B8B8B8B8B8B8B8B8B8B8B8B8B8B8B8B8B8B8B8B8B8B8B8B8B8B8B8B8B8B8B8B8B8B8B8B8B8B8B8B8B8B8B8B8B8B8B8B8B8B8B8B8B8B8B8B8B8B8B8B8B8B8B8B8B8B8B8B8B8B8B8B8B8B8B8B8B8B8B8
310
B8B8B8B8B8B8B8B8B8B8B8B8B8B8B8B8B8B8B8B8B8B8B8B8B8B8B8B8B8B8B8B8B8B8B8B8B8B8B8B8B8B8B8B8B8B8B8B8B8B8B8B8B8B8B8B8B8B8B8B8B8B8B8B8B8B8B8B8B8B8B8B8B8B8B8B8B8B8B8B8B8B8B8B8B8B8B8B8B8B8B8B8B8B8B8B8B8B8B8B8B8B8B8B8B8B8B8B8B8B8B8B8B8B8B8B8B8B8B8B8B8B8B8B8B8B8B8
310
B8B8B8B8B8B8B8B8B8B8B8B8B8B8B8B8B8B8B8B8B8B8B8B8B8B8B8B8B8B8B8B8B8B8B8B8B8B8B8B8B8B8B8B8B8B8B8B8B8B8B8B8B8B8B8B8B8B8B8B8B8B8B8B8B8B8B8B8B8B8B8B8B8B8B8B8B8B8B8B8B8B8B8B8B8B8B8B8B8B8B8B8B8B8B8B8B8B8B8B8B8B8B8B8B8B8B8B8B8B8B8B8B8B8B8B8B8B8B8B8B8B8B8B8B8B8B8
310
B8B8B8B8B8B8B8B8B8B8B8B8B8B8B8B8B8B8B8B8B8B8B8B8B8B8B8B8B8B8B8B8B8B8B8B8B8B8B8B8B8B8B8B8B8B8B8B8B8B8B8B8B8B8B8B8B8B8B8B8B8B8B8B8B8B8B8B8B8B8B8B8B8B8B8B8B8B8B8B8B8B8B8B8B8B8B8B8B8B8B8B8B8B8B8B8B8B8B8B8B8B8B8B8B8B8B8B8B8B8B8B8B8B8B8B8B8B8B8B8B8B8B8B8B8B8B8
310
98989898989898989898989898989898989898989898989898989898989898989898989898989898989898989898989898989898989898989898989898989898
  0
CELLSTYLEMAP
  5
24B
102
{ACAD_REACTORS
330
24A
102
}
330
24A
100
AcDbCellStyleMap
 90
3
300
CELLSTYLE
  1
TABLEFORMAT_BEGIN
 90
5
170
1
 91
0
 92
32768
 62
257
 93
1
300
CONTENTFORMAT
  1
CONTENTFORMAT_BEGIN
 90
0
 91
0
 92
4
 93
0
300

 40
0
140
1
 94
5
 62
18
340
11
144
6
309
CONTENTFORMAT_END
171
1
301
MARGIN
  1
CELLMARGIN_BEGIN
 40
1.5
 40
1.5
 40
1.5
 40
1.5
 40
0.18
 40
0.18
309
CELLMARGIN_END
 94
6
 95
1
302
GRIDFORMAT
  1
GRIDFORMAT_BEGIN
 90
0
 91
1
 62
0
 92
-2
340
0
 93
0
 40
0.045
309
GRIDFORMAT_END
 95
2
302
GRIDFORMAT
  1
GRIDFORMAT_BEGIN
 90
0
 91
1
 62
0
 92
-2
340
0
 93
0
 40
0.045
309
GRIDFORMAT_END
 95
4
302
GRIDFORMAT
  1
GRIDFORMAT_BEGIN
 90
0
 91
1
 62
0
 92
-2
340
0
 93
0
 40
0.045
309
GRIDFORMAT_END
 95
8
302
GRIDFORMAT
  1
GRIDFORMAT_BEGIN
 90
0
 91
1
 62
0
 92
-2
340
0
 93
0
 40
0.045
309
GRIDFORMAT_END
 95
16
302
GRIDFORMAT
  1
GRIDFORMAT_BEGIN
 90
0
 91
1
 62
0
 92
-2
340
0
 93
0
 40
0.045
309
GRIDFORMAT_END
 95
32
302
GRIDFORMAT
  1
GRIDFORMAT_BEGIN
 90
0
 91
1
 62
0
 92
-2
340
0
 93
0
 40
0.045
309
GRIDFORMAT_END
309
TABLEFORMAT_END
  1
CELLSTYLE_BEGIN
 90
1
 91
1
300
_TITLE
309
CELLSTYLE_END
300
CELLSTYLE
  1
TABLEFORMAT_BEGIN
 90
5
170
1
 91
0
 92
0
 62
257
 93
1
300
CONTENTFORMAT
  1
CONTENTFORMAT_BEGIN
 90
0
 91
0
 92
4
 93
0
300

 40
0
140
1
 94
5
 62
18
340
11
144
4.5
309
CONTENTFORMAT_END
171
1
301
MARGIN
  1
CELLMARGIN_BEGIN
 40
1.5
 40
1.5
 40
1.5
 40
1.5
 40
0.18
 40
0.18
309
CELLMARGIN_END
 94
6
 95
1
302
GRIDFORMAT
  1
GRIDFORMAT_BEGIN
 90
0
 91
1
 62
0
 92
-2
340
0
 93
0
 40
0.045
309
GRIDFORMAT_END
 95
2
302
GRIDFORMAT
  1
GRIDFORMAT_BEGIN
 90
0
 91
1
 62
0
 92
-2
340
0
 93
0
 40
0.045
309
GRIDFORMAT_END
 95
4
302
GRIDFORMAT
  1
GRIDFORMAT_BEGIN
 90
0
 91
1
 62
0
 92
-2
340
0
 93
0
 40
0.045
309
GRIDFORMAT_END
 95
8
302
GRIDFORMAT
  1
GRIDFORMAT_BEGIN
 90
0
 91
1
 62
0
 92
-2
340
0
 93
0
 40
0.045
309
GRIDFORMAT_END
 95
16
302
GRIDFORMAT
  1
GRIDFORMAT_BEGIN
 90
0
 91
1
 62
0
 92
-2
340
0
 93
0
 40
0.045
309
GRIDFORMAT_END
 95
32
302
GRIDFORMAT
  1
GRIDFORMAT_BEGIN
 90
0
 91
1
 62
0
 92
-2
340
0
 93
0
 40
0.045
309
GRIDFORMAT_END
309
TABLEFORMAT_END
  1
CELLSTYLE_BEGIN
 90
2
 91
1
300
_HEADER
309
CELLSTYLE_END
300
CELLSTYLE
  1
TABLEFORMAT_BEGIN
 90
5
170
1
 91
0
 92
0
 62
257
 93
1
300
CONTENTFORMAT
  1
CONTENTFORMAT_BEGIN
 90
0
 91
0
 92
4
 93
0
300

 40
0
140
1
 94
2
 62
18
340
11
144
4.5
309
CONTENTFORMAT_END
171
1
301
MARGIN
  1
CELLMARGIN_BEGIN
 40
1.5
 40
1.5
 40
1.5
 40
1.5
 40
0.18
 40
0.18
309
CELLMARGIN_END
 94
6
 95
1
302
GRIDFORMAT
  1
GRIDFORMAT_BEGIN
 90
0
 91
1
 62
0
 92
-2
340
0
 93
0
 40
0.045
309
GRIDFORMAT_END
 95
2
302
GRIDFORMAT
  1
GRIDFORMAT_BEGIN
 90
0
 91
1
 62
0
 92
-2
340
0
 93
0
 40
0.045
309
GRIDFORMAT_END
 95
4
302
GRIDFORMAT
  1
GRIDFORMAT_BEGIN
 90
0
 91
1
 62
0
 92
-2
340
0
 93
0
 40
0.045
309
GRIDFORMAT_END
 95
8
302
GRIDFORMAT
  1
GRIDFORMAT_BEGIN
 90
0
 91
1
 62
0
 92
-2
340
0
 93
0
 40
0.045
309
GRIDFORMAT_END
 95
16
302
GRIDFORMAT
  1
GRIDFORMAT_BEGIN
 90
0
 91
1
 62
0
 92
-2
340
0
 93
0
 40
0.045
309
GRIDFORMAT_END
 95
32
302
GRIDFORMAT
  1
GRIDFORMAT_BEGIN
 90
0
 91
1
 62
0
 92
-2
340
0
 93
0
 40
0.045
309
GRIDFORMAT_END
309
TABLEFORMAT_END
  1
CELLSTYLE_BEGIN
 90
3
 91
2
300
_DATA
309
CELLSTYLE_END
  0
LAYOUT
  5
1E
102
{ACAD_REACTORS
330
1A
102
}
330
1A
100
AcDbPlotSettings
  1

  2
HP DeskJet 930C/932C/935C
  4

  6

 40
0
 41
0
 42
0
 43
0
 44
0
 45
0
 46
0
 47
0
 48
0
 49
0
140
0
141
0
142
1
143
1
 70
688
 72
0
 73
0
 74
5
  7

 75
16
 76
0
 77
2
 78
300
147
1
148
0
149
0
100
AcDbLayout
  1
Layout1
 70
1
 71
1
 10
0
 20
0
 11
420
 21
297
 12
0
 22
0
 32
0
 14
1E+20
 24
1E+20
 34
1E+20
 15
1E+20
 25
1E+20
 35
1E+20
146
0
 13
0
 23
0
 33
0
 16
1
 26
0
 36
0
 17
0
 27
1
 37
0
 76
0
330
1B
  0
LAYOUT
  5
230
102
{ACAD_REACTORS
330
1A
102
}
330
1A
100
AcDbPlotSettings
  1

  2
HP DeskJet 930C/932C/935C
  4

  6

 40
0
 41
0
 42
0
 43
0
 44
0
 45
0
 46
0
 47
0
 48
0
 49
0
140
0
141
0
142
1
143
1
 70
688
 72
0
 73
0
 74
5
  7

 75
16
 76
0
 77
2
 78
300
147
1
148
0
149
0
100
AcDbLayout
  1
Layout2
 70
1
 71
2
 10
0
 20
0
 11
12
 21
9
 12
0
 22
0
 32
0
 14
0
 24
0
 34
0
 15
0
 25
0
 35
0
146
0
 13
0
 23
0
 33
0
 16
1
 26
0
 36
0
 17
0
 27
1
 37
0
 76
0
330
96
  0
LAYOUT
  5
22
102
{ACAD_XDICTIONARY
360
231
102
}
102
{ACAD_REACTORS
330
1A
102
}
330
1A
100
AcDbPlotSettings
  1

  2
HP DeskJet 930C/932C/935C
  4

  6

 40
0
 41
0
 42
0
 43
0
 44
0
 45
0
 46
0
 47
0
 48
0
 49
0
140
0
141
0
142
1
143
1
 70
1712
 72
0
 73
0
 74
0
  7

 75
0
 76
0
 77
2
 78
300
147
1
148
0
149
0
100
AcDbLayout
  1
Model
 70
1
 71
0
 10
0
 20
0
 11
12
 21
9
 12
0
 22
0
 32
0
 14
0
 24
0
 34
0
 15
0
 25
0
 35
0
146
0
 13
0
 23
0
 33
0
 16
1
 26
0
 36
0
 17
0
 27
1
 37
0
 76
0
330
70
331
22E
  0
MLINESTYLE
  5
235
102
{ACAD_REACTORS
330
17
102
}
330
17
100
AcDbMlineStyle
  2
STANDARD
 70
0
  3

 51
90
 52
90
 71
2
 49
0.5
  6
ByLayer
 49
-0.5
  6
ByLayer
  0
SCALE
  5
237
102
{ACAD_REACTORS
330
236
102
}
330
236
100
AcDbScale
 70
0
300
1:1
140
1
141
1
290
1
  0
SCALE
  5
238
102
{ACAD_REACTORS
330
236
102
}
330
236
100
AcDbScale
 70
0
300
1:2
140
1
141
2
290
0
  0
SCALE
  5
239
102
{ACAD_REACTORS
330
236
102
}
330
236
100
AcDbScale
 70
0
300
1:4
140
1
141
4
290
0
  0
SCALE
  5
23A
102
{ACAD_REACTORS
330
236
102
}
330
236
100
AcDbScale
 70
0
300
1:5
140
1
141
5
290
0
  0
SCALE
  5
23B
102
{ACAD_REACTORS
330
236
102
}
330
236
100
AcDbScale
 70
0
300
1:8
140
1
141
8
290
0
  0
SCALE
  5
23C
102
{ACAD_REACTORS
330
236
102
}
330
236
100
AcDbScale
 70
0
300
1:10
140
1
141
10
290
0
  0
SCALE
  5
23D
102
{ACAD_REACTORS
330
236
102
}
330
236
100
AcDbScale
 70
0
300
1:16
140
1
141
16
290
0
  0
SCALE
  5
23E
102
{ACAD_REACTORS
330
236
102
}
330
236
100
AcDbScale
 70
0
300
1:20
140
1
141
20
290
0
  0
SCALE
  5
23F
102
{ACAD_REACTORS
330
236
102
}
330
236
100
AcDbScale
 70
0
300
1:30
140
1
141
30
290
0
  0
SCALE
  5
240
102
{ACAD_REACTORS
330
236
102
}
330
236
100
AcDbScale
 70
0
300
1:40
140
1
141
40
290
0
  0
SCALE
  5
241
102
{ACAD_REACTORS
330
236
102
}
330
236
100
AcDbScale
 70
0
300
1:50
140
1
141
50
290
0
  0
SCALE
  5
242
102
{ACAD_REACTORS
330
236
102
}
330
236
100
AcDbScale
 70
0
300
1:100
140
1
141
100
290
0
  0
SCALE
  5
243
102
{ACAD_REACTORS
330
236
102
}
330
236
100
AcDbScale
 70
0
300
2:1
140
2
141
1
290
0
  0
SCALE
  5
244
102
{ACAD_REACTORS
330
236
102
}
330
236
100
AcDbScale
 70
0
300
4:1
140
4
141
1
290
0
  0
SCALE
  5
245
102
{ACAD_REACTORS
330
236
102
}
330
236
100
AcDbScale
 70
0
300
8:1
140
8
141
1
290
0
  0
SCALE
  5
246
102
{ACAD_REACTORS
330
236
102
}
330
236
100
AcDbScale
 70
0
300
10:1
140
10
141
1
290
0
  0
SCALE
  5
247
102
{ACAD_REACTORS
330
236
102
}
330
236
100
AcDbScale
 70
0
300
100:1
140
100
141
1
290
0
  0
TABLESTYLE
  5
249
102
{ACAD_XDICTIONARY
360
24A
102
}
102
{ACAD_REACTORS
330
248
102
}
330
248
100
AcDbTableStyle
  3
Standard
 70
0
 71
0
 40
1.5
 41
1.5
280
0
281
0
  7
Standard
140
4.5
170
2
 62
18
283
0
 90
4
 91
0
274
-2
284
1
 64
0
275
-2
285
1
 65
0
276
-2
286
1
 66
0
277
-2
287
1
 67
0
278
-2
288
1
 68
0
279
-2
289
1
 69
0
  7
Standard
140
6
170
5
 62
18
283
0
 90
4
 91
0
274
-2
284
1
 64
0
275
-2
285
1
 65
0
276
-2
286
1
 66
0
277
-2
287
1
 67
0
278
-2
288
1
 68
0
279
-2
289
1
 69
0
  7
Standard
140
4.5
170
5
 62
18
283
0
 90
4
 91
0
274
-2
284
1
 64
0
275
-2
285
1
 65
0
276
-2
286
1
 66
0
277
-2
287
1
 67
0
278
-2
288
1
 68
0
279
-2
289
1
 69
0
  0
DICTIONARYVAR
  5
24F
102
{ACAD_REACTORS
330
24E
102
}
330
24E
100
DictionaryVariables
280
0
  1
STANDARD
  0
DICTIONARYVAR
  5
250
102
{ACAD_REACTORS
330
24E
102
}
330
24E
100
DictionaryVariables
280
0
  1
STANDARD
  0
DICTIONARYVAR
  5
251
102
{ACAD_REACTORS
330
24E
102
}
330
24E
100
DictionaryVariables
280
0
  1
1
  0
DICTIONARYVAR
  5
252
102
{ACAD_REACTORS
330
24E
102
}
330
24E
100
DictionaryVariables
280
0
  1
1
  0
DICTIONARYVAR
  5
253
102
{ACAD_REACTORS
330
24E
102
}
330
24E
100
DictionaryVariables
280
0
  1
0
  0
DICTIONARYVAR
  5
254
102
{ACAD_REACTORS
330
24E
102
}
330
24E
100
DictionaryVariables
280
0
  1
0
  0
DICTIONARYVAR
  5
255
102
{ACAD_REACTORS
330
24E
102
}
330
24E
100
DictionaryVariables
280
0
  1
1:1
  0
DICTIONARYVAR
  5
256
102
{ACAD_REACTORS
330
24E
102
}
330
24E
100
DictionaryVariables
280
0
  1
1
  0
DICTIONARYVAR
  5
257
102
{ACAD_REACTORS
330
24E
102
}
330
24E
100
DictionaryVariables
280
0
  1
0
  0
ENDSEC
999
Created By CadLib version 4.0.36.72
999
CadLib website: www.woutware.com
  0
EOF
