  0
SECTION
  2
HEADER
  9
$ACADVER
  1
AC1021
  9
$ACADMAINTVER
 70
50
  9
$DWGCODEPAGE
  3
ansi_1252
  9
$TITLE
  1

  9
$SUBJECT
  1

  9
$AUTHOR
  1

  9
$KEYWORDS
  1

  9
$COMMENTS
  1

  9
$LASTSAVEDBY
  1
Dell
  9
$REVISIONNUMBER
  1

  9
$INSBASE
 10
0
 20
0
 30
0
  9
$EXTMIN
 10
695.76768949006407
 20
239.9957734931634
 30
0
  9
$EXTMAX
 10
789.87168022828837
 20
271.1400298884634
 30
0
  9
$LIMMIN
 10
0
 20
0
  9
$LIMMAX
 10
500
 20
500
  9
$SNAPMODE
 70
0
  9
$SNAPUNIT
 10
1
 20
1
  9
$SNAPBASE
 10
0
 20
0
  9
$SNAPANG
 50
0
  9
$SNAPSTYLE
 70
0
  9
$SNAPISOPAIR
 70
0
  9
$ORTHOMODE
 70
1
  9
$REGENMODE
 70
1
  9
$FILLMODE
 70
1
  9
$QTEXTMODE
 70
0
  9
$MIRRTEXT
 70
0
  9
$LTSCALE
 40
1
  9
$OSMODE
 70
0
  9
$ATTMODE
 70
1
  9
$TEXTSIZE
 40
0.2
  9
$TRACEWID
 40
0.05
  9
$TEXTSTYLE
  7
Standard
  9
$CLAYER
  8
0
  9
$CELTYPE
  6
ByLayer
  9
$CECOLOR
 62
2
  9
$CELTSCALE
 40
1
  9
$DISPSILH
 70
0
  9
$DIMSCALE
 40
1
  9
$DIMASZ
 40
4
  9
$DIMEXO
 40
2
  9
$DIMDLI
 40
0.38
  9
$DIMRND
 40
0
  9
$DIMDLE
 40
0
  9
$DIMEXE
 40
2
  9
$DIMTP
 40
0
  9
$DIMTM
 40
0
  9
$DIMTXT
 40
2.5
  9
$DIMCEN
 40
0.09
  9
$DIMTSZ
 40
0
  9
$DIMTOL
 70
0
  9
$DIMLIM
 70
0
  9
$DIMTIH
 70
0
  9
$DIMTOH
 70
0
  9
$DIMSE1
 70
0
  9
$DIMSE2
 70
0
  9
$DIMTAD
 70
0
  9
$DIMZIN
 70
0
  9
$DIMBLK
  1

  9
$DIMASO
 70
1
  9
$DIMSHO
 70
1
  9
$DIMPOST
  1

  9
$DIMAPOST
  1

  9
$DIMALT
 70
1
  9
$DIMALTD
 70
2
  9
$DIMALTF
 40
0.03937
  9
$DIMLFAC
 40
1
  9
$DIMTOFL
 70
0
  9
$DIMTVP
 40
0
  9
$DIMTIX
 70
0
  9
$DIMSOXD
 70
0
  9
$DIMSAH
 70
0
  9
$DIMBLK1
  1

  9
$DIMBLK2
  1

  9
$DIMSTYLE
  2
Standard
  9
$DIMCLRD
 70
0
  9
$DIMCLRE
 70
0
  9
$DIMCLRT
 70
0
  9
$DIMTFAC
 40
1
  9
$DIMGAP
 40
1.5
  9
$DIMJUST
 70
0
  9
$DIMSD1
 70
0
  9
$DIMSD2
 70
0
  9
$DIMTOLJ
 70
1
  9
$DIMTZIN
 70
0
  9
$DIMALTZ
 70
0
  9
$DIMALTTZ
 70
0
  9
$DIMUPT
 70
0
  9
$DIMDEC
 70
2
  9
$DIMTDEC
 70
2
  9
$DIMALTU
 70
2
  9
$DIMALTTD
 70
2
  9
$DIMTXSTY
  7
Standard
  9
$DIMAUNIT
 70
0
  9
$DIMADEC
 70
0
  9
$DIMALTRND
 40
0
  9
$DIMAZIN
 70
0
  9
$DIMDSEP
 70
46
  9
$DIMATFIT
 70
3
  9
$DIMFRAC
 70
0
  9
$DIMLDRBLK
  1

  9
$DIMLUNIT
 70
2
  9
$DIMLWD
 70
-2
  9
$DIMLWE
 70
-2
  9
$DIMFXL
 40
1
  9
$DIMFXLON
 70
0
  9
$DIMJOGANG
 40
0.78539816339744828
  9
$DIMTFILL
 70
0
  9
$DIMTFILLCLR
 70
0
  9
$DIMARCSYM
 70
0
  9
$LUNITS
 70
2
  9
$LUPREC
 70
4
  9
$SKETCHINC
 40
0.1
  9
$FILLETRAD
 40
3
  9
$AUNITS
 70
0
  9
$AUPREC
 70
0
  9
$MENU
  1
.
  9
$ELEVATION
 40
0
  9
$PELEVATION
 40
0
  9
$THICKNESS
 40
0
  9
$LIMCHECK
 70
0
  9
$CHAMFERA
 40
0
  9
$CHAMFERB
 40
0
  9
$CHAMFERC
 40
0
  9
$CHAMFERD
 40
0
  9
$SKPOLY
 70
0
  9
$TDCREATE
 40
2455572.5404676618
  9
$TDUCREATE
 40
2455572.3113009953
  9
$TDUPDATE
 40
2459546.5771412961
  9
$TDUUPDATE
 40
2459546.3479746296
  9
$TDINDWG
 40
0.19271995370370371
  9
$TDUSRTIMER
 40
0.19271935185185185
  9
$USRTIMER
 70
1
  9
$ANGBASE
 50
0
  9
$ANGDIR
 70
0
  9
$PDMODE
 70
2
  9
$PDSIZE
 40
0
  9
$PLINEWID
 40
0
  9
$SPLFRAME
 70
0
  9
$SPLINETYPE
 70
6
  9
$SPLINESEGS
 70
8
  9
$HANDSEED
  5
147
  9
$SURFTAB1
 70
6
  9
$SURFTAB2
 70
6
  9
$SURFTYPE
 70
6
  9
$SURFU
 70
6
  9
$SURFV
 70
6
  9
$UCSORG
 10
0
 20
0
 30
0
  9
$UCSXDIR
 10
1
 20
0
 30
0
  9
$UCSYDIR
 10
0
 20
1
 30
0
  9
$UCSORTHOREF
  2

  9
$UCSORTHOVIEW
 70
0
  9
$UCSORGTOP
 10
0
 20
0
 30
0
  9
$UCSORGBOTTOM
 10
0
 20
0
 30
0
  9
$UCSORGLEFT
 10
0
 20
0
 30
0
  9
$UCSORGRIGHT
 10
0
 20
0
 30
0
  9
$UCSORGFRONT
 10
0
 20
0
 30
0
  9
$UCSORGBACK
 10
0
 20
0
 30
0
  9
$PUCSORG
 10
0
 20
0
 30
0
  9
$PUCSXDIR
 10
1
 20
0
 30
0
  9
$PUCSYDIR
 10
0
 20
1
 30
0
  9
$PUCSORTHOREF
  2

  9
$PUCSORTHOVIEW
 70
0
  9
$PUCSORGTOP
 10
0
 20
0
 30
0
  9
$PUCSORGBOTTOM
 10
0
 20
0
 30
0
  9
$PUCSORGLEFT
 10
0
 20
0
 30
0
  9
$PUCSORGRIGHT
 10
0
 20
0
 30
0
  9
$PUCSORGFRONT
 10
0
 20
0
 30
0
  9
$PUCSORGBACK
 10
0
 20
0
 30
0
  9
$USERI1
 70
0
  9
$USERI2
 70
0
  9
$USERI3
 70
0
  9
$USERI4
 70
0
  9
$USERI5
 70
0
  9
$USERR1
 40
0
  9
$USERR2
 40
0
  9
$USERR3
 40
0
  9
$USERR4
 40
0
  9
$USERR5
 40
0
  9
$WORLDVIEW
 70
1
  9
$SHADEDGE
 70
3
  9
$SHADEDIF
 70
70
  9
$TILEMODE
 70
1
  9
$MAXACTVP
 70
64
  9
$PINSBASE
 10
0
 20
0
 30
0
  9
$PLIMCHECK
 70
0
  9
$PEXTMIN
 10
1.0499999523162831
 20
0.79999995231628418
 30
0
  9
$PEXTMAX
 10
9.4499995708465558
 20
7.1999995708465558
 30
0
  9
$PLIMMAX
 10
10.74999951940821
 20
8.2499997634587316
  9
$PLIMMIN
 10
-0.25000024029589069
 20
-0.24999999624537669
  9
$UNITMODE
 70
0
  9
$VISRETAIN
 70
1
  9
$PLINEGEN
 70
0
  9
$PSLTSCALE
 70
1
  9
$TREEDEPTH
 70
3020
  9
$CMLSTYLE
  2
STANDARD
  9
$CMLJUST
 70
0
  9
$CMLSCALE
 40
1
  9
$PROXYGRAPHICS
 70
1
  9
$MEASUREMENT
 70
0
  9
$CELWEIGHT
370
-1
  9
$ENDCAPS
280
0
  9
$JOINSTYLE
280
0
  9
$LWDISPLAY
290
0
  9
$INSUNITS
 70
1
  9
$HYPERLINKBASE
  1

  9
$XEDIT
290
1
  9
$CEPSNTYPE
380
0
  9
$PSTYLEMODE
290
1
  9
$FINGERPRINTGUID
  2
{A0F506C3-1ADE-426A-9BCA-870B06A8E3A3}
  9
$VERSIONGUID
  2
{D845A5EC-85B9-4B25-BEC7-E5A20FDACC2D}
  9
$EXTNAMES
290
1
  9
$PSVPSCALE
 40
0
  9
$CSHADOW
280
0
  9
$SHADOWPLANELOCATION
 40
0
  9
$SORTENTS
280
127
  9
$INDEXCTL
280
0
  9
$XCLIPFRAME
290
0
  9
$HALOGAP
280
0
  9
$OBSCOLOR
 70
0
  9
$OBSLTYPE
280
0
  9
$INTERSECTIONDISPLAY
280
0
  9
$INTERSECTIONCOLOR
 70
0
  9
$DIMASSOC
280
2
  9
$PROJECTNAME
  1

  9
$INTERFERECOLOR
 62
1
  9
$DIMLTYPE
  6

  9
$DIMLTEX1
  6

  9
$DIMLTEX2
  6

  9
$STYLESHEET
  1

  9
$OLESTARTUP
290
     0
  9
$HIDETEXT
280
     1
  9
$CAMERADISPLAY
290
     0
  9
$LENSLENGTH
 40
50.0
  9
$CAMERAHEIGHT
 40
0.0
  9
$STEPSPERSEC
 40
2.0
  9
$STEPSIZE
 40
6.0
  9
$3DDWFPREC
 40
2.0
  9
$PSOLWIDTH
 40
0.25
  9
$PSOLHEIGHT
 40
4.0
  9
$LOFTANG1
 40
1.570796326794896
  9
$LOFTANG2
 40
1.570796326794896
  9
$LOFTMAG1
 40
0.0
  9
$LOFTMAG2
 40
0.0
  9
$LOFTPARAM
 70
     7
  9
$LOFTNORMALS
280
     1
  9
$LATITUDE
 40
0.0
  9
$LONGITUDE
 40
0.0
  9
$NORTHDIRECTION
 40
0.0
  9
$TIMEZONE
 70
 -8000
  9
$LIGHTGLYPHDISPLAY
280
     1
  9
$TILEMODELIGHTSYNCH
280
     1
  9
$CMATERIAL
347
23C4
  9
$SOLIDHIST
280
     1
  9
$SHOWHIST
280
     1
  9
$DWFFRAME
280
     2
  9
$DGNFRAME
280
     0
  9
$REALWORLDSCALE
290
     1
  0
ENDSEC
  0
SECTION
  2
CLASSES
  0
CLASS
  1
ACDBDICTIONARYWDFLT
  2
AcDbDictionaryWithDefault
  3
ObjectDBX Classes
 90
0
 91
1
280
0
281
0
  0
CLASS
  1
DICTIONARYVAR
  2
AcDbDictionaryVar
  3
ObjectDBX Classes
 90
0
 91
1
280
0
281
0
  0
CLASS
  1
SORTENTSTABLE
  2
AcDbSortentsTable
  3
ObjectDBX Classes
 90
0
 91
1
280
0
281
0
  0
CLASS
  1
SPATIAL_FILTER
  2
AcDbSpatialFilter
  3
ObjectDBX Classes
 90
0
 91
1
280
0
281
0
  0
CLASS
  1
DIMASSOC
  2
AcDbDimAssoc
  3
"AcDbDimAssoc|Product Desc:     AcDim ARX App For Dimension|Company:          Autodesk, Inc.|WEB Address:      www.autodesk.com"
 90
0
 91
1
280
0
281
0
  0
CLASS
  1
MATERIAL
  2
AcDbMaterial
  3
ObjectDBX Classes
 90
1153
 91
1
280
0
281
0
  0
CLASS
  1
VISUALSTYLE
  2
AcDbVisualStyle
  3
ObjectDBX Classes
 90
4095
 91
1
280
0
281
0
  0
CLASS
  1
TABLESTYLE
  2
AcDbTableStyle
  3
ObjectDBX Classes
 90
4095
 91
1
280
0
281
0
  0
CLASS
  1
MLEADERSTYLE
  2
AcDbMLeaderStyle
  3
ACDB_MLEADERSTYLE_CLASS
 90
4095
 91
1
280
0
281
0
  0
CLASS
  1
CELLSTYLEMAP
  2
AcDbCellStyleMap
  3
ObjectDBX Classes
 90
1152
 91
1
280
0
281
0
  0
CLASS
  1
SCALE
  2
AcDbScale
  3
ObjectDBX Classes
 90
1153
 91
1
280
0
281
0
  0
CLASS
  1
ACDBSECTIONVIEWSTYLE
  2
AcDbSectionViewStyle
  3
ObjectDBX Classes
 90
1025
 91
1
280
0
281
0
  0
CLASS
  1
ACDBDETAILVIEWSTYLE
  2
AcDbDetailViewStyle
  3
ObjectDBX Classes
 90
1025
 91
1
280
0
281
0
  0
CLASS
  1
ACIDBLOCKREFERENCE
  2
AcIdBlockReference
  3
AcIdViewObj|Product: Inventor Drawing Enabler|Company: Autodesk|Website: www.autodesk.com
 90
1
 91
1
280
0
281
1
  0
CLASS
  1
RASTERVARIABLES
  2
AcDbRasterVariables
  3
ISM
 90
0
 91
1
280
0
281
0
  0
CLASS
  1
IMAGEDEF
  2
AcDbRasterImageDef
  3
ISM
 90
0
 91
1
280
0
281
0
  0
CLASS
  1
IMAGEDEF_REACTOR
  2
AcDbRasterImageDefReactor
  3
ISM
 90
1
 91
1
280
0
281
0
  0
CLASS
  1
IMAGE
  2
AcDbRasterImage
  3
ISM
 90
127
 91
1
280
0
281
1
  0
CLASS
  1
ACAD_EVALUATION_GRAPH
  2
AcDbEvalGraph
  3
ObjectDBX Classes
 90
1153
 91
1
280
0
281
0
  0
CLASS
  1
BLOCKPOINTPARAMETER
  2
AcDbBlockPointParameter
  3
ObjectDBX Classes
 90
1153
 91
1
280
0
281
0
  0
CLASS
  1
BLOCKBASEPOINTPARAMETER
  2
AcDbBlockBasepointParameter
  3
ObjectDBX Classes
 90
1153
 91
1
280
0
281
0
  0
CLASS
  1
BLOCKLOOKUPPARAMETER
  2
AcDbBlockLookupParameter
  3
ObjectDBX Classes
 90
1153
 91
1
280
0
281
0
  0
CLASS
  1
BLOCKVISIBILITYPARAMETER
  2
AcDbBlockVisibilityParameter
  3
ObjectDBX Classes
 90
1153
 91
1
280
0
281
0
  0
CLASS
  1
BLOCKPROPERTIESTABLE
  2
AcDbBlockPropertiesTable
  3
ObjectDBX Classes
 90
1153
 91
1
280
0
281
0
  0
CLASS
  1
BLOCKPOLARPARAMETER
  2
AcDbBlockPolarParameter
  3
ObjectDBX Classes
 90
1153
 91
1
280
0
281
0
  0
CLASS
  1
BLOCKROTATIONPARAMETER
  2
AcDbBlockRotationParameter
  3
ObjectDBX Classes
 90
1153
 91
1
280
0
281
0
  0
CLASS
  1
BLOCKLINEARPARAMETER
  2
AcDbBlockLinearParameter
  3
ObjectDBX Classes
 90
1153
 91
1
280
0
281
0
  0
CLASS
  1
BLOCKXYPARAMETER
  2
AcDbBlockXYParameter
  3
ObjectDBX Classes
 90
1153
 91
1
280
0
281
0
  0
CLASS
  1
BLOCKFLIPPARAMETER
  2
AcDbBlockFlipParameter
  3
ObjectDBX Classes
 90
1153
 91
1
280
0
281
0
  0
CLASS
  1
BLOCKALIGNMENTPARAMETER
  2
AcDbBlockAlignmentParameter
  3
ObjectDBX Classes
 90
1153
 91
1
280
0
281
0
  0
CLASS
  1
BLOCKROTATEACTION
  2
AcDbBlockRotateAction
  3
ObjectDBX Classes
 90
1153
 91
1
280
0
281
0
  0
CLASS
  1
BLOCKSCALEACTION
  2
AcDbBlockScaleAction
  3
ObjectDBX Classes
 90
1153
 91
1
280
0
281
0
  0
CLASS
  1
BLOCKARRAYACTION
  2
AcDbBlockArrayAction
  3
ObjectDBX Classes
 90
1153
 91
1
280
0
281
0
  0
CLASS
  1
BLOCKFLIPACTION
  2
AcDbBlockFlipAction
  3
ObjectDBX Classes
 90
1153
 91
1
280
0
281
0
  0
CLASS
  1
BLOCKLOOKUPACTION
  2
AcDbBlockLookupAction
  3
ObjectDBX Classes
 90
1153
 91
1
280
0
281
0
  0
CLASS
  1
BLOCKMOVEACTION
  2
AcDbBlockMoveAction
  3
ObjectDBX Classes
 90
1153
 91
1
280
0
281
0
  0
CLASS
  1
BLOCKPOLARSTRETCHACTION
  2
AcDbBlockPolarStretchAction
  3
ObjectDBX Classes
 90
1153
 91
1
280
0
281
0
  0
CLASS
  1
BLOCKSTRETCHACTION
  2
AcDbBlockStretchAction
  3
ObjectDBX Classes
 90
1153
 91
1
280
0
281
0
  0
CLASS
  1
BLOCKALIGNMENTGRIP
  2
AcDbBlockAlignmentGrip
  3
ObjectDBX Classes
 90
1153
 91
1
280
0
281
0
  0
CLASS
  1
BLOCKFLIPGRIP
  2
AcDbBlockFlipGrip
  3
ObjectDBX Classes
 90
1153
 91
1
280
0
281
0
  0
CLASS
  1
ACDB_BLOCKREPRESENTATION_DATA
  2
AcDbBlockRepresentationData
  3
ObjectDBX Classes
 90
1153
 91
1
280
0
281
0
  0
CLASS
  1
ACDB_DYNAMICBLOCKPURGEPREVENTER_VERSION
  2
AcDbDynamicBlockPurgePreventer
  3
ObjectDBX Classes
 90
1153
 91
1
280
0
281
0
  0
CLASS
  1
BLOCKLINEARGRIP
  2
AcDbBlockLinearGrip
  3
ObjectDBX Classes
 90
1153
 91
1
280
0
281
0
  0
CLASS
  1
BLOCKLOOKUPGRIP
  2
AcDbBlockLookupGrip
  3
ObjectDBX Classes
 90
1153
 91
1
280
0
281
0
  0
CLASS
  1
BLOCKPOLARGRIP
  2
AcDbBlockPolarGrip
  3
ObjectDBX Classes
 90
1153
 91
1
280
0
281
0
  0
CLASS
  1
BLOCKPROPERTIESTABLEGRIP
  2
AcDbBlockPropertiesTableGrip
  3
ObjectDBX Classes
 90
1153
 91
1
280
0
281
0
  0
CLASS
  1
BLOCKROTATIONGRIP
  2
AcDbBlockRotationGrip
  3
ObjectDBX Classes
 90
1153
 91
1
280
0
281
0
  0
CLASS
  1
BLOCKVISIBILITYGRIP
  2
AcDbBlockVisibilityGrip
  3
ObjectDBX Classes
 90
1153
 91
1
280
0
281
0
  0
CLASS
  1
BLOCKXYGRIP
  2
AcDbBlockXYGrip
  3
ObjectDBX Classes
 90
1153
 91
1
280
0
281
0
  0
CLASS
  1
BLOCKGRIPLOCATIONCOMPONENT
  2
AcDbBlockGripExpr
  3
ObjectDBX Classes
 90
1153
 91
1
280
0
281
0
  0
CLASS
  1
ACDB_DYNAMICBLOCKPROXYNODE
  2
AcDbDynamicBlockProxyNode
  3
ObjectDBX Classes
 90
1153
 91
1
280
0
281
0
  0
ENDSEC
  0
SECTION
  2
TABLES
  0
TABLE
  2
VPORT
  5
8
330
0
100
AcDbSymbolTable
 70
1
  0
VPORT
  5
10A
330
8
100
AcDbSymbolTableRecord
100
AcDbViewportTableRecord
  2
*Active
 70
0
 10
0
 20
0
 11
1
 21
1
 12
742.8147644219556
 22
255.58323969732319
 13
0
 23
0
 14
0.5
 24
0.5
 15
0.5
 25
0.5
 16
0
 26
0
 36
1
 17
0
 27
0
 37
0
 40
32.384206388812551
 41
2.9217002237136458
 42
50
 43
0
 44
0
 50
0
 51
0
 71
0
 72
1000
 73
1
 74
0
 75
0
 76
0
 77
0
 78
0
281
0
 65
1
110
0
120
0
130
0
111
1
121
0
131
0
112
0
122
1
132
0
 79
0
146
0
 60
3
 61
5
292
1
282
1
141
0
142
0
 63
250
1001
ACAD_NAV_VCDISPLAY
1070
3
  0
ENDTAB
  0
TABLE
  2
LTYPE
  5
5
100
AcDbSymbolTable
 70
5
  0
LTYPE
  5
14
330
5
100
AcDbSymbolTableRecord
100
AcDbLinetypeTableRecord
  2
ByBlock
  3

 70
0
 72
65
 73
0
 40
0
  0
LTYPE
  5
15
330
5
100
AcDbSymbolTableRecord
100
AcDbLinetypeTableRecord
  2
ByLayer
  3

 70
0
 72
65
 73
0
 40
0
  0
LTYPE
  5
16
330
5
100
AcDbSymbolTableRecord
100
AcDbLinetypeTableRecord
  2
Continuous
  3
Solid line
 70
0
 72
65
 73
0
 40
0
  0
LTYPE
  5
105
330
5
100
AcDbSymbolTableRecord
100
AcDbLinetypeTableRecord
  2
CENTER
  3
Center ____ _ ____ _ ____ _ ____ _ ____ _ ____
 70
0
 72
65
 73
4
 40
2
 49
1.25
 74
0
 49
-0.25
 74
0
 49
0.25
 74
0
 49
-0.25
 74
0
  0
LTYPE
  5
106
330
5
100
AcDbSymbolTableRecord
100
AcDbLinetypeTableRecord
  2
PHANTOM2
  3
Phantom (.5x) ___ _ _ ___ _ _ ___ _ _ ___ _ _
 70
0
 72
65
 73
6
 40
1.25
 49
0.625
 74
0
 49
-0.125
 74
0
 49
0.125
 74
0
 49
-0.125
 74
0
 49
0.125
 74
0
 49
-0.125
 74
0
  0
ENDTAB
  0
TABLE
  2
LAYER
  5
2
100
AcDbSymbolTable
 70
5
  0
LAYER
  5
10
330
2
100
AcDbSymbolTableRecord
100
AcDbLayerTableRecord
 70
0
  2
0
 62
7
  6
Continuous
370
-3
390
F
  0
LAYER
  5
27
330
2
100
AcDbSymbolTableRecord
100
AcDbLayerTableRecord
 70
0
  2
Defpoints
 62
151
  6
Continuous
290
0
370
-3
390
F
  0
LAYER
  5
28
330
2
100
AcDbSymbolTableRecord
100
AcDbLayerTableRecord
 70
64
  2
LaserCutting
 62
3
  6
Continuous
370
-3
390
F
  0
LAYER
  5
29
330
2
100
AcDbSymbolTableRecord
100
AcDbLayerTableRecord
 70
64
  2
Marking
 62
6
  6
Continuous
370
-3
390
F
  0
LAYER
  5
2A
330
2
100
AcDbSymbolTableRecord
100
AcDbLayerTableRecord
 70
64
  2
Dimention
 62
9
  6
Continuous
370
-3
390
F
  0
ENDTAB
  0
TABLE
  2
STYLE
  5
3
100
AcDbSymbolTable
 70
3
  0
STYLE
  5
11
330
3
100
AcDbSymbolTableRecord
100
AcDbTextStyleTableRecord
  2
Standard
 70
0
 40
0
 41
1
 50
0
 71
0
 42
0.2
  3
txt
  0
STYLE
  5
103
330
3
100
AcDbSymbolTableRecord
100
AcDbTextStyleTableRecord
  2
HARI
 70
0
 40
1.5
 41
1
 50
0
 71
0
 42
1.5
  3
romantic.ttf
1001
ACAD
1000
Romantic
1071
514
  0
STYLE
  5
104
330
3
100
AcDbSymbolTableRecord
100
AcDbTextStyleTableRecord
  2
Roman
 70
0
 40
0
 41
1
 50
0
 71
0
 42
5
  3
romans
  4
bigfont
  0
ENDTAB
  0
TABLE
  2
VIEW
  5
6
100
AcDbSymbolTable
 70
0
  0
ENDTAB
  0
TABLE
  2
UCS
  5
7
100
AcDbSymbolTable
 70
0
  0
ENDTAB
  0
TABLE
  2
APPID
  5
9
330
0
100
AcDbSymbolTable
 70
5
  0
APPID
  5
12
330
0
100
AcDbSymbolTableRecord
100
AcDbRegAppTableRecord
  2
ACAD
 70
0
  0
APPID
  5
13E
330
0
100
AcDbSymbolTableRecord
100
AcDbRegAppTableRecord
  2
ACAD_MLEADERVER
 70
0
  0
APPID
  5
13F
330
0
100
AcDbSymbolTableRecord
100
AcDbRegAppTableRecord
  2
ACAD_EXEMPT_FROM_CAD_STANDARDS
 70
0
  0
APPID
  5
140
330
0
100
AcDbSymbolTableRecord
100
AcDbRegAppTableRecord
  2
ACAD_NAV_VCDISPLAY
 70
0
  0
APPID
  5
141
330
0
100
AcDbSymbolTableRecord
100
AcDbRegAppTableRecord
  2
AcadAnnotative
 70
64
  0
ENDTAB
  0
TABLE
  2
DIMSTYLE
  5
A
330
0
100
AcDbSymbolTable
 70
3
100
AcDbDimStyleTable
 71
0
  0
DIMSTYLE
105
107
330
A
100
AcDbSymbolTableRecord
100
AcDbDimStyleTableRecord
  2
Standard
 70
0
  3

  4

 40
1
 41
4
 42
2
 43
0.38
 44
2
 45
0
 46
0
 47
0
 48
0
140
2.5
141
0.09
142
0
143
0.03937
144
1
145
0
146
1
147
1.5
148
0
 71
0
 72
0
 73
0
 74
0
 75
0
 76
0
 77
0
 78
0
 79
0
170
1
171
2
172
0
173
0
174
0
175
0
179
0
271
2
272
2
273
2
274
0
275
0
276
0
277
2
278
46
279
0
280
0
281
0
282
0
283
1
284
0
285
0
286
0
288
0
289
0
340
11
371
-2
372
-2
  0
DIMSTYLE
105
108
330
A
100
AcDbSymbolTableRecord
100
AcDbDimStyleTableRecord
  2
FXDIMINFO
 70
0
  3

  4

 40
1
 41
4
 42
1
 43
20
 44
5
 45
0
 46
6
 47
0
 48
0
140
15
141
2.5
142
0
143
0.03937
144
1
145
0
146
1
147
1
148
0
 71
0
 72
0
 73
0
 74
0
 75
0
 76
0
 77
1
 78
8
 79
0
170
0
171
3
172
1
173
0
174
0
175
0
176
7
177
7
178
7
179
0
271
4
272
4
273
2
274
3
275
0
276
0
277
2
278
46
279
2
280
0
281
0
282
0
283
1
284
8
285
8
286
8
288
0
289
0
340
103
371
-2
372
-2
  0
DIMSTYLE
105
109
330
A
100
AcDbSymbolTableRecord
100
AcDbDimStyleTableRecord
  2
ISO-25
 70
0
  3

  4

 40
1
 41
3
 42
3
 43
3.75
 44
3
 45
0
 46
0
 47
0
 48
0
140
5
141
2.5
142
0
143
0.03937007874016
144
1
145
0
146
1
147
0.625
148
0
 71
0
 72
0
 73
0
 74
1
 75
0
 76
0
 77
0
 78
8
 79
0
170
0
171
3
172
1
173
0
174
0
175
0
176
256
177
256
179
0
271
2
272
2
273
2
274
3
275
0
276
0
277
2
278
46
279
0
280
0
281
0
282
0
283
0
284
8
285
0
286
0
288
0
289
0
340
11
371
0
372
0
  0
ENDTAB
  0
TABLE
  2
BLOCK_RECORD
  5
1
330
0
100
AcDbSymbolTable
 70
3
  0
BLOCK_RECORD
  5
2B
102
{ACAD_XDICTIONARY
360
2C
102
}
330
1
100
AcDbSymbolTableRecord
100
AcDbBlockTableRecord
  2
TOL
1001
ACAD
1000
DesignCenter Data
1002
{
1070
1
1070
4
1002
}
  0
BLOCK_RECORD
  5
64
330
1
100
AcDbSymbolTableRecord
100
AcDbBlockTableRecord
  2
TOLERANCE BLOCK
1001
ACAD
1000
DesignCenter Data
1002
{
1070
1
1070
4
1002
}
  0
BLOCK_RECORD
  5
69
330
1
100
AcDbSymbolTableRecord
100
AcDbBlockTableRecord
  2
A
1001
ACAD
1000
DesignCenter Data
1002
{
1070
1
1070
4
1002
}
  0
BLOCK_RECORD
  5
6E
102
{ACAD_XDICTIONARY
360
6F
102
}
330
1
100
AcDbSymbolTableRecord
100
AcDbBlockTableRecord
  2
KAMAL
  0
BLOCK_RECORD
  5
EA
102
{ACAD_XDICTIONARY
360
EB
102
}
330
1
100
AcDbSymbolTableRecord
100
AcDbBlockTableRecord
  2
*MODEL_SPACE
340
22
  0
BLOCK_RECORD
  5
1B
330
1
100
AcDbSymbolTableRecord
100
AcDbBlockTableRecord
  2
*Paper_Space
340
1E
  0
BLOCK_RECORD
  5
100
330
1
100
AcDbSymbolTableRecord
100
AcDbBlockTableRecord
  2
*Paper_Space0
340
10E
  0
ENDTAB
  0
ENDSEC
  0
SECTION
  2
BLOCKS
  0
BLOCK
  5
2E
330
2B
100
AcDbEntity
  8
0
100
AcDbBlockBegin
  2
TOL
 70
0
 10
0
 20
0
 30
0
  3
TOL
  0
LINE
  5
2F
330
2B
100
AcDbEntity
  8
0
100
AcDbLine
 10
99.999999999999574
 20
0
 30
0
 11
0
 21
0
 31
0
  0
LINE
  5
30
330
2B
100
AcDbEntity
  8
0
100
AcDbLine
 10
0
 20
0
 30
0
 11
0
 21
-130
 31
0
  0
LINE
  5
31
330
2B
100
AcDbEntity
  8
0
100
AcDbLine
 10
0
 20
-20
 30
0
 11
99.999999999999574
 21
-20
 31
0
  0
LINE
  5
32
330
2B
100
AcDbEntity
  8
0
100
AcDbLine
 10
50
 20
-20
 30
0
 11
50
 21
-130
 31
0
  0
LINE
  5
33
330
2B
100
AcDbEntity
  8
0
100
AcDbLine
 10
24.999999999999559
 20
-30.000000000000028
 30
0
 11
24.999999999999559
 21
-130
 31
0
  0
LINE
  5
34
330
2B
100
AcDbEntity
  8
0
100
AcDbLine
 10
0
 20
-30.000000000000028
 30
0
 11
50
 21
-30.000000000000028
 31
0
  0
LINE
  5
35
330
2B
100
AcDbEntity
  8
0
100
AcDbLine
 10
0
 20
-130
 30
0
 11
99.999999999999574
 21
-130
 31
0
  0
LINE
  5
36
330
2B
100
AcDbEntity
  8
0
100
AcDbLine
 10
0
 20
-120
 30
0
 11
99.999999999999574
 21
-120
 31
0
  0
LINE
  5
37
330
2B
100
AcDbEntity
  8
0
100
AcDbLine
 10
0
 20
-110
 30
0
 11
99.999999999999574
 21
-110
 31
0
  0
LINE
  5
38
330
2B
100
AcDbEntity
  8
0
100
AcDbLine
 10
0
 20
-100
 30
0
 11
99.999999999999574
 21
-100
 31
0
  0
LINE
  5
39
330
2B
100
AcDbEntity
  8
0
100
AcDbLine
 10
0
 20
-90
 30
0
 11
99.999999999999574
 21
-90
 31
0
  0
LINE
  5
3A
330
2B
100
AcDbEntity
  8
0
100
AcDbLine
 10
0
 20
-79.999999999999972
 30
0
 11
99.999999999999574
 21
-79.999999999999972
 31
0
  0
LINE
  5
3B
330
2B
100
AcDbEntity
  8
0
100
AcDbLine
 10
0
 20
-70
 30
0
 11
99.999999999999574
 21
-70
 31
0
  0
LINE
  5
3C
330
2B
100
AcDbEntity
  8
0
100
AcDbLine
 10
0
 20
-60
 30
0
 11
99.999999999999574
 21
-60
 31
0
  0
LINE
  5
3D
330
2B
100
AcDbEntity
  8
0
100
AcDbLine
 10
0
 20
-50.000000000000028
 30
0
 11
99.999999999999574
 21
-50.000000000000028
 31
0
  0
LINE
  5
3E
330
2B
100
AcDbEntity
  8
0
100
AcDbLine
 10
0
 20
-40
 30
0
 11
99.999999999999574
 21
-40
 31
0
  0
LINE
  5
3F
330
2B
100
AcDbEntity
  8
0
100
AcDbLine
 10
99.999999999999574
 20
-130
 30
0
 11
99.999999999999574
 21
0
 31
0
  0
MTEXT
  5
40
330
2B
100
AcDbEntity
  8
0
100
AcDbMText
 10
16.245461267125851
 20
-3.3354330021499972
 30
0
 11
1
 21
0
 31
0
 40
3.5608995919105482
 41
74.407329180154193
 46
0
 71
1
 72
5
  1
APPLIED TO DIMENSIONS\PWITHOUT TOLERANCES
  7
Standard
 73
1
 90
0
1001
ACAD
1000
MTEXTBEGIN
1070
73
1070
1
1070
44
1040
1
1070
74
1070
0
1000
MTEXTEND
  0
MTEXT
  5
41
330
2B
100
AcDbEntity
  8
0
100
AcDbMText
 10
14.17841489240527
 20
-21.88012200406115
 30
0
 11
1
 21
0
 31
0
 40
2.4926297143373839
 41
26.056932558979039
 46
0
 71
1
 72
5
  1
DIMENSIONS\P   MM
  7
Standard
 73
1
 90
0
1001
ACAD
1000
MTEXTBEGIN
1070
73
1070
1
1070
44
1040
1
1070
74
1070
0
1000
MTEXTEND
  0
MTEXT
  5
42
330
2B
100
AcDbEntity
  8
0
100
AcDbMText
 10
69.283689155995475
 20
-27.629423384463081
 30
0
 11
1
 21
0
 31
0
 40
2.4926297143373839
 41
26.056932558979039
 46
0
 71
1
 72
5
  1
TOLERANCE\P   MM
  7
Standard
 73
1
 90
0
1001
ACAD
1000
MTEXTBEGIN
1070
73
1070
1
1070
44
1040
1
1070
74
1070
0
1000
MTEXTEND
  0
MTEXT
  5
43
330
2B
100
AcDbEntity
  8
0
100
AcDbMText
 10
8.825005280450112
 20
-43.967294419338707
 30
0
 11
1
 21
0
 31
0
 40
4.4511244898881861
 41
6.715928082588106
 46
0
 71
1
 72
5
  1
0.5
  7
Standard
 73
1
 90
0
1001
ACAD
1000
MTEXTBEGIN
1070
73
1070
1
1070
44
1040
1
1070
74
1070
0
1000
MTEXTEND
  0
MTEXT
  5
44
330
2B
100
AcDbEntity
  8
0
100
AcDbMText
 10
34.694443651893842
 20
-44.133483136648223
 30
0
 11
1
 21
0
 31
0
 40
4.4511244898881861
 41
6.0065613065244161
 46
0
 71
1
 72
5
  1
6
  7
Standard
 73
1
 90
0
1001
ACAD
1000
MTEXTBEGIN
1070
73
1070
1
1070
44
1040
1
1070
74
1070
0
1000
MTEXTEND
  0
MTEXT
  5
45
330
2B
100
AcDbEntity
  8
0
100
AcDbMText
 10
72.257885975416684
 20
-44.9104086823497
 30
0
 11
1
 21
0
 31
0
 40
4.4511244898881861
 41
8.2378472016048363
 46
0
 71
1
 72
5
  1
±0.1
  7
Standard
 73
1
 90
0
1001
ACAD
1000
MTEXTBEGIN
1070
73
1070
1
1070
44
1040
1
1070
74
1070
0
1000
MTEXTEND
  0
MTEXT
  5
46
330
2B
100
AcDbEntity
  8
0
100
AcDbMText
 10
10.90186718918039
 20
-53.967294419338742
 30
0
 11
1
 21
0
 31
0
 40
4.4511244898881861
 41
6.715928082588106
 46
0
 71
1
 72
5
  1
6
  7
Standard
 73
1
 90
0
1001
ACAD
1000
MTEXTBEGIN
1070
73
1070
1
1070
44
1040
1
1070
74
1070
0
1000
MTEXTEND
  0
MTEXT
  5
47
330
2B
100
AcDbEntity
  8
0
100
AcDbMText
 10
33.791253168206822
 20
-54.133483136648252
 30
0
 11
1
 21
0
 31
0
 40
4.4511244898881861
 41
6.0065613065244161
 46
0
 71
1
 72
5
  1
30
  7
Standard
 73
1
 90
0
1001
ACAD
1000
MTEXTBEGIN
1070
73
1070
1
1070
44
1040
1
1070
74
1070
0
1000
MTEXTEND
  0
MTEXT
  5
48
330
2B
100
AcDbEntity
  8
0
100
AcDbMText
 10
72.257885975416684
 20
-54.910408682349711
 30
0
 11
1
 21
0
 31
0
 40
4.4511244898881861
 41
8.2378472016048363
 46
0
 71
1
 72
5
  1
±0.2
  7
Standard
 73
1
 90
0
1001
ACAD
1000
MTEXTBEGIN
1070
73
1070
1
1070
44
1040
1
1070
74
1070
0
1000
MTEXTEND
  0
MTEXT
  5
49
330
2B
100
AcDbEntity
  8
0
100
AcDbMText
 10
9.9629465155644539
 20
-63.967294419338707
 30
0
 11
1
 21
0
 31
0
 40
4.4511244898881861
 41
6.715928082588106
 46
0
 71
1
 72
5
  1
30
  7
Standard
 73
1
 90
0
1001
ACAD
1000
MTEXTBEGIN
1070
73
1070
1
1070
44
1040
1
1070
74
1070
0
1000
MTEXTEND
  0
MTEXT
  5
4A
330
2B
100
AcDbEntity
  8
0
100
AcDbMText
 10
33.145942197977561
 20
-64.133483136648252
 30
0
 11
1
 21
0
 31
0
 40
4.4511244898881861
 41
11.230388423995921
 46
0
 71
1
 72
5
  1
120
  7
Standard
 73
1
 90
0
1001
ACAD
1000
MTEXTBEGIN
1070
73
1070
1
1070
44
1040
1
1070
74
1070
0
1000
MTEXTEND
  0
MTEXT
  5
4B
330
2B
100
AcDbEntity
  8
0
100
AcDbMText
 10
72.257885975416684
 20
-64.910408682349725
 30
0
 11
1
 21
0
 31
0
 40
4.4511244898881861
 41
8.2378472016048363
 46
0
 71
1
 72
5
  1
±0.3
  7
Standard
 73
1
 90
0
1001
ACAD
1000
MTEXTBEGIN
1070
73
1070
1
1070
44
1040
1
1070
74
1070
0
1000
MTEXTEND
  0
MTEXT
  5
4C
330
2B
100
AcDbEntity
  8
0
100
AcDbMText
 10
7.427028669903847
 20
-73.967294419338728
 30
0
 11
1
 21
0
 31
0
 40
4.4511244898881861
 41
6.715928082588106
 46
0
 71
1
 72
5
  1
120
  7
Standard
 73
1
 90
0
1001
ACAD
1000
MTEXTBEGIN
1070
73
1070
1
1070
44
1040
1
1070
74
1070
0
1000
MTEXTEND
  0
MTEXT
  5
4D
330
2B
100
AcDbEntity
  8
0
100
AcDbMText
 10
33.751151967303031
 20
-74.133483136648266
 30
0
 11
1
 21
0
 31
0
 40
4.4511244898881861
 41
6.0065613065244161
 46
0
 71
1
 72
5
  1
315
  7
Standard
 73
1
 90
0
1001
ACAD
1000
MTEXTBEGIN
1070
73
1070
1
1070
44
1040
1
1070
74
1070
0
1000
MTEXTEND
  0
MTEXT
  5
4E
330
2B
100
AcDbEntity
  8
0
100
AcDbMText
 10
72.257885975416684
 20
-74.910408682349754
 30
0
 11
1
 21
0
 31
0
 40
4.4511244898881861
 41
8.2378472016048363
 46
0
 71
1
 72
5
  1
±0.5
  7
Standard
 73
1
 90
0
1001
ACAD
1000
MTEXTBEGIN
1070
73
1070
1
1070
44
1040
1
1070
74
1070
0
1000
MTEXTEND
  0
MTEXT
  5
4F
330
2B
100
AcDbEntity
  8
0
100
AcDbMText
 10
7.427028669903847
 20
-83.967294419338685
 30
0
 11
1
 21
0
 31
0
 40
4.4511244898881861
 41
6.715928082588106
 46
0
 71
1
 72
5
  1
315
  7
Standard
 73
1
 90
0
1001
ACAD
1000
MTEXTBEGIN
1070
73
1070
1
1070
44
1040
1
1070
74
1070
0
1000
MTEXTEND
  0
MTEXT
  5
50
330
2B
100
AcDbEntity
  8
0
100
AcDbMText
 10
32.318211619442067
 20
-84.133483136648238
 30
0
 11
1
 21
0
 31
0
 40
4.4511244898881861
 41
6.0065613065244161
 46
0
 71
1
 72
5
  1
1000
  7
Standard
 73
1
 90
0
1001
ACAD
1000
MTEXTBEGIN
1070
73
1070
1
1070
44
1040
1
1070
74
1070
0
1000
MTEXTEND
  0
MTEXT
  5
51
330
2B
100
AcDbEntity
  8
0
100
AcDbMText
 10
72.257885975416684
 20
-84.9104086823497
 30
0
 11
1
 21
0
 31
0
 40
4.4511244898881861
 41
8.2378472016048363
 46
0
 71
1
 72
5
  1
±0.8
  7
Standard
 73
1
 90
0
1001
ACAD
1000
MTEXTBEGIN
1070
73
1070
1
1070
44
1040
1
1070
74
1070
0
1000
MTEXTEND
  0
MTEXT
  5
52
330
2B
100
AcDbEntity
  8
0
100
AcDbMText
 10
7.427028669903847
 20
-93.967294419338742
 30
0
 11
1
 21
0
 31
0
 40
4.4511244898881861
 41
6.715928082588106
 46
0
 71
1
 72
5
  1
1000
  7
Standard
 73
1
 90
0
1001
ACAD
1000
MTEXTBEGIN
1070
73
1070
1
1070
44
1040
1
1070
74
1070
0
1000
MTEXTEND
  0
MTEXT
  5
53
330
2B
100
AcDbEntity
  8
0
100
AcDbMText
 10
31.87398621969033
 20
-93.750998530682679
 30
0
 11
1
 21
0
 31
0
 40
4.4511244898881861
 41
6.0065613065244161
 46
0
 71
1
 72
5
  1
2000
  7
Standard
 73
1
 90
0
1001
ACAD
1000
MTEXTBEGIN
1070
73
1070
1
1070
44
1040
1
1070
74
1070
0
1000
MTEXTEND
  0
MTEXT
  5
54
330
2B
100
AcDbEntity
  8
0
100
AcDbMText
 10
72.257885975416684
 20
-94.910408682349725
 30
0
 11
1
 21
0
 31
0
 40
4.4511244898881861
 41
8.2378472016048363
 46
0
 71
1
 72
5
  1
±1.2
  7
Standard
 73
1
 90
0
1001
ACAD
1000
MTEXTBEGIN
1070
73
1070
1
1070
44
1040
1
1070
74
1070
0
1000
MTEXTEND
  0
MTEXT
  5
55
330
2B
100
AcDbEntity
  8
0
100
AcDbMText
 10
7.427028669903847
 20
-103.9672944193387
 30
0
 11
1
 21
0
 31
0
 40
4.4511244898881861
 41
6.715928082588106
 46
0
 71
1
 72
5
  1
2000
  7
Standard
 73
1
 90
0
1001
ACAD
1000
MTEXTBEGIN
1070
73
1070
1
1070
44
1040
1
1070
74
1070
0
1000
MTEXTEND
  0
MTEXT
  5
56
330
2B
100
AcDbEntity
  8
0
100
AcDbMText
 10
30.858523143003382
 20
-104.1334831366482
 30
0
 11
1
 21
0
 31
0
 40
4.4511244898881861
 41
6.0065613065244161
 46
0
 71
1
 72
5
  1
4000
  7
Standard
 73
1
 90
0
1001
ACAD
1000
MTEXTBEGIN
1070
73
1070
1
1070
44
1040
1
1070
74
1070
0
1000
MTEXTEND
  0
MTEXT
  5
57
330
2B
100
AcDbEntity
  8
0
100
AcDbMText
 10
72.257885975416684
 20
-104.9104086823497
 30
0
 11
1
 21
0
 31
0
 40
4.4511244898881861
 41
8.2378472016048363
 46
0
 71
1
 72
5
  1
±2
  7
Standard
 73
1
 90
0
1001
ACAD
1000
MTEXTBEGIN
1070
73
1070
1
1070
44
1040
1
1070
74
1070
0
1000
MTEXTEND
  0
MTEXT
  5
58
330
2B
100
AcDbEntity
  8
0
100
AcDbMText
 10
7.427028669903847
 20
-113.9672944193387
 30
0
 11
1
 21
0
 31
0
 40
4.4511244898881861
 41
6.715928082588106
 46
0
 71
1
 72
5
  1
4000
  7
Standard
 73
1
 90
0
1001
ACAD
1000
MTEXTBEGIN
1070
73
1070
1
1070
44
1040
1
1070
74
1070
0
1000
MTEXTEND
  0
MTEXT
  5
59
330
2B
100
AcDbEntity
  8
0
100
AcDbMText
 10
30.5648213755876
 20
-114.1334831366481
 30
0
 11
1
 21
0
 31
0
 40
4.4511244898881861
 41
6.0065613065244161
 46
0
 71
1
 72
5
  1
8000
  7
Standard
 73
1
 90
0
1001
ACAD
1000
MTEXTBEGIN
1070
73
1070
1
1070
44
1040
1
1070
74
1070
0
1000
MTEXTEND
  0
MTEXT
  5
5A
330
2B
100
AcDbEntity
  8
0
100
AcDbMText
 10
72.257885975416684
 20
-114.9104086823497
 30
0
 11
1
 21
0
 31
0
 40
4.4511244898881861
 41
8.2378472016048363
 46
0
 71
1
 72
5
  1
±3
  7
Standard
 73
1
 90
0
1001
ACAD
1000
MTEXTBEGIN
1070
73
1070
1
1070
44
1040
1
1070
74
1070
0
1000
MTEXTEND
  0
MTEXT
  5
5B
330
2B
100
AcDbEntity
  8
0
100
AcDbMText
 10
7.427028669903847
 20
-123.9672944193387
 30
0
 11
1
 21
0
 31
0
 40
4.4511244898881861
 41
6.715928082588106
 46
0
 71
1
 72
5
  1
8000
  7
Standard
 73
1
 90
0
1001
ACAD
1000
MTEXTBEGIN
1070
73
1070
1
1070
44
1040
1
1070
74
1070
0
1000
MTEXTEND
  0
MTEXT
  5
5C
330
2B
100
AcDbEntity
  8
0
100
AcDbMText
 10
30.463754599206371
 20
-124.1334831366482
 30
0
 11
1
 21
0
 31
0
 40
4.4511244898881861
 41
6.0065613065244161
 46
0
 71
1
 72
5
  1
12000
  7
Standard
 73
1
 90
0
1001
ACAD
1000
MTEXTBEGIN
1070
73
1070
1
1070
44
1040
1
1070
74
1070
0
1000
MTEXTEND
  0
MTEXT
  5
5D
330
2B
100
AcDbEntity
  8
0
100
AcDbMText
 10
72.257885975416684
 20
-124.9104086823497
 30
0
 11
1
 21
0
 31
0
 40
4.4511244898881861
 41
8.2378472016048363
 46
0
 71
1
 72
5
  1
±4
  7
Standard
 73
1
 90
0
1001
ACAD
1000
MTEXTBEGIN
1070
73
1070
1
1070
44
1040
1
1070
74
1070
0
1000
MTEXTEND
  0
LINE
  5
5E
330
2B
100
AcDbEntity
  8
0
100
AcDbLine
 10
9.9440364603842681
 20
-38.689233478077078
 30
0
 11
18.92145275013263
 21
-38.689233478077078
 31
0
  0
LINE
  5
5F
330
2B
100
AcDbEntity
  8
0
100
AcDbLine
 10
18.92145275013263
 20
-38.689233478077078
 30
0
 11
11.61465539146502
 21
-31.38102492468693
 31
0
  0
LINE
  5
60
330
2B
100
AcDbEntity
  8
0
100
AcDbLine
 10
31.078547249865551
 20
-38.689233478077078
 30
0
 11
38.385344608534972
 21
-31.38102492468693
 31
0
  0
LINE
  5
61
330
2B
100
AcDbEntity
  8
0
100
AcDbLine
 10
40.055963539614353
 20
-38.689233478077078
 30
0
 11
31.078547249865551
 21
-38.689233478077078
 31
0
  0
LINE
  5
62
330
2B
100
AcDbEntity
  8
0
100
AcDbLine
 10
40.055963539614353
 20
-39.258822291477607
 30
0
 11
31.078547249865551
 21
-39.258822291477607
 31
0
  0
ENDBLK
  5
63
330
2B
100
AcDbEntity
  8
0
100
AcDbBlockEnd
  0
BLOCK
  5
65
330
64
100
AcDbEntity
  8
0
100
AcDbBlockBegin
  2
TOLERANCE BLOCK
 70
0
 10
0
 20
0
 30
0
  3
TOLERANCE BLOCK
  0
INSERT
  5
66
330
64
100
AcDbEntity
  8
0
100
AcDbBlockReference
  2
TOL
 10
0
 20
0
 30
0
 41
1
 42
1
 43
1
 50
0
  0
ENDBLK
  5
68
330
64
100
AcDbEntity
  8
0
100
AcDbBlockEnd
  0
BLOCK
  5
6A
330
69
100
AcDbEntity
  8
0
100
AcDbBlockBegin
  2
A
 70
0
 10
0
 20
0
 30
0
  3
A
  0
INSERT
  5
6B
330
69
100
AcDbEntity
  8
0
100
AcDbBlockReference
  2
TOLERANCE BLOCK
 10
-19.427663741921631
 20
25.25596286449812
 30
0
 41
0.19427663741922169
 42
0.19427663741922169
 43
0.19427663741922169
 50
0
  0
ENDBLK
  5
6D
330
69
100
AcDbEntity
  8
0
100
AcDbBlockEnd
  0
BLOCK
  5
71
330
6E
100
AcDbEntity
  8
0
100
AcDbBlockBegin
  2
KAMAL
 70
2
 10
0
 20
0
 30
0
  3
KAMAL
  0
ATTDEF
  5
72
330
6E
100
AcDbEntity
  8
0
  6
Continuous
100
AcDbText
 10
10313.64076821345
 20
-8490.3411871810276
 30
0
 40
4
  1

  7
Standard
100
AcDbAttributeDefinition
  3

  2
VMP
 70
0
 73
0
280
0
  0
MTEXT
  5
73
330
6E
100
AcDbEntity
  8
0
 62
0
100
AcDbMText
 10
10679.57669278267
 20
-8754.863026204368
 30
0
 11
1
 21
0
 31
0
 40
1.7109140753746031
 41
60.997255146503427
 46
0
 71
1
 72
5
  1
{\fArial|b0|i0|c0|p34;SHEET NO:}
  7
Standard
 73
1
 90
0
1001
ACAD
1000
MTEXTBEGIN
1070
73
1070
1
1070
44
1040
1
1070
74
1070
0
1000
MTEXTEND
  0
LINE
  5
74
330
6E
100
AcDbEntity
  8
0
  6
Continuous
 62
0
100
AcDbLine
 10
10672.20731218627
 20
-8752.7693870874245
 30
0
 11
10718.89772993875
 21
-8752.7693870874173
 31
0
  0
TEXT
  5
75
330
6E
100
AcDbEntity
  8
0
 62
0
100
AcDbText
 10
10417.893738466793
 20
-8782.47251794075
 30
0
 40
4.5732733234763154
  1
2
 72
1
 11
10419.67032725105
 21
-8782.47251794075
 31
0
  7
Roman
100
AcDbText
  0
LINE
  5
76
330
6E
100
AcDbEntity
  8
0
 62
0
100
AcDbLine
 10
10452.953594216349
 20
-8776.72595320699
 30
0
 11
10452.953594216349
 21
-8784.3480754127831
 31
0
  0
LINE
  5
77
330
6E
100
AcDbEntity
  8
0
 62
0
100
AcDbLine
 10
10386.38706028575
 20
-8776.72595320699
 30
0
 11
10386.38706028575
 21
-8784.3480754127831
 31
0
  0
TEXT
  5
78
330
6E
100
AcDbEntity
  8
0
 62
0
100
AcDbText
 10
10720.723064601945
 20
-8601.1395508193837
 30
0
 40
4.5732733234763154
  1
B
 72
1
 11
10722.8537233195
 21
-8601.1395508193837
 31
0
  7
Roman
100
AcDbText
  0
LINE
  5
79
330
6E
100
AcDbEntity
  8
0
 62
0
100
AcDbLine
 10
10718.89772993875
 20
-8564.9344703418647
 30
0
 11
10726.63931157644
 21
-8564.9344703418647
 31
0
  0
LINE
  5
7A
330
6E
100
AcDbEntity
  8
0
 62
0
100
AcDbLine
 10
10718.89772993875
 20
-8637.3446312969063
 30
0
 11
10726.63931157644
 21
-8637.3446312969063
 31
0
  0
TEXT
  5
7B
330
6E
100
AcDbEntity
  8
0
 62
0
100
AcDbText
 10
10720.325655590877
 20
-8673.5497117744253
 30
0
 40
4.5732733234763154
  1
C
 72
1
 11
10722.63256938536
 21
-8673.5497117744253
 31
0
  7
Roman
100
AcDbText
  0
TEXT
  5
7C
330
6E
100
AcDbEntity
  8
0
 62
0
100
AcDbText
 10
10720.65409436731
 20
-8528.7293898643438
 30
0
 40
4.5732733234763154
  1
A
 72
1
 11
10722.78475296127
 21
-8528.7293898643438
 31
0
  7
Roman
100
AcDbText
  0
TEXT
  5
7D
330
6E
100
AcDbEntity
  8
0
 62
0
100
AcDbText
 10
10684.159874189194
 20
-8496.43888494566
 30
0
 40
4.5732733234763154
  1
6
 72
1
 11
10685.93646297345
 21
-8496.43888494566
 31
0
  7
Roman
100
AcDbText
  0
LINE
  5
7E
330
6E
100
AcDbEntity
  8
0
 62
0
100
AcDbLine
 10
10652.65319600815
 20
-8497.9633093868233
 30
0
 11
10652.65319600815
 21
-8490.3411871810276
 31
0
  0
TEXT
  5
7F
330
6E
100
AcDbEntity
  8
0
 62
0
100
AcDbText
 10
10617.593340258594
 20
-8496.43888494566
 30
0
 40
4.5732733234763154
  1
5
 72
1
 11
10619.36992904285
 21
-8496.43888494566
 31
0
  7
Roman
100
AcDbText
  0
LINE
  5
80
330
6E
100
AcDbEntity
  8
0
 62
0
100
AcDbLine
 10
10586.086662077551
 20
-8497.9633093868233
 30
0
 11
10586.086662077551
 21
-8490.3411871810276
 31
0
  0
LINE
  5
81
330
6E
100
AcDbEntity
  8
0
 62
0
100
AcDbLine
 10
10519.520128146951
 20
-8497.9633093868233
 30
0
 11
10519.520128146951
 21
-8490.3411871810276
 31
0
  0
TEXT
  5
82
330
6E
100
AcDbEntity
  8
0
 62
0
100
AcDbText
 10
10551.026806327995
 20
-8496.43888494566
 30
0
 40
4.5732733234763154
  1
4
 72
1
 11
10552.803395112251
 21
-8496.43888494566
 31
0
  7
Roman
100
AcDbText
  0
TEXT
  5
83
330
6E
100
AcDbEntity
  8
0
 62
0
100
AcDbText
 10
10484.460272397393
 20
-8496.43888494566
 30
0
 40
4.5732733234763154
  1
3
 72
1
 11
10486.236861181649
 21
-8496.43888494566
 31
0
  7
Roman
100
AcDbText
  0
LINE
  5
84
330
6E
100
AcDbEntity
  8
0
 62
0
100
AcDbLine
 10
10452.953594216349
 20
-8497.9633093868233
 30
0
 11
10452.953594216349
 21
-8490.3411871810276
 31
0
  0
TEXT
  5
85
330
6E
100
AcDbEntity
  8
0
 62
0
100
AcDbText
 10
10417.893738466793
 20
-8496.43888494566
 30
0
 40
4.5732733234763154
  1
2
 72
1
 11
10419.67032725105
 21
-8496.43888494566
 31
0
  7
Roman
100
AcDbText
  0
LINE
  5
86
330
6E
100
AcDbEntity
  8
0
 62
0
100
AcDbLine
 10
10386.38706028575
 20
-8497.9633093868233
 30
0
 11
10386.38706028575
 21
-8490.3411871810276
 31
0
  0
LINE
  5
87
330
6E
100
AcDbEntity
  8
0
 62
0
100
AcDbLine
 10
10320.14252635515
 20
-8709.7547922519461
 30
0
 11
10313.64076821345
 21
-8709.7547922519461
 31
0
  0
TEXT
  5
88
330
6E
100
AcDbEntity
  8
0
 62
0
100
AcDbText
 10
10314.384139378488
 20
-8745.9598727294688
 30
0
 40
4.5732733234763154
  1
D
 72
1
 11
10316.69105317297
 21
-8745.9598727294688
 31
0
  7
Roman
100
AcDbText
  0
TEXT
  5
89
330
6E
100
AcDbEntity
  8
0
 62
0
100
AcDbText
 10
10314.560394455415
 20
-8601.1395508193837
 30
0
 40
4.5732733234763154
  1
B
 72
1
 11
10316.69105317297
 21
-8601.1395508193837
 31
0
  7
Roman
100
AcDbText
  0
TEXT
  5
8A
330
6E
100
AcDbEntity
  8
0
 62
0
100
AcDbText
 10
10314.56039457901
 20
-8528.7293898643438
 30
0
 40
4.5732733234763154
  1
A
 72
1
 11
10316.69105317297
 21
-8528.7293898643438
 31
0
  7
Roman
100
AcDbText
  0
LINE
  5
8B
330
6E
100
AcDbEntity
  8
0
 62
0
100
AcDbLine
 10
10320.14252635515
 20
-8564.9344703418647
 30
0
 11
10313.64076821345
 21
-8564.9344703418647
 31
0
  0
LINE
  5
8C
330
6E
100
AcDbEntity
  8
0
 62
0
100
AcDbLine
 10
10320.14252635515
 20
-8637.3446312969063
 30
0
 11
10313.64076821345
 21
-8637.3446312969063
 31
0
  0
TEXT
  5
8D
330
6E
100
AcDbEntity
  8
0
 62
0
100
AcDbText
 10
10314.384139378488
 20
-8673.5497117744253
 30
0
 40
4.5732733234763154
  1
C
 72
1
 11
10316.69105317297
 21
-8673.5497117744253
 31
0
  7
Roman
100
AcDbText
  0
TEXT
  5
8E
330
6E
100
AcDbEntity
  8
0
 62
0
100
AcDbText
 10
10351.327204536194
 20
-8782.47251794075
 30
0
 40
4.5732733234763154
  1
1
 72
1
 11
10353.10379332045
 21
-8782.47251794075
 31
0
  7
Roman
100
AcDbText
  0
TEXT
  5
8F
330
6E
100
AcDbEntity
  8
0
 62
0
100
AcDbText
 10
10351.327204536194
 20
-8496.43888494566
 30
0
 40
4.5732733234763154
  1
1
 72
1
 11
10353.10379332045
 21
-8496.43888494566
 31
0
  7
Roman
100
AcDbText
  0
LINE
  5
90
330
6E
100
AcDbEntity
  8
0
 62
0
100
AcDbLine
 10
10718.89772993875
 20
-8497.9633093868233
 30
0
 11
10718.89772993875
 21
-8776.72595320699
 31
0
  0
LINE
  5
91
330
6E
100
AcDbEntity
  8
0
  6
Continuous
 62
0
100
AcDbLine
 10
10726.63931157644
 20
-8490.3411871810276
 30
0
 11
10726.63931157644
 21
-8784.3480754127831
 31
0
  0
LINE
  5
92
330
6E
100
AcDbEntity
  8
0
 62
0
100
AcDbLine
 10
10320.14252635515
 20
-8776.72595320699
 30
0
 11
10320.14252635515
 21
-8497.9633093868233
 31
0
  0
LINE
  5
93
330
6E
100
AcDbEntity
  8
0
  6
Continuous
 62
0
100
AcDbLine
 10
10313.64076821345
 20
-8784.3480754127831
 30
0
 11
10313.64076821345
 21
-8490.3411871810276
 31
0
  0
LINE
  5
94
330
6E
100
AcDbEntity
  8
0
 62
0
100
AcDbLine
 10
10718.89772993875
 20
-8776.72595320699
 30
0
 11
10320.14252635515
 21
-8776.72595320699
 31
0
  0
LINE
  5
95
330
6E
100
AcDbEntity
  8
0
  6
Continuous
 62
0
100
AcDbLine
 10
10726.63931157644
 20
-8784.3480754127831
 30
0
 11
10313.64076821345
 21
-8784.3480754127831
 31
0
  0
LINE
  5
96
330
6E
100
AcDbEntity
  8
0
 62
0
100
AcDbLine
 10
10320.14252635515
 20
-8497.9633093868233
 30
0
 11
10718.89772993875
 21
-8497.9633093868233
 31
0
  0
LINE
  5
97
330
6E
100
AcDbEntity
  8
0
  6
Continuous
 62
0
100
AcDbLine
 10
10313.64076821345
 20
-8490.3411871810276
 30
0
 11
10726.63931157644
 21
-8490.3411871810276
 31
0
  0
LINE
  5
98
330
6E
100
AcDbEntity
  8
0
 62
0
100
AcDbLine
 10
10718.89772993875
 20
-8717.2734000017972
 30
0
 11
10718.89772993875
 21
-8776.72595320699
 31
0
  0
LINE
  5
99
330
6E
100
AcDbEntity
  8
0
 62
0
100
AcDbLine
 10
10521.1766364642
 20
-8776.72595320699
 30
0
 11
10718.89772993875
 21
-8776.72595320699
 31
0
  0
LINE
  5
9A
330
6E
100
AcDbEntity
  8
0
 62
0
100
AcDbLine
 10
10672.20731218627
 20
-8746.9996766043914
 30
0
 11
10718.89772993875
 21
-8746.9996766043914
 31
0
  0
LINE
  5
9B
330
6E
100
AcDbEntity
  8
0
 62
0
100
AcDbLine
 10
10707.91322474572
 20
-8758.4328599130822
 30
0
 11
10707.91322474572
 21
-8776.72595320699
 31
0
  0
LINE
  5
9C
330
6E
100
AcDbEntity
  8
0
 62
0
100
AcDbLine
 10
10707.91322474572
 20
-8767.5794065600367
 30
0
 11
10718.89772993875
 21
-8767.5794065600367
 31
0
  0
MTEXT
  5
9D
330
6E
100
AcDbEntity
  8
0
 62
0
100
AcDbMText
 10
10708.11879526912
 20
-8762.7282350587648
 30
0
 11
1
 21
0
 31
0
 40
1.2318581342697139
 41
18.055705322171129
 46
0
 71
1
 72
5
  1
{\fArial Black|b0|i0|c0|p34;CUSTOMER   \P    REV NO}
  7
Standard
 73
1
 90
0
1001
ACAD
1000
MTEXTBEGIN
1070
73
1070
1
1070
44
1040
1
1070
74
1070
0
1000
MTEXTEND
  0
MTEXT
  5
9E
330
6E
100
AcDbEntity
  8
0
 62
0
100
AcDbMText
 10
10627.96377836393
 20
-8773.24686254093
 30
0
 11
1
 21
0
 31
0
 40
1.5244244411587691
 41
30.565406507859979
 46
0
 71
1
 72
5
  1
{\fArial|b0|i0|c0|p34;\H1.796x;DRAWING NO: \H0.6248x;    \H0.8913x; }
  7
Standard
 73
1
 90
0
1001
ACAD
1000
MTEXTBEGIN
1070
73
1070
1
1070
44
1040
1
1070
74
1070
0
1000
MTEXTEND
  0
LINE
  5
9F
330
6E
100
AcDbEntity
  8
0
 62
0
100
AcDbLine
 10
10625.529435797989
 20
-8717.2734000017972
 30
0
 11
10625.529435797989
 21
-8776.72595320699
 31
0
  0
LINE
  5
A0
330
6E
100
AcDbEntity
  8
0
 62
0
100
AcDbLine
 10
10578.845288727611
 20
-8753.85958658961
 30
0
 11
10578.845288727611
 21
-8776.72595320699
 31
0
  0
LINE
  5
A1
330
6E
100
AcDbEntity
  8
0
 62
0
100
AcDbLine
 10
10602.1873622628
 20
-8772.152679883513
 30
0
 11
10602.1873622628
 21
-8758.4328599130822
 31
0
  0
LINE
  5
A2
330
6E
100
AcDbEntity
  8
0
 62
0
100
AcDbLine
 10
10578.845288727611
 20
-8772.152679883513
 30
0
 11
10707.91322474572
 21
-8772.152679883513
 31
0
  0
LINE
  5
A3
330
6E
100
AcDbEntity
  8
0
 62
0
100
AcDbLine
 10
10578.845288727611
 20
-8758.4328599130822
 30
0
 11
10718.89772993875
 21
-8758.4328599130822
 31
0
  0
MTEXT
  5
A4
330
6E
100
AcDbEntity
  8
0
 62
0
100
AcDbMText
 10
10609.33337009654
 20
-8768.9606121582783
 30
0
 11
1
 21
0
 31
0
 40
1.7109140753746031
 41
17.577566413877239
 46
0
 71
1
 72
5
  1
{\fArial|b0|i0|c0|p34;17/02/2010}
  7
Standard
 73
1
 90
0
1001
ACAD
1000
MTEXTBEGIN
1070
73
1070
1
1070
44
1040
1
1070
74
1070
0
1000
MTEXTEND
  0
MTEXT
  5
A5
330
6E
100
AcDbEntity
  8
0
 62
0
100
AcDbMText
 10
10580.37058626364
 20
-8768.893987505473
 30
0
 11
1
 21
0
 31
0
 40
1.7109140753746031
 41
21.583839496413649
 46
0
 71
1
 72
5
  1
{\fArial|b0|i0|c0|p34;DOC REV DATE}
  7
Standard
 73
1
 90
0
1001
ACAD
1000
MTEXTBEGIN
1070
73
1070
1
1070
44
1040
1
1070
74
1070
0
1000
MTEXTEND
  0
MTEXT
  5
A6
330
6E
100
AcDbEntity
  8
0
 62
0
100
AcDbMText
 10
10579.257274210189
 20
-8773.5278553652788
 30
0
 11
1
 21
0
 31
0
 40
1.7109140753746031
 41
54.944783449172967
 46
0
 71
1
 72
5
  1
{\fArial Black|b0|i0|c0|p34;ALL DIMENSIONS ARE IN MM}
  7
Standard
 73
1
 90
0
1001
ACAD
1000
MTEXTBEGIN
1070
73
1070
1
1070
44
1040
1
1070
74
1070
0
1000
MTEXTEND
  0
MTEXT
  5
A7
330
6E
100
AcDbEntity
  8
0
 62
0
100
AcDbMText
 10
10646.668839826731
 20
-8726.0632137525263
 30
0
 11
1
 21
0
 31
0
 40
3.048848882317543
 41
70.110441542950781
 46
0
 71
1
 72
5
  1
{\fArial Black|b0|i0|c0|p34;VIMAN MULTIPLUG PVT LTD}
  7
Standard
 73
1
 90
0
1001
ACAD
1000
MTEXTBEGIN
1070
73
1070
1
1070
44
1040
1
1070
74
1070
0
1000
MTEXTEND
  0
LINE
  5
A8
330
6E
100
AcDbEntity
  8
0
 62
0
100
AcDbLine
 10
10521.1766364642
 20
-8717.2734000017972
 30
0
 11
10718.89772993875
 21
-8717.2734000017972
 31
0
  0
LINE
  5
A9
330
6E
100
AcDbEntity
  8
0
 62
0
100
AcDbLine
 10
10521.1766364642
 20
-8717.2734000017972
 30
0
 11
10521.1766364642
 21
-8776.72595320699
 31
0
  0
INSERT
  5
AA
102
{ACAD_XDICTIONARY
360
AB
102
}
330
6E
100
AcDbEntity
  8
0
 62
0
100
AcDbBlockReference
  2
A
 10
10521.1766364642
 20
-8776.72595320699
 30
0
 41
1.9785083172471309
 42
1.9785083172471309
 43
1.9785083172471309
 50
0
  0
LINE
  5
AF
330
6E
100
AcDbEntity
  8
0
 62
0
100
AcDbLine
 10
10521.1766364642
 20
-8735.5664932957
 30
0
 11
10718.89772993875
 21
-8735.5664932957
 31
0
  0
MTEXT
  5
B0
330
6E
100
AcDbEntity
  8
0
 62
0
100
AcDbMText
 10
10523.0088582133
 20
-8737.1580642678073
 30
0
 11
1
 21
0
 31
0
 40
2.2866366617381551
 41
53.673781761182667
 46
0
 71
1
 72
5
  3
{\fArial|b1|i0|c0|p34;PROPRIETARY AND COFIDENTAL\fArial|b0|i0|c0|p34;\P\P\fArial|b0|i1|c0|p34;\H1.067x;The information contained in this drawing is the sole property of Viman Multiplug Pvt Ltd.Any reproduct in part or as a whole without the written 
  1
permission of Viman Multiplug Pvt Ltd is prohibited.}
  7
Standard
 73
1
 90
0
1001
ACAD
1000
MTEXTBEGIN
1070
73
1070
1
1070
44
1040
1
1070
74
1070
0
1000
MTEXTEND
  0
MTEXT
  5
B1
330
6E
100
AcDbEntity
  8
0
 62
0
100
AcDbMText
 10
10521.725634221109
 20
-8718.0754229149115
 30
0
 11
1
 21
0
 31
0
 40
1.5244244411587691
 41
10.927242921497991
 46
0
 71
1
 72
5
  1
{\fArial|b1|i0|c0|p34;COMMENTS:}
  7
Standard
 73
1
 90
0
1001
ACAD
1000
MTEXTBEGIN
1070
73
1070
1
1070
44
1040
1
1070
74
1070
0
1000
MTEXTEND
  0
LINE
  5
B2
330
6E
100
AcDbEntity
  8
0
 62
0
100
AcDbLine
 10
10578.845288727611
 20
-8767.5879611304154
 30
0
 11
10625.529435797989
 21
-8767.5879611304154
 31
0
  0
LINE
  5
B3
330
6E
100
AcDbEntity
  8
0
 62
0
100
AcDbLine
 10
10578.845288727611
 20
-8763.0232423773123
 30
0
 11
10625.529435797989
 21
-8763.0232423773123
 31
0
  0
MTEXT
  5
B4
330
6E
100
AcDbEntity
  8
0
 62
0
100
AcDbMText
 10
10583.408209217459
 20
-8764.3039734426329
 30
0
 11
1
 21
0
 31
0
 40
1.7109140753746031
 41
17.577566413877239
 46
0
 71
1
 72
5
  1
{\fArial|b0|i0|c0|p34;DOC NO}
  7
Standard
 73
1
 90
0
1001
ACAD
1000
MTEXTBEGIN
1070
73
1070
1
1070
44
1040
1
1070
74
1070
0
1000
MTEXTEND
  0
MTEXT
  5
B5
330
6E
100
AcDbEntity
  8
0
 62
0
100
AcDbMText
 10
10609.33337009654
 20
-8764.2398635249137
 30
0
 11
1
 21
0
 31
0
 40
1.7109140753746031
 41
17.577566413877239
 46
0
 71
1
 72
5
  1
{\fArial|b0|i0|c0|p34;QR/PC/04}
  7
Standard
 73
1
 90
0
1001
ACAD
1000
MTEXTBEGIN
1070
73
1070
1
1070
44
1040
1
1070
74
1070
0
1000
MTEXTEND
  0
MTEXT
  5
B6
330
6E
100
AcDbEntity
  8
0
 62
0
100
AcDbMText
 10
10673.40204430596
 20
-8748.2057611734872
 30
0
 11
1
 21
0
 31
0
 40
2.2866366617381551
 41
17.471785567129778
 46
0
 71
1
 72
5
  1
{\fArial|b0|i0|c0|p34;MATERIAL:}
  7
Standard
 73
1
 90
0
1001
ACAD
1000
MTEXTBEGIN
1070
73
1070
1
1070
44
1040
1
1070
74
1070
0
1000
MTEXTEND
  0
HATCH
  5
B7
330
6E
100
AcDbEntity
  8
0
  6
Continuous
 62
0
100
AcDbHatch
 10
0
 20
0
 30
0
210
0
220
0
230
1
  2
SOLID
 70
1
 71
0
 91
2
 92
1
 93
1
 72
3
 10
10638.02120970024
 20
-8727.7764881433341
 11
6.731203751010101
 21
-9.448659909E-06
 40
0.80316972262717545
 50
0
 51
360
 73
1
 97
0
 92
16
 93
1
 72
3
 10
10638.03765219506
 20
-8727.7474399268776
 11
-5.2688707097729406
 21
-2.4712605854E-06
 40
0.75754591801746418
 50
0
 51
360
 73
1
 97
0
 75
0
 76
1
 98
1
 10
10010.023778465011
 20
-8872.6116204768532
450
0
451
0
460
0
461
0
452
0
462
0
453
0
470

  0
HATCH
  5
B8
330
6E
100
AcDbEntity
  8
0
  6
Continuous
 62
0
100
AcDbHatch
 10
0
 20
0
 30
0
210
0
220
0
230
1
  2
SOLID
 70
1
 71
0
 91
5
 92
1
 93
1
 72
3
 10
10638.02139012622
 20
-8727.7764786946736
 11
-4.355211138622022
 21
0
 40
0.70916950405376433
 50
0
 51
360
 73
1
 97
0
 92
16
 93
7
 72
1
 10
10635.1103060122
 20
-8727.0164320638069
 11
10635.81232716032
 21
-8728.9955381302589
 72
1
 10
10635.81232716032
 20
-8728.9955381302589
 11
10636.2383980916
 21
-8728.9955381302589
 72
1
 10
10636.2383980916
 20
-8728.9955381302589
 11
10636.949192349821
 21
-8727.0137767422457
 72
1
 10
10636.949192349821
 20
-8727.0137767422457
 11
10636.5242179012
 21
-8727.0137767422457
 72
1
 10
10636.5242179012
 20
-8727.0137767422457
 11
10636.039170439741
 21
-8728.47895632812
 72
1
 10
10636.03917043975
 20
-8728.47895632812
 11
10635.53712624826
 21
-8727.0140077485466
 72
1
 10
10635.53712624826
 20
-8727.0140077485466
 11
10635.1103060122
 21
-8727.0164320638069
 97
0
 92
16
 93
13
 72
1
 10
10637.146650393561
 20
-8728.9950077331123
 11
10637.146650393561
 21
-8727.0139418658837
 72
1
 10
10637.146650393561
 20
-8727.0139418658819
 11
10637.745913133371
 21
-8727.0139418658819
 72
1
 10
10637.74591313338
 20
-8727.0139418658819
 11
10638.1053146721
 21
-8728.3645139701839
 72
1
 10
10638.1053146721
 20
-8728.3645139701857
 11
10638.459745822471
 21
-8727.014193721132
 72
1
 10
10638.459745822471
 20
-8727.014193721132
 11
10639.06079565417
 21
-8727.014193721132
 72
1
 10
10639.06079565417
 20
-8727.014193721132
 11
10639.06079565417
 21
-8728.9941671036722
 72
1
 10
10639.06079565417
 20
-8728.9941671036722
 11
10638.688471105719
 21
-8728.9941671036722
 72
1
 10
10638.688471105719
 20
-8728.9941671036722
 11
10638.688471105719
 21
-8727.4395588894477
 72
1
 10
10638.688471105719
 20
-8727.4395588894477
 11
10638.29573299746
 21
-8728.9946007617145
 72
1
 10
10638.29573299746
 20
-8728.9946007617164
 11
10637.91024441292
 21
-8728.9946007617164
 72
1
 10
10637.910244412909
 20
-8728.9946007617164
 11
10637.5189262372
 21
-8727.4384380501979
 72
1
 10
10637.51892623721
 20
-8727.4384380501961
 11
10637.51892623721
 21
-8728.9945632336166
 72
1
 10
10637.51892623721
 20
-8728.9945632336185
 11
10637.14665039357
 21
-8728.9950077331123
 97
0
 92
16
 93
9
 72
1
 10
10639.45690813162
 20
-8727.01395854504
 11
10639.45690813162
 21
-8728.9939027390556
 72
1
 10
10639.45690813162
 20
-8728.9939027390556
 11
10639.857813661951
 21
-8728.9939027390556
 72
1
 10
10639.857813661951
 20
-8728.9939027390556
 11
10639.857813661951
 21
-8728.2481676866464
 72
1
 10
10639.857813661951
 20
-8728.2481676866464
 11
10640.19439762137
 21
-8728.2481676866464
 72
1
 10
10640.19439762137
 20
-8728.2481676866464
 11
10640.53396224893
 21
-8728.2481676866464
 72
2
 10
10640.533962248939
 20
-8727.8081356425027
 40
0.44003204414248831
 50
270
 51
360.00000000000591
 73
1
 72
1
 10
10640.973994293079
 20
-8727.8081356425027
 11
10640.973994293079
 21
-8727.4539905891816
 72
2
 10
10640.533962248939
 20
-8727.4539905891816
 40
0.440032044142484
 50
0
 51
90
 73
1
 72
1
 10
10640.533962248939
 20
-8727.01395854504
 11
10639.45690813162
 21
-8727.01395854504
 97
0
 92
0
 93
6
 72
1
 10
10639.80893376693
 20
-8727.36598418035
 11
10639.80893376693
 21
-8727.89614205133
 72
1
 10
10639.80893376693
 20
-8727.89614205133
 11
10640.533962248939
 21
-8727.89614205133
 72
2
 10
10640.533962248939
 20
-8727.8081356425027
 40
0.088006408828397
 50
270
 51
360
 73
1
 72
1
 10
10640.621968657761
 20
-8727.8081356425027
 11
10640.621968657761
 21
-8727.4539905891816
 72
2
 10
10640.533962248939
 20
-8727.4539905891816
 40
0.088006408828572
 50
2.9083E-11
 51
90
 73
1
 72
1
 10
10640.533962248939
 20
-8727.36598418035
 11
10639.80893376693
 21
-8727.36598418035
 97
0
 75
0
 76
1
 98
1
 10
10010.023778465011
 20
-8872.6116204768532
450
0
451
0
460
0
461
0
452
0
462
0
453
0
470

  0
LINE
  5
B9
330
6E
100
AcDbEntity
  8
0
 62
0
100
AcDbLine
 10
10578.845288727611
 20
-8749.28631326613
 30
0
 11
10625.529435797989
 21
-8749.28631326613
 31
0
  0
LINE
  5
BA
330
6E
100
AcDbEntity
  8
0
 62
0
100
AcDbLine
 10
10578.845288727611
 20
-8744.7130399426587
 30
0
 11
10625.529435797989
 21
-8744.7130399426587
 31
0
  0
LINE
  5
BB
330
6E
100
AcDbEntity
  8
0
 62
0
100
AcDbLine
 10
10578.845288727611
 20
-8740.1397666191788
 30
0
 11
10625.529435797989
 21
-8740.1397666191788
 31
0
  0
LINE
  5
BC
330
6E
100
AcDbEntity
  8
0
 62
0
100
AcDbLine
 10
10578.845288727611
 20
-8726.41994664875
 30
0
 11
10625.529435797989
 21
-8726.41994664875
 31
0
  0
LINE
  5
BD
330
6E
100
AcDbEntity
  8
0
 62
0
100
AcDbLine
 10
10609.94354732725
 20
-8726.41994664875
 30
0
 11
10609.94354732725
 21
-8753.85958658961
 31
0
  0
LINE
  5
BE
330
6E
100
AcDbEntity
  8
0
 62
0
100
AcDbLine
 10
10594.39441802743
 20
-8726.41994664875
 30
0
 11
10594.39441802743
 21
-8753.85958658961
 31
0
  0
MTEXT
  5
BF
330
6E
100
AcDbEntity
  8
0
 62
0
100
AcDbMText
 10
10673.6000870184
 20
-8736.95282522326
 30
0
 11
1
 21
0
 31
0
 40
2.2866366617381551
 41
29.847459490511049
 46
0
 71
1
 72
5
  1
{\fArial|b0|i0|c0|p34;PROCESS NAME:}
  7
Standard
 73
1
 90
0
1001
ACAD
1000
MTEXTBEGIN
1070
73
1070
1
1070
44
1040
1
1070
74
1070
0
1000
MTEXTEND
  0
LINE
  5
C0
330
6E
100
AcDbEntity
  8
0
  6
CENTER
 62
0
100
AcDbLine
 10
10662.31775220758
 20
-8756.2699384662174
 30
0
 11
10662.31775220758
 21
-8737.9370306524961
 31
0
  0
LINE
  5
C1
330
6E
100
AcDbEntity
  8
0
  6
CENTER
 62
0
100
AcDbLine
 10
10671.15647981696
 20
-8746.9996766043914
 30
0
 11
10627.77311873018
 21
-8746.9996766043914
 31
0
  0
LINE
  5
C2
330
6E
100
AcDbEntity
  8
0
 62
0
100
AcDbLine
 10
10650.200977903471
 20
-8738.9741654612681
 30
0
 11
10650.200977903471
 21
-8755.0251877475184
 31
0
  0
LINE
  5
C3
330
6E
100
AcDbEntity
  8
0
 62
0
100
AcDbLine
 10
10630.324723820721
 20
-8741.8662425923358
 30
0
 11
10630.324723820721
 21
-8746.9996766043914
 31
0
  0
LINE
  5
C4
330
6E
100
AcDbEntity
  8
0
 62
0
100
AcDbLine
 10
10650.200977903471
 20
-8738.9741654612681
 30
0
 11
10630.324723820721
 21
-8741.8662425923358
 31
0
  0
LINE
  5
C5
330
6E
100
AcDbEntity
  8
0
 62
0
100
AcDbLine
 10
10630.324723820721
 20
-8752.1331106164453
 30
0
 11
10630.324723820721
 21
-8746.9996766043914
 31
0
  0
LINE
  5
C6
330
6E
100
AcDbEntity
  8
0
 62
0
100
AcDbLine
 10
10650.200977903471
 20
-8755.0251877475184
 30
0
 11
10630.324723820721
 21
-8752.1331106164453
 31
0
  0
CIRCLE
  5
C7
330
6E
100
AcDbEntity
  8
0
 62
0
100
AcDbCircle
 10
10662.31775220758
 20
-8746.9996766043914
 30
0
 40
8.025511143125108
  0
CIRCLE
  5
C8
330
6E
100
AcDbEntity
  8
0
 62
0
100
AcDbCircle
 10
10662.31775220758
 20
-8746.9996766043914
 30
0
 40
5.1334340120546011
  0
LINE
  5
C9
330
6E
100
AcDbEntity
  8
0
 62
0
100
AcDbLine
 10
10672.20731218627
 20
-8735.5664932957
 30
0
 11
10672.20731218627
 21
-8758.4328599130822
 31
0
  0
LINE
  5
CA
330
6E
100
AcDbEntity
  8
0
 62
0
100
AcDbLine
 10
10578.845288727611
 20
-8717.2734000017972
 30
0
 11
10578.845288727611
 21
-8753.85958658961
 31
0
  0
LINE
  5
CB
330
6E
100
AcDbEntity
  8
0
 62
0
100
AcDbLine
 10
10578.845288727611
 20
-8753.85958658961
 30
0
 11
10625.529435797989
 21
-8753.85958658961
 31
0
  0
MTEXT
  5
CC
330
6E
100
AcDbEntity
  8
0
 62
0
100
AcDbMText
 10
10627.14534009522
 20
-8759.6539550672587
 30
0
 11
1
 21
0
 31
0
 40
2.2866366617381551
 41
70.110441542950781
 46
0
 71
1
 72
5
  1
{\fArial|b0|i0|c0|p34;DRAWING NAME:}
  7
Standard
 73
1
 90
0
1001
ACAD
1000
MTEXTBEGIN
1070
73
1070
1
1070
44
1040
1
1070
74
1070
0
1000
MTEXTEND
  0
LINE
  5
CD
330
6E
100
AcDbEntity
  8
0
 62
0
100
AcDbLine
 10
10452.953594216349
 20
-8784.3480754127831
 30
0
 11
10452.953594216349
 21
-8776.72595320699
 31
0
  0
TEXT
  5
CE
330
6E
100
AcDbEntity
  8
0
 62
0
100
AcDbText
 10
10484.460272397393
 20
-8782.8236509716244
 30
0
 40
4.5732733234763154
  1
3
 72
1
 11
10486.236861181649
 21
-8782.8236509716244
 31
0
  7
Roman
100
AcDbText
  0
LINE
  5
CF
330
6E
100
AcDbEntity
  8
0
 62
0
100
AcDbLine
 10
10519.520128146951
 20
-8784.3480754127831
 30
0
 11
10519.520128146951
 21
-8776.72595320699
 31
0
  0
TEXT
  5
D0
330
6E
100
AcDbEntity
  8
0
 62
0
100
AcDbText
 10
10551.026806327995
 20
-8782.8236509716244
 30
0
 40
4.5732733234763154
  1
4
 72
1
 11
10552.803395112251
 21
-8782.8236509716244
 31
0
  7
Roman
100
AcDbText
  0
LINE
  5
D1
330
6E
100
AcDbEntity
  8
0
 62
0
100
AcDbLine
 10
10586.086662077551
 20
-8784.3480754127831
 30
0
 11
10586.086662077551
 21
-8776.72595320699
 31
0
  0
TEXT
  5
D2
330
6E
100
AcDbEntity
  8
0
 62
0
100
AcDbText
 10
10617.593340258594
 20
-8782.8236509716244
 30
0
 40
4.5732733234763154
  1
5
 72
1
 11
10619.36992904285
 21
-8782.8236509716244
 31
0
  7
Roman
100
AcDbText
  0
LINE
  5
D3
330
6E
100
AcDbEntity
  8
0
 62
0
100
AcDbLine
 10
10652.65319600815
 20
-8784.3480754127831
 30
0
 11
10652.65319600815
 21
-8776.72595320699
 31
0
  0
TEXT
  5
D4
330
6E
100
AcDbEntity
  8
0
 62
0
100
AcDbText
 10
10684.159874189194
 20
-8782.8236509716244
 30
0
 40
4.5732733234763154
  1
6
 72
1
 11
10685.93646297345
 21
-8782.8236509716244
 31
0
  7
Roman
100
AcDbText
  0
LINE
  5
D5
330
6E
100
AcDbEntity
  8
0
 62
0
100
AcDbLine
 10
10726.63931157644
 20
-8709.7547922519461
 30
0
 11
10718.89772993875
 21
-8709.7547922519461
 31
0
  0
TEXT
  5
D6
330
6E
100
AcDbEntity
  8
0
 62
0
100
AcDbText
 10
10720.261012851777
 20
-8745.9598727294688
 30
0
 40
4.5732733234763154
  1
D
 72
1
 11
10722.567926646259
 21
-8745.9598727294688
 31
0
  7
Roman
100
AcDbText
  0
MTEXT
  5
D7
330
6E
100
AcDbEntity
  8
0
 62
0
100
AcDbMText
 10
10655.65961781168
 20
-8501.8429785599837
 30
0
 11
1
 21
0
 31
0
 40
3.048848882317543
 41
70.110441542950781
 46
0
 71
1
 72
5
  1
{\fArial|b1|i0|c0|p34;IF IN DOUBT ASK\PDEVELOPMENT DEPARTMENT}
  7
Standard
 73
1
 90
0
1001
ACAD
1000
MTEXTBEGIN
1070
73
1070
1
1070
44
1040
1
1070
74
1070
0
1000
MTEXTEND
  0
LWPOLYLINE
  5
D8
330
6E
100
AcDbEntity
  8
0
 62
0
100
AcDbPolyline
 90
4
 70
1
 10
10648.551889934761
 20
-8497.9633093868233
 10
10718.89772993875
 20
-8497.9633093868233
 10
10718.89772993875
 20
-8513.2593307251536
 10
10648.551889934761
 20
-8513.2593307251536
  0
ATTDEF
  5
D9
330
6E
100
AcDbEntity
  8
0
  6
Continuous
100
AcDbText
 10
10598.45039561454
 20
-8732.3820750583036
 30
0
 40
2.299999999999998
  1

  7
HARI
100
AcDbAttributeDefinition
  3

  2
NAME
 70
0
 73
0
280
0
  0
ATTDEF
  5
DA
330
6E
100
AcDbEntity
  8
0
  6
Continuous
100
AcDbText
 10
10611.92412475202
 20
-8732.3003970738082
 30
0
 40
2.299999999999998
  1

  7
HARI
100
AcDbAttributeDefinition
  3

  2
DATE
 70
0
 73
0
280
0
  0
ATTDEF
  5
DB
330
6E
100
AcDbEntity
  8
0
  6
Continuous
100
AcDbText
 10
10610.8792104066
 20
-8738.5901795059
 30
0
 40
1.5
  1

  7
HARI
100
AcDbAttributeDefinition
  3

  2
13/11/2010
 70
0
 73
0
280
0
  0
ATTDEF
  5
DC
330
6E
100
AcDbEntity
  8
0
  6
Continuous
100
AcDbText
 10
10596.912602653751
 20
-8743.33050836152
 30
0
 40
1.5
  1

  7
HARI
100
AcDbAttributeDefinition
  3

  2
VASANTH
 70
0
 73
0
280
0
  0
ATTDEF
  5
DD
330
6E
100
AcDbEntity
  8
0
  6
Continuous
100
AcDbText
 10
10596.912602653751
 20
-8738.61886705515
 30
0
 40
1.5
  1

  7
HARI
100
AcDbAttributeDefinition
  3

  2
HARI
 70
0
 73
0
280
0
  0
ATTDEF
  5
DE
330
6E
100
AcDbEntity
  8
0
  6
Continuous
100
AcDbText
 10
10581.240059163771
 20
-8738.4846597253854
 30
0
 40
1.5
  1

  7
HARI
100
AcDbAttributeDefinition
  3

  2
DRAWN
 70
0
 73
0
280
0
  0
ATTDEF
  5
DF
330
6E
100
AcDbEntity
  8
0
  6
Continuous
100
AcDbText
 10
10581.502752364309
 20
-8743.5299518604224
 30
0
 40
1.5
  1

  7
HARI
100
AcDbAttributeDefinition
  3

  2
CHECKED
 70
0
 73
0
280
0
  0
ATTDEF
  5
E0
330
6E
100
AcDbEntity
  8
0
  6
Continuous
100
AcDbText
 10
10581.564008388061
 20
-8747.24783306308
 30
0
 40
1.5
  1

  7
HARI
100
AcDbAttributeDefinition
  3

  2
MFGAPPR
 70
0
 73
0
280
0
  0
ATTDEF
  5
E1
330
6E
100
AcDbEntity
  8
0
  6
Continuous
100
AcDbText
 10
10581.521546293559
 20
-8751.7405988201717
 30
0
 40
1.5
  1

  7
HARI
100
AcDbAttributeDefinition
  3

  2
QAAPPR
 70
0
 73
0
280
0
  0
ATTDEF
  5
E2
330
6E
100
AcDbEntity
  8
0
  6
Continuous
100
AcDbText
 10
10610.8792104066
 20
-8743.2672241882483
 30
0
 40
1.5
  1

  7
HARI
100
AcDbAttributeDefinition
  3

  2
13/11/2010
 70
0
 73
0
280
0
  0
ATTDEF
  5
E3
330
6E
100
AcDbEntity
  8
0
  6
Continuous
100
AcDbText
 10
10643.135891640221
 20
-8769.36822740574
 30
0
 40
3.375
  1

  7
HARI
100
AcDbAttributeDefinition
  3

  2
DOOR-PANEL-RH
 70
0
 73
0
280
0
  0
ATTDEF
  5
E4
330
6E
100
AcDbEntity
  8
0
  6
Continuous
100
AcDbText
 10
10657.228475190181
 20
-8775.7874337666926
 30
0
 40
2.53125
  1

  7
HARI
100
AcDbAttributeDefinition
  3

  2
511380054
 70
0
 73
0
280
0
  0
ATTDEF
  5
E5
330
6E
100
AcDbEntity
  8
0
  6
Continuous
100
AcDbText
 10
10711.44532475041
 20
-8772.6769909102932
 30
0
 40
1.875
  1

  7
HARI
100
AcDbAttributeDefinition
  3

  2
01
 70
0
 73
0
280
0
  0
ATTDEF
  5
E6
330
6E
100
AcDbEntity
  8
0
  6
Continuous
100
AcDbText
 10
10693.056904515641
 20
-8756.4119664484933
 30
0
 40
1.5
  1

  7
HARI
100
AcDbAttributeDefinition
  3

  2
01OF02
 70
0
 73
0
280
0
  0
ATTDEF
  5
E7
330
6E
100
AcDbEntity
  8
0
  6
Continuous
100
AcDbText
 10
10691.501693972279
 20
-8750.5253552103241
 30
0
 40
1.875
  1

  7
HARI
100
AcDbAttributeDefinition
  3

  2
GI
 70
0
 73
0
280
0
  0
ATTDEF
  5
E8
330
6E
100
AcDbEntity
  8
0
  6
Continuous
100
AcDbText
 10
10684.71210154009
 20
-8744.0903039691748
 30
0
 40
1.875
  1

  7
HARI
100
AcDbAttributeDefinition
  3

  2
FABRICATION
 70
0
 73
0
280
0
  0
ENDBLK
  5
E9
330
6E
100
AcDbEntity
  8
0
100
AcDbBlockEnd
  0
BLOCK
  5
ED
330
EA
100
AcDbEntity
  8
0
100
AcDbBlockBegin
  2
*MODEL_SPACE
 70
0
 10
0
 20
0
 30
0
  3
*MODEL_SPACE
  0
ENDBLK
  5
FF
330
EA
100
AcDbEntity
  8
0
100
AcDbBlockEnd
  0
BLOCK
  5
1C
330
1B
100
AcDbEntity
  8
0
 67
1
100
AcDbBlockBegin
  2
*Paper_Space
 70
0
 10
0
 20
0
 30
0
  3
*Paper_Space
  0
ENDBLK
  5
1D
330
1B
100
AcDbEntity
  8
0
100
AcDbBlockEnd
  0
BLOCK
  5
101
330
100
100
AcDbEntity
  8
0
100
AcDbBlockBegin
  2
*Paper_Space0
 70
0
 10
0
 20
0
 30
0
  3
*Paper_Space0
  0
VIEWPORT
  5
10F
330
100
100
AcDbEntity
  8
0
 62
2
 67
1
100
AcDbViewport
 10
5.2499996395561617
 20
3.9999998836066761
 30
0
 40
16.70128524213861
 41
8.9929997457669462
 68
1
 69
1
 12
5.2499996395561617
 22
3.9999998836066761
 13
0
 23
0
 14
0.5
 24
0.5
 15
0.5
 25
0.5
 16
0
 26
0
 36
1
 17
0
 27
0
 37
0
 42
50
 43
0
 44
0
 45
8.9929997457669462
 50
0
 51
0
 72
1000
 90
32800
  1

281
0
 71
1
 74
0
110
0
120
0
130
0
111
1
121
0
131
0
112
0
122
1
132
0
 79
0
146
0
170
0
 61
5
292
1
282
1
141
0
142
0
  0
VIEWPORT
  5
110
330
100
100
AcDbEntity
  8
0
 62
2
 67
1
100
AcDbViewport
 10
5.24999976158142
 20
3.9999997615814191
 30
0
 40
8.3999996185302717
 41
6.3999996185302717
 68
2
 69
2
 12
183.32619391524619
 22
185.94829756894421
 13
0
 23
0
 14
0.5
 24
0.5
 15
0.5
 25
0.5
 16
0
 26
0
 36
1
 17
0
 27
0
 37
0
 42
50
 43
0
 44
0
 45
319.6940261153652
 50
0
 51
0
 72
1000
 90
32864
  1

281
0
 71
1
 74
0
110
0
120
0
130
0
111
1
121
0
131
0
112
0
122
1
132
0
 79
0
146
0
170
0
 61
5
292
1
282
1
141
0
142
0
  0
ENDBLK
  5
102
330
100
100
AcDbEntity
  8
0
100
AcDbBlockEnd
  0
ENDSEC
  0
SECTION
  2
ENTITIES
  0
MTEXT
  5
EE
330
EA
100
AcDbEntity
  8
LaserCutting
  6
Continuous
100
AcDbMText
 10
745.65117597233143
 20
246.5764937802193
 30
0
 11
1
 21
0
 31
0
 40
1.3125
 41
12.957312123115109
 46
0
 71
1
 72
5
  1
{\fTimes New Roman|b0|i0|c0|p18;QTY : 2 NOS}
  7
Standard
 73
1
 90
0
1001
ACAD
1000
MTEXTBEGIN
1070
73
1070
1
1070
44
1040
1
1070
74
1070
0
1000
MTEXTEND
  0
MTEXT
  5
EF
330
EA
100
AcDbEntity
  8
LaserCutting
  6
Continuous
100
AcDbMText
 10
745.65117597233143
 20
249.47821596451661
 30
0
 11
1
 21
0
 31
0
 40
1.3125
 41
55.6524181547619
 46
0
 71
1
 72
5
  1
{\fTimes New Roman|b0|i0|c0|p18;BLANK SIZE:3X19.3X94.20}
  7
Standard
 73
1
 90
0
1001
ACAD
1000
MTEXTBEGIN
1070
73
1070
1
1070
44
1040
1
1070
74
1070
0
1000
MTEXTEND
  0
MTEXT
  5
F0
330
EA
100
AcDbEntity
  8
LaserCutting
  6
Continuous
100
AcDbMText
 10
745.50429527065228
 20
244.0253334735813
 30
0
 11
1
 21
0
 31
0
 40
1.3125
 41
55.6524181547619
 46
0
 71
1
 72
5
  1
{\fTimes New Roman|b0|i0|c0|p18;MATERIAL: SS 316 GRADE}
  7
Standard
 73
1
 90
0
1001
ACAD
1000
MTEXTBEGIN
1070
73
1070
1
1070
44
1040
1
1070
74
1070
0
1000
MTEXTEND
  0
MTEXT
  5
F1
330
EA
100
AcDbEntity
  8
LaserCutting
  6
Continuous
100
AcDbMText
 10
745.766681848607
 20
241.36828440164081
 30
0
 11
1
 21
0
 31
0
 40
1.3125
 41
55.6524181547619
 46
0
 71
1
 72
5
  1
{\fTimes New Roman|b0|i0|c0|p18;REV NO : 0}
  7
Standard
 73
1
 90
0
1001
ACAD
1000
MTEXTBEGIN
1070
73
1070
1
1070
44
1040
1
1070
74
1070
0
1000
MTEXTEND
  0
MTEXT
  5
F2
330
EA
100
AcDbEntity
  8
LaserCutting
100
AcDbMText
 10
732.8822813494761
 20
263.79782387277692
 30
0
 11
1
 21
0
 31
0
 40
3
 41
18.278106312380711
 46
0
 71
1
 72
5
  1
{\fCentury Gothic|b0|i0|c0|p34;\C1;220309}
  7
Standard
 73
1
 90
0
1001
ACAD
1000
ACAD_MTEXT_COLUMN_INFO_BEGIN
1070
75
1070
2
1070
79
1070
0
1070
76
1070
1
1070
78
1070
0
1070
48
1040
18.278106312380711
1070
49
1040
1
1070
50
1070
1
1040
0
1000
ACAD_MTEXT_COLUMN_INFO_END
1000
MTEXTBEGIN
1070
73
1070
1
1070
44
1040
1
1070
74
1070
0
1000
MTEXTEND
  0
LINE
  5
F3
330
EA
100
AcDbEntity
  8
LaserCutting
100
AcDbLine
 10
703.04281482415831
 20
264.775536542449
 30
0
 11
703.04281482415831
 21
258.20052323447783
 31
0
  0
ARC
  5
F4
330
EA
100
AcDbEntity
  8
LaserCutting
100
AcDbCircle
 10
705.36681482415815
 20
261.48802988846342
 30
0
 40
4.0259999999999128
100
AcDbArc
 50
234.74279431378631
 51
125.2572056862137
  0
ARC
  5
F5
330
EA
100
AcDbEntity
  8
LaserCutting
100
AcDbCircle
 10
755.37081482415874
 20
261.48802988846342
 30
0
 40
2.5780000000000882
100
AcDbArc
 50
0
 51
180
  0
ARC
  5
F6
330
EA
100
AcDbEntity
  8
LaserCutting
100
AcDbCircle
 10
755.37081482415874
 20
261.48802988846342
 30
0
 40
2.5779999999999741
100
AcDbArc
 50
180
 51
0
  0
ARC
  5
F7
330
EA
100
AcDbEntity
  8
LaserCutting
100
AcDbCircle
 10
773.15081482415872
 20
261.48802988846342
 30
0
 40
2.57799999999986
100
AcDbArc
 50
0
 51
180
  0
ARC
  5
F8
330
EA
100
AcDbEntity
  8
LaserCutting
100
AcDbCircle
 10
773.15081482415872
 20
261.48802988846342
 30
0
 40
2.5779999999999741
100
AcDbArc
 50
180
 51
0
  0
ARC
  5
F9
330
EA
100
AcDbEntity
  8
LaserCutting
100
AcDbCircle
 10
782.0408148241587
 20
261.48802988846342
 30
0
 40
2.5779999999999741
100
AcDbArc
 50
0
 51
180
  0
ARC
  5
FA
330
EA
100
AcDbEntity
  8
LaserCutting
100
AcDbCircle
 10
782.0408148241587
 20
261.48802988846342
 30
0
 40
2.5779999999999741
100
AcDbArc
 50
180
 51
0
  0
ARC
  5
FB
330
EA
100
AcDbEntity
  8
LaserCutting
100
AcDbCircle
 10
705.36681482415861
 20
261.48802988846342
 30
0
 40
9.6519999999999868
100
AcDbArc
 50
90
 51
270
  0
LINE
  5
FC
330
EA
100
AcDbEntity
  8
LaserCutting
100
AcDbLine
 10
705.36681482415861
 20
251.8360298884634
 30
0
 11
782.04081482415972
 21
253.61402988846339
 31
0
  0
ARC
  5
FD
330
EA
100
AcDbEntity
  8
LaserCutting
100
AcDbCircle
 10
782.04081482415847
 20
261.48802988846342
 30
0
 40
7.8740000000000228
100
AcDbArc
 50
270.00000000000819
 51
89.9999999999917
  0
LINE
  5
FE
330
EA
100
AcDbEntity
  8
LaserCutting
100
AcDbLine
 10
782.04081482415972
 20
269.36202988846338
 30
0
 11
705.36681482415861
 21
271.1400298884634
 31
0
  0
VIEWPORT
  5
111
330
1B
100
AcDbEntity
  8
0
 62
2
 67
1
100
AcDbViewport
 10
5.2499996395561617
 20
3.9999998836066761
 30
0
 40
16.70128524213861
 41
8.9929997457669462
 68
1
 69
1
 12
5.2499996395561617
 22
3.9999998836066761
 13
0
 23
0
 14
0.5
 24
0.5
 15
0.5
 25
0.5
 16
0
 26
0
 36
1
 17
0
 27
0
 37
0
 42
50
 43
0
 44
0
 45
8.9929997457669462
 50
0
 51
0
 72
1000
 90
32800
  1

281
0
 71
1
 74
0
110
0
120
0
130
0
111
1
121
0
131
0
112
0
122
1
132
0
 79
0
146
0
170
0
 61
5
292
1
282
1
141
0
142
0
  0
VIEWPORT
  5
112
330
1B
100
AcDbEntity
  8
0
 62
2
 67
1
100
AcDbViewport
 10
5.24999976158142
 20
3.9999997615814191
 30
0
 40
8.3999996185302717
 41
6.3999996185302717
 68
2
 69
2
 12
183.32619391524619
 22
185.94829756894421
 13
0
 23
0
 14
0.5
 24
0.5
 15
0.5
 25
0.5
 16
0
 26
0
 36
1
 17
0
 27
0
 37
0
 42
50
 43
0
 44
0
 45
319.6940261153652
 50
0
 51
0
 72
1000
 90
32864
  1

281
0
 71
1
 74
0
110
0
120
0
130
0
111
1
121
0
131
0
112
0
122
1
132
0
 79
0
146
0
170
0
 61
5
292
1
282
1
141
0
142
0
  0
VIEWPORT
  5
113
330
1B
100
AcDbEntity
  8
0
 62
2
 67
1
100
AcDbViewport
 10
5.249999639556159
 20
3.9999998836066761
 30
0
 40
10.9999997597041
 41
8.4999997597041066
 68
3
 69
3
 12
5.249999639556159
 22
3.9999998836066761
 13
0
 23
0
 14
0
 24
0
 15
0
 25
0
 16
0
 26
0
 36
1
 17
0
 27
0
 37
0
 42
50
 43
0
 44
0
 45
8.4999997597041066
 50
0
 51
0
 72
100
 90
32800
  1

281
0
 71
1
 74
1
110
0
120
0
130
0
111
1
121
0
131
0
112
0
122
1
132
0
 79
0
146
0
170
0
 61
5
292
1
282
1
141
0
142
0
 63
250
  0
ENDSEC
  0
SECTION
  2
OBJECTS
  0
DICTIONARY
  5
C
330
0
100
AcDbDictionary
280
0
281
1
  3
ACAD_CIP_PREVIOUS_PRODUCT_INFO
350
10B
  3
ACAD_COLOR
350
10C
  3
ACAD_DETAILVIEWSTYLE
350
10D
  3
ACAD_GROUP
350
D
  3
ACAD_LAYOUT
350
1A
  3
ACAD_MATERIAL
350
114
  3
ACAD_MLEADERSTYLE
350
115
  3
ACAD_MLINESTYLE
350
17
  3
ACAD_PLOTSETTINGS
350
19
  3
ACAD_PLOTSTYLENAME
350
E
  3
ACAD_SCALELIST
350
117
  3
ACAD_SECTIONVIEWSTYLE
350
129
  3
ACAD_TABLESTYLE
350
12A
  3
ACAD_VISUALSTYLE
350
12E
  3
ACDB_RECOMPOSE_DATA
350
12F
  3
AcDbVariableDictionary
350
130
  3
ACAD_FIELDLIST
350
13C
  3
ACAD_IMAGE_DICT
350
13D
  0
DICTIONARY
  5
2C
330
2B
100
AcDbDictionary
280
1
281
1
  3
ACAD_SORTENTS
360
2D
  0
DICTIONARY
  5
6F
330
6E
100
AcDbDictionary
280
1
281
1
  3
ACAD_SORTENTS
360
70
  0
DICTIONARY
  5
AB
330
AA
100
AcDbDictionary
280
1
281
1
  3
ACAD_FILTER
360
AC
  0
DICTIONARY
  5
EB
330
EA
100
AcDbDictionary
280
1
281
1
  3
ACAD_SORTENTS
360
EC
  0
DICTIONARY
  5
12C
330
12B
100
AcDbDictionary
280
1
281
1
  3
ACAD_ROUNDTRIP_2008_TABLESTYLE_CELLSTYLEMAP
360
12D
  0
XRECORD
  5
10B
102
{ACAD_REACTORS
330
C
102
}
330
C
100
AcDbXrecord
280
1
300
ACD
300
2013
300
ACD_F_S_TL
  0
DICTIONARY
  5
10C
102
{ACAD_REACTORS
330
C
102
}
330
C
100
AcDbDictionary
280
0
281
1
  0
DICTIONARY
  5
10D
102
{ACAD_REACTORS
330
C
102
}
330
C
100
AcDbDictionary
280
0
281
1
  0
DICTIONARY
  5
D
102
{ACAD_REACTORS
330
C
102
}
330
C
100
AcDbDictionary
280
0
281
1
  0
DICTIONARY
  5
1A
102
{ACAD_REACTORS
330
C
102
}
330
C
100
AcDbDictionary
280
0
281
1
  3
Layout1
350
10E
  3
Layout2
350
1E
  3
Model
350
22
  0
DICTIONARY
  5
114
102
{ACAD_REACTORS
330
C
102
}
330
C
100
AcDbDictionary
280
0
281
1
  0
DICTIONARY
  5
115
102
{ACAD_REACTORS
330
C
102
}
330
C
100
AcDbDictionary
280
0
281
1
  0
DICTIONARY
  5
17
102
{ACAD_REACTORS
330
C
102
}
330
C
100
AcDbDictionary
280
0
281
1
  3
STANDARD
350
116
  0
DICTIONARY
  5
19
102
{ACAD_REACTORS
330
C
102
}
330
C
100
AcDbDictionary
280
0
281
1
  0
ACDBDICTIONARYWDFLT
  5
E
102
{ACAD_REACTORS
330
C
102
}
330
C
100
AcDbDictionary
280
0
281
1
  3
Normal
350
F
100
AcDbDictionaryWithDefault
340
F
  0
ACDBPLACEHOLDER
  5
F
102
{ACAD_REACTORS
330
E
102
}
330
E
  0
DICTIONARY
  5
117
102
{ACAD_REACTORS
330
C
102
}
330
C
100
AcDbDictionary
280
0
281
1
  3
A0
350
118
  3
A1
350
119
  3
A2
350
11A
  3
A3
350
11B
  3
A4
350
11C
  3
A5
350
11D
  3
A6
350
11E
  3
A7
350
11F
  3
A8
350
120
  3
A9
350
121
  3
B0
350
122
  3
B1
350
123
  3
B2
350
124
  3
B3
350
125
  3
B4
350
126
  3
B5
350
127
  3
B6
350
128
  0
DICTIONARY
  5
129
102
{ACAD_REACTORS
330
C
102
}
330
C
100
AcDbDictionary
280
0
281
1
  0
DICTIONARY
  5
12A
102
{ACAD_REACTORS
330
C
102
}
330
C
100
AcDbDictionary
280
0
281
1
  3
Standard
350
12B
  0
DICTIONARY
  5
12E
102
{ACAD_REACTORS
330
C
102
}
330
C
100
AcDbDictionary
280
0
281
1
  0
XRECORD
  5
12F
102
{ACAD_REACTORS
330
C
102
}
330
C
100
AcDbXrecord
280
1
 90
1
330
12B
  0
DICTIONARY
  5
130
102
{ACAD_REACTORS
330
C
102
}
330
C
100
AcDbDictionary
280
0
281
1
  3
CANNOSCALE
350
131
  3
CMLEADERSTYLE
350
132
  3
CTABLESTYLE
350
133
  3
CVIEWDETAILSTYLE
350
134
  3
CVIEWSECTIONSTYLE
350
135
  3
DIMASSOC
350
136
  3
HIDETEXT
350
137
  3
MSLTSCALE
350
138
  3
XCLIPFRAME
350
139
  3
ANNOALLVISIBLE
350
13A
  3
ANNOTATIVEDWG
350
13B
  0
FIELDLIST
  5
13C
102
{ACAD_REACTORS
330
C
102
}
330
C
100
AcDbIdSet
100
AcDbFieldList
  0
DICTIONARY
  5
13D
102
{ACAD_REACTORS
330
C
102
}
330
C
100
AcDbDictionary
280
0
281
1
  0
SORTENTSTABLE
  5
2D
102
{ACAD_REACTORS
330
2C
102
}
330
2C
100
AcDbSortentsTable
330
2B
  0
SORTENTSTABLE
  5
70
102
{ACAD_REACTORS
330
6F
102
}
330
6F
100
AcDbSortentsTable
330
6E
  0
DICTIONARY
  5
AC
102
{ACAD_REACTORS
330
AB
102
}
330
AB
100
AcDbDictionary
280
1
281
1
  3
SPATIAL
360
AD
  0
SORTENTSTABLE
  5
EC
102
{ACAD_REACTORS
330
EB
102
}
330
EB
100
AcDbSortentsTable
330
EA
331
F2
  5
2574
331
F3
  5
24FE
331
F4
  5
2569
331
F5
  5
256A
331
F6
  5
256B
331
F7
  5
256C
331
F8
  5
256D
331
F9
  5
256E
331
FA
  5
256F
331
FB
  5
2570
331
FC
  5
2571
331
FD
  5
2572
331
FE
  5
2573
  0
CELLSTYLEMAP
  5
12D
102
{ACAD_REACTORS
330
12C
102
}
330
12C
100
AcDbCellStyleMap
 90
3
300
CELLSTYLE
  1
TABLEFORMAT_BEGIN
 90
5
170
1
 91
0
 92
32768
 62
257
 93
1
300
CONTENTFORMAT
  1
CONTENTFORMAT_BEGIN
 90
0
 91
0
 92
4
 93
0
300

 40
0
140
1
 94
1
 62
18
340
11
144
0.25
309
CONTENTFORMAT_END
171
1
301
MARGIN
  1
CELLMARGIN_BEGIN
 40
0.06
 40
0.06
 40
0.06
 40
0.06
 40
0.06
 40
0.06
309
CELLMARGIN_END
 94
6
 95
1
302
GRIDFORMAT
  1
GRIDFORMAT_BEGIN
 90
0
 91
1
 62
0
 92
-2
340
0
 93
0
 40
0.045
309
GRIDFORMAT_END
 95
2
302
GRIDFORMAT
  1
GRIDFORMAT_BEGIN
 90
0
 91
1
 62
0
 92
-2
340
0
 93
0
 40
0.045
309
GRIDFORMAT_END
 95
4
302
GRIDFORMAT
  1
GRIDFORMAT_BEGIN
 90
0
 91
1
 62
0
 92
-2
340
0
 93
0
 40
0.045
309
GRIDFORMAT_END
 95
8
302
GRIDFORMAT
  1
GRIDFORMAT_BEGIN
 90
0
 91
1
 62
0
 92
-2
340
0
 93
0
 40
0.045
309
GRIDFORMAT_END
 95
16
302
GRIDFORMAT
  1
GRIDFORMAT_BEGIN
 90
0
 91
1
 62
0
 92
-2
340
0
 93
0
 40
0.045
309
GRIDFORMAT_END
 95
32
302
GRIDFORMAT
  1
GRIDFORMAT_BEGIN
 90
0
 91
1
 62
0
 92
-2
340
0
 93
0
 40
0.045
309
GRIDFORMAT_END
309
TABLEFORMAT_END
  1
CELLSTYLE_BEGIN
 90
1
 91
1
300
_TITLE
309
CELLSTYLE_END
300
CELLSTYLE
  1
TABLEFORMAT_BEGIN
 90
5
170
1
 91
0
 92
0
 62
257
 93
1
300
CONTENTFORMAT
  1
CONTENTFORMAT_BEGIN
 90
0
 91
0
 92
4
 93
0
300

 40
0
140
1
 94
1
 62
18
340
11
144
0.18
309
CONTENTFORMAT_END
171
1
301
MARGIN
  1
CELLMARGIN_BEGIN
 40
0.06
 40
0.06
 40
0.06
 40
0.06
 40
0.06
 40
0.06
309
CELLMARGIN_END
 94
6
 95
1
302
GRIDFORMAT
  1
GRIDFORMAT_BEGIN
 90
0
 91
1
 62
0
 92
-2
340
0
 93
0
 40
0.045
309
GRIDFORMAT_END
 95
2
302
GRIDFORMAT
  1
GRIDFORMAT_BEGIN
 90
0
 91
1
 62
0
 92
-2
340
0
 93
0
 40
0.045
309
GRIDFORMAT_END
 95
4
302
GRIDFORMAT
  1
GRIDFORMAT_BEGIN
 90
0
 91
1
 62
0
 92
-2
340
0
 93
0
 40
0.045
309
GRIDFORMAT_END
 95
8
302
GRIDFORMAT
  1
GRIDFORMAT_BEGIN
 90
0
 91
1
 62
0
 92
-2
340
0
 93
0
 40
0.045
309
GRIDFORMAT_END
 95
16
302
GRIDFORMAT
  1
GRIDFORMAT_BEGIN
 90
0
 91
1
 62
0
 92
-2
340
0
 93
0
 40
0.045
309
GRIDFORMAT_END
 95
32
302
GRIDFORMAT
  1
GRIDFORMAT_BEGIN
 90
0
 91
1
 62
0
 92
-2
340
0
 93
0
 40
0.045
309
GRIDFORMAT_END
309
TABLEFORMAT_END
  1
CELLSTYLE_BEGIN
 90
2
 91
1
300
_HEADER
309
CELLSTYLE_END
300
CELLSTYLE
  1
TABLEFORMAT_BEGIN
 90
5
170
1
 91
0
 92
0
 62
257
 93
1
300
CONTENTFORMAT
  1
CONTENTFORMAT_BEGIN
 90
0
 91
0
 92
4
 93
0
300

 40
0
140
1
 94
2
 62
18
340
11
144
0.18
309
CONTENTFORMAT_END
171
1
301
MARGIN
  1
CELLMARGIN_BEGIN
 40
0.06
 40
0.06
 40
0.06
 40
0.06
 40
0.06
 40
0.06
309
CELLMARGIN_END
 94
6
 95
1
302
GRIDFORMAT
  1
GRIDFORMAT_BEGIN
 90
0
 91
1
 62
0
 92
-2
340
0
 93
0
 40
0.045
309
GRIDFORMAT_END
 95
2
302
GRIDFORMAT
  1
GRIDFORMAT_BEGIN
 90
0
 91
1
 62
0
 92
-2
340
0
 93
0
 40
0.045
309
GRIDFORMAT_END
 95
4
302
GRIDFORMAT
  1
GRIDFORMAT_BEGIN
 90
0
 91
1
 62
0
 92
-2
340
0
 93
0
 40
0.045
309
GRIDFORMAT_END
 95
8
302
GRIDFORMAT
  1
GRIDFORMAT_BEGIN
 90
0
 91
1
 62
0
 92
-2
340
0
 93
0
 40
0.045
309
GRIDFORMAT_END
 95
16
302
GRIDFORMAT
  1
GRIDFORMAT_BEGIN
 90
0
 91
1
 62
0
 92
-2
340
0
 93
0
 40
0.045
309
GRIDFORMAT_END
 95
32
302
GRIDFORMAT
  1
GRIDFORMAT_BEGIN
 90
0
 91
1
 62
0
 92
-2
340
0
 93
0
 40
0.045
309
GRIDFORMAT_END
309
TABLEFORMAT_END
  1
CELLSTYLE_BEGIN
 90
3
 91
2
300
_DATA
309
CELLSTYLE_END
  0
LAYOUT
  5
10E
102
{ACAD_REACTORS
330
1A
102
}
330
1A
100
AcDbPlotSettings
  1

  2
none_device
  4
Letter_(8.50_x_11.00_Inches)
  6

 40
6.3499999046325666
 41
6.3499999046325666
 42
6.350006103515625
 43
6.350006103515625
 44
215.8999938964844
 45
279.39999389648438
 46
0
 47
0
 48
0
 49
0
140
0
141
0
142
1
143
1
 70
688
 72
0
 73
1
 74
5
  7

 75
16
 76
0
 77
2
 78
300
147
1
148
0
149
0
100
AcDbLayout
  1
Layout1
 70
1
 71
1
 10
-0.25000024029589069
 20
-0.24999999624537669
 11
10.74999951940821
 21
8.2499997634587316
 12
0
 22
0
 32
0
 14
1.0499999523162831
 24
0.79999995231628418
 34
0
 15
9.4499995708465558
 25
7.1999995708465558
 35
0
146
0
 13
0
 23
0
 33
0
 16
1
 26
0
 36
0
 17
0
 27
1
 37
0
 76
0
330
100
331
10F
  0
LAYOUT
  5
1E
102
{ACAD_REACTORS
330
1A
102
}
330
1A
100
AcDbPlotSettings
  1

  2
none_device
  4
Letter_(8.50_x_11.00_Inches)
  6

 40
6.3499999046325666
 41
6.3499999046325666
 42
6.350006103515625
 43
6.350006103515625
 44
215.8999938964844
 45
279.39999389648438
 46
0
 47
0
 48
0
 49
0
140
0
141
0
142
1
143
1
 70
688
 72
0
 73
1
 74
5
  7

 75
16
 76
0
 77
2
 78
300
147
1
148
0
149
0
100
AcDbLayout
  1
Layout2
 70
1
 71
2
 10
-0.25000024029589069
 20
-0.24999999624537669
 11
10.74999951940821
 21
8.2499997634587316
 12
0
 22
0
 32
0
 14
1.0499999523162831
 24
0.79999995231628418
 34
0
 15
9.4499995708465558
 25
7.1999995708465558
 35
0
146
0
 13
0
 23
0
 33
0
 16
1
 26
0
 36
0
 17
0
 27
1
 37
0
 76
0
330
1B
331
111
  0
LAYOUT
  5
22
102
{ACAD_REACTORS
330
1A
102
}
330
1A
100
AcDbPlotSettings
  1

  2
none_device
  4
ANSI_A_(8.50_x_11.00_Inches)
  6

 40
6.3499999046325666
 41
19.04999923706055
 42
6.350006103515625
 43
19.04998779296875
 44
215.8999938964844
 45
279.39999389648438
 46
0
 47
0
 48
0
 49
0
140
0
141
0
142
1
143
2.5848954647083731
 70
11952
 72
0
 73
1
 74
0
  7

 75
0
 76
0
 77
2
 78
300
147
0.38686283977554181
148
0
149
0
100
AcDbLayout
  1
Model
 70
1
 71
0
 10
0
 20
0
 11
12
 21
9
 12
0
 22
0
 32
0
 14
0
 24
0
 34
0
 15
0
 25
0
 35
0
146
0
 13
0
 23
0
 33
0
 16
1
 26
0
 36
0
 17
0
 27
1
 37
0
 76
0
330
EA
331
10A
  0
MLINESTYLE
  5
116
102
{ACAD_REACTORS
330
17
102
}
330
17
100
AcDbMlineStyle
  2
STANDARD
 70
0
  3

 51
90
 52
90
 71
2
 49
0.5
  6
ByLayer
 49
-0.5
  6
ByLayer
  0
SCALE
  5
118
102
{ACAD_REACTORS
330
117
102
}
330
117
100
AcDbScale
 70
0
300
1:1
140
1
141
1
290
1
  0
SCALE
  5
119
102
{ACAD_REACTORS
330
117
102
}
330
117
100
AcDbScale
 70
0
300
1:2
140
1
141
2
290
0
  0
SCALE
  5
11A
102
{ACAD_REACTORS
330
117
102
}
330
117
100
AcDbScale
 70
0
300
1:4
140
1
141
4
290
0
  0
SCALE
  5
11B
102
{ACAD_REACTORS
330
117
102
}
330
117
100
AcDbScale
 70
0
300
1:5
140
1
141
5
290
0
  0
SCALE
  5
11C
102
{ACAD_REACTORS
330
117
102
}
330
117
100
AcDbScale
 70
0
300
1:8
140
1
141
8
290
0
  0
SCALE
  5
11D
102
{ACAD_REACTORS
330
117
102
}
330
117
100
AcDbScale
 70
0
300
1:10
140
1
141
10
290
0
  0
SCALE
  5
11E
102
{ACAD_REACTORS
330
117
102
}
330
117
100
AcDbScale
 70
0
300
1:16
140
1
141
16
290
0
  0
SCALE
  5
11F
102
{ACAD_REACTORS
330
117
102
}
330
117
100
AcDbScale
 70
0
300
1:20
140
1
141
20
290
0
  0
SCALE
  5
120
102
{ACAD_REACTORS
330
117
102
}
330
117
100
AcDbScale
 70
0
300
1:30
140
1
141
30
290
0
  0
SCALE
  5
121
102
{ACAD_REACTORS
330
117
102
}
330
117
100
AcDbScale
 70
0
300
1:40
140
1
141
40
290
0
  0
SCALE
  5
122
102
{ACAD_REACTORS
330
117
102
}
330
117
100
AcDbScale
 70
0
300
1:50
140
1
141
50
290
0
  0
SCALE
  5
123
102
{ACAD_REACTORS
330
117
102
}
330
117
100
AcDbScale
 70
0
300
1:100
140
1
141
100
290
0
  0
SCALE
  5
124
102
{ACAD_REACTORS
330
117
102
}
330
117
100
AcDbScale
 70
0
300
2:1
140
2
141
1
290
0
  0
SCALE
  5
125
102
{ACAD_REACTORS
330
117
102
}
330
117
100
AcDbScale
 70
0
300
4:1
140
4
141
1
290
0
  0
SCALE
  5
126
102
{ACAD_REACTORS
330
117
102
}
330
117
100
AcDbScale
 70
0
300
8:1
140
8
141
1
290
0
  0
SCALE
  5
127
102
{ACAD_REACTORS
330
117
102
}
330
117
100
AcDbScale
 70
0
300
10:1
140
10
141
1
290
0
  0
SCALE
  5
128
102
{ACAD_REACTORS
330
117
102
}
330
117
100
AcDbScale
 70
0
300
100:1
140
100
141
1
290
0
  0
TABLESTYLE
  5
12B
102
{ACAD_XDICTIONARY
360
12C
102
}
102
{ACAD_REACTORS
330
12A
102
}
330
12A
100
AcDbTableStyle
  3
Standard
 70
0
 71
0
 40
0.06
 41
0.06
280
0
281
0
  7
Standard
140
0.18
170
2
 62
18
283
0
 90
4
 91
0
274
-2
284
1
 64
0
275
-2
285
1
 65
0
276
-2
286
1
 66
0
277
-2
287
1
 67
0
278
-2
288
1
 68
0
279
-2
289
1
 69
0
  7
Standard
140
0.25
170
1
 62
18
283
0
 90
4
 91
0
274
-2
284
1
 64
0
275
-2
285
1
 65
0
276
-2
286
1
 66
0
277
-2
287
1
 67
0
278
-2
288
1
 68
0
279
-2
289
1
 69
0
  7
Standard
140
0.18
170
1
 62
18
283
0
 90
4
 91
0
274
-2
284
1
 64
0
275
-2
285
1
 65
0
276
-2
286
1
 66
0
277
-2
287
1
 67
0
278
-2
288
1
 68
0
279
-2
289
1
 69
0
  0
DICTIONARYVAR
  5
131
102
{ACAD_REACTORS
330
130
102
}
330
130
100
DictionaryVariables
280
0
  1
1:1
  0
DICTIONARYVAR
  5
132
102
{ACAD_REACTORS
330
130
102
}
330
130
100
DictionaryVariables
280
0
  1
STANDARD
  0
DICTIONARYVAR
  5
133
102
{ACAD_REACTORS
330
130
102
}
330
130
100
DictionaryVariables
280
0
  1
STANDARD
  0
DICTIONARYVAR
  5
134
102
{ACAD_REACTORS
330
130
102
}
330
130
100
DictionaryVariables
280
0
  1
Imperial24
  0
DICTIONARYVAR
  5
135
102
{ACAD_REACTORS
330
130
102
}
330
130
100
DictionaryVariables
280
0
  1
Imperial24
  0
DICTIONARYVAR
  5
136
102
{ACAD_REACTORS
330
130
102
}
330
130
100
DictionaryVariables
280
0
  1
2
  0
DICTIONARYVAR
  5
137
102
{ACAD_REACTORS
330
130
102
}
330
130
100
DictionaryVariables
280
0
  1
1
  0
DICTIONARYVAR
  5
138
102
{ACAD_REACTORS
330
130
102
}
330
130
100
DictionaryVariables
280
0
  1
0
  0
DICTIONARYVAR
  5
139
102
{ACAD_REACTORS
330
130
102
}
330
130
100
DictionaryVariables
280
0
  1
0
  0
DICTIONARYVAR
  5
13A
102
{ACAD_REACTORS
330
130
102
}
330
130
100
DictionaryVariables
280
0
  1
1
  0
DICTIONARYVAR
  5
13B
102
{ACAD_REACTORS
330
130
102
}
330
130
100
DictionaryVariables
280
0
  1
0
  0
SPATIAL_FILTER
  5
AD
102
{ACAD_REACTORS
330
AC
102
}
330
AC
100
AcDbFilter
100
AcDbSpatialFilter
 70
2
 10
15043.816318333569
 20
-415.53729198442579
 10
18347.804665237531
 20
1936.517813869609
210
0
220
0
230
1
 11
0
 21
0
 31
0
 71
1
 72
0
 73
0
 40
0.0631789105511182
 40
0
 40
0
 40
-1055.347045974351
 40
0
 40
0.0631789105511046
 40
0
 40
22.400734384536861
 40
0
 40
0
 40
0.0631789105511098
 40
0
 40
1
 40
0
 40
0
 40
0
 40
0
 40
1
 40
0
 40
0
 40
0
 40
0
 40
1
 40
0
  0
ENDSEC
999
Created By CadLib version 4.0.36.72
999
CadLib website: www.woutware.com
  0
EOF
