  0
SECTION
  2
HEADER
  9
$ACADVER
  1
AC1021
  9
$ACADMAINTVER
 70
50
  9
$DWGCODEPAGE
  3
ansi_1252
  9
$TITLE
  1

  9
$SUBJECT
  1

  9
$AUTHOR
  1

  9
$KEYWORDS
  1

  9
$COMMENTS
  1

  9
$LASTSAVEDBY
  1

  9
$REVISIONNUMBER
  1

  9
$INSBASE
 10
0
 20
0
 30
0
  9
$EXTMIN
 10
-376.77195946362548
 20
675.09260911297633
 30
0
  9
$EXTMAX
 10
-224.3719594636232
 20
807.123259138436
 30
0
  9
$LIMMIN
 10
0
 20
0
  9
$LIMMAX
 10
12
 20
9
  9
$SNAPMODE
 70
0
  9
$SNAPUNIT
 10
1
 20
1
  9
$SNAPBASE
 10
0
 20
0
  9
$SNAPANG
 50
0
  9
$SNAPSTYLE
 70
0
  9
$SNAPISOPAIR
 70
0
  9
$ORTHOMODE
 70
1
  9
$REGENMODE
 70
1
  9
$FILLMODE
 70
1
  9
$QTEXTMODE
 70
0
  9
$MIRRTEXT
 70
0
  9
$LTSCALE
 40
1
  9
$OSMODE
 70
0
  9
$ATTMODE
 70
1
  9
$TEXTSIZE
 40
0.2
  9
$TRACEWID
 40
0.05
  9
$TEXTSTYLE
  7
Standard
  9
$CLAYER
  8
0
  9
$CELTYPE
  6
ByLayer
  9
$CECOLOR
 62
256
  9
$CELTSCALE
 40
1
  9
$DISPSILH
 70
0
  9
$DIMSCALE
 40
1
  9
$DIMASZ
 40
5
  9
$DIMEXO
 40
0.0625
  9
$DIMDLI
 40
0.38
  9
$DIMRND
 40
0
  9
$DIMDLE
 40
0
  9
$DIMEXE
 40
0.18
  9
$DIMTP
 40
0
  9
$DIMTM
 40
0
  9
$DIMTXT
 40
5
  9
$DIMCEN
 40
0.09
  9
$DIMTSZ
 40
0
  9
$DIMTOL
 70
0
  9
$DIMLIM
 70
0
  9
$DIMTIH
 70
1
  9
$DIMTOH
 70
1
  9
$DIMSE1
 70
0
  9
$DIMSE2
 70
0
  9
$DIMTAD
 70
0
  9
$DIMZIN
 70
0
  9
$DIMBLK
  1

  9
$DIMASO
 70
1
  9
$DIMSHO
 70
1
  9
$DIMPOST
  1

  9
$DIMAPOST
  1

  9
$DIMALT
 70
1
  9
$DIMALTD
 70
2
  9
$DIMALTF
 40
0.03937
  9
$DIMLFAC
 40
1
  9
$DIMTOFL
 70
0
  9
$DIMTVP
 40
0
  9
$DIMTIX
 70
0
  9
$DIMSOXD
 70
0
  9
$DIMSAH
 70
0
  9
$DIMBLK1
  1

  9
$DIMBLK2
  1

  9
$DIMSTYLE
  2
Standard
  9
$DIMCLRD
 70
0
  9
$DIMCLRE
 70
0
  9
$DIMCLRT
 70
0
  9
$DIMTFAC
 40
1
  9
$DIMGAP
 40
0.09
  9
$DIMJUST
 70
0
  9
$DIMSD1
 70
0
  9
$DIMSD2
 70
0
  9
$DIMTOLJ
 70
1
  9
$DIMTZIN
 70
0
  9
$DIMALTZ
 70
0
  9
$DIMALTTZ
 70
0
  9
$DIMUPT
 70
0
  9
$DIMDEC
 70
4
  9
$DIMTDEC
 70
4
  9
$DIMALTU
 70
2
  9
$DIMALTTD
 70
2
  9
$DIMTXSTY
  7
Standard
  9
$DIMAUNIT
 70
0
  9
$DIMADEC
 70
0
  9
$DIMALTRND
 40
0
  9
$DIMAZIN
 70
0
  9
$DIMDSEP
 70
46
  9
$DIMATFIT
 70
3
  9
$DIMFRAC
 70
0
  9
$DIMLDRBLK
  1

  9
$DIMLUNIT
 70
2
  9
$DIMLWD
 70
-2
  9
$DIMLWE
 70
-2
  9
$DIMFXL
 40
1
  9
$DIMFXLON
 70
0
  9
$DIMJOGANG
 40
0.78539816339744828
  9
$DIMTFILL
 70
0
  9
$DIMTFILLCLR
 70
0
  9
$DIMARCSYM
 70
0
  9
$LUNITS
 70
2
  9
$LUPREC
 70
4
  9
$SKETCHINC
 40
0.1
  9
$FILLETRAD
 40
0.19
  9
$AUNITS
 70
0
  9
$AUPREC
 70
0
  9
$MENU
  1
.
  9
$ELEVATION
 40
0
  9
$PELEVATION
 40
0
  9
$THICKNESS
 40
0
  9
$LIMCHECK
 70
0
  9
$CHAMFERA
 40
0
  9
$CHAMFERB
 40
0
  9
$CHAMFERC
 40
0
  9
$CHAMFERD
 40
0
  9
$SKPOLY
 70
0
  9
$TDCREATE
 40
2456968.3582714815
  9
$TDUCREATE
 40
2456968.129104815
  9
$TDUPDATE
 40
2459548.6242320137
  9
$TDUUPDATE
 40
2459548.3950653472
  9
$TDINDWG
 40
0.01616767361111111
  9
$TDUSRTIMER
 40
0.016165578703703703
  9
$USRTIMER
 70
1
  9
$ANGBASE
 50
0
  9
$ANGDIR
 70
0
  9
$PDMODE
 70
2
  9
$PDSIZE
 40
0
  9
$PLINEWID
 40
0
  9
$SPLFRAME
 70
0
  9
$SPLINETYPE
 70
6
  9
$SPLINESEGS
 70
8
  9
$HANDSEED
  5
109
  9
$SURFTAB1
 70
6
  9
$SURFTAB2
 70
6
  9
$SURFTYPE
 70
6
  9
$SURFU
 70
6
  9
$SURFV
 70
6
  9
$UCSORG
 10
0
 20
0
 30
0
  9
$UCSXDIR
 10
1
 20
0
 30
0
  9
$UCSYDIR
 10
0
 20
1
 30
0
  9
$UCSORTHOREF
  2

  9
$UCSORTHOVIEW
 70
0
  9
$UCSORGTOP
 10
0
 20
0
 30
0
  9
$UCSORGBOTTOM
 10
0
 20
0
 30
0
  9
$UCSORGLEFT
 10
0
 20
0
 30
0
  9
$UCSORGRIGHT
 10
0
 20
0
 30
0
  9
$UCSORGFRONT
 10
0
 20
0
 30
0
  9
$UCSORGBACK
 10
0
 20
0
 30
0
  9
$PUCSORG
 10
0
 20
0
 30
0
  9
$PUCSXDIR
 10
1
 20
0
 30
0
  9
$PUCSYDIR
 10
0
 20
1
 30
0
  9
$PUCSORTHOREF
  2

  9
$PUCSORTHOVIEW
 70
0
  9
$PUCSORGTOP
 10
0
 20
0
 30
0
  9
$PUCSORGBOTTOM
 10
0
 20
0
 30
0
  9
$PUCSORGLEFT
 10
0
 20
0
 30
0
  9
$PUCSORGRIGHT
 10
0
 20
0
 30
0
  9
$PUCSORGFRONT
 10
0
 20
0
 30
0
  9
$PUCSORGBACK
 10
0
 20
0
 30
0
  9
$USERI1
 70
0
  9
$USERI2
 70
0
  9
$USERI3
 70
0
  9
$USERI4
 70
0
  9
$USERI5
 70
0
  9
$USERR1
 40
0
  9
$USERR2
 40
0
  9
$USERR3
 40
0
  9
$USERR4
 40
0
  9
$USERR5
 40
0
  9
$WORLDVIEW
 70
1
  9
$SHADEDGE
 70
3
  9
$SHADEDIF
 70
70
  9
$TILEMODE
 70
1
  9
$MAXACTVP
 70
64
  9
$PINSBASE
 10
0
 20
0
 30
0
  9
$PLIMCHECK
 70
0
  9
$PEXTMIN
 10
0
 20
0
 30
0
  9
$PEXTMAX
 10
0
 20
0
 30
0
  9
$PLIMMAX
 10
12
 20
9
  9
$PLIMMIN
 10
0
 20
0
  9
$UNITMODE
 70
0
  9
$VISRETAIN
 70
1
  9
$PLINEGEN
 70
0
  9
$PSLTSCALE
 70
1
  9
$TREEDEPTH
 70
3020
  9
$CMLSTYLE
  2
STANDARD
  9
$CMLJUST
 70
0
  9
$CMLSCALE
 40
1
  9
$PROXYGRAPHICS
 70
1
  9
$MEASUREMENT
 70
0
  9
$CELWEIGHT
370
-1
  9
$ENDCAPS
280
0
  9
$JOINSTYLE
280
0
  9
$LWDISPLAY
290
0
  9
$INSUNITS
 70
1
  9
$HYPERLINKBASE
  1

  9
$XEDIT
290
1
  9
$CEPSNTYPE
380
0
  9
$PSTYLEMODE
290
1
  9
$FINGERPRINTGUID
  2
{12BA4CBD-A287-435E-8CFD-060D7BBD3581}
  9
$VERSIONGUID
  2
{C6FDE702-087D-434B-BAE3-960C1F8B0E7F}
  9
$EXTNAMES
290
1
  9
$PSVPSCALE
 40
0
  9
$CSHADOW
280
0
  9
$SHADOWPLANELOCATION
 40
0
  9
$SORTENTS
280
127
  9
$INDEXCTL
280
0
  9
$XCLIPFRAME
290
0
  9
$HALOGAP
280
0
  9
$OBSCOLOR
 70
0
  9
$OBSLTYPE
280
0
  9
$INTERSECTIONDISPLAY
280
0
  9
$INTERSECTIONCOLOR
 70
0
  9
$DIMASSOC
280
2
  9
$PROJECTNAME
  1

  9
$INTERFERECOLOR
 62
1
  9
$DIMLTYPE
  6

  9
$DIMLTEX1
  6

  9
$DIMLTEX2
  6

  9
$STYLESHEET
  1

  9
$OLESTARTUP
290
     0
  9
$HIDETEXT
280
     1
  9
$CAMERADISPLAY
290
     0
  9
$LENSLENGTH
 40
50.0
  9
$CAMERAHEIGHT
 40
0.0
  9
$STEPSPERSEC
 40
2.0
  9
$STEPSIZE
 40
6.0
  9
$3DDWFPREC
 40
2.0
  9
$PSOLWIDTH
 40
0.25
  9
$PSOLHEIGHT
 40
4.0
  9
$LOFTANG1
 40
1.570796326794896
  9
$LOFTANG2
 40
1.570796326794896
  9
$LOFTMAG1
 40
0.0
  9
$LOFTMAG2
 40
0.0
  9
$LOFTPARAM
 70
     7
  9
$LOFTNORMALS
280
     1
  9
$LATITUDE
 40
0.0
  9
$LONGITUDE
 40
0.0
  9
$NORTHDIRECTION
 40
0.0
  9
$TIMEZONE
 70
 -8000
  9
$LIGHTGLYPHDISPLAY
280
     1
  9
$TILEMODELIGHTSYNCH
280
     1
  9
$SOLIDHIST
280
     1
  9
$SHOWHIST
280
     1
  9
$DWFFRAME
280
     2
  9
$DGNFRAME
280
     0
  9
$REALWORLDSCALE
290
     1
  0
ENDSEC
  0
SECTION
  2
CLASSES
  0
CLASS
  1
ACDBDICTIONARYWDFLT
  2
AcDbDictionaryWithDefault
  3
ObjectDBX Classes
 90
0
 91
1
280
0
281
0
  0
CLASS
  1
DICTIONARYVAR
  2
AcDbDictionaryVar
  3
ObjectDBX Classes
 90
0
 91
1
280
0
281
0
  0
CLASS
  1
TABLESTYLE
  2
AcDbTableStyle
  3
ObjectDBX Classes
 90
2047
 91
1
280
0
281
0
  0
CLASS
  1
SORTENTSTABLE
  2
AcDbSortentsTable
  3
ObjectDBX Classes
 90
0
 91
1
280
0
281
0
  0
CLASS
  1
DIMASSOC
  2
AcDbDimAssoc
  3
"AcDbDimAssoc|Product Desc:     AcDim ARX App For Dimension|Company:          Autodesk, Inc.|WEB Address:      www.autodesk.com"
 90
0
 91
1
280
0
281
0
  0
CLASS
  1
MATERIAL
  2
AcDbMaterial
  3
ObjectDBX Classes
 90
0
 91
1
280
0
281
0
  0
CLASS
  1
VISUALSTYLE
  2
AcDbVisualStyle
  3
ObjectDBX Classes
 90
4095
 91
1
280
0
281
0
  0
CLASS
  1
MLEADERSTYLE
  2
AcDbMLeaderStyle
  3
ACDB_MLEADERSTYLE_CLASS
 90
4095
 91
1
280
0
281
0
  0
CLASS
  1
SCALE
  2
AcDbScale
  3
ObjectDBX Classes
 90
1153
 91
1
280
0
281
0
  0
CLASS
  1
CELLSTYLEMAP
  2
AcDbCellStyleMap
  3
ObjectDBX Classes
 90
1152
 91
1
280
0
281
0
  0
CLASS
  1
ACIDBLOCKREFERENCE
  2
AcIdBlockReference
  3
AcIdViewObj|Product: Inventor Drawing Enabler|Company: Autodesk|Website: www.autodesk.com
 90
1
 91
1
280
0
281
1
  0
CLASS
  1
RASTERVARIABLES
  2
AcDbRasterVariables
  3
ISM
 90
0
 91
1
280
0
281
0
  0
CLASS
  1
IMAGEDEF
  2
AcDbRasterImageDef
  3
ISM
 90
0
 91
1
280
0
281
0
  0
CLASS
  1
IMAGEDEF_REACTOR
  2
AcDbRasterImageDefReactor
  3
ISM
 90
1
 91
1
280
0
281
0
  0
CLASS
  1
IMAGE
  2
AcDbRasterImage
  3
ISM
 90
127
 91
1
280
0
281
1
  0
CLASS
  1
ACAD_EVALUATION_GRAPH
  2
AcDbEvalGraph
  3
ObjectDBX Classes
 90
1153
 91
1
280
0
281
0
  0
CLASS
  1
BLOCKPOINTPARAMETER
  2
AcDbBlockPointParameter
  3
ObjectDBX Classes
 90
1153
 91
1
280
0
281
0
  0
CLASS
  1
BLOCKBASEPOINTPARAMETER
  2
AcDbBlockBasepointParameter
  3
ObjectDBX Classes
 90
1153
 91
1
280
0
281
0
  0
CLASS
  1
BLOCKLOOKUPPARAMETER
  2
AcDbBlockLookupParameter
  3
ObjectDBX Classes
 90
1153
 91
1
280
0
281
0
  0
CLASS
  1
BLOCKVISIBILITYPARAMETER
  2
AcDbBlockVisibilityParameter
  3
ObjectDBX Classes
 90
1153
 91
1
280
0
281
0
  0
CLASS
  1
BLOCKPROPERTIESTABLE
  2
AcDbBlockPropertiesTable
  3
ObjectDBX Classes
 90
1153
 91
1
280
0
281
0
  0
CLASS
  1
BLOCKPOLARPARAMETER
  2
AcDbBlockPolarParameter
  3
ObjectDBX Classes
 90
1153
 91
1
280
0
281
0
  0
CLASS
  1
BLOCKROTATIONPARAMETER
  2
AcDbBlockRotationParameter
  3
ObjectDBX Classes
 90
1153
 91
1
280
0
281
0
  0
CLASS
  1
BLOCKLINEARPARAMETER
  2
AcDbBlockLinearParameter
  3
ObjectDBX Classes
 90
1153
 91
1
280
0
281
0
  0
CLASS
  1
BLOCKXYPARAMETER
  2
AcDbBlockXYParameter
  3
ObjectDBX Classes
 90
1153
 91
1
280
0
281
0
  0
CLASS
  1
BLOCKFLIPPARAMETER
  2
AcDbBlockFlipParameter
  3
ObjectDBX Classes
 90
1153
 91
1
280
0
281
0
  0
CLASS
  1
BLOCKALIGNMENTPARAMETER
  2
AcDbBlockAlignmentParameter
  3
ObjectDBX Classes
 90
1153
 91
1
280
0
281
0
  0
CLASS
  1
BLOCKROTATEACTION
  2
AcDbBlockRotateAction
  3
ObjectDBX Classes
 90
1153
 91
1
280
0
281
0
  0
CLASS
  1
BLOCKSCALEACTION
  2
AcDbBlockScaleAction
  3
ObjectDBX Classes
 90
1153
 91
1
280
0
281
0
  0
CLASS
  1
BLOCKARRAYACTION
  2
AcDbBlockArrayAction
  3
ObjectDBX Classes
 90
1153
 91
1
280
0
281
0
  0
CLASS
  1
BLOCKFLIPACTION
  2
AcDbBlockFlipAction
  3
ObjectDBX Classes
 90
1153
 91
1
280
0
281
0
  0
CLASS
  1
BLOCKLOOKUPACTION
  2
AcDbBlockLookupAction
  3
ObjectDBX Classes
 90
1153
 91
1
280
0
281
0
  0
CLASS
  1
BLOCKMOVEACTION
  2
AcDbBlockMoveAction
  3
ObjectDBX Classes
 90
1153
 91
1
280
0
281
0
  0
CLASS
  1
BLOCKPOLARSTRETCHACTION
  2
AcDbBlockPolarStretchAction
  3
ObjectDBX Classes
 90
1153
 91
1
280
0
281
0
  0
CLASS
  1
BLOCKSTRETCHACTION
  2
AcDbBlockStretchAction
  3
ObjectDBX Classes
 90
1153
 91
1
280
0
281
0
  0
CLASS
  1
BLOCKALIGNMENTGRIP
  2
AcDbBlockAlignmentGrip
  3
ObjectDBX Classes
 90
1153
 91
1
280
0
281
0
  0
CLASS
  1
BLOCKFLIPGRIP
  2
AcDbBlockFlipGrip
  3
ObjectDBX Classes
 90
1153
 91
1
280
0
281
0
  0
CLASS
  1
ACDB_BLOCKREPRESENTATION_DATA
  2
AcDbBlockRepresentationData
  3
ObjectDBX Classes
 90
1153
 91
1
280
0
281
0
  0
CLASS
  1
ACDB_DYNAMICBLOCKPURGEPREVENTER_VERSION
  2
AcDbDynamicBlockPurgePreventer
  3
ObjectDBX Classes
 90
1153
 91
1
280
0
281
0
  0
CLASS
  1
BLOCKLINEARGRIP
  2
AcDbBlockLinearGrip
  3
ObjectDBX Classes
 90
1153
 91
1
280
0
281
0
  0
CLASS
  1
BLOCKLOOKUPGRIP
  2
AcDbBlockLookupGrip
  3
ObjectDBX Classes
 90
1153
 91
1
280
0
281
0
  0
CLASS
  1
BLOCKPOLARGRIP
  2
AcDbBlockPolarGrip
  3
ObjectDBX Classes
 90
1153
 91
1
280
0
281
0
  0
CLASS
  1
BLOCKPROPERTIESTABLEGRIP
  2
AcDbBlockPropertiesTableGrip
  3
ObjectDBX Classes
 90
1153
 91
1
280
0
281
0
  0
CLASS
  1
BLOCKROTATIONGRIP
  2
AcDbBlockRotationGrip
  3
ObjectDBX Classes
 90
1153
 91
1
280
0
281
0
  0
CLASS
  1
BLOCKVISIBILITYGRIP
  2
AcDbBlockVisibilityGrip
  3
ObjectDBX Classes
 90
1153
 91
1
280
0
281
0
  0
CLASS
  1
BLOCKXYGRIP
  2
AcDbBlockXYGrip
  3
ObjectDBX Classes
 90
1153
 91
1
280
0
281
0
  0
CLASS
  1
BLOCKGRIPLOCATIONCOMPONENT
  2
AcDbBlockGripExpr
  3
ObjectDBX Classes
 90
1153
 91
1
280
0
281
0
  0
CLASS
  1
ACDB_DYNAMICBLOCKPROXYNODE
  2
AcDbDynamicBlockProxyNode
  3
ObjectDBX Classes
 90
1153
 91
1
280
0
281
0
  0
ENDSEC
  0
SECTION
  2
TABLES
  0
TABLE
  2
VPORT
  5
8
330
0
100
AcDbSymbolTable
 70
1
  0
VPORT
  5
D3
330
8
100
AcDbSymbolTableRecord
100
AcDbViewportTableRecord
  2
*Active
 70
0
 10
0
 20
0
 11
1
 21
1
 12
-300.5719594636243
 22
741.1147566414
 13
0
 23
0
 14
0.5
 24
0.5
 15
0.5
 25
0.5
 16
0
 26
0
 36
1
 17
0
 27
0
 37
0
 40
133.78904532956241
 41
2.9217002237136458
 42
50
 43
0
 44
0
 50
0
 51
0
 71
0
 72
1000
 73
1
 74
0
 75
0
 76
0
 77
0
 78
0
281
0
 65
1
110
0
120
0
130
0
111
1
121
0
131
0
112
0
122
1
132
0
 79
0
146
0
 60
3
 61
5
292
1
282
1
141
0
142
0
 63
250
  0
ENDTAB
  0
TABLE
  2
LTYPE
  5
5
100
AcDbSymbolTable
 70
3
  0
LTYPE
  5
14
330
5
100
AcDbSymbolTableRecord
100
AcDbLinetypeTableRecord
  2
ByBlock
  3

 70
0
 72
65
 73
0
 40
0
  0
LTYPE
  5
15
330
5
100
AcDbSymbolTableRecord
100
AcDbLinetypeTableRecord
  2
ByLayer
  3

 70
0
 72
65
 73
0
 40
0
  0
LTYPE
  5
16
330
5
100
AcDbSymbolTableRecord
100
AcDbLinetypeTableRecord
  2
Continuous
  3
Solid line
 70
0
 72
65
 73
0
 40
0
  0
ENDTAB
  0
TABLE
  2
LAYER
  5
2
100
AcDbSymbolTable
 70
5
  0
LAYER
  5
10
330
2
100
AcDbSymbolTableRecord
100
AcDbLayerTableRecord
 70
0
  2
0
 62
7
  6
Continuous
370
-3
390
F
  0
LAYER
  5
27
330
2
100
AcDbSymbolTableRecord
100
AcDbLayerTableRecord
 70
0
  2
Defpoints
 62
151
  6
Continuous
290
0
370
-3
390
F
  0
LAYER
  5
28
330
2
100
AcDbSymbolTableRecord
100
AcDbLayerTableRecord
 70
64
  2
LaserCutting
 62
3
  6
Continuous
370
-3
390
F
  0
LAYER
  5
29
330
2
100
AcDbSymbolTableRecord
100
AcDbLayerTableRecord
 70
64
  2
Marking
 62
6
  6
Continuous
370
-3
390
F
  0
LAYER
  5
2A
330
2
100
AcDbSymbolTableRecord
100
AcDbLayerTableRecord
 70
64
  2
Dimention
 62
9
  6
Continuous
370
-3
390
F
  0
ENDTAB
  0
TABLE
  2
STYLE
  5
3
100
AcDbSymbolTable
 70
1
  0
STYLE
  5
11
330
3
100
AcDbSymbolTableRecord
100
AcDbTextStyleTableRecord
  2
Standard
 70
0
 40
0
 41
1
 50
0
 71
0
 42
0.2
  3
txt
  0
ENDTAB
  0
TABLE
  2
VIEW
  5
6
100
AcDbSymbolTable
 70
0
  0
ENDTAB
  0
TABLE
  2
UCS
  5
7
100
AcDbSymbolTable
 70
0
  0
ENDTAB
  0
TABLE
  2
APPID
  5
9
330
0
100
AcDbSymbolTable
 70
12
  0
APPID
  5
12
330
0
100
AcDbSymbolTableRecord
100
AcDbRegAppTableRecord
  2
ACAD
 70
0
  0
APPID
  5
FD
330
0
100
AcDbSymbolTableRecord
100
AcDbRegAppTableRecord
  2
ACAD_DSTYLE_DIMTEXT_FILL
 70
0
  0
APPID
  5
FE
330
0
100
AcDbSymbolTableRecord
100
AcDbRegAppTableRecord
  2
ACAD_DSTYLE_DIMEXT_LENGTH
 70
0
  0
APPID
  5
FF
330
0
100
AcDbSymbolTableRecord
100
AcDbRegAppTableRecord
  2
ACAD_DSTYLE_DIMEXT_ENABLED
 70
0
  0
APPID
  5
100
330
0
100
AcDbSymbolTableRecord
100
AcDbRegAppTableRecord
  2
ACAD_DSTYLE_DIM_LINETYPE
 70
0
  0
APPID
  5
101
330
0
100
AcDbSymbolTableRecord
100
AcDbRegAppTableRecord
  2
ACAD_DSTYLE_DIM_EXT1_LINETYPE
 70
0
  0
APPID
  5
102
330
0
100
AcDbSymbolTableRecord
100
AcDbRegAppTableRecord
  2
ACAD_DSTYLE_DIM_EXT2_LINETYPE
 70
0
  0
APPID
  5
103
330
0
100
AcDbSymbolTableRecord
100
AcDbRegAppTableRecord
  2
ACAD_DSTYLE_DIMJOGGED_JOGANGLE_SYMBOL
 70
0
  0
APPID
  5
104
330
0
100
AcDbSymbolTableRecord
100
AcDbRegAppTableRecord
  2
ACAD_DSTYLE_DIMARC_LENGTH_SYMBOL
 70
0
  0
APPID
  5
105
330
0
100
AcDbSymbolTableRecord
100
AcDbRegAppTableRecord
  2
ACAD_EXEMPT_FROM_CAD_STANDARDS
 70
0
  0
APPID
  5
106
330
0
100
AcDbSymbolTableRecord
100
AcDbRegAppTableRecord
  2
ACAD_MLEADERVER
 70
0
  0
APPID
  5
107
330
0
100
AcDbSymbolTableRecord
100
AcDbRegAppTableRecord
  2
AcadAnnotative
 70
64
  0
ENDTAB
  0
TABLE
  2
DIMSTYLE
  5
A
330
0
100
AcDbSymbolTable
 70
1
100
AcDbDimStyleTable
 71
0
  0
DIMSTYLE
105
D2
330
A
100
AcDbSymbolTableRecord
100
AcDbDimStyleTableRecord
  2
Standard
 70
0
  3

  4

 40
1
 41
5
 42
0.0625
 43
0.38
 44
0.18
 45
0
 46
0
 47
0
 48
0
 49
0.18
140
5
141
0.09
142
0
143
0.03937
144
1
145
0
146
1
147
0.09
148
0
 71
0
 72
0
 73
1
 74
1
 75
0
 76
0
 77
0
 78
0
 79
0
170
1
171
2
172
0
173
0
174
0
175
0
179
0
271
4
272
4
273
2
274
0
275
0
276
0
277
2
278
46
279
0
280
0
281
0
282
0
283
1
284
0
285
0
286
0
288
0
289
0
340
11
371
-2
372
-2
  0
ENDTAB
  0
TABLE
  2
BLOCK_RECORD
  5
1
330
0
100
AcDbSymbolTable
 70
3
  0
BLOCK_RECORD
  5
2B
102
{ACAD_XDICTIONARY
360
2C
102
}
330
1
100
AcDbSymbolTableRecord
100
AcDbBlockTableRecord
  2
*Model_Space
340
22
  0
BLOCK_RECORD
  5
1B
330
1
100
AcDbSymbolTableRecord
100
AcDbBlockTableRecord
  2
*Paper_Space
340
1E
  0
BLOCK_RECORD
  5
3F
330
1
100
AcDbSymbolTableRecord
100
AcDbBlockTableRecord
  2
*Paper_Space0
340
D5
  0
BLOCK_RECORD
  5
42
330
1
100
AcDbSymbolTableRecord
100
AcDbBlockTableRecord
  2
*D11
  0
BLOCK_RECORD
  5
4F
330
1
100
AcDbSymbolTableRecord
100
AcDbBlockTableRecord
  2
*D22
  0
BLOCK_RECORD
  5
5C
330
1
100
AcDbSymbolTableRecord
100
AcDbBlockTableRecord
  2
*D33
  0
BLOCK_RECORD
  5
6A
330
1
100
AcDbSymbolTableRecord
100
AcDbBlockTableRecord
  2
*D44
  0
BLOCK_RECORD
  5
77
330
1
100
AcDbSymbolTableRecord
100
AcDbBlockTableRecord
  2
*D55
  0
BLOCK_RECORD
  5
84
330
1
100
AcDbSymbolTableRecord
100
AcDbBlockTableRecord
  2
*D66
  0
BLOCK_RECORD
  5
91
330
1
100
AcDbSymbolTableRecord
100
AcDbBlockTableRecord
  2
*D77
  0
BLOCK_RECORD
  5
9E
330
1
100
AcDbSymbolTableRecord
100
AcDbBlockTableRecord
  2
*D88
  0
BLOCK_RECORD
  5
AB
330
1
100
AcDbSymbolTableRecord
100
AcDbBlockTableRecord
  2
*D99
  0
BLOCK_RECORD
  5
B8
330
1
100
AcDbSymbolTableRecord
100
AcDbBlockTableRecord
  2
*D1010
  0
BLOCK_RECORD
  5
C5
330
1
100
AcDbSymbolTableRecord
100
AcDbBlockTableRecord
  2
*D1111
  0
ENDTAB
  0
ENDSEC
  0
SECTION
  2
BLOCKS
  0
BLOCK
  5
2E
330
2B
100
AcDbEntity
  8
0
100
AcDbBlockBegin
  2
*Model_Space
 70
0
 10
0
 20
0
 30
0
  3
*Model_Space
  0
ENDBLK
  5
3E
330
2B
100
AcDbEntity
  8
0
100
AcDbBlockEnd
  0
BLOCK
  5
1C
330
1B
100
AcDbEntity
  8
0
 67
1
100
AcDbBlockBegin
  2
*Paper_Space
 70
0
 10
0
 20
0
 30
0
  3
*Paper_Space
  0
ENDBLK
  5
1D
330
1B
100
AcDbEntity
  8
0
100
AcDbBlockEnd
  0
BLOCK
  5
40
330
3F
100
AcDbEntity
  8
0
100
AcDbBlockBegin
  2
*Paper_Space0
 70
0
 10
0
 20
0
 30
0
  3
*Paper_Space0
  0
ENDBLK
  5
41
330
3F
100
AcDbEntity
  8
0
100
AcDbBlockEnd
  0
BLOCK
  5
43
330
42
100
AcDbEntity
  8
0
100
AcDbBlockBegin
  2
*D11
 70
1
 10
0
 20
0
 30
0
  3
*D11
  0
LINE
  5
44
330
42
100
AcDbEntity
  8
0
 62
0
370
-2
100
AcDbLine
 10
-376.77195946362508
 20
795.10607906528139
 30
0
 11
-376.77195946362508
 21
850.382268734763
 31
0
  0
LINE
  5
45
330
42
100
AcDbEntity
  8
0
 62
0
370
-2
100
AcDbLine
 10
-364.071959463623
 20
794.48575913843524
 30
0
 11
-364.071959463623
 21
850.382268734763
 31
0
  0
LINE
  5
46
330
42
100
AcDbEntity
  8
0
 62
0
370
-2
100
AcDbLine
 10
-371.77195946362508
 20
850.20226873476292
 30
0
 11
-369.071959463623
 21
850.20226873476292
 31
0
  0
LINE
  5
47
330
42
100
AcDbEntity
  8
0
 62
0
370
-2
100
AcDbLine
 10
-364.071959463623
 20
850.20226873476292
 30
0
 11
-359.071959463623
 21
850.20226873476292
 31
0
  0
SOLID
  5
48
330
42
100
AcDbEntity
  8
0
 62
0
100
AcDbTrace
 10
-371.77195946362508
 20
851.03560206809618
 30
0
 11
-371.77195946362508
 21
849.36893540142955
 31
0
 12
-376.77195946362508
 22
850.20226873476292
 32
0
 13
-376.77195946362508
 23
850.20226873476292
 33
0
  0
SOLID
  5
49
330
42
100
AcDbEntity
  8
0
 62
0
100
AcDbTrace
 10
-369.071959463623
 20
851.03560206809618
 30
0
 11
-369.071959463623
 21
849.36893540142955
 31
0
 12
-364.071959463623
 22
850.20226873476292
 32
0
 13
-364.071959463623
 23
850.20226873476292
 33
0
  0
MTEXT
  5
4A
330
42
100
AcDbEntity
  8
0
 62
0
100
AcDbMText
 10
-332.731959463623
 20
850.20226873476292
 30
0
 11
1
 21
0
 31
0
 40
5
 41
0
 46
0
 71
5
 72
1
  1
\A1;12.7000 [0.50]
  7
Standard
 73
1
 90
0
1001
ACAD
1000
MTEXTBEGIN
1070
73
1070
1
1070
44
1040
1
1070
74
1070
0
1000
MTEXTEND
  0
POINT
  5
4B
330
42
100
AcDbEntity
  8
Defpoints
 62
0
100
AcDbPoint
 10
-376.77195946362508
 20
795.04357906528139
 30
0
 50
0
  0
POINT
  5
4C
330
42
100
AcDbEntity
  8
Defpoints
 62
0
100
AcDbPoint
 10
-364.071959463623
 20
794.42325913843524
 30
0
 50
0
  0
POINT
  5
4D
330
42
100
AcDbEntity
  8
Defpoints
 62
0
100
AcDbPoint
 10
-364.071959463623
 20
850.20226873476292
 30
0
 50
0
  0
ENDBLK
  5
4E
330
42
100
AcDbEntity
  8
0
100
AcDbBlockEnd
  0
BLOCK
  5
50
330
4F
100
AcDbEntity
  8
0
100
AcDbBlockBegin
  2
*D22
 70
1
 10
0
 20
0
 30
0
  3
*D22
  0
LINE
  5
51
330
4F
100
AcDbEntity
  8
0
 62
0
370
-2
100
AcDbLine
 10
-364.071959463623
 20
761.211759138434
 30
0
 11
-364.071959463623
 21
826.19730551199712
 31
0
  0
LINE
  5
52
330
4F
100
AcDbEntity
  8
0
 62
0
370
-2
100
AcDbLine
 10
-348.196959463623
 20
761.211759138434
 30
0
 11
-348.196959463623
 21
826.19730551199712
 31
0
  0
LINE
  5
53
330
4F
100
AcDbEntity
  8
0
 62
0
370
-2
100
AcDbLine
 10
-359.071959463623
 20
826.01730551199716
 30
0
 11
-353.196959463623
 21
826.01730551199716
 31
0
  0
LINE
  5
54
330
4F
100
AcDbEntity
  8
0
 62
0
370
-2
100
AcDbLine
 10
-348.196959463623
 20
826.01730551199716
 30
0
 11
-343.196959463623
 21
826.01730551199716
 31
0
  0
SOLID
  5
55
330
4F
100
AcDbEntity
  8
0
 62
0
100
AcDbTrace
 10
-359.071959463623
 20
826.85063884533054
 30
0
 11
-359.071959463623
 21
825.18397217866368
 31
0
 12
-364.071959463623
 22
826.01730551199716
 32
0
 13
-364.071959463623
 23
826.01730551199716
 33
0
  0
SOLID
  5
56
330
4F
100
AcDbEntity
  8
0
 62
0
100
AcDbTrace
 10
-353.196959463623
 20
826.85063884533054
 30
0
 11
-353.196959463623
 21
825.18397217866368
 31
0
 12
-348.196959463623
 22
826.01730551199716
 32
0
 13
-348.196959463623
 23
826.01730551199716
 33
0
  0
MTEXT
  5
57
330
4F
100
AcDbEntity
  8
0
 62
0
100
AcDbMText
 10
-315.606959463623
 20
826.01730551199716
 30
0
 11
1
 21
0
 31
0
 40
5
 41
0
 46
0
 71
5
 72
1
  1
\A1;15.8750 [0.62]
  7
Standard
 73
1
 90
0
1001
ACAD
1000
MTEXTBEGIN
1070
73
1070
1
1070
44
1040
1
1070
74
1070
0
1000
MTEXTEND
  0
POINT
  5
58
330
4F
100
AcDbEntity
  8
Defpoints
 62
0
100
AcDbPoint
 10
-364.071959463623
 20
761.14925913843365
 30
0
 50
0
  0
POINT
  5
59
330
4F
100
AcDbEntity
  8
Defpoints
 62
0
100
AcDbPoint
 10
-348.196959463623
 20
761.14925913843365
 30
0
 50
0
  0
POINT
  5
5A
330
4F
100
AcDbEntity
  8
Defpoints
 62
0
100
AcDbPoint
 10
-348.196959463623
 20
826.01730551199716
 30
0
 50
0
  0
ENDBLK
  5
5B
330
4F
100
AcDbEntity
  8
0
100
AcDbBlockEnd
  0
BLOCK
  5
5D
330
5C
100
AcDbEntity
  8
0
100
AcDbBlockBegin
  2
*D33
 70
1
 10
0
 20
0
 30
0
  3
*D33
  0
LINE
  5
5E
330
5C
100
AcDbEntity
  8
0
 62
0
370
-2
100
AcDbLine
 10
-372.00845946362472
 20
807.12325913843506
 30
0
 11
-424.08413947674723
 21
807.12325913843506
 31
0
  0
LINE
  5
5F
330
5C
100
AcDbEntity
  8
0
 62
0
370
-2
100
AcDbLine
 10
-364.134459463623
 20
794.48575913843524
 30
0
 11
-424.08413947674723
 21
794.48575913843524
 31
0
  0
LINE
  5
60
330
5C
100
AcDbEntity
  8
0
 62
0
370
-2
100
AcDbLine
 10
-423.90413947674728
 20
802.123259138435
 30
0
 11
-423.90413947674728
 21
799.48575913843524
 31
0
  0
LINE
  5
61
330
5C
100
AcDbEntity
  8
0
 62
0
370
-2
100
AcDbLine
 10
-423.90413947674728
 20
794.48575913843524
 30
0
 11
-423.90413947674728
 21
789.48575913843524
 31
0
  0
LINE
  5
62
330
5C
100
AcDbEntity
  8
0
 62
0
370
-2
100
AcDbLine
 10
-423.90413947674728
 20
789.48575913843524
 30
0
 11
-428.90413947674728
 21
789.48575913843524
 31
0
  0
SOLID
  5
63
330
5C
100
AcDbEntity
  8
0
 62
0
100
AcDbTrace
 10
-424.73747281008059
 20
802.123259138435
 30
0
 11
-423.070806143414
 21
802.123259138435
 31
0
 12
-423.90413947674728
 22
807.12325913843506
 32
0
 13
-423.90413947674728
 23
807.12325913843506
 33
0
  0
SOLID
  5
64
330
5C
100
AcDbEntity
  8
0
 62
0
100
AcDbTrace
 10
-424.73747281008059
 20
799.48575913843524
 30
0
 11
-423.070806143414
 21
799.48575913843524
 31
0
 12
-423.90413947674728
 22
794.48575913843524
 32
0
 13
-423.90413947674728
 23
794.48575913843524
 33
0
  0
MTEXT
  5
65
330
5C
100
AcDbEntity
  8
0
 62
0
100
AcDbMText
 10
-456.49413947674731
 20
789.485759138435
 30
0
 11
1
 21
0
 31
0
 40
5
 41
0
 46
0
 71
5
 72
1
  1
\A1;12.6375 [0.50]
  7
Standard
 73
1
 90
0
1001
ACAD
1000
MTEXTBEGIN
1070
73
1070
1
1070
44
1040
1
1070
74
1070
0
1000
MTEXTEND
  0
POINT
  5
66
330
5C
100
AcDbEntity
  8
Defpoints
 62
0
100
AcDbPoint
 10
-371.9459594636246
 20
807.12325913843506
 30
0
 50
0
  0
POINT
  5
67
330
5C
100
AcDbEntity
  8
Defpoints
 62
0
100
AcDbPoint
 10
-364.071959463623
 20
794.48575913843524
 30
0
 50
0
  0
POINT
  5
68
330
5C
100
AcDbEntity
  8
Defpoints
 62
0
100
AcDbPoint
 10
-423.90413947674728
 20
794.48575913843524
 30
0
 50
0
  0
ENDBLK
  5
69
330
5C
100
AcDbEntity
  8
0
100
AcDbBlockEnd
  0
BLOCK
  5
6B
330
6A
100
AcDbEntity
  8
0
100
AcDbBlockBegin
  2
*D44
 70
1
 10
0
 20
0
 30
0
  3
*D44
  0
LINE
  5
6C
330
6A
100
AcDbEntity
  8
0
 62
0
370
-2
100
AcDbLine
 10
-364.134459463623
 20
794.48575913843524
 30
0
 11
-426.82874431643779
 21
794.48575913843524
 31
0
  0
LINE
  5
6D
330
6A
100
AcDbEntity
  8
0
 62
0
370
-2
100
AcDbLine
 10
-364.134459463623
 20
761.211759138434
 30
0
 11
-426.82874431643779
 21
761.211759138434
 31
0
  0
LINE
  5
6E
330
6A
100
AcDbEntity
  8
0
 62
0
370
-2
100
AcDbLine
 10
-426.64874431643779
 20
789.48575913843524
 30
0
 11
-426.64874431643779
 21
780.43875913843465
 31
0
  0
LINE
  5
6F
330
6A
100
AcDbEntity
  8
0
 62
0
370
-2
100
AcDbLine
 10
-426.64874431643779
 20
766.211759138434
 30
0
 11
-426.64874431643779
 21
775.25875913843458
 31
0
  0
SOLID
  5
70
330
6A
100
AcDbEntity
  8
0
 62
0
100
AcDbTrace
 10
-427.4820776497711
 20
789.48575913843524
 30
0
 11
-425.81541098310441
 21
789.48575913843524
 31
0
 12
-426.64874431643779
 22
794.48575913843524
 32
0
 13
-426.64874431643779
 23
794.48575913843524
 33
0
  0
SOLID
  5
71
330
6A
100
AcDbEntity
  8
0
 62
0
100
AcDbTrace
 10
-427.4820776497711
 20
766.211759138434
 30
0
 11
-425.81541098310441
 21
766.211759138434
 31
0
 12
-426.64874431643779
 22
761.211759138434
 32
0
 13
-426.64874431643779
 23
761.211759138434
 33
0
  0
MTEXT
  5
72
330
6A
100
AcDbEntity
  8
0
 62
0
100
AcDbMText
 10
-426.64874431643779
 20
777.8487591384345
 30
0
 11
1
 21
0
 31
0
 40
5
 41
0
 46
0
 71
5
 72
1
  1
\A1;33.2740 [1.31]
  7
Standard
 73
1
 90
0
1001
ACAD
1000
MTEXTBEGIN
1070
73
1070
1
1070
44
1040
1
1070
74
1070
0
1000
MTEXTEND
  0
POINT
  5
73
330
6A
100
AcDbEntity
  8
Defpoints
 62
0
100
AcDbPoint
 10
-364.071959463623
 20
794.48575913843524
 30
0
 50
0
  0
POINT
  5
74
330
6A
100
AcDbEntity
  8
Defpoints
 62
0
100
AcDbPoint
 10
-364.071959463623
 20
761.211759138434
 30
0
 50
0
  0
POINT
  5
75
330
6A
100
AcDbEntity
  8
Defpoints
 62
0
100
AcDbPoint
 10
-426.64874431643779
 20
761.211759138434
 30
0
 50
0
  0
ENDBLK
  5
76
330
6A
100
AcDbEntity
  8
0
100
AcDbBlockEnd
  0
BLOCK
  5
78
330
77
100
AcDbEntity
  8
0
100
AcDbBlockBegin
  2
*D55
 70
1
 10
0
 20
0
 30
0
  3
*D55
  0
LINE
  5
79
330
77
100
AcDbEntity
  8
0
 62
0
370
-2
100
AcDbLine
 10
-224.37195946362411
 20
775.43575913843415
 30
0
 11
-224.37195946362411
 21
864.82705394082416
 31
0
  0
LINE
  5
7A
330
77
100
AcDbEntity
  8
0
 62
0
370
-2
100
AcDbLine
 10
-240.3739594636227
 20
775.43575913843233
 30
0
 11
-240.3739594636227
 21
864.82705394082416
 31
0
  0
LINE
  5
7B
330
77
100
AcDbEntity
  8
0
 62
0
370
-2
100
AcDbLine
 10
-229.37195946362411
 20
864.64705394082409
 30
0
 11
-235.3739594636227
 21
864.64705394082409
 31
0
  0
LINE
  5
7C
330
77
100
AcDbEntity
  8
0
 62
0
370
-2
100
AcDbLine
 10
-240.3739594636227
 20
864.64705394082409
 30
0
 11
-245.3739594636227
 21
864.64705394082409
 31
0
  0
SOLID
  5
7D
330
77
100
AcDbEntity
  8
0
 62
0
100
AcDbTrace
 10
-229.37195946362411
 20
865.48038727415758
 30
0
 11
-229.37195946362411
 21
863.81372060749061
 31
0
 12
-224.37195946362411
 22
864.64705394082409
 32
0
 13
-224.37195946362411
 23
864.64705394082409
 33
0
  0
SOLID
  5
7E
330
77
100
AcDbEntity
  8
0
 62
0
100
AcDbTrace
 10
-235.3739594636227
 20
865.48038727415758
 30
0
 11
-235.3739594636227
 21
863.81372060749061
 31
0
 12
-240.3739594636227
 22
864.64705394082409
 32
0
 13
-240.3739594636227
 23
864.64705394082409
 33
0
  0
MTEXT
  5
7F
330
77
100
AcDbEntity
  8
0
 62
0
100
AcDbMText
 10
-272.13062613028927
 20
864.64705394082409
 30
0
 11
1
 21
0
 31
0
 40
5
 41
0
 46
0
 71
5
 72
1
  1
\A1;16.0020 [0.63]
  7
Standard
 73
1
 90
0
1001
ACAD
1000
MTEXTBEGIN
1070
73
1070
1
1070
44
1040
1
1070
74
1070
0
1000
MTEXTEND
  0
POINT
  5
80
330
77
100
AcDbEntity
  8
Defpoints
 62
0
100
AcDbPoint
 10
-224.37195946362411
 20
775.37325913843415
 30
0
 50
0
  0
POINT
  5
81
330
77
100
AcDbEntity
  8
Defpoints
 62
0
100
AcDbPoint
 10
-240.3739594636227
 20
775.37325913843233
 30
0
 50
0
  0
POINT
  5
82
330
77
100
AcDbEntity
  8
Defpoints
 62
0
100
AcDbPoint
 10
-240.3739594636227
 20
864.64705394082409
 30
0
 50
0
  0
ENDBLK
  5
83
330
77
100
AcDbEntity
  8
0
100
AcDbBlockEnd
  0
BLOCK
  5
85
330
84
100
AcDbEntity
  8
0
100
AcDbBlockBegin
  2
*D66
 70
1
 10
0
 20
0
 30
0
  3
*D66
  0
LINE
  5
86
330
84
100
AcDbEntity
  8
0
 62
0
370
-2
100
AcDbLine
 10
-240.3114594636227
 20
807.12325913843256
 30
0
 11
-171.49537189419539
 21
807.12325913843256
 31
0
  0
LINE
  5
87
330
84
100
AcDbEntity
  8
0
 62
0
370
-2
100
AcDbLine
 10
-240.3114594636227
 20
775.43575913843233
 30
0
 11
-171.49537189419539
 21
775.43575913843233
 31
0
  0
LINE
  5
88
330
84
100
AcDbEntity
  8
0
 62
0
370
-2
100
AcDbLine
 10
-171.67537189419539
 20
802.12325913843267
 30
0
 11
-171.67537189419539
 21
793.86950913843248
 31
0
  0
LINE
  5
89
330
84
100
AcDbEntity
  8
0
 62
0
370
-2
100
AcDbLine
 10
-171.67537189419539
 20
780.43575913843233
 30
0
 11
-171.67537189419539
 21
788.6895091384323
 31
0
  0
SOLID
  5
8A
330
84
100
AcDbEntity
  8
0
 62
0
100
AcDbTrace
 10
-172.50870522752879
 20
802.12325913843267
 30
0
 11
-170.84203856086211
 21
802.12325913843267
 31
0
 12
-171.67537189419539
 22
807.12325913843256
 32
0
 13
-171.67537189419539
 23
807.12325913843256
 33
0
  0
SOLID
  5
8B
330
84
100
AcDbEntity
  8
0
 62
0
100
AcDbTrace
 10
-172.50870522752879
 20
780.43575913843233
 30
0
 11
-170.84203856086211
 21
780.43575913843233
 31
0
 12
-171.67537189419539
 22
775.43575913843233
 32
0
 13
-171.67537189419539
 23
775.43575913843233
 33
0
  0
MTEXT
  5
8C
330
84
100
AcDbEntity
  8
0
 62
0
100
AcDbMText
 10
-171.67537189419551
 20
791.27950913843245
 30
0
 11
1
 21
0
 31
0
 40
5
 41
0
 46
0
 71
5
 72
1
  1
\A1;31.6875 [1.25]
  7
Standard
 73
1
 90
0
1001
ACAD
1000
MTEXTBEGIN
1070
73
1070
1
1070
44
1040
1
1070
74
1070
0
1000
MTEXTEND
  0
POINT
  5
8D
330
84
100
AcDbEntity
  8
Defpoints
 62
0
100
AcDbPoint
 10
-240.3739594636227
 20
807.12325913843256
 30
0
 50
0
  0
POINT
  5
8E
330
84
100
AcDbEntity
  8
Defpoints
 62
0
100
AcDbPoint
 10
-240.3739594636227
 20
775.43575913843233
 30
0
 50
0
  0
POINT
  5
8F
330
84
100
AcDbEntity
  8
Defpoints
 62
0
100
AcDbPoint
 10
-171.67537189419539
 20
775.43575913843233
 30
0
 50
0
  0
ENDBLK
  5
90
330
84
100
AcDbEntity
  8
0
100
AcDbBlockEnd
  0
BLOCK
  5
92
330
91
100
AcDbEntity
  8
0
100
AcDbBlockBegin
  2
*D77
 70
1
 10
0
 20
0
 30
0
  3
*D77
  0
LINE
  5
93
330
91
100
AcDbEntity
  8
0
 62
0
370
-2
100
AcDbLine
 10
-240.3739594636227
 20
775.31075913843233
 30
0
 11
-240.3739594636227
 21
731.37734704952425
 31
0
  0
LINE
  5
94
330
91
100
AcDbEntity
  8
0
 62
0
370
-2
100
AcDbLine
 10
-297.52395946362412
 20
775.31075913843233
 30
0
 11
-297.52395946362412
 21
731.37734704952425
 31
0
  0
LINE
  5
95
330
91
100
AcDbEntity
  8
0
 62
0
370
-2
100
AcDbLine
 10
-235.3739594636227
 20
731.5573470495242
 30
0
 11
-230.3739594636227
 21
731.5573470495242
 31
0
  0
LINE
  5
96
330
91
100
AcDbEntity
  8
0
 62
0
370
-2
100
AcDbLine
 10
-302.52395946362412
 20
731.5573470495242
 30
0
 11
-307.52395946362412
 21
731.5573470495242
 31
0
  0
SOLID
  5
97
330
91
100
AcDbEntity
  8
0
 62
0
100
AcDbTrace
 10
-235.3739594636227
 20
732.39068038285768
 30
0
 11
-235.3739594636227
 21
730.72401371619083
 31
0
 12
-240.3739594636227
 22
731.5573470495242
 32
0
 13
-240.3739594636227
 23
731.5573470495242
 33
0
  0
SOLID
  5
98
330
91
100
AcDbEntity
  8
0
 62
0
100
AcDbTrace
 10
-302.52395946362412
 20
732.39068038285768
 30
0
 11
-302.52395946362412
 21
730.72401371619083
 31
0
 12
-297.52395946362412
 22
731.5573470495242
 32
0
 13
-297.52395946362412
 23
731.5573470495242
 33
0
  0
MTEXT
  5
99
330
91
100
AcDbEntity
  8
0
 62
0
100
AcDbMText
 10
-268.9489594636234
 20
731.5573470495242
 30
0
 11
1
 21
0
 31
0
 40
5
 41
0
 46
0
 71
5
 72
1
  1
\A1;57.1500 [2.25]
  7
Standard
 73
1
 90
0
1001
ACAD
1000
MTEXTBEGIN
1070
73
1070
1
1070
44
1040
1
1070
74
1070
0
1000
MTEXTEND
  0
POINT
  5
9A
330
91
100
AcDbEntity
  8
Defpoints
 62
0
100
AcDbPoint
 10
-240.3739594636227
 20
775.37325913843233
 30
0
 50
0
  0
POINT
  5
9B
330
91
100
AcDbEntity
  8
Defpoints
 62
0
100
AcDbPoint
 10
-297.52395946362412
 20
775.37325913843233
 30
0
 50
0
  0
POINT
  5
9C
330
91
100
AcDbEntity
  8
Defpoints
 62
0
100
AcDbPoint
 10
-297.52395946362412
 20
731.5573470495242
 30
0
 50
0
  0
ENDBLK
  5
9D
330
91
100
AcDbEntity
  8
0
100
AcDbBlockEnd
  0
BLOCK
  5
9F
330
9E
100
AcDbEntity
  8
0
100
AcDbBlockBegin
  2
*D88
 70
1
 10
0
 20
0
 30
0
  3
*D88
  0
LINE
  5
A0
330
9E
100
AcDbEntity
  8
0
 62
0
370
-2
100
AcDbLine
 10
-312.31595917094359
 20
807.12325913843438
 30
0
 11
-114.96760019217911
 21
807.12325913843415
 31
0
  0
LINE
  5
A1
330
9E
100
AcDbEntity
  8
0
 62
0
370
-2
100
AcDbLine
 10
-312.31595917094359
 20
743.62325913843233
 30
0
 11
-114.96760019217921
 21
743.6232591384321
 31
0
  0
LINE
  5
A2
330
9E
100
AcDbEntity
  8
0
 62
0
370
-2
100
AcDbLine
 10
-115.1476001921792
 20
802.12325913843426
 30
0
 11
-115.1476001921792
 21
777.96325913843316
 31
0
  0
LINE
  5
A3
330
9E
100
AcDbEntity
  8
0
 62
0
370
-2
100
AcDbLine
 10
-115.1476001921792
 20
748.6232591384321
 30
0
 11
-115.1476001921792
 21
772.7832591384331
 31
0
  0
SOLID
  5
A4
330
9E
100
AcDbEntity
  8
0
 62
0
100
AcDbTrace
 10
-115.9809335255125
 20
802.12325913843426
 30
0
 11
-114.3142668588458
 21
802.12325913843426
 31
0
 12
-115.1476001921792
 22
807.12325913843415
 32
0
 13
-115.1476001921792
 23
807.12325913843415
 33
0
  0
SOLID
  5
A5
330
9E
100
AcDbEntity
  8
0
 62
0
100
AcDbTrace
 10
-115.9809335255125
 20
748.6232591384321
 30
0
 11
-114.3142668588458
 21
748.6232591384321
 31
0
 12
-115.1476001921792
 22
743.6232591384321
 32
0
 13
-115.1476001921792
 23
743.6232591384321
 33
0
  0
MTEXT
  5
A6
330
9E
100
AcDbEntity
  8
0
 62
0
100
AcDbMText
 10
-115.1476001921793
 20
775.37325913843324
 30
0
 11
1
 21
0
 31
0
 40
5
 41
0
 46
0
 71
5
 72
1
  1
\A1;63.5000 [2.50]
  7
Standard
 73
1
 90
0
1001
ACAD
1000
MTEXTBEGIN
1070
73
1070
1
1070
44
1040
1
1070
74
1070
0
1000
MTEXTEND
  0
POINT
  5
A7
330
9E
100
AcDbEntity
  8
Defpoints
 62
0
100
AcDbPoint
 10
-312.3784591709437
 20
807.12325913843438
 30
0
 50
0
  0
POINT
  5
A8
330
9E
100
AcDbEntity
  8
Defpoints
 62
0
100
AcDbPoint
 10
-312.3784591709437
 20
743.62325913843233
 30
0
 50
0
  0
POINT
  5
A9
330
9E
100
AcDbEntity
  8
Defpoints
 62
0
100
AcDbPoint
 10
-115.1476001921792
 20
743.6232591384321
 30
0
 50
0
  0
ENDBLK
  5
AA
330
9E
100
AcDbEntity
  8
0
100
AcDbBlockEnd
  0
BLOCK
  5
AC
330
AB
100
AcDbEntity
  8
0
100
AcDbBlockBegin
  2
*D99
 70
1
 10
0
 20
0
 30
0
  3
*D99
  0
LINE
  5
AD
330
AB
100
AcDbEntity
  8
0
 62
0
370
-2
100
AcDbLine
 10
-376.7719594636223
 20
754.910582062763
 30
0
 11
-376.7719594636223
 21
717.9315589738934
 31
0
  0
LINE
  5
AE
330
AB
100
AcDbEntity
  8
0
 62
0
370
-2
100
AcDbLine
 10
-224.37195946362411
 20
754.910582062763
 30
0
 11
-224.37195946362411
 21
717.9315589738934
 31
0
  0
LINE
  5
AF
330
AB
100
AcDbEntity
  8
0
 62
0
370
-2
100
AcDbLine
 10
-371.77195946362241
 20
718.11155897389324
 30
0
 11
-329.41195946362319
 21
718.11155897389324
 31
0
  0
LINE
  5
B0
330
AB
100
AcDbEntity
  8
0
 62
0
370
-2
100
AcDbLine
 10
-229.37195946362411
 20
718.11155897389324
 30
0
 11
-271.73195946362318
 21
718.11155897389324
 31
0
  0
SOLID
  5
B1
330
AB
100
AcDbEntity
  8
0
 62
0
100
AcDbTrace
 10
-371.77195946362241
 20
718.94489230722672
 30
0
 11
-371.77195946362241
 21
717.27822564055964
 31
0
 12
-376.7719594636223
 22
718.11155897389324
 32
0
 13
-376.7719594636223
 23
718.11155897389324
 33
0
  0
SOLID
  5
B2
330
AB
100
AcDbEntity
  8
0
 62
0
100
AcDbTrace
 10
-229.37195946362411
 20
718.94489230722672
 30
0
 11
-229.37195946362411
 21
717.27822564055964
 31
0
 12
-224.37195946362411
 22
718.11155897389324
 32
0
 13
-224.37195946362411
 23
718.11155897389324
 33
0
  0
MTEXT
  5
B3
330
AB
100
AcDbEntity
  8
0
 62
0
100
AcDbMText
 10
-300.57195946362322
 20
718.11155897389324
 30
0
 11
1
 21
0
 31
0
 40
5
 41
0
 46
0
 71
5
 72
1
  1
\A1;152.4000 [6.00]
  7
Standard
 73
1
 90
0
1001
ACAD
1000
MTEXTBEGIN
1070
73
1070
1
1070
44
1040
1
1070
74
1070
0
1000
MTEXTEND
  0
POINT
  5
B4
330
AB
100
AcDbEntity
  8
Defpoints
 62
0
100
AcDbPoint
 10
-376.7719594636223
 20
754.97308206276307
 30
0
 50
0
  0
POINT
  5
B5
330
AB
100
AcDbEntity
  8
Defpoints
 62
0
100
AcDbPoint
 10
-224.37195946362411
 20
754.97308206276307
 30
0
 50
0
  0
POINT
  5
B6
330
AB
100
AcDbEntity
  8
Defpoints
 62
0
100
AcDbPoint
 10
-224.37195946362411
 20
718.11155897389324
 30
0
 50
0
  0
ENDBLK
  5
B7
330
AB
100
AcDbEntity
  8
0
100
AcDbBlockEnd
  0
BLOCK
  5
B9
330
B8
100
AcDbEntity
  8
0
100
AcDbBlockBegin
  2
*D1010
 70
1
 10
0
 20
0
 30
0
  3
*D1010
  0
LINE
  5
BA
330
B8
100
AcDbEntity
  8
0
 62
0
370
-2
100
AcDbLine
 10
-376.77195946362252
 20
757.38693572902071
 30
0
 11
-376.77195946362252
 21
725.62479241516814
 31
0
  0
LINE
  5
BB
330
B8
100
AcDbEntity
  8
0
 62
0
370
-2
100
AcDbLine
 10
-224.37195946362411
 20
757.38693572902071
 30
0
 11
-224.37195946362411
 21
725.62479241516814
 31
0
  0
LINE
  5
BC
330
B8
100
AcDbEntity
  8
0
 62
0
370
-2
100
AcDbLine
 10
-371.77195946362252
 20
725.80479241516832
 30
0
 11
-329.4119594636233
 21
725.80479241516832
 31
0
  0
LINE
  5
BD
330
B8
100
AcDbEntity
  8
0
 62
0
370
-2
100
AcDbLine
 10
-229.37195946362411
 20
725.80479241516832
 30
0
 11
-271.7319594636233
 21
725.80479241516832
 31
0
  0
SOLID
  5
BE
330
B8
100
AcDbEntity
  8
0
 62
0
100
AcDbTrace
 10
-371.77195946362252
 20
726.63812574850169
 30
0
 11
-371.77195946362252
 21
724.97145908183472
 31
0
 12
-376.77195946362252
 22
725.80479241516832
 32
0
 13
-376.77195946362252
 23
725.80479241516832
 33
0
  0
SOLID
  5
BF
330
B8
100
AcDbEntity
  8
0
 62
0
100
AcDbTrace
 10
-229.37195946362411
 20
726.63812574850169
 30
0
 11
-229.37195946362411
 21
724.97145908183472
 31
0
 12
-224.37195946362411
 22
725.80479241516832
 32
0
 13
-224.37195946362411
 23
725.80479241516832
 33
0
  0
MTEXT
  5
C0
330
B8
100
AcDbEntity
  8
0
 62
0
100
AcDbMText
 10
-300.57195946362327
 20
725.80479241516832
 30
0
 11
1
 21
0
 31
0
 40
5
 41
0
 46
0
 71
5
 72
1
  1
\A1;152.4000 [6.00]
  7
Standard
 73
1
 90
0
1001
ACAD
1000
MTEXTBEGIN
1070
73
1070
1
1070
44
1040
1
1070
74
1070
0
1000
MTEXTEND
  0
POINT
  5
C1
330
B8
100
AcDbEntity
  8
Defpoints
 62
0
100
AcDbPoint
 10
-376.77195946362252
 20
757.44943572902059
 30
0
 50
0
  0
POINT
  5
C2
330
B8
100
AcDbEntity
  8
Defpoints
 62
0
100
AcDbPoint
 10
-224.37195946362411
 20
757.44943572902059
 30
0
 50
0
  0
POINT
  5
C3
330
B8
100
AcDbEntity
  8
Defpoints
 62
0
100
AcDbPoint
 10
-224.37195946362411
 20
725.80479241516832
 30
0
 50
0
  0
ENDBLK
  5
C4
330
B8
100
AcDbEntity
  8
0
100
AcDbBlockEnd
  0
BLOCK
  5
C6
330
C5
100
AcDbEntity
  8
0
100
AcDbBlockBegin
  2
*D1111
 70
1
 10
0
 20
0
 30
0
  3
*D1111
  0
LINE
  5
C7
330
C5
100
AcDbEntity
  8
0
 62
0
370
-2
100
AcDbLine
 10
-237.7370316500901
 20
743.62325913843245
 30
0
 11
-192.83731900322459
 21
743.62325913843245
 31
0
  0
LINE
  5
C8
330
C5
100
AcDbEntity
  8
0
 62
0
370
-2
100
AcDbLine
 10
-237.73703165008851
 20
807.12325913843256
 30
0
 11
-192.83731900322459
 21
807.12325913843256
 31
0
  0
LINE
  5
C9
330
C5
100
AcDbEntity
  8
0
 62
0
370
-2
100
AcDbLine
 10
-193.0173190032246
 20
748.62325913843233
 30
0
 11
-193.0173190032246
 21
772.7832591384323
 31
0
  0
LINE
  5
CA
330
C5
100
AcDbEntity
  8
0
 62
0
370
-2
100
AcDbLine
 10
-193.0173190032246
 20
802.12325913843245
 30
0
 11
-193.0173190032246
 21
777.96325913843236
 31
0
  0
SOLID
  5
CB
330
C5
100
AcDbEntity
  8
0
 62
0
100
AcDbTrace
 10
-193.850652336558
 20
748.62325913843233
 30
0
 11
-192.18398566989131
 21
748.62325913843233
 31
0
 12
-193.0173190032246
 22
743.62325913843245
 32
0
 13
-193.0173190032246
 23
743.62325913843245
 33
0
  0
SOLID
  5
CC
330
C5
100
AcDbEntity
  8
0
 62
0
100
AcDbTrace
 10
-193.850652336558
 20
802.12325913843245
 30
0
 11
-192.18398566989131
 21
802.12325913843245
 31
0
 12
-193.0173190032246
 22
807.12325913843256
 32
0
 13
-193.0173190032246
 23
807.12325913843256
 33
0
  0
MTEXT
  5
CD
330
C5
100
AcDbEntity
  8
0
 62
0
100
AcDbMText
 10
-193.01731900322471
 20
775.37325913843233
 30
0
 11
1
 21
0
 31
0
 40
5
 41
0
 46
0
 71
5
 72
1
  1
\A1;63.5000 [2.50]
  7
Standard
 73
1
 90
0
1001
ACAD
1000
MTEXTBEGIN
1070
73
1070
1
1070
44
1040
1
1070
74
1070
0
1000
MTEXTEND
  0
POINT
  5
CE
330
C5
100
AcDbEntity
  8
Defpoints
 62
0
100
AcDbPoint
 10
-237.7995316500901
 20
743.62325913843245
 30
0
 50
0
  0
POINT
  5
CF
330
C5
100
AcDbEntity
  8
Defpoints
 62
0
100
AcDbPoint
 10
-237.79953165008851
 20
807.12325913843256
 30
0
 50
0
  0
POINT
  5
D0
330
C5
100
AcDbEntity
  8
Defpoints
 62
0
100
AcDbPoint
 10
-193.0173190032246
 20
807.12325913843256
 30
0
 50
0
  0
ENDBLK
  5
D1
330
C5
100
AcDbEntity
  8
0
100
AcDbBlockEnd
  0
ENDSEC
  0
SECTION
  2
ENTITIES
  0
LINE
  5
2F
330
2B
100
AcDbEntity
  8
LaserCutting
100
AcDbLine
 10
-371.9459594636246
 20
807.123259138436
 30
0
 11
-229.19795946362319
 21
807.12325913843233
 31
0
  0
LINE
  5
30
330
2B
100
AcDbEntity
  8
LaserCutting
100
AcDbLine
 10
-224.37195946362411
 20
802.29725913843129
 30
0
 11
-224.37195946362411
 21
748.4492591384369
 31
0
  0
LINE
  5
31
330
2B
100
AcDbEntity
  8
LaserCutting
100
AcDbLine
 10
-229.19795946362319
 20
743.62325913843233
 30
0
 11
-371.94595946362278
 21
743.62325913843233
 31
0
  0
LINE
  5
32
330
2B
100
AcDbEntity
  8
LaserCutting
100
AcDbLine
 10
-376.7719594636219
 20
748.4492591384369
 30
0
 11
-376.77195946362548
 21
802.297259138435
 31
0
  0
CIRCLE
  5
33
330
2B
100
AcDbEntity
  8
LaserCutting
100
AcDbCircle
 10
-364.071959463623
 20
794.42325913843524
 30
0
 40
4.7624999999999984
  0
CIRCLE
  5
34
330
2B
100
AcDbEntity
  8
LaserCutting
100
AcDbCircle
 10
-348.196959463623
 20
794.42325913843524
 30
0
 40
4.7624999999999984
  0
CIRCLE
  5
35
330
2B
100
AcDbEntity
  8
LaserCutting
100
AcDbCircle
 10
-364.071959463623
 20
761.14925913843365
 30
0
 40
4.7624999999999984
  0
CIRCLE
  5
36
330
2B
100
AcDbEntity
  8
LaserCutting
100
AcDbCircle
 10
-348.196959463623
 20
761.14925913843365
 30
0
 40
4.7624999999999984
  0
CIRCLE
  5
37
330
2B
100
AcDbEntity
  8
LaserCutting
100
AcDbCircle
 10
-297.52395946362412
 20
775.37325913843233
 30
0
 40
3.5687
  0
CIRCLE
  5
38
330
2B
100
AcDbEntity
  8
LaserCutting
100
AcDbCircle
 10
-240.3739594636227
 20
775.37325913843233
 30
0
 40
3.5687
  0
ARC
  5
39
330
2B
100
AcDbEntity
  8
LaserCutting
100
AcDbCircle
 10
-229.19795946362319
 20
748.4492591384369
 30
0
 40
4.8259999999999961
100
AcDbArc
 50
270
 51
0
  0
ARC
  5
3A
330
2B
100
AcDbEntity
  8
LaserCutting
100
AcDbCircle
 10
-229.19795946362319
 20
802.29725913843129
 30
0
 40
4.8259999999999961
100
AcDbArc
 50
0
 51
90
  0
ARC
  5
3B
330
2B
100
AcDbEntity
  8
LaserCutting
100
AcDbCircle
 10
-371.9459594636246
 20
802.297259138435
 30
0
 40
4.8259999999999961
100
AcDbArc
 50
90
 51
180
  0
ARC
  5
3C
330
2B
100
AcDbEntity
  8
LaserCutting
100
AcDbCircle
 10
-371.94595946362278
 20
748.4492591384369
 30
0
 40
4.8259999999999961
100
AcDbArc
 50
180
 51
270
  0
MTEXT
  5
3D
330
2B
100
AcDbEntity
  8
LaserCutting
100
AcDbMText
 10
-362.66950874866973
 20
707.33303722025425
 30
0
 11
1
 21
0
 31
0
 40
5.08
 41
124.6622694770798
 46
0
 71
1
 72
5
  1
{\fVerdana|b0|i0|c0|p34;SIZE         : 6 X 63.5 X 152.4\PMATERIAL : SS 316\PREV          : 0\PQTY          : 3 NOS}
  7
Standard
 73
1
 90
0
1001
ACAD
1000
MTEXTBEGIN
1070
73
1070
1
1070
44
1040
1
1070
74
1070
0
1000
MTEXTEND
  0
ENDSEC
  0
SECTION
  2
OBJECTS
  0
DICTIONARY
  5
C
330
0
100
AcDbDictionary
280
0
281
1
  3
ACAD_COLOR
350
D4
  3
ACAD_GROUP
350
D
  3
ACAD_LAYOUT
350
1A
  3
ACAD_MATERIAL
350
D6
  3
ACAD_MLEADERSTYLE
350
D7
  3
ACAD_MLINESTYLE
350
17
  3
ACAD_PLOTSETTINGS
350
19
  3
ACAD_PLOTSTYLENAME
350
E
  3
ACAD_SCALELIST
350
D9
  3
ACAD_TABLESTYLE
350
EB
  3
ACAD_VISUALSTYLE
350
EF
  3
ACDB_RECOMPOSE_DATA
350
F0
  3
AcDbVariableDictionary
350
F1
  3
ACAD_FIELDLIST
350
FB
  3
ACAD_IMAGE_DICT
350
FC
  0
DICTIONARY
  5
2C
330
2B
100
AcDbDictionary
280
1
281
1
  3
ACAD_SORTENTS
360
2D
  0
DICTIONARY
  5
ED
330
EC
100
AcDbDictionary
280
1
281
1
  3
ACAD_ROUNDTRIP_2008_TABLESTYLE_CELLSTYLEMAP
360
EE
  0
DICTIONARY
  5
D4
102
{ACAD_REACTORS
330
C
102
}
330
C
100
AcDbDictionary
280
0
281
1
  0
DICTIONARY
  5
D
102
{ACAD_REACTORS
330
C
102
}
330
C
100
AcDbDictionary
280
0
281
1
  0
DICTIONARY
  5
1A
102
{ACAD_REACTORS
330
C
102
}
330
C
100
AcDbDictionary
280
0
281
1
  3
Layout1
350
1E
  3
Layout2
350
D5
  3
Model
350
22
  0
DICTIONARY
  5
D6
102
{ACAD_REACTORS
330
C
102
}
330
C
100
AcDbDictionary
280
0
281
1
  0
DICTIONARY
  5
D7
102
{ACAD_REACTORS
330
C
102
}
330
C
100
AcDbDictionary
280
0
281
1
  0
DICTIONARY
  5
17
102
{ACAD_REACTORS
330
C
102
}
330
C
100
AcDbDictionary
280
0
281
1
  3
STANDARD
350
D8
  0
DICTIONARY
  5
19
102
{ACAD_REACTORS
330
C
102
}
330
C
100
AcDbDictionary
280
0
281
1
  0
ACDBDICTIONARYWDFLT
  5
E
102
{ACAD_REACTORS
330
C
102
}
330
C
100
AcDbDictionary
280
0
281
1
  3
Normal
350
F
100
AcDbDictionaryWithDefault
340
F
  0
ACDBPLACEHOLDER
  5
F
102
{ACAD_REACTORS
330
E
102
}
330
E
  0
DICTIONARY
  5
D9
102
{ACAD_REACTORS
330
C
102
}
330
C
100
AcDbDictionary
280
0
281
1
  3
A0
350
DA
  3
A1
350
DB
  3
A2
350
DC
  3
A3
350
DD
  3
A4
350
DE
  3
A5
350
DF
  3
A6
350
E0
  3
A7
350
E1
  3
A8
350
E2
  3
A9
350
E3
  3
B0
350
E4
  3
B1
350
E5
  3
B2
350
E6
  3
B3
350
E7
  3
B4
350
E8
  3
B5
350
E9
  3
B6
350
EA
  0
DICTIONARY
  5
EB
102
{ACAD_REACTORS
330
C
102
}
330
C
100
AcDbDictionary
280
0
281
1
  3
Standard
350
EC
  0
DICTIONARY
  5
EF
102
{ACAD_REACTORS
330
C
102
}
330
C
100
AcDbDictionary
280
0
281
1
  0
XRECORD
  5
F0
102
{ACAD_REACTORS
330
C
102
}
330
C
100
AcDbXrecord
280
1
 90
1
330
EC
330
EC
330
EC
  0
DICTIONARY
  5
F1
102
{ACAD_REACTORS
330
C
102
}
330
C
100
AcDbDictionary
280
0
281
1
  3
CMLEADERSTYLE
350
F2
  3
CTABLESTYLE
350
F3
  3
DIMASSOC
350
F4
  3
HIDETEXT
350
F5
  3
MSLTSCALE
350
F6
  3
XCLIPFRAME
350
F7
  3
CANNOSCALE
350
F8
  3
ANNOALLVISIBLE
350
F9
  3
ANNOTATIVEDWG
350
FA
  0
FIELDLIST
  5
FB
102
{ACAD_REACTORS
330
C
102
}
330
C
100
AcDbIdSet
100
AcDbFieldList
  0
DICTIONARY
  5
FC
102
{ACAD_REACTORS
330
C
102
}
330
C
100
AcDbDictionary
280
0
281
1
  0
SORTENTSTABLE
  5
2D
102
{ACAD_REACTORS
330
2C
102
}
330
2C
100
AcDbSortentsTable
330
2B
331
2F
  5
42C
331
30
  5
430
331
31
  5
437
331
32
  5
43C
331
33
  5
43E
331
34
  5
43F
331
35
  5
440
331
36
  5
441
331
37
  5
442
331
38
  5
443
331
39
  5
43B
331
3A
  5
436
331
3B
  5
43D
331
3C
  5
43A
  0
CELLSTYLEMAP
  5
EE
102
{ACAD_REACTORS
330
ED
102
}
330
ED
100
AcDbCellStyleMap
 90
3
300
CELLSTYLE
  1
TABLEFORMAT_BEGIN
 90
5
170
1
 91
0
 92
32768
 62
257
 93
1
300
CONTENTFORMAT
  1
CONTENTFORMAT_BEGIN
 90
0
 91
0
 92
4
 93
0
300

 40
0
140
1
 94
5
 62
18
340
11
144
0.25
309
CONTENTFORMAT_END
171
1
301
MARGIN
  1
CELLMARGIN_BEGIN
 40
0.06
 40
0.06
 40
0.06
 40
0.06
 40
0.06
 40
0.06
309
CELLMARGIN_END
 94
6
 95
1
302
GRIDFORMAT
  1
GRIDFORMAT_BEGIN
 90
0
 91
1
 62
0
 92
-2
340
0
 93
0
 40
0.045
309
GRIDFORMAT_END
 95
2
302
GRIDFORMAT
  1
GRIDFORMAT_BEGIN
 90
0
 91
1
 62
0
 92
-2
340
0
 93
0
 40
0.045
309
GRIDFORMAT_END
 95
4
302
GRIDFORMAT
  1
GRIDFORMAT_BEGIN
 90
0
 91
1
 62
0
 92
-2
340
0
 93
0
 40
0.045
309
GRIDFORMAT_END
 95
8
302
GRIDFORMAT
  1
GRIDFORMAT_BEGIN
 90
0
 91
1
 62
0
 92
-2
340
0
 93
0
 40
0.045
309
GRIDFORMAT_END
 95
16
302
GRIDFORMAT
  1
GRIDFORMAT_BEGIN
 90
0
 91
1
 62
0
 92
-2
340
0
 93
0
 40
0.045
309
GRIDFORMAT_END
 95
32
302
GRIDFORMAT
  1
GRIDFORMAT_BEGIN
 90
0
 91
1
 62
0
 92
-2
340
0
 93
0
 40
0.045
309
GRIDFORMAT_END
309
TABLEFORMAT_END
  1
CELLSTYLE_BEGIN
 90
1
 91
1
300
_TITLE
309
CELLSTYLE_END
300
CELLSTYLE
  1
TABLEFORMAT_BEGIN
 90
5
170
1
 91
0
 92
0
 62
257
 93
1
300
CONTENTFORMAT
  1
CONTENTFORMAT_BEGIN
 90
0
 91
0
 92
4
 93
0
300

 40
0
140
1
 94
5
 62
18
340
11
144
0.18
309
CONTENTFORMAT_END
171
1
301
MARGIN
  1
CELLMARGIN_BEGIN
 40
0.06
 40
0.06
 40
0.06
 40
0.06
 40
0.06
 40
0.06
309
CELLMARGIN_END
 94
6
 95
1
302
GRIDFORMAT
  1
GRIDFORMAT_BEGIN
 90
0
 91
1
 62
0
 92
-2
340
0
 93
0
 40
0.045
309
GRIDFORMAT_END
 95
2
302
GRIDFORMAT
  1
GRIDFORMAT_BEGIN
 90
0
 91
1
 62
0
 92
-2
340
0
 93
0
 40
0.045
309
GRIDFORMAT_END
 95
4
302
GRIDFORMAT
  1
GRIDFORMAT_BEGIN
 90
0
 91
1
 62
0
 92
-2
340
0
 93
0
 40
0.045
309
GRIDFORMAT_END
 95
8
302
GRIDFORMAT
  1
GRIDFORMAT_BEGIN
 90
0
 91
1
 62
0
 92
-2
340
0
 93
0
 40
0.045
309
GRIDFORMAT_END
 95
16
302
GRIDFORMAT
  1
GRIDFORMAT_BEGIN
 90
0
 91
1
 62
0
 92
-2
340
0
 93
0
 40
0.045
309
GRIDFORMAT_END
 95
32
302
GRIDFORMAT
  1
GRIDFORMAT_BEGIN
 90
0
 91
1
 62
0
 92
-2
340
0
 93
0
 40
0.045
309
GRIDFORMAT_END
309
TABLEFORMAT_END
  1
CELLSTYLE_BEGIN
 90
2
 91
1
300
_HEADER
309
CELLSTYLE_END
300
CELLSTYLE
  1
TABLEFORMAT_BEGIN
 90
5
170
1
 91
0
 92
0
 62
257
 93
1
300
CONTENTFORMAT
  1
CONTENTFORMAT_BEGIN
 90
0
 91
0
 92
4
 93
0
300

 40
0
140
1
 94
2
 62
18
340
11
144
0.18
309
CONTENTFORMAT_END
171
1
301
MARGIN
  1
CELLMARGIN_BEGIN
 40
0.06
 40
0.06
 40
0.06
 40
0.06
 40
0.06
 40
0.06
309
CELLMARGIN_END
 94
6
 95
1
302
GRIDFORMAT
  1
GRIDFORMAT_BEGIN
 90
0
 91
1
 62
0
 92
-2
340
0
 93
0
 40
0.045
309
GRIDFORMAT_END
 95
2
302
GRIDFORMAT
  1
GRIDFORMAT_BEGIN
 90
0
 91
1
 62
0
 92
-2
340
0
 93
0
 40
0.045
309
GRIDFORMAT_END
 95
4
302
GRIDFORMAT
  1
GRIDFORMAT_BEGIN
 90
0
 91
1
 62
0
 92
-2
340
0
 93
0
 40
0.045
309
GRIDFORMAT_END
 95
8
302
GRIDFORMAT
  1
GRIDFORMAT_BEGIN
 90
0
 91
1
 62
0
 92
-2
340
0
 93
0
 40
0.045
309
GRIDFORMAT_END
 95
16
302
GRIDFORMAT
  1
GRIDFORMAT_BEGIN
 90
0
 91
1
 62
0
 92
-2
340
0
 93
0
 40
0.045
309
GRIDFORMAT_END
 95
32
302
GRIDFORMAT
  1
GRIDFORMAT_BEGIN
 90
0
 91
1
 62
0
 92
-2
340
0
 93
0
 40
0.045
309
GRIDFORMAT_END
309
TABLEFORMAT_END
  1
CELLSTYLE_BEGIN
 90
3
 91
2
300
_DATA
309
CELLSTYLE_END
  0
LAYOUT
  5
1E
102
{ACAD_REACTORS
330
1A
102
}
330
1A
100
AcDbPlotSettings
  1

  2
None
  4

  6

 40
0
 41
0
 42
0
 43
0
 44
0
 45
0
 46
0
 47
0
 48
0
 49
0
140
0
141
0
142
1
143
1
 70
688
 72
0
 73
0
 74
5
  7

 75
16
 76
0
 77
2
 78
300
147
1
148
0
149
0
100
AcDbLayout
  1
Layout1
 70
1
 71
1
 10
0
 20
0
 11
12
 21
9
 12
0
 22
0
 32
0
 14
0
 24
0
 34
0
 15
0
 25
0
 35
0
146
0
 13
0
 23
0
 33
0
 16
1
 26
0
 36
0
 17
0
 27
1
 37
0
 76
0
330
1B
  0
LAYOUT
  5
D5
102
{ACAD_REACTORS
330
1A
102
}
330
1A
100
AcDbPlotSettings
  1

  2
None
  4

  6

 40
0
 41
0
 42
0
 43
0
 44
0
 45
0
 46
0
 47
0
 48
0
 49
0
140
0
141
0
142
1
143
1
 70
688
 72
0
 73
0
 74
5
  7

 75
16
 76
0
 77
2
 78
300
147
1
148
0
149
0
100
AcDbLayout
  1
Layout2
 70
1
 71
2
 10
0
 20
0
 11
12
 21
9
 12
0
 22
0
 32
0
 14
0
 24
0
 34
0
 15
0
 25
0
 35
0
146
0
 13
0
 23
0
 33
0
 16
1
 26
0
 36
0
 17
0
 27
1
 37
0
 76
0
330
3F
  0
LAYOUT
  5
22
102
{ACAD_REACTORS
330
1A
102
}
330
1A
100
AcDbPlotSettings
  1

  2
none_device
  4
ANSI_A_(8.50_x_11.00_Inches)
  6

 40
6.3499999046325666
 41
19.04999923706055
 42
6.350006103515625
 43
19.04998779296875
 44
215.8999938964844
 45
279.39999389648438
 46
0
 47
0
 48
0
 49
0
140
0
141
0
142
1
143
2.5848954647083731
 70
11952
 72
0
 73
1
 74
0
  7

 75
0
 76
0
 77
2
 78
300
147
0.38686283977554181
148
0
149
0
100
AcDbLayout
  1
Model
 70
1
 71
0
 10
0
 20
0
 11
12
 21
9
 12
0
 22
0
 32
0
 14
0
 24
0
 34
0
 15
0
 25
0
 35
0
146
0
 13
0
 23
0
 33
0
 16
1
 26
0
 36
0
 17
0
 27
1
 37
0
 76
0
330
2B
331
D3
  0
MLINESTYLE
  5
D8
102
{ACAD_REACTORS
330
17
102
}
330
17
100
AcDbMlineStyle
  2
STANDARD
 70
0
  3

 51
90
 52
90
 71
2
 49
0.5
  6
ByLayer
 49
-0.5
  6
ByLayer
  0
SCALE
  5
DA
102
{ACAD_REACTORS
330
D9
102
}
330
D9
100
AcDbScale
 70
0
300
1:1
140
1
141
1
290
1
  0
SCALE
  5
DB
102
{ACAD_REACTORS
330
D9
102
}
330
D9
100
AcDbScale
 70
0
300
1:2
140
1
141
2
290
0
  0
SCALE
  5
DC
102
{ACAD_REACTORS
330
D9
102
}
330
D9
100
AcDbScale
 70
0
300
1:4
140
1
141
4
290
0
  0
SCALE
  5
DD
102
{ACAD_REACTORS
330
D9
102
}
330
D9
100
AcDbScale
 70
0
300
1:5
140
1
141
5
290
0
  0
SCALE
  5
DE
102
{ACAD_REACTORS
330
D9
102
}
330
D9
100
AcDbScale
 70
0
300
1:8
140
1
141
8
290
0
  0
SCALE
  5
DF
102
{ACAD_REACTORS
330
D9
102
}
330
D9
100
AcDbScale
 70
0
300
1:10
140
1
141
10
290
0
  0
SCALE
  5
E0
102
{ACAD_REACTORS
330
D9
102
}
330
D9
100
AcDbScale
 70
0
300
1:16
140
1
141
16
290
0
  0
SCALE
  5
E1
102
{ACAD_REACTORS
330
D9
102
}
330
D9
100
AcDbScale
 70
0
300
1:20
140
1
141
20
290
0
  0
SCALE
  5
E2
102
{ACAD_REACTORS
330
D9
102
}
330
D9
100
AcDbScale
 70
0
300
1:30
140
1
141
30
290
0
  0
SCALE
  5
E3
102
{ACAD_REACTORS
330
D9
102
}
330
D9
100
AcDbScale
 70
0
300
1:40
140
1
141
40
290
0
  0
SCALE
  5
E4
102
{ACAD_REACTORS
330
D9
102
}
330
D9
100
AcDbScale
 70
0
300
1:50
140
1
141
50
290
0
  0
SCALE
  5
E5
102
{ACAD_REACTORS
330
D9
102
}
330
D9
100
AcDbScale
 70
0
300
1:100
140
1
141
100
290
0
  0
SCALE
  5
E6
102
{ACAD_REACTORS
330
D9
102
}
330
D9
100
AcDbScale
 70
0
300
2:1
140
2
141
1
290
0
  0
SCALE
  5
E7
102
{ACAD_REACTORS
330
D9
102
}
330
D9
100
AcDbScale
 70
0
300
4:1
140
4
141
1
290
0
  0
SCALE
  5
E8
102
{ACAD_REACTORS
330
D9
102
}
330
D9
100
AcDbScale
 70
0
300
8:1
140
8
141
1
290
0
  0
SCALE
  5
E9
102
{ACAD_REACTORS
330
D9
102
}
330
D9
100
AcDbScale
 70
0
300
10:1
140
10
141
1
290
0
  0
SCALE
  5
EA
102
{ACAD_REACTORS
330
D9
102
}
330
D9
100
AcDbScale
 70
0
300
100:1
140
100
141
1
290
0
  0
TABLESTYLE
  5
EC
102
{ACAD_XDICTIONARY
360
ED
102
}
102
{ACAD_REACTORS
330
EB
102
}
330
EB
100
AcDbTableStyle
  3
Standard
 70
0
 71
0
 40
0.06
 41
0.06
280
0
281
0
  7
Standard
140
0.18
170
2
 62
18
283
0
 90
4
 91
0
274
-2
284
1
 64
0
275
-2
285
1
 65
0
276
-2
286
1
 66
0
277
-2
287
1
 67
0
278
-2
288
1
 68
0
279
-2
289
1
 69
0
  7
Standard
140
0.25
170
5
 62
18
283
0
 90
4
 91
0
274
-2
284
1
 64
0
275
-2
285
1
 65
0
276
-2
286
1
 66
0
277
-2
287
1
 67
0
278
-2
288
1
 68
0
279
-2
289
1
 69
0
  7
Standard
140
0.18
170
5
 62
18
283
0
 90
4
 91
0
274
-2
284
1
 64
0
275
-2
285
1
 65
0
276
-2
286
1
 66
0
277
-2
287
1
 67
0
278
-2
288
1
 68
0
279
-2
289
1
 69
0
  0
DICTIONARYVAR
  5
F2
102
{ACAD_REACTORS
330
F1
102
}
330
F1
100
DictionaryVariables
280
0
  1
Standard
  0
DICTIONARYVAR
  5
F3
102
{ACAD_REACTORS
330
F1
102
}
330
F1
100
DictionaryVariables
280
0
  1
STANDARD
  0
DICTIONARYVAR
  5
F4
102
{ACAD_REACTORS
330
F1
102
}
330
F1
100
DictionaryVariables
280
0
  1
2
  0
DICTIONARYVAR
  5
F5
102
{ACAD_REACTORS
330
F1
102
}
330
F1
100
DictionaryVariables
280
0
  1
1
  0
DICTIONARYVAR
  5
F6
102
{ACAD_REACTORS
330
F1
102
}
330
F1
100
DictionaryVariables
280
0
  1
0
  0
DICTIONARYVAR
  5
F7
102
{ACAD_REACTORS
330
F1
102
}
330
F1
100
DictionaryVariables
280
0
  1
0
  0
DICTIONARYVAR
  5
F8
102
{ACAD_REACTORS
330
F1
102
}
330
F1
100
DictionaryVariables
280
0
  1
1:1
  0
DICTIONARYVAR
  5
F9
102
{ACAD_REACTORS
330
F1
102
}
330
F1
100
DictionaryVariables
280
0
  1
1
  0
DICTIONARYVAR
  5
FA
102
{ACAD_REACTORS
330
F1
102
}
330
F1
100
DictionaryVariables
280
0
  1
0
  0
ENDSEC
999
Created By CadLib version 4.0.36.72
999
CadLib website: www.woutware.com
  0
EOF
