  0
SECTION
  2
HEADER
  9
$ACADVER
  1
AC1027
  9
$ACADMAINTVER
 70
     8
  9
$DWGCODEPAGE
  3
ANSI_1252
  9
$LASTSAVEDBY
  1
santhosh
  9
$REQUIREDVERSIONS
160
                 0
  9
$INSBASE
 10
0.0
 20
0.0
 30
0.0
  9
$EXTMIN
 10
1416.387544327799
 20
-823.5374532065453
 30
0.0
  9
$EXTMAX
 10
58912.60127984388
 20
3283.754143989442
 30
0.0
  9
$LIMMIN
 10
0.0
 20
0.0
  9
$LIMMAX
 10
420.0
 20
297.0
  9
$ORTHOMODE
 70
     0
  9
$REGENMODE
 70
     1
  9
$FILLMODE
 70
     1
  9
$QTEXTMODE
 70
     0
  9
$MIRRTEXT
 70
     0
  9
$LTSCALE
 40
1.0
  9
$ATTMODE
 70
     1
  9
$TEXTSIZE
 40
5.0
  9
$TRACEWID
 40
1.0
  9
$TEXTSTYLE
  7
RR
  9
$CLAYER
  8
0
  9
$CELTYPE
  6
ByBlock
  9
$CECOLOR
 62
     0
  9
$CELTSCALE
 40
25.0
  9
$DISPSILH
 70
     0
  9
$DIMSCALE
 40
1.0
  9
$DIMASZ
 40
5.0
  9
$DIMEXO
 40
0.02
  9
$DIMDLI
 40
3.75
  9
$DIMRND
 40
0.0
  9
$DIMDLE
 40
0.0
  9
$DIMEXE
 40
0.05
  9
$DIMTP
 40
0.0
  9
$DIMTM
 40
0.0
  9
$DIMTXT
 40
5.0
  9
$DIMCEN
 40
0.6
  9
$DIMTSZ
 40
0.0
  9
$DIMTOL
 70
     0
  9
$DIMLIM
 70
     0
  9
$DIMTIH
 70
     0
  9
$DIMTOH
 70
     0
  9
$DIMSE1
 70
     0
  9
$DIMSE2
 70
     0
  9
$DIMTAD
 70
     1
  9
$DIMZIN
 70
     1
  9
$DIMBLK
  1

  9
$DIMASO
 70
     1
  9
$DIMSHO
 70
     1
  9
$DIMPOST
  1

  9
$DIMAPOST
  1

  9
$DIMALT
 70
     0
  9
$DIMALTD
 70
     4
  9
$DIMALTF
 40
0.0394
  9
$DIMLFAC
 40
1.0
  9
$DIMTOFL
 70
     0
  9
$DIMTVP
 40
0.0
  9
$DIMTIX
 70
     0
  9
$DIMSOXD
 70
     0
  9
$DIMSAH
 70
     0
  9
$DIMBLK1
  1

  9
$DIMBLK2
  1

  9
$DIMSTYLE
  2
DEEP
  9
$DIMCLRD
 70
   250
  9
$DIMCLRE
 70
   250
  9
$DIMCLRT
 70
     0
  9
$DIMTFAC
 40
1.0
  9
$DIMGAP
 40
1.5
  9
$DIMJUST
 70
     0
  9
$DIMSD1
 70
     0
  9
$DIMSD2
 70
     0
  9
$DIMTOLJ
 70
     1
  9
$DIMTZIN
 70
     0
  9
$DIMALTZ
 70
     0
  9
$DIMALTTZ
 70
     0
  9
$DIMUPT
 70
     1
  9
$DIMDEC
 70
     2
  9
$DIMTDEC
 70
     2
  9
$DIMALTU
 70
     8
  9
$DIMALTTD
 70
     4
  9
$DIMTXSTY
  7
RR
  9
$DIMAUNIT
 70
     0
  9
$DIMADEC
 70
     2
  9
$DIMALTRND
 40
0.0
  9
$DIMAZIN
 70
     0
  9
$DIMDSEP
 70
    46
  9
$DIMATFIT
 70
     3
  9
$DIMFRAC
 70
     0
  9
$DIMLDRBLK
  1

  9
$DIMLUNIT
 70
     2
  9
$DIMLWD
 70
     5
  9
$DIMLWE
 70
     5
  9
$DIMTMOVE
 70
     0
  9
$DIMFXL
 40
1.0
  9
$DIMFXLON
 70
     0
  9
$DIMJOGANG
 40
0.7853981633974483
  9
$DIMTFILL
 70
     0
  9
$DIMTFILLCLR
 70
     0
  9
$DIMARCSYM
 70
     0
  9
$DIMLTYPE
  6

  9
$DIMLTEX1
  6

  9
$DIMLTEX2
  6

  9
$DIMTXTDIRECTION
 70
     0
  9
$LUNITS
 70
     2
  9
$LUPREC
 70
     4
  9
$SKETCHINC
 40
1.0
  9
$FILLETRAD
 40
0.0
  9
$AUNITS
 70
     0
  9
$AUPREC
 70
     0
  9
$MENU
  1
.
  9
$ELEVATION
 40
0.0
  9
$PELEVATION
 40
0.0
  9
$THICKNESS
 40
0.0
  9
$LIMCHECK
 70
     0
  9
$CHAMFERA
 40
2.0
  9
$CHAMFERB
 40
2.0
  9
$CHAMFERC
 40
18.0
  9
$CHAMFERD
 40
0.7853981633974483
  9
$SKPOLY
 70
     0
  9
$TDCREATE
 40
2454307.695250660
  9
$TDUCREATE
 40
2454307.466083993
  9
$TDUPDATE
 40
2459799.963262430
  9
$TDUUPDATE
 40
2459799.734095764
  9
$TDINDWG
 40
35.470350706
  9
$TDUSRTIMER
 40
35.470350706
  9
$USRTIMER
 70
     1
  9
$ANGBASE
 50
0.0
  9
$ANGDIR
 70
     0
  9
$PDMODE
 70
     0
  9
$PDSIZE
 40
0.0
  9
$PLINEWID
 40
0.0
  9
$SPLFRAME
 70
     0
  9
$SPLINETYPE
 70
     6
  9
$SPLINESEGS
 70
     8
  9
$HANDSEED
  5
295
  9
$SURFTAB1
 70
     6
  9
$SURFTAB2
 70
     6
  9
$SURFTYPE
 70
     6
  9
$SURFU
 70
     6
  9
$SURFV
 70
     6
  9
$UCSBASE
  2

  9
$UCSNAME
  2

  9
$UCSORG
 10
0.0
 20
0.0
 30
0.0
  9
$UCSXDIR
 10
1.0
 20
0.0
 30
0.0
  9
$UCSYDIR
 10
0.0
 20
1.0
 30
0.0
  9
$UCSORTHOREF
  2

  9
$UCSORTHOVIEW
 70
     0
  9
$UCSORGTOP
 10
0.0
 20
0.0
 30
0.0
  9
$UCSORGBOTTOM
 10
0.0
 20
0.0
 30
0.0
  9
$UCSORGLEFT
 10
0.0
 20
0.0
 30
0.0
  9
$UCSORGRIGHT
 10
0.0
 20
0.0
 30
0.0
  9
$UCSORGFRONT
 10
0.0
 20
0.0
 30
0.0
  9
$UCSORGBACK
 10
0.0
 20
0.0
 30
0.0
  9
$PUCSBASE
  2

  9
$PUCSNAME
  2

  9
$PUCSORG
 10
0.0
 20
0.0
 30
0.0
  9
$PUCSXDIR
 10
1.0
 20
0.0
 30
0.0
  9
$PUCSYDIR
 10
0.0
 20
1.0
 30
0.0
  9
$PUCSORTHOREF
  2

  9
$PUCSORTHOVIEW
 70
     0
  9
$PUCSORGTOP
 10
0.0
 20
0.0
 30
0.0
  9
$PUCSORGBOTTOM
 10
0.0
 20
0.0
 30
0.0
  9
$PUCSORGLEFT
 10
0.0
 20
0.0
 30
0.0
  9
$PUCSORGRIGHT
 10
0.0
 20
0.0
 30
0.0
  9
$PUCSORGFRONT
 10
0.0
 20
0.0
 30
0.0
  9
$PUCSORGBACK
 10
0.0
 20
0.0
 30
0.0
  9
$USERI1
 70
     0
  9
$USERI2
 70
     0
  9
$USERI3
 70
     0
  9
$USERI4
 70
     0
  9
$USERI5
 70
     0
  9
$USERR1
 40
0.0
  9
$USERR2
 40
0.0
  9
$USERR3
 40
0.0
  9
$USERR4
 40
0.0
  9
$USERR5
 40
0.0
  9
$WORLDVIEW
 70
     1
  9
$SHADEDGE
 70
     3
  9
$SHADEDIF
 70
    70
  9
$TILEMODE
 70
     1
  9
$MAXACTVP
 70
    64
  9
$PINSBASE
 10
0.0
 20
0.0
 30
0.0
  9
$PLIMCHECK
 70
     0
  9
$PEXTMIN
 10
0.0
 20
0.0
 30
0.0
  9
$PEXTMAX
 10
0.0
 20
0.0
 30
0.0
  9
$PLIMMIN
 10
0.0
 20
0.0
  9
$PLIMMAX
 10
12.0
 20
9.0
  9
$UNITMODE
 70
     0
  9
$VISRETAIN
 70
     1
  9
$PLINEGEN
 70
     0
  9
$PSLTSCALE
 70
     1
  9
$TREEDEPTH
 70
  3020
  9
$CMLSTYLE
  2
Standard
  9
$CMLJUST
 70
     0
  9
$CMLSCALE
 40
20.0
  9
$PROXYGRAPHICS
 70
     1
  9
$MEASUREMENT
 70
     1
  9
$CELWEIGHT
370
    -1
  9
$ENDCAPS
280
     0
  9
$JOINSTYLE
280
     0
  9
$LWDISPLAY
290
     0
  9
$INSUNITS
 70
     4
  9
$HYPERLINKBASE
  1

  9
$STYLESHEET
  1
monochrome.ctb
  9
$XEDIT
290
     1
  9
$CEPSNTYPE
380
     0
  9
$PSTYLEMODE
290
     1
  9
$FINGERPRINTGUID
  2
{FE3383FB-2917-4BBF-9564-D28FBC5DDD48}
  9
$VERSIONGUID
  2
{0969C07D-EDAF-42FD-8FB7-4F2C03496089}
  9
$EXTNAMES
290
     1
  9
$PSVPSCALE
 40
0.0
  9
$OLESTARTUP
290
     0
  9
$SORTENTS
280
   127
  9
$INDEXCTL
280
     0
  9
$HIDETEXT
280
     1
  9
$XCLIPFRAME
280
     0
  9
$HALOGAP
280
     0
  9
$OBSCOLOR
 70
   257
  9
$OBSLTYPE
280
     0
  9
$INTERSECTIONDISPLAY
280
     0
  9
$INTERSECTIONCOLOR
 70
   257
  9
$DIMASSOC
280
     2
  9
$PROJECTNAME
  1

  9
$CAMERADISPLAY
290
     0
  9
$LENSLENGTH
 40
50.0
  9
$CAMERAHEIGHT
 40
0.0
  9
$STEPSPERSEC
 40
2.0
  9
$STEPSIZE
 40
6.0
  9
$3DDWFPREC
 40
2.0
  9
$PSOLWIDTH
 40
0.25
  9
$PSOLHEIGHT
 40
4.0
  9
$LOFTANG1
 40
1.570796326794896
  9
$LOFTANG2
 40
1.570796326794896
  9
$LOFTMAG1
 40
0.0
  9
$LOFTMAG2
 40
0.0
  9
$LOFTPARAM
 70
     7
  9
$LOFTNORMALS
280
     1
  9
$LATITUDE
 40
37.795
  9
$LONGITUDE
 40
-122.394
  9
$NORTHDIRECTION
 40
0.0
  9
$TIMEZONE
 70
 -8000
  9
$LIGHTGLYPHDISPLAY
280
     1
  9
$TILEMODELIGHTSYNCH
280
     1
  9
$CMATERIAL
347
D
  9
$SOLIDHIST
280
     1
  9
$SHOWHIST
280
     1
  9
$DWFFRAME
280
     2
  9
$DGNFRAME
280
     0
  9
$REALWORLDSCALE
290
     1
  9
$INTERFERECOLOR
 62
     1
  9
$INTERFEREOBJVS
345
35
  9
$INTERFEREVPVS
346
36
  9
$CSHADOW
280
     0
  9
$SHADOWPLANELOCATION
 40
0.0
  0
ENDSEC
  0
SECTION
  2
CLASSES
  0
CLASS
  1
ACDBDICTIONARYWDFLT
  2
AcDbDictionaryWithDefault
  3
ObjectDBX Classes
 90
    32768
 91
        1
280
     0
281
     0
  0
CLASS
  1
MATERIAL
  2
AcDbMaterial
  3
ObjectDBX Classes
 90
        0
 91
        2
280
     0
281
     0
  0
CLASS
  1
SORTENTSTABLE
  2
AcDbSortentsTable
  3
ObjectDBX Classes
 90
        0
 91
        1
280
     0
281
     0
  0
CLASS
  1
VISUALSTYLE
  2
AcDbVisualStyle
  3
ObjectDBX Classes
 90
     4095
 91
        3
280
     0
281
     0
  0
CLASS
  1
SCALE
  2
AcDbScale
  3
ObjectDBX Classes
 90
     1153
 91
       33
280
     0
281
     0
  0
CLASS
  1
TABLESTYLE
  2
AcDbTableStyle
  3
ObjectDBX Classes
 90
     2047
 91
        1
280
     0
281
     0
  0
CLASS
  1
MLEADERSTYLE
  2
AcDbMLeaderStyle
  3
ACDB_MLEADERSTYLE_CLASS
 90
     4095
 91
        1
280
     0
281
     0
  0
CLASS
  1
DICTIONARYVAR
  2
AcDbDictionaryVar
  3
ObjectDBX Classes
 90
        0
 91
        9
280
     0
281
     0
  0
ENDSEC
  0
SECTION
  2
TABLES
  0
TABLE
  2
VPORT
  5
29
330
0
100
AcDbSymbolTable
 70
     1
  0
VPORT
  5
2A
330
29
100
AcDbSymbolTableRecord
100
AcDbViewportTableRecord
  2
*Active
 70
     0
 10
0.0
 20
0.0
 11
1.0
 21
1.0
 12
57241.71914439723
 22
-1455.506366880924
 13
0.0
 23
0.0
 14
10.0
 24
10.0
 15
10.0
 25
10.0
 16
0.0
 26
0.0
 36
1.0
 17
1423.368744149931
 27
3021.54820392688
 37
14.69318206520979
 40
369.1993541908173
 41
2.259361997226074
 42
50.0
 43
0.0
 44
0.0
 50
0.0
 51
0.0
 71
     0
 72
  1000
 73
     1
 74
     3
 75
     0
 76
     0
 77
     0
 78
     1
281
     0
 65
     1
110
0.0
120
0.0
130
0.0
111
1.0
121
0.0
131
0.0
112
0.0
122
1.0
132
0.0
 79
     0
146
0.0
348
2B
 60
     3
 61
     5
292
     1
282
     1
141
0.0
142
0.0
 63
   250
421
  3355443
  0
ENDTAB
  0
TABLE
  2
LTYPE
  5
26
330
0
100
AcDbSymbolTable
 70
     1
  0
LTYPE
  5
C
330
26
100
AcDbSymbolTableRecord
100
AcDbLinetypeTableRecord
  2
ByBlock
 70
     0
  3

 72
    65
 73
     0
 40
0.0
  0
LTYPE
  5
14
330
26
100
AcDbSymbolTableRecord
100
AcDbLinetypeTableRecord
  2
ByLayer
 70
     0
  3

 72
    65
 73
     0
 40
0.0
  0
LTYPE
  5
9
330
26
100
AcDbSymbolTableRecord
100
AcDbLinetypeTableRecord
  2
Continuous
 70
     0
  3
Solid line
 72
    65
 73
     0
 40
0.0
  0
ENDTAB
  0
TABLE
  2
LAYER
  5
22
102
{ACAD_XDICTIONARY
360
23
102
}
330
0
100
AcDbSymbolTable
 70
     1
  0
LAYER
  5
1
102
{ACAD_XDICTIONARY
360
2
102
}
330
22
100
AcDbSymbolTableRecord
100
AcDbLayerTableRecord
  2
0
 70
     0
 62
     7
  6
Continuous
370
    -3
390
4
347
7
348
0
1071
 33554687
  0
ENDTAB
  0
TABLE
  2
STYLE
  5
25
330
0
100
AcDbSymbolTable
 70
     2
  0
STYLE
  5
5C
330
25
100
AcDbSymbolTableRecord
100
AcDbTextStyleTableRecord
  2
Standard
 70
     0
 40
0.0
 41
1.0
 50
0.0
 71
     0
 42
2.5
  3
txt
  4

  0
STYLE
  5
A
330
25
100
AcDbSymbolTableRecord
100
AcDbTextStyleTableRecord
  2
RR
 70
     0
 40
5.0
 41
1.0
 50
0.0
 71
     0
 42
5.0
  3
arial.ttf
  4

1001
ACAD
1000
Arial
1071
       34
  0
ENDTAB
  0
TABLE
  2
VIEW
  5
27
330
0
100
AcDbSymbolTable
 70
     0
  0
ENDTAB
  0
TABLE
  2
UCS
  5
28
330
0
100
AcDbSymbolTable
 70
     0
  0
ENDTAB
  0
TABLE
  2
APPID
  5
2D
330
0
100
AcDbSymbolTable
 70
     5
  0
APPID
  5
B
330
2D
100
AcDbSymbolTableRecord
100
AcDbRegAppTableRecord
  2
ACAD
 70
     0
  0
APPID
  5
1D
330
2D
100
AcDbSymbolTableRecord
100
AcDbRegAppTableRecord
  2
ACAD_PSEXT
 70
     0
  0
APPID
  5
10
330
2D
100
AcDbSymbolTableRecord
100
AcDbRegAppTableRecord
  2
ACAD_DSTYLE_DIMJAG
 70
     0
  0
APPID
  5
11
330
2D
100
AcDbSymbolTableRecord
100
AcDbRegAppTableRecord
  2
ACAD_DSTYLE_DIMTALN
 70
     0
  0
APPID
  5
F
330
2D
100
AcDbSymbolTableRecord
100
AcDbRegAppTableRecord
  2
ACAD_DSTYLE_DIMBREAK
 70
     0
  0
ENDTAB
  0
TABLE
  2
DIMSTYLE
  5
2E
330
0
100
AcDbSymbolTable
 70
     3
100
AcDbDimStyleTable
 71
     3
340
E
340
2F
340
30
  0
DIMSTYLE
105
30
330
2E
100
AcDbSymbolTableRecord
100
AcDbDimStyleTableRecord
  2
5 TIMES
 70
     0
 41
9.0
 42
0.02
 43
3.75
 44
0.05
 73
     0
 74
     0
 77
     1
 78
     1
140
9.0
141
0.6
143
0.0394
144
0.2
147
2.5
171
     4
176
   250
177
   250
179
     2
271
     2
272
     2
273
     8
274
     4
288
     1
340
A
371
     5
372
     5
1001
ACAD_DSTYLE_DIMBREAK
1070
   391
1040
3.75
1001
ACAD_DSTYLE_DIMJAG
1070
   388
1040
1.5
1001
ACAD_DSTYLE_DIMTALN
1070
   392
1070
     0
  0
DIMSTYLE
105
E
330
2E
100
AcDbSymbolTableRecord
100
AcDbDimStyleTableRecord
  2
DEEP
 70
     0
 41
5.0
 42
0.02
 43
3.75
 44
0.05
 73
     0
 74
     0
 77
     1
 78
     1
140
5.0
141
0.6
143
0.0394
147
1.5
171
     4
176
   250
177
   250
179
     2
271
     2
272
     2
273
     8
274
     4
288
     1
340
A
371
     5
372
     5
1001
ACAD_DSTYLE_DIMBREAK
1070
   391
1040
3.75
1001
ACAD_DSTYLE_DIMJAG
1070
   388
1040
1.5
1001
ACAD_DSTYLE_DIMTALN
1070
   392
1070
     0
  0
DIMSTYLE
105
2F
330
2E
100
AcDbSymbolTableRecord
100
AcDbDimStyleTableRecord
  2
DEEP STRIP LAYOUT
 70
     0
 41
20.0
 42
0.02
 43
3.75
 44
0.05
 73
     0
 74
     0
 77
     1
 78
     1
140
20.0
141
0.6
143
0.0394
147
6.0
171
     4
176
   250
177
   250
179
     2
271
     2
272
     2
273
     8
274
     4
288
     1
340
A
371
     5
372
     5
1001
ACAD_DSTYLE_DIMBREAK
1070
   391
1040
3.75
1001
ACAD_DSTYLE_DIMJAG
1070
   388
1040
1.5
1001
ACAD_DSTYLE_DIMTALN
1070
   392
1070
     0
  0
ENDTAB
  0
TABLE
  2
BLOCK_RECORD
  5
15
330
0
100
AcDbSymbolTable
 70
     0
  0
BLOCK_RECORD
  5
16
102
{ACAD_XDICTIONARY
360
17
102
}
330
15
100
AcDbSymbolTableRecord
100
AcDbBlockTableRecord
  2
*Model_Space
340
1B
 70
     0
280
     1
281
     0
  0
BLOCK_RECORD
  5
1E
330
15
100
AcDbSymbolTableRecord
100
AcDbBlockTableRecord
  2
*Paper_Space
340
21
 70
     0
280
     1
281
     0
  0
ENDTAB
  0
ENDSEC
  0
SECTION
  2
BLOCKS
  0
BLOCK
  5
19
330
16
100
AcDbEntity
  8
0
100
AcDbBlockBegin
  2
*Model_Space
 70
     0
 10
0.0
 20
0.0
 30
0.0
  3
*Model_Space
  1

  0
ENDBLK
  5
1A
330
16
100
AcDbEntity
  8
0
100
AcDbBlockEnd
  0
BLOCK
  5
1F
330
1E
100
AcDbEntity
 67
     1
  8
0
100
AcDbBlockBegin
  2
*Paper_Space
 70
     0
 10
0.0
 20
0.0
 30
0.0
  3
*Paper_Space
  1

  0
ENDBLK
  5
20
330
1E
100
AcDbEntity
 67
     1
  8
0
100
AcDbBlockEnd
  0
ENDSEC
  0
SECTION
  2
ENTITIES
  0
LINE
  5
68
330
16
100
AcDbEntity
  8
0
  6
ByBlock
 62
     0
 48
25.0
100
AcDbLine
 10
4330.727610752721
 20
72.64199344578355
 30
0.0
 11
4330.520456693615
 21
72.17412148339031
 31
0.0
  0
LINE
  5
69
330
16
100
AcDbEntity
  8
0
  6
ByBlock
 62
     0
 48
25.0
100
AcDbLine
 10
4331.319620124021
 20
72.9837902156321
 30
0.0
 11
4330.727610752721
 21
72.64199344578355
 31
0.0
  0
LINE
  5
6A
330
16
100
AcDbEntity
  8
0
  6
ByBlock
 62
   252
 48
25.0
100
AcDbLine
 10
4169.633791530847
 20
-85.18699060761127
 30
0.0
 11
4146.754862027796
 21
-85.18699060761127
 31
0.0
  0
LINE
  5
6B
330
16
100
AcDbEntity
  8
0
  6
ByBlock
 62
    52
 48
25.0
100
AcDbLine
 10
4267.28002270311
 20
-39.10899360853818
 30
0.0
 11
4266.995683627603
 21
-38.49922649334167
 31
0.0
  0
ARC
  5
6C
330
16
100
AcDbEntity
  8
0
  6
ByBlock
 62
    52
 48
25.0
100
AcDbCircle
 10
4267.053445756356
 20
-39.21464817398101
 30
0.0
 40
0.2500000000001155
100
AcDbArc
 50
325.2300000025284
 51
25.00000000190042
  0
LINE
  5
6D
330
16
100
AcDbEntity
  8
0
  6
ByBlock
 62
    52
 48
25.0
100
AcDbLine
 10
4266.619969384315
 20
-40.27741472036814
 30
0.0
 11
4267.258807736733
 21
-39.3572190581599
 31
0.0
  0
ARC
  5
6E
330
16
100
AcDbEntity
  8
0
  6
ByBlock
 62
    52
 48
25.0
100
AcDbCircle
 10
4266.825331364663
 20
-40.41998560455818
 30
0.0
 40
0.2499999999825136
100
AcDbArc
 50
145.2299999966455
 51
200.000000001395
  0
LINE
  5
6F
330
16
100
AcDbEntity
  8
0
  6
ByBlock
 62
    52
 48
25.0
100
AcDbLine
 10
4273.813215199341
 20
-60.34998975009057
 30
0.0
 11
4266.590408209486
 21
-40.50549064038932
 31
0.0
  0
ARC
  5
70
330
16
100
AcDbEntity
  8
0
  6
ByBlock
 62
    52
 48
25.0
100
AcDbCircle
 10
4275.880538965073
 20
-59.59754543476766
 30
0.0
 40
2.199999999998623
100
AcDbArc
 50
200.0000000001384
 51
294.9999999996652
  0
LINE
  5
71
330
16
100
AcDbEntity
  8
0
  6
ByBlock
 62
    52
 48
25.0
100
AcDbLine
 10
4280.914280666599
 20
-59.6777045518902
 30
0.0
 11
4276.810299140896
 21
-61.59142256625
 31
0.0
  0
ARC
  5
72
330
16
100
AcDbEntity
  8
0
  6
ByBlock
 62
    52
 48
25.0
100
AcDbCircle
 10
4279.98452049079
 20
-57.68382742041376
 30
0.0
 40
2.199999999988468
100
AcDbArc
 50
294.9999999996157
 51
30.00000000019781
  0
LINE
  5
73
330
16
100
AcDbEntity
  8
0
  6
ByBlock
 62
    52
 48
25.0
100
AcDbLine
 10
4271.330738949866
 20
-38.29503811397353
 30
0.0
 11
4281.889776379102
 21
-56.58382742041339
 31
0.0
  0
ARC
  5
74
330
16
100
AcDbEntity
  8
0
  6
ByBlock
 62
    52
 48
25.0
100
AcDbCircle
 10
4271.114232598921
 20
-38.42003811397353
 30
0.0
 40
0.2500000000010336
100
AcDbArc
 50
30.00000000010755
 51
84.769999999729
  0
LINE
  5
75
330
16
100
AcDbEntity
  8
0
  6
ByBlock
 62
    52
 48
25.0
100
AcDbLine
 10
4270.021472950684
 20
-38.0689671119726
 30
0.0
 11
4271.137021101822
 21
-38.17107891222349
 31
0.0
  0
ARC
  5
76
330
16
100
AcDbEntity
  8
0
  6
ByBlock
 62
    52
 48
25.0
100
AcDbCircle
 10
4270.044261453572
 20
-37.8200079102462
 30
0.0
 40
0.2499999999747066
100
AcDbArc
 50
204.9999999972058
 51
264.7700000026588
  0
LINE
  5
77
330
16
100
AcDbEntity
  8
0
  6
ByBlock
 62
    52
 48
25.0
100
AcDbLine
 10
4269.533345431322
 20
-37.31589536046613
 30
0.0
 11
4269.81768450683
 21
-37.92566247565992
 31
0.0
  0
ARC
  5
78
330
16
100
AcDbEntity
  8
0
  6
ByBlock
 62
    52
 48
25.0
100
AcDbCircle
 10
4243.125689691179
 20
16.00282291234157
 30
0.0
 40
59.49999999953732
100
AcDbArc
 50
296.3482604150168
 51
303.6517395848859
  0
LINE
  5
79
330
16
100
AcDbEntity
  8
0
  6
ByBlock
 62
    52
 48
25.0
100
AcDbLine
 10
4276.483130617008
 20
-34.07736536967695
 30
0.0
 11
4276.097226342608
 21
-33.52623694940485
 31
0.0
  0
ARC
  5
7A
330
16
100
AcDbEntity
  8
0
  6
ByBlock
 62
    52
 48
25.0
100
AcDbCircle
 10
4276.278342605954
 20
-34.2207594787576
 30
0.0
 40
0.2499999999815575
100
AcDbArc
 50
335.2299999951962
 51
35.00000000099313
  0
LINE
  5
7B
330
16
100
AcDbEntity
  8
0
  6
ByBlock
 62
    52
 48
25.0
100
AcDbLine
 10
4276.035999188069
 20
-35.34265259536733
 30
0.0
 11
4276.505341850599
 21
-34.32550365721727
 31
0.0
  0
ARC
  5
7C
330
16
100
AcDbEntity
  8
0
  6
ByBlock
 62
    52
 48
25.0
100
AcDbCircle
 10
4276.262998432765
 20
-35.44739677381813
 30
0.0
 40
0.2500000000240508
100
AcDbArc
 50
155.2300000019784
 51
209.9999999963576
  0
LINE
  5
7D
330
16
100
AcDbEntity
  8
0
  6
ByBlock
 62
    52
 48
25.0
100
AcDbLine
 10
4286.605529511027
 20
-53.8611860802639
 30
0.0
 11
4276.04649208179
 21
-35.57239677381677
 31
0.0
  0
ARC
  5
7E
330
16
100
AcDbEntity
  8
0
  6
ByBlock
 62
    52
 48
25.0
100
AcDbCircle
 10
4288.510785399346
 20
-52.76118608026081
 30
0.0
 40
2.200000000002833
100
AcDbArc
 50
210.0000000001752
 51
304.9999999998639
  0
LINE
  5
7F
330
16
100
AcDbEntity
  8
0
  6
ByBlock
 62
    52
 48
25.0
100
AcDbLine
 10
4293.481972738286
 20
-51.96602732696101
 30
0.0
 11
4289.772653559317
 21
-54.56332057770123
 31
0.0
  0
ARC
  5
80
330
16
100
AcDbEntity
  8
0
  6
ByBlock
 62
    52
 48
25.0
100
AcDbCircle
 10
4292.220104578293
 20
-50.16389282952445
 30
0.0
 40
2.200000000011551
100
AcDbArc
 50
305.0000000003848
 51
39.99999999962875
  0
LINE
  5
81
330
16
100
AcDbEntity
  8
0
  6
ByBlock
 62
    52
 48
25.0
100
AcDbLine
 10
4280.330965493726
 20
-32.57237619353146
 30
0.0
 11
4293.905402353171
 21
-48.74976008821613
 31
0.0
  0
ARC
  5
82
330
16
100
AcDbEntity
  8
0
  6
ByBlock
 62
    52
 48
25.0
100
AcDbCircle
 10
4280.139454382952
 20
-32.73307309594065
 30
0.0
 40
0.2499999999885693
100
AcDbArc
 50
39.99999999879194
 51
94.77000000069518
  0
LINE
  5
83
330
16
100
AcDbEntity
  8
0
  6
ByBlock
 62
    52
 48
25.0
100
AcDbLine
 10
4279.002333369462
 20
-32.5770913728702
 30
0.0
 11
4280.11866536559
 21
-32.48393896188555
 31
0.0
  0
ARC
  5
84
330
16
100
AcDbEntity
  8
0
  6
ByBlock
 62
    52
 48
25.0
100
AcDbCircle
 10
4278.9815443521
 20
-32.32795723881009
 30
0.0
 40
0.2499999999942932
100
AcDbArc
 50
214.9999999991446
 51
274.7700000002786
  0
LINE
  5
85
330
16
100
AcDbEntity
  8
0
  6
ByBlock
 62
    52
 48
25.0
100
AcDbLine
 10
4278.390852066623
 20
-31.92022292762067
 30
0.0
 11
4278.77675634103
 21
-32.47135134789187
 31
0.0
  0
ARC
  5
86
330
16
100
AcDbEntity
  8
0
  6
ByBlock
 62
    52
 48
25.0
100
AcDbCircle
 10
4243.125689690561
 20
16.00282291334974
 30
0.0
 40
59.50000000071997
100
AcDbArc
 50
306.3482604149511
 51
313.6517395847469
  0
LINE
  5
87
330
16
100
AcDbEntity
  8
0
  6
ByBlock
 62
    52
 48
25.0
100
AcDbLine
 10
4284.67268956804
 20
-27.52407595165915
 30
0.0
 11
4284.196945600859
 21
-27.04833198447523
 31
0.0
  0
ARC
  5
88
330
16
100
AcDbEntity
  8
0
  6
ByBlock
 62
    52
 48
25.0
100
AcDbCircle
 10
4284.495912872742
 20
-27.70085264694831
 30
0.0
 40
0.2499999999959487
100
AcDbArc
 50
345.2299999974329
 51
44.99999999846162
  0
LINE
  5
89
330
16
100
AcDbEntity
  8
0
  6
ByBlock
 62
    52
 48
25.0
100
AcDbLine
 10
4284.452065891179
 20
-28.84778417911093
 30
0.0
 11
4284.737652124524
 21
-27.76458752080817
 31
0.0
  0
ARC
  5
8A
330
16
100
AcDbEntity
  8
0
  6
ByBlock
 62
    52
 48
25.0
100
AcDbCircle
 10
4284.693805142989
 20
-28.91151905297147
 30
0.0
 40
0.2500000000228582
100
AcDbArc
 50
165.2299999989878
 51
219.999999995526
  0
LINE
  5
8B
330
16
100
AcDbEntity
  8
0
  6
ByBlock
 62
    52
 48
25.0
100
AcDbLine
 10
4298.076730891632
 20
-45.24959985008081
 30
0.0
 11
4284.502294032179
 21
-29.0722159553925
 31
0.0
  0
ARC
  5
8C
330
16
100
AcDbEntity
  8
0
  6
ByBlock
 62
    52
 48
25.0
100
AcDbCircle
 10
4299.762028666504
 20
-43.83546710876522
 30
0.0
 40
2.200000000004004
100
AcDbArc
 50
220.0000000000464
 51
314.9999999998342
  0
LINE
  5
8D
330
16
100
AcDbEntity
  8
0
  6
ByBlock
 62
    52
 48
25.0
100
AcDbLine
 10
4304.519614631092
 20
-42.18915098139769
 30
0.0
 11
4301.317663585112
 21
-45.39110202738356
 31
0.0
  0
ARC
  5
8E
330
16
100
AcDbEntity
  8
0
  6
ByBlock
 62
    52
 48
25.0
100
AcDbCircle
 10
4302.96397971249
 20
-40.6335160627882
 30
0.0
 40
2.19999999999512
100
AcDbArc
 50
314.9999999998526
 51
50.00000000010272
  0
LINE
  5
8F
330
16
100
AcDbEntity
  8
0
  6
ByBlock
 62
    52
 48
25.0
100
AcDbLine
 10
4288.200728559103
 20
-25.37378142848593
 30
0.0
 11
4304.378112453792
 21
-38.94821828792556
 31
0.0
  0
ARC
  5
90
330
16
100
AcDbEntity
  8
0
  6
ByBlock
 62
    52
 48
25.0
100
AcDbCircle
 10
4288.040031656674
 20
-25.56529253926328
 30
0.0
 40
0.2500000000010913
100
AcDbArc
 50
49.99999999840776
 51
104.7699999989102
  0
LINE
  5
91
330
16
100
AcDbEntity
  8
0
  6
ByBlock
 62
    52
 48
25.0
100
AcDbLine
 10
4286.893100124522
 20
-25.60913952081956
 30
0.0
 11
4287.976296782828
 21
-25.32355328747235
 31
0.0
  0
ARC
  5
92
330
16
100
AcDbEntity
  8
0
  6
ByBlock
 62
    52
 48
25.0
100
AcDbCircle
 10
4286.829365250669
 20
-25.36740026902772
 30
0.0
 40
0.250000000005187
100
AcDbArc
 50
225.0000000007277
 51
284.7700000002191
  0
LINE
  5
93
330
16
100
AcDbEntity
  8
0
  6
ByBlock
 62
    52
 48
25.0
100
AcDbLine
 10
4286.176844588182
 20
-25.06843299714728
 30
0.0
 11
4286.652588555371
 21
-25.54417696433029
 31
0.0
  0
ARC
  5
94
330
16
100
AcDbEntity
  8
0
  6
ByBlock
 62
    52
 48
25.0
100
AcDbCircle
 10
4243.125689691093
 20
16.00282291259168
 30
0.0
 40
59.49999999980207
100
AcDbArc
 50
316.3482604149311
 51
323.6517395849529
  0
LINE
  5
95
330
16
100
AcDbEntity
  8
0
  6
ByBlock
 62
    52
 48
25.0
100
AcDbLine
 10
4291.599863951604
 20
-19.64824373732244
 30
0.0
 11
4291.048735531323
 21
-19.26233946292541
 31
0.0
  0
ARC
  5
96
330
16
100
AcDbEntity
  8
0
  6
ByBlock
 62
    52
 48
25.0
100
AcDbCircle
 10
4291.456469842494
 20
-19.85303174839328
 30
0.0
 40
0.2500000000123228
100
AcDbArc
 50
355.230000000681
 51
54.99999999565037
  0
LINE
  5
97
330
16
100
AcDbEntity
  8
0
  6
ByBlock
 62
    52
 48
25.0
100
AcDbLine
 10
4291.612451565582
 20
-20.9901527618822
 30
0.0
 11
4291.705603976573
 21
-19.8738207657525
 31
0.0
  0
ARC
  5
98
330
16
100
AcDbEntity
  8
0
  6
ByBlock
 62
    52
 48
25.0
100
AcDbCircle
 10
4291.86158569964
 20
-21.01094177925757
 30
0.0
 40
0.2499999999930178
100
AcDbArc
 50
175.2299999965698
 51
229.9999999988527
  0
LINE
  5
99
330
16
100
AcDbEntity
  8
0
  6
ByBlock
 62
    52
 48
25.0
100
AcDbLine
 10
4307.87827269193
 20
-34.7768897494816
 30
0.0
 11
4291.700888797218
 21
-21.20245289002832
 31
0.0
  0
ARC
  5
9A
330
16
100
AcDbEntity
  8
0
  6
ByBlock
 62
    52
 48
25.0
100
AcDbCircle
 10
4309.292405433232
 20
-33.09159197462077
 30
0.0
 40
2.199999999994004
100
AcDbArc
 50
230.0000000000943
 51
325.0000000001788
  0
LINE
  5
9B
330
16
100
AcDbEntity
  8
0
  6
ByBlock
 62
    52
 48
25.0
100
AcDbLine
 10
4313.691833181408
 20
-30.64414095561551
 30
0.0
 11
4311.094539930666
 21
-34.35346013458639
 31
0.0
  0
ARC
  5
9C
330
16
100
AcDbEntity
  8
0
  6
ByBlock
 62
    52
 48
25.0
100
AcDbCircle
 10
4311.889698683976
 20
-29.38227279564717
 30
0.0
 40
2.199999999993466
100
AcDbArc
 50
325.0000000001468
 51
59.99999999998317
  0
LINE
  5
9D
330
16
100
AcDbEntity
  8
0
  6
ByBlock
 62
    52
 48
25.0
100
AcDbLine
 10
4294.700909377527
 20
-16.917979478103
 30
0.0
 11
4312.989698683973
 21
-27.47701690732811
 31
0.0
  0
ARC
  5
9E
330
16
100
AcDbEntity
  8
0
  6
ByBlock
 62
    52
 48
25.0
100
AcDbCircle
 10
4294.575909377527
 20
-17.13448582904516
 30
0.0
 40
0.249999999998631
100
AcDbArc
 50
59.99999999952444
 51
114.7699999995702
  0
LINE
  5
9F
330
16
100
AcDbEntity
  8
0
  6
ByBlock
 62
    52
 48
25.0
100
AcDbLine
 10
4293.454016260926
 20
-17.37682924690125
 30
0.0
 11
4294.471165199079
 21
-16.90748658437496
 31
0.0
  0
ARC
  5
A0
330
16
100
AcDbEntity
  8
0
  6
ByBlock
 62
    52
 48
25.0
100
AcDbCircle
 10
4293.349272082479
 20
-17.14983000222719
 30
0.0
 40
0.2500000000030107
100
AcDbArc
 50
235.0000000006494
 51
294.7699999995047
  0
LINE
  5
A1
330
16
100
AcDbEntity
  8
0
  6
ByBlock
 62
    52
 48
25.0
100
AcDbLine
 10
4292.654749553112
 20
-16.96871373890735
 30
0.0
 11
4293.205877973393
 21
-17.35461801330348
 31
0.0
  0
ARC
  5
A2
330
16
100
AcDbEntity
  8
0
  6
ByBlock
 62
    52
 48
25.0
100
AcDbCircle
 10
4243.125689692504
 20
16.00282291188637
 30
0.0
 40
59.49999999823802
100
AcDbArc
 50
326.3482604147818
 51
333.651739584978
  0
LINE
  5
A3
330
16
100
AcDbEntity
  8
0
  6
ByBlock
 62
    52
 48
25.0
100
AcDbLine
 10
4297.054175079363
 20
-10.68917190313004
 30
0.0
 11
4296.444407964176
 21
-10.40483282762216
 31
0.0
  0
ARC
  5
A4
330
16
100
AcDbEntity
  8
0
  6
ByBlock
 62
    52
 48
25.0
100
AcDbCircle
 10
4296.948520513956
 20
-10.91574884988427
 30
0.0
 40
0.24999999998088
100
AcDbArc
 50
5.230000000118978
 51
65.0000000054378
  0
LINE
  5
A5
330
16
100
AcDbEntity
  8
0
  6
ByBlock
 62
    52
 48
25.0
100
AcDbLine
 10
4297.299591515926
 20
-12.00850849812104
 30
0.0
 11
4297.197479715687
 21
-10.89296034698509
 31
0.0
  0
ARC
  5
A6
330
16
100
AcDbEntity
  8
0
  6
ByBlock
 62
    52
 48
25.0
100
AcDbCircle
 10
4297.548550717663
 20
-11.98571999523392
 30
0.0
 40
0.2499999999883141
100
AcDbArc
 50
185.2299999972009
 51
240.0000000023811
  0
LINE
  5
A7
330
16
100
AcDbEntity
  8
0
  6
ByBlock
 62
    52
 48
25.0
100
AcDbLine
 10
4315.712340024118
 20
-22.76126377540186
 30
0.0
 11
4297.423550717677
 21
-12.20222634617494
 31
0.0
  0
ARC
  5
A8
330
16
100
AcDbEntity
  8
0
  6
ByBlock
 62
    52
 48
25.0
100
AcDbCircle
 10
4316.812340024116
 20
-20.85600788707325
 30
0.0
 40
2.200000000005296
100
AcDbArc
 50
240.0000000000157
 51
334.9999999999869
  0
LINE
  5
A9
330
16
100
AcDbEntity
  8
0
  6
ByBlock
 62
    52
 48
25.0
100
AcDbLine
 10
4320.719935169953
 20
-17.68178653720679
 30
0.0
 11
4318.806217155601
 21
-21.78576806290676
 31
0.0
  0
ARC
  5
AA
330
16
100
AcDbEntity
  8
0
  6
ByBlock
 62
    52
 48
25.0
100
AcDbCircle
 10
4318.726058038475
 20
-16.75202636137101
 30
0.0
 40
2.19999999999877
100
AcDbArc
 50
334.9999999998806
 51
69.99999999998403
  0
LINE
  5
AB
330
16
100
AcDbEntity
  8
0
  6
ByBlock
 62
    52
 48
25.0
100
AcDbLine
 10
4299.6340032441
 20
-7.461895605803874
 30
0.0
 11
4319.478502353798
 21
-14.68470259564583
 31
0.0
  0
ARC
  5
AC
330
16
100
AcDbEntity
  8
0
  6
ByBlock
 62
    52
 48
25.0
100
AcDbCircle
 10
4299.54849820827
 20
-7.696818760985252
 30
0.0
 40
0.2499999999841347
100
AcDbArc
 50
69.99999999913372
 51
124.7700000018121
  0
LINE
  5
AD
330
16
100
AcDbEntity
  8
0
  6
ByBlock
 62
    52
 48
25.0
100
AcDbLine
 10
4298.485731661872
 20
-8.130295133030813
 30
0.0
 11
4299.405927324086
 21
-7.491456780631779
 31
0.0
  0
ARC
  5
AE
330
16
100
AcDbEntity
  8
0
  6
ByBlock
 62
    52
 48
25.0
100
AcDbCircle
 10
4298.343160777687
 20
-7.924933152650737
 30
0.0
 40
0.2500000000070113
100
AcDbArc
 50
245.0000000007952
 51
304.7699999982858
  0
LINE
  5
AF
330
16
100
AcDbEntity
  8
0
  6
ByBlock
 62
    52
 48
25.0
100
AcDbLine
 10
4297.627739097057
 20
-7.867171023909577
 30
0.0
 11
4298.237506212251
 21
-8.151510099417464
 31
0.0
  0
ARC
  5
B0
330
16
100
AcDbEntity
  8
0
  6
ByBlock
 62
    52
 48
25.0
100
AcDbCircle
 10
4243.125689691821
 20
16.00282291242388
 30
0.0
 40
59.49999999908814
100
AcDbArc
 50
336.3482604149174
 51
343.6517395850777
  0
LINE
  5
B1
330
16
100
AcDbEntity
  8
0
  6
ByBlock
 62
    52
 48
25.0
100
AcDbLine
 10
4300.869896467738
 20
-0.919077313255002
 30
0.0
 11
4300.220018122869
 21
-0.7449429355638131
 31
0.0
  0
ARC
  5
B2
330
16
100
AcDbEntity
  8
0
  6
ByBlock
 62
    52
 48
25.0
100
AcDbCircle
 10
4300.805191706458
 20
-1.16055876984069
 30
0.0
 40
0.2500000000124035
100
AcDbArc
 50
15.23000000162639
 51
74.99999999979071
  0
LINE
  5
B3
330
16
100
AcDbEntity
  8
0
  6
ByBlock
 62
    52
 48
25.0
100
AcDbLine
 10
4301.340684872623
 20
-2.175754103860526
 30
0.0
 11
4301.046411476534
 21
-1.094885163797698
 31
0.0
  0
ARC
  5
B4
330
16
100
AcDbEntity
  8
0
  6
ByBlock
 62
    52
 48
25.0
100
AcDbCircle
 10
4301.58190464272
 20
-2.11008049779366
 30
0.0
 40
0.2500000000419955
100
AcDbArc
 50
195.2300000055284
 51
249.9999999986751
  0
LINE
  5
B5
330
16
100
AcDbEntity
  8
0
  6
ByBlock
 62
    52
 48
25.0
100
AcDbLine
 10
4321.340898716552
 20
-9.567810642884978
 30
0.0
 11
4301.496399606869
 21
-2.345003653027561
 31
0.0
  0
ARC
  5
B6
330
16
100
AcDbEntity
  8
0
  6
ByBlock
 62
    52
 48
25.0
100
AcDbCircle
 10
4322.093343031869
 20
-7.500486877156617
 30
0.0
 40
2.199999999999644
100
AcDbArc
 50
250.0000000000108
 51
345.0000000001709
  0
LINE
  5
B7
330
16
100
AcDbEntity
  8
0
  6
ByBlock
 62
    52
 48
25.0
100
AcDbLine
 10
4325.390375274219
 20
-3.695942305884273
 30
0.0
 11
4324.218379849706
 21
-8.069888776376501
 31
0.0
  0
ARC
  5
B8
330
16
100
AcDbEntity
  8
0
  6
ByBlock
 62
    52
 48
25.0
100
AcDbCircle
 10
4323.265338456382
 20
-3.126540406665526
 30
0.0
 40
2.200000000000414
100
AcDbArc
 50
345.0000000001961
 51
79.99999999994253
  0
LINE
  5
B9
330
16
100
AcDbEntity
  8
0
  6
ByBlock
 62
    52
 48
25.0
100
AcDbLine
 10
4302.850120597947
 20
2.707151864962725
 30
0.0
 11
4323.647364447249
 21
-0.9599633500383788
 31
0.0
  0
ARC
  5
BA
330
16
100
AcDbEntity
  8
0
  6
ByBlock
 62
    52
 48
25.0
100
AcDbCircle
 10
4302.806708553537
 20
2.460949926707144
 30
0.0
 40
0.2500000000007879
100
AcDbArc
 50
80.0000000012149
 51
134.7699999975465
  0
LINE
  5
BB
330
16
100
AcDbEntity
  8
0
  6
ByBlock
 62
    52
 48
25.0
100
AcDbLine
 10
4301.835360201061
 20
1.849511560715654
 30
0.0
 11
4302.630642907788
 21
2.63843482293123
 31
0.0
  0
ARC
  5
BC
330
16
100
AcDbEntity
  8
0
  6
ByBlock
 62
    52
 48
25.0
100
AcDbCircle
 10
4301.659294555313
 20
2.0269964569502
 30
0.0
 40
0.2500000000108407
100
AcDbArc
 50
254.9999999997772
 51
314.7699999958236
  0
LINE
  5
BD
330
16
100
AcDbEntity
  8
0
  6
ByBlock
 62
    52
 48
25.0
100
AcDbLine
 10
4300.944711449155
 20
1.959649378058202
 30
0.0
 11
4301.594589794032
 21
1.785515000367922
 31
0.0
  0
ARC
  5
BE
330
16
100
AcDbEntity
  8
0
  6
ByBlock
 62
    52
 48
25.0
100
AcDbCircle
 10
4243.125689687695
 20
16.0028229134507
 30
0.0
 40
59.50000000333997
100
AcDbArc
 50
346.348260415074
 51
353.6517395846663
  0
LINE
  5
BF
330
16
100
AcDbEntity
  8
0
  6
ByBlock
 62
    52
 48
25.0
100
AcDbLine
 10
4302.931089353195
 20
9.365180652096569
 30
0.0
 11
4302.260846003293
 21
9.423819347014614
 31
0.0
  0
ARC
  5
C0
330
16
100
AcDbEntity
  8
0
  6
ByBlock
 62
    52
 48
25.0
100
AcDbCircle
 10
4302.909300417486
 20
9.116131977572422
 30
0.0
 40
0.2500000000053441
100
AcDbArc
 50
25.22999999859211
 51
84.99999999510931
  0
LINE
  5
C1
330
16
100
AcDbEntity
  8
0
  6
ByBlock
 62
    52
 48
25.0
100
AcDbLine
 10
4303.612945058957
 20
8.209347154243914
 30
0.0
 11
4303.135451415226
 21
9.222695227447729
 31
0.0
  0
ARC
  5
C2
330
16
100
AcDbEntity
  8
0
  6
ByBlock
 62
    52
 48
25.0
100
AcDbCircle
 10
4303.839096056676
 20
8.315910404111491
 30
0.0
 40
0.2499999999842005
100
AcDbArc
 50
205.2299999990281
 51
260.0000000020654
  0
LINE
  5
C3
330
16
100
AcDbEntity
  8
0
  6
ByBlock
 62
    52
 48
25.0
100
AcDbLine
 10
4324.59292786158
 20
4.40259325086572
 30
0.0
 11
4303.795684012271
 21
8.069708465872281
 31
0.0
  0
ARC
  5
C4
330
16
100
AcDbEntity
  8
0
  6
ByBlock
 62
    52
 48
25.0
100
AcDbCircle
 10
4324.974953852441
 20
6.569170307490594
 30
0.0
 40
2.199999999999131
100
AcDbArc
 50
260.0000000003598
 51
354.9999999998544
  0
LINE
  5
C5
330
16
100
AcDbEntity
  8
0
  6
ByBlock
 62
    52
 48
25.0
100
AcDbLine
 10
4327.561244534983
 20
10.88843893854391
 30
0.0
 11
4327.166582188241
 21
6.377427673440251
 31
0.0
  0
ARC
  5
C6
330
16
100
AcDbEntity
  8
0
  6
ByBlock
 62
    52
 48
25.0
100
AcDbCircle
 10
4325.369616199161
 20
11.08018157257356
 30
0.0
 40
2.20000000001437
100
AcDbArc
 50
355.0000000004384
 51
89.99999999958312
  0
LINE
  5
C7
330
16
100
AcDbEntity
  8
0
  6
ByBlock
 62
    52
 48
25.0
100
AcDbLine
 10
4304.251541340724
 20
13.28018157258066
 30
0.0
 11
4325.369616199175
 21
13.28018157258793
 31
0.0
  0
ARC
  5
C8
330
16
100
AcDbEntity
  8
0
  6
ByBlock
 62
    52
 48
25.0
100
AcDbCircle
 10
4304.251541340724
 20
13.03018157257861
 30
0.0
 40
0.2500000000058181
100
AcDbArc
 50
90.0
 51
144.7699999989974
  0
LINE
  5
C9
330
16
100
AcDbEntity
  8
0
  6
ByBlock
 62
    52
 48
25.0
100
AcDbLine
 10
4303.401125110343
 20
12.25935945798028
 30
0.0
 11
4304.04733059895
 21
13.17439659588581
 31
0.0
  0
ARC
  5
CA
330
16
100
AcDbEntity
  8
0
  6
ByBlock
 62
    52
 48
25.0
100
AcDbCircle
 10
4303.196914368571
 20
12.4035744812968
 30
0.0
 40
0.2500000000093106
100
AcDbArc
 50
265.0000000001325
 51
324.7699999973565
  0
LINE
  5
CB
330
16
100
AcDbEntity
  8
0
  6
ByBlock
 62
    52
 48
25.0
100
AcDbLine
 10
4302.504882082984
 20
12.21316450168342
 30
0.0
 11
4303.175125432884
 21
12.15452580676447
 31
0.0
  0
ARC
  5
CC
330
16
100
AcDbEntity
  8
0
  6
ByBlock
 62
    52
 48
25.0
100
AcDbCircle
 10
4243.125689689462
 20
16.00282291274197
 30
0.0
 40
59.50000000150613
100
AcDbArc
 50
356.3482604151166
 51
3.651739584883445
  0
LINE
  5
CD
330
16
100
AcDbEntity
  8
0
  6
ByBlock
 62
    52
 48
25.0
100
AcDbLine
 10
4303.175125432884
 20
19.85112001872039
 30
0.0
 11
4302.504882082984
 21
19.79248132380053
 31
0.0
  0
ARC
  5
CE
330
16
100
AcDbEntity
  8
0
  6
ByBlock
 62
    52
 48
25.0
100
AcDbCircle
 10
4303.196914368563
 20
19.60207134418078
 30
0.0
 40
0.2500000000155651
100
AcDbArc
 50
35.23000000118353
 51
94.99999999777731
  0
LINE
  5
CF
330
16
100
AcDbEntity
  8
0
  6
ByBlock
 62
    52
 48
25.0
100
AcDbLine
 10
4304.047330598943
 20
18.83124922958541
 30
0.0
 11
4303.401125110343
 21
19.74628636749457
 31
0.0
  0
ARC
  5
D0
330
16
100
AcDbEntity
  8
0
  6
ByBlock
 62
    52
 48
25.0
100
AcDbCircle
 10
4304.251541340731
 20
18.97546425291875
 30
0.0
 40
0.2500000000336513
100
AcDbArc
 50
215.2300000039438
 51
269.9999999966649
  0
LINE
  5
D1
330
16
100
AcDbEntity
  8
0
  6
ByBlock
 62
    52
 48
25.0
100
AcDbLine
 10
4325.369616199183
 20
18.7254642528851
 30
0.0
 11
4304.251541340716
 21
18.7254642528851
 31
0.0
  0
ARC
  5
D2
330
16
100
AcDbEntity
  8
0
  6
ByBlock
 62
    52
 48
25.0
100
AcDbCircle
 10
4325.369616199168
 20
20.92546425288901
 30
0.0
 40
2.200000000005408
100
AcDbArc
 50
270.0000000004169
 51
4.999999999847129
  0
LINE
  5
D3
330
16
100
AcDbEntity
  8
0
  6
ByBlock
 62
    52
 48
25.0
100
AcDbLine
 10
4327.166582188241
 20
25.62821815203006
 30
0.0
 11
4327.561244534976
 21
21.11720688692821
 31
0.0
  0
ARC
  5
D4
330
16
100
AcDbEntity
  8
0
  6
ByBlock
 62
    52
 48
25.0
100
AcDbCircle
 10
4324.974953852441
 20
25.43647551798108
 30
0.0
 40
2.200000000001837
100
AcDbArc
 50
5.000000000106688
 51
99.99999999964014
  0
LINE
  5
D5
330
16
100
AcDbEntity
  8
0
  6
ByBlock
 62
    52
 48
25.0
100
AcDbLine
 10
4303.795684012278
 20
23.93593735959985
 30
0.0
 11
4324.59292786158
 21
27.60305257461096
 31
0.0
  0
ARC
  5
D6
330
16
100
AcDbEntity
  8
0
  6
ByBlock
 62
    52
 48
25.0
100
AcDbCircle
 10
4303.83909605669
 20
23.68973542134222
 30
0.0
 40
0.2500000000037051
100
AcDbArc
 50
99.99999999878285
 51
154.7699999983293
  0
LINE
  5
D7
330
16
100
AcDbEntity
  8
0
  6
ByBlock
 62
    52
 48
25.0
100
AcDbLine
 10
4303.135451415241
 20
22.78295059802804
 30
0.0
 11
4303.612945058957
 21
23.79629867122913
 31
0.0
  0
ARC
  5
D8
330
16
100
AcDbEntity
  8
0
  6
ByBlock
 62
    52
 48
25.0
100
AcDbCircle
 10
4302.90930041753
 20
22.8895138478822
 30
0.0
 40
0.2499999999700343
100
AcDbArc
 50
274.9999999952674
 51
334.7700000030243
  0
LINE
  5
D9
330
16
100
AcDbEntity
  8
0
  6
ByBlock
 62
    52
 48
25.0
100
AcDbLine
 10
4302.260846003286
 20
22.58182647846752
 30
0.0
 11
4302.931089353195
 21
22.64046517338738
 31
0.0
  0
ARC
  5
DA
330
16
100
AcDbEntity
  8
0
  6
ByBlock
 62
    52
 48
25.0
100
AcDbCircle
 10
4243.12568968931
 20
16.00282291250187
 30
0.0
 40
59.50000000167536
100
AcDbArc
 50
6.348260415061789
 51
13.65173958486267
  0
LINE
  5
DB
330
16
100
AcDbEntity
  8
0
  6
ByBlock
 62
    52
 48
25.0
100
AcDbLine
 10
4301.594589794047
 20
30.22013082511785
 30
0.0
 11
4300.944711449171
 21
30.04599644743212
 31
0.0
  0
ARC
  5
DC
330
16
100
AcDbEntity
  8
0
  6
ByBlock
 62
    52
 48
25.0
100
AcDbCircle
 10
4301.65929455532
 20
29.97864936853034
 30
0.0
 40
0.2500000000105933
100
AcDbArc
 50
45.23000000239847
 51
104.9999999984839
  0
LINE
  5
DD
330
16
100
AcDbEntity
  8
0
  6
ByBlock
 62
    52
 48
25.0
100
AcDbLine
 10
4302.630642907788
 20
29.36721100254636
 30
0.0
 11
4301.835360201075
 21
30.15613426476102
 31
0.0
  0
ARC
  5
DE
330
16
100
AcDbEntity
  8
0
  6
ByBlock
 62
    52
 48
25.0
100
AcDbCircle
 10
4302.806708553544
 20
29.54469589876453
 30
0.0
 40
0.2500000000038254
100
AcDbArc
 50
225.2300000005105
 51
279.9999999987828
  0
LINE
  5
DF
330
16
100
AcDbEntity
  8
0
  6
ByBlock
 62
    52
 48
25.0
100
AcDbLine
 10
4323.647364447257
 20
32.96560917551051
 30
0.0
 11
4302.850120597955
 21
29.29849396050668
 31
0.0
  0
ARC
  5
E0
330
16
100
AcDbEntity
  8
0
  6
ByBlock
 62
    52
 48
25.0
100
AcDbCircle
 10
4323.265338456397
 20
35.13218623214107
 30
0.0
 40
2.199999999999879
100
AcDbArc
 50
279.9999999996401
 51
14.99999999985422
  0
LINE
  5
E1
330
16
100
AcDbEntity
  8
0
  6
ByBlock
 62
    52
 48
25.0
100
AcDbLine
 10
4324.218379849727
 20
40.07553460185682
 30
0.0
 11
4325.390375274234
 21
35.70158813136186
 31
0.0
  0
ARC
  5
E2
330
16
100
AcDbEntity
  8
0
  6
ByBlock
 62
    52
 48
25.0
100
AcDbCircle
 10
4322.093343031898
 20
39.50613270262534
 30
0.0
 40
2.200000000002402
100
AcDbArc
 50
15.00000000015623
 51
110.0000000000115
  0
LINE
  5
E3
330
16
100
AcDbEntity
  8
0
  6
ByBlock
 62
    52
 48
25.0
100
AcDbLine
 10
4301.49639960689
 20
34.35064947849969
 30
0.0
 11
4321.340898716575
 21
41.57345646835437
 31
0.0
  0
ARC
  5
E4
330
16
100
AcDbEntity
  8
0
  6
ByBlock
 62
    52
 48
25.0
100
AcDbCircle
 10
4301.58190464272
 20
34.11572632329262
 30
0.0
 40
0.2500000000081904
100
AcDbArc
 50
109.9999999986714
 51
164.7699999956621
  0
LINE
  5
E5
330
16
100
AcDbEntity
  8
0
  6
ByBlock
 62
    52
 48
25.0
100
AcDbLine
 10
4301.046411476549
 20
33.10053098927438
 30
0.0
 11
4301.340684872651
 21
34.1813999293463
 31
0.0
  0
ARC
  5
E6
330
16
100
AcDbEntity
  8
0
  6
ByBlock
 62
    52
 48
25.0
100
AcDbCircle
 10
4300.80519170648
 20
33.16620459531851
 30
0.0
 40
0.2500000000063221
100
AcDbArc
 50
284.999999998917
 51
344.7699999977325
  0
LINE
  5
E7
330
16
100
AcDbEntity
  8
0
  6
ByBlock
 62
    52
 48
25.0
100
AcDbLine
 10
4300.220018122891
 20
32.75058876105414
 30
0.0
 11
4300.869896467753
 21
32.92472313873896
 31
0.0
  0
ARC
  5
E8
330
16
100
AcDbEntity
  8
0
  6
ByBlock
 62
    52
 48
25.0
100
AcDbCircle
 10
4243.125689690351
 20
16.00282291244616
 30
0.0
 40
59.50000000069397
100
AcDbArc
 50
16.34826041508483
 51
23.65173958505868
  0
LINE
  5
E9
330
16
100
AcDbEntity
  8
0
  6
ByBlock
 62
    52
 48
25.0
100
AcDbLine
 10
4298.237506212266
 20
40.15715592489505
 30
0.0
 11
4297.627739097071
 21
39.87281684939353
 31
0.0
  0
ARC
  5
EA
330
16
100
AcDbEntity
  8
0
  6
ByBlock
 62
    52
 48
25.0
100
AcDbCircle
 10
4298.343160777702
 20
39.93057897814356
 30
0.0
 40
0.249999999991646
100
AcDbArc
 50
55.2299999972355
 51
115.0000000009804
  0
LINE
  5
EB
330
16
100
AcDbEntity
  8
0
  6
ByBlock
 62
    52
 48
25.0
100
AcDbLine
 10
4299.4059273241
 20
39.49710260610573
 30
0.0
 11
4298.485731661894
 21
40.13594095850112
 31
0.0
  0
ARC
  5
EC
330
16
100
AcDbEntity
  8
0
  6
ByBlock
 62
    52
 48
25.0
100
AcDbCircle
 10
4299.548498208307
 20
39.70246458647034
 30
0.0
 40
0.2500000000034862
100
AcDbArc
 50
235.2299999956137
 51
289.9999999955728
  0
LINE
  5
ED
330
16
100
AcDbEntity
  8
0
  6
ByBlock
 62
    52
 48
25.0
100
AcDbLine
 10
4319.478502353813
 20
46.69034842111886
 30
0.0
 11
4299.634003244122
 21
39.46754143126418
 31
0.0
  0
ARC
  5
EE
330
16
100
AcDbEntity
  8
0
  6
ByBlock
 62
    52
 48
25.0
100
AcDbCircle
 10
4318.72605803849
 20
48.75767218685542
 30
0.0
 40
2.200000000010738
100
AcDbArc
 50
290.0000000000026
 51
24.99999999989508
  0
LINE
  5
EF
330
16
100
AcDbEntity
  8
0
  6
ByBlock
 62
    52
 48
25.0
100
AcDbLine
 10
4318.806217155608
 20
53.79141388838525
 30
0.0
 11
4320.719935169981
 21
49.68743236268619
 31
0.0
  0
ARC
  5
F0
330
16
100
AcDbEntity
  8
0
  6
ByBlock
 62
    52
 48
25.0
100
AcDbCircle
 10
4316.812340024138
 20
52.86165371255811
 30
0.0
 40
2.199999999996223
100
AcDbArc
 50
25.00000000002496
 51
120.0000000000038
  0
LINE
  5
F1
330
16
100
AcDbEntity
  8
0
  6
ByBlock
 62
    52
 48
25.0
100
AcDbLine
 10
4297.423550717707
 20
44.20787217164797
 30
0.0
 11
4315.712340024139
 21
54.76690960088035
 31
0.0
  0
ARC
  5
F2
330
16
100
AcDbEntity
  8
0
  6
ByBlock
 62
    52
 48
25.0
100
AcDbCircle
 10
4297.548550717692
 20
43.99136582069423
 30
0.0
 40
0.2499999999964284
100
AcDbArc
 50
119.999999996171
 51
174.7699999975588
  0
LINE
  5
F3
330
16
100
AcDbEntity
  8
0
  6
ByBlock
 62
    52
 48
25.0
100
AcDbLine
 10
4297.197479715708
 20
42.8986061724654
 30
0.0
 11
4297.299591515947
 21
44.014154323605
 31
0.0
  0
ARC
  5
F4
330
16
100
AcDbEntity
  8
0
  6
ByBlock
 62
    52
 48
25.0
100
AcDbCircle
 10
4296.948520513971
 20
42.92139467536503
 30
0.0
 40
0.2499999999868648
100
AcDbArc
 50
294.9999999959599
 51
354.7699999999329
  0
LINE
  5
F5
330
16
100
AcDbEntity
  8
0
  6
ByBlock
 62
    52
 48
25.0
100
AcDbLine
 10
4296.44440796419
 20
42.41047865310884
 30
0.0
 11
4297.054175079385
 21
42.69481772861036
 31
0.0
  0
ARC
  5
F6
330
16
100
AcDbEntity
  8
0
  6
ByBlock
 62
    52
 48
25.0
100
AcDbCircle
 10
4243.125689689804
 20
16.00282291215535
 30
0.0
 40
59.50000000131146
100
AcDbArc
 50
26.348260415092
 51
33.65173958478118
  0
LINE
  5
F7
330
16
100
AcDbEntity
  8
0
  6
ByBlock
 62
    52
 48
25.0
100
AcDbLine
 10
4293.205877973407
 20
49.36026383878834
 30
0.0
 11
4292.654749553141
 21
48.97435956439676
 31
0.0
  0
ARC
  5
F8
330
16
100
AcDbEntity
  8
0
  6
ByBlock
 62
    52
 48
25.0
100
AcDbCircle
 10
4293.349272082494
 20
49.15547582771205
 30
0.0
 40
0.2499999999980116
100
AcDbArc
 50
65.23000000041891
 51
124.9999999993506
  0
LINE
  5
F9
330
16
100
AcDbEntity
  8
0
  6
ByBlock
 62
    52
 48
25.0
100
AcDbLine
 10
4294.471165199102
 20
48.91313240985073
 30
0.0
 11
4293.45401626094
 21
49.38247507238156
 31
0.0
  0
ARC
  5
FA
330
16
100
AcDbEntity
  8
0
  6
ByBlock
 62
    52
 48
25.0
100
AcDbCircle
 10
4294.575909377541
 20
49.14013165451819
 30
0.0
 40
0.2499999999942116
100
AcDbArc
 50
245.2300000014052
 51
300.0000000009147
  0
LINE
  5
FB
330
16
100
AcDbEntity
  8
0
  6
ByBlock
 62
    52
 48
25.0
100
AcDbLine
 10
4312.989698684003
 20
59.48266273280478
 30
0.0
 11
4294.700909377541
 21
48.92362530357877
 31
0.0
  0
ARC
  5
FC
330
16
100
AcDbEntity
  8
0
  6
ByBlock
 62
    52
 48
25.0
100
AcDbCircle
 10
4311.889698683983
 20
61.38791862113112
 30
0.0
 40
2.200000000011141
100
AcDbArc
 50
300.0000000004756
 51
34.99999999979991
  0
LINE
  5
FD
330
16
100
AcDbEntity
  8
0
  6
ByBlock
 62
    52
 48
25.0
100
AcDbLine
 10
4311.094539930702
 20
66.35910596007216
 30
0.0
 11
4313.69183318143
 21
62.64978678110583
 31
0.0
  0
ARC
  5
FE
330
16
100
AcDbEntity
  8
0
  6
ByBlock
 62
    52
 48
25.0
100
AcDbCircle
 10
4309.292405433269
 20
65.09723780009744
 30
0.0
 40
2.200000000004474
100
AcDbArc
 50
35.00000000018842
 51
130.0000000000145
  0
LINE
  5
FF
330
16
100
AcDbEntity
  8
0
  6
ByBlock
 62
    52
 48
25.0
100
AcDbLine
 10
4291.700888797262
 20
53.20809871550682
 30
0.0
 11
4307.878272691953
 21
66.7825355749601
 31
0.0
  0
ARC
  5
100
330
16
100
AcDbEntity
  8
0
  6
ByBlock
 62
    52
 48
25.0
100
AcDbCircle
 10
4291.86158569964
 20
53.01658760475016
 30
0.0
 40
0.2499999999558482
100
AcDbArc
 50
129.9999999956426
 51
184.7700000046375
  0
LINE
  5
101
330
16
100
AcDbEntity
  8
0
  6
ByBlock
 62
    52
 48
25.0
100
AcDbLine
 10
4291.705603976596
 20
51.87946659123554
 30
0.0
 11
4291.612451565619
 21
52.99579858737252
 31
0.0
  0
ARC
  5
102
330
16
100
AcDbEntity
  8
0
  6
ByBlock
 62
    52
 48
25.0
100
AcDbCircle
 10
4291.45646984256
 20
51.85867757387246
 30
0.0
 40
0.249999999971231
100
AcDbArc
 50
304.9999999963004
 51
4.770000001019735
  0
LINE
  5
103
330
16
100
AcDbEntity
  8
0
  6
ByBlock
 62
    52
 48
25.0
100
AcDbLine
 10
4291.048735531346
 20
51.26798528841573
 30
0.0
 11
4291.599863951618
 21
51.65388956281458
 31
0.0
  0
ARC
  5
104
330
16
100
AcDbEntity
  8
0
  6
ByBlock
 62
    52
 48
25.0
100
AcDbCircle
 10
4243.125689690117
 20
16.00282291200869
 30
0.0
 40
59.50000000113211
100
AcDbArc
 50
36.34826041512056
 51
43.65173958505013
  0
LINE
  5
105
330
16
100
AcDbEntity
  8
0
  6
ByBlock
 62
    52
 48
25.0
100
AcDbLine
 10
4286.652588555392
 20
57.54982278982424
 30
0.0
 11
4286.176844588196
 21
57.0740788226367
 31
0.0
  0
ARC
  5
106
330
16
100
AcDbEntity
  8
0
  6
ByBlock
 62
    52
 48
25.0
100
AcDbCircle
 10
4286.829365250669
 20
57.37304609453372
 30
0.0
 40
0.2499999999878719
100
AcDbArc
 50
75.22999999678311
 51
134.9999999975957
  0
LINE
  5
107
330
16
100
AcDbEntity
  8
0
  6
ByBlock
 62
    52
 48
25.0
100
AcDbLine
 10
4287.97629678285
 20
57.32919911295721
 30
0.0
 11
4286.893100124529
 21
57.61478534630715
 31
0.0
  0
ARC
  5
108
330
16
100
AcDbEntity
  8
0
  6
ByBlock
 62
    52
 48
25.0
100
AcDbCircle
 10
4288.040031656702
 20
57.57093836474564
 30
0.0
 40
0.2499999999991399
100
AcDbArc
 50
255.2299999993644
 51
309.9999999978411
  0
LINE
  5
109
330
16
100
AcDbEntity
  8
0
  6
ByBlock
 62
    52
 48
25.0
100
AcDbLine
 10
4304.378112453814
 20
70.95386411341587
 30
0.0
 11
4288.200728559117
 21
57.37942725396078
 31
0.0
  0
ARC
  5
10A
330
16
100
AcDbEntity
  8
0
  6
ByBlock
 62
    52
 48
25.0
100
AcDbCircle
 10
4302.963979712512
 20
72.63916188827238
 30
0.0
 40
2.199999999993072
100
AcDbArc
 50
309.9999999999391
 51
45.0000000001566
  0
LINE
  5
10B
330
16
100
AcDbEntity
  8
0
  6
ByBlock
 62
    52
 48
25.0
100
AcDbLine
 10
4301.317663585119
 20
77.39674785286661
 30
0.0
 11
4304.519614631113
 21
74.19479680688255
 31
0.0
  0
ARC
  5
10C
330
16
100
AcDbEntity
  8
0
  6
ByBlock
 62
    52
 48
25.0
100
AcDbCircle
 10
4299.762028666512
 20
75.84111293425848
 30
0.0
 40
2.199999999998191
100
AcDbArc
 50
45.00000000006448
 51
139.9999999998338
  0
LINE
  5
10D
330
16
100
AcDbEntity
  8
0
  6
ByBlock
 62
    52
 48
25.0
100
AcDbLine
 10
4284.502294032209
 20
61.07786178087645
 30
0.0
 11
4298.076730891654
 21
77.25524567557204
 31
0.0
  0
ARC
  5
10E
330
16
100
AcDbEntity
  8
0
  6
ByBlock
 62
    52
 48
25.0
100
AcDbCircle
 10
4284.693805142982
 20
60.9171648784511
 30
0.0
 40
0.2499999999985788
100
AcDbArc
 50
139.9999999984795
 51
194.7699999982676
  0
LINE
  5
10F
330
16
100
AcDbEntity
  8
0
  6
ByBlock
 62
    52
 48
25.0
100
AcDbLine
 10
4284.737652124554
 20
59.77023334629757
 30
0.0
 11
4284.452065891193
 21
60.85343000460852
 31
0.0
  0
ARC
  5
110
330
16
100
AcDbEntity
  8
0
  6
ByBlock
 62
    52
 48
25.0
100
AcDbCircle
 10
4284.495912872749
 20
59.70649847245249
 30
0.0
 40
0.2500000000125829
100
AcDbArc
 50
315.0000000022569
 51
14.76999999799047
  0
LINE
  5
111
330
16
100
AcDbEntity
  8
0
  6
ByBlock
 62
    52
 48
25.0
100
AcDbLine
 10
4284.196945600866
 20
59.05397780996645
 30
0.0
 11
4284.672689568062
 21
59.52972177715401
 31
0.0
  0
ARC
  5
112
330
16
100
AcDbEntity
  8
0
  6
ByBlock
 62
    52
 48
25.0
100
AcDbCircle
 10
4243.125689690583
 20
16.00282291221242
 30
0.0
 40
59.50000000065802
100
AcDbArc
 50
46.34826041523514
 51
53.65173958503347
  0
LINE
  5
113
330
16
100
AcDbEntity
  8
0
  6
ByBlock
 62
    52
 48
25.0
100
AcDbLine
 10
4278.776756341045
 20
64.476997173374
 30
0.0
 11
4278.390852066644
 21
63.92586875310553
 31
0.0
  0
ARC
  5
114
330
16
100
AcDbEntity
  8
0
  6
ByBlock
 62
    52
 48
25.0
100
AcDbCircle
 10
4278.981544352108
 20
64.33360306429335
 30
0.0
 40
0.24999999999212
100
AcDbArc
 50
85.22999999804767
 51
145.0000000001254
  0
LINE
  5
115
330
16
100
AcDbEntity
  8
0
  6
ByBlock
 62
    52
 48
25.0
100
AcDbLine
 10
4280.118665365604
 20
64.48958478736767
 30
0.0
 11
4279.002333369477
 21
64.58273719835142
 31
0.0
  0
ARC
  5
116
330
16
100
AcDbEntity
  8
0
  6
ByBlock
 62
    52
 48
25.0
100
AcDbCircle
 10
4280.139454382974
 20
64.73871892144984
 30
0.0
 40
0.250000000017371
100
AcDbArc
 50
265.2299999984663
 51
319.999999995781
  0
LINE
  5
117
330
16
100
AcDbEntity
  8
0
  6
ByBlock
 62
    52
 48
25.0
100
AcDbLine
 10
4293.905402353208
 20
80.75540591369918
 30
0.0
 11
4280.330965493755
 21
64.57802201900268
 31
0.0
  0
ARC
  5
118
330
16
100
AcDbEntity
  8
0
  6
ByBlock
 62
    52
 48
25.0
100
AcDbCircle
 10
4292.220104578343
 20
82.16953865500682
 30
0.0
 40
2.20000000000097
100
AcDbArc
 50
319.9999999999735
 51
55.0000000001211
  0
LINE
  5
119
330
16
100
AcDbEntity
  8
0
  6
ByBlock
 62
    52
 48
25.0
100
AcDbLine
 10
4289.772653559346
 20
86.56896640318519
 30
0.0
 11
4293.481972738315
 21
83.97167315244496
 31
0.0
  0
ARC
  5
11A
330
16
100
AcDbEntity
  8
0
  6
ByBlock
 62
    52
 48
25.0
100
AcDbCircle
 10
4288.510785399376
 20
84.76683190575386
 30
0.0
 40
2.199999999996523
100
AcDbArc
 50
55.00000000009121
 51
150.000000000304
  0
LINE
  5
11B
330
16
100
AcDbEntity
  8
0
  6
ByBlock
 62
    52
 48
25.0
100
AcDbLine
 10
4276.046492081834
 20
67.57804259930435
 30
0.0
 11
4286.605529511049
 21
85.86683190574513
 31
0.0
  0
ARC
  5
11C
330
16
100
AcDbEntity
  8
0
  6
ByBlock
 62
    52
 48
25.0
100
AcDbCircle
 10
4276.262998432808
 20
67.45304259929003
 30
0.0
 40
0.2500000000311089
100
AcDbArc
 50
150.0000000004732
 51
204.769999993644
  0
LINE
  5
11D
330
16
100
AcDbEntity
  8
0
  6
ByBlock
 62
    52
 48
25.0
100
AcDbLine
 10
4276.505341850628
 20
66.33114948270758
 30
0.0
 11
4276.035999188098
 21
67.348298420854
 31
0.0
  0
ARC
  5
11E
330
16
100
AcDbEntity
  8
0
  6
ByBlock
 62
    52
 48
25.0
100
AcDbCircle
 10
4276.278342605939
 20
66.22640530426997
 30
0.0
 40
0.250000000012995
100
AcDbArc
 50
325.0000000004135
 51
24.76999999599251
  0
LINE
  5
11F
330
16
100
AcDbEntity
  8
0
  6
ByBlock
 62
    52
 48
25.0
100
AcDbLine
 10
4276.09722634263
 20
65.53188277490062
 30
0.0
 11
4276.483130617023
 21
66.08301119517637
 31
0.0
  0
ARC
  5
120
330
16
100
AcDbEntity
  8
0
  6
ByBlock
 62
    52
 48
25.0
100
AcDbCircle
 10
4243.12568969158
 20
16.00282291389499
 30
0.0
 40
59.49999999871093
100
AcDbArc
 50
56.34826041473823
 51
63.65173958498328
  0
LINE
  5
121
330
16
100
AcDbEntity
  8
0
  6
ByBlock
 62
    52
 48
25.0
100
AcDbLine
 10
4269.817684506866
 20
69.93130830115751
 30
0.0
 11
4269.533345431351
 21
69.32154118596463
 31
0.0
  0
ARC
  5
122
330
16
100
AcDbEntity
  8
0
  6
ByBlock
 62
    52
 48
25.0
100
AcDbCircle
 10
4270.044261453615
 20
69.82565373572811
 30
0.0
 40
0.249999999990634
100
AcDbArc
 50
95.22999999859855
 51
155.0000000001639
  0
LINE
  5
123
330
16
100
AcDbEntity
  8
0
  6
ByBlock
 62
    52
 48
25.0
100
AcDbLine
 10
4271.137021101851
 20
70.17672473770926
 30
0.0
 11
4270.021472950721
 21
70.07461293746837
 31
0.0
  0
ARC
  5
124
330
16
100
AcDbEntity
  8
0
  6
ByBlock
 62
    52
 48
25.0
100
AcDbCircle
 10
4271.114232598956
 20
70.42568393945612
 30
0.0
 40
0.2499999999974819
100
AcDbArc
 50
275.2299999985973
 51
330.0000000007102
  0
LINE
  5
125
330
16
100
AcDbEntity
  8
0
  6
ByBlock
 62
    52
 48
25.0
100
AcDbLine
 10
4281.889776379139
 20
88.58947324590554
 30
0.0
 11
4271.330738949902
 21
70.30068393946021
 31
0.0
  0
ARC
  5
126
330
16
100
AcDbEntity
  8
0
  6
ByBlock
 62
    52
 48
25.0
100
AcDbCircle
 10
4279.984520490812
 20
89.68947324590022
 30
0.0
 40
2.20000000000089
100
AcDbArc
 50
330.0000000000391
 51
65.00000000034027
  0
LINE
  5
127
330
16
100
AcDbEntity
  8
0
  6
ByBlock
 62
    52
 48
25.0
100
AcDbLine
 10
4276.810299140932
 20
93.59706839174668
 30
0.0
 11
4280.914280666634
 21
91.68335037738506
 31
0.0
  0
ARC
  5
128
330
16
100
AcDbEntity
  8
0
  6
ByBlock
 62
    52
 48
25.0
100
AcDbCircle
 10
4275.880538965102
 20
91.6031912602782
 30
0.0
 40
2.199999999984739
100
AcDbArc
 50
64.99999999989637
 51
160.0000000001676
  0
LINE
  5
129
330
16
100
AcDbEntity
  8
0
  6
ByBlock
 62
    52
 48
25.0
100
AcDbLine
 10
4266.590408209537
 20
72.51113646589146
 30
0.0
 11
4273.813215199385
 21
92.3556355755818
 31
0.0
  0
ARC
  5
12A
330
16
100
AcDbEntity
  8
0
  6
ByBlock
 62
    52
 48
25.0
100
AcDbCircle
 10
4266.825331364707
 20
72.42563143004645
 30
0.0
 40
0.2499999999801103
100
AcDbArc
 50
159.9999999950311
 51
214.769999999651
  0
LINE
  5
12B
330
16
100
AcDbEntity
  8
0
  6
ByBlock
 62
    52
 48
25.0
100
AcDbLine
 10
4267.258807736761
 20
71.36286488365931
 30
0.0
 11
4266.619969384351
 21
72.28306054587119
 31
0.0
  0
ARC
  5
12C
330
16
100
AcDbEntity
  8
0
  6
ByBlock
 62
    52
 48
25.0
100
AcDbCircle
 10
4267.053445756406
 20
71.22029399947405
 30
0.0
 40
0.2499999999850845
100
AcDbArc
 50
334.9999999975456
 51
34.77000000162695
  0
LINE
  5
12D
330
16
100
AcDbEntity
  8
0
  6
ByBlock
 62
    52
 48
25.0
100
AcDbLine
 10
4266.99568362764
 20
70.50487231884381
 30
0.0
 11
4267.280022703147
 21
71.11463943403578
 31
0.0
  0
ARC
  5
12E
330
16
100
AcDbEntity
  8
0
  6
ByBlock
 62
    52
 48
25.0
100
AcDbCircle
 10
4243.125689691151
 20
16.00282291319627
 30
0.0
 40
59.49999999952614
100
AcDbArc
 50
66.34826041483697
 51
73.65173958488734
  0
LINE
  5
12F
330
16
100
AcDbEntity
  8
0
  6
ByBlock
 62
    52
 48
25.0
100
AcDbLine
 10
4260.047589916983
 20
73.74702968953261
 30
0.0
 11
4259.873455539294
 21
73.09715134465569
 31
0.0
  0
ARC
  5
130
330
16
100
AcDbEntity
  8
0
  6
ByBlock
 62
    52
 48
25.0
100
AcDbCircle
 10
4260.289071373562
 20
73.68232492825223
 30
0.0
 40
0.2500000000050649
100
AcDbArc
 50
105.2300000014402
 51
164.9999999992703
  0
LINE
  5
131
330
16
100
AcDbEntity
  8
0
  6
ByBlock
 62
    52
 48
25.0
100
AcDbLine
 10
4261.304266707585
 20
74.21781809441927
 30
0.0
 11
4260.223397767521
 21
73.92354469832117
 31
0.0
  0
ARC
  5
132
330
16
100
AcDbEntity
  8
0
  6
ByBlock
 62
    52
 48
25.0
100
AcDbCircle
 10
4261.238593101545
 20
74.45903786449957
 30
0.0
 40
0.2500000000145283
100
AcDbArc
 50
285.2300000009901
 51
339.9999999978748
  0
LINE
  5
133
330
16
100
AcDbEntity
  8
0
  6
ByBlock
 62
    52
 48
25.0
100
AcDbLine
 10
4268.696323246607
 20
94.21803193834966
 30
0.0
 11
4261.473516256752
 21
74.37353282865479
 31
0.0
  0
ARC
  5
134
330
16
100
AcDbEntity
  8
0
  6
ByBlock
 62
    52
 48
25.0
100
AcDbCircle
 10
4266.62899948089
 20
94.97047625367372
 30
0.0
 40
2.199999999990545
100
AcDbArc
 50
339.9999999997147
 51
75.00000000022374
  0
LINE
  5
135
330
16
100
AcDbEntity
  8
0
  6
ByBlock
 62
    52
 48
25.0
100
AcDbLine
 10
4262.824454909612
 20
98.26750849600649
 30
0.0
 11
4267.198401380105
 21
97.09551307150286
 31
0.0
  0
ARC
  5
136
330
16
100
AcDbEntity
  8
0
  6
ByBlock
 62
    52
 48
25.0
100
AcDbCircle
 10
4262.255053010384
 20
96.14247167817598
 30
0.0
 40
2.199999999998043
100
AcDbArc
 50
74.9999999997941
 51
170.0000000000127
  0
LINE
  5
137
330
16
100
AcDbEntity
  8
0
  6
ByBlock
 62
    52
 48
25.0
100
AcDbLine
 10
4256.421360738757
 20
75.72725381974397
 30
0.0
 11
4260.088475953758
 21
96.52449766904192
 31
0.0
  0
ARC
  5
138
330
16
100
AcDbEntity
  8
0
  6
ByBlock
 62
    52
 48
25.0
100
AcDbCircle
 10
4256.667562676979
 20
75.68384177532767
 30
0.0
 40
0.2499999999695884
100
AcDbArc
 50
169.9999999988837
 51
224.7700000070806
  0
LINE
  5
139
330
16
100
AcDbEntity
  8
0
  6
ByBlock
 62
    52
 48
25.0
100
AcDbLine
 10
4257.279001043011
 20
74.7124934228541
 30
0.0
 11
4256.490077780807
 21
75.50777612957154
 31
0.0
  0
ARC
  5
13A
330
16
100
AcDbEntity
  8
0
  6
ByBlock
 62
    52
 48
25.0
100
AcDbCircle
 10
4257.101516146795
 20
74.53642777710865
 30
0.0
 40
0.2499999999947146
100
AcDbArc
 50
344.9999999968973
 51
44.76999999824657
  0
LINE
  5
13B
330
16
100
AcDbEntity
  8
0
  6
ByBlock
 62
    52
 48
25.0
100
AcDbLine
 10
4257.16886322567
 20
73.82184467094885
 30
0.0
 11
4257.342997603358
 21
74.47172301582122
 31
0.0
  0
ARC
  5
13C
330
16
100
AcDbEntity
  8
0
  6
ByBlock
 62
    52
 48
25.0
100
AcDbCircle
 10
4243.125689691026
 20
16.00282291316557
 30
0.0
 40
59.49999999958881
100
AcDbArc
 50
76.3482604151301
 51
83.65173958506767
  0
LINE
  5
13D
330
16
100
AcDbEntity
  8
0
  6
ByBlock
 62
    52
 48
25.0
100
AcDbLine
 10
4249.763331951632
 20
75.80822257497584
 30
0.0
 11
4249.70469325671
 21
75.13797922507365
 31
0.0
  0
ARC
  5
13E
330
16
100
AcDbEntity
  8
0
  6
ByBlock
 62
    52
 48
25.0
100
AcDbCircle
 10
4250.012380626147
 20
75.78643363928449
 30
0.0
 40
0.2499999999963608
100
AcDbArc
 50
115.2299999969057
 51
174.9999999988421
  0
LINE
  5
13F
330
16
100
AcDbEntity
  8
0
  6
ByBlock
 62
    52
 48
25.0
100
AcDbLine
 10
4250.919165449486
 20
76.490078280739
 30
0.0
 11
4249.905817376283
 21
76.01258463701924
 31
0.0
  0
ARC
  5
140
330
16
100
AcDbEntity
  8
0
  6
ByBlock
 62
    52
 48
25.0
100
AcDbCircle
 10
4250.812602199621
 20
76.71622927846738
 30
0.0
 40
0.2499999999900214
100
AcDbArc
 50
295.2299999973939
 51
350.0000000006799
  0
LINE
  5
141
330
16
100
AcDbEntity
  8
0
  6
ByBlock
 62
    52
 48
25.0
100
AcDbLine
 10
4254.725919352866
 20
97.470061083357
 30
0.0
 11
4251.058804137865
 21
76.6728172340554
 31
0.0
  0
ARC
  5
142
330
16
100
AcDbEntity
  8
0
  6
ByBlock
 62
    52
 48
25.0
100
AcDbCircle
 10
4252.559342296248
 20
97.85208707423045
 30
0.0
 40
2.199999999992797
100
AcDbArc
 50
349.9999999997946
 51
85.00000000054788
  0
LINE
  5
143
330
16
100
AcDbEntity
  8
0
  6
ByBlock
 62
    52
 48
25.0
100
AcDbLine
 10
4248.240073665183
 20
100.4383777567618
 30
0.0
 11
4252.751084930277
 21
100.0437154100264
 31
0.0
  0
ARC
  5
144
330
16
100
AcDbEntity
  8
0
  6
ByBlock
 62
    52
 48
25.0
100
AcDbCircle
 10
4248.048331031146
 20
98.24674942095681
 30
0.0
 40
2.200000000004365
100
AcDbArc
 50
85.00000000013146
 51
179.9999999999348
  0
LINE
  5
145
330
16
100
AcDbEntity
  8
0
  6
ByBlock
 62
    52
 48
25.0
100
AcDbLine
 10
4245.848331031142
 20
77.12867456250751
 30
0.0
 11
4245.848331031142
 21
98.24674942095953
 31
0.0
  0
ARC
  5
146
330
16
100
AcDbEntity
  8
0
  6
ByBlock
 62
    52
 48
25.0
100
AcDbCircle
 10
4246.098331031164
 20
77.12867456251297
 30
0.0
 40
0.2500000000209438
100
AcDbArc
 50
180.0000000012506
 51
234.7699999961105
  0
LINE
  5
147
330
16
100
AcDbEntity
  8
0
  6
ByBlock
 62
    52
 48
25.0
100
AcDbLine
 10
4246.869153145751
 20
76.27825833212773
 30
0.0
 11
4245.954116007837
 21
76.92446382073558
 31
0.0
  0
ARC
  5
148
330
16
100
AcDbEntity
  8
0
  6
ByBlock
 62
    52
 48
25.0
100
AcDbCircle
 10
4246.72493812246
 20
76.07404759036876
 30
0.0
 40
0.2499999999864303
100
AcDbArc
 50
354.9999999968591
 51
54.77000000029274
  0
LINE
  5
149
330
16
100
AcDbEntity
  8
0
  6
ByBlock
 62
    52
 48
25.0
100
AcDbLine
 10
4246.915348102055
 20
75.38201530476817
 30
0.0
 11
4246.973986796969
 21
76.05225865466946
 31
0.0
  0
ARC
  5
14A
330
16
100
AcDbEntity
  8
0
  6
ByBlock
 62
    52
 48
25.0
100
AcDbCircle
 10
4243.125689690969
 20
16.00282291264057
 30
0.0
 40
59.50000000011775
100
AcDbArc
 50
86.34826041489001
 51
93.65173958510917
  0
LINE
  5
14B
330
16
100
AcDbEntity
  8
0
  6
ByBlock
 62
    52
 48
25.0
100
AcDbLine
 10
4239.277392585012
 20
76.0522586546731
 30
0.0
 11
4239.336031279926
 21
75.3820153047709
 31
0.0
  0
ARC
  5
14C
330
16
100
AcDbEntity
  8
0
  6
ByBlock
 62
    52
 48
25.0
100
AcDbCircle
 10
4239.526441259498
 20
76.07404759037581
 30
0.0
 40
0.2499999999638531
100
AcDbArc
 50
125.2299999947238
 51
185.0000000043479
  0
LINE
  5
14D
330
16
100
AcDbEntity
  8
0
  6
ByBlock
 62
    52
 48
25.0
100
AcDbLine
 10
4240.297263374144
 20
76.92446382073376
 30
0.0
 11
4239.382226236237
 21
76.27825833212956
 31
0.0
  0
ARC
  5
14E
330
16
100
AcDbEntity
  8
0
  6
ByBlock
 62
    52
 48
25.0
100
AcDbCircle
 10
4240.153048350803
 20
77.12867456252912
 30
0.0
 40
0.2500000000436557
100
AcDbArc
 50
305.2300000043426
 51
359.9999999944242
  0
LINE
  5
14F
330
16
100
AcDbEntity
  8
0
  6
ByBlock
 62
    52
 48
25.0
100
AcDbLine
 10
4240.403048350839
 20
98.24674942096407
 30
0.0
 11
4240.403048350847
 21
77.12867456250478
 31
0.0
  0
ARC
  5
150
330
16
100
AcDbEntity
  8
0
  6
ByBlock
 62
    52
 48
25.0
100
AcDbCircle
 10
4238.203048350849
 20
98.24674942097226
 30
0.0
 40
2.199999999991347
100
AcDbArc
 50
359.9999999997915
 51
94.99999999986968
  0
LINE
  5
151
330
16
100
AcDbEntity
  8
0
  6
ByBlock
 62
    52
 48
25.0
100
AcDbLine
 10
4233.500294451704
 20
100.0437154100309
 30
0.0
 11
4238.011305716805
 21
100.4383777567654
 31
0.0
  0
ARC
  5
152
330
16
100
AcDbEntity
  8
0
  6
ByBlock
 62
    52
 48
25.0
100
AcDbCircle
 10
4233.692037085726
 20
97.85208707423681
 30
0.0
 40
2.199999999985015
100
AcDbArc
 50
94.99999999945098
 51
190.000000000231
  0
LINE
  5
153
330
16
100
AcDbEntity
  8
0
  6
ByBlock
 62
    52
 48
25.0
100
AcDbLine
 10
4235.192575244131
 20
76.67281723406905
 30
0.0
 11
4231.525460029115
 21
97.47006108336336
 31
0.0
  0
ARC
  5
154
330
16
100
AcDbEntity
  8
0
  6
ByBlock
 62
    52
 48
25.0
100
AcDbCircle
 10
4235.438777182396
 20
76.71622927849307
 30
0.0
 40
0.2500000000147311
100
AcDbArc
 50
190.0000000011163
 51
244.7699999975916
  0
LINE
  5
155
330
16
100
AcDbEntity
  8
0
  6
ByBlock
 62
    52
 48
25.0
100
AcDbLine
 10
4236.345562005706
 20
76.0125846370247
 30
0.0
 11
4235.332213932503
 21
76.49007828075173
 31
0.0
  0
ARC
  5
156
330
16
100
AcDbEntity
  8
0
  6
ByBlock
 62
    52
 48
25.0
100
AcDbCircle
 10
4236.238998755834
 20
75.78643363931792
 30
0.0
 40
0.2499999999758924
100
AcDbArc
 50
4.999999994658539
 51
64.76999999892839
  0
LINE
  5
157
330
16
100
AcDbEntity
  8
0
  6
ByBlock
 62
    52
 48
25.0
100
AcDbLine
 10
4236.546686125257
 20
75.13797922507729
 30
0.0
 11
4236.488047430335
 21
75.80822257497948
 31
0.0
  0
ARC
  5
158
330
16
100
AcDbEntity
  8
0
  6
ByBlock
 62
    52
 48
25.0
100
AcDbCircle
 10
4243.125689690997
 20
16.0028229126865
 30
0.0
 40
59.50000000007471
100
AcDbArc
 50
96.34826041493234
 51
103.6517395848668
  0
LINE
  5
159
330
16
100
AcDbEntity
  8
0
  6
ByBlock
 62
    52
 48
25.0
100
AcDbLine
 10
4228.908381778615
 20
74.47172301583214
 30
0.0
 11
4229.082516156312
 21
73.82184467095886
 31
0.0
  0
ARC
  5
15A
330
16
100
AcDbEntity
  8
0
  6
ByBlock
 62
    52
 48
25.0
100
AcDbCircle
 10
4229.149863235179
 20
74.53642777710706
 30
0.0
 40
0.2499999999915314
100
AcDbArc
 50
135.2299999971942
 51
195.0000000003072
  0
LINE
  5
15B
330
16
100
AcDbEntity
  8
0
  6
ByBlock
 62
    52
 48
25.0
100
AcDbLine
 10
4229.761301601189
 20
75.50777612957699
 30
0.0
 11
4228.972378338978
 21
74.71249342286501
 31
0.0
  0
ARC
  5
15C
330
16
100
AcDbEntity
  8
0
  6
ByBlock
 62
    52
 48
25.0
100
AcDbCircle
 10
4229.58381670498
 20
75.68384177533449
 30
0.0
 40
0.2499999999975421
100
AcDbArc
 50
315.2299999984103
 51
9.999999999499756
  0
LINE
  5
15D
330
16
100
AcDbEntity
  8
0
  6
ByBlock
 62
    52
 48
25.0
100
AcDbLine
 10
4226.162903428223
 20
96.52449766905284
 30
0.0
 11
4229.830018643231
 21
75.72725381974851
 31
0.0
  0
ARC
  5
15E
330
16
100
AcDbEntity
  8
0
  6
ByBlock
 62
    52
 48
25.0
100
AcDbCircle
 10
4223.99632637159
 20
96.14247167818303
 30
0.0
 40
2.200000000000867
100
AcDbArc
 50
10.00000000005143
 51
104.9999999997729
  0
LINE
  5
15F
330
16
100
AcDbEntity
  8
0
  6
ByBlock
 62
    52
 48
25.0
100
AcDbLine
 10
4219.052978001877
 20
97.0955130715156
 30
0.0
 11
4223.426924472376
 21
98.26750849602285
 31
0.0
  0
ARC
  5
160
330
16
100
AcDbEntity
  8
0
  6
ByBlock
 62
    52
 48
25.0
100
AcDbCircle
 10
4219.622379901092
 20
94.97047625368692
 30
0.0
 40
2.199999999991583
100
AcDbArc
 50
104.9999999997796
 51
200.0000000002731
  0
LINE
  5
161
330
16
100
AcDbEntity
  8
0
  6
ByBlock
 62
    52
 48
25.0
100
AcDbLine
 10
4224.777863125236
 20
74.37353282867571
 30
0.0
 11
4217.555056135373
 21
94.2180319383633
 31
0.0
  0
ARC
  5
162
330
16
100
AcDbEntity
  8
0
  6
ByBlock
 62
    52
 48
25.0
100
AcDbCircle
 10
4225.012786280429
 20
74.45903786449481
 30
0.0
 40
0.2499999999910872
100
AcDbArc
 50
199.9999999976741
 51
254.7699999994224
  0
LINE
  5
163
330
16
100
AcDbEntity
  8
0
  6
ByBlock
 62
    52
 48
25.0
100
AcDbLine
 10
4226.027981614461
 20
73.92354469833662
 30
0.0
 11
4224.947112674395
 21
74.21781809443837
 31
0.0
  0
ARC
  5
164
330
16
100
AcDbEntity
  8
0
  6
ByBlock
 62
    52
 48
25.0
100
AcDbCircle
 10
4225.96230800842
 20
73.68232492826496
 30
0.0
 40
0.2500000000069464
100
AcDbArc
 50
15.00000000072972
 51
74.76999999857007
  0
LINE
  5
165
330
16
100
AcDbEntity
  8
0
  6
ByBlock
 62
    52
 48
25.0
100
AcDbLine
 10
4226.377923842694
 20
73.09715134467115
 30
0.0
 11
4226.203789464999
 21
73.74702968954534
 31
0.0
  0
ARC
  5
166
330
16
100
AcDbEntity
  8
0
  6
ByBlock
 62
    52
 48
25.0
100
AcDbCircle
 10
4243.125689690816
 20
16.00282291309918
 30
0.0
 40
59.49999999962836
100
AcDbArc
 50
106.348260415109
 51
113.6517395847707
  0
LINE
  5
167
330
16
100
AcDbEntity
  8
0
  6
ByBlock
 62
    52
 48
25.0
100
AcDbLine
 10
4218.971356678834
 20
71.11463943405579
 30
0.0
 11
4219.255695754334
 21
70.50487231886108
 31
0.0
  0
ARC
  5
168
330
16
100
AcDbEntity
  8
0
  6
ByBlock
 62
    52
 48
25.0
100
AcDbCircle
 10
4219.197933625575
 20
71.22029399948155
 30
0.0
 40
0.2499999999799564
100
AcDbArc
 50
145.229999994541
 51
204.9999999997888
  0
LINE
  5
169
330
16
100
AcDbEntity
  8
0
  6
ByBlock
 62
    52
 48
25.0
100
AcDbLine
 10
4219.631409997645
 20
72.28306054588393
 30
0.0
 11
4218.992571645234
 21
71.3628648836775
 31
0.0
  0
ARC
  5
16A
330
16
100
AcDbEntity
  8
0
  6
ByBlock
 62
    52
 48
25.0
100
AcDbCircle
 10
4219.426048017259
 20
72.42563143007055
 30
0.0
 40
0.2500000000107177
100
AcDbArc
 50
325.2300000019482
 51
19.99999999972217
  0
LINE
  5
16B
330
16
100
AcDbEntity
  8
0
  6
ByBlock
 62
    52
 48
25.0
100
AcDbLine
 10
4212.438164182611
 20
92.35563557560181
 30
0.0
 11
4219.660971172467
 21
72.5111364659042
 31
0.0
  0
ARC
  5
16C
330
16
100
AcDbEntity
  8
0
  6
ByBlock
 62
    52
 48
25.0
100
AcDbCircle
 10
4210.370840416879
 20
91.60319126028458
 30
0.0
 40
2.200000000003141
100
AcDbArc
 50
20.00000000001598
 51
115.0000000000706
  0
LINE
  5
16D
330
16
100
AcDbEntity
  8
0
  6
ByBlock
 62
    52
 48
25.0
100
AcDbLine
 10
4205.337098715354
 20
91.68335037740872
 30
0.0
 11
4209.441080241049
 21
93.59706839176851
 31
0.0
  0
ARC
  5
16E
330
16
100
AcDbEntity
  8
0
  6
ByBlock
 62
    52
 48
25.0
100
AcDbCircle
 10
4206.266858891184
 20
89.68947324592841
 30
0.0
 40
2.200000000002776
100
AcDbArc
 50
115.0000000000761
 51
210.0000000001188
  0
LINE
  5
16F
330
16
100
AcDbEntity
  8
0
  6
ByBlock
 62
    52
 48
25.0
100
AcDbLine
 10
4214.920640432079
 20
70.30068393949114
 30
0.0
 11
4204.361603002857
 21
88.58947324592463
 31
0.0
  0
ARC
  5
170
330
16
100
AcDbEntity
  8
0
  6
ByBlock
 62
    52
 48
25.0
100
AcDbCircle
 10
4215.137146783032
 20
70.42568393949091
 30
0.0
 40
0.2500000000041875
100
AcDbArc
 50
209.9999999992447
 51
264.7699999980554
  0
LINE
  5
171
330
16
100
AcDbEntity
  8
0
  6
ByBlock
 62
    52
 48
25.0
100
AcDbLine
 10
4216.229906431268
 20
70.07461293749202
 30
0.0
 11
4215.114358280123
 21
70.17672473773837
 31
0.0
  0
ARC
  5
172
330
16
100
AcDbEntity
  8
0
  6
ByBlock
 62
    52
 48
25.0
100
AcDbCircle
 10
4216.207117928374
 20
69.82565373574698
 30
0.0
 40
0.2499999999942372
100
AcDbArc
 50
24.99999999896325
 51
84.77000000140265
  0
LINE
  5
173
330
16
100
AcDbEntity
  8
0
  6
ByBlock
 62
    52
 48
25.0
100
AcDbLine
 10
4216.71803395063
 20
69.3215411859801
 30
0.0
 11
4216.43369487513
 21
69.9313083011757
 31
0.0
  0
ARC
  5
174
330
16
100
AcDbEntity
  8
0
  6
ByBlock
 62
    52
 48
25.0
100
AcDbCircle
 10
4243.125689691093
 20
16.00282291245162
 30
0.0
 40
59.5000000003248
100
AcDbArc
 50
116.3482604150109
 51
123.6517395848498
  0
LINE
  5
175
330
16
100
AcDbEntity
  8
0
  6
ByBlock
 62
    52
 48
25.0
100
AcDbLine
 10
4209.768248764944
 20
66.08301119519547
 30
0.0
 11
4210.154153039336
 21
65.53188277492608
 31
0.0
  0
ARC
  5
176
330
16
100
AcDbEntity
  8
0
  6
ByBlock
 62
    52
 48
25.0
100
AcDbCircle
 10
4209.973036776035
 20
66.22640530429158
 30
0.0
 40
0.2500000000194201
100
AcDbArc
 50
155.2300000042322
 51
214.9999999990165
  0
LINE
  5
177
330
16
100
AcDbEntity
  8
0
  6
ByBlock
 62
    52
 48
25.0
100
AcDbLine
 10
4210.215380193869
 20
67.34829842088129
 30
0.0
 11
4209.746037531338
 21
66.33114948273123
 31
0.0
  0
ARC
  5
178
330
16
100
AcDbEntity
  8
0
  6
ByBlock
 62
    52
 48
25.0
100
AcDbCircle
 10
4209.98838094926
 20
67.45304259934574
 30
0.0
 40
0.2499999999501905
100
AcDbArc
 50
335.2299999907951
 51
30.00000000376186
  0
LINE
  5
179
330
16
100
AcDbEntity
  8
0
  6
ByBlock
 62
    52
 48
25.0
100
AcDbLine
 10
4199.645849870925
 20
85.86683190577877
 30
0.0
 11
4210.204887300155
 21
67.57804259933528
 31
0.0
  0
ARC
  5
17A
330
16
100
AcDbEntity
  8
0
  6
ByBlock
 62
    52
 48
25.0
100
AcDbCircle
 10
4197.740593982598
 20
84.76683190577341
 30
0.0
 40
2.200000000008124
100
AcDbArc
 50
30.0000000001414
 51
124.9999999999088
  0
LINE
  5
17B
330
16
100
AcDbEntity
  8
0
  6
ByBlock
 62
    52
 48
25.0
100
AcDbLine
 10
4192.76940664366
 20
83.97167315247589
 30
0.0
 11
4196.478725822621
 21
86.56896640321519
 31
0.0
  0
ARC
  5
17C
330
16
100
AcDbEntity
  8
0
  6
ByBlock
 62
    52
 48
25.0
100
AcDbCircle
 10
4194.031274803637
 20
82.16953865503773
 30
0.0
 40
2.200000000005539
100
AcDbArc
 50
124.9999999999312
 51
219.9999999996886
  0
LINE
  5
17D
330
16
100
AcDbEntity
  8
0
  6
ByBlock
 62
    52
 48
25.0
100
AcDbLine
 10
4205.920413888219
 20
64.57802201904996
 30
0.0
 11
4192.345977028766
 21
80.75540591373011
 31
0.0
  0
ARC
  5
17E
330
16
100
AcDbEntity
  8
0
  6
ByBlock
 62
    52
 48
25.0
100
AcDbCircle
 10
4206.111924999007
 20
64.7387189214819
 30
0.0
 40
0.2500000000136433
100
AcDbArc
 50
220.0000000006737
 51
274.7699999965137
  0
LINE
  5
17F
330
16
100
AcDbEntity
  8
0
  6
ByBlock
 62
    52
 48
25.0
100
AcDbLine
 10
4207.249046012482
 20
64.58273719838871
 30
0.0
 11
4206.132714016355
 21
64.48958478740042
 31
0.0
  0
ARC
  5
180
330
16
100
AcDbEntity
  8
0
  6
ByBlock
 62
    52
 48
25.0
100
AcDbCircle
 10
4207.269835029845
 20
64.33360306431268
 30
0.0
 40
0.2500000000067741
100
AcDbArc
 50
35.00000000041252
 51
94.77000000027649
  0
LINE
  5
181
330
16
100
AcDbEntity
  8
0
  6
ByBlock
 62
    52
 48
25.0
100
AcDbLine
 10
4207.860527315315
 20
63.92586875313373
 30
0.0
 11
4207.474623040922
 21
64.47699717340583
 31
0.0
  0
ARC
  5
182
330
16
100
AcDbEntity
  8
0
  6
ByBlock
 62
    52
 48
25.0
100
AcDbCircle
 10
4243.125689691448
 20
16.00282291220878
 30
0.0
 40
59.50000000072659
100
AcDbArc
 50
126.3482604149742
 51
133.6517395847828
  0
LINE
  5
183
330
16
100
AcDbEntity
  8
0
  6
ByBlock
 62
    52
 48
25.0
100
AcDbLine
 10
4201.578689813905
 20
59.52972177717675
 30
0.0
 11
4202.054433781093
 21
59.05397780998737
 31
0.0
  0
ARC
  5
184
330
16
100
AcDbEntity
  8
0
  6
ByBlock
 62
    52
 48
25.0
100
AcDbCircle
 10
4201.755466509218
 20
59.70649847247137
 30
0.0
 40
0.2500000000104836
100
AcDbArc
 50
165.2299999978486
 51
224.9999999971351
  0
LINE
  5
185
330
16
100
AcDbEntity
  8
0
  6
ByBlock
 62
    52
 48
25.0
100
AcDbLine
 10
4201.799313490781
 20
60.85343000463672
 30
0.0
 11
4201.513727257421
 21
59.77023334633305
 31
0.0
  0
ARC
  5
186
330
16
100
AcDbEntity
  8
0
  6
ByBlock
 62
    52
 48
25.0
100
AcDbCircle
 10
4201.557574238992
 20
60.91716487849499
 30
0.0
 40
0.2500000000029217
100
AcDbArc
 50
345.2299999982697
 51
39.99999999769715
  0
LINE
  5
187
330
16
100
AcDbEntity
  8
0
  6
ByBlock
 62
    52
 48
25.0
100
AcDbLine
 10
4188.17464849032
 20
77.2552456756066
 30
0.0
 11
4201.74908534978
 21
61.077861780911
 31
0.0
  0
ARC
  5
188
330
16
100
AcDbEntity
  8
0
  6
ByBlock
 62
    52
 48
25.0
100
AcDbCircle
 10
4186.489350715455
 20
75.84111293429737
 30
0.0
 40
2.199999999999503
100
AcDbArc
 50
40.00000000004641
 51
134.9999999998987
  0
LINE
  5
189
330
16
100
AcDbEntity
  8
0
  6
ByBlock
 62
    52
 48
25.0
100
AcDbLine
 10
4181.73176475086
 20
74.19479680692257
 30
0.0
 11
4184.933715796847
 21
77.39674785290936
 31
0.0
  0
ARC
  5
18A
330
16
100
AcDbEntity
  8
0
  6
ByBlock
 62
    52
 48
25.0
100
AcDbCircle
 10
4183.287399669461
 20
72.63916188831536
 30
0.0
 40
2.199999999991488
100
AcDbArc
 50
134.999999999871
 51
230.0000000004974
  0
LINE
  5
18B
330
16
100
AcDbEntity
  8
0
  6
ByBlock
 62
    52
 48
25.0
100
AcDbLine
 10
4198.05065082285
 20
57.37942725401172
 30
0.0
 11
4181.873266928167
 21
70.95386411345135
 31
0.0
  0
ARC
  5
18C
330
16
100
AcDbEntity
  8
0
  6
ByBlock
 62
    52
 48
25.0
100
AcDbCircle
 10
4198.211347725272
 20
57.57093836478907
 30
0.0
 40
0.2500000000020667
100
AcDbArc
 50
229.999999999574
 51
284.7700000006289
  0
LINE
  5
18D
330
16
100
AcDbEntity
  8
0
  6
ByBlock
 62
    52
 48
25.0
100
AcDbLine
 10
4199.358279257437
 20
57.61478534634716
 30
0.0
 11
4198.275082599124
 21
57.32919911299905
 31
0.0
  0
ARC
  5
18E
330
16
100
AcDbEntity
  8
0
  6
ByBlock
 62
    52
 48
25.0
100
AcDbCircle
 10
4199.422014131276
 20
57.37304609455986
 30
0.0
 40
0.2499999999948973
100
AcDbArc
 50
44.9999999983695
 51
104.7699999976078
  0
LINE
  5
18F
330
16
100
AcDbEntity
  8
0
  6
ByBlock
 62
    52
 48
25.0
100
AcDbLine
 10
4200.074534793762
 20
57.07407882266489
 30
0.0
 11
4199.598790826574
 21
57.54982278984789
 31
0.0
  0
ARC
  5
190
330
16
100
AcDbEntity
  8
0
  6
ByBlock
 62
    52
 48
25.0
100
AcDbCircle
 10
4243.125689691907
 20
16.00282291201324
 30
0.0
 40
59.5000000011959
100
AcDbArc
 50
136.3482604152564
 51
143.6517395848899
  0
LINE
  5
191
330
16
100
AcDbEntity
  8
0
  6
ByBlock
 62
    52
 48
25.0
100
AcDbLine
 10
4194.651515430342
 20
51.65388956283186
 30
0.0
 11
4195.202643850614
 21
51.26798528843846
 31
0.0
  0
ARC
  5
192
330
16
100
AcDbEntity
  8
0
  6
ByBlock
 62
    52
 48
25.0
100
AcDbCircle
 10
4194.794909539436
 20
51.85867757390588
 30
0.0
 40
0.2500000000054123
100
AcDbArc
 50
175.2299999996164
 51
234.999999999072
  0
LINE
  5
193
330
16
100
AcDbEntity
  8
0
  6
ByBlock
 62
    52
 48
25.0
100
AcDbLine
 10
4194.638927816362
 20
52.99579858740071
 30
0.0
 11
4194.545775405364
 21
51.87946659126919
 31
0.0
  0
ARC
  5
194
330
16
100
AcDbEntity
  8
0
  6
ByBlock
 62
    52
 48
25.0
100
AcDbCircle
 10
4194.38979368232
 20
53.01658760476221
 30
0.0
 40
0.2499999999779679
100
AcDbArc
 50
355.2299999994736
 51
50.00000000444954
  0
LINE
  5
195
330
16
100
AcDbEntity
  8
0
  6
ByBlock
 62
    52
 48
25.0
100
AcDbLine
 10
4178.373106690021
 20
66.78253557498464
 30
0.0
 11
4194.550490584712
 21
53.20809871553774
 31
0.0
  0
ARC
  5
196
330
16
100
AcDbEntity
  8
0
  6
ByBlock
 62
    52
 48
25.0
100
AcDbCircle
 10
4176.958973948713
 20
65.09723780012632
 30
0.0
 40
2.200000000006876
100
AcDbArc
 50
50.00000000001898
 51
144.9999999998436
  0
LINE
  5
197
330
16
100
AcDbEntity
  8
0
  6
ByBlock
 62
    52
 48
25.0
100
AcDbLine
 10
4172.559546200529
 20
62.6497867811313
 30
0.0
 11
4175.156839451272
 21
66.35910596010399
 31
0.0
  0
ARC
  5
198
330
16
100
AcDbEntity
  8
0
  6
ByBlock
 62
    52
 48
25.0
100
AcDbCircle
 10
4174.361680697984
 20
61.38791862116409
 30
0.0
 40
2.200000000013542
100
AcDbArc
 50
145.0000000003815
 51
239.9999999999506
  0
LINE
  5
199
330
16
100
AcDbEntity
  8
0
  6
ByBlock
 62
    52
 48
25.0
100
AcDbLine
 10
4191.55047000441
 20
48.92362530361151
 30
0.0
 11
4173.261680697971
 21
59.48266273283024
 31
0.0
  0
ARC
  5
19A
330
16
100
AcDbEntity
  8
0
  6
ByBlock
 62
    52
 48
25.0
100
AcDbCircle
 10
4191.675470004411
 20
49.14013165455435
 30
0.0
 40
0.2499999999984245
100
AcDbArc
 50
239.999999999544
 51
294.7699999995757
  0
LINE
  5
19B
330
16
100
AcDbEntity
  8
0
  6
ByBlock
 62
    52
 48
25.0
100
AcDbLine
 10
4192.797363121019
 20
49.38247507241886
 30
0.0
 11
4191.780214182858
 21
48.91313240988438
 31
0.0
  0
ARC
  5
19C
330
16
100
AcDbEntity
  8
0
  6
ByBlock
 62
    52
 48
25.0
100
AcDbCircle
 10
4192.902107299466
 20
49.15547582775435
 30
0.0
 40
0.2499999999959331
100
AcDbArc
 50
54.9999999995928
 51
114.7700000004254
  0
LINE
  5
19D
330
16
100
AcDbEntity
  8
0
  6
ByBlock
 62
    52
 48
25.0
100
AcDbLine
 10
4193.596629828818
 20
48.97435956442405
 30
0.0
 11
4193.045501408553
 21
49.36026383882199
 31
0.0
  0
ARC
  5
19E
330
16
100
AcDbEntity
  8
0
  6
ByBlock
 62
    52
 48
25.0
100
AcDbCircle
 10
4243.125689690743
 20
16.00282291293274
 30
0.0
 40
59.49999999972042
100
AcDbArc
 50
146.3482604151103
 51
153.651739584943
  0
LINE
  5
19F
330
16
100
AcDbEntity
  8
0
  6
ByBlock
 62
    52
 48
25.0
100
AcDbLine
 10
4189.197204302574
 20
42.69481772864128
 30
0.0
 11
4189.806971417762
 21
42.41047865313703
 31
0.0
  0
ARC
  5
1A0
330
16
100
AcDbEntity
  8
0
  6
ByBlock
 62
    52
 48
25.0
100
AcDbCircle
 10
4189.302858868017
 20
42.92139467540528
 30
0.0
 40
0.2500000000102565
100
AcDbArc
 50
185.2300000004952
 51
244.99999999897
  0
LINE
  5
1A1
330
16
100
AcDbEntity
  8
0
  6
ByBlock
 62
    52
 48
25.0
100
AcDbLine
 10
4188.951787866019
 20
44.01415432363956
 30
0.0
 11
4189.053899666258
 21
42.89860617250178
 31
0.0
  0
ARC
  5
1A2
330
16
100
AcDbEntity
  8
0
  6
ByBlock
 62
    52
 48
25.0
100
AcDbCircle
 10
4188.702828664282
 20
43.99136582074492
 30
0.0
 40
0.2499999999877233
100
AcDbArc
 50
5.229999998900406
 51
60.00000000236155
  0
LINE
  5
1A3
330
16
100
AcDbEntity
  8
0
  6
ByBlock
 62
    52
 48
25.0
100
AcDbLine
 10
4170.539039357819
 20
54.76690960091855
 30
0.0
 11
4188.827828664267
 21
44.20787217168526
 31
0.0
  0
ARC
  5
1A4
330
16
100
AcDbEntity
  8
0
  6
ByBlock
 62
    52
 48
25.0
100
AcDbCircle
 10
4169.439039357828
 20
52.86165371258675
 30
0.0
 40
2.200000000007026
100
AcDbArc
 50
60.00000000042888
 51
154.9999999999042
  0
LINE
  5
1A5
330
16
100
AcDbEntity
  8
0
  6
ByBlock
 62
    52
 48
25.0
100
AcDbLine
 10
4165.531444211985
 20
49.68743236272439
 30
0.0
 11
4167.445162226344
 21
53.79141388842436
 31
0.0
  0
ARC
  5
1A6
330
16
100
AcDbEntity
  8
0
  6
ByBlock
 62
    52
 48
25.0
100
AcDbCircle
 10
4167.525321343455
 20
48.7576721868877
 30
0.0
 40
2.199999999993793
100
AcDbArc
 50
154.9999999997979
 51
250.0000000000285
  0
LINE
  5
1A7
330
16
100
AcDbEntity
  8
0
  6
ByBlock
 62
    52
 48
25.0
100
AcDbLine
 10
4186.617376137838
 20
39.46754143132057
 30
0.0
 11
4166.772877028146
 21
46.69034842116253
 31
0.0
  0
ARC
  5
1A8
330
16
100
AcDbEntity
  8
0
  6
ByBlock
 62
    52
 48
25.0
100
AcDbCircle
 10
4186.702881173674
 20
39.70246458651605
 30
0.0
 40
0.250000000002772
100
AcDbArc
 50
249.9999999986885
 51
304.7699999967607
  0
LINE
  5
1A9
330
16
100
AcDbEntity
  8
0
  6
ByBlock
 62
    52
 48
25.0
100
AcDbLine
 10
4187.765647720065
 20
40.13594095854841
 30
0.0
 11
4186.845452057852
 21
39.49710260613483
 31
0.0
  0
ARC
  5
1AA
330
16
100
AcDbEntity
  8
0
  6
ByBlock
 62
    52
 48
25.0
100
AcDbCircle
 10
4187.908218604251
 20
39.93057897815607
 30
0.0
 40
0.2500000000146199
100
AcDbArc
 50
64.99999999948002
 51
124.7699999967309
  0
LINE
  5
1AB
330
16
100
AcDbEntity
  8
0
  6
ByBlock
 62
    52
 48
25.0
100
AcDbLine
 10
4188.62364028488
 20
39.87281684942627
 30
0.0
 11
4188.013873169693
 21
40.15715592492779
 31
0.0
  0
ARC
  5
1AC
330
16
100
AcDbEntity
  8
0
  6
ByBlock
 62
    52
 48
25.0
100
AcDbCircle
 10
4243.125689690103
 20
16.00282291309531
 30
0.0
 40
59.49999999907372
100
AcDbArc
 50
156.3482604149174
 51
163.6517395850652
  0
LINE
  5
1AD
330
16
100
AcDbEntity
  8
0
  6
ByBlock
 62
    52
 48
25.0
100
AcDbLine
 10
4185.381482914199
 20
32.92472313876533
 30
0.0
 11
4186.031361259068
 21
32.75058876108142
 31
0.0
  0
ARC
  5
1AE
330
16
100
AcDbEntity
  8
0
  6
ByBlock
 62
    52
 48
25.0
100
AcDbCircle
 10
4185.446187675472
 20
33.16620459532874
 30
0.0
 40
0.2499999999925091
100
AcDbArc
 50
195.2299999975268
 51
255.0000000002136
  0
LINE
  5
1AF
330
16
100
AcDbEntity
  8
0
  6
ByBlock
 62
    52
 48
25.0
100
AcDbLine
 10
4184.910694509315
 20
34.18139992937813
 30
0.0
 11
4185.204967905411
 21
33.10053098930803
 31
0.0
  0
ARC
  5
1B0
330
16
100
AcDbEntity
  8
0
  6
ByBlock
 62
    52
 48
25.0
100
AcDbCircle
 10
4184.669474739225
 20
34.11572632332468
 30
0.0
 40
0.2500000000302442
100
AcDbArc
 50
15.23000000295881
 51
69.99999999777582
  0
LINE
  5
1B1
330
16
100
AcDbEntity
  8
0
  6
ByBlock
 62
    52
 48
25.0
100
AcDbLine
 10
4164.910480665385
 20
41.5734564683944
 30
0.0
 11
4184.754979775076
 21
34.35064947854608
 31
0.0
  0
ARC
  5
1B2
330
16
100
AcDbEntity
  8
0
  6
ByBlock
 62
    52
 48
25.0
100
AcDbCircle
 10
4164.158036350069
 20
39.50613270266649
 30
0.0
 40
2.199999999999762
100
AcDbArc
 50
70.00000000001076
 51
165.0000000001583
  0
LINE
  5
1B3
330
16
100
AcDbEntity
  8
0
  6
ByBlock
 62
    52
 48
25.0
100
AcDbLine
 10
4160.861004107726
 20
35.7015881313946
 30
0.0
 11
4162.032999532232
 21
40.07553460188683
 31
0.0
  0
ARC
  5
1B4
330
16
100
AcDbEntity
  8
0
  6
ByBlock
 62
    52
 48
25.0
100
AcDbCircle
 10
4162.986040925549
 20
35.13218623216699
 30
0.0
 40
2.199999999989154
100
AcDbArc
 50
164.9999999998941
 51
260.0000000003644
  0
LINE
  5
1B5
330
16
100
AcDbEntity
  8
0
  6
ByBlock
 62
    52
 48
25.0
100
AcDbLine
 10
4183.401258783982
 20
29.29849396055488
 30
0.0
 11
4162.604014934696
 21
32.96560917554871
 31
0.0
  0
ARC
  5
1B6
330
16
100
AcDbEntity
  8
0
  6
ByBlock
 62
    52
 48
25.0
100
AcDbCircle
 10
4183.444670828401
 20
29.54469589881069
 30
0.0
 40
0.2500000000060735
100
AcDbArc
 50
259.9999999995229
 51
314.7699999987072
  0
LINE
  5
1B7
330
16
100
AcDbEntity
  8
0
  6
ByBlock
 62
    52
 48
25.0
100
AcDbLine
 10
4184.416019180884
 20
30.15613426479558
 30
0.0
 11
4183.620736474156
 21
29.36721100258637
 31
0.0
  0
ARC
  5
1B8
330
16
100
AcDbEntity
  8
0
  6
ByBlock
 62
    52
 48
25.0
100
AcDbCircle
 10
4184.592084826632
 20
29.97864936858264
 30
0.0
 40
0.2499999999951212
100
AcDbArc
 50
75.00000000023049
 51
134.7699999993243
  0
LINE
  5
1B9
330
16
100
AcDbEntity
  8
0
  6
ByBlock
 62
    52
 48
25.0
100
AcDbLine
 10
4185.306667932782
 20
30.04599644746668
 30
0.0
 11
4184.656789587905
 21
30.22013082515059
 31
0.0
  0
ARC
  5
1BA
330
16
100
AcDbEntity
  8
0
  6
ByBlock
 62
    52
 48
25.0
100
AcDbCircle
 10
4243.12568969086
 20
16.00282291279086
 30
0.0
 40
59.49999999988309
100
AcDbArc
 50
166.3482604149727
 51
173.65173958499
  0
LINE
  5
1BB
330
16
100
AcDbEntity
  8
0
  6
ByBlock
 62
    52
 48
25.0
100
AcDbLine
 10
4183.320290028751
 20
22.64046517342922
 30
0.0
 11
4183.990533378659
 21
22.58182647850481
 31
0.0
  0
ARC
  5
1BC
330
16
100
AcDbEntity
  8
0
  6
ByBlock
 62
    52
 48
25.0
100
AcDbCircle
 10
4183.342078964437
 20
22.88951384794086
 30
0.0
 40
0.2499999999876252
100
AcDbArc
 50
205.2299999977662
 51
264.9999999997139
  0
LINE
  5
1BD
330
16
100
AcDbEntity
  8
0
  6
ByBlock
 62
    52
 48
25.0
100
AcDbLine
 10
4182.638434322988
 20
23.7962986712746
 30
0.0
 11
4183.115927966712
 21
22.78295059807624
 31
0.0
  0
ARC
  5
1BE
330
16
100
AcDbEntity
  8
0
  6
ByBlock
 62
    52
 48
25.0
100
AcDbCircle
 10
4182.412283325262
 20
23.68973542140702
 30
0.0
 40
0.249999999990838
100
AcDbArc
 50
25.22999999826121
 51
80.00000000079078
  0
LINE
  5
1BF
330
16
100
AcDbEntity
  8
0
  6
ByBlock
 62
    52
 48
25.0
100
AcDbLine
 10
4161.658451520365
 20
27.60305257465279
 30
0.0
 11
4182.455695369673
 21
23.93593735965169
 31
0.0
  0
ARC
  5
1C0
330
16
100
AcDbEntity
  8
0
  6
ByBlock
 62
    52
 48
25.0
100
AcDbCircle
 10
4161.276425529504
 20
25.43647551802087
 30
0.0
 40
2.20000000000628
100
AcDbArc
 50
80.00000000035987
 51
174.9999999998933
  0
LINE
  5
1C1
330
16
100
AcDbEntity
  8
0
  6
ByBlock
 62
    52
 48
25.0
100
AcDbLine
 10
4158.69013484697
 20
21.11720688696733
 30
0.0
 11
4159.084797193696
 21
25.62821815207008
 31
0.0
  0
ARC
  5
1C2
330
16
100
AcDbEntity
  8
0
  6
ByBlock
 62
    52
 48
25.0
100
AcDbCircle
 10
4160.881763182763
 20
20.92546425292858
 30
0.0
 40
2.199999999997999
100
AcDbArc
 50
175.0000000001399
 51
270.0
  0
LINE
  5
1C3
330
16
100
AcDbEntity
  8
0
  6
ByBlock
 62
    52
 48
25.0
100
AcDbLine
 10
4181.999838041221
 20
18.72546425293876
 30
0.0
 11
4160.88176318277
 21
18.72546425293058
 31
0.0
  0
ARC
  5
1C4
330
16
100
AcDbEntity
  8
0
  6
ByBlock
 62
    52
 48
25.0
100
AcDbCircle
 10
4181.999838041221
 20
18.97546425293967
 30
0.0
 40
0.2500000000002682
100
AcDbArc
 50
270.0
 51
324.7699999980333
  0
LINE
  5
1C5
330
16
100
AcDbEntity
  8
0
  6
ByBlock
 62
    52
 48
25.0
100
AcDbLine
 10
4182.850254271609
 20
19.74628636754551
 30
0.0
 11
4182.204048782987
 21
18.83124922963179
 31
0.0
  0
ARC
  5
1C6
330
16
100
AcDbEntity
  8
0
  6
ByBlock
 62
    52
 48
25.0
100
AcDbCircle
 10
4183.054465013359
 20
19.60207134426309
 30
0.0
 40
0.2499999999741564
100
AcDbArc
 50
84.99999999803796
 51
144.7700000008893
  0
LINE
  5
1C7
330
16
100
AcDbEntity
  8
0
  6
ByBlock
 62
    52
 48
25.0
100
AcDbLine
 10
4183.746497298962
 20
19.79248132384146
 30
0.0
 11
4183.076253949053
 21
19.8511200187595
 31
0.0
  0
ARC
  5
1C8
330
16
100
AcDbEntity
  8
0
  6
ByBlock
 62
    52
 48
25.0
100
AcDbCircle
 10
4243.125689692607
 20
16.00282291277926
 30
0.0
 40
59.5000000016298
100
AcDbArc
 50
176.3482604151165
 51
183.6517395848834
  0
LINE
  5
1C9
330
16
100
AcDbEntity
  8
0
  6
ByBlock
 62
    52
 48
25.0
100
AcDbLine
 10
4183.076253949053
 20
12.1545258067963
 30
0.0
 11
4183.746497298962
 21
12.21316450171707
 31
0.0
  0
ARC
  5
1CA
330
16
100
AcDbEntity
  8
0
  6
ByBlock
 62
    52
 48
25.0
100
AcDbCircle
 10
4183.054465013374
 20
12.40357448133704
 30
0.0
 40
0.2500000000156963
100
AcDbArc
 50
215.2300000012155
 51
274.9999999977773
  0
LINE
  5
1CB
330
16
100
AcDbEntity
  8
0
  6
ByBlock
 62
    52
 48
25.0
100
AcDbLine
 10
4182.204048782995
 20
13.17439659593128
 30
0.0
 11
4182.850254271595
 21
12.25935945802303
 31
0.0
  0
ARC
  5
1CC
330
16
100
AcDbEntity
  8
0
  6
ByBlock
 62
    52
 48
25.0
100
AcDbCircle
 10
4181.999838041207
 20
13.03018157259816
 30
0.0
 40
0.2500000000361524
100
AcDbArc
 50
35.23000000392259
 51
89.99999999666494
  0
LINE
  5
1CD
330
16
100
AcDbEntity
  8
0
  6
ByBlock
 62
    52
 48
25.0
100
AcDbLine
 10
4160.881763182763
 20
13.2801815726325
 30
0.0
 11
4181.999838041221
 21
13.28018157263432
 31
0.0
  0
ARC
  5
1CE
330
16
100
AcDbEntity
  8
0
  6
ByBlock
 62
    52
 48
25.0
100
AcDbCircle
 10
4160.881763182777
 20
11.08018157261813
 30
0.0
 40
2.200000000019072
100
AcDbArc
 50
90.00000000041687
 51
184.9999999995616
  0
LINE
  5
1CF
330
16
100
AcDbEntity
  8
0
  6
ByBlock
 62
    52
 48
25.0
100
AcDbLine
 10
4159.084797193689
 20
6.377427673487545
 30
0.0
 11
4158.690134846954
 21
10.88843893858848
 31
0.0
  0
ARC
  5
1D0
330
16
100
AcDbEntity
  8
0
  6
ByBlock
 62
    52
 48
25.0
100
AcDbCircle
 10
4161.276425529504
 20
6.569170307547892
 30
0.0
 40
2.200000000012138
100
AcDbArc
 50
185.0000000003662
 51
279.9999999996379
  0
LINE
  5
1D1
330
16
100
AcDbEntity
  8
0
  6
ByBlock
 62
    52
 48
25.0
100
AcDbLine
 10
4182.455695369659
 20
8.069708465917756
 30
0.0
 11
4161.658451520365
 21
4.402593250907557
 31
0.0
  0
ARC
  5
1D2
330
16
100
AcDbEntity
  8
0
  6
ByBlock
 62
    52
 48
25.0
100
AcDbCircle
 10
4182.412283325255
 20
8.315910404156284
 30
0.0
 40
0.2499999999827879
100
AcDbArc
 50
279.9999999979369
 51
334.7700000007833
  0
LINE
  5
1D3
330
16
100
AcDbEntity
  8
0
  6
ByBlock
 62
    52
 48
25.0
100
AcDbLine
 10
4183.115927966705
 20
9.222695227489566
 30
0.0
 11
4182.638434322972
 21
8.20934715428757
 31
0.0
  0
ARC
  5
1D4
330
16
100
AcDbEntity
  8
0
  6
ByBlock
 62
    52
 48
25.0
100
AcDbCircle
 10
4183.342078964437
 20
9.116131977609484
 30
0.0
 40
0.2499999999968526
100
AcDbArc
 50
94.99999999986968
 51
154.7699999998396
  0
LINE
  5
1D5
330
16
100
AcDbEntity
  8
0
  6
ByBlock
 62
    52
 48
25.0
100
AcDbLine
 10
4183.990533378652
 20
9.423819347049175
 30
0.0
 11
4183.320290028751
 21
9.365180652129311
 31
0.0
  0
ARC
  5
1D6
330
16
100
AcDbEntity
  8
0
  6
ByBlock
 62
    52
 48
25.0
100
AcDbCircle
 10
4243.125689692402
 20
16.00282291300255
 30
0.0
 40
59.50000000144985
100
AcDbArc
 50
186.3482604150747
 51
193.651739584888
  0
LINE
  5
1D7
330
16
100
AcDbEntity
  8
0
  6
ByBlock
 62
    52
 48
25.0
100
AcDbLine
 10
4184.656789587898
 20
1.785515000407031
 30
0.0
 11
4185.306667932767
 21
1.959649378099129
 31
0.0
  0
ARC
  5
1D8
330
16
100
AcDbEntity
  8
0
  6
ByBlock
 62
    52
 48
25.0
100
AcDbCircle
 10
4184.592084826625
 20
2.026996456972028
 30
0.0
 40
0.2499999999900928
100
AcDbArc
 50
225.2299999977187
 51
284.999999999783
  0
LINE
  5
1D9
330
16
100
AcDbEntity
  8
0
  6
ByBlock
 62
    52
 48
25.0
100
AcDbLine
 10
4183.620736474149
 20
2.638434822979434
 30
0.0
 11
4184.416019180869
 21
1.849511560770224
 31
0.0
  0
ARC
  5
1DA
330
16
100
AcDbEntity
  8
0
  6
ByBlock
 62
    52
 48
25.0
100
AcDbCircle
 10
4183.444670828394
 20
2.460949926760804
 30
0.0
 40
0.2500000000033775
100
AcDbArc
 50
45.23000000054723
 51
99.99999999878511
  0
LINE
  5
1DB
330
16
100
AcDbEntity
  8
0
  6
ByBlock
 62
    52
 48
25.0
100
AcDbLine
 10
4162.604014934681
 20
-0.9599633499929041
 30
0.0
 11
4183.401258783982
 21
2.707151865018204
 31
0.0
  0
ARC
  5
1DC
330
16
100
AcDbEntity
  8
0
  6
ByBlock
 62
    52
 48
25.0
100
AcDbCircle
 10
4162.986040925534
 20
-3.126540406609592
 30
0.0
 40
2.19999999998753
100
AcDbArc
 50
99.99999999963561
 51
195.0000000001058
  0
LINE
  5
1DD
330
16
100
AcDbEntity
  8
0
  6
ByBlock
 62
    52
 48
25.0
100
AcDbLine
 10
4162.03299953221
 20
-8.069888776332845
 30
0.0
 11
4160.861004107712
 21
-3.695942305836979
 31
0.0
  0
ARC
  5
1DE
330
16
100
AcDbEntity
  8
0
  6
ByBlock
 62
    52
 48
25.0
100
AcDbCircle
 10
4164.158036350047
 20
-7.500486877102503
 30
0.0
 40
2.200000000003973
100
AcDbArc
 50
195.0000000000807
 51
289.9999999999849
  0
LINE
  5
1DF
330
16
100
AcDbEntity
  8
0
  6
ByBlock
 62
    52
 48
25.0
100
AcDbLine
 10
4184.754979775054
 20
-2.34500365297481
 30
0.0
 11
4164.910480665363
 21
-9.567810642835866
 31
0.0
  0
ARC
  5
1E0
330
16
100
AcDbEntity
  8
0
  6
ByBlock
 62
    52
 48
25.0
100
AcDbCircle
 10
4184.669474739225
 20
-2.110080497772742
 30
0.0
 40
0.250000000004965
100
AcDbArc
 50
289.9999999991077
 51
344.7699999982982
  0
LINE
  5
1E1
330
16
100
AcDbEntity
  8
0
  6
ByBlock
 62
    52
 48
25.0
100
AcDbLine
 10
4185.204967905389
 20
-1.094885163750404
 30
0.0
 11
4184.910694509293
 21
-2.175754103814142
 31
0.0
  0
ARC
  5
1E2
330
16
100
AcDbEntity
  8
0
  6
ByBlock
 62
    52
 48
25.0
100
AcDbCircle
 10
4185.446187675458
 20
-1.160558769794533
 30
0.0
 40
0.2500000000063221
100
AcDbArc
 50
104.9999999989169
 51
164.7699999977325
  0
LINE
  5
1E3
330
16
100
AcDbEntity
  8
0
  6
ByBlock
 62
    52
 48
25.0
100
AcDbLine
 10
4186.031361259054
 20
-0.7449429355228859
 30
0.0
 11
4185.381482914184
 21
-0.9190773132149843
 31
0.0
  0
ARC
  5
1E4
330
16
100
AcDbEntity
  8
0
  6
ByBlock
 62
    52
 48
25.0
100
AcDbCircle
 10
4243.125689691769
 20
16.00282291310122
 30
0.0
 40
59.50000000086625
100
AcDbArc
 50
196.3482604150473
 51
203.6517395850229
  0
LINE
  5
1E5
330
16
100
AcDbEntity
  8
0
  6
ByBlock
 62
    52
 48
25.0
100
AcDbLine
 10
4188.013873169679
 20
-8.151510099378356
 30
0.0
 11
4188.623640284873
 21
-7.867171023876835
 31
0.0
  0
ARC
  5
1E6
330
16
100
AcDbEntity
  8
0
  6
ByBlock
 62
    52
 48
25.0
100
AcDbCircle
 10
4187.908218604251
 20
-7.924933152612766
 30
0.0
 40
0.2500000000017319
100
AcDbArc
 50
235.2299999991253
 51
294.9999999978181
  0
LINE
  5
1E7
330
16
100
AcDbEntity
  8
0
  6
ByBlock
 62
    52
 48
25.0
100
AcDbLine
 10
4186.845452057852
 20
-7.491456780571752
 30
0.0
 11
4187.765647720058
 21
-8.13029513298261
 31
0.0
  0
ARC
  5
1E8
330
16
100
AcDbEntity
  8
0
  6
ByBlock
 62
    52
 48
25.0
100
AcDbCircle
 10
4186.70288117366
 20
-7.696818760941596
 30
0.0
 40
0.2499999999997031
100
AcDbArc
 50
55.22999999912534
 51
109.9999999995485
  0
LINE
  5
1E9
330
16
100
AcDbEntity
  8
0
  6
ByBlock
 62
    52
 48
25.0
100
AcDbLine
 10
4166.772877028132
 20
-14.68470259560126
 30
0.0
 11
4186.617376137831
 21
-7.461895605744757
 31
0.0
  0
ARC
  5
1EA
330
16
100
AcDbEntity
  8
0
  6
ByBlock
 62
    52
 48
25.0
100
AcDbCircle
 10
4167.525321343434
 20
-16.75202636132439
 30
0.0
 40
2.19999999998657
100
AcDbArc
 50
109.9999999995618
 51
205.0000000004373
  0
LINE
  5
1EB
330
16
100
AcDbEntity
  8
0
  6
ByBlock
 62
    52
 48
25.0
100
AcDbLine
 10
4167.445162226329
 20
-21.78576806286128
 30
0.0
 11
4165.53144421197
 21
-17.6817865371604
 31
0.0
  0
ARC
  5
1EC
330
16
100
AcDbEntity
  8
0
  6
ByBlock
 62
    52
 48
25.0
100
AcDbCircle
 10
4169.439039357814
 20
-20.85600788702709
 30
0.0
 40
2.200000000000752
100
AcDbArc
 50
205.0000000000249
 51
299.9999999999843
  0
LINE
  5
1ED
330
16
100
AcDbEntity
  8
0
  6
ByBlock
 62
    52
 48
25.0
100
AcDbLine
 10
4188.827828664238
 20
-12.20222634613037
 30
0.0
 11
4170.539039357812
 21
-22.76126377535456
 31
0.0
  0
ARC
  5
1EE
330
16
100
AcDbEntity
  8
0
  6
ByBlock
 62
    52
 48
25.0
100
AcDbCircle
 10
4188.702828664252
 20
-11.98571999519185
 30
0.0
 40
0.2499999999877112
100
AcDbArc
 50
299.9999999980516
 51
354.7700000010995
  0
LINE
  5
1EF
330
16
100
AcDbEntity
  8
0
  6
ByBlock
 62
    52
 48
25.0
100
AcDbLine
 10
4189.053899666244
 20
-10.89296034694053
 30
0.0
 11
4188.95178786599
 21
-12.00850849808648
 31
0.0
  0
ARC
  5
1F0
330
16
100
AcDbEntity
  8
0
  6
ByBlock
 62
    52
 48
25.0
100
AcDbCircle
 10
4189.302858867988
 20
-10.91574884984447
 30
0.0
 40
0.24999999999693
100
AcDbArc
 50
114.9999999986893
 51
174.7699999991026
  0
LINE
  5
1F1
330
16
100
AcDbEntity
  8
0
  6
ByBlock
 62
    52
 48
25.0
100
AcDbLine
 10
4189.806971417755
 20
-10.40483282758305
 30
0.0
 11
4189.197204302559
 21
-10.68917190308548
 31
0.0
  0
ARC
  5
1F2
330
16
100
AcDbEntity
  8
0
  6
ByBlock
 62
    52
 48
25.0
100
AcDbCircle
 10
4243.125689690736
 20
16.00282291250642
 30
0.0
 40
59.49999999966928
100
AcDbArc
 50
206.3482604149752
 51
213.6517395848137
  0
LINE
  5
1F3
330
16
100
AcDbEntity
  8
0
  6
ByBlock
 62
    52
 48
25.0
100
AcDbLine
 10
4193.045501408538
 20
-17.35461801326983
 30
0.0
 11
4193.596629828796
 21
-16.96871373887006
 31
0.0
  0
ARC
  5
1F4
330
16
100
AcDbEntity
  8
0
  6
ByBlock
 62
    52
 48
25.0
100
AcDbCircle
 10
4192.902107299444
 20
-17.14983000219445
 30
0.0
 40
0.2500000000046181
100
AcDbArc
 50
245.2300000009175
 51
305.0000000008682
  0
LINE
  5
1F5
330
16
100
AcDbEntity
  8
0
  6
ByBlock
 62
    52
 48
25.0
100
AcDbLine
 10
4191.780214182843
 20
-16.90748658433949
 30
0.0
 11
4192.797363120997
 21
-17.37682924687124
 31
0.0
  0
ARC
  5
1F6
330
16
100
AcDbEntity
  8
0
  6
ByBlock
 62
    52
 48
25.0
100
AcDbCircle
 10
4191.675470004383
 20
-17.13448582900059
 30
0.0
 40
0.2499999999960872
100
AcDbArc
 50
65.22999999633535
 51
119.9999999985624
  0
LINE
  5
1F7
330
16
100
AcDbEntity
  8
0
  6
ByBlock
 62
    52
 48
25.0
100
AcDbLine
 10
4173.261680697942
 20
-27.47701690728809
 30
0.0
 11
4191.550470004389
 21
-16.9179794780548
 31
0.0
  0
ARC
  5
1F8
330
16
100
AcDbEntity
  8
0
  6
ByBlock
 62
    52
 48
25.0
100
AcDbCircle
 10
4174.361680697947
 20
-29.38227279561579
 30
0.0
 40
2.200000000004398
100
AcDbArc
 50
120.0000000000233
 51
214.9999999998533
  0
LINE
  5
1F9
330
16
100
AcDbEntity
  8
0
  6
ByBlock
 62
    52
 48
25.0
100
AcDbLine
 10
4175.15683945125
 20
-34.35346013455455
 30
0.0
 11
4172.559546200507
 21
-30.64414095558914
 31
0.0
  0
ARC
  5
1FA
330
16
100
AcDbEntity
  8
0
  6
ByBlock
 62
    52
 48
25.0
100
AcDbCircle
 10
4176.958973948677
 20
-33.09159197458644
 30
0.0
 40
2.199999999994746
100
AcDbArc
 50
215.0000000001671
 51
309.9999999999978
  0
LINE
  5
1FB
330
16
100
AcDbEntity
  8
0
  6
ByBlock
 62
    52
 48
25.0
100
AcDbLine
 10
4194.550490584675
 20
-21.20245288998831
 30
0.0
 11
4178.373106689985
 21
-34.77688974944249
 31
0.0
  0
ARC
  5
1FC
330
16
100
AcDbEntity
  8
0
  6
ByBlock
 62
    52
 48
25.0
100
AcDbCircle
 10
4194.389793682275
 20
-21.01094177921391
 30
0.0
 40
0.2499999999832251
100
AcDbArc
 50
309.9999999967837
 51
4.769999999617633
  0
LINE
  5
1FD
330
16
100
AcDbEntity
  8
0
  6
ByBlock
 62
    52
 48
25.0
100
AcDbLine
 10
4194.545775405342
 20
-19.87382076572612
 30
0.0
 11
4194.638927816326
 21
-20.99015276185582
 31
0.0
  0
ARC
  5
1FE
330
16
100
AcDbEntity
  8
0
  6
ByBlock
 62
    52
 48
25.0
100
AcDbCircle
 10
4194.794909539407
 20
-19.85303174836144
 30
0.0
 40
0.2499999999992857
100
AcDbArc
 50
124.9999999998938
 51
184.7700000008379
  0
LINE
  5
1FF
330
16
100
AcDbEntity
  8
0
  6
ByBlock
 62
    52
 48
25.0
100
AcDbLine
 10
4195.202643850592
 20
-19.26233946289721
 30
0.0
 11
4194.65151543032
 21
-19.6482437372897
 31
0.0
  0
ARC
  5
200
330
16
100
AcDbEntity
  8
0
  6
ByBlock
 62
    52
 48
25.0
100
AcDbCircle
 10
4243.125689691697
 20
16.00282291336339
 30
0.0
 40
59.50000000094579
100
AcDbArc
 50
216.3482604150996
 51
223.6517395847435
  0
LINE
  5
201
330
16
100
AcDbEntity
  8
0
  6
ByBlock
 62
    52
 48
25.0
100
AcDbLine
 10
4199.598790826545
 20
-25.54417696429937
 30
0.0
 11
4200.074534793726
 21
-25.06843299710908
 31
0.0
  0
ARC
  5
202
330
16
100
AcDbEntity
  8
0
  6
ByBlock
 62
    52
 48
25.0
100
AcDbCircle
 10
4199.422014131247
 20
-25.36740026899725
 30
0.0
 40
0.2500000000051448
100
AcDbArc
 50
255.2299999997842
 51
314.9999999993091
  0
LINE
  5
203
330
16
100
AcDbEntity
  8
0
  6
ByBlock
 62
    52
 48
25.0
100
AcDbLine
 10
4198.275082599088
 20
-25.32355328744052
 30
0.0
 11
4199.358279257395
 21
-25.60913952079045
 31
0.0
  0
ARC
  5
204
330
16
100
AcDbEntity
  8
0
  6
ByBlock
 62
    52
 48
25.0
100
AcDbCircle
 10
4198.211347725227
 20
-25.56529253924509
 30
0.0
 40
0.2500000000163836
100
AcDbArc
 50
75.22999999891819
 51
129.99999999456
  0
LINE
  5
205
330
16
100
AcDbEntity
  8
0
  6
ByBlock
 62
    52
 48
25.0
100
AcDbLine
 10
4181.873266928124
 20
-38.948218287891
 30
0.0
 11
4198.050650822813
 21
-25.37378142843773
 31
0.0
  0
ARC
  5
206
330
16
100
AcDbEntity
  8
0
  6
ByBlock
 62
    52
 48
25.0
100
AcDbCircle
 10
4183.287399669418
 20
-40.63351606275773
 30
0.0
 40
2.199999999992268
100
AcDbArc
 50
129.9999999994858
 51
225.0000000001474
  0
LINE
  5
207
330
16
100
AcDbEntity
  8
0
  6
ByBlock
 62
    52
 48
25.0
100
AcDbLine
 10
4184.933715796804
 20
-45.39110202735082
 30
0.0
 11
4181.731764750817
 21
-42.18915098136676
 31
0.0
  0
ARC
  5
208
330
16
100
AcDbEntity
  8
0
  6
ByBlock
 62
    52
 48
25.0
100
AcDbCircle
 10
4186.489350715412
 20
-43.83546710873997
 30
0.0
 40
2.200000000000842
100
AcDbArc
 50
225.0000000000921
 51
319.9999999999536
  0
LINE
  5
209
330
16
100
AcDbEntity
  8
0
  6
ByBlock
 62
    52
 48
25.0
100
AcDbLine
 10
4201.749085349715
 20
-29.07221595536066
 30
0.0
 11
4188.174648490276
 21
-45.24959985004898
 31
0.0
  0
ARC
  5
20A
330
16
100
AcDbEntity
  8
0
  6
ByBlock
 62
    52
 48
25.0
100
AcDbCircle
 10
4201.557574238926
 20
-28.91151905292986
 30
0.0
 40
0.2500000000131136
100
AcDbArc
 50
319.9999999997041
 51
14.7699999978519
  0
LINE
  5
20B
330
16
100
AcDbEntity
  8
0
  6
ByBlock
 62
    52
 48
25.0
100
AcDbLine
 10
4201.513727257384
 20
-27.76458752077997
 30
0.0
 11
4201.79931349073
 21
-28.84778417908547
 31
0.0
  0
ARC
  5
20C
330
16
100
AcDbEntity
  8
0
  6
ByBlock
 62
    52
 48
25.0
100
AcDbCircle
 10
4201.755466509181
 20
-27.70085264693534
 30
0.0
 40
0.2500000000071164
100
AcDbArc
 50
135.0000000011146
 51
194.7699999982928
  0
LINE
  5
20D
330
16
100
AcDbEntity
  8
0
  6
ByBlock
 62
    52
 48
25.0
100
AcDbLine
 10
4202.054433781056
 20
-27.04833198445067
 30
0.0
 11
4201.578689813875
 21
-27.52407595163731
 31
0.0
  0
ARC
  5
20E
330
16
100
AcDbEntity
  8
0
  6
ByBlock
 62
    52
 48
25.0
100
AcDbCircle
 10
4243.125689692082
 20
16.00282291419535
 30
0.0
 40
59.5000000018164
100
AcDbArc
 50
226.3482604152711
 51
233.651739585018
  0
LINE
  5
20F
330
16
100
AcDbEntity
  8
0
  6
ByBlock
 62
    52
 48
25.0
100
AcDbLine
 10
4207.474623040893
 20
-32.47135134787186
 30
0.0
 11
4207.860527315285
 21
-31.92022292759521
 31
0.0
  0
ARC
  5
210
330
16
100
AcDbEntity
  8
0
  6
ByBlock
 62
    52
 48
25.0
100
AcDbCircle
 10
4207.26983502983
 20
-32.32795723879121
 30
0.0
 40
0.2499999999912136
100
AcDbArc
 50
265.2299999980477
 51
325.0000000001254
  0
LINE
  5
211
330
16
100
AcDbEntity
  8
0
  6
ByBlock
 62
    52
 48
25.0
100
AcDbLine
 10
4206.132714016326
 20
-32.48393896185826
 30
0.0
 11
4207.249046012461
 21
-32.57709137284837
 31
0.0
  0
ARC
  5
212
330
16
100
AcDbEntity
  8
0
  6
ByBlock
 62
    52
 48
25.0
100
AcDbCircle
 10
4206.111924998971
 20
-32.73307309593224
 30
0.0
 40
0.2500000000080172
100
AcDbArc
 50
85.2300000013961
 51
139.9999999983598
  0
LINE
  5
213
330
16
100
AcDbEntity
  8
0
  6
ByBlock
 62
    52
 48
25.0
100
AcDbLine
 10
4192.345977028737
 20
-48.74976008819704
 30
0.0
 11
4205.92041388819
 21
-32.57237619349962
 31
0.0
  0
ARC
  5
214
330
16
100
AcDbEntity
  8
0
  6
ByBlock
 62
    52
 48
25.0
100
AcDbCircle
 10
4194.031274803609
 20
-50.16389282950263
 30
0.0
 40
2.200000000005033
100
AcDbArc
 50
140.0000000003313
 51
234.9999999996526
  0
LINE
  5
215
330
16
100
AcDbEntity
  8
0
  6
ByBlock
 62
    52
 48
25.0
100
AcDbLine
 10
4196.478725822599
 20
-54.56332057768213
 30
0.0
 11
4192.769406643622
 21
-51.96602732693555
 31
0.0
  0
ARC
  5
216
330
16
100
AcDbEntity
  8
0
  6
ByBlock
 62
    52
 48
25.0
100
AcDbCircle
 10
4197.740593982562
 20
-52.76118608024535
 30
0.0
 40
2.199999999999707
100
AcDbArc
 50
235.0000000001659
 51
329.9999999999827
  0
LINE
  5
217
330
16
100
AcDbEntity
  8
0
  6
ByBlock
 62
    52
 48
25.0
100
AcDbLine
 10
4210.204887300111
 20
-35.57239677380221
 30
0.0
 11
4199.645849870889
 21
-53.86118608024299
 31
0.0
  0
ARC
  5
218
330
16
100
AcDbEntity
  8
0
  6
ByBlock
 62
    52
 48
25.0
100
AcDbCircle
 10
4209.988380949137
 20
-35.44739677378857
 30
0.0
 40
0.2500000000321568
100
AcDbArc
 50
330.0000000005748
 51
24.76999999406993
  0
LINE
  5
219
330
16
100
AcDbEntity
  8
0
  6
ByBlock
 62
    52
 48
25.0
100
AcDbLine
 10
4209.746037531309
 20
-34.32550365719726
 30
0.0
 11
4210.215380193847
 21
-35.34265259535005
 31
0.0
  0
ARC
  5
21A
330
16
100
AcDbEntity
  8
0
  6
ByBlock
 62
    52
 48
25.0
100
AcDbCircle
 10
4209.973036776035
 20
-34.2207594787526
 30
0.0
 40
0.2500000000483645
100
AcDbArc
 50
145.0000000062642
 51
204.7699999939753
  0
LINE
  5
21B
330
16
100
AcDbEntity
  8
0
  6
ByBlock
 62
    52
 48
25.0
100
AcDbLine
 10
4210.1541530393
 20
-33.52623694938302
 30
0.0
 11
4209.768248764907
 21
-34.07736536965968
 31
0.0
  0
ARC
  5
21C
330
16
100
AcDbEntity
  8
0
  6
ByBlock
 62
    52
 48
25.0
100
AcDbCircle
 10
4243.125689690772
 20
16.00282291242161
 30
0.0
 40
59.49999999961024
100
AcDbArc
 50
236.3482604151141
 51
243.6517395849833
  0
LINE
  5
21D
330
16
100
AcDbEntity
  8
0
  6
ByBlock
 62
    52
 48
25.0
100
AcDbLine
 10
4216.433694875107
 20
-37.92566247564173
 30
0.0
 11
4216.718033950601
 21
-37.3158953604534
 31
0.0
  0
ARC
  5
21E
330
16
100
AcDbEntity
  8
0
  6
ByBlock
 62
    52
 48
25.0
100
AcDbCircle
 10
4216.207117928345
 20
-37.82000791020096
 30
0.0
 40
0.2500000000021978
100
AcDbArc
 50
275.2299999969225
 51
334.9999999992085
  0
LINE
  5
21F
330
16
100
AcDbEntity
  8
0
  6
ByBlock
 62
    52
 48
25.0
100
AcDbLine
 10
4215.114358280094
 20
-38.17107891219439
 30
0.0
 11
4216.229906431232
 21
-38.0689671119535
 31
0.0
  0
ARC
  5
220
330
16
100
AcDbEntity
  8
0
  6
ByBlock
 62
    52
 48
25.0
100
AcDbCircle
 10
4215.137146782988
 20
-38.42003811393943
 30
0.0
 40
0.2499999999925449
100
AcDbArc
 50
95.22999999859736
 51
149.9999999994637
  0
LINE
  5
221
330
16
100
AcDbEntity
  8
0
  6
ByBlock
 62
    52
 48
25.0
100
AcDbLine
 10
4204.36160300282
 20
-56.58382742038975
 30
0.0
 11
4214.92064043205
 21
-38.29503811394079
 31
0.0
  0
ARC
  5
222
330
16
100
AcDbEntity
  8
0
  6
ByBlock
 62
    52
 48
25.0
100
AcDbCircle
 10
4206.266858891132
 20
-57.68382742039079
 30
0.0
 40
2.19999999998897
100
AcDbArc
 50
149.9999999997909
 51
245.0000000003898
  0
LINE
  5
223
330
16
100
AcDbEntity
  8
0
  6
ByBlock
 62
    52
 48
25.0
100
AcDbLine
 10
4209.44108024102
 20
-61.59142256623181
 30
0.0
 11
4205.337098715324
 21
-59.67770455186928
 31
0.0
  0
ARC
  5
224
330
16
100
AcDbEntity
  8
0
  6
ByBlock
 62
    52
 48
25.0
100
AcDbCircle
 10
4210.37084041685
 20
-59.59754543475014
 30
0.0
 40
2.200000000002924
100
AcDbArc
 50
244.9999999999239
 51
339.9999999999963
  0
LINE
  5
225
330
16
100
AcDbEntity
  8
0
  6
ByBlock
 62
    52
 48
25.0
100
AcDbLine
 10
4219.660971172423
 20
-40.50549064037568
 30
0.0
 11
4212.438164182581
 21
-60.34998975006693
 31
0.0
  0
ARC
  5
226
330
16
100
AcDbEntity
  8
0
  6
ByBlock
 62
    52
 48
25.0
100
AcDbCircle
 10
4219.426048017216
 20
-40.41998560454203
 30
0.0
 40
0.2500000000105009
100
AcDbArc
 50
340.0000000002779
 51
34.76999999805183
  0
LINE
  5
227
330
16
100
AcDbEntity
  8
0
  6
ByBlock
 62
    52
 48
25.0
100
AcDbLine
 10
4218.992571645197
 20
-39.35721905813989
 30
0.0
 11
4219.6314099976
 21
-40.27741472035541
 31
0.0
  0
ARC
  5
228
330
16
100
AcDbEntity
  8
0
  6
ByBlock
 62
    52
 48
25.0
100
AcDbCircle
 10
4219.197933625524
 20
-39.21464817396623
 30
0.0
 40
0.2499999999558609
100
AcDbArc
 50
154.9999999922607
 51
214.7700000032047
  0
LINE
  5
229
330
16
100
AcDbEntity
  8
0
  6
ByBlock
 62
    52
 48
25.0
100
AcDbLine
 10
4219.255695754313
 20
-38.49922649332802
 30
0.0
 11
4218.97135667882
 21
-39.10899360851909
 31
0.0
  0
ARC
  5
22A
330
16
100
AcDbEntity
  8
0
  6
ByBlock
 62
    52
 48
25.0
100
AcDbCircle
 10
4243.125689691049
 20
16.00282291291637
 30
0.0
 40
59.50000000017289
100
AcDbArc
 50
246.3482604148422
 51
253.65173958488
  0
LINE
  5
22B
330
16
100
AcDbEntity
  8
0
  6
ByBlock
 62
    52
 48
25.0
100
AcDbLine
 10
4226.203789464954
 20
-41.74138386401136
 30
0.0
 11
4226.377923842636
 21
-41.09150551913808
 31
0.0
  0
ARC
  5
22C
330
16
100
AcDbEntity
  8
0
  6
ByBlock
 62
    52
 48
25.0
100
AcDbCircle
 10
4225.962308008384
 20
-41.67667910273485
 30
0.0
 40
0.2499999999975126
100
AcDbArc
 50
285.2299999984192
 51
344.9999999997682
  0
LINE
  5
22D
330
16
100
AcDbEntity
  8
0
  6
ByBlock
 62
    52
 48
25.0
100
AcDbLine
 10
4224.947112674337
 20
-42.21217226889985
 30
0.0
 11
4226.02798161441
 21
-41.91789887279992
 31
0.0
  0
ARC
  5
22E
330
16
100
AcDbEntity
  8
0
  6
ByBlock
 62
    52
 48
25.0
100
AcDbCircle
 10
4225.012786280363
 20
-42.45339203895264
 30
0.0
 40
0.2499999999849181
100
AcDbArc
 50
105.229999999275
 51
160.0000000019953
  0
LINE
  5
22F
330
16
100
AcDbEntity
  8
0
  6
ByBlock
 62
    52
 48
25.0
100
AcDbLine
 10
4217.555056135323
 20
-62.21238611283388
 30
0.0
 11
4224.777863125178
 21
-42.36788700313446
 31
0.0
  0
ARC
  5
230
330
16
100
AcDbEntity
  8
0
  6
ByBlock
 62
    52
 48
25.0
100
AcDbCircle
 10
4219.622379901055
 20
-62.9648304281493
 30
0.0
 40
2.200000000002657
100
AcDbArc
 50
160.0000000000207
 51
254.9999999997975
  0
LINE
  5
231
330
16
100
AcDbEntity
  8
0
  6
ByBlock
 62
    52
 48
25.0
100
AcDbLine
 10
4223.426924472311
 20
-66.2618626704907
 30
0.0
 11
4219.052978001825
 21
-65.08986724598708
 31
0.0
  0
ARC
  5
232
330
16
100
AcDbEntity
  8
0
  6
ByBlock
 62
    52
 48
25.0
100
AcDbCircle
 10
4223.99632637154
 20
-64.13682585264519
 30
0.0
 40
2.200000000007025
100
AcDbArc
 50
254.9999999998008
 51
349.9999999997946
  0
LINE
  5
233
330
16
100
AcDbEntity
  8
0
  6
ByBlock
 62
    52
 48
25.0
100
AcDbLine
 10
4229.830018643165
 20
-43.72160799422454
 30
0.0
 11
4226.162903428172
 21
-64.51885184352159
 31
0.0
  0
ARC
  5
234
330
16
100
AcDbEntity
  8
0
  6
ByBlock
 62
    52
 48
25.0
100
AcDbCircle
 10
4229.583816704923
 20
-43.67819594979596
 30
0.0
 40
0.2499999999932153
100
AcDbArc
 50
349.9999999969638
 51
44.76999999826507
  0
LINE
  5
235
330
16
100
AcDbEntity
  8
0
  6
ByBlock
 62
    52
 48
25.0
100
AcDbLine
 10
4228.972378338919
 20
-42.70684759733467
 30
0.0
 11
4229.761301601138
 21
-43.50213030405029
 31
0.0
  0
ARC
  5
236
330
16
100
AcDbEntity
  8
0
  6
ByBlock
 62
    52
 48
25.0
100
AcDbCircle
 10
4229.149863235114
 20
-42.53078195159424
 30
0.0
 40
0.2499999999732774
100
AcDbArc
 50
164.9999999958582
 51
224.7700000010834
  0
LINE
  5
237
330
16
100
AcDbEntity
  8
0
  6
ByBlock
 62
    52
 48
25.0
100
AcDbLine
 10
4229.082516156253
 20
-41.81619884543306
 30
0.0
 11
4228.908381778572
 21
-42.46607719030817
 31
0.0
  0
ARC
  5
238
330
16
100
AcDbEntity
  8
0
  6
ByBlock
 62
    52
 48
25.0
100
AcDbCircle
 10
4243.125689690997
 20
16.00282291307758
 30
0.0
 40
59.50000000031956
100
AcDbArc
 50
256.3482604151332
 51
263.6517395850677
  0
LINE
  5
239
330
16
100
AcDbEntity
  8
0
  6
ByBlock
 62
    52
 48
25.0
100
AcDbLine
 10
4236.488047430306
 20
-43.80257674945641
 30
0.0
 11
4236.546686125228
 21
-43.13233339955604
 31
0.0
  0
ARC
  5
23A
330
16
100
AcDbEntity
  8
0
  6
ByBlock
 62
    52
 48
25.0
100
AcDbCircle
 10
4236.238998755783
 20
-43.78078781376507
 30
0.0
 40
0.2500000000011076
100
AcDbArc
 50
295.2299999982814
 51
354.9999999989849
  0
LINE
  5
23B
330
16
100
AcDbEntity
  8
0
  6
ByBlock
 62
    52
 48
25.0
100
AcDbLine
 10
4235.332213932466
 20
-44.48443245522321
 30
0.0
 11
4236.345562005655
 21
-44.00693881150163
 31
0.0
  0
ARC
  5
23C
330
16
100
AcDbEntity
  8
0
  6
ByBlock
 62
    52
 48
25.0
100
AcDbCircle
 10
4235.438777182346
 20
-44.71058345297047
 30
0.0
 40
0.2500000000151106
100
AcDbArc
 50
115.2299999987418
 51
169.9999999969125
  0
LINE
  5
23D
330
16
100
AcDbEntity
  8
0
  6
ByBlock
 62
    52
 48
25.0
100
AcDbLine
 10
4231.525460029079
 20
-65.46441525784121
 30
0.0
 11
4235.19257524408
 21
-44.6671714085378
 31
0.0
  0
ARC
  5
23E
330
16
100
AcDbEntity
  8
0
  6
ByBlock
 62
    52
 48
25.0
100
AcDbCircle
 10
4233.692037085704
 20
-65.84644124871124
 30
0.0
 40
2.199999999995651
100
AcDbArc
 50
169.9999999999101
 51
265.0000000001303
  0
LINE
  5
23F
330
16
100
AcDbEntity
  8
0
  6
ByBlock
 62
    52
 48
25.0
100
AcDbLine
 10
4238.011305716755
 20
-68.43273193124514
 30
0.0
 11
4233.50029445166
 21
-68.03806958450877
 31
0.0
  0
ARC
  5
240
330
16
100
AcDbEntity
  8
0
  6
ByBlock
 62
    52
 48
25.0
100
AcDbCircle
 10
4238.203048350813
 20
-66.24110359544466
 30
0.0
 40
2.199999999997089
100
AcDbArc
 50
264.9999999997116
 51
0.0000000000521102
  0
LINE
  5
241
330
16
100
AcDbEntity
  8
0
  6
ByBlock
 62
    52
 48
25.0
100
AcDbLine
 10
4240.403048350795
 20
-45.12302873699082
 30
0.0
 11
4240.40304835081
 21
-66.24110359544284
 31
0.0
  0
ARC
  5
242
330
16
100
AcDbEntity
  8
0
  6
ByBlock
 62
    52
 48
25.0
100
AcDbCircle
 10
4240.153048350759
 20
-45.12302873700128
 30
0.0
 40
0.2500000000361356
100
AcDbArc
 50
0.0000000023970696
 51
54.76999999216894
  0
LINE
  5
243
330
16
100
AcDbEntity
  8
0
  6
ByBlock
 62
    52
 48
25.0
100
AcDbLine
 10
4239.382226236194
 20
-44.27261250661013
 30
0.0
 11
4240.297263374109
 21
-44.91881799522071
 31
0.0
  0
ARC
  5
244
330
16
100
AcDbEntity
  8
0
  6
ByBlock
 62
    52
 48
25.0
100
AcDbCircle
 10
4239.526441259477
 20
-44.06840176485275
 30
0.0
 40
0.2499999999791622
100
AcDbArc
 50
174.9999999967682
 51
234.7700000013571
  0
LINE
  5
245
330
16
100
AcDbEntity
  8
0
  6
ByBlock
 62
    52
 48
25.0
100
AcDbLine
 10
4239.336031279897
 20
-43.37636947925147
 30
0.0
 11
4239.277392584976
 21
-44.04661282915367
 31
0.0
  0
ARC
  5
246
330
16
100
AcDbEntity
  8
0
  6
ByBlock
 62
    52
 48
25.0
100
AcDbCircle
 10
4243.125689690969
 20
16.00282291275834
 30
0.0
 40
59.4999999999993
100
AcDbArc
 50
266.34826041489
 51
273.6517395851091
  0
LINE
  5
247
330
16
100
AcDbEntity
  8
0
  6
ByBlock
 62
    52
 48
25.0
100
AcDbLine
 10
4246.973986796933
 20
-44.04661282915458
 30
0.0
 11
4246.915348102011
 21
-43.3763694792533
 31
0.0
  0
ARC
  5
248
330
16
100
AcDbEntity
  8
0
  6
ByBlock
 62
    52
 48
25.0
100
AcDbCircle
 10
4246.724938122403
 20
-44.06840176483615
 30
0.0
 40
0.2500000000070521
100
AcDbArc
 50
305.2300000002131
 51
4.999999998653155
  0
LINE
  5
249
330
16
100
AcDbEntity
  8
0
  6
ByBlock
 62
    52
 48
25.0
100
AcDbLine
 10
4245.9541160078
 20
-44.91881799521524
 30
0.0
 11
4246.869153145708
 21
-44.27261250661195
 31
0.0
  0
ARC
  5
24A
330
16
100
AcDbEntity
  8
0
  6
ByBlock
 62
    52
 48
25.0
100
AcDbCircle
 10
4246.098331031091
 20
-45.12302873698399
 30
0.0
 40
0.249999999992724
100
AcDbArc
 50
125.2299999982573
 51
180.0000000005211
  0
LINE
  5
24B
330
16
100
AcDbEntity
  8
0
  6
ByBlock
 62
    52
 48
25.0
100
AcDbLine
 10
4245.848331031099
 20
-66.24110359544738
 30
0.0
 11
4245.848331031099
 21
-45.12302873698627
 31
0.0
  0
ARC
  5
24C
330
16
100
AcDbEntity
  8
0
  6
ByBlock
 62
    52
 48
25.0
100
AcDbCircle
 10
4248.048331031095
 20
-66.24110359544443
 30
0.0
 40
2.200000000001541
100
AcDbArc
 50
180.0000000000781
 51
274.9999999998697
  0
LINE
  5
24D
330
16
100
AcDbEntity
  8
0
  6
ByBlock
 62
    52
 48
25.0
100
AcDbLine
 10
4252.751084930241
 20
-68.03806958451423
 30
0.0
 11
4248.240073665139
 21
-68.43273193124787
 31
0.0
  0
ARC
  5
24E
330
16
100
AcDbEntity
  8
0
  6
ByBlock
 62
    52
 48
25.0
100
AcDbCircle
 10
4252.559342296197
 20
-65.84644124871556
 30
0.0
 40
2.199999999998872
100
AcDbArc
 50
274.9999999998697
 51
10.00000000010275
  0
LINE
  5
24F
330
16
100
AcDbEntity
  8
0
  6
ByBlock
 62
    52
 48
25.0
100
AcDbLine
 10
4251.058804137814
 20
-44.66717140855144
 30
0.0
 11
4254.725919352822
 21
-65.46441525784485
 31
0.0
  0
ARC
  5
250
330
16
100
AcDbEntity
  8
0
  6
ByBlock
 62
    52
 48
25.0
100
AcDbCircle
 10
4250.812602199562
 20
-44.71058345296569
 30
0.0
 40
0.249999999999684
100
AcDbArc
 50
9.999999999538243
 51
64.7699999998492
  0
LINE
  5
251
330
16
100
AcDbEntity
  8
0
  6
ByBlock
 62
    52
 48
25.0
100
AcDbLine
 10
4249.905817376238
 20
-44.006938811508
 30
0.0
 11
4250.919165449442
 21
-44.48443245523413
 31
0.0
  0
ARC
  5
252
330
16
100
AcDbEntity
  8
0
  6
ByBlock
 62
    52
 48
25.0
100
AcDbCircle
 10
4250.012380626081
 20
-43.78078781380941
 30
0.0
 40
0.2499999999534342
100
AcDbArc
 50
184.9999999931946
 51
244.7700000040262
  0
LINE
  5
253
330
16
100
AcDbEntity
  8
0
  6
ByBlock
 62
    52
 48
25.0
100
AcDbLine
 10
4249.70469325668
 20
-43.13233339956059
 30
0.0
 11
4249.763331951602
 21
-43.80257674946278
 31
0.0
  0
ARC
  5
254
330
16
100
AcDbEntity
  8
0
  6
ByBlock
 62
    52
 48
25.0
100
AcDbCircle
 10
4243.125689691034
 20
16.00282291244434
 30
0.0
 40
59.49999999968088
100
AcDbArc
 50
276.3482604149323
 51
283.6517395848669
  0
LINE
  5
255
330
16
100
AcDbEntity
  8
0
  6
ByBlock
 62
    52
 48
25.0
100
AcDbLine
 10
4257.342997603323
 20
-42.46607719031636
 30
0.0
 11
4257.168863225641
 21
-41.81619884544216
 31
0.0
  0
ARC
  5
256
330
16
100
AcDbEntity
  8
0
  6
ByBlock
 62
    52
 48
25.0
100
AcDbCircle
 10
4257.101516146758
 20
-42.53078195159083
 30
0.0
 40
0.2499999999905706
100
AcDbArc
 50
315.2299999975988
 51
15.00000000020657
  0
LINE
  5
257
330
16
100
AcDbEntity
  8
0
  6
ByBlock
 62
    52
 48
25.0
100
AcDbLine
 10
4256.490077780756
 20
-43.50213030405848
 30
0.0
 11
4257.279001042959
 21
-42.70684759734741
 31
0.0
  0
ARC
  5
258
330
16
100
AcDbEntity
  8
0
  6
ByBlock
 62
    52
 48
25.0
100
AcDbCircle
 10
4256.667562676986
 20
-43.67819594983484
 30
0.0
 40
0.2500000000235584
100
AcDbArc
 50
135.2299999989351
 51
189.9999999948902
  0
LINE
  5
259
330
16
100
AcDbEntity
  8
0
  6
ByBlock
 62
    52
 48
25.0
100
AcDbLine
 10
4260.088475953715
 20
-64.51885184353523
 30
0.0
 11
4256.421360738706
 21
-43.72160799423363
 31
0.0
  0
ARC
  5
25A
330
16
100
AcDbEntity
  8
0
  6
ByBlock
 62
    52
 48
25.0
100
AcDbCircle
 10
4262.25505301034
 20
-64.13682585266974
 30
0.0
 40
2.20000000000046
100
AcDbArc
 50
189.9999999999744
 51
285.0000000002026
  0
LINE
  5
25B
330
16
100
AcDbEntity
  8
0
  6
ByBlock
 62
    52
 48
25.0
100
AcDbLine
 10
4267.198401380061
 20
-65.08986724599799
 30
0.0
 11
4262.824454909568
 21
-66.26186267050525
 31
0.0
  0
ARC
  5
25C
330
16
100
AcDbEntity
  8
0
  6
ByBlock
 62
    52
 48
25.0
100
AcDbCircle
 10
4266.628999480839
 20
-62.9648304281693
 30
0.0
 40
2.199999999991272
100
AcDbArc
 50
284.9999999997897
 51
20.00000000024857
  0
LINE
  5
25D
330
16
100
AcDbEntity
  8
0
  6
ByBlock
 62
    52
 48
25.0
100
AcDbLine
 10
4261.473516256709
 20
-42.36788700315992
 30
0.0
 11
4268.696323246557
 21
-62.21238611284661
 31
0.0
  0
ARC
  5
25E
330
16
100
AcDbEntity
  8
0
  6
ByBlock
 62
    52
 48
25.0
100
AcDbCircle
 10
4261.238593101515
 20
-42.45339203897924
 30
0.0
 40
0.2499999999930617
100
AcDbArc
 50
19.99999999771089
 51
74.76999999943273
  0
LINE
  5
25F
330
16
100
AcDbEntity
  8
0
  6
ByBlock
 62
    52
 48
25.0
100
AcDbLine
 10
4260.223397767477
 20
-41.91789887281993
 30
0.0
 11
4261.30426670755
 21
-42.21217226892076
 31
0.0
  0
ARC
  5
260
330
16
100
AcDbEntity
  8
0
  6
ByBlock
 62
    52
 48
25.0
100
AcDbCircle
 10
4260.289071373525
 20
-41.67667910272666
 30
0.0
 40
0.2500000000270639
100
AcDbArc
 50
195.0000000049848
 51
254.7699999981472
  0
LINE
  5
261
330
16
100
AcDbEntity
  8
0
  6
ByBlock
 62
    52
 48
25.0
100
AcDbLine
 10
4259.873455539251
 20
-41.09150551915354
 30
0.0
 11
4260.047589916932
 21
-41.74138386403046
 31
0.0
  0
ARC
  5
262
330
16
100
AcDbEntity
  8
0
  6
ByBlock
 62
    52
 48
25.0
100
AcDbCircle
 10
4243.125689690903
 20
16.0028229129407
 30
0.0
 40
59.50000000019267
100
AcDbArc
 50
286.3482604151163
 51
293.6517395847707
  0
LINE
  5
263
330
16
100
AcDbEntity
  8
0
  6
ByBlock
 62
     4
 48
25.0
100
AcDbLine
 10
4158.303376965414
 20
72.07641630920512
 30
0.0
 11
4152.153376965419
 21
61.42430384265185
 31
0.0
  0
ARC
  5
264
330
16
100
AcDbEntity
  8
0
  6
ByBlock
 62
     4
 48
25.0
100
AcDbCircle
 10
4158.130171884666
 20
72.17641630920957
 30
0.0
 40
0.1999999999897775
100
AcDbArc
 50
329.9999999974958
 51
84.20433500422637
  0
LINE
  5
265
330
16
100
AcDbEntity
  8
0
  6
ByBlock
 62
     4
 48
25.0
100
AcDbLine
 10
4155.523768629239
 20
72.64199344579083
 30
0.0
 11
4158.150368089489
 21
72.37539397958153
 31
0.0
  0
LINE
  5
266
330
16
100
AcDbEntity
  8
0
  6
ByBlock
 62
     4
 48
25.0
100
AcDbLine
 10
4154.931759257953
 20
72.9837902156687
 30
0.0
 11
4155.523768629239
 21
72.64199344579083
 31
0.0
  0
ARC
  5
267
330
16
100
AcDbEntity
  8
0
  6
ByBlock
 62
     4
 48
25.0
100
AcDbCircle
 10
4243.125689690962
 20
16.00282291278313
 30
0.0
 40
104.999999999975
100
AcDbArc
 50
92.86598398276515
 51
147.1340160174356
  0
LINE
  5
268
330
16
100
AcDbEntity
  8
0
  6
ByBlock
 62
     4
 48
25.0
100
AcDbLine
 10
4237.875689690976
 20
120.1878972390618
 30
0.0
 11
4237.875689691005
 21
120.8714907788107
 31
0.0
  0
LINE
  5
269
330
16
100
AcDbEntity
  8
0
  6
ByBlock
 62
     4
 48
25.0
100
AcDbLine
 10
4236.793271871247
 20
117.7798956478086
 30
0.0
 11
4237.875689690976
 21
120.1878972390618
 31
0.0
  0
ARC
  5
26A
330
16
100
AcDbEntity
  8
0
  6
ByBlock
 62
     4
 48
25.0
100
AcDbCircle
 10
4236.975689690989
 20
117.6978972390543
 30
0.0
 40
0.1999999999925421
100
AcDbArc
 50
155.7956649946581
 51
270.0000000020844
  0
LINE
  5
26B
330
16
100
AcDbEntity
  8
0
  6
ByBlock
 62
     4
 48
25.0
100
AcDbLine
 10
4249.275689690999
 20
117.4978972390618
 30
0.0
 11
4236.975689690996
 21
117.4978972390618
 31
0.0
  0
ARC
  5
26C
330
16
100
AcDbEntity
  8
0
  6
ByBlock
 62
     4
 48
25.0
100
AcDbCircle
 10
4249.275689691006
 20
117.6978972390539
 30
0.0
 40
0.1999999999940787
100
AcDbArc
 50
269.9999999979156
 51
24.20433500523491
  0
LINE
  5
26D
330
16
100
AcDbEntity
  8
0
  6
ByBlock
 62
     4
 48
25.0
100
AcDbLine
 10
4248.375689690997
 20
120.187897239062
 30
0.0
 11
4249.458107510749
 21
117.7798956478077
 31
0.0
  0
LINE
  5
26E
330
16
100
AcDbEntity
  8
0
  6
ByBlock
 62
     4
 48
25.0
100
AcDbLine
 10
4248.37568969099
 20
120.8714907788089
 30
0.0
 11
4248.375689690997
 21
120.187897239062
 31
0.0
  0
ARC
  5
26F
330
16
100
AcDbEntity
  8
0
  6
ByBlock
 62
     4
 48
25.0
100
AcDbCircle
 10
4243.125689690969
 20
16.00282291272378
 30
0.0
 40
105.0000000000358
100
AcDbArc
 50
71.09136468012959
 51
87.13401601723488
  0
ARC
  5
270
330
16
100
AcDbEntity
  8
0
  6
ByBlock
 62
     4
 48
25.0
100
AcDbCircle
 10
4279.037804740168
 20
114.6705480952762
 30
0.0
 40
1.999999999996621
100
AcDbArc
 50
160.5456823399092
 51
339.4543176601412
  0
ARC
  5
271
330
16
100
AcDbEntity
  8
0
  6
ByBlock
 62
     4
 48
25.0
100
AcDbCircle
 10
4243.125689690983
 20
16.00282291276448
 30
0.0
 40
104.9999999999898
100
AcDbArc
 50
32.86598398255343
 51
68.90863532021416
  0
LINE
  5
272
330
16
100
AcDbEntity
  8
0
  6
ByBlock
 62
     4
 48
25.0
100
AcDbLine
 10
4330.727610752721
 20
72.64199344578355
 30
0.0
 11
4331.319620124021
 21
72.9837902156321
 31
0.0
  0
LINE
  5
273
330
16
100
AcDbEntity
  8
0
  6
ByBlock
 62
     4
 48
25.0
100
AcDbLine
 10
4328.101011292477
 20
72.37539397955242
 30
0.0
 11
4330.727610752721
 21
72.64199344578355
 31
0.0
  0
ARC
  5
274
330
16
100
AcDbEntity
  8
0
  6
ByBlock
 62
     4
 48
25.0
100
AcDbCircle
 10
4328.121207497308
 20
72.17641630917455
 30
0.0
 40
0.2000000000017275
100
AcDbArc
 50
95.79566499745238
 51
210.0000000019347
  0
LINE
  5
275
330
16
100
AcDbEntity
  8
0
  6
ByBlock
 62
     4
 48
25.0
100
AcDbLine
 10
4334.098002416554
 20
61.42430384261661
 30
0.0
 11
4327.948002416553
 21
72.07641630916782
 31
0.0
  0
ARC
  5
276
330
16
100
AcDbEntity
  8
0
  6
ByBlock
 62
     4
 48
25.0
100
AcDbCircle
 10
4334.271207497302
 20
61.52430384261561
 30
0.0
 40
0.2000000000034922
100
AcDbArc
 50
210.0000000010719
 51
324.2043350037104
  0
LINE
  5
277
330
16
100
AcDbEntity
  8
0
  6
ByBlock
 62
     4
 48
25.0
100
AcDbLine
 10
4335.977610752736
 20
63.54872670602617
 30
0.0
 11
4334.433429112229
 21
61.40732458098296
 31
0.0
  0
LINE
  5
278
330
16
100
AcDbEntity
  8
0
  6
ByBlock
 62
     4
 48
25.0
100
AcDbLine
 10
4336.569620124013
 20
63.89052347591041
 30
0.0
 11
4335.977610752736
 21
63.54872670602617
 31
0.0
  0
ARC
  5
279
330
16
100
AcDbEntity
  8
0
  6
ByBlock
 62
     4
 48
25.0
100
AcDbCircle
 10
4243.125689690962
 20
16.00282291275926
 30
0.0
 40
105.0000000000153
100
AcDbArc
 50
332.8659839825117
 51
27.13401601747677
  0
LINE
  5
27A
330
16
100
AcDbEntity
  8
0
  6
ByBlock
 62
     4
 48
25.0
100
AcDbLine
 10
4335.977610752721
 20
-31.54308088052221
 30
0.0
 11
4336.569620123999
 21
-31.88487765042214
 31
0.0
  0
LINE
  5
27B
330
16
100
AcDbEntity
  8
0
  6
ByBlock
 62
     4
 48
25.0
100
AcDbLine
 10
4334.433429112206
 20
-29.4016787555056
 30
0.0
 11
4335.977610752721
 21
-31.54308088052221
 31
0.0
  0
ARC
  5
27C
330
16
100
AcDbEntity
  8
0
  6
ByBlock
 62
     4
 48
25.0
100
AcDbCircle
 10
4334.271207497295
 20
-29.51865801713939
 30
0.0
 40
0.2000000000041633
100
AcDbArc
 50
35.79566499904013
 51
150.0000000011216
  0
LINE
  5
27D
330
16
100
AcDbEntity
  8
0
  6
ByBlock
 62
     4
 48
25.0
100
AcDbLine
 10
4327.948002416531
 20
-40.0707704836941
 30
0.0
 11
4334.098002416532
 21
-29.41865801714039
 31
0.0
  0
ARC
  5
27E
330
16
100
AcDbEntity
  8
0
  6
ByBlock
 62
     4
 48
25.0
100
AcDbCircle
 10
4328.121207497286
 20
-40.17077048369219
 30
0.0
 40
0.1999999999982034
100
AcDbArc
 50
150.0000000002927
 51
264.2043350025476
  0
LINE
  5
27F
330
16
100
AcDbEntity
  8
0
  6
ByBlock
 62
     4
 48
25.0
100
AcDbLine
 10
4330.727610752706
 20
-40.63634762027959
 30
0.0
 11
4328.101011292456
 21
-40.36974815407188
 31
0.0
  0
LINE
  5
280
330
16
100
AcDbEntity
  8
0
  6
ByBlock
 62
     4
 48
25.0
100
AcDbLine
 10
4331.319620123998
 20
-40.97814439014928
 30
0.0
 11
4330.727610752706
 21
-40.63634762027959
 31
0.0
  0
ARC
  5
281
330
16
100
AcDbEntity
  8
0
  6
ByBlock
 62
     4
 48
25.0
100
AcDbCircle
 10
4243.125689690969
 20
16.00282291277449
 30
0.0
 40
105.0000000000158
100
AcDbArc
 50
272.8659839827652
 51
327.1340160174247
  0
LINE
  5
282
330
16
100
AcDbEntity
  8
0
  6
ByBlock
 62
     4
 48
25.0
100
AcDbLine
 10
4248.375689690976
 20
-88.18225141354378
 30
0.0
 11
4248.375689690933
 21
-88.86584495329362
 31
0.0
  0
LINE
  5
283
330
16
100
AcDbEntity
  8
0
  6
ByBlock
 62
     4
 48
25.0
100
AcDbLine
 10
4249.458107510705
 20
-85.77424982228967
 30
0.0
 11
4248.375689690976
 21
-88.18225141354378
 31
0.0
  0
ARC
  5
284
330
16
100
AcDbEntity
  8
0
  6
ByBlock
 62
     4
 48
25.0
100
AcDbCircle
 10
4249.275689690963
 20
-85.69225141353582
 30
0.0
 40
0.1999999999920874
100
AcDbArc
 50
335.795664994765
 51
90.00000000208441
  0
LINE
  5
285
330
16
100
AcDbEntity
  8
0
  6
ByBlock
 62
     4
 48
25.0
100
AcDbLine
 10
4236.975689690953
 20
-85.49225141354373
 30
0.0
 11
4249.275689690956
 21
-85.49225141354373
 31
0.0
  0
ARC
  5
286
330
16
100
AcDbEntity
  8
0
  6
ByBlock
 62
     4
 48
25.0
100
AcDbCircle
 10
4236.975689690946
 20
-85.69225141353582
 30
0.0
 40
0.199999999994172
100
AcDbArc
 50
89.9999999979156
 51
204.2043350052943
  0
LINE
  5
287
330
16
100
AcDbEntity
  8
0
  6
ByBlock
 62
     4
 48
25.0
100
AcDbLine
 10
4237.875689690954
 20
-88.18225141354401
 30
0.0
 11
4236.793271871203
 21
-85.7742498222899
 31
0.0
  0
LINE
  5
288
330
16
100
AcDbEntity
  8
0
  6
ByBlock
 62
     4
 48
25.0
100
AcDbLine
 10
4237.875689690961
 20
-88.86584495329088
 30
0.0
 11
4237.875689690954
 21
-88.18225141354401
 31
0.0
  0
ARC
  5
289
330
16
100
AcDbEntity
  8
0
  6
ByBlock
 62
     4
 48
25.0
100
AcDbCircle
 10
4243.125689690983
 20
16.00282291276312
 30
0.0
 40
105.0000000000062
100
AcDbArc
 50
212.8659839825534
 51
267.1340160172348
  0
LINE
  5
28A
330
16
100
AcDbEntity
  8
0
  6
ByBlock
 62
     4
 48
25.0
100
AcDbLine
 10
4155.523768629231
 20
-40.63634762025777
 30
0.0
 11
4154.931759257932
 21
-40.97814439011222
 31
0.0
  0
LINE
  5
28B
330
16
100
AcDbEntity
  8
0
  6
ByBlock
 62
     4
 48
25.0
100
AcDbLine
 10
4158.150368089475
 20
-40.36974815403391
 30
0.0
 11
4155.523768629231
 21
-40.63634762025777
 31
0.0
  0
ARC
  5
28C
330
16
100
AcDbEntity
  8
0
  6
ByBlock
 62
     4
 48
25.0
100
AcDbCircle
 10
4158.130171884652
 20
-40.17077048366104
 30
0.0
 40
0.1999999999944031
100
AcDbArc
 50
275.7956649957737
 51
30.00000000254931
  0
LINE
  5
28D
330
16
100
AcDbEntity
  8
0
  6
ByBlock
 62
     4
 48
25.0
100
AcDbLine
 10
4152.153376965397
 20
-29.41865801709809
 30
0.0
 11
4158.303376965399
 21
-40.07077048365636
 31
0.0
  0
ARC
  5
28E
330
16
100
AcDbEntity
  8
0
  6
ByBlock
 62
     4
 48
25.0
100
AcDbCircle
 10
4151.980171884643
 20
-29.51865801710574
 30
0.0
 40
0.2000000000044231
100
AcDbArc
 50
30.00000000210394
 51
144.2043350034674
  0
LINE
  5
28F
330
16
100
AcDbEntity
  8
0
  6
ByBlock
 62
     4
 48
25.0
100
AcDbLine
 10
4150.273768629216
 20
-31.54308088050766
 30
0.0
 11
4151.817950269716
 21
-29.4016787554715
 31
0.0
  0
LINE
  5
290
330
16
100
AcDbEntity
  8
0
  6
ByBlock
 62
     4
 48
25.0
100
AcDbLine
 10
4149.681759257939
 20
-31.8848776503919
 30
0.0
 11
4150.273768629216
 21
-31.54308088050766
 31
0.0
  0
ARC
  5
291
330
16
100
AcDbEntity
  8
0
  6
ByBlock
 62
     4
 48
25.0
100
AcDbCircle
 10
4243.125689690983
 20
16.00282291275766
 30
0.0
 40
105.000000000008
100
AcDbArc
 50
152.8659839825
 51
207.1340160174768
  0
LINE
  5
292
330
16
100
AcDbEntity
  8
0
  6
ByBlock
 62
     4
 48
25.0
100
AcDbLine
 10
4150.273768629231
 20
63.54872670604073
 30
0.0
 11
4149.681759257954
 21
63.89052347593724
 31
0.0
  0
LINE
  5
293
330
16
100
AcDbEntity
  8
0
  6
ByBlock
 62
     4
 48
25.0
100
AcDbLine
 10
4151.817950269738
 20
61.40732458101684
 30
0.0
 11
4150.273768629231
 21
63.54872670604073
 31
0.0
  0
ARC
  5
294
330
16
100
AcDbEntity
  8
0
  6
ByBlock
 62
     4
 48
25.0
100
AcDbCircle
 10
4151.980171884665
 20
61.52430384264994
 30
0.0
 40
0.1999999999974074
100
AcDbArc
 50
215.7956649963635
 51
330.0000000002927
  0
ENDSEC
  0
SECTION
  2
OBJECTS
  0
DICTIONARY
  5
6
330
0
100
AcDbDictionary
281
     1
  3
ACAD_COLOR
350
34
  3
ACAD_GROUP
350
32
  3
ACAD_LAYOUT
350
1C
  3
ACAD_MATERIAL
350
8
  3
ACAD_MLEADERSTYLE
350
5A
  3
ACAD_MLINESTYLE
350
13
  3
ACAD_PLOTSETTINGS
350
33
  3
ACAD_PLOTSTYLENAME
350
5
  3
ACAD_SCALELIST
350
37
  3
ACAD_TABLESTYLE
350
59
  3
ACAD_VISUALSTYLE
350
2C
  3
AcDbVariableDictionary
350
5E
  0
DICTIONARY
  5
23
330
22
100
AcDbDictionary
280
     1
281
     1
  3
ACAD_LAYERSTATES
360
24
  0
DICTIONARY
  5
2
330
1
100
AcDbDictionary
280
     1
281
     1
  3
ADSK_XREC_LAYER_RECONCILED
360
3
  0
DICTIONARY
  5
17
330
16
100
AcDbDictionary
280
     1
281
     1
  3
ACAD_SORTENTS
360
18
  0
DICTIONARY
  5
34
102
{ACAD_REACTORS
330
6
102
}
330
6
100
AcDbDictionary
281
     1
  0
DICTIONARY
  5
32
102
{ACAD_REACTORS
330
6
102
}
330
6
100
AcDbDictionary
281
     1
  0
DICTIONARY
  5
1C
102
{ACAD_REACTORS
330
6
102
}
330
6
100
AcDbDictionary
281
     1
  3
Layout1
350
21
  3
Model
350
1B
  0
DICTIONARY
  5
8
102
{ACAD_REACTORS
330
6
102
}
330
6
100
AcDbDictionary
281
     1
  3
ByLayer
350
D
  3
Global
350
7
  0
DICTIONARY
  5
5A
330
6
100
AcDbDictionary
281
     1
  3
Standard
350
5D
  0
DICTIONARY
  5
13
102
{ACAD_REACTORS
330
6
102
}
330
6
100
AcDbDictionary
281
     1
  3
Standard
350
12
  0
DICTIONARY
  5
33
102
{ACAD_REACTORS
330
6
102
}
330
6
100
AcDbDictionary
281
     1
  0
ACDBDICTIONARYWDFLT
  5
5
330
6
100
AcDbDictionary
281
     1
  3
Normal
350
4
100
AcDbDictionaryWithDefault
340
4
  0
DICTIONARY
  5
37
102
{ACAD_REACTORS
330
6
102
}
330
6
100
AcDbDictionary
281
     1
  3
A0
350
38
  3
A1
350
39
  3
A2
350
3A
  3
A3
350
3B
  3
A4
350
3C
  3
A5
350
3D
  3
A6
350
3E
  3
A7
350
3F
  3
A8
350
40
  3
A9
350
41
  3
B0
350
42
  3
B1
350
43
  3
B2
350
44
  3
B3
350
45
  3
B4
350
46
  3
B5
350
47
  3
B6
350
48
  3
B7
350
49
  3
B8
350
4A
  3
B9
350
4B
  3
C0
350
4C
  3
C1
350
4D
  3
C2
350
4E
  3
C3
350
4F
  3
C4
350
50
  3
C5
350
51
  3
C6
350
52
  3
C7
350
53
  3
C8
350
54
  3
C9
350
55
  3
D0
350
56
  3
D1
350
57
  3
D2
350
58
  0
DICTIONARY
  5
59
330
6
100
AcDbDictionary
281
     1
  3
Standard
350
5B
  0
DICTIONARY
  5
2C
102
{ACAD_REACTORS
330
6
102
}
330
6
100
AcDbDictionary
281
     1
  3
2dWireframe
350
2B
  3
3dWireframe
350
36
  3
Realistic
350
35
  0
DICTIONARY
  5
5E
102
{ACAD_REACTORS
330
6
102
}
330
6
100
AcDbDictionary
281
     1
  3
CANNOSCALE
350
5F
  3
CMLEADERSTYLE
350
60
  3
CTABLESTYLE
350
61
  3
DIMASSOC
350
62
  3
HIDETEXT
350
63
  3
LAYEREVAL
350
64
  3
LAYERNOTIFY
350
65
  3
LIGHTINGUNITS
350
66
  3
MSLTSCALE
350
67
  0
DICTIONARY
  5
24
102
{ACAD_REACTORS
330
23
102
}
330
23
100
AcDbDictionary
281
     1
  0
XRECORD
  5
3
102
{ACAD_REACTORS
330
2
102
}
330
2
100
AcDbXrecord
280
     1
290
     1
  0
SORTENTSTABLE
  5
18
102
{ACAD_REACTORS
330
17
102
}
330
17
100
AcDbSortentsTable
330
16
331
292
  5
6C
331
A0
  5
25E
331
293
  5
6B
331
A1
  5
25D
331
196
  5
168
331
294
  5
6A
331
284
  5
7A
331
185
  5
179
331
288
  5
76
331
18D
  5
171
331
82
  5
27C
331
290
  5
6E
331
189
  5
175
331
28C
  5
72
331
188
  5
176
331
285
  5
79
331
18C
  5
172
331
289
  5
75
331
83
  5
27B
331
291
  5
6D
331
190
  5
16E
331
28D
  5
71
331
90
  5
26E
331
282
  5
7C
331
183
  5
17B
331
286
  5
78
331
187
  5
177
331
28A
  5
74
331
18B
  5
173
331
28E
  5
70
331
186
  5
178
331
91
  5
26D
331
283
  5
7B
331
18A
  5
174
331
287
  5
77
331
18E
  5
170
331
28B
  5
73
331
28F
  5
6F
331
178
  5
186
331
275
  5
89
331
17C
  5
182
331
279
  5
85
331
180
  5
17E
331
27D
  5
81
331
73
  5
28B
331
281
  5
7D
331
274
  5
8A
331
175
  5
189
331
278
  5
86
331
179
  5
185
331
27C
  5
82
331
17D
  5
181
331
72
  5
28C
331
280
  5
7E
331
176
  5
188
331
81
  5
27D
331
273
  5
8B
331
17A
  5
184
331
277
  5
87
331
17E
  5
180
331
27B
  5
83
331
27F
  5
7F
331
80
  5
27E
331
272
  5
8C
331
173
  5
18B
331
276
  5
88
331
177
  5
187
331
27A
  5
84
331
17B
  5
183
331
27E
  5
80
331
168
  5
196
331
265
  5
99
331
16C
  5
192
331
269
  5
95
331
170
  5
18E
331
26D
  5
91
331
271
  5
8D
331
264
  5
9A
331
165
  5
199
331
268
  5
96
331
169
  5
195
331
26C
  5
92
331
16D
  5
191
331
270
  5
8E
331
166
  5
198
331
71
  5
28D
331
263
  5
9B
331
16A
  5
194
331
267
  5
97
331
16E
  5
190
331
26B
  5
93
331
26F
  5
8F
331
70
  5
28E
331
262
  5
9C
331
163
  5
19B
331
266
  5
98
331
167
  5
197
331
26A
  5
94
331
16B
  5
193
331
26E
  5
90
331
158
  5
1A6
331
255
  5
A9
331
15C
  5
1A2
331
259
  5
A5
331
160
  5
19E
331
25D
  5
A1
331
261
  5
9D
331
254
  5
AA
331
155
  5
1A9
331
258
  5
A6
331
159
  5
1A5
331
25C
  5
A2
331
15D
  5
1A1
331
260
  5
9E
331
15A
  5
1A4
331
257
  5
A7
331
15E
  5
1A0
331
25B
  5
A3
331
25F
  5
9F
331
153
  5
1AB
331
256
  5
A8
331
157
  5
1A7
331
25A
  5
A4
331
15B
  5
1A3
331
25E
  5
A0
331
156
  5
1A8
331
253
  5
AB
331
252
  5
AC
331
251
  5
AD
331
14D
  5
1B1
331
250
  5
AE
331
24F
  5
AF
331
14B
  5
1B3
331
24E
  5
B0
331
150
  5
1AE
331
24D
  5
B1
331
149
  5
1B5
331
24C
  5
B2
331
14E
  5
1B0
331
24B
  5
B3
331
147
  5
1B7
331
24A
  5
B4
331
14C
  5
1B2
331
249
  5
B5
331
145
  5
1B9
331
248
  5
B6
331
14A
  5
1B4
331
247
  5
B7
331
143
  5
1BB
331
246
  5
B8
331
148
  5
1B6
331
245
  5
B9
331
244
  5
BA
331
146
  5
1B8
331
243
  5
BB
331
242
  5
BC
331
241
  5
BD
331
13D
  5
1C1
331
240
  5
BE
331
23F
  5
BF
331
13B
  5
1C3
331
23E
  5
C0
331
140
  5
1BE
331
23D
  5
C1
331
139
  5
1C5
331
23C
  5
C2
331
13E
  5
1C0
331
23B
  5
C3
331
137
  5
1C7
331
23A
  5
C4
331
13C
  5
1C2
331
239
  5
C5
331
135
  5
1C9
331
238
  5
C6
331
13A
  5
1C4
331
237
  5
C7
331
133
  5
1CB
331
236
  5
C8
331
138
  5
1C6
331
235
  5
C9
331
234
  5
CA
331
136
  5
1C8
331
233
  5
CB
331
232
  5
CC
331
231
  5
CD
331
12D
  5
1D1
331
230
  5
CE
331
22F
  5
CF
331
12B
  5
1D3
331
22E
  5
D0
331
130
  5
1CE
331
22D
  5
D1
331
129
  5
1D5
331
22C
  5
D2
331
12E
  5
1D0
331
22B
  5
D3
331
127
  5
1D7
331
22A
  5
D4
331
12C
  5
1D2
331
229
  5
D5
331
125
  5
1D9
331
228
  5
D6
331
12A
  5
1D4
331
227
  5
D7
331
123
  5
1DB
331
226
  5
D8
331
128
  5
1D6
331
225
  5
D9
331
224
  5
DA
331
126
  5
1D8
331
223
  5
DB
331
222
  5
DC
331
221
  5
DD
331
11D
  5
1E1
331
220
  5
DE
331
21F
  5
DF
331
11B
  5
1E3
331
21E
  5
E0
331
120
  5
1DE
331
21D
  5
E1
331
119
  5
1E5
331
21C
  5
E2
331
11E
  5
1E0
331
21B
  5
E3
331
117
  5
1E7
331
21A
  5
E4
331
11C
  5
1E2
331
219
  5
E5
331
115
  5
1E9
331
218
  5
E6
331
11A
  5
1E4
331
217
  5
E7
331
113
  5
1EB
331
216
  5
E8
331
118
  5
1E6
331
215
  5
E9
331
214
  5
EA
331
116
  5
1E8
331
213
  5
EB
331
212
  5
EC
331
211
  5
ED
331
10D
  5
1F1
331
210
  5
EE
331
20F
  5
EF
331
10B
  5
1F3
331
20E
  5
F0
331
110
  5
1EE
331
20D
  5
F1
331
109
  5
1F5
331
20C
  5
F2
331
10E
  5
1F0
331
20B
  5
F3
331
107
  5
1F7
331
20A
  5
F4
331
10C
  5
1F2
331
209
  5
F5
331
105
  5
1F9
331
208
  5
F6
331
10A
  5
1F4
331
207
  5
F7
331
103
  5
1FB
331
206
  5
F8
331
108
  5
1F6
331
205
  5
F9
331
204
  5
FA
331
106
  5
1F8
331
203
  5
FB
331
202
  5
FC
331
201
  5
FD
331
FD
  5
201
331
200
  5
FE
331
1FF
  5
FF
331
FB
  5
203
331
1FE
  5
100
331
100
  5
1FE
331
1FD
  5
101
331
F9
  5
205
331
1FC
  5
102
331
FE
  5
200
331
1FB
  5
103
331
F7
  5
207
331
1FA
  5
104
331
FC
  5
202
331
1F9
  5
105
331
F5
  5
209
331
1F8
  5
106
331
FA
  5
204
331
1F7
  5
107
331
F3
  5
20B
331
1F6
  5
108
331
F8
  5
206
331
1F5
  5
109
331
1F4
  5
10A
331
F6
  5
208
331
1F3
  5
10B
331
1F2
  5
10C
331
1F1
  5
10D
331
ED
  5
211
331
1F0
  5
10E
331
1EF
  5
10F
331
EB
  5
213
331
1EE
  5
110
331
F0
  5
20E
331
1ED
  5
111
331
E9
  5
215
331
1EC
  5
112
331
EE
  5
210
331
1EB
  5
113
331
E7
  5
217
331
1EA
  5
114
331
EC
  5
212
331
1E9
  5
115
331
E5
  5
219
331
1E8
  5
116
331
EA
  5
214
331
1E7
  5
117
331
E3
  5
21B
331
1E6
  5
118
331
E8
  5
216
331
1E5
  5
119
331
1E4
  5
11A
331
E6
  5
218
331
1E3
  5
11B
331
1E2
  5
11C
331
1E1
  5
11D
331
DD
  5
221
331
1E0
  5
11E
331
1DF
  5
11F
331
DB
  5
223
331
1DE
  5
120
331
E0
  5
21E
331
1DD
  5
121
331
D9
  5
225
331
1DC
  5
122
331
DE
  5
220
331
1DB
  5
123
331
D7
  5
227
331
1DA
  5
124
331
DC
  5
222
331
1D9
  5
125
331
D5
  5
229
331
1D8
  5
126
331
DA
  5
224
331
1D7
  5
127
331
D3
  5
22B
331
1D6
  5
128
331
D8
  5
226
331
1D5
  5
129
331
1D4
  5
12A
331
D6
  5
228
331
1D3
  5
12B
331
1D2
  5
12C
331
1D1
  5
12D
331
CD
  5
231
331
1D0
  5
12E
331
1CF
  5
12F
331
CB
  5
233
331
1CE
  5
130
331
D0
  5
22E
331
1CD
  5
131
331
C9
  5
235
331
1CC
  5
132
331
CE
  5
230
331
1CB
  5
133
331
C7
  5
237
331
1CA
  5
134
331
CC
  5
232
331
1C9
  5
135
331
C5
  5
239
331
1C8
  5
136
331
CA
  5
234
331
1C7
  5
137
331
C3
  5
23B
331
1C6
  5
138
331
C8
  5
236
331
1C5
  5
139
331
1C4
  5
13A
331
C6
  5
238
331
1C3
  5
13B
331
1C2
  5
13C
331
B6
  5
248
331
1C1
  5
13D
331
1C0
  5
13E
331
1BF
  5
13F
331
1BE
  5
140
331
B2
  5
24C
331
1BD
  5
141
331
1BC
  5
142
331
1BB
  5
143
331
1BA
  5
144
331
1B9
  5
145
331
1B8
  5
146
331
1B7
  5
147
331
C1
  5
23D
331
1B6
  5
148
331
1B5
  5
149
331
1B4
  5
14A
331
1B3
  5
14B
331
BD
  5
241
331
1B2
  5
14C
331
A6
  5
258
331
1B1
  5
14D
331
1B0
  5
14E
331
1AF
  5
14F
331
1AE
  5
150
331
A2
  5
25C
331
1AD
  5
151
331
1AC
  5
152
331
1AB
  5
153
331
1AA
  5
154
331
1A9
  5
155
331
1A8
  5
156
331
1A7
  5
157
331
B1
  5
24D
331
1A6
  5
158
331
1A5
  5
159
331
1A4
  5
15A
331
1A3
  5
15B
331
AD
  5
251
331
1A2
  5
15C
331
96
  5
268
331
1A1
  5
15D
331
1A0
  5
15E
331
19F
  5
15F
331
19E
  5
160
331
19D
  5
161
331
19C
  5
162
331
19B
  5
163
331
19A
  5
164
331
199
  5
165
331
198
  5
166
331
197
  5
167
331
195
  5
169
331
194
  5
16A
331
193
  5
16B
331
9D
  5
261
331
192
  5
16C
331
191
  5
16D
331
18F
  5
16F
331
184
  5
17A
331
182
  5
17C
331
181
  5
17D
331
174
  5
18A
331
172
  5
18C
331
171
  5
18D
331
16F
  5
18F
331
164
  5
19A
331
162
  5
19C
331
161
  5
19D
331
15F
  5
19F
331
154
  5
1AA
331
152
  5
1AC
331
151
  5
1AD
331
14F
  5
1AF
331
144
  5
1BA
331
142
  5
1BC
331
141
  5
1BD
331
13F
  5
1BF
331
134
  5
1CA
331
132
  5
1CC
331
131
  5
1CD
331
12F
  5
1CF
331
124
  5
1DA
331
122
  5
1DC
331
121
  5
1DD
331
11F
  5
1DF
331
114
  5
1EA
331
112
  5
1EC
331
111
  5
1ED
331
10F
  5
1EF
331
104
  5
1FA
331
102
  5
1FC
331
101
  5
1FD
331
FF
  5
1FF
331
F4
  5
20A
331
F2
  5
20C
331
F1
  5
20D
331
EF
  5
20F
331
E4
  5
21A
331
E2
  5
21C
331
E1
  5
21D
331
DF
  5
21F
331
D4
  5
22A
331
D2
  5
22C
331
D1
  5
22D
331
CF
  5
22F
331
C4
  5
23A
331
C2
  5
23C
331
C0
  5
23E
331
BF
  5
23F
331
BE
  5
240
331
BC
  5
242
331
BB
  5
243
331
BA
  5
244
331
B9
  5
245
331
B8
  5
246
331
B7
  5
247
331
B5
  5
249
331
B4
  5
24A
331
B3
  5
24B
331
B0
  5
24E
331
AF
  5
24F
331
AE
  5
250
331
AC
  5
252
331
AB
  5
253
331
AA
  5
254
331
A9
  5
255
331
A8
  5
256
331
A7
  5
257
331
A5
  5
259
331
A4
  5
25A
331
A3
  5
25B
331
9F
  5
25F
331
9E
  5
260
331
9C
  5
262
331
9B
  5
263
331
9A
  5
264
331
99
  5
265
331
98
  5
266
331
97
  5
267
331
95
  5
269
331
94
  5
26A
331
93
  5
26B
331
92
  5
26C
331
8F
  5
26F
331
8E
  5
270
331
8D
  5
271
331
8C
  5
272
331
8B
  5
273
331
8A
  5
274
331
89
  5
275
331
88
  5
276
331
87
  5
277
331
86
  5
278
331
85
  5
279
331
84
  5
27A
331
7F
  5
27F
331
7E
  5
280
331
7D
  5
281
331
7C
  5
282
331
7B
  5
283
331
7A
  5
284
331
79
  5
285
331
78
  5
286
331
77
  5
287
331
76
  5
288
331
75
  5
289
331
74
  5
28A
331
6F
  5
28F
331
6E
  5
290
331
6D
  5
291
331
6C
  5
292
331
6B
  5
293
331
6A
  5
294
  0
LAYOUT
  5
21
102
{ACAD_REACTORS
330
1C
102
}
330
1C
100
AcDbPlotSettings
  1

  2
C:\Documents and Settings\basas\Application Data\Autodesk\AutoCAD 2005\R16.1\enu\plotters\Default Windows System Printer.pc3
  4

  6

 40
0.0
 41
0.0
 42
0.0
 43
0.0
 44
0.0
 45
0.0
 46
0.0
 47
0.0
 48
0.0
 49
0.0
140
0.0
141
0.0
142
1.0
143
1.0
 70
   688
 72
     0
 73
     0
 74
     5
  7
monochrome.ctb
 75
    16
 76
     0
 77
     2
 78
   300
147
1.0
148
0.0
149
0.0
100
AcDbLayout
  1
Layout1
 70
     1
 71
     1
 10
0.0
 20
0.0
 11
12.0
 21
9.0
 12
0.0
 22
0.0
 32
0.0
 14
0.0
 24
0.0
 34
0.0
 15
0.0
 25
0.0
 35
0.0
146
0.0
 13
0.0
 23
0.0
 33
0.0
 16
1.0
 26
0.0
 36
0.0
 17
0.0
 27
1.0
 37
0.0
 76
     0
330
1E
  0
LAYOUT
  5
1B
102
{ACAD_REACTORS
330
1C
102
}
330
1C
100
AcDbPlotSettings
  1

  2
Bullzip PDF Printer
  4
A4
  6

 40
3.174999952316284
 41
3.174999952316284
 42
3.175003051757812
 43
3.17498779296875
 44
209.8886566162109
 45
297.0530090332031
 46
-0.0000000000000142
 47
72.54093536808904
 48
-10231.88150136423
 49
12175.81663629009
140
-10039.05063740603
141
12313.77692920325
142
1.0
143
0.9473918616247852
 70
  3764
 72
     1
 73
     0
 74
     4
  7
monochrome.ctb
 75
     0
 76
     1
 77
     2
 78
   300
147
1.055529438774142
148
10231.88150136423
149
-12175.81663629009
100
AcDbLayout
  1
Model
 70
     1
 71
     0
 10
0.0
 20
0.0
 11
12.0
 21
9.0
 12
0.0
 22
0.0
 32
0.0
 14
0.0
 24
0.0
 34
0.0
 15
0.0
 25
0.0
 35
0.0
146
0.0
 13
0.0
 23
0.0
 33
0.0
 16
1.0
 26
0.0
 36
0.0
 17
0.0
 27
1.0
 37
0.0
 76
     0
330
16
1001
ACAD_PSEXT
1000
Bullzip PDF Printer
1000
Bullzip PDF Printer
1000
BULLZIP
1000

1070
     0
  0
MATERIAL
  5
D
102
{ACAD_REACTORS
330
8
102
}
330
8
100
AcDbMaterial
  1
ByLayer
 72
     0
 73
     2
 77
     0
 78
     2
171
     0
172
     2
175
     0
176
     2
179
     0
270
     2
274
     2
 94
      127
  0
MATERIAL
  5
7
330
8
100
AcDbMaterial
  1
Global
 72
     0
 73
     2
 77
     0
 78
     2
171
     0
172
     2
175
     0
176
     2
179
     0
270
     2
274
     2
 94
      127
  0
MLEADERSTYLE
  5
5D
330
5A
100
AcDbMLeaderStyle
179
     2
170
     2
171
     1
172
     0
 90
        2
 40
0.0
 41
0.0
173
     1
 91
-1023409924
340
C
 92
       15
290
     1
 42
2.0
291
     0
 43
2.0
  3
Standard
 44
4.0
300

342
5C
174
     2
178
     0
175
     1
176
     0
 93
-1056964608
 45
4.0
292
     0
297
     0
 46
4.0
 94
-1056964608
 47
1.0
 49
1.0
140
1.0
293
     1
141
0.0
294
     1
177
     0
142
1.0
295
     0
296
     0
143
0.125
271
     0
272
     9
273
     9
298
     0
  0
MLINESTYLE
  5
12
330
13
100
AcDbMlineStyle
  2
STANDARD
 70
     0
  3

 62
   256
 51
90.0
 52
90.0
 71
     2
 49
0.5
 62
   256
  6
BYLAYER
 49
-0.5
 62
   256
  6
BYLAYER
  0
ACDBPLACEHOLDER
  5
4
330
5
  0
SCALE
  5
38
102
{ACAD_REACTORS
330
37
102
}
330
37
100
AcDbScale
 70
     0
300
1:1
140
1.0
141
1.0
290
     1
  0
SCALE
  5
39
102
{ACAD_REACTORS
330
37
102
}
330
37
100
AcDbScale
 70
     0
300
1:2
140
1.0
141
2.0
290
     0
  0
SCALE
  5
3A
102
{ACAD_REACTORS
330
37
102
}
330
37
100
AcDbScale
 70
     0
300
1:4
140
1.0
141
4.0
290
     0
  0
SCALE
  5
3B
102
{ACAD_REACTORS
330
37
102
}
330
37
100
AcDbScale
 70
     0
300
1:5
140
1.0
141
5.0
290
     0
  0
SCALE
  5
3C
102
{ACAD_REACTORS
330
37
102
}
330
37
100
AcDbScale
 70
     0
300
1:8
140
1.0
141
8.0
290
     0
  0
SCALE
  5
3D
102
{ACAD_REACTORS
330
37
102
}
330
37
100
AcDbScale
 70
     0
300
1:10
140
1.0
141
10.0
290
     0
  0
SCALE
  5
3E
102
{ACAD_REACTORS
330
37
102
}
330
37
100
AcDbScale
 70
     0
300
1:16
140
1.0
141
16.0
290
     0
  0
SCALE
  5
3F
102
{ACAD_REACTORS
330
37
102
}
330
37
100
AcDbScale
 70
     0
300
1:20
140
1.0
141
20.0
290
     0
  0
SCALE
  5
40
102
{ACAD_REACTORS
330
37
102
}
330
37
100
AcDbScale
 70
     0
300
1:30
140
1.0
141
30.0
290
     0
  0
SCALE
  5
41
102
{ACAD_REACTORS
330
37
102
}
330
37
100
AcDbScale
 70
     0
300
1:40
140
1.0
141
40.0
290
     0
  0
SCALE
  5
42
102
{ACAD_REACTORS
330
37
102
}
330
37
100
AcDbScale
 70
     0
300
1:50
140
1.0
141
50.0
290
     0
  0
SCALE
  5
43
102
{ACAD_REACTORS
330
37
102
}
330
37
100
AcDbScale
 70
     0
300
1:100
140
1.0
141
100.0
290
     0
  0
SCALE
  5
44
102
{ACAD_REACTORS
330
37
102
}
330
37
100
AcDbScale
 70
     0
300
2:1
140
2.0
141
1.0
290
     0
  0
SCALE
  5
45
102
{ACAD_REACTORS
330
37
102
}
330
37
100
AcDbScale
 70
     0
300
4:1
140
4.0
141
1.0
290
     0
  0
SCALE
  5
46
102
{ACAD_REACTORS
330
37
102
}
330
37
100
AcDbScale
 70
     0
300
8:1
140
8.0
141
1.0
290
     0
  0
SCALE
  5
47
102
{ACAD_REACTORS
330
37
102
}
330
37
100
AcDbScale
 70
     0
300
10:1
140
10.0
141
1.0
290
     0
  0
SCALE
  5
48
102
{ACAD_REACTORS
330
37
102
}
330
37
100
AcDbScale
 70
     0
300
100:1
140
100.0
141
1.0
290
     0
  0
SCALE
  5
49
102
{ACAD_REACTORS
330
37
102
}
330
37
100
AcDbScale
 70
     0
300
1/128" = 1'-0"
140
0.0078125
141
12.0
290
     0
  0
SCALE
  5
4A
102
{ACAD_REACTORS
330
37
102
}
330
37
100
AcDbScale
 70
     0
300
1/64" = 1'-0"
140
0.015625
141
12.0
290
     0
  0
SCALE
  5
4B
102
{ACAD_REACTORS
330
37
102
}
330
37
100
AcDbScale
 70
     0
300
1/32" = 1'-0"
140
0.03125
141
12.0
290
     0
  0
SCALE
  5
4C
102
{ACAD_REACTORS
330
37
102
}
330
37
100
AcDbScale
 70
     0
300
1/16" = 1'-0"
140
0.0625
141
12.0
290
     0
  0
SCALE
  5
4D
102
{ACAD_REACTORS
330
37
102
}
330
37
100
AcDbScale
 70
     0
300
3/32" = 1'-0"
140
0.09375
141
12.0
290
     0
  0
SCALE
  5
4E
102
{ACAD_REACTORS
330
37
102
}
330
37
100
AcDbScale
 70
     0
300
1/8" = 1'-0"
140
0.125
141
12.0
290
     0
  0
SCALE
  5
4F
102
{ACAD_REACTORS
330
37
102
}
330
37
100
AcDbScale
 70
     0
300
3/16" = 1'-0"
140
0.1875
141
12.0
290
     0
  0
SCALE
  5
50
102
{ACAD_REACTORS
330
37
102
}
330
37
100
AcDbScale
 70
     0
300
1/4" = 1'-0"
140
0.25
141
12.0
290
     0
  0
SCALE
  5
51
102
{ACAD_REACTORS
330
37
102
}
330
37
100
AcDbScale
 70
     0
300
3/8" = 1'-0"
140
0.375
141
12.0
290
     0
  0
SCALE
  5
52
102
{ACAD_REACTORS
330
37
102
}
330
37
100
AcDbScale
 70
     0
300
1/2" = 1'-0"
140
0.5
141
12.0
290
     0
  0
SCALE
  5
53
102
{ACAD_REACTORS
330
37
102
}
330
37
100
AcDbScale
 70
     0
300
3/4" = 1'-0"
140
0.75
141
12.0
290
     0
  0
SCALE
  5
54
102
{ACAD_REACTORS
330
37
102
}
330
37
100
AcDbScale
 70
     0
300
1" = 1'-0"
140
1.0
141
12.0
290
     0
  0
SCALE
  5
55
102
{ACAD_REACTORS
330
37
102
}
330
37
100
AcDbScale
 70
     0
300
1-1/2" = 1'-0"
140
1.5
141
12.0
290
     0
  0
SCALE
  5
56
102
{ACAD_REACTORS
330
37
102
}
330
37
100
AcDbScale
 70
     0
300
3" = 1'-0"
140
3.0
141
12.0
290
     0
  0
SCALE
  5
57
102
{ACAD_REACTORS
330
37
102
}
330
37
100
AcDbScale
 70
     0
300
6" = 1'-0"
140
6.0
141
12.0
290
     0
  0
SCALE
  5
58
102
{ACAD_REACTORS
330
37
102
}
330
37
100
AcDbScale
 70
     0
300
1'-0" = 1'-0"
140
12.0
141
12.0
290
     0
  0
TABLESTYLE
  5
5B
330
59
100
AcDbTableStyle
  3
Standard
 70
     0
 71
     0
 40
0.06
 41
0.06
280
     0
281
     0
  7
Standard
140
4.5
170
     2
 62
     0
 63
     7
283
     0
 90
        4
 91
        0
  1

274
    -2
284
     1
 64
     0
275
    -2
285
     1
 65
     0
276
    -2
286
     1
 66
     0
277
    -2
287
     1
 67
     0
278
    -2
288
     1
 68
     0
279
    -2
289
     1
 69
     0
  7
Standard
140
6.0
170
     5
 62
     0
 63
     7
283
     0
 90
        4
 91
        0
  1

274
    -2
284
     1
 64
     0
275
    -2
285
     1
 65
     0
276
    -2
286
     1
 66
     0
277
    -2
287
     1
 67
     0
278
    -2
288
     1
 68
     0
279
    -2
289
     1
 69
     0
  7
Standard
140
4.5
170
     5
 62
     0
 63
     7
283
     0
 90
        4
 91
        0
  1

274
    -2
284
     1
 64
     0
275
    -2
285
     1
 65
     0
276
    -2
286
     1
 66
     0
277
    -2
287
     1
 67
     0
278
    -2
288
     1
 68
     0
279
    -2
289
     1
 69
     0
  0
VISUALSTYLE
  5
2B
330
2C
100
AcDbVisualStyle
  2
2dWireframe
 70
     4
177
     3
291
     0
 70
    58
 90
        0
176
     1
 90
        2
176
     1
 90
        0
176
     1
 90
        0
176
     1
 40
-0.6
176
     1
 40
-30.0
176
     1
 62
     7
420
 16777215
176
     1
 90
        1
176
     1
 90
        4
176
     1
 62
     7
176
     1
 62
   257
176
     1
 90
        1
176
     1
 90
        1
176
     1
 40
1.0
176
     1
 90
        0
176
     1
 62
   257
176
     1
 40
1.0
176
     1
 90
        1
176
     1
 90
        6
176
     1
 90
        2
176
     1
 62
     7
176
     1
 90
        5
176
     1
 90
        0
176
     1
 90
        0
176
     1
290
     0
176
     1
 90
        1
176
     1
 40
0.0
176
     1
 90
        0
176
     1
290
     1
176
     1
290
     1
176
     1
290
     0
176
     1
290
     0
176
     1
290
     0
176
     1
290
     0
176
     1
290
     0
176
     1
290
     0
176
     1
290
     0
176
     1
 90
       50
176
     1
 40
0.0
176
     1
 40
1.0
176
     1
 90
        0
176
     1
 62
    18
420
        0
176
     1
 90
       50
176
     1
 90
        3
176
     1
 62
     5
420
      255
176
     1
290
     0
176
     1
 90
       50
176
     1
 90
       50
176
     1
 90
       50
176
     1
290
     0
176
     1
 90
       50
176
     1
 62
   256
176
     0
 40
1.0
176
     0
 90
        2
176
     1
  1
strokes_ogs.tif
176
     1
290
     0
176
     1
 40
1.0
176
     1
 40
1.0
176
     1
  0
VISUALSTYLE
  5
36
102
{ACAD_REACTORS
330
2C
102
}
330
2C
100
AcDbVisualStyle
  2
3dWireframe
 70
     5
177
     3
291
     0
 70
    58
 90
        0
176
     1
 90
        2
176
     1
 90
        0
176
     1
 90
        0
176
     1
 40
-0.6
176
     1
 40
-30.0
176
     1
 62
     7
420
 16777215
176
     1
 90
        1
176
     1
 90
        4
176
     1
 62
     7
176
     1
 62
   257
176
     1
 90
        1
176
     1
 90
        1
176
     1
 40
1.0
176
     1
 90
        0
176
     1
 62
   257
176
     1
 40
1.0
176
     1
 90
        1
176
     1
 90
        6
176
     1
 90
        2
176
     1
 62
     7
176
     1
 90
        5
176
     1
 90
        0
176
     1
 90
        0
176
     1
290
     0
176
     1
 90
        1
176
     1
 40
0.0
176
     1
 90
        0
176
     1
290
     0
176
     1
290
     1
176
     1
290
     1
176
     1
290
     0
176
     1
290
     0
176
     1
290
     0
176
     1
290
     0
176
     1
290
     0
176
     1
290
     0
176
     1
 90
       50
176
     1
 40
0.0
176
     1
 40
1.0
176
     1
 90
        0
176
     1
 62
    18
420
        0
176
     1
 90
       50
176
     1
 90
        3
176
     1
 62
     5
420
      255
176
     1
290
     0
176
     1
 90
       50
176
     1
 90
       50
176
     1
 90
       50
176
     1
290
     0
176
     1
 90
       50
176
     1
 62
   256
176
     0
 40
1.0
176
     0
 90
        2
176
     1
  1
strokes_ogs.tif
176
     1
290
     0
176
     1
 40
1.0
176
     1
 40
1.0
176
     1
  0
VISUALSTYLE
  5
35
102
{ACAD_REACTORS
330
2C
102
}
330
2C
100
AcDbVisualStyle
  2
Realistic
 70
     8
177
     3
291
     0
 70
    58
 90
        2
176
     1
 90
        2
176
     1
 90
        0
176
     1
 90
        0
176
     1
 40
-0.6
176
     1
 40
-30.0
176
     1
 62
     7
420
 16777215
176
     1
 90
        1
176
     1
 90
        0
176
     1
 62
     7
176
     1
 62
   257
176
     1
 90
        1
176
     1
 90
        1
176
     1
 40
1.0
176
     1
 90
        8
176
     1
 62
     8
420
  7895160
176
     1
 40
1.0
176
     1
 90
        1
176
     1
 90
        6
176
     1
 90
        2
176
     1
 62
     7
176
     1
 90
        5
176
     1
 90
        0
176
     1
 90
        0
176
     1
290
     0
176
     1
 90
       13
176
     1
 40
0.0
176
     1
 90
        0
176
     1
290
     0
176
     1
290
     1
176
     1
290
     1
176
     1
290
     0
176
     1
290
     0
176
     1
290
     0
176
     1
290
     0
176
     1
290
     0
176
     1
290
     0
176
     1
 90
       50
176
     1
 40
0.0
176
     1
 40
1.0
176
     1
 90
        0
176
     1
 62
    18
420
        0
176
     1
 90
       50
176
     1
 90
        3
176
     1
 62
     5
420
      255
176
     1
290
     0
176
     1
 90
       50
176
     1
 90
       50
176
     1
 90
       50
176
     1
290
     0
176
     1
 90
       50
176
     1
 62
   256
176
     0
 40
1.0
176
     0
 90
        2
176
     1
  1
strokes_ogs.tif
176
     1
290
     0
176
     1
 40
1.0
176
     1
 40
1.0
176
     1
  0
DICTIONARYVAR
  5
5F
330
5E
100
DictionaryVariables
280
     0
  1
1:1
  0
DICTIONARYVAR
  5
60
330
5E
100
DictionaryVariables
280
     0
  1
STANDARD
  0
DICTIONARYVAR
  5
61
330
5E
100
DictionaryVariables
280
     0
  1
STANDARD
  0
DICTIONARYVAR
  5
62
330
5E
100
DictionaryVariables
280
     0
  1
2
  0
DICTIONARYVAR
  5
63
330
5E
100
DictionaryVariables
280
     0
  1
1
  0
DICTIONARYVAR
  5
64
330
5E
100
DictionaryVariables
280
     0
  1
1
  0
DICTIONARYVAR
  5
65
330
5E
100
DictionaryVariables
280
     0
  1
15
  0
DICTIONARYVAR
  5
66
330
5E
100
DictionaryVariables
280
     0
  1
2
  0
DICTIONARYVAR
  5
67
330
5E
100
DictionaryVariables
280
     0
  1
1
  0
ENDSEC
  0
SECTION
  2
ACDSDATA
 70
     2
 71
     2
  0
ACDSSCHEMA
 90
        0
  1
AcDb3DSolid_ASM_Data
  2
AcDbDs::ID
280
    10
 91
        0
  2
ASM_Data
280
    15
 91
        0
101
ACDSRECORD
 95
        0
 90
        1
  2
AcDbDs::TreatedAsObjectData
280
     1
291
     1
101
ACDSRECORD
 95
        0
 90
        2
  2
AcDbDs::Legacy
280
     1
291
     1
101
ACDSRECORD
  1
AcDbDs::ID
 90
        3
  2
AcDs:Indexable
280
     1
291
     1
101
ACDSRECORD
  1
AcDbDs::ID
 90
        4
  2
AcDbDs::HandleAttribute
280
     7
282
     1
  0
ACDSSCHEMA
 90
        1
  1
AcDbDs::TreatedAsObjectDataSchema
  2
AcDbDs::TreatedAsObjectData
280
     1
 91
        0
  0
ACDSSCHEMA
 90
        2
  1
AcDbDs::LegacySchema
  2
AcDbDs::Legacy
280
     1
 91
        0
  0
ACDSSCHEMA
 90
        3
  1
AcDbDs::IndexedPropertySchema
  2
AcDs:Indexable
280
     1
 91
        0
  0
ACDSSCHEMA
 90
        4
  1
AcDbDs::HandleAttributeSchema
  2
AcDbDs::HandleAttribute
280
     7
 91
        8
  0
ENDSEC
  0
EOF
